<svg xmlns="http://www.w3.org/2000/svg" xmlns:xlink="http://www.w3.org/1999/xlink" fill="none" version="1.1"
     width="75.25" height="80.537109375" viewBox="0 0 75.25 80.537109375">
    <g>
        <g>
            <g>
                <path d="M40.9225,39.972918750000005C40.9225,40.22401875,40.9199,40.47491875,40.9149,40.725618749999995C40.9199,40.97641875,40.9225,41.227318749999995,40.9225,41.47841875C40.9225,49.79041875,38.2003,59.59291875,32.395399999999995,66.82311874999999C30.9107,68.67241874999999,28.417,69.34451874999999,26.1605,68.61461875C13.84431,64.63031875,5.800873,55.53751875,5.499333691,40.725618749999995C5.800873,25.91371875,13.84431,16.82095875,26.1605,12.83674875C28.417,12.10678875,30.9107,12.77889175,32.395399999999995,14.62823875C38.2003,21.85841875,40.9225,31.66091875,40.9225,39.972918750000005ZM14.64909,25.30141875Q9.91994,31.39421875,9.70894,40.725618749999995Q9.91993,50.05711875,14.64909,56.14991875Q19.1237,61.91481875,27.4559,64.61021875Q27.949,64.76981875,28.4242,64.63571875Q28.8512,64.51511875,29.1136,64.18821875Q32.806,59.58921875,34.8274,53.27351875Q36.7138,47.37961875,36.7138,41.47841875Q36.7138,41.14461875,36.7071,40.80941875L36.7055,40.725618749999995L36.7071,40.64191875Q36.7138,40.30671875,36.7138,39.972918750000005Q36.7138,34.07171875,34.8274,28.17781875Q32.806,21.86211875,29.1136,17.26307875Q28.8512,16.93617875,28.4242,16.81565875Q27.949,16.68154875,27.4559,16.84108875Q19.1237,19.53648875,14.64909,25.30141875Z"
                      fill-rule="evenodd" fill="#FFFFFF" fill-opacity="1"/>
            </g>
            <g>
                <path d="M58.901681249999996,11.2304665625Q58.901681249999996,11.7007265625,58.701581250000004,12.1262765625L54.02381125,22.7675765625L65.53628125,22.7675765625L65.53628125,26.7607765625L54.713491250000004,26.7607765625L61.07448125,35.4740765625L59.95008125,38.0429765625L65.53628125,38.0429765625L65.53628125,43.1121765625L57.73128125,43.1121765625L53.47053125,52.8463765625L54.103801250000004,53.1962765625L65.53628125,53.1962765625L65.53628125,57.1894765625L61.33068125,57.1894765625L61.48788125,57.2763765625L55.52418125,68.5538765625Q55.45908125,68.6848765625,55.37658125,68.8055765625Q55.29398125,68.9263765625,55.195581250000004,69.0344765625Q55.097151249999996,69.1425765625,54.98470125,69.2360765625Q54.87225125,69.3295765625,54.74795125,69.4066765625Q54.62365125,69.4836765625,54.48989125,69.5427765625Q54.35614125,69.6019765625,54.21549125,69.64197656249999Q54.07484125,69.6820765625,53.930001250000004,69.7022765625Q53.78517125,69.72247656249999,53.63893125,69.72247656249999Q53.53552125,69.72247656249999,53.43260125,69.7123765625Q53.329691249999996,69.7021765625,53.22827125,69.6820765625Q53.12684125,69.6618765625,53.02788125,69.6318765625Q52.92892125,69.6018765625,52.83338125,69.5622765625Q52.73784125,69.52267656250001,52.64664125,69.4739765625Q52.55544125,69.4251765625,52.46945125,69.3677765625Q52.38347125,69.31027656250001,52.30353125,69.24467656249999Q52.22359125,69.1790765625,52.15047125,69.10597656249999Q52.07735125,69.03287656250001,52.01174125,68.9528765625Q51.94614125,68.8729765625,51.88869125,68.7869765625Q51.83123125,68.7009765625,51.78249125,68.6097765625Q51.73374125,68.5185765625,51.69416125,68.4230765625Q51.65459125,68.32747656250001,51.62457125,68.2285765625Q51.59455125,68.1295765625,51.57438125,68.0281765625Q51.55420125,67.92677656250001,51.54407125,67.8237765625Q51.53393125,67.7208765625,51.53393125,67.6174765625Q51.53393125,67.3466765625,51.60249125,67.0846765625Q51.67105125,66.82257656249999,51.80370125,66.5864765625L55.83578125,58.9616765625L52.62854125,57.1894765625L45.11328125,57.1894765625L45.11328125,53.1962765625L48.72323125,53.1962765625L53.137111250000004,43.1121765625L45.11328125,43.1121765625L45.11328125,38.0429765625L55.355881249999996,38.0429765625L56.24918125,36.0021765625L49.50267125,26.7607765625L45.11328125,26.7607765625L45.11328125,22.7675765625L49.42649125,22.7675765625L54.84876125,10.4326165625Q54.90781125,10.288446562499999,54.98745125,10.1545365625Q55.06708125,10.0206285625,55.16558125,9.8999025625Q55.264081250000004,9.7791775625,55.37918125,9.6742655625Q55.49438125,9.5693535625,55.62378125,9.4825405625Q55.75318125,9.3957285625,55.89388125,9.3289075625Q56.03458125,9.2620875625,56.18368125,9.2167143625Q56.33268125,9.1713414625,56.48678125,9.1484050625Q56.64088125,9.1254687305,56.79668125,9.1254687305Q56.90008125,9.1254687305,57.00298125,9.1356048825Q57.10598125,9.1457410625,57.20738125,9.1659156625Q57.308781249999996,9.1860903625,57.40778125,9.2161093625Q57.50668125,9.2461285625,57.602281250000004,9.2857025625Q57.69778125,9.3252765625,57.78898125,9.3740245625Q57.88018125,9.4227725625,57.96618125,9.4802255625Q58.052181250000004,9.5376775625,58.13208125,9.6032815625Q58.21208125,9.6688855625,58.28518125,9.7420085625Q58.35828125,9.8151325625,58.42388125,9.8950705625Q58.48948125,9.9750095625,58.54698125,10.0609935625Q58.60438125,10.1469765625,58.65318125,10.2381765625Q58.70188125,10.3293765625,58.74148125,10.4249165625Q58.78108125,10.5204565625,58.81108125,10.6194165625Q58.84108125,10.7183765625,58.86128125,10.8198065625Q58.881381250000004,10.9212265625,58.89158125,11.0241465625Q58.901681249999996,11.1270565625,58.901681249999996,11.2304665625Z"
                      fill-rule="evenodd" fill="#FFFFFF" fill-opacity="1"/>
            </g>
        </g>
    </g>
</svg>