<svg xmlns="http://www.w3.org/2000/svg" xmlns:xlink="http://www.w3.org/1999/xlink" fill="none" version="1.1" width="45"
     height="45" viewBox="0 0 45 45">
    <defs>
        <clipPath id="master_svg0_551_13394">
            <rect x="0" y="0" width="45" height="45" rx="0"/>
        </clipPath>
    </defs>
    <g clip-path="url(#master_svg0_551_13394)">
        <rect x="0" y="0" width="45" height="45" rx="0" fill="#FFFFFF" fill-opacity="0"/>
        <g>
            <g>
                <path d="M27.437496250000002,6.6923828Q29.291656250000003,7.050871,31.14065625,7.726565Q31.153456249999998,7.730535,31.16405625,7.734375C36.31945625,9.607975,40.40235625,14.139804999999999,40.40235625,21.121775L40.40235625,22.802275C40.40235625,29.784175,36.31945625,34.316874999999996,31.16405625,36.190475Q31.15115625,36.193375,31.14065625,36.197275000000005Q29.29155625,36.873374999999996,27.437496250000002,37.231475C23.58076625,37.976275,18.59765625,33.581775,18.59765625,28.495375L18.59765625,15.428625C18.59765625,10.342245,23.58076625,5.947506,27.437496250000002,6.6923828ZM35.308856250000005,29.622275Q33.423556250000004,32.158474999999996,30.20505625,33.346775Q30.15745625,33.362475,30.11045625,33.379675Q28.48684625,33.973375000000004,26.86860625,34.285875000000004Q26.29251625,34.397175000000004,25.50238625,34.094475Q24.52840625,33.721374999999995,23.63745625,32.875074999999995Q22.691166250000002,31.976175,22.14870625,30.828675Q21.59765625,29.663175,21.59765625,28.495375L21.59765625,15.428625Q21.59765625,14.260855,22.14871625,13.095234999999999Q22.69118625,11.947775,23.637486250000002,11.048845Q24.52843625,10.202494999999999,25.50241625,9.829375Q26.29253625,9.526685,26.86802625,9.637834999999999Q28.48699625,9.950845000000001,30.110856249999998,10.544295L30.182556249999998,10.570505L30.19555625,10.574495Q33.42095625,11.762654999999999,35.308856250000005,14.302245Q37.40235625,17.118275,37.40235625,21.121775L37.40235625,22.802275Q37.40235625,26.805875,35.308856250000005,29.622275Z"
                      fill-rule="evenodd" fill="#FFFFFF" fill-opacity="1"/>
            </g>
            <g transform="matrix(0.9736791253089905,0.22804014384746552,-0.2585107684135437,0.9660038948059082,2.5139552814653143,-1.081917115370743)">
                <path d="M14.4718125,10.342185624999999Q14.6229925,10.238935625,14.7448925,10.102352625Q14.8668025,9.965770625,14.9522825,9.803878625Q15.0377625,9.641986625,15.0817925,9.464287625Q15.1258225,9.286588625,15.1258225,9.103515625Q15.1258225,9.029825325,15.1186025,8.956489625Q15.1113725,8.883154625,15.0969925,8.810880625Q15.0826225,8.738605625,15.0612325,8.668088625Q15.0398425,8.597571625,15.0116425,8.529490625Q14.9834425,8.461409625,14.9487025,8.396420625Q14.9139625,8.331431625,14.8730225,8.270160625Q14.8320825,8.208888625,14.7853325,8.151925625Q14.7385825,8.094965625,14.6864825,8.042855625Q14.6343725,7.990745625,14.5774125,7.9439956249999994Q14.5204425,7.897255625,14.4591725,7.856315625Q14.3979025,7.815375625,14.3329125,7.780635625Q14.2679225,7.745895625,14.1998425,7.717695625Q14.1317625,7.689495625,14.061242499999999,7.668105625Q13.9907325,7.646715625,13.9184525,7.632335625Q13.846182500000001,7.617965625,13.7728425,7.610735625Q13.6995125,7.603515625,13.6258225,7.603515625Q13.3994225,7.603515625,13.1831025,7.670335625Q12.9667925,7.737155625,12.779832500000001,7.864845625L12.7794025,7.865135625L5.2555735,13.003775625Q5.1043955,13.107025625,4.9824925,13.243605625Q4.8605825,13.380185625,4.7751025,13.542085625Q4.6896225000000005,13.703975625,4.6455925,13.881675625Q4.6015625,14.059375625000001,4.6015625,14.242445625Q4.6015625,14.316135625000001,4.6087825,14.389475625Q4.6160125,14.462805625,4.6303825,14.535075625000001Q4.6447625,14.607355625,4.6661525,14.677875625Q4.6875425,14.748385625000001,4.7157425,14.816465625Q4.7439425,14.884555625,4.7786825,14.949535625Q4.8134225,15.014525625000001,4.8543625,15.075795625Q4.8953025,15.137075625,4.9420424999999994,15.194035625Q4.9887925,15.250995625,5.0409025,15.303105625Q5.0930125,15.355215625,5.1499725,15.401965624999999Q5.2069355,15.448705624999999,5.2682075,15.489645625Q5.3294785000000005,15.530585625,5.3944675,15.565325625Q5.4594565,15.600065625,5.5275375,15.628265625000001Q5.5956185000000005,15.656465625,5.6661355,15.677855625Q5.7366525,15.699245625,5.8089275,15.713625624999999Q5.8812015,15.727995625,5.9545365,15.735225625Q6.0278722,15.742445625,6.1015625,15.742445625Q6.3279635,15.742445625,6.5442785,15.675625625Q6.7605945,15.608805624999999,6.9475515,15.481115625000001L14.4718125,10.342185624999999L14.4718125,10.342185624999999Z"
                      fill-rule="evenodd" fill="#FFFFFF" fill-opacity="1"/>
            </g>
            <g transform="matrix(0.9736791253089905,0.22804014384746552,-0.2585107684135437,0.9660038948059082,4.022777839272749,-0.8428020015708171)">
                <path d="M14.29603125,16.1966778125Q14.44721125,16.0934278125,14.56911125,15.9568448125Q14.69102125,15.8202628125,14.77650125,15.6583708125Q14.86198125,15.4964788125,14.90601125,15.3187798125Q14.95004125,15.1410808125,14.95004125,14.9580078125Q14.95004125,14.8843175125,14.94282125,14.8109818125Q14.93559125,14.7376468125,14.92121125,14.6653728125Q14.90684125,14.5930978125,14.88545125,14.5225808125Q14.86406125,14.4520638125,14.83586125,14.3839828125Q14.80766125,14.3159018125,14.77292125,14.2509128125Q14.73818125,14.1859238125,14.69724125,14.1246528125Q14.65630125,14.0633808125,14.60955125,14.0064178125Q14.56280125,13.9494578125,14.51070125,13.8973478125Q14.45859125,13.8452378125,14.40163125,13.7984878125Q14.34466125,13.7517478125,14.28339125,13.7108078125Q14.22212125,13.6698678125,14.15713125,13.6351278125Q14.09214125,13.6003878125,14.02406125,13.5721878125Q13.95598125,13.5439878125,13.885461249999999,13.522597812499999Q13.81495125,13.5012078125,13.74267125,13.4868278125Q13.670401250000001,13.4724578125,13.59706125,13.4652278125Q13.52373125,13.4580078125,13.45004125,13.4580078125Q13.22364125,13.4580078125,13.00732125,13.5248278125Q12.79101125,13.5916478125,12.604051250000001,13.719337812500001L12.60362125,13.7196278125L5.07979225,18.8582678125Q4.92861425,18.9615178125,4.80671125,19.0980978125Q4.68480125,19.2346778125,4.59932125,19.3965778125Q4.5138412500000005,19.558467812499998,4.46981125,19.7361678125Q4.42578125,19.9138678125,4.42578125,20.096937812500002Q4.42578125,20.1706278125,4.43300125,20.2439678125Q4.44023125,20.3172978125,4.45460125,20.3895678125Q4.46898125,20.4618478125,4.49037125,20.5323678125Q4.51176125,20.6028778125,4.53996125,20.6709578125Q4.56816125,20.7390478125,4.60290125,20.8040278125Q4.63764125,20.8690178125,4.67858125,20.930287812499998Q4.71952125,20.9915678125,4.7662612499999994,21.048527812499998Q4.81301125,21.1054878125,4.86512125,21.1575978125Q4.91723125,21.2097078125,4.97419125,21.2564578125Q5.03115425,21.3031978125,5.09242625,21.3441378125Q5.1536972500000005,21.3850778125,5.21868625,21.4198178125Q5.28367525,21.4545578125,5.35175625,21.4827578125Q5.4198372500000005,21.5109578125,5.49035425,21.5323478125Q5.56087125,21.5537378125,5.63314625,21.5681178125Q5.70542025,21.5824878125,5.77875525,21.589717812499998Q5.85209095,21.596937812500002,5.92578125,21.596937812500002Q6.15218225,21.596937812500002,6.36849725,21.530117812500002Q6.58481325,21.4632978125,6.77177025,21.3356078125L14.29603125,16.1966778125L14.29603125,16.1966778125Z"
                      fill-rule="evenodd" fill="#FFFFFF" fill-opacity="1"/>
            </g>
            <g transform="matrix(0.9736791253089905,0.22804014384746552,-0.2585107684135437,0.9660038948059082,5.483799695153721,-0.6913602974964306)">
                <path d="M14.4718125,21.830466875Q14.6229925,21.727216875,14.7448925,21.590633875Q14.8668025,21.454051875,14.9522825,21.292159875Q15.0377625,21.130267875,15.0817925,20.952568875Q15.1258225,20.774869875,15.1258225,20.591796875Q15.1258225,20.518106575,15.1186025,20.444770875Q15.1113725,20.371435875,15.0969925,20.299161875Q15.0826225,20.226886875,15.0612325,20.156369875Q15.0398425,20.085852875,15.0116425,20.017771875Q14.9834425,19.949690875,14.9487025,19.884701875Q14.9139625,19.819712875,14.8730225,19.758441875Q14.8320825,19.697169875,14.7853325,19.640206875Q14.7385825,19.583246875,14.6864825,19.531136875Q14.6343725,19.479026875,14.5774125,19.432276875Q14.5204425,19.385536875,14.4591725,19.344596875Q14.3979025,19.303656875,14.3329125,19.268916875Q14.2679225,19.234176875,14.1998425,19.205976875Q14.1317625,19.177776875,14.061242499999999,19.156386875Q13.9907325,19.134996875,13.9184525,19.120616875Q13.846182500000001,19.106246875,13.7728425,19.099016875Q13.6995125,19.091796875,13.6258225,19.091796875Q13.3994225,19.091796875,13.1831025,19.158616875Q12.9667925,19.225436875,12.779832500000001,19.353126875L12.7794025,19.353416875L5.2555735,24.492056875Q5.1043955,24.595306875,4.9824925,24.731886875Q4.8605825,24.868466875,4.7751025,25.030366875Q4.6896225000000005,25.192256874999998,4.6455925,25.369956875Q4.6015625,25.547656875,4.6015625,25.730726875000002Q4.6015625,25.804416875,4.6087825,25.877756875Q4.6160125,25.951086875,4.6303825,26.023356875Q4.6447625,26.095636875,4.6661525,26.166156875Q4.6875425,26.236666875,4.7157425,26.304746875Q4.7439425,26.372836875,4.7786825,26.437816875Q4.8134225,26.502806875,4.8543625,26.564076874999998Q4.8953025,26.625356875,4.9420424999999994,26.682316874999998Q4.9887925,26.739276875,5.0409025,26.791386875Q5.0930125,26.843496875,5.1499725,26.890246875Q5.2069355,26.936986875,5.2682075,26.977926875Q5.3294785000000005,27.018866875,5.3944675,27.053606875Q5.4594565,27.088346875,5.5275375,27.116546875Q5.5956185000000005,27.144746875,5.6661355,27.166136875Q5.7366525,27.187526875,5.8089275,27.201906875Q5.8812015,27.216276875,5.9545365,27.223506874999998Q6.0278722,27.230726875000002,6.1015625,27.230726875000002Q6.3279635,27.230726875000002,6.5442785,27.163906875000002Q6.7605945,27.097086875,6.9475515,26.969396875L14.4718125,21.830466875L14.4718125,21.830466875Z"
                      fill-rule="evenodd" fill="#FFFFFF" fill-opacity="1"/>
            </g>
            <g transform="matrix(0.9736791253089905,0.22804014384746552,-0.2585107684135437,0.9660038948059082,6.921008488687221,-0.5023565603187308)">
                <path d="M14.4718125,27.3900371875Q14.6229925,27.2867871875,14.7448925,27.1502041875Q14.8668025,27.0136221875,14.9522825,26.8517301875Q15.0377625,26.6898381875,15.0817925,26.5121391875Q15.1258225,26.3344401875,15.1258225,26.1513671875Q15.1258225,26.0776768875,15.1186025,26.0043411875Q15.1113725,25.9310061875,15.0969925,25.8587321875Q15.0826225,25.7864571875,15.0612325,25.7159401875Q15.0398425,25.6454231875,15.0116425,25.5773421875Q14.9834425,25.5092611875,14.9487025,25.4442721875Q14.9139625,25.3792831875,14.8730225,25.3180121875Q14.8320825,25.2567401875,14.7853325,25.1997771875Q14.7385825,25.1428171875,14.6864825,25.0907071875Q14.6343725,25.0385971875,14.5774125,24.9918471875Q14.5204425,24.9451071875,14.4591725,24.9041671875Q14.3979025,24.8632271875,14.3329125,24.8284871875Q14.2679225,24.7937471875,14.1998425,24.7655471875Q14.1317625,24.7373471875,14.061242499999999,24.7159571875Q13.9907325,24.6945671875,13.9184525,24.6801871875Q13.846182500000001,24.6658171875,13.7728425,24.6585871875Q13.6995125,24.6513671875,13.6258225,24.6513671875Q13.3994225,24.6513671875,13.1831025,24.7181871875Q12.9667925,24.7850071875,12.779832500000001,24.9126971875L12.7794025,24.9129871875L5.2555735,30.0516271875Q5.1043955,30.1548771875,4.9824925,30.2914571875Q4.8605825,30.4280371875,4.7751025,30.5899371875Q4.6896225000000005,30.751827187499998,4.6455925,30.9295271875Q4.6015625,31.1072271875,4.6015625,31.290297187500002Q4.6015625,31.3639871875,4.6087825,31.4373271875Q4.6160125,31.5106571875,4.6303825,31.5829271875Q4.6447625,31.6552071875,4.6661525,31.7257271875Q4.6875425,31.7962371875,4.7157425,31.8643171875Q4.7439425,31.9324071875,4.7786825,31.9973871875Q4.8134225,32.0623771875,4.8543625,32.1236471875Q4.8953025,32.1849271875,4.9420424999999994,32.2418871875Q4.9887925,32.2988471875,5.0409025,32.3509571875Q5.0930125,32.4030671875,5.1499725,32.4498171875Q5.2069355,32.4965571875,5.2682075,32.5374971875Q5.3294785000000005,32.5784371875,5.3944675,32.6131771875Q5.4594565,32.6479171875,5.5275375,32.6761171875Q5.5956185000000005,32.7043171875,5.6661355,32.7257071875Q5.7366525,32.7470971875,5.8089275,32.7614771875Q5.8812015,32.7758471875,5.9545365,32.7830771875Q6.0278722,32.7902971875,6.1015625,32.7902971875Q6.3279635,32.7902971875,6.5442785,32.7234771875Q6.7605945,32.6566571875,6.9475515,32.5289671875L14.4718125,27.3900371875L14.4718125,27.3900371875Z"
                      fill-rule="evenodd" fill="#FFFFFF" fill-opacity="1"/>
            </g>
            <g transform="matrix(0.9736791253089905,0.22804014384746552,-0.2585107684135437,0.9660038948059082,8.358217282220721,-0.31335282314103097)">
                <path d="M14.4718125,32.9496075Q14.6229925,32.8463575,14.7448925,32.7097745Q14.8668025,32.5731925,14.9522825,32.4113005Q15.0377625,32.2494085,15.0817925,32.0717095Q15.1258225,31.8940105,15.1258225,31.7109375Q15.1258225,31.6372472,15.1186025,31.5639115Q15.1113725,31.4905765,15.0969925,31.4183025Q15.0826225,31.3460275,15.0612325,31.2755105Q15.0398425,31.2049935,15.0116425,31.1369125Q14.9834425,31.0688315,14.9487025,31.0038425Q14.9139625,30.9388535,14.8730225,30.8775825Q14.8320825,30.8163105,14.7853325,30.7593475Q14.7385825,30.7023875,14.6864825,30.6502775Q14.6343725,30.5981675,14.5774125,30.5514175Q14.5204425,30.5046775,14.4591725,30.4637375Q14.3979025,30.4227975,14.3329125,30.3880575Q14.2679225,30.3533175,14.1998425,30.3251175Q14.1317625,30.2969175,14.061242499999999,30.2755275Q13.9907325,30.2541375,13.9184525,30.2397575Q13.846182500000001,30.2253875,13.7728425,30.2181575Q13.6995125,30.2109375,13.6258225,30.2109375Q13.3994225,30.2109375,13.1831025,30.2777575Q12.9667925,30.3445775,12.779832500000001,30.4722675L12.7794025,30.4725575L5.2555735,35.6111975Q5.1043955,35.7144475,4.9824925,35.8510275Q4.8605825,35.9876075,4.7751025,36.1495075Q4.6896225000000005,36.3113975,4.6455925,36.4890975Q4.6015625,36.6667975,4.6015625,36.8498675Q4.6015625,36.9235575,4.6087825,36.9968975Q4.6160125,37.0702275,4.6303825,37.1424975Q4.6447625,37.2147775,4.6661525,37.2852975Q4.6875425,37.3558075,4.7157425,37.4238875Q4.7439425,37.4919775,4.7786825,37.5569575Q4.8134225,37.6219475,4.8543625,37.6832175Q4.8953025,37.7444975,4.9420424999999994,37.8014575Q4.9887925,37.8584175,5.0409025,37.9105275Q5.0930125,37.9626375,5.1499725,38.0093875Q5.2069355,38.0561275,5.2682075,38.0970675Q5.3294785000000005,38.1380075,5.3944675,38.1727475Q5.4594565,38.2074875,5.5275375,38.2356875Q5.5956185000000005,38.2638875,5.6661355,38.2852775Q5.7366525,38.3066675,5.8089275,38.3210475Q5.8812015,38.3354175,5.9545365,38.3426475Q6.0278722,38.3498675,6.1015625,38.3498675Q6.3279635,38.3498675,6.5442785,38.2830475Q6.7605945,38.2162275,6.9475515,38.0885375L14.4718125,32.9496075L14.4718125,32.9496075Z"
                      fill-rule="evenodd" fill="#FFFFFF" fill-opacity="1"/>
            </g>
        </g>
    </g>
</svg>