<svg xmlns="http://www.w3.org/2000/svg" xmlns:xlink="http://www.w3.org/1999/xlink" fill="none" version="1.1" width="68"
     height="68" viewBox="0 0 68 68">
    <defs>
        <clipPath id="master_svg0_551_13783">
            <rect x="0" y="0" width="68" height="68" rx="0"/>
        </clipPath>
    </defs>
    <g clip-path="url(#master_svg0_551_13783)">
        <rect x="0" y="0" width="68" height="68" rx="0" fill="#FFFFFF" fill-opacity="0"/>
        <g>
            <g transform="matrix(-1,0,0,1,65.96875,0)">
                <g>
                    <path d="M50.627775,33.597171875C50.627775,33.732471875,50.626575,33.867771875,50.624075000000005,34.002871875C50.626575,34.137971875,50.627775,34.273171875,50.627775,34.408471875000004C50.627775,38.849671875,49.293875,43.296571875,46.452875,46.983071875C45.675675,47.991671875,44.330975,48.377471875,43.122875,47.975371875C37.073985,45.962071875,33.133329,41.919371874999996,32.984375,34.002871875C33.133329,26.086401875,37.073985,22.038381875,43.122875,20.024080875C44.330875,19.621791875,45.675875,20.007840875,46.452875,21.016511875C49.293875,24.704291875,50.627775,29.156061875,50.627775,33.597171875ZM38.599555,26.954511875Q36.583525,29.535771875000002,36.485105,34.002871875Q36.583505,38.468771875,38.598885,41.047571875Q40.351645,43.290371875000005,43.908075,44.544771874999995Q47.127775,40.174371875,47.127975,34.440771874999996L47.124175,33.970671875L47.127775,33.581771875Q47.123475,27.822271875,43.907875000000004,23.454771875Q40.352895000000004,24.709551875,38.599555,26.954511875Z"
                          fill-rule="evenodd" fill="#FFFFFF" fill-opacity="1"/>
                </g>
            </g>
            <g>
                <g>
                    <path d="M52.659025,33.597171875C52.659025,33.732471875,52.657825,33.867771875,52.655325000000005,34.002871875C52.657825,34.137971875,52.659025,34.273171875,52.659025,34.408471875000004C52.659025,38.849671875,51.325125,43.296571875,48.484125,46.983071875C47.706925,47.991671875,46.362225,48.377471875,45.154125,47.975371875C39.105235,45.962071875,35.164579,41.919371874999996,35.015625,34.002871875C35.164579,26.086401875,39.105235,22.038381875,45.154125,20.024080875C46.362125,19.621791875,47.707125,20.007840875,48.484125,21.016511875C51.325125,24.704291875,52.659025,29.156061875,52.659025,33.597171875ZM40.630805,26.954511875Q38.614775,29.535771875000002,38.516355,34.002871875Q38.614755,38.468771875,40.630135,41.047571875Q42.382895,43.290371875000005,45.939325,44.544771874999995Q49.159025,40.174371875,49.159225,34.440771874999996L49.155425,33.970671875L49.159025,33.581771875Q49.154725,27.822271875,45.939125000000004,23.454771875Q42.384145000000004,24.709551875,40.630805,26.954511875Z"
                          fill-rule="evenodd" fill="#FFFFFF" fill-opacity="1"/>
                </g>
            </g>
            <g transform="matrix(-1,0,0,1,27.2421875,0)">
                <path d="M20.97275375,25.479309999999998Q21.08957375,25.43853,21.19872375,25.38026Q21.307883750000002,25.322,21.40678375,25.24765Q21.50568375,25.17329,21.59197375,25.08462Q21.67826375,24.99594,21.74990375,24.895057Q21.82153375,24.79417,21.87680375,24.683469Q21.93207375,24.572768,21.96967375,24.454886Q22.00726375,24.337003,22.02629375,24.214743Q22.04531375,24.092482,22.04531375,23.96875Q22.04531375,23.890147,22.03761375,23.811923Q22.029903750000003,23.733698,22.01456375,23.656605Q21.999233750000002,23.579513,21.97641375,23.504294Q21.95360375,23.429076,21.92352375,23.356457Q21.89344375,23.283837,21.85638375,23.214515Q21.81933375,23.145194,21.77566375,23.079838Q21.73199375,23.014482,21.68213375,22.95372Q21.63226375,22.89296,21.57668375,22.83738Q21.52110375,22.7818,21.46034375,22.73193Q21.399583749999998,22.68207,21.33422375,22.6384Q21.26886375,22.59473,21.19954375,22.55768Q21.13022375,22.52062,21.05760375,22.49054Q20.984983749999998,22.46046,20.90976375,22.43765Q20.83455375,22.41483,20.75745375,22.39949Q20.680363749999998,22.38416,20.60214375,22.37645Q20.52391375,22.36875,20.44531375,22.36875Q20.17400375,22.36875,19.91787375,22.458190000000002L19.91732375,22.45838L13.09405675,24.840857L13.09364975,24.840999Q12.97683475,24.881787,12.86767875,24.94005Q12.758522750000001,24.99831,12.65962275,25.07267Q12.56072375,25.14702,12.47443375,25.235689999999998Q12.38813375,25.324370000000002,12.31650375,25.42526Q12.24487375,25.52614,12.18960375,25.63684Q12.13432375,25.74754,12.09673375,25.86543Q12.05914375,25.98331,12.04011375,26.10557Q12.02109375,26.22783,12.02109375,26.35156Q12.02109375,26.43017,12.02879375,26.50839Q12.03650375,26.58661,12.05183375,26.663710000000002Q12.06717375,26.7408,12.08999375,26.81602Q12.11280375,26.89124,12.14288375,26.96386Q12.172963750000001,27.03648,12.21002375,27.1058Q12.24707375,27.17512,12.29074375,27.240470000000002Q12.33441375,27.30583,12.38427375,27.36659Q12.43414375,27.42735,12.48972375,27.48293Q12.54530375,27.53851,12.60606375,27.58838Q12.66682575,27.63824,12.73218175,27.68191Q12.79753775,27.72558,12.86685875,27.76264Q12.93618075,27.79969,13.00880075,27.82977Q13.08141975,27.85985,13.15663775,27.88267Q13.23185675,27.90548,13.30894875,27.92082Q13.38604175,27.93615,13.46426675,27.94386Q13.54249075,27.95156,13.62109375,27.95156Q13.89239775,27.95156,14.14853775,27.86213L20.97209375,25.47955L20.97275375,25.479309999999998L20.97275375,25.479309999999998Z"
                      fill-rule="evenodd" fill="#FFFFFF" fill-opacity="1"/>
            </g>
            <g>
                <path d="M61.73056625,25.479309999999998Q61.84738625,25.43853,61.95653625,25.38026Q62.06569625,25.322,62.16459625,25.24765Q62.26349625,25.17329,62.34978625,25.08462Q62.43607625,24.99594,62.50771625,24.895057Q62.57934625,24.79417,62.63461625,24.683469Q62.68988625,24.572768,62.72748625,24.454886Q62.76507625,24.337003,62.78410625,24.214743Q62.80312625,24.092482,62.80312625,23.96875Q62.80312625,23.890147,62.79542625,23.811923Q62.78771625,23.733698,62.77237625,23.656605Q62.75704625,23.579513,62.73422625,23.504294Q62.71141625,23.429076,62.68133625,23.356457Q62.65125625,23.283837,62.61419625,23.214515Q62.57714625,23.145194,62.53347625,23.079838Q62.48980625,23.014482,62.43994625,22.95372Q62.39007625,22.89296,62.33449625,22.83738Q62.27891625,22.7818,62.21815625,22.73193Q62.15739625,22.68207,62.09203625,22.6384Q62.02667625,22.59473,61.957356250000004,22.55768Q61.88803625,22.52062,61.81541625,22.49054Q61.74279625,22.46046,61.667576249999996,22.43765Q61.59236625,22.41483,61.515266249999996,22.39949Q61.43817625,22.38416,61.359956249999996,22.37645Q61.28172625,22.36875,61.20312625,22.36875Q60.93181625,22.36875,60.67568625,22.458190000000002L60.67513625,22.45838L53.85186925,24.840857L53.85146225,24.840999Q53.73464725,24.881787,53.62549125,24.94005Q53.51633525,24.99831,53.41743525,25.07267Q53.31853625,25.14702,53.23224625,25.235689999999998Q53.14594625,25.324370000000002,53.07431625,25.42526Q53.00268625,25.52614,52.94741625,25.63684Q52.89213625,25.74754,52.85454625,25.86543Q52.81695625,25.98331,52.79792625,26.10557Q52.77890625,26.22783,52.77890625,26.35156Q52.77890625,26.43017,52.78660625,26.50839Q52.79431625,26.58661,52.80964625,26.663710000000002Q52.82498625,26.7408,52.84780625,26.81602Q52.87061625,26.89124,52.90069625,26.96386Q52.93077625,27.03648,52.96783625,27.1058Q53.00488625,27.17512,53.04855625,27.240470000000002Q53.09222625,27.30583,53.14208625,27.36659Q53.19195625,27.42735,53.24753625,27.48293Q53.30311625,27.53851,53.36387625,27.58838Q53.42463825,27.63824,53.48999425,27.68191Q53.555350250000004,27.72558,53.62467125,27.76264Q53.69399325,27.79969,53.76661325,27.82977Q53.83923225,27.85985,53.91445025,27.88267Q53.98966925,27.90548,54.06676125,27.92082Q54.14385425,27.93615,54.22207925,27.94386Q54.30030325,27.95156,54.37890625,27.95156Q54.65021025,27.95156,54.90635025,27.86213L61.72990625,25.47955L61.73056625,25.479309999999998L61.73056625,25.479309999999998Z"
                      fill-rule="evenodd" fill="#FFFFFF" fill-opacity="1"/>
            </g>
            <g transform="matrix(-1,0,0,-1,27.2421875,90.005859375)">
                <path d="M20.97275375,46.5134896875Q21.08957375,46.4727096875,21.19872375,46.4144396875Q21.307883750000002,46.3561796875,21.40678375,46.2818296875Q21.50568375,46.2074696875,21.59197375,46.1187996875Q21.67826375,46.0301196875,21.74990375,45.9292366875Q21.82153375,45.8283496875,21.87680375,45.7176486875Q21.93207375,45.6069476875,21.96967375,45.4890656875Q22.00726375,45.3711826875,22.02629375,45.2489226875Q22.04531375,45.1266616875,22.04531375,45.0029296875Q22.04531375,44.9243266875,22.03761375,44.8461026875Q22.029903750000003,44.7678776875,22.01456375,44.6907846875Q21.999233750000002,44.6136926875,21.97641375,44.5384736875Q21.95360375,44.4632556875,21.92352375,44.3906366875Q21.89344375,44.3180166875,21.85638375,44.2486946875Q21.81933375,44.179373687500004,21.77566375,44.1140176875Q21.73199375,44.0486616875,21.68213375,43.9878996875Q21.63226375,43.9271396875,21.57668375,43.8715596875Q21.52110375,43.8159796875,21.46034375,43.7661096875Q21.399583749999998,43.7162496875,21.33422375,43.6725796875Q21.26886375,43.6289096875,21.19954375,43.5918596875Q21.13022375,43.5547996875,21.05760375,43.5247196875Q20.984983749999998,43.4946396875,20.90976375,43.4718296875Q20.83455375,43.4490096875,20.75745375,43.4336696875Q20.680363749999998,43.4183396875,20.60214375,43.4106296875Q20.52391375,43.4029296875,20.44531375,43.4029296875Q20.17400375,43.4029296875,19.91787375,43.4923696875L19.91732375,43.4925596875L13.09405675,45.8750366875L13.09364975,45.8751786875Q12.97683475,45.9159666875,12.86767875,45.9742296875Q12.758522750000001,46.032489687500004,12.65962275,46.1068496875Q12.56072375,46.1811996875,12.47443375,46.2698696875Q12.38813375,46.3585496875,12.31650375,46.4594396875Q12.24487375,46.5603196875,12.18960375,46.6710196875Q12.13432375,46.7817196875,12.09673375,46.8996096875Q12.05914375,47.0174896875,12.04011375,47.1397496875Q12.02109375,47.2620096875,12.02109375,47.3857396875Q12.02109375,47.4643496875,12.02879375,47.5425696875Q12.03650375,47.6207896875,12.05183375,47.6978896875Q12.06717375,47.7749796875,12.08999375,47.8501996875Q12.11280375,47.925419687499996,12.14288375,47.9980396875Q12.172963750000001,48.0706596875,12.21002375,48.1399796875Q12.24707375,48.2092996875,12.29074375,48.2746496875Q12.33441375,48.3400096875,12.38427375,48.4007696875Q12.43414375,48.4615296875,12.48972375,48.5171096875Q12.54530375,48.5726896875,12.60606375,48.6225596875Q12.66682575,48.6724196875,12.73218175,48.7160896875Q12.79753775,48.7597596875,12.86685875,48.7968196875Q12.93618075,48.8338696875,13.00880075,48.863949687499996Q13.08141975,48.8940296875,13.15663775,48.9168496875Q13.23185675,48.9396596875,13.30894875,48.9549996875Q13.38604175,48.9703296875,13.46426675,48.9780396875Q13.54249075,48.9857396875,13.62109375,48.9857396875Q13.89239775,48.9857396875,14.14853775,48.8963096875L20.97209375,46.5137296875L20.97275375,46.5134896875L20.97275375,46.5134896875Z"
                      fill-rule="evenodd" fill="#FFFFFF" fill-opacity="1"/>
            </g>
            <g transform="matrix(1,0,0,-1,0,90.005859375)">
                <path d="M61.73056625,46.5134896875Q61.84738625,46.4727096875,61.95653625,46.4144396875Q62.06569625,46.3561796875,62.16459625,46.2818296875Q62.26349625,46.2074696875,62.34978625,46.1187996875Q62.43607625,46.0301196875,62.50771625,45.9292366875Q62.57934625,45.8283496875,62.63461625,45.7176486875Q62.68988625,45.6069476875,62.72748625,45.4890656875Q62.76507625,45.3711826875,62.78410625,45.2489226875Q62.80312625,45.1266616875,62.80312625,45.0029296875Q62.80312625,44.9243266875,62.79542625,44.8461026875Q62.78771625,44.7678776875,62.77237625,44.6907846875Q62.75704625,44.6136926875,62.73422625,44.5384736875Q62.71141625,44.4632556875,62.68133625,44.3906366875Q62.65125625,44.3180166875,62.61419625,44.2486946875Q62.57714625,44.179373687500004,62.53347625,44.1140176875Q62.48980625,44.0486616875,62.43994625,43.9878996875Q62.39007625,43.9271396875,62.33449625,43.8715596875Q62.27891625,43.8159796875,62.21815625,43.7661096875Q62.15739625,43.7162496875,62.09203625,43.6725796875Q62.02667625,43.6289096875,61.957356250000004,43.5918596875Q61.88803625,43.5547996875,61.81541625,43.5247196875Q61.74279625,43.4946396875,61.667576249999996,43.4718296875Q61.59236625,43.4490096875,61.515266249999996,43.4336696875Q61.43817625,43.4183396875,61.359956249999996,43.4106296875Q61.28172625,43.4029296875,61.20312625,43.4029296875Q60.93181625,43.4029296875,60.67568625,43.4923696875L60.67513625,43.4925596875L53.85186925,45.8750366875L53.85146225,45.8751786875Q53.73464725,45.9159666875,53.62549125,45.9742296875Q53.51633525,46.032489687500004,53.41743525,46.1068496875Q53.31853625,46.1811996875,53.23224625,46.2698696875Q53.14594625,46.3585496875,53.07431625,46.4594396875Q53.00268625,46.5603196875,52.94741625,46.6710196875Q52.89213625,46.7817196875,52.85454625,46.8996096875Q52.81695625,47.0174896875,52.79792625,47.1397496875Q52.77890625,47.2620096875,52.77890625,47.3857396875Q52.77890625,47.4643496875,52.78660625,47.5425696875Q52.79431625,47.6207896875,52.80964625,47.6978896875Q52.82498625,47.7749796875,52.84780625,47.8501996875Q52.87061625,47.925419687499996,52.90069625,47.9980396875Q52.93077625,48.0706596875,52.96783625,48.1399796875Q53.00488625,48.2092996875,53.04855625,48.2746496875Q53.09222625,48.3400096875,53.14208625,48.4007696875Q53.19195625,48.4615296875,53.24753625,48.5171096875Q53.30311625,48.5726896875,53.36387625,48.6225596875Q53.42463825,48.6724196875,53.48999425,48.7160896875Q53.555350250000004,48.7597596875,53.62467125,48.7968196875Q53.69399325,48.8338696875,53.76661325,48.863949687499996Q53.83923225,48.8940296875,53.91445025,48.9168496875Q53.98966925,48.9396596875,54.06676125,48.9549996875Q54.14385425,48.9703296875,54.22207925,48.9780396875Q54.30030325,48.9857396875,54.37890625,48.9857396875Q54.65021025,48.9857396875,54.90635025,48.8963096875L61.72990625,46.5137296875L61.73056625,46.5134896875L61.73056625,46.5134896875Z"
                      fill-rule="evenodd" fill="#FFFFFF" fill-opacity="1"/>
            </g>
            <g transform="matrix(-1,0,0,1,27.2421875,0)">
                <path d="M13.62109375,32.886328125L21.09765375,32.886328125Q21.17626375,32.886328125,21.25448375,32.894028125Q21.33270375,32.901738125,21.409803750000002,32.917068125Q21.48689375,32.932408125,21.56211375,32.955228125Q21.63733375,32.978038125,21.70994375,33.008118125Q21.782573749999997,33.038198125,21.851893750000002,33.075258125Q21.92121375,33.112308125,21.986563750000002,33.155978125Q22.05192375,33.199648125,22.112683750000002,33.249508125Q22.17344375,33.299378125,22.22902375,33.354958125Q22.284603750000002,33.410538125,22.33447375,33.471298125Q22.38433375,33.532060125,22.428003750000002,33.597416125Q22.47167375,33.662772125000004,22.508733749999998,33.732093125Q22.54578375,33.801415125,22.57586375,33.874035125Q22.60594375,33.946654125,22.628763749999997,34.021872125Q22.65157375,34.097091125,22.66691375,34.174183125Q22.682243749999998,34.251276125,22.68995375,34.329501125Q22.69765375,34.407725125,22.69765375,34.486328125Q22.69765375,34.564931125,22.68995375,34.643155125Q22.682243749999998,34.721380125,22.66691375,34.798473125Q22.65157375,34.875565125,22.628763749999997,34.950784125Q22.60594375,35.026002125,22.57586375,35.098621125Q22.54578375,35.171241125,22.508733749999998,35.240563125Q22.47167375,35.309884124999996,22.428003750000002,35.375240125Q22.38433375,35.440596125,22.33447375,35.501358125Q22.284603750000002,35.562118125,22.22902375,35.617698125Q22.17344375,35.673278125,22.112683750000002,35.723148125Q22.05192375,35.773008125,21.986563750000002,35.816678125Q21.92121375,35.860348125,21.851893750000002,35.897398125Q21.782573749999997,35.934458125,21.70994375,35.964538125Q21.63733375,35.994618125,21.56211375,36.017428125Q21.48689375,36.040248125,21.409803750000002,36.055588125Q21.33270375,36.070918125,21.25448375,36.078628125Q21.17626375,36.086328125,21.09765375,36.086328125L13.62109375,36.086328125Q13.54249075,36.086328125,13.46426675,36.078628125Q13.38604175,36.070918125,13.30894875,36.055588125Q13.23185675,36.040248125,13.15663775,36.017428125Q13.08141975,35.994618125,13.00880075,35.964538125Q12.93618075,35.934458125,12.86685875,35.897398125Q12.79753775,35.860348125,12.73218175,35.816678125Q12.66682575,35.773008125,12.60606375,35.723148125Q12.54530375,35.673278125,12.48972375,35.617698125Q12.43414375,35.562118125,12.38427375,35.501358125Q12.33441375,35.440596125,12.29074375,35.375240125Q12.24707375,35.309884124999996,12.21002375,35.240563125Q12.172963750000001,35.171241125,12.14288375,35.098621125Q12.11280375,35.026002125,12.08999375,34.950784125Q12.06717375,34.875565125,12.05183375,34.798473125Q12.03650375,34.721380125,12.02879375,34.643155125Q12.02109375,34.564931125,12.02109375,34.486328125Q12.02109375,34.407725125,12.02879375,34.329501125Q12.03650375,34.251276125,12.05183375,34.174183125Q12.06717375,34.097091125,12.08999375,34.021872125Q12.11280375,33.946654125,12.14288375,33.874035125Q12.172963750000001,33.801415125,12.21002375,33.732093125Q12.24707375,33.662772125000004,12.29074375,33.597416125Q12.33441375,33.532060125,12.38427375,33.471298125Q12.43414375,33.410538125,12.48972375,33.354958125Q12.54530375,33.299378125,12.60606375,33.249508125Q12.66682575,33.199648125,12.73218175,33.155978125Q12.79753775,33.112308125,12.86685875,33.075258125Q12.93618075,33.038198125,13.00880075,33.008118125Q13.08141975,32.978038125,13.15663775,32.955228125Q13.23185675,32.932408125,13.30894875,32.917068125Q13.38604175,32.901738125,13.46426675,32.894028125Q13.54249075,32.886328125,13.62109375,32.886328125Z"
                      fill-rule="evenodd" fill="#FFFFFF" fill-opacity="1"/>
            </g>
            <g>
                <path d="M54.37890625,32.886328125L61.85546625,32.886328125Q61.934076250000004,32.886328125,62.01229625,32.894028125Q62.09051625,32.901738125,62.16761625,32.917068125Q62.24470625,32.932408125,62.31992625,32.955228125Q62.395146249999996,32.978038125,62.46775625,33.008118125Q62.54038625,33.038198125,62.60970625,33.075258125Q62.67902625,33.112308125,62.74437625,33.155978125Q62.80973625,33.199648125,62.87049625,33.249508125Q62.931256250000004,33.299378125,62.986836249999996,33.354958125Q63.04241625,33.410538125,63.09228625,33.471298125Q63.142146249999996,33.532060125,63.18581625,33.597416125Q63.22948625,33.662772125000004,63.26654625,33.732093125Q63.30359625,33.801415125,63.333676249999996,33.874035125Q63.36375625,33.946654125,63.38657625,34.021872125Q63.40938625,34.097091125,63.42472625,34.174183125Q63.44005625,34.251276125,63.44776625,34.329501125Q63.45546625,34.407725125,63.45546625,34.486328125Q63.45546625,34.564931125,63.44776625,34.643155125Q63.44005625,34.721380125,63.42472625,34.798473125Q63.40938625,34.875565125,63.38657625,34.950784125Q63.36375625,35.026002125,63.333676249999996,35.098621125Q63.30359625,35.171241125,63.26654625,35.240563125Q63.22948625,35.309884124999996,63.18581625,35.375240125Q63.142146249999996,35.440596125,63.09228625,35.501358125Q63.04241625,35.562118125,62.986836249999996,35.617698125Q62.931256250000004,35.673278125,62.87049625,35.723148125Q62.80973625,35.773008125,62.74437625,35.816678125Q62.67902625,35.860348125,62.60970625,35.897398125Q62.54038625,35.934458125,62.46775625,35.964538125Q62.395146249999996,35.994618125,62.31992625,36.017428125Q62.24470625,36.040248125,62.16761625,36.055588125Q62.09051625,36.070918125,62.01229625,36.078628125Q61.934076250000004,36.086328125,61.85546625,36.086328125L54.37890625,36.086328125Q54.30030325,36.086328125,54.22207925,36.078628125Q54.14385425,36.070918125,54.06676125,36.055588125Q53.98966925,36.040248125,53.91445025,36.017428125Q53.83923225,35.994618125,53.76661325,35.964538125Q53.69399325,35.934458125,53.62467125,35.897398125Q53.555350250000004,35.860348125,53.48999425,35.816678125Q53.42463825,35.773008125,53.36387625,35.723148125Q53.30311625,35.673278125,53.24753625,35.617698125Q53.19195625,35.562118125,53.14208625,35.501358125Q53.09222625,35.440596125,53.04855625,35.375240125Q53.00488625,35.309884124999996,52.96783625,35.240563125Q52.93077625,35.171241125,52.90069625,35.098621125Q52.87061625,35.026002125,52.84780625,34.950784125Q52.82498625,34.875565125,52.80964625,34.798473125Q52.79431625,34.721380125,52.78660625,34.643155125Q52.77890625,34.564931125,52.77890625,34.486328125Q52.77890625,34.407725125,52.78660625,34.329501125Q52.79431625,34.251276125,52.80964625,34.174183125Q52.82498625,34.097091125,52.84780625,34.021872125Q52.87061625,33.946654125,52.90069625,33.874035125Q52.93077625,33.801415125,52.96783625,33.732093125Q53.00488625,33.662772125000004,53.04855625,33.597416125Q53.09222625,33.532060125,53.14208625,33.471298125Q53.19195625,33.410538125,53.24753625,33.354958125Q53.30311625,33.299378125,53.36387625,33.249508125Q53.42463825,33.199648125,53.48999425,33.155978125Q53.555350250000004,33.112308125,53.62467125,33.075258125Q53.69399325,33.038198125,53.76661325,33.008118125Q53.83923225,32.978038125,53.91445025,32.955228125Q53.98966925,32.932408125,54.06676125,32.917068125Q54.14385425,32.901738125,54.22207925,32.894028125Q54.30030325,32.886328125,54.37890625,32.886328125Z"
                      fill-rule="evenodd" fill="#FFFFFF" fill-opacity="1"/>
            </g>
        </g>
    </g>
</svg>