<svg xmlns="http://www.w3.org/2000/svg" xmlns:xlink="http://www.w3.org/1999/xlink" fill="none" version="1.1"
     width="67.921875" height="37.23828125" viewBox="0 0 67.921875 37.23828125">
    <g>
        <g>
            <path d="M5.50052,29.828Q3.12613,29.4585,1.56307,27.6334Q0,25.8083,0,23.4053L0,9.5Q0,7.56823,0.747173,5.80171Q1.46838,4.0966,2.78249,2.78249Q4.09659,1.46838,5.80171,0.747173Q7.56823,0,9.5,0L49.7656,0Q52.3077,0,54.6316,0.982929Q56.8751,1.93184,58.6045,3.66117Q60.3338,5.39049,61.2827,7.63398Q62.2656,9.95787,62.2656,12.5L62.2656,28.7366Q62.2656,29.653,62.0801,30.5234L66.9219,30.5234C67.4742,30.5234,67.9219,30.9712,67.9219,31.5234L67.9219,35.1953C67.9219,35.7476,67.4742,36.1953,66.9219,36.1953L57.8492,36.1953Q57.0536,36.6322,56.1659,36.894Q54.3491,37.4297,52.4586,37.1355L5.50052,29.828ZM57.5045,32.7713Q57.4257,32.8434,57.3432,32.914Q55.4208,34.5604,52.9199,34.1712L5.96182,26.8637Q4.6833,26.6647,3.84165,25.682Q3,24.6992,3,23.4053L3,9.5Q3,6.80761,4.90381,4.90381Q6.80761,3,9.5,3L49.7656,3Q51.6994,3,53.463,3.74594Q55.1676,4.46692,56.4831,5.78249Q57.7987,7.09805,58.5197,8.80263Q59.2656,10.5662,59.2656,12.5L59.2656,28.7366Q59.2656,30.3786,58.4565,31.6483L57.5045,32.7713Z"
                  fill-rule="evenodd" fill="#FFFFFF" fill-opacity="1"/>
        </g>
    </g>
</svg>