<svg xmlns="http://www.w3.org/2000/svg" xmlns:xlink="http://www.w3.org/1999/xlink" fill="none" version="1.1"
     width="63.41015625" height="54.10546875" viewBox="0 0 63.41015625 54.10546875">
    <g>
        <g>
            <path d="M57.93718151245117,29.756073304748536L58.40858151245117,29.756073304748536Q59.23698151245117,29.756073304748536,59.82278151245117,30.341773304748536Q60.40858151245117,30.927573304748535,60.40858151245117,31.756073304748536L60.40858151245117,32.25217330474854Q60.40858151245117,33.08057330474854,59.82278151245117,33.66637330474853Q59.23698151245117,34.25217330474854,58.40858151245117,34.25217330474854L56.37928151245117,34.25217330474854C56.37598151245117,34.25217330474854,56.373381512451175,34.25477330474854,56.373381512451175,34.25797330474853C56.373381512451175,34.261273304748535,56.370781512451174,34.263873304748536,56.367581512451174,34.263873304748536L56.28118151245117,34.263873304748536C56.23438151245117,34.263873304748536,56.19498151245117,34.299373304748535,56.189281512451174,34.34587330474854Q55.906781512451175,36.66767330474853,55.03228151245117,38.876673304748536Q53.629581512451175,42.419873304748535,50.934981512451174,45.114473304748536Q48.24028151245117,47.80907330474854,44.69708151245117,49.21177330474853Q41.43388151245117,50.50367330474854,37.92418151245117,50.50367330474854Q34.414481512451175,50.50367330474854,31.15128151245117,49.21177330474853Q27.607981512451172,47.80907330474854,24.913381512451174,45.114473304748536Q22.218791512451173,42.419873304748535,20.816071512451174,38.876673304748536Q20.48262151245117,38.034373304748534,20.23524151245117,37.175673304748535C20.186121512451173,37.00517330474854,20.162461512451173,36.82597330474854,20.162461512451173,36.64857330474854L20.162461512451173,36.25217330474854C20.162461512451173,35.14757330474853,19.267021512451173,34.25217330474854,18.162461512451173,34.25217330474854L17.349961512451173,34.25217330474854Q16.521531512451173,34.25217330474854,15.935741512451171,33.66637330474853Q15.930251512451171,33.660873304748534,15.924801512451172,33.65537330474854C15.360431512451171,33.083373304748534,14.719181512451172,32.35367330474854,13.915681512451172,32.35367330474854L13.900231512451171,32.35367330474854C13.049746512451172,32.35367330474854,12.340497512451172,33.049173304748535,12.613108312451171,33.854773304748534C13.051964512451171,35.151673304748535,14.009721512451172,36.219573304748536,15.258411512451172,36.79437330474853C15.988381512451172,37.130273304748535,16.63455151245117,37.70697330474853,16.866961512451173,38.47627330474853C19.654981512451172,47.70447330474853,28.179581512451172,54.10367330474853,37.92418151245117,54.10367330474853C47.68448151245117,54.10367330474853,56.21998151245117,47.683973304748534,58.994281512451174,38.433373304748535C59.22128151245117,37.67637330474854,59.85078151245117,37.10487330474854,60.56398151245117,36.76437330474853C62.26818151245117,35.950673304748534,63.40858151245117,34.21487330474854,63.40858151245117,32.25217330474854L63.40858151245117,31.756073304748536C63.40858151245117,29.777573304748536,62.25018151245117,28.031673304748534,60.52668151245117,27.226173304748535C59.81038151245117,26.891373304748534,59.169381512451174,26.336173304748534,58.93518151245117,25.580973304748536C56.59608151245117,18.038483304748535,50.388781512451175,12.342233304748536,42.719281512451175,10.632141604748535C41.65008151245117,10.393741304748534,40.66638151245117,11.243265304748535,40.66638151245117,12.338713304748534C40.66638151245117,13.239823304748535,41.32268151245117,13.994473304748535,42.19898151245117,14.204483304748535Q43.46558151245117,14.508033304748535,44.69708151245117,14.995583304748536Q48.24028151245117,16.398313304748534,50.934981512451174,19.092923304748535Q53.629581512451175,21.787573304748534,55.03228151245117,25.330773304748533Q55.559981512451174,26.663773304748535,55.87218151245117,28.037873304748537C56.09518151245117,29.019573304748537,56.93048151245117,29.756073304748536,57.93718151245117,29.756073304748536"
                  fill-rule="evenodd" fill="#FFFFFF" fill-opacity="1"/>
        </g>
        <g>
            <ellipse cx="45.71484375" cy="32.3515625" rx="4" ry="4" fill="#FFFFFF" fill-opacity="1"/>
        </g>
        <g>
            <ellipse cx="29.78515625" cy="32.3515625" rx="4" ry="4" fill="#FFFFFF" fill-opacity="1"/>
        </g>
        <g>
            <rect x="1.600000023841858" y="9.955468773841858" width="23.952343702316284" height="15.819531202316284"
                  rx="2.399999976158142" fill-opacity="0" stroke-opacity="1" stroke="#FFFFFF" fill="none"
                  stroke-width="3.200000047683716"/>
        </g>
        <g>
            <rect x="12.390625" y="14.625" width="2.375" height="6.480468273162842" rx="0" fill="#FFFFFF"
                  fill-opacity="1"/>
        </g>
        <g>
            <path d="M17.80078125,10.7461L17.80078125,7.97461Q17.80078125,7.77884,17.81038702,7.58331Q17.81999275,7.38778,17.83918115,7.19296Q17.85836955,6.99814,17.88709435,6.80449Q17.91581925,6.61084,17.95401125,6.41884Q17.99220325,6.22684,18.03977025,6.03694Q18.08733725,5.84704,18.14416525,5.6597Q18.20099325,5.47237,18.26694425,5.28804Q18.33289625,5.10372,18.40781225,4.92286Q18.48272825,4.74199,18.56642925,4.56502Q18.65012925,4.38805,18.74241325,4.2154Q18.83469125,4.04275,18.93534125,3.87484Q19.03598125,3.70693,19.14474125,3.54415Q19.25351125,3.38138,19.37012125,3.22414Q19.48674125,3.0669,19.61093125,2.91557Q19.73513125,2.76424,19.86659125,2.61919Q19.99806125,2.47414,20.13649125,2.33571Q20.27492125,2.19728,20.41997125,2.06581Q20.56502125,1.93435,20.71635125,1.81015Q20.86768125,1.68596,21.02492125,1.56934Q21.18216125,1.45273,21.344931250000002,1.34396Q21.50771125,1.2352,21.67562125,1.13456Q21.843531249999998,1.03391,22.01618125,0.941632Q22.18883125,0.849348,22.36580125,0.765648Q22.54277125,0.681947,22.72364125,0.607031Q22.90450125,0.532115,23.08882125,0.466163Q23.273151249999998,0.400212,23.46048125,0.343384Q23.64782125,0.286556,23.83772125,0.238989Q24.02762125,0.191422,24.21962125,0.15323Q24.41162125,0.115038,24.60527125,0.0863131Q24.79892125,0.0575883,24.99374125,0.0383999Q25.18856125,0.0192115,25.38409125,0.00960577Q25.57962125,0,25.77539125,0L25.95898125,0Q26.15475125,0,26.350281250000002,0.00960577Q26.54581125,0.0192115,26.74063125,0.0383999Q26.93545125,0.0575883,27.129101249999998,0.0863131Q27.32275125,0.115038,27.51475125,0.15323Q27.70676125,0.191422,27.89668125,0.238989Q28.086581250000002,0.286556,28.273881250000002,0.343384Q28.46118125,0.400212,28.64558125,0.466163Q28.82988125,0.532115,29.01078125,0.607031Q29.19158125,0.681947,29.36858125,0.765648Q29.545581249999998,0.849348,29.71818125,0.941632Q29.89088125,1.03391,30.05878125,1.13456Q30.22668125,1.2352,30.38948125,1.34396Q30.55218125,1.45273,30.70948125,1.56934Q30.86668125,1.68596,31.01798125,1.81015Q31.16938125,1.93435,31.31438125,2.06581Q31.45948125,2.19728,31.59788125,2.33571Q31.736281249999998,2.47414,31.86778125,2.61919Q31.99928125,2.76424,32.12348125,2.91557Q32.24768125,3.0669,32.36428125,3.22414Q32.480881249999996,3.38138,32.58958125,3.54415Q32.69838125,3.70693,32.79908125,3.87484Q32.89968125,4.04275,32.99198125,4.2154Q33.084281250000004,4.38805,33.16798125,4.56502Q33.251681250000004,4.74199,33.326581250000004,4.92286Q33.40148125,5.10372,33.46738125,5.28804Q33.53338125,5.47237,33.59018125,5.6597Q33.64708125,5.84704,33.69458125,6.03694Q33.74218125,6.22684,33.78038125,6.41884Q33.81858125,6.61084,33.84728125,6.80449Q33.875981249999995,6.99814,33.89518125,7.19296Q33.914381250000005,7.38778,33.92398125,7.58331Q33.93358125,7.77884,33.93358125,7.97461L33.93358125,16.9812L33.93738125,16.9812Q33.93738125,17.0575,33.93638125,17.2044Q33.93138125,17.9291,34.000381250000004,18.1484Q34.06448125,18.352,34.34908125,18.5304Q35.92398125,19.5172,41.76388125,19.5172L41.76388125,22.7172Q35.00428125,22.7172,32.65008125,21.242Q31.36618125,20.4376,30.947981249999998,19.1091Q30.72798125,18.41,30.73648125,17.1822Q30.73658125,17.1597,30.73668125,17.1406L30.73358125,17.1406L30.73358125,7.97461Q30.73358125,5.9969,29.335181249999998,4.59845Q27.93668125,3.2,25.95898125,3.2L25.77539125,3.2Q23.79768125,3.2,22.39923125,4.59845Q21.00078125,5.9969,21.00078125,7.97461L21.00078125,10.7461L17.80078125,10.7461Z"
                  fill-rule="evenodd" fill="#FFFFFF" fill-opacity="1"/>
        </g>
    </g>
</svg>