<svg xmlns="http://www.w3.org/2000/svg" xmlns:xlink="http://www.w3.org/1999/xlink" fill="none" version="1.1"
     width="59.98046875" height="46.4296875" viewBox="0 0 59.98046875 46.4296875">
    <g>
        <g transform="matrix(-1,0,0,1,86.953125,0)">
            <rect x="45.07656252384186" y="18.990625023841858" width="23.952343702316284" height="15.819531202316284"
                  rx="2.399999976158142" fill-opacity="0" stroke-opacity="1" stroke="#FFFFFF" fill="none"
                  stroke-width="3.200000047683716"/>
        </g>
        <g transform="matrix(-1,0,0,1,63.1796875,0)">
            <rect x="31.58984375" y="23.1171875" width="3.3828125" height="7.566405296325684" rx="0" fill="#FFFFFF"
                  fill-opacity="1"/>
        </g>
        <g transform="matrix(-1,0,0,1,104.6328125,0)">
            <path d="M52.31640625,17.333985L52.31640625,17.617185L55.51640625,17.617185L55.51640625,17.333985Q55.51640625,15.356275,56.91485625,13.957825Q58.31330625,12.559375,60.29101625,12.559375L60.92773625,12.559375Q62.90540625,12.559375,64.30390625,13.957825Q65.70230624999999,15.356275,65.70230624999999,17.333985L65.70230624999999,19.082034999999998L68.90230625,19.082034999999998L68.90230625,17.333985Q68.90230625,17.138215,68.89270625,16.942685Q68.88310625,16.747155,68.86390625,16.552335Q68.84470625,16.357515,68.81600625,16.163865Q68.78730625,15.970215,68.74910625,15.778215Q68.71090625,15.586215,68.66330625,15.396315000000001Q68.61580624999999,15.206415,68.55900625,15.019075Q68.50210625,14.831745,68.43620625,14.647414999999999Q68.37020625,14.463095,68.29530625,14.282235Q68.22040625,14.101365000000001,68.13670625,13.924395Q68.05300625,13.747425,67.96070625,13.574774999999999Q67.86840624999999,13.402125,67.76780625,13.234214999999999Q67.66710625,13.066305,67.55840625,12.903525Q67.44960625,12.740755,67.33300625,12.583515Q67.21640625,12.426275,67.09220625,12.274945Q66.96800625,12.123615000000001,66.83650625,11.978565Q66.70510625,11.833515,66.56660625,11.695085Q66.42820625,11.556655,66.28310625,11.425184999999999Q66.13810624999999,11.293725,65.98680625,11.169525Q65.83540625,11.045335,65.67820625,10.928715Q65.52100625,10.812105,65.35820625,10.703335Q65.19540625,10.594575,65.02750625,10.493935Q64.85960625,10.393285,64.68690624999999,10.301007Q64.51430625,10.208722999999999,64.33730625,10.125023Q64.16030625,10.041322,63.97950625,9.966406Q63.79860625,9.89149,63.61430625,9.825538Q63.43000625,9.759587,63.24260625,9.702759Q63.05530625,9.645931,62.86540625,9.598364Q62.67550625,9.550797,62.48350625,9.512605Q62.29149625,9.474413,62.09785625,9.4456881Q61.90420625,9.4169633,61.70938625,9.3977749Q61.51455625,9.3785865,61.31902625,9.36898077Q61.12349625,9.359375,60.92773625,9.359375L60.29101625,9.359375Q60.09524625,9.359375,59.89971625,9.36898077Q59.70418625,9.3785865,59.50936625,9.3977749Q59.31454625,9.4169633,59.12089625,9.4456881Q58.927246249999996,9.474413,58.73524625,9.512605Q58.54324625,9.550797,58.35334625,9.598364Q58.16344625,9.645931,57.97610625,9.702759Q57.78877625,9.759587,57.60444625,9.825538Q57.42012625,9.89149,57.23926625,9.966406Q57.05839625,10.041322,56.88142625,10.125023Q56.70445625,10.208722999999999,56.53180625,10.301007Q56.35915625,10.393285,56.19124625,10.493935Q56.02333625,10.594575,55.86055625,10.703335Q55.69778625,10.812105,55.54054625,10.928715Q55.38330625,11.045335,55.23197625,11.169525Q55.08064625,11.293725,54.93559625,11.425184999999999Q54.79054625,11.556655,54.65211625,11.695085Q54.51368625,11.833515,54.38221625,11.978565Q54.25075625,12.123615000000001,54.12655625,12.274945Q54.00236625,12.426275,53.88574625,12.583515Q53.76913625,12.740755,53.66036625,12.903525Q53.55160625,13.066305,53.45096625,13.234214999999999Q53.35031625,13.402125,53.25803825,13.574774999999999Q53.16575425,13.747425,53.08205425,13.924395Q52.99835325,14.101365000000001,52.92343725,14.282235Q52.84852125,14.463095,52.78256925,14.647414999999999Q52.71661825,14.831745,52.65979025,15.019075Q52.60296225,15.206415,52.55539525,15.396315000000001Q52.50782825,15.586215,52.46963625,15.778215Q52.43144425,15.970215,52.40271935,16.163865Q52.37399455,16.357515,52.35480615,16.552335Q52.33561775,16.747155,52.32601202,16.942685Q52.31640625,17.138215,52.31640625,17.333985Z"
                  fill-rule="evenodd" fill="#FFFFFF" fill-opacity="1"/>
        </g>
        <g>
            <rect x="1.7000000476837158" y="1.7000000476837158" width="56.58046865463257" height="43.02968740463257"
                  rx="4.299999952316284" fill-opacity="0" stroke-opacity="1" stroke="#FFFFFF" fill="none"
                  stroke-width="3.4000000953674316"/>
        </g>
    </g>
</svg>