<svg xmlns="http://www.w3.org/2000/svg" xmlns:xlink="http://www.w3.org/1999/xlink" fill="none" version="1.1" width="44"
     height="44" viewBox="0 0 44 44">
    <defs>
        <clipPath id="master_svg0_551_14932">
            <rect x="0" y="0" width="44" height="44" rx="0"/>
        </clipPath>
    </defs>
    <g clip-path="url(#master_svg0_551_14932)">
        <rect x="0" y="0" width="44" height="44" rx="0" fill="#FFFFFF" fill-opacity="0"/>
        <g>
            <g>
                <path d="M18.677159013061523,11.7783734375C19.752099013061525,11.4097834375,20.880629013061522,11.221683437500001,22.017029013061524,11.221683437500001C23.154729013061523,11.221683437500001,24.284629013061526,11.4102434375,25.360729013061523,11.7797134375L25.360729013061523,8.6552734375C25.360729013061523,8.1029934375,24.913029013061525,7.6552734375,24.360729013061523,7.6552734375L19.677159013061523,7.6552734375C19.124879013061523,7.6552734375,18.677159013061523,8.1029934375,18.677159013061523,8.6552734375L18.677159013061523,11.7783734375ZM27.360729013061523,12.7168534375L27.360729013061523,7.6552734375C27.360729013061523,6.5507044375,26.465329013061524,5.6552734375,25.360729013061523,5.6552734375L18.677159013061523,5.6552734375C17.572589013061524,5.6552734375,16.677159013061523,6.5507044375,16.677159013061523,7.6552734375L16.677159013061523,12.7144834375C13.599609013061524,14.5810734375,11.720129013061523,17.9191734375,11.720129013061523,21.518573437500002C11.720129013061523,27.2053734375,16.330199013061524,31.8154734375,22.017029013061524,31.8154734375C27.703829013061522,31.8154734375,32.313929013061525,27.2053734375,32.313929013061525,21.518573437500002C32.313929013061525,17.9207734375,30.436129013061525,14.5839634375,27.360729013061523,12.7168534375ZM30.313929013061525,21.518573437500002Q30.313929013061525,19.9359734375,29.731329013061522,18.4644734375Q29.098829013061522,16.8668734375,27.883829013061522,15.6517734375Q26.668729013061522,14.4367334375,25.071029013061523,13.8042134375Q23.599629013061524,13.221683437500001,22.017029013061524,13.221683437500001Q20.434429013061525,13.221683437500001,18.962969013061524,13.8042134375Q17.365279013061524,14.4367334375,16.150229013061523,15.6517734375Q14.935179013061523,16.8668734375,14.302669013061523,18.4644734375Q13.720129013061523,19.9359734375,13.720129013061523,21.518573437500002Q13.720129013061523,23.1011734375,14.302669013061523,24.5725734375Q14.935179013061523,26.1702734375,16.150229013061523,27.3853734375Q17.365279013061524,28.6003734375,18.962969013061524,29.2328734375Q20.434429013061525,29.8154734375,22.017029013061524,29.8154734375Q23.599629013061524,29.8154734375,25.071029013061523,29.2328734375Q26.668729013061522,28.6003734375,27.883829013061522,27.3853734375Q29.098829013061522,26.1702734375,29.731329013061522,24.5725734375Q30.313929013061525,23.1011734375,30.313929013061525,21.518573437500002Z"
                      fill-rule="evenodd" fill="#FFFFFF" fill-opacity="1"/>
            </g>
            <g>
                <path d="M34.769519013061526,11.4004589375Q34.86262901306152,11.3305949375,34.93719901306152,11.2412109375Q35.01177901306152,11.1518279375,35.063819013061526,11.0477049375Q35.11586901306153,10.9435819375,35.142609013061524,10.8302869375Q35.16934901306152,10.7169929375,35.16934901306152,10.6005859375Q35.16934901306152,10.5020945375,35.15012901306152,10.4054959375Q35.13091901306152,10.3088969375,35.093229013061524,10.2179029375Q35.05553901306153,10.1269079375,35.00081901306152,10.0450159375Q34.94609901306152,9.9631229375,34.87645901306152,9.8934789375Q34.806809013061525,9.8238349375,34.72491901306152,9.7691159375Q34.64302901306152,9.7143979375,34.55202901306152,9.6767069375Q34.46103901306152,9.6390159375,34.36443901306152,9.619800937499999Q34.267839013061526,9.6005859375,34.16934901306152,9.6005859375Q34.00701901306152,9.6005859375,33.85301901306153,9.6519359375Q33.69901901306152,9.7032859375,33.56917901306152,9.8007129375L33.569009013061525,9.8008399375L30.619960013061522,12.0136059375Q30.526849013061522,12.0834659375,30.452275013061524,12.1728559375Q30.377702013061523,12.2622359375,30.325654013061524,12.3663559375Q30.273607013061522,12.4704759375,30.246868013061523,12.5837759375Q30.220129013061523,12.6970659375,30.220129013061523,12.8134759375Q30.220129013061523,12.9119659375,30.239344013061523,13.0085659375Q30.25855901306152,13.1051659375,30.296250013061524,13.1961559375Q30.333941013061523,13.2871559375,30.388659013061524,13.369045937500001Q30.443378013061523,13.4509359375,30.513022013061523,13.5205859375Q30.582666013061523,13.5902259375,30.664559013061524,13.644945937500001Q30.746451013061524,13.6996659375,30.837446013061523,13.7373559375Q30.928440013061522,13.7750459375,31.025039013061523,13.7942659375Q31.121637613061523,13.8134759375,31.220129013061523,13.8134759375Q31.382461013061523,13.8134759375,31.536457013061522,13.7621259375Q31.690453013061525,13.7107759375,31.820298013061525,13.6133459375L34.76934901306152,11.4005859375L34.769519013061526,11.4004589375Z"
                      fill-rule="evenodd" fill="#FFFFFF" fill-opacity="1"/>
            </g>
            <g transform="matrix(-1,0,0,1,25.549633026123047,0)">
                <path d="M16.324206513061522,11.4004589375Q16.41731651306152,11.3305949375,16.491886513061523,11.2412109375Q16.566466513061524,11.1518279375,16.618506513061522,11.0477049375Q16.670556513061523,10.9435819375,16.697296513061524,10.8302869375Q16.724036513061524,10.7169929375,16.724036513061524,10.6005859375Q16.724036513061524,10.5020945375,16.704816513061523,10.4054959375Q16.685606513061522,10.3088969375,16.647916513061524,10.2179029375Q16.610226513061523,10.1269079375,16.555506513061523,10.0450159375Q16.500786513061524,9.9631229375,16.431146513061524,9.8934789375Q16.361496513061525,9.8238349375,16.279606513061523,9.7691159375Q16.197716513061522,9.7143979375,16.106716513061524,9.6767069375Q16.015726513061523,9.6390159375,15.919126513061524,9.619800937499999Q15.822526513061524,9.6005859375,15.724036513061524,9.6005859375Q15.561706513061523,9.6005859375,15.407706513061523,9.6519359375Q15.253706513061523,9.7032859375,15.123866513061524,9.8007129375L15.123696513061523,9.8008399375L12.174647513061524,12.0136059375Q12.081536513061524,12.0834659375,12.006962513061524,12.1728559375Q11.932389513061523,12.2622359375,11.880341513061524,12.3663559375Q11.828294513061524,12.4704759375,11.801555513061523,12.5837759375Q11.774816513061523,12.6970659375,11.774816513061523,12.8134759375Q11.774816513061523,12.9119659375,11.794031513061523,13.0085659375Q11.813246513061523,13.1051659375,11.850937513061524,13.1961559375Q11.888628513061523,13.2871559375,11.943346513061524,13.369045937500001Q11.998065513061523,13.4509359375,12.067709513061523,13.5205859375Q12.137353513061523,13.5902259375,12.219246513061524,13.644945937500001Q12.301138513061524,13.6996659375,12.392133513061523,13.7373559375Q12.483127513061524,13.7750459375,12.579726513061523,13.7942659375Q12.676325113061523,13.8134759375,12.774816513061523,13.8134759375Q12.937148513061523,13.8134759375,13.091144513061524,13.7621259375Q13.245140513061523,13.7107759375,13.374985513061523,13.6133459375L16.32403651306152,11.4005859375L16.324206513061522,11.4004589375Z"
                      fill-rule="evenodd" fill="#FFFFFF" fill-opacity="1"/>
            </g>
            <g transform="matrix(0.8017920851707458,0.5976030826568604,-0.5976030826568604,0.8017920851707458,19.15157606592618,-17.562916070711708)">
                <path d="M39.601550263061526,20.88971675Q39.69466026306152,20.81985275,39.76923026306152,20.73046875Q39.84381026306152,20.64108575,39.895850263061526,20.53696275Q39.94790026306153,20.43283975,39.974640263061524,20.31954475Q40.00138026306152,20.20625075,40.00138026306152,20.08984375Q40.00138026306152,19.99135235,39.98216026306152,19.89475375Q39.96295026306152,19.79815475,39.925260263061524,19.70716075Q39.88757026306153,19.61616575,39.83285026306152,19.53427375Q39.77813026306152,19.45238075,39.70849026306152,19.38273675Q39.638840263061525,19.31309275,39.55695026306152,19.25837375Q39.47506026306152,19.20365575,39.38406026306152,19.16596475Q39.29307026306152,19.128273749999998,39.19647026306152,19.10905875Q39.099870263061526,19.08984375,39.00138026306152,19.08984375Q38.83905026306152,19.08984375,38.68505026306153,19.14119375Q38.53105026306152,19.19254375,38.40121026306152,19.28997075L38.401040263061525,19.29009775L35.45199126306152,21.50286375Q35.35888026306152,21.57272375,35.284306263061524,21.66211375Q35.20973326306152,21.75149375,35.15768526306152,21.85561375Q35.10563826306152,21.95973375,35.07889926306152,22.07303375Q35.05216026306152,22.18632375,35.05216026306152,22.30273375Q35.05216026306152,22.40122375,35.071375263061526,22.49782375Q35.09059026306152,22.59442375,35.128281263061524,22.68541375Q35.165972263061526,22.77641375,35.22069026306152,22.85830375Q35.275409263061526,22.94019375,35.34505326306152,23.00984375Q35.41469726306153,23.07948375,35.49659026306152,23.13420375Q35.578482263061524,23.18892375,35.66947726306152,23.22661375Q35.760471263061525,23.26430375,35.85707026306152,23.28352375Q35.95366886306152,23.30273375,36.05216026306152,23.30273375Q36.21449226306152,23.30273375,36.36848826306152,23.25138375Q36.52248426306152,23.20003375,36.652329263061525,23.10260375L39.60138026306152,20.88984375L39.601550263061526,20.88971675Z"
                      fill-rule="evenodd" fill="#FFFFFF" fill-opacity="1"/>
            </g>
            <g transform="matrix(-0.8017920851707458,0.5976030826568604,0.5976030826568604,0.8017920851707458,2.305495066100434,-0.7646669191540241)">
                <path d="M11.492175263061522,20.88971675Q11.585285263061524,20.81985275,11.659855263061523,20.73046875Q11.734435263061524,20.64108575,11.786475263061524,20.53696275Q11.838525263061523,20.43283975,11.865265263061524,20.31954475Q11.892005263061524,20.20625075,11.892005263061524,20.08984375Q11.892005263061524,19.99135235,11.872785263061523,19.89475375Q11.853575263061524,19.79815475,11.815885263061524,19.70716075Q11.778195263061523,19.61616575,11.723475263061523,19.53427375Q11.668755263061524,19.45238075,11.599115263061524,19.38273675Q11.529465263061523,19.31309275,11.447575263061523,19.25837375Q11.365685263061524,19.20365575,11.274685263061524,19.16596475Q11.183695263061523,19.128273749999998,11.087095263061524,19.10905875Q10.990495263061524,19.08984375,10.892005263061524,19.08984375Q10.729675263061523,19.08984375,10.575675263061523,19.14119375Q10.421675263061523,19.19254375,10.291835263061524,19.28997075L10.291665263061523,19.29009775L7.342616263061523,21.50286375Q7.249505263061524,21.57272375,7.174931263061524,21.66211375Q7.100358263061524,21.75149375,7.0483102630615235,21.85561375Q6.996263263061524,21.95973375,6.9695242630615235,22.07303375Q6.942785263061523,22.18632375,6.942785263061523,22.30273375Q6.942785263061523,22.40122375,6.962000263061523,22.49782375Q6.981215263061523,22.59442375,7.018906263061523,22.68541375Q7.056597263061524,22.77641375,7.111315263061523,22.85830375Q7.1660342630615235,22.94019375,7.235678263061524,23.00984375Q7.305322263061523,23.07948375,7.387215263061523,23.13420375Q7.469107263061524,23.18892375,7.560102263061523,23.22661375Q7.651096263061524,23.26430375,7.747695263061523,23.28352375Q7.844293863061523,23.30273375,7.942785263061523,23.30273375Q8.105117263061523,23.30273375,8.259113263061524,23.25138375Q8.413109263061523,23.20003375,8.542954263061523,23.10260375L11.492005263061523,20.88984375L11.492175263061522,20.88971675Z"
                      fill-rule="evenodd" fill="#FFFFFF" fill-opacity="1"/>
            </g>
            <g transform="matrix(1,0,0,-1,0,65.84375)">
                <path d="M34.769519013061526,33.721748Q34.86262901306152,33.651884,34.93719901306152,33.5625Q35.01177901306152,33.473117,35.063819013061526,33.368994Q35.11586901306153,33.264871,35.142609013061524,33.151576Q35.16934901306152,33.038282,35.16934901306152,32.921875Q35.16934901306152,32.8233836,35.15012901306152,32.726785Q35.13091901306152,32.630186,35.093229013061524,32.539192Q35.05553901306153,32.448197,35.00081901306152,32.366305Q34.94609901306152,32.284412,34.87645901306152,32.214768Q34.806809013061525,32.145124,34.72491901306152,32.090405Q34.64302901306152,32.035687,34.55202901306152,31.997996Q34.46103901306152,31.960304999999998,34.36443901306152,31.94109Q34.267839013061526,31.921875,34.16934901306152,31.921875Q34.00701901306152,31.921875,33.85301901306153,31.973225Q33.69901901306152,32.024575,33.56917901306152,32.122002L33.569009013061525,32.122129L30.619960013061522,34.334895Q30.526849013061522,34.404755,30.452275013061524,34.494145Q30.377702013061523,34.583525,30.325654013061524,34.687645Q30.273607013061522,34.791765,30.246868013061523,34.905065Q30.220129013061523,35.018355,30.220129013061523,35.134765Q30.220129013061523,35.233255,30.239344013061523,35.329855Q30.25855901306152,35.426455,30.296250013061524,35.517445Q30.333941013061523,35.608445,30.388659013061524,35.690335Q30.443378013061523,35.772225,30.513022013061523,35.841875Q30.582666013061523,35.911515,30.664559013061524,35.966235Q30.746451013061524,36.020955,30.837446013061523,36.058645Q30.928440013061522,36.096334999999996,31.025039013061523,36.115555Q31.121637613061523,36.134765,31.220129013061523,36.134765Q31.382461013061523,36.134765,31.536457013061522,36.083415Q31.690453013061525,36.032065,31.820298013061525,35.934635L34.76934901306152,33.721875L34.769519013061526,33.721748Z"
                      fill-rule="evenodd" fill="#FFFFFF" fill-opacity="1"/>
            </g>
            <g transform="matrix(-1,0,0,-1,25.549633026123047,65.84375)">
                <path d="M16.324206513061522,33.721748Q16.41731651306152,33.651884,16.491886513061523,33.5625Q16.566466513061524,33.473117,16.618506513061522,33.368994Q16.670556513061523,33.264871,16.697296513061524,33.151576Q16.724036513061524,33.038282,16.724036513061524,32.921875Q16.724036513061524,32.8233836,16.704816513061523,32.726785Q16.685606513061522,32.630186,16.647916513061524,32.539192Q16.610226513061523,32.448197,16.555506513061523,32.366305Q16.500786513061524,32.284412,16.431146513061524,32.214768Q16.361496513061525,32.145124,16.279606513061523,32.090405Q16.197716513061522,32.035687,16.106716513061524,31.997996Q16.015726513061523,31.960304999999998,15.919126513061524,31.94109Q15.822526513061524,31.921875,15.724036513061524,31.921875Q15.561706513061523,31.921875,15.407706513061523,31.973225Q15.253706513061523,32.024575,15.123866513061524,32.122002L15.123696513061523,32.122129L12.174647513061524,34.334895Q12.081536513061524,34.404755,12.006962513061524,34.494145Q11.932389513061523,34.583525,11.880341513061524,34.687645Q11.828294513061524,34.791765,11.801555513061523,34.905065Q11.774816513061523,35.018355,11.774816513061523,35.134765Q11.774816513061523,35.233255,11.794031513061523,35.329855Q11.813246513061523,35.426455,11.850937513061524,35.517445Q11.888628513061523,35.608445,11.943346513061524,35.690335Q11.998065513061523,35.772225,12.067709513061523,35.841875Q12.137353513061523,35.911515,12.219246513061524,35.966235Q12.301138513061524,36.020955,12.392133513061523,36.058645Q12.483127513061524,36.096334999999996,12.579726513061523,36.115555Q12.676325113061523,36.134765,12.774816513061523,36.134765Q12.937148513061523,36.134765,13.091144513061524,36.083415Q13.245140513061523,36.032065,13.374985513061523,35.934635L16.32403651306152,33.721875L16.324206513061522,33.721748Z"
                      fill-rule="evenodd" fill="#FFFFFF" fill-opacity="1"/>
            </g>
            <g transform="matrix(-0.5862383246421814,0.8101386427879333,-0.8101386427879333,-0.5862383246421814,66.57041669490957,37.22708939851361)">
                <path d="M27.328112763061522,36.41315425Q27.42122276306152,36.34329025,27.495792763061523,36.25390625Q27.570372763061524,36.16452325,27.622412763061522,36.06040025Q27.674462763061523,35.95627725,27.701202763061524,35.84298225Q27.727942763061524,35.72968825,27.727942763061524,35.61328125Q27.727942763061524,35.51478985,27.708722763061523,35.41819125Q27.689512763061522,35.32159225,27.651822763061524,35.23059825Q27.614132763061523,35.13960325,27.559412763061523,35.05771125Q27.504692763061524,34.97581825,27.435052763061524,34.90617425Q27.365402763061525,34.83653025,27.283512763061523,34.78181125Q27.201622763061522,34.72709325,27.110622763061524,34.68940225Q27.019632763061523,34.65171125,26.923032763061524,34.63249625Q26.826432763061522,34.61328125,26.727942763061524,34.61328125Q26.565612763061523,34.61328125,26.411612763061523,34.66463125Q26.257612763061523,34.71598125,26.12777276306152,34.81340825L26.127602763061525,34.81353525L23.178553763061522,37.02630125Q23.085442763061522,37.09616125,23.010868763061524,37.18555125Q22.936295763061523,37.27493125,22.884247763061524,37.37905125Q22.832200763061522,37.48317125,22.805461763061523,37.59647125Q22.778722763061523,37.70976125,22.778722763061523,37.82617125Q22.778722763061523,37.92466125,22.797937763061523,38.02126125Q22.81715276306152,38.11786125,22.854843763061524,38.20885125Q22.892534763061523,38.29985125,22.947252763061524,38.38174125Q23.001971763061523,38.46363125,23.071615763061523,38.53328125Q23.141259763061523,38.60292125,23.223152763061524,38.65764125Q23.305044763061524,38.71236125,23.396039763061523,38.75005125Q23.487033763061522,38.787741249999996,23.583632763061523,38.80696125Q23.680231363061523,38.82617125,23.778722763061523,38.82617125Q23.941054763061523,38.82617125,24.095050763061522,38.77482125Q24.249046763061525,38.72347125,24.378891763061525,38.62604125L27.32794276306152,36.41328125L27.328112763061522,36.41315425Z"
                      fill-rule="evenodd" fill="#FFFFFF" fill-opacity="1"/>
            </g>
        </g>
    </g>
</svg>