<svg xmlns="http://www.w3.org/2000/svg" xmlns:xlink="http://www.w3.org/1999/xlink" fill="none" version="1.1"
     width="71.4765625" height="55.55078125" viewBox="0 0 71.4765625 55.55078125">
    <g>
        <g transform="matrix(-1,0,0,1,126.8203125,0)">
            <g>
                <path d="M121.35085491333007,31.204897233581544L121.82225491333008,31.204897233581544Q122.65065491333007,31.204897233581544,123.23645491333008,31.790597233581543Q123.82225491333008,32.37639723358154,123.82225491333008,33.20489723358155L123.82225491333008,33.700997233581546Q123.82225491333008,34.52939723358155,123.23645491333008,35.11519723358154Q122.65065491333007,35.700997233581546,121.82225491333008,35.700997233581546L119.79295491333008,35.700997233581546C119.78965491333008,35.700997233581546,119.78705491333008,35.70359723358155,119.78705491333008,35.70679723358154C119.78705491333008,35.71009723358154,119.78445491333008,35.712697233581544,119.78125491333009,35.712697233581544L119.69485491333008,35.712697233581544C119.64805491333007,35.712697233581544,119.60865491333007,35.74819723358154,119.60295491333008,35.794697233581545Q119.32045491333008,38.11649723358154,118.44595491333007,40.325497233581544Q117.04325491333009,43.86869723358154,114.34865491333008,46.563297233581544Q111.65395491333007,49.257897233581545,108.11075491333008,50.66059723358154Q104.84755491333007,51.952497233581546,101.33785491333008,51.952497233581546Q97.82815491333008,51.952497233581546,94.56495491333007,50.66059723358154Q91.02165491333008,49.257897233581545,88.32705491333007,46.563297233581544Q85.63246491333008,43.86869723358154,84.22974491333008,40.325497233581544Q83.89629491333008,39.48319723358154,83.64891491333007,38.62449723358154C83.59979491333007,38.453997233581546,83.57613491333008,38.274797233581545,83.57613491333008,38.097397233581546L83.57613491333008,37.700997233581546C83.57613491333008,36.59639723358154,82.68069491333007,35.700997233581546,81.57613491333008,35.700997233581546L80.76363491333008,35.700997233581546Q79.93520491333008,35.700997233581546,79.34941491333008,35.11519723358154Q79.34392491333008,35.10969723358154,79.33847491333007,35.104197233581544C78.77410491333008,34.53219723358154,78.13285491333008,33.80249723358155,77.32935491333008,33.80249723358155L77.31390491333008,33.80249723358155C76.46341991333007,33.80249723358155,75.75417091333007,34.49799723358154,76.02678171333008,35.30359723358154C76.46563791333008,36.60049723358154,77.42339491333007,37.668397233581544,78.67208491333008,38.24319723358154C79.40205491333008,38.57909723358154,80.04822491333007,39.15579723358154,80.28063491333008,39.92509723358154C83.06865491333008,49.15329723358154,91.59325491333007,55.55249723358154,101.33785491333008,55.55249723358154C111.09815491333008,55.55249723358154,119.63365491333008,49.13279723358154,122.40795491333009,39.88219723358154C122.63495491333008,39.125197233581545,123.26445491333007,38.553697233581545,123.97765491333007,38.21319723358154C125.68185491333008,37.39949723358154,126.82225491333008,35.663697233581544,126.82225491333008,33.700997233581546L126.82225491333008,33.20489723358155C126.82225491333008,31.226397233581544,125.66385491333008,29.48049723358154,123.94035491333008,28.674997233581543C123.22405491333008,28.34019723358154,122.58305491333007,27.784997233581542,122.34885491333009,27.029797233581544C120.00975491333008,19.487307233581543,113.80245491333008,13.791057233581544,106.13295491333008,12.080965533581542C105.06375491333009,11.842565233581542,104.08005491333007,12.692089233581543,104.08005491333007,13.787537233581542C104.08005491333007,14.688647233581543,104.73635491333008,15.443297233581543,105.61265491333008,15.653307233581543Q106.87925491333007,15.956857233581543,108.11075491333008,16.444407233581543Q111.65395491333007,17.84713723358154,114.34865491333008,20.541747233581543Q117.04325491333009,23.236397233581542,118.44595491333007,26.77959723358154Q118.97365491333008,28.112597233581543,119.28585491333007,29.486697233581545C119.50885491333008,30.468397233581545,120.34415491333007,31.204897233581544,121.35085491333007,31.204897233581544"
                      fill-rule="evenodd" fill="#FFFFFF" fill-opacity="1"/>
            </g>
            <g>
                <ellipse cx="109.125" cy="33.796875" rx="4" ry="4" fill="#FFFFFF" fill-opacity="1"/>
            </g>
            <g>
                <ellipse cx="93.1953125" cy="33.796875" rx="4" ry="4" fill="#FFFFFF" fill-opacity="1"/>
            </g>
            <g>
                <rect x="65.01015627384186" y="11.400781273841858" width="23.952343702316284"
                      height="15.819531202316284" rx="2.399999976158142" fill-opacity="0" stroke-opacity="1"
                      stroke="#FFFFFF" fill="none" stroke-width="3.200000047683716"/>
            </g>
            <g>
                <rect x="75.80078125" y="16.0703125" width="2.375" height="6.480468273162842" rx="0" fill="#FFFFFF"
                      fill-opacity="1"/>
            </g>
        </g>
        <g transform="matrix(-1,0,0,1,142.953125,0)">
            <path d="M71.4765625,7.97461L71.4765625,10.7461L74.6765625,10.7461L74.6765625,7.97461Q74.6765625,5.9969,76.0750125,4.59845Q77.4734625,3.2,79.4511725,3.2L79.6347625,3.2Q81.61246249999999,3.2,83.0109625,4.59845Q84.4093625,5.9969,84.4093625,7.97461L84.4093625,12.6523L87.6093625,12.6523L87.6093625,7.97461Q87.6093625,7.77884,87.5997625,7.58331Q87.5901625,7.38778,87.57096250000001,7.19296Q87.5517625,6.99814,87.52306250000001,6.80449Q87.4943625,6.61084,87.4561625,6.41884Q87.4179625,6.22684,87.3703625,6.03694Q87.3228625,5.84704,87.2659625,5.6597Q87.2091625,5.47237,87.1431625,5.28804Q87.0772625,5.10372,87.0023625,4.92286Q86.9274625,4.74199,86.8437625,4.56502Q86.7600625,4.38805,86.6677625,4.2154Q86.5754625,4.04275,86.4748625,3.87484Q86.3741625,3.70693,86.2653625,3.54415Q86.1566625,3.38138,86.0400625,3.22414Q85.9234625,3.0669,85.7992625,2.91557Q85.6750625,2.76424,85.54356250000001,2.61919Q85.4120625,2.47414,85.2736625,2.33571Q85.1352625,2.19728,84.9901625,2.06581Q84.8451625,1.93435,84.6937625,1.81015Q84.5424625,1.68596,84.3852625,1.56934Q84.2279625,1.45273,84.0652625,1.34396Q83.9024625,1.2352,83.7345625,1.13456Q83.5666625,1.03391,83.3939625,0.941632Q83.2213625,0.849348,83.0443625,0.765648Q82.8673625,0.681947,82.68656250000001,0.607031Q82.5056625,0.532115,82.32136249999999,0.466163Q82.1369625,0.400212,81.9496625,0.343384Q81.7623625,0.286556,81.5724625,0.238989Q81.3825425,0.191422,81.1905325,0.15323Q80.9985325,0.115038,80.8048825,0.0863131Q80.6112325,0.0575883,80.4164125,0.0383999Q80.2215925,0.0192115,80.0260625,0.00960577Q79.8305325,0,79.6347625,0L79.4511725,0Q79.2554025,0,79.0598725,0.00960577Q78.8643425,0.0192115,78.6695225,0.0383999Q78.4747025,0.0575883,78.2810525,0.0863131Q78.0874025,0.115038,77.8954025,0.15323Q77.7034025,0.191422,77.5135025,0.238989Q77.32360249999999,0.286556,77.1362625,0.343384Q76.9489325,0.400212,76.7646025,0.466163Q76.5802825,0.532115,76.3994225,0.607031Q76.2185525,0.681947,76.0415825,0.765648Q75.86461249999999,0.849348,75.6919625,0.941632Q75.5193125,1.03391,75.3514025,1.13456Q75.1834925,1.2352,75.0207125,1.34396Q74.85794250000001,1.45273,74.7007025,1.56934Q74.5434625,1.68596,74.3921325,1.81015Q74.2408025,1.93435,74.0957525,2.06581Q73.9507025,2.19728,73.8122725,2.33571Q73.6738425,2.47414,73.5423725,2.61919Q73.4109125,2.76424,73.2867125,2.91557Q73.1625225,3.0669,73.0459025,3.22414Q72.9292925,3.38138,72.8205225,3.54415Q72.7117625,3.70693,72.6111225,3.87484Q72.5104725,4.04275,72.4181945,4.2154Q72.3259105,4.38805,72.2422105,4.56502Q72.1585095,4.74199,72.0835935,4.92286Q72.0086775,5.10372,71.9427255,5.28804Q71.8767745,5.47237,71.8199465,5.6597Q71.7631185,5.84704,71.7155515,6.03694Q71.6679845,6.22684,71.6297925,6.41884Q71.5916005,6.61084,71.5628756,6.80449Q71.5341508,6.99814,71.5149624,7.19296Q71.495774,7.38778,71.48616827,7.58331Q71.4765625,7.77884,71.4765625,7.97461ZM115.4310625,23.8262Q117.4547625,24.2289,121.3094625,24.2289L121.3094625,21.0289Q117.7700625,21.0289,116.05556250000001,20.6877Q114.6036625,20.3988,114.07866250000001,19.8151Q113.59876249999999,19.2816,113.4332625,17.9342Q113.2991625,16.8421,113.31016249999999,13.6107Q113.3129625,12.7764,113.3128625,12.3317L110.1128625,12.3324Q110.11296250000001,12.7713,110.1101625,13.5998Q110.0984625,17.0324,110.25716249999999,18.3243Q110.5454625,20.6722,111.69946250000001,21.9551Q112.9358625,23.3297,115.4310625,23.8262Z"
                  fill-rule="evenodd" fill="#FFFFFF" fill-opacity="1"/>
        </g>
    </g>
</svg>