<svg xmlns="http://www.w3.org/2000/svg" xmlns:xlink="http://www.w3.org/1999/xlink" fill="none" version="1.1"
     width="67.921875" height="37.23828125" viewBox="0 0 67.921875 37.23828125">
    <g transform="matrix(-1,0,0,1,135.84375,0)">
        <g>
            <path d="M73.422395,29.828Q71.048005,29.4585,69.484945,27.6334Q67.921875,25.8083,67.921875,23.4053L67.921875,9.5Q67.921875,7.56823,68.669048,5.80171Q69.390255,4.0966,70.704365,2.78249Q72.018465,1.46838,73.723585,0.747173Q75.490105,0,77.421875,0L117.687475,0Q120.229575,0,122.55347499999999,0.982929Q124.796975,1.93184,126.526375,3.66117Q128.255675,5.39049,129.204575,7.63398Q130.187475,9.95787,130.187475,12.5L130.187475,28.7366Q130.187475,29.653,130.00197500000002,30.5234L134.843775,30.5234C135.396075,30.5234,135.843775,30.9712,135.843775,31.5234L135.843775,35.1953C135.843775,35.7476,135.396075,36.1953,134.843775,36.1953L125.771075,36.1953Q124.975475,36.6322,124.087775,36.894Q122.27097499999999,37.4297,120.38047499999999,37.1355L73.422395,29.828ZM125.42637500000001,32.7713Q125.347575,32.8434,125.265075,32.914Q123.342675,34.5604,120.841775,34.1712L73.883695,26.8637Q72.605175,26.6647,71.763525,25.682Q70.921875,24.6992,70.921875,23.4053L70.921875,9.5Q70.921875,6.80761,72.825685,4.90381Q74.729485,3,77.421875,3L117.687475,3Q119.621275,3,121.384875,3.74594Q123.089475,4.46692,124.40497500000001,5.78249Q125.720575,7.09805,126.441575,8.80263Q127.187475,10.5662,127.187475,12.5L127.187475,28.7366Q127.187475,30.3786,126.378375,31.6483L125.42637500000001,32.7713Z"
                  fill-rule="evenodd" fill="#FFFFFF" fill-opacity="1"/>
        </g>
    </g>
</svg>