<svg xmlns="http://www.w3.org/2000/svg" xmlns:xlink="http://www.w3.org/1999/xlink" fill="none" version="1.1" width="73"
     height="49" viewBox="0 0 73 49">
    <g>
        <g>
            <path d="M3,47L3,23.7463L7.18735,19.5589L10.01578,22.3873L7,25.4031L7,43L22.617,43L38.117,26L66,26L66,6L26.4031,6L19.8281,12.3281L17,9.5L24.7463,2L70,2L70,47L3,47ZM39.883,30L66,30L66,43L28.0301,43L39.883,30Z"
                  fill-rule="evenodd" fill="#FFFFFF" fill-opacity="1"/>
        </g>
        <g>
            <path d="M15.25,5.5L8.75,5.5Q6.98959,5.5,5.7448,6.7448Q4.5,7.98959,4.5,9.75Q4.5,11.51041,5.7448,12.7552Q6.98959,14,8.75,14L27,14L27,12.6771C27,12.034,27.5984,11.55806,28.225,11.70278L41.5309,14.7756C42.5642,15.0143,42.5642,16.4857,41.5309,16.7244L28.225,19.7972C27.5984,19.9419,27,19.466,27,18.8229L27,17.5L8.75,17.5Q5.53984,17.5,3.26992,15.2301Q1,12.9602,1,9.75Q1,6.53984,3.26992,4.26992Q5.53984,2,8.75,2L15.25,2C15.8023,2,16.25,2.447715,16.25,3L16.25,4.5C16.25,5.05228,15.8023,5.5,15.25,5.5"
                  fill-rule="evenodd" fill="#FFFFFF" fill-opacity="1"/>
        </g>
    </g>
</svg>