<svg xmlns="http://www.w3.org/2000/svg" xmlns:xlink="http://www.w3.org/1999/xlink" fill="none" version="1.1"
     width="80.5" height="40.5" viewBox="0 0 80.5 40.5">
    <g>
        <g>
            <path d="M79,3L72.5932,3L66.2437,8.95265Q67.0705,9.4293,67.8,10.1445L73.7505,15.9783Q76,18.1837,76,21.3339L76,28.5Q76,31.6066,73.8033,33.8033Q71.6066,36,68.5,36L64.6937,36Q64.5714,36.2514,64.4318,36.4937Q64.2923,36.736,64.1361,36.9679Q63.9799,37.1999,63.808,37.4203Q63.636,37.6408,63.4491,37.8487Q63.2621,38.0567,63.0611,38.251Q62.8601,38.4454,62.646,38.6252Q62.4319,38.8051,62.2058,38.9696Q61.9797,39.134,61.7426,39.2823Q61.5056,39.4306,61.2588,39.562Q61.012,39.6934,60.7566,39.8072Q60.5012,39.921,60.2384,40.0167Q59.9757,40.1124,59.707,40.1896Q59.4382,40.2667,59.1647,40.3249Q58.8912,40.3831,58.6143,40.422Q58.3375,40.461,58.0585,40.4805Q57.7796,40.5,57.5,40.5Q57.2204,40.5,56.9415,40.4805Q56.6625,40.461,56.3857,40.422Q56.1088,40.3831,55.8353,40.3249Q55.5618,40.2667,55.293,40.1896Q55.0243,40.1124,54.7616,40.0167Q54.4988,39.921,54.2435,39.8072Q53.9881,39.6934,53.7412,39.562Q53.4944,39.4306,53.2574,39.2823Q53.0203,39.134,52.7942,38.9696Q52.5681,38.8051,52.354,38.6252Q52.1399,38.4454,51.9389,38.251Q51.7379,38.0567,51.5509,37.8487Q51.364,37.6408,51.192,37.4203Q51.0201,37.1999,50.8639,36.9679Q50.7078,36.736,50.5682,36.4937Q50.4286,36.2514,50.3063,36L24.6937,36Q24.5714,36.2514,24.4318,36.4937Q24.2923,36.736,24.1361,36.9679Q23.9799,37.1999,23.808,37.4203Q23.636,37.6408,23.449,37.8487Q23.2621,38.0567,23.0611,38.251Q22.8601,38.4454,22.646,38.6252Q22.4319,38.8051,22.2058,38.9696Q21.9797,39.134,21.7426,39.2823Q21.5056,39.4306,21.2588,39.562Q21.0119,39.6934,20.7566,39.8072Q20.5012,39.921,20.2384,40.0167Q19.9757,40.1124,19.707,40.1896Q19.4382,40.2667,19.1647,40.3249Q18.8912,40.3831,18.6143,40.422Q18.3375,40.461,18.0585,40.4805Q17.7796,40.5,17.5,40.5Q17.2204,40.5,16.9415,40.4805Q16.6625,40.461,16.3857,40.422Q16.1088,40.3831,15.8353,40.3249Q15.5618,40.2667,15.293,40.1896Q15.0243,40.1124,14.7616,40.0167Q14.4988,39.921,14.2435,39.8072Q13.9881,39.6934,13.7412,39.562Q13.4944,39.4306,13.2574,39.2823Q13.0203,39.134,12.7942,38.9696Q12.5681,38.8051,12.354,38.6252Q12.1399,38.4454,11.9389,38.251Q11.7379,38.0567,11.551,37.8487Q11.364,37.6408,11.192,37.4203Q11.0201,37.1999,10.8639,36.9679Q10.7078,36.736,10.5682,36.4937Q10.4286,36.2514,10.3063,36L7.5,36Q4.3934,36,2.1967,33.8033Q0,31.6066,0,28.5L0,26.726Q0,23.5758,2.24946,21.3705L5.03344,18.6411Q6.64575,17.0604,8.73605,16.2067Q10.8263,15.3529,13.0843,15.3529L23.108,15.3529Q24.527,15.3529,25.6893,14.539L33.0898,9.35657Q35.027,8,37.392,8L62.5494,8Q62.7142,8,62.8764,8.0062Q62.9229,7.95367,62.9741,7.90569L71.4068,0L79,0Q79.0737,0,79.147,0.00722291Q79.2204,0.0144458,79.2926,0.0288221Q79.3649,0.0431983,79.4354,0.0645895Q79.5059,0.0859806,79.574,0.114181Q79.6421,0.142381,79.7071,0.177118Q79.7721,0.211855,79.8333,0.252796Q79.8946,0.293736,79.9516,0.340484Q80.0086,0.387233,80.0607,0.43934Q80.1128,0.491447,80.1595,0.54841Q80.2063,0.605373,80.2472,0.666645Q80.2881,0.727916,80.3229,0.792905Q80.3576,0.857894,80.3858,0.925975Q80.414,0.994056,80.4354,1.06457Q80.4568,1.13509,80.4712,1.20736Q80.4856,1.27964,80.4928,1.35297Q80.5,1.42631,80.5,1.5Q80.5,1.57369,80.4928,1.64703Q80.4856,1.72036,80.4712,1.79264Q80.4568,1.86491,80.4354,1.93543Q80.414,2.00594,80.3858,2.07402Q80.3576,2.14211,80.3229,2.2071Q80.2881,2.27208,80.2472,2.33336Q80.2063,2.39463,80.1595,2.45159Q80.1128,2.50855,80.0607,2.56066Q80.0086,2.61277,79.9516,2.65952Q79.8946,2.70626,79.8333,2.7472Q79.7721,2.78814,79.7071,2.82288Q79.6421,2.85762,79.574,2.88582Q79.5059,2.91402,79.4354,2.93541Q79.3649,2.9568,79.2926,2.97118Q79.2204,2.98555,79.147,2.99278Q79.0737,3,79,3ZM9.51564,33Q9.5,32.7502,9.5,32.5Q9.5,32.3036,9.50964,32.1075Q9.51927,31.9113,9.53852,31.7159Q9.55777,31.5204,9.58659,31.3262Q9.6154,31.1319,9.65372,30.9393Q9.69203,30.7467,9.73975,30.5562Q9.78747,30.3657,9.84448,30.1777Q9.90149,29.9898,9.96765,29.8049Q10.0338,29.62,10.109,29.4385Q10.1841,29.2571,10.2681,29.0796Q10.352,28.902,10.4446,28.7288Q10.5372,28.5556,10.6382,28.3872Q10.7391,28.2187,10.8482,28.0554Q10.9573,27.8921,11.0743,27.7344Q11.1913,27.5767,11.3159,27.4249Q11.4405,27.273,11.5724,27.1275Q11.7043,26.982,11.8431,26.8431Q11.982,26.7043,12.1275,26.5724Q12.273,26.4405,12.4249,26.3159Q12.5767,26.1913,12.7344,26.0743Q12.8921,25.9573,13.0554,25.8482Q13.2187,25.7391,13.3872,25.6382Q13.5556,25.5372,13.7288,25.4446Q13.902,25.3521,14.0796,25.2681Q14.2571,25.1841,14.4385,25.109Q14.62,25.0338,14.8049,24.9676Q14.9898,24.9015,15.1777,24.8445Q15.3657,24.7875,15.5562,24.7397Q15.7467,24.692,15.9393,24.6537Q16.1319,24.6154,16.3262,24.5866Q16.5204,24.5578,16.7159,24.5385Q16.9113,24.5193,17.1075,24.5096Q17.3036,24.5,17.5,24.5Q17.6964,24.5,17.8925,24.5096Q18.0887,24.5193,18.2841,24.5385Q18.4796,24.5578,18.6738,24.5866Q18.8681,24.6154,19.0607,24.6537Q19.2533,24.692,19.4438,24.7397Q19.6343,24.7875,19.8223,24.8445Q20.0102,24.9015,20.1951,24.9676Q20.38,25.0338,20.5615,25.109Q20.7429,25.1841,20.9204,25.2681Q21.098,25.3521,21.2712,25.4446Q21.4444,25.5372,21.6128,25.6382Q21.7813,25.7391,21.9446,25.8482Q22.1078,25.9573,22.2656,26.0743Q22.4233,26.1913,22.5751,26.3159Q22.727,26.4405,22.8725,26.5724Q23.018,26.7043,23.1569,26.8431Q23.2957,26.982,23.4276,27.1275Q23.5595,27.273,23.6841,27.4249Q23.8087,27.5767,23.9257,27.7344Q24.0426,27.8921,24.1518,28.0554Q24.2609,28.2187,24.3618,28.3872Q24.4628,28.5556,24.5554,28.7288Q24.6479,28.902,24.7319,29.0796Q24.8159,29.2571,24.891,29.4385Q24.9662,29.62,25.0324,29.8049Q25.0985,29.9898,25.1555,30.1777Q25.2125,30.3657,25.2603,30.5562Q25.308,30.7467,25.3463,30.9393Q25.3846,31.1319,25.4134,31.3262Q25.4422,31.5204,25.4615,31.7159Q25.4807,31.9113,25.4904,32.1075Q25.5,32.3036,25.5,32.5Q25.5,32.7502,25.4844,33L49.5156,33Q49.5,32.7502,49.5,32.5Q49.5,32.3036,49.5096,32.1075Q49.5193,31.9113,49.5385,31.7159Q49.5578,31.5204,49.5866,31.3262Q49.6154,31.1319,49.6537,30.9393Q49.692,30.7467,49.7397,30.5562Q49.7875,30.3657,49.8445,30.1777Q49.9015,29.9898,49.9676,29.8049Q50.0338,29.62,50.109,29.4385Q50.1841,29.2571,50.2681,29.0796Q50.352,28.902,50.4446,28.7288Q50.5372,28.5556,50.6382,28.3872Q50.7391,28.2187,50.8482,28.0554Q50.9573,27.8921,51.0743,27.7344Q51.1913,27.5767,51.3159,27.4249Q51.4405,27.273,51.5724,27.1275Q51.7043,26.982,51.8431,26.8431Q51.982,26.7043,52.1275,26.5724Q52.273,26.4405,52.4249,26.3159Q52.5767,26.1913,52.7344,26.0743Q52.8921,25.9573,53.0554,25.8482Q53.2187,25.7391,53.3872,25.6382Q53.5556,25.5372,53.7288,25.4446Q53.902,25.3521,54.0796,25.2681Q54.2571,25.1841,54.4385,25.109Q54.62,25.0338,54.8049,24.9676Q54.9898,24.9015,55.1777,24.8445Q55.3657,24.7875,55.5562,24.7397Q55.7467,24.692,55.9393,24.6537Q56.1319,24.6154,56.3262,24.5866Q56.5204,24.5578,56.7159,24.5385Q56.9113,24.5193,57.1075,24.5096Q57.3036,24.5,57.5,24.5Q57.6964,24.5,57.8925,24.5096Q58.0887,24.5193,58.2841,24.5385Q58.4796,24.5578,58.6738,24.5866Q58.8681,24.6154,59.0607,24.6537Q59.2533,24.692,59.4438,24.7397Q59.6343,24.7875,59.8223,24.8445Q60.0102,24.9015,60.1951,24.9676Q60.38,25.0338,60.5615,25.109Q60.7429,25.1841,60.9204,25.2681Q61.098,25.3521,61.2712,25.4446Q61.4444,25.5372,61.6128,25.6382Q61.7813,25.7391,61.9446,25.8482Q62.1078,25.9573,62.2656,26.0743Q62.4233,26.1913,62.5751,26.3159Q62.727,26.4405,62.8725,26.5724Q63.018,26.7043,63.1568,26.8431Q63.2957,26.982,63.4276,27.1275Q63.5595,27.273,63.6841,27.4249Q63.8087,27.5767,63.9256,27.7344Q64.0426,27.8921,64.1517,28.0554Q64.2609,28.2187,64.3618,28.3872Q64.4628,28.5556,64.5554,28.7288Q64.6479,28.902,64.7319,29.0796Q64.8159,29.2571,64.891,29.4385Q64.9662,29.62,65.0323,29.8049Q65.0985,29.9898,65.1555,30.1777Q65.2125,30.3657,65.2602,30.5562Q65.308,30.7467,65.3463,30.9393Q65.3846,31.1319,65.4134,31.3262Q65.4422,31.5204,65.4615,31.7159Q65.4807,31.9113,65.4904,32.1075Q65.5,32.3036,65.5,32.5Q65.5,32.7502,65.4844,33L68.5,33Q70.364,33,71.682,31.682Q73,30.364,73,28.5L73,21.3339Q73,19.4438,71.6503,18.1206L65.6998,12.2867Q64.3873,11,62.5494,11L37.392,11Q35.973,11,34.8107,11.8139L27.4102,16.9964Q25.473,18.3529,23.108,18.3529L13.0843,18.3529Q11.4154,18.3529,9.87036,18.984Q8.32536,19.615,7.13365,20.7833L4.34968,23.5127Q3,24.8359,3,26.726L3,28.5Q3,30.364,4.31802,31.682Q5.63604,33,7.5,33L9.51564,33ZM22.5,32.5Q22.5,30.4289,21.0355,28.9645Q19.5711,27.5,17.5,27.5Q15.4289,27.5,13.9645,28.9645Q12.5,30.4289,12.5,32.5Q12.5,34.5711,13.9645,36.0355Q15.4289,37.5,17.5,37.5Q19.5711,37.5,21.0355,36.0355Q22.5,34.5711,22.5,32.5ZM62.5,32.5Q62.5,30.4289,61.0355,28.9645Q59.5711,27.5,57.5,27.5Q55.4289,27.5,53.9645,28.9645Q52.5,30.4289,52.5,32.5Q52.5,34.5711,53.9645,36.0355Q55.4289,37.5,57.5,37.5Q59.5711,37.5,61.0355,36.0355Q62.5,34.5711,62.5,32.5Z"
                  fill-rule="evenodd" fill="#FFFFFF" fill-opacity="1"/>
        </g>
    </g>
</svg>