<svg xmlns="http://www.w3.org/2000/svg" xmlns:xlink="http://www.w3.org/1999/xlink" fill="none" version="1.1" width="67"
     height="45" viewBox="0 0 67 45">
    <g>
        <g>
            <path d="M0,45L0,21.7463L21.7463,0L67,0L67,45L0,45ZM4,23.4031L23.4031,4L63,4L63,41L4,41L4,23.4031Z"
                  fill-rule="evenodd" fill="#FFFFFF" fill-opacity="1"/>
        </g>
        <g transform="matrix(0.996565580368042,-0.08280693739652634,0.08280693739652634,0.996565580368042,-0.9451936536715948,2.309941206825897)">
            <path d="M35.51087,13.8782746875Q35.63184,13.7421346875,35.72623,13.5863946875Q35.82062,13.4306416875,35.885329999999996,13.2604056875Q35.95004,13.0901706875,35.982929999999996,12.9110466875Q36.01583,12.7319236875,36.01583,12.5498046875Q36.01583,12.4515509875,36.0062,12.3537706875Q35.99656,12.2559896875,35.9774,12.1596236875Q35.95823,12.0632586875,35.92971,11.9692356875Q35.90118,11.8752126875,35.86358,11.7844376875Q35.82598,11.693663687499999,35.779669999999996,11.6070116875Q35.73335,11.5203546875,35.67876,11.4386646875Q35.62418,11.3569646875,35.56185,11.2810146875Q35.499520000000004,11.2050646875,35.43004,11.1355946875Q35.36056,11.0661146875,35.28461,11.0037846875Q35.20866,10.9414546875,35.12696,10.8868646875Q35.04527,10.8322746875,34.958619999999996,10.7859646875Q34.87197,10.7396446875,34.78119,10.702044687499999Q34.69042,10.6644446875,34.59639,10.6359246875Q34.50237,10.6074046875,34.40601,10.5882346875Q34.30964,10.5690646875,34.21186,10.5594346875Q34.11408,10.5498046875,34.01583,10.5498046875Q33.803960000000004,10.5498046875,33.59679,10.5941946875Q33.38963,10.6385846875,33.19636,10.7253946875Q33.00309,10.8122046875,32.832300000000004,10.9375846875Q32.66151,11.0629546875,32.52078,11.2213346875L25.87995,18.6948346875Q25.75898,18.8309646875,25.66459,18.9867146875Q25.5702,19.142464687500002,25.5055,19.312704687500002Q25.44079,19.4829346875,25.407890000000002,19.6620646875Q25.375,19.8411846875,25.375,20.0233046875Q25.375,20.1215546875,25.38463,20.2193346875Q25.39426,20.317114687500002,25.413429999999998,20.4134846875Q25.4326,20.5098446875,25.46112,20.6038746875Q25.48964,20.6978946875,25.52724,20.788664687500003Q25.56484,20.879444687499998,25.611159999999998,20.9660946875Q25.65747,21.052744687500002,25.71206,21.1344446875Q25.76665,21.216144687499998,25.82898,21.2920946875Q25.89131,21.3680446875,25.96079,21.4375146875Q26.03026,21.5069946875,26.10621,21.5693246875Q26.18216,21.6316546875,26.26386,21.6862446875Q26.34555,21.7408246875,26.432207,21.7871446875Q26.518859,21.833464687499998,26.609633,21.871064687500002Q26.700408,21.9086646875,26.794431,21.9371846875Q26.888454,21.9657046875,26.984819,21.9848746875Q27.081185,22.0040446875,27.178966,22.0136746875Q27.2767463,22.0233046875,27.375,22.0233046875Q27.586868,22.0233046875,27.794035,21.9789146875Q28.001201000000002,21.9345246875,28.194468,21.8477146875Q28.38774,21.760904687500002,28.55853,21.635534687499998Q28.72932,21.5101546875,28.87005,21.3517746875L28.87055,21.3512046875L35.51087,13.8782746875L35.51087,13.8782746875Z"
                  fill-rule="evenodd" fill="#FFFFFF" fill-opacity="1"/>
        </g>
        <g transform="matrix(0.996565580368042,-0.08280693739652634,0.08280693739652634,0.996565580368042,-1.2171940202388214,2.85132081003394)">
            <path d="M48.539125,17.427639375Q48.660025,17.291519375,48.754325,17.135819375Q48.848625,16.980110375,48.913325,16.809934375Q48.977925,16.639759375,49.010825,16.460706375Q49.043725,16.281653375,49.043725,16.099609375Q49.043725,16.001355675,49.034125,15.903575375Q49.024425,15.805794375,49.005325,15.709428375Q48.986125,15.613063375,48.957625,15.519040375Q48.929024999999996,15.425017375,48.891425,15.334242375Q48.853825,15.243468374999999,48.807525,15.156816375Q48.761224999999996,15.070159375,48.706625,14.988469375Q48.652025,14.906769375,48.589725,14.830819375Q48.527425,14.754869375,48.457925,14.685399375Q48.388425,14.615919375,48.312525,14.553589375Q48.236525,14.491259375,48.154825,14.436669375Q48.073125,14.382079375,47.986525,14.335769375Q47.899825,14.289449375,47.809025,14.251849374999999Q47.718325,14.214249375,47.624325,14.185729375Q47.530225,14.157209375,47.433925,14.138039375Q47.337525,14.118869375,47.239725,14.109239375Q47.141925,14.099609375,47.043725,14.099609375Q46.831725,14.099609375,46.624525,14.144029375Q46.417325,14.188449375,46.223925,14.275319375Q46.030625,14.362189375,45.859825,14.487649375Q45.689025,14.613109375,45.548225,14.771579375L45.547425000000004,14.772549375L32.270185,29.723509375Q32.149305,29.859609374999998,32.054985,30.015309375Q31.960675,30.171009375,31.896015,30.341209375Q31.831364999999998,30.511309375,31.798495,30.690409375Q31.765625,30.869409375,31.765625,31.051509375000002Q31.765625,31.149709375,31.775255,31.247509375Q31.784885,31.345309375,31.804054999999998,31.441709375000002Q31.823225,31.538009375,31.851745,31.632009375000003Q31.880265,31.726109375,31.917865,31.816809375Q31.955465,31.907609375,32.001785,31.994309375Q32.048095,32.080909375,32.102685,32.162609375Q32.157275,32.244309375,32.219605,32.320309375Q32.281935,32.396209375,32.351415,32.465709375Q32.420885,32.535209375,32.496835,32.597509375Q32.572785,32.659809374999995,32.654485,32.714409375Q32.736175,32.769009374999996,32.822832,32.815309375Q32.909484,32.861609375,33.000258,32.899209375Q33.091033,32.936809374999996,33.185056,32.965409375Q33.279079,32.993909375,33.375444,33.013109375Q33.47181,33.032209375,33.569591,33.041909375Q33.6673713,33.051509374999995,33.765625,33.051509374999995Q33.977568,33.051509374999995,34.184804,33.007109375Q34.39204,32.962609375,34.585363,32.875809375Q34.778685,32.788909375,34.949505,32.663409375Q35.120325,32.538009375,35.261065,32.379509375L35.262035,32.378409375000004L48.538325,17.428609375L48.539125,17.427639375L48.539125,17.427639375Z"
                  fill-rule="evenodd" fill="#FFFFFF" fill-opacity="1"/>
        </g>
    </g>
</svg>