<svg xmlns="http://www.w3.org/2000/svg" xmlns:xlink="http://www.w3.org/1999/xlink" fill="none" version="1.1" width="93.0546875" height="45.654296875" viewBox="0 0 93.0546875 45.654296875"><g><g><path d="M90.7962,4.61328125L82.8746,4.61328125L77.1351,9.98655125Q77.7502,10.39523125,78.3128,10.93468125L85.6739,17.99318125Q86.854,19.12478125,87.4955,20.62868125Q88.137,22.13248125,88.137,23.76748125L88.137,32.89088125Q88.137,36.20458125,85.7939,38.54778125Q83.4507,40.89088125,80.137,40.89088125L74.6785,40.89088125Q74.5317,41.15928125,74.3668,41.41728125Q74.2018,41.67538125,74.0194,41.92198125Q73.8371,42.16858125,73.6381,42.40258125Q73.4391,42.63658125,73.2245,42.85688125Q73.0099,43.07728125,72.7805,43.28298125Q72.5512,43.48868125,72.3082,43.67878125Q72.0652,43.86888125,71.8097,44.04248125Q71.5542,44.21618125,71.2872,44.37258125Q71.0203,44.52898125,70.7432,44.66738125Q70.4661,44.80588125,70.1801,44.92568125Q69.8941,45.04558125,69.6004,45.14628125Q69.3068,45.24708125,69.0069,45.32818125Q68.707,45.40928125,68.4022,45.47048125Q68.0974,45.53168125,67.789,45.57258125Q67.4807,45.61358125,67.1702,45.63408125Q66.8598,45.65458125,66.5486,45.65458125Q66.2375,45.65458125,65.927,45.63408125Q65.6165,45.61358125,65.3082,45.57258125Q64.9999,45.53168125,64.6951,45.47048125Q64.3902,45.40928125,64.0903,45.32818125Q63.7904,45.24708125,63.4968,45.14628125Q63.2032,45.04558125,62.9172,44.92568125Q62.6312,44.80588125,62.354,44.66738125Q62.0769,44.52898125,61.81,44.37258125Q61.5431,44.21618125,61.2875,44.04248125Q61.032,43.86888125,60.789,43.67878125Q60.546,43.48868125,60.3167,43.28298125Q60.0874,43.07728125,59.8727,42.85688125Q59.6581,42.63658125,59.4591,42.40258125Q59.2602,42.16858125,59.0778,41.92198125Q58.8954,41.67538125,58.7305,41.41728125Q58.5655,41.15928125,58.4187,40.89088125L28.577,40.89088125Q28.4302,41.15928125,28.2652,41.41728125Q28.1002,41.67538125,27.9179,41.92198125Q27.7355,42.16858125,27.5365,42.40258125Q27.3376,42.63658125,27.123,42.85688125Q26.9083,43.07728125,26.679,43.28298125Q26.4497,43.48868125,26.2067,43.67878125Q25.9637,43.86888125,25.7081,44.04248125Q25.4526,44.21618125,25.1857,44.37258125Q24.9187,44.52898125,24.6416,44.66738125Q24.3645,44.80588125,24.0785,44.92568125Q23.7925,45.04558125,23.4989,45.14628125Q23.2052,45.24708125,22.9053,45.32818125Q22.6054,45.40928125,22.3006,45.47048125Q21.9958,45.53168125,21.6875,45.57258125Q21.3791,45.61358125,21.0687,45.63408125Q20.7582,45.65458125,20.4471,45.65458125Q20.1359,45.65458125,19.8254,45.63408125Q19.515,45.61358125,19.2066,45.57258125Q18.8983,45.53168125,18.5935,45.47048125Q18.2887,45.40928125,17.9888,45.32818125Q17.6889,45.24708125,17.3952,45.14628125Q17.1016,45.04558125,16.8156,44.92568125Q16.5296,44.80588125,16.2525,44.66738125Q15.9754,44.52898125,15.7085,44.37258125Q15.4415,44.21618125,15.186,44.04248125Q14.9304,43.86888125,14.6875,43.67878125Q14.4445,43.48868125,14.2151,43.28298125Q13.9858,43.07728125,13.7712,42.85688125Q13.5565,42.63658125,13.3576,42.40258125Q13.1586,42.16858125,12.9762,41.92198125Q12.7939,41.67538125,12.6289,41.41728125Q12.464,41.15928125,12.3172,40.89088125L8,40.89088125Q4.68629,40.89088125,2.34315,38.54778125Q0,36.20458125,0,32.89088125L0,29.84598125Q0,28.21098125,0.641495,26.70708125Q1.28299,25.20328125,2.4631,24.07168125L6.35859,20.33628125Q8.03428,18.72948125,10.1883,17.86368125Q12.3424,16.99778125,14.6639,16.99778125L27.2274,16.99778125Q28.466,16.99778125,29.4878,16.29788125L38.5242,10.10870125Q40.5678,8.70898125,43.0449,8.70898125L72.6473,8.70898125Q72.6597,8.69704125,72.6722,8.68532125L72.6725,8.68499125L80.4292,1.42324525Q81.2944,0.61328125,82.4795,0.61328125L90.7962,0.61328125Q90.8945,0.61328125,90.9923,0.6229118Q91.09,0.63254235,91.1864,0.6517106500000001Q91.2828,0.67087905,91.3768,0.69940055Q91.4708,0.72792225,91.5616,0.76552225Q91.6524,0.80312225,91.739,0.84943825Q91.8257,0.89575525,91.9074,0.95034225Q91.9891,1.00492925,92.065,1.06726025Q92.141,1.12959225,92.2104,1.1990672500000001Q92.2799,1.26854325,92.3423,1.34449425Q92.4046,1.42044525,92.4592,1.50214025Q92.5138,1.58383525,92.5601,1.67049125Q92.6064,1.75714125,92.644,1.84791125Q92.6816,1.93869125,92.7101,2.03271125Q92.7386,2.1267312499999997,92.7578,2.22310125Q92.777,2.3194712500000003,92.7866,2.41725125Q92.7962,2.51503125,92.7962,2.61328125Q92.7962,2.71153125,92.7866,2.80931125Q92.777,2.90709125,92.7578,3.00346125Q92.7386,3.09983125,92.7101,3.19385125Q92.6816,3.28787125,92.644,3.37865125Q92.6064,3.46942125,92.5601,3.55607125Q92.5138,3.64273125,92.4592,3.72442125Q92.4046,3.80612125,92.3423,3.88207125Q92.2799,3.95802125,92.2104,4.027491250000001Q92.141,4.09697125,92.065,4.15930125Q91.9891,4.22163125,91.9074,4.27622125Q91.8257,4.33081125,91.739,4.37712125Q91.6524,4.42344125,91.5616,4.46104125Q91.4708,4.49864125,91.3768,4.52716125Q91.2828,4.55568125,91.1864,4.57485125Q91.09,4.59402125,90.9923,4.60365125Q90.8945,4.61328125,90.7962,4.61328125ZM11.2302,36.89088125Q11.2266,36.76368125,11.2266,36.63638125Q11.2266,36.41498125,11.2377,36.19388125Q11.2488,35.97278125,11.271,35.75248125Q11.2931,35.53208125,11.3264,35.31318125Q11.3596,35.09418125,11.4037,34.87698125Q11.4479,34.65988125,11.5029,34.44518125Q11.5579,34.23038125,11.6236,34.01858125Q11.6893,33.80668125,11.7656,33.59828125Q11.8418,33.38978125,11.9284,33.18528125Q12.015,32.98068125,12.1118,32.78058125Q12.2086,32.58048125,12.3153,32.38518125Q12.422,32.18998125,12.5384,32.00008125Q12.6547,31.81018125,12.7805,31.62608125Q12.9062,31.44208125,13.0411,31.26428125Q13.1759,31.08638125,13.3195,30.91528125Q13.4631,30.74418125,13.6151,30.58008125Q13.7671,30.41608125,13.9272,30.25958125Q14.0872,30.10298125,14.255,29.95428125Q14.4227,29.80568125,14.5976,29.66518125Q14.7726,29.52478125,14.9544,29.39288125Q15.1362,29.26098125,15.3244,29.13798125Q15.5126,29.01498125,15.7068,28.90118125Q15.9009,28.78738125,16.1005,28.68298125Q16.3002,28.57868125,16.5048,28.48398125Q16.7094,28.38938125,16.9185,28.30468125Q17.1276,28.21988125,17.3408,28.14528125Q17.5539,28.07078125,17.7705,28.00648125Q17.9871,27.94218125,18.2067,27.88848125Q18.4262,27.83468125,18.6482,27.79148125Q18.8702,27.74828125,19.0941,27.71578125Q19.318,27.68328125,19.5433,27.66158125Q19.7686,27.63988125,19.9946,27.62898125Q20.2207,27.61818125,20.4471,27.61818125Q20.6734,27.61818125,20.8995,27.62898125Q21.1256,27.63988125,21.3508,27.66158125Q21.5761,27.68328125,21.8,27.71578125Q22.0239,27.74828125,22.2459,27.79148125Q22.4679,27.83468125,22.6875,27.88838125Q22.907,27.94218125,23.1236,28.00648125Q23.3402,28.07078125,23.5533,28.14528125Q23.7665,28.21988125,23.9756,28.30458125Q24.1847,28.38938125,24.3893,28.48398125Q24.5939,28.57868125,24.7936,28.68298125Q24.9932,28.78738125,25.1873,28.90118125Q25.3815,29.01498125,25.5697,29.13798125Q25.7579,29.26098125,25.9397,29.39288125Q26.1215,29.52478125,26.2965,29.66518125Q26.4715,29.80568125,26.6392,29.95428125Q26.8069,30.10298125,26.9669,30.25958125Q27.127,30.41608125,27.279,30.58008125Q27.431,30.74418125,27.5746,30.91528125Q27.7182,31.08638125,27.853,31.26428125Q27.9879,31.44208125,28.1136,31.62608125Q28.2394,31.81018125,28.3557,32.00008125Q28.4721,32.18998125,28.5788,32.38518125Q28.6855,32.58048125,28.7823,32.78058125Q28.8791,32.98068125,28.9657,33.18528125Q29.0523,33.38978125,29.1286,33.59828125Q29.2048,33.80668125,29.2705,34.01858125Q29.3362,34.23038125,29.3912,34.44508125Q29.4462,34.65988125,29.4904,34.87698125Q29.5345,35.09418125,29.5678,35.31308125Q29.601,35.53208125,29.6232,35.75248125Q29.6453,35.97278125,29.6564,36.19388125Q29.6676,36.41498125,29.6676,36.63638125Q29.6676,36.76368125,29.6639,36.89088125L57.3318,36.89088125Q57.3281,36.76368125,57.3281,36.63638125Q57.3281,36.41498125,57.3392,36.19388125Q57.3503,35.97278125,57.3725,35.75248125Q57.3947,35.53208125,57.4279,35.31318125Q57.4611,35.09418125,57.5053,34.87698125Q57.5494,34.65988125,57.6044,34.44518125Q57.6594,34.23038125,57.7252,34.01858125Q57.7909,33.80668125,57.8671,33.59828125Q57.9434,33.38978125,58.03,33.18528125Q58.1166,32.98068125,58.2134,32.78058125Q58.3102,32.58048125,58.4169,32.38518125Q58.5236,32.18998125,58.6399,32.00008125Q58.7563,31.81018125,58.8821,31.62608125Q59.0078,31.44208125,59.1426,31.26428125Q59.2775,31.08638125,59.4211,30.91528125Q59.5647,30.74418125,59.7167,30.58008125Q59.8687,30.41608125,60.0287,30.25958125Q60.1888,30.10298125,60.3565,29.95428125Q60.5242,29.80568125,60.6992,29.66518125Q60.8742,29.52478125,61.056,29.39288125Q61.2378,29.26098125,61.426,29.13798125Q61.6142,29.01498125,61.8083,28.90118125Q62.0025,28.78738125,62.2021,28.68298125Q62.4017,28.57868125,62.6063,28.48398125Q62.811,28.38938125,63.0201,28.30468125Q63.2292,28.21988125,63.4423,28.14528125Q63.6554,28.07078125,63.8721,28.00648125Q64.0887,27.94218125,64.3082,27.88848125Q64.5278,27.83468125,64.7498,27.79148125Q64.9718,27.74828125,65.1957,27.71578125Q65.4196,27.68328125,65.6449,27.66158125Q65.8701,27.63988125,66.0962,27.62898125Q66.3223,27.61818125,66.5486,27.61818125Q66.775,27.61818125,67.0011,27.62898125Q67.2271,27.63988125,67.4524,27.66158125Q67.6776,27.68328125,67.9016,27.71578125Q68.1255,27.74828125,68.3475,27.79148125Q68.5695,27.83468125,68.789,27.88838125Q69.0086,27.94218125,69.2252,28.00648125Q69.4418,28.07078125,69.6549,28.14528125Q69.868,28.21988125,70.0771,28.30458125Q70.2863,28.38938125,70.4909,28.48398125Q70.6955,28.57868125,70.8951,28.68298125Q71.0947,28.78738125,71.2889,28.90118125Q71.483,29.01498125,71.6712,29.13798125Q71.8594,29.26098125,72.0413,29.39288125Q72.2231,29.52478125,72.398,29.66518125Q72.573,29.80568125,72.7407,29.95428125Q72.9084,30.10298125,73.0685,30.25958125Q73.2285,30.41608125,73.3805,30.58008125Q73.5326,30.74418125,73.6762,30.91528125Q73.8197,31.08638125,73.9546,31.26428125Q74.0894,31.44208125,74.2152,31.62608125Q74.3409,31.81018125,74.4573,32.00008125Q74.5737,32.18998125,74.6804,32.38518125Q74.7871,32.58048125,74.8838,32.78058125Q74.9806,32.98068125,75.0672,33.18528125Q75.1539,33.38978125,75.2301,33.59828125Q75.3064,33.80668125,75.3721,34.01858125Q75.4378,34.23038125,75.4928,34.44508125Q75.5478,34.65988125,75.5919,34.87698125Q75.6361,35.09418125,75.6693,35.31308125Q75.7025,35.53208125,75.7247,35.75248125Q75.7469,35.97278125,75.758,36.19388125Q75.7691,36.41498125,75.7691,36.63638125Q75.7691,36.76368125,75.7654,36.89088125L80.137,36.89088125Q81.7939,36.89088125,82.9654,35.71938125Q84.137,34.54778125,84.137,32.89088125L84.137,23.76748125Q84.137,22.06128125,82.9055,20.88038125L75.5443,13.82178125Q74.3837,12.70898125,72.7758,12.70898125L43.0449,12.70898125Q41.8064,12.70898125,40.7845,13.40888125L31.7481,19.59808125Q29.7045,20.99778125,27.2274,20.99778125L14.6639,20.99778125Q11.4482,20.99778125,9.12704,23.22348125L5.23155,26.95878125Q4,28.13968125,4,29.84598125L4,32.89088125Q4,34.54778125,5.17157,35.71938125Q6.34315,36.89088125,8,36.89088125L11.2302,36.89088125ZM26.6676,36.63638125Q26.6676,34.16308125,24.8693,32.40428125Q23.0431,30.61818125,20.4471,30.61818125Q17.851,30.61818125,16.0248,32.40428125Q14.2266,34.16308125,14.2266,36.63638125Q14.2266,39.10968125,16.0248,40.86848125Q17.851,42.65458125,20.4471,42.65458125Q23.0431,42.65458125,24.8693,40.86848125Q26.6676,39.10968125,26.6676,36.63638125ZM72.7691,36.63638125Q72.7691,34.16308125,70.9708,32.40428125Q69.1447,30.61818125,66.5486,30.61818125Q63.9526,30.61818125,62.1264,32.40428125Q60.3281,34.16308125,60.3281,36.63638125Q60.3281,39.10968125,62.1264,40.86848125Q63.9526,42.65458125,66.5486,42.65458125Q69.1447,42.65458125,70.9708,40.86848125Q72.7691,39.10968125,72.7691,36.63638125Z" fill-rule="evenodd" fill="#FFFFFF" fill-opacity="1"/></g></g></svg>