<svg xmlns="http://www.w3.org/2000/svg" xmlns:xlink="http://www.w3.org/1999/xlink" fill="none" version="1.1" width="33.9296875" height="31.7060546875" viewBox="0 0 33.9296875 31.7060546875"><g><g><path d="M0.8542139347419738,14.13280019032955C-0.24522206525802612,13.800600190329552,-0.29462206525802614,12.262200190329551,0.7812269347419739,11.860100190329552L32.300177934741974,0.07905339032955169C33.33007793474197,-0.3059048096704483,34.29237793474197,0.7816951903295517,33.784777934741975,1.7570401903295516L18.536477934741974,31.059200190329552C18.009577934741973,32.071600190329555,16.500077934741974,31.84610019032955,16.292077934741975,30.72390019032955L14.083677934741974,18.80940019032955C14.001877934741973,18.368000190329553,13.680677934741974,18.00920019032955,13.250977934741973,17.87940019032955L0.8542139347419738,14.13280019032955ZM3.7010779347419738,12.903900190329551L13.829577934741973,15.964900190329551Q14.097077934741973,16.04570019032955,14.339277934741974,16.16620019032955L20.164677934741974,10.690900190329552Q20.189177934741974,10.667900190329553,20.215077934741974,10.646600190329552Q20.291177934741974,10.584100190329552,20.378077934741974,10.537700190329552Q20.464877934741974,10.491300190329552,20.559177934741975,10.462700190329551Q20.653377934741975,10.434100190329552,20.751377934741974,10.424400190329552Q20.849477934741973,10.414700190329551,20.947477934741976,10.424400190329552Q21.045477934741974,10.434000190329552,21.139677934741975,10.462600190329551Q21.233977934741972,10.491200190329552,21.320877934741972,10.537600190329552Q21.407677934741972,10.58400019032955,21.483877934741972,10.64650019032955Q21.559977934741973,10.70900019032955,21.622477934741973,10.785100190329551Q21.682277934741975,10.857900190329552,21.727477934741973,10.94070019032955Q21.772577934741975,11.023400190329552,21.801477934741975,11.113200190329552Q21.830377934741975,11.20290019032955,21.841977934741973,11.296400190329551Q21.853577934741974,11.390000190329552,21.847477934741974,11.484000190329551Q21.841377934741974,11.578100190329552,21.817877934741976,11.669400190329553Q21.794277934741974,11.760600190329551,21.754077934741975,11.845900190329552Q21.713977934741973,11.931200190329552,21.658477934741974,12.007400190329552Q21.603077934741975,12.083700190329552,21.534477934741975,12.148200190329552L21.534177934741972,12.148500190329552L15.758477934741974,17.577100190329553Q15.964377934741973,17.98150019032955,16.050177934741974,18.44490019032955L17.835077934741975,28.07450019032955L31.048977934741973,2.6818701903295517L3.7010779347419738,12.903900190329551Z" fill-rule="evenodd" fill="#FFFFFF" fill-opacity="1"/></g></g></svg>