<svg xmlns="http://www.w3.org/2000/svg" xmlns:xlink="http://www.w3.org/1999/xlink" fill="none" version="1.1" width="88.6328125" height="42.69313430786133" viewBox="0 0 88.6328125 42.69313430786133"><defs><clipPath id="master_svg0_819_22260"><rect x="0" y="0" width="88.6328125" height="42.69313430786133" rx="0"/></clipPath></defs><g clip-path="url(#master_svg0_819_22260)"><g><g><path d="M29.554840383911134,35.32556366043091L29.241940383911135,36.15856366043091Q28.720340383911132,37.54726366043091,27.501320383911132,38.39626366043091Q26.276160383911133,39.249463660430905,24.789060383911135,39.24956366043091L22.492190383911133,39.24956366043091Q20.523350383911133,39.24966366043091,19.131150383911134,37.85746366043091Q17.73895502391113,36.46536366043091,17.73895502391113,34.496463660430905L17.73895502391113,20.937463660430907Q17.73895502391113,19.44736366043091,18.589639383911134,18.223963660430908L27.447950383911135,5.484423660430908Q28.114340383911134,4.526123660430908,29.148740383911132,3.985474660430908Q30.18314038391113,3.444825172430908,31.35034038391113,3.444825172430908L57.204440383911134,3.444825172430908Q58.32834038391113,3.444825172430908,59.333340383911136,3.948242660430908Q60.338240383911135,4.451663660430908,61.01124038391113,5.351863660430908L70.57424038391113,18.143063660430908Q71.52054038391114,19.408763660430907,71.52054038391114,20.989163660430908L71.52054038391114,34.49636366043091Q71.52054038391114,36.46516366043091,70.12844038391114,37.857363660430906Q68.73624038391114,39.249463660430905,66.76744038391114,39.249463660430905L63.98344038391113,39.249463660430905Q62.59544038391113,39.249463660430905,61.42564038391113,38.502663660430905Q60.255840383911135,37.75576366043091,59.671740383911136,36.49676366043091L58.475840383911134,33.91906366043091Q58.29334038391113,33.52576366043091,57.859840383911134,33.52576366043091L30.708240383911132,33.52576366043091Q30.166840383911133,33.52576366043091,29.97684038391113,34.11266366043091Q29.766940383911134,34.76086366043091,29.554840383911134,35.32556366043091ZM25.740900383911132,33.89306366043091Q25.919900383911134,33.41646366043091,26.100770383911133,32.857763660430905Q26.584740383911132,31.362963660430907,27.825240383911133,30.424163660430906Q29.110240383911133,29.45166366043091,30.708240383911132,29.45166366043091L57.859840383911134,29.45166366043091Q59.24784038391113,29.45166366043091,60.417640383911134,30.198563660430906Q61.58744038391113,30.945363660430907,62.171540383911136,32.2044636604309L63.36744038391113,34.78216366043091Q63.549940383911135,35.175363660430904,63.98344038391113,35.175363660430904L66.76744038391114,35.175363660430904Q67.04874038391114,35.175363660430904,67.24754038391113,34.97646366043091Q67.44644038391112,34.7776636604309,67.44644038391112,34.49636366043091L67.44644038391112,20.989163660430908Q67.44644038391112,20.763363660430908,67.31124038391113,20.582563660430907L57.74824038391113,7.791353660430908Q57.544540383911134,7.518923660430908,57.204440383911134,7.518923660430908L31.35034038391113,7.518923660430908Q30.995540383911134,7.518923660430908,30.79294038391113,7.810293660430908L21.934580383911133,20.54986366043091Q21.813050383911133,20.72466366043091,21.813050383911133,20.937463660430907L21.813050383911133,34.496463660430905Q21.813050383911133,34.77776366043091,22.01194038391113,34.97666366043091Q22.210820383911134,35.17546366043091,22.492080383911134,35.17546366043091L24.78896038391113,35.17546366043091Q25.259250383911134,35.17546366043091,25.428030383911132,34.72606366043091L25.740900383911132,33.89306366043091ZM59.507140383911135,17.956463660430906Q59.507140383911135,18.05356366043091,59.49784038391113,18.150163660430906Q59.48864038391113,18.246863660430908,59.47024038391113,18.342163660430906Q59.45184038391113,18.437463660430907,59.42444038391113,18.530563660430907Q59.39704038391113,18.62376366043091,59.360940383911135,18.71386366043091Q59.32484038391113,18.80396366043091,59.280240383911135,18.890163660430908Q59.235740383911136,18.97646366043091,59.18314038391113,19.05806366043091Q59.130640383911135,19.13966366043091,59.07054038391113,19.21596366043091Q59.01044038391113,19.29216366043091,58.94344038391113,19.36236366043091Q58.876340383911135,19.432563660430908,58.802940383911135,19.49606366043091Q58.72944038391113,19.559563660430907,58.650340383911136,19.615763660430908Q58.571140383911136,19.671963660430908,58.487040383911136,19.72036366043091Q58.40284038391113,19.76876366043091,58.31454038391113,19.80896366043091Q58.22614038391113,19.849163660430907,58.13434038391113,19.880763660430908Q58.04254038391113,19.91226366043091,57.94814038391113,19.93506366043091Q57.853840383911134,19.95776366043091,57.75764038391113,19.971363660430907Q57.66154038391113,19.984963660430907,57.56454038391113,19.989363660430907L57.56464038391113,19.99146366043091Q56.119740383911136,20.05716366043091,53.15274038391113,20.247263660430907Q47.14374038391114,20.63216366043091,43.94484038391113,20.63216366043091Q41.233140383911135,20.63216366043091,35.80074038391113,20.306563660430907Q32.900740383911135,20.132763660430907,31.54724038391113,20.079363660430907L31.54724038391113,20.07726366043091Q31.449940383911134,20.073463660430907,31.35334038391113,20.06026366043091Q31.256740383911133,20.047163660430908,31.161940383911134,20.02486366043091Q31.067040383911134,20.00256366043091,30.974740383911133,19.971263660430907Q30.88244038391113,19.94006366043091,30.793540383911132,19.90006366043091Q30.704640383911133,19.86016366043091,30.619940383911132,19.81186366043091Q30.53524038391113,19.763663660430907,30.45564038391113,19.707463660430907Q30.375940383911132,19.65136366043091,30.30194038391113,19.58786366043091Q30.228040383911132,19.524363660430907,30.160540383911133,19.454163660430908Q30.092940383911134,19.383863660430908,30.032440383911133,19.30746366043091Q29.971940383911132,19.23106366043091,29.918940383911135,19.149263660430908Q29.866040383911134,19.06746366043091,29.821140383911132,18.98096366043091Q29.776240383911134,18.894463660430908,29.739840383911133,18.804063660430906Q29.703440383911133,18.71366366043091,29.675840383911133,18.620163660430908Q29.648240383911133,18.526663660430906,29.629740383911134,18.431063660430908Q29.61124038391113,18.335363660430907,29.60184038391113,18.238363660430906Q29.592540383911135,18.14136366043091,29.592540383911135,18.043863660430908Q29.592540383911135,17.943863660430907,29.602340383911134,17.844363660430908Q29.612140383911132,17.74486366043091,29.631640383911133,17.64686366043091Q29.651140383911134,17.548763660430907,29.680240383911134,17.45316366043091Q29.709240383911133,17.35746366043091,29.747440383911133,17.265063660430908Q29.785740383911133,17.17276366043091,29.832840383911133,17.08456366043091Q29.879940383911133,16.99636366043091,29.935540383911132,16.913263660430907Q29.991040383911134,16.83016366043091,30.054440383911135,16.752863660430908Q30.117940383911133,16.67556366043091,30.188640383911135,16.604863660430908Q30.25934038391113,16.534163660430906,30.336540383911135,16.470763660430908Q30.413840383911133,16.40736366043091,30.49694038391113,16.351863660430908Q30.580140383911132,16.29626366043091,30.668240383911133,16.24916366043091Q30.756440383911134,16.20206366043091,30.84884038391113,16.16376366043091Q30.941140383911133,16.12546366043091,31.036840383911134,16.096463660430906Q31.132540383911135,16.06746366043091,31.230540383911134,16.04796366043091Q31.328640383911132,16.02846366043091,31.428140383911135,16.01866366043091Q31.527640383911134,16.008863660430908,31.627540383911132,16.008863660430908Q31.66774038391113,16.008863660430908,31.707840383911133,16.010463660430908L31.707940383911133,16.00836366043091Q33.10294038391113,16.06346366043091,36.04444038391114,16.23976366043091Q41.355140383911134,16.55806366043091,43.94484038391113,16.55806366043091Q47.01334038391113,16.55806366043091,52.89224038391113,16.181463660430907Q55.89694038391113,15.988963660430908,57.379540383911134,15.921563660430909L57.37964038391113,15.923563660430908Q57.42584038391113,15.921463660430907,57.47214038391113,15.921463660430907Q57.57204038391113,15.921463660430907,57.671540383911136,15.931263660430908Q57.771040383911135,15.941063660430908,57.86914038391113,15.960563660430909Q57.967140383911136,15.980063660430908,58.06284038391113,16.009063660430908Q58.15854038391113,16.03816366043091,58.25084038391113,16.076363660430907Q58.34324038391113,16.114663660430907,58.43144038391113,16.161763660430907Q58.519540383911135,16.208863660430907,58.60264038391113,16.264463660430906Q58.685840383911135,16.319963660430908,58.763140383911136,16.38336366043091Q58.84034038391113,16.446863660430907,58.911040383911136,16.51756366043091Q58.98174038391113,16.588163660430908,59.04514038391113,16.66546366043091Q59.10864038391113,16.74276366043091,59.16414038391113,16.825863660430908Q59.219640383911134,16.90906366043091,59.26684038391113,16.997163660430907Q59.31394038391113,17.085363660430907,59.35224038391113,17.17776366043091Q59.390440383911134,17.270063660430907,59.41944038391113,17.365763660430908Q59.44854038391113,17.46146366043091,59.46804038391113,17.559463660430907Q59.48754038391113,17.65756366043091,59.49734038391113,17.75706366043091Q59.507140383911135,17.856463660430908,59.507140383911135,17.956463660430906Z" fill-rule="evenodd" fill="#FFFFFF" fill-opacity="1"/></g><g><path d="M9.1068075,15.62062501449585L9.1068075,37.54172501449585Q9.1068075,37.64182501449585,9.1166175,37.74142501449585Q9.126417499999999,37.84102501449585,9.1459475,37.93912501449585Q9.1654675,38.03732501449585,9.1945175,38.13312501449585Q9.2235675,38.22882501449585,9.261867500000001,38.32132501449585Q9.300157500000001,38.41372501449585,9.3473375,38.50202501449585Q9.3945075,38.59022501449585,9.4501075,38.67342501449585Q9.5057075,38.75672501449585,9.5691875,38.83402501449585Q9.6326775,38.91142501449585,9.7034375,38.98212501449585Q9.7742075,39.05292501449585,9.8515675,39.11642501449585Q9.9289175,39.17992501449585,10.0121275,39.23552501449585Q10.0953375,39.29112501449585,10.183597500000001,39.33822501449585Q10.2718475,39.38542501449585,10.364307499999999,39.42372501449585Q10.4567675,39.46202501449585,10.5525275,39.49112501449585Q10.6482975,39.52012501449585,10.7464475,39.53962501449585Q10.8445975,39.55922501449585,10.9441875,39.56902501449585Q11.0437775,39.57882501449585,11.1438475,39.57882501449585Q11.2439275,39.57882501449585,11.3435175,39.56902501449585Q11.4431075,39.55922501449585,11.5412575,39.53962501449585Q11.6394075,39.52012501449585,11.7351775,39.49112501449585Q11.8309375,39.46202501449585,11.9233975,39.42372501449585Q12.0158575,39.38542501449585,12.1041075,39.33822501449585Q12.1923675,39.29112501449585,12.2755775,39.23552501449585Q12.3587875,39.17992501449585,12.4361375,39.11642501449585Q12.5134975,39.05292501449585,12.5842575,38.98212501449585Q12.6550275,38.91142501449585,12.7185075,38.83402501449585Q12.7819975,38.75672501449585,12.8375875,38.67342501449585Q12.8931875,38.59022501449585,12.9403875,38.50202501449585Q12.9875875,38.41372501449585,13.0258875,38.32132501449585Q13.0640875,38.22882501449585,13.0931875,38.13312501449585Q13.1221875,38.03732501449585,13.1417875,37.93912501449585Q13.1612875,37.84102501449585,13.1710875,37.74142501449585Q13.1808875,37.64182501449585,13.1808875,37.54172501449585L13.1808875,15.62062501449585Q13.1808875,15.36502501449585,13.3493875,15.17292501449585L21.7254875,5.6209750144958495Q21.7914875,5.5457350144958495,21.8496875,5.46438501449585Q21.9079875,5.383035014495849,21.9580875,5.29636501449585Q22.0080875,5.2096990144958495,22.0493875,5.11854401449585Q22.0906875,5.027389014495849,22.1227875,4.9326240144958495Q22.1549875,4.83786001449585,22.1776875,4.74039901449585Q22.2003875,4.64293901449585,22.2134875,4.5437210144958495Q22.2265875,4.44450201449585,22.2297875,4.344482114495849Q22.2330875,4.24446181449585,22.2265875,4.14460301449585Q22.2199875,4.044743014495849,22.2036875,3.9460070144958497Q22.1873875,3.8472710144958495,22.1614875,3.7506080144958496Q22.1355875,3.6539460144958498,22.1002875,3.5602880144958498Q22.0650875,3.4666300144958497,22.0207875,3.3768780144958495Q21.9764875,3.2871270144958498,21.9236875,3.2021450144958497Q21.8707875,3.11716501449585,21.8098875,3.0377750144958497Q21.7489875,2.9583850144958497,21.6805875,2.88534501449585Q21.6121875,2.8123050144958497,21.5368875,2.7463250144958495Q21.3860875,2.6140550144958494,21.2122875,2.5137450144958495Q21.0385875,2.4134350144958496,20.8485875,2.3489550144958495Q20.6585875,2.2844750144958494,20.4596875,2.25829501449585Q20.2607875,2.2321150144958497,20.0605875,2.2452450144958496Q19.8603875,2.2583750144958494,19.6665875,2.3103150144958495Q19.4727875,2.3622450144958496,19.2927875,2.4509950144958497Q19.1128875,2.5397350144958497,18.9536875,2.6618850144958497Q18.7945875,2.7840250144958496,18.662287499999998,2.9348750144958498L10.2861975,12.48684501449585Q9.1068075,13.831805014495849,9.1068075,15.62062501449585ZM0.7676375000000002,15.62302501449585L0.7676375000000002,35.48082501449585Q0.7676375000000002,35.58092501449585,0.7774475000000001,35.68052501449585Q0.7872574999999999,35.78012501449585,0.8067774999999999,35.878225014495854Q0.8263075,35.976425014495845,0.8553575,36.07212501449585Q0.8844075,36.16792501449585,0.9226975,36.26042501449585Q0.9609975,36.35282501449585,1.0081675,36.44112501449585Q1.0553475,36.529325014495846,1.1109475,36.61252501449585Q1.1665375,36.69572501449585,1.2300275,36.77312501449585Q1.2935175,36.85052501449585,1.3642775,36.92122501449585Q1.4350375,36.99202501449585,1.5123975,37.05552501449585Q1.5897575,37.11902501449585,1.6729675,37.17452501449585Q1.7561775,37.23012501449585,1.8444295,37.27732501449585Q1.9326865,37.32452501449585,2.0251435,37.36282501449585Q2.1175995,37.40112501449585,2.2133635,37.43012501449585Q2.3091285,37.45922501449585,2.4072795,37.47872501449585Q2.5054305,37.49822501449585,2.6050215,37.50802501449585Q2.7046135,37.51792501449585,2.8046875,37.51792501449585Q2.9047615,37.51792501449585,3.0043535,37.50802501449585Q3.1039445,37.49822501449585,3.2020955,37.47872501449585Q3.3002465,37.45922501449585,3.3960115,37.43012501449585Q3.4917755,37.40112501449585,3.5842315,37.36282501449585Q3.6766885,37.32452501449585,3.7649455,37.27732501449585Q3.8531975000000003,37.23012501449585,3.9364075,37.17452501449585Q4.0196175,37.11902501449585,4.0969774999999995,37.05552501449585Q4.1743375,36.99202501449585,4.2450975,36.92122501449585Q4.3158575,36.85052501449585,4.3793475,36.77312501449585Q4.4428374999999996,36.69572501449585,4.4984275,36.61252501449585Q4.5540275,36.529325014495846,4.6012075,36.44112501449585Q4.6483775000000005,36.35282501449585,4.6866775,36.26042501449585Q4.7249675,36.16792501449585,4.7540175,36.07212501449585Q4.7830675,35.976425014495845,4.8025975,35.878225014495854Q4.8221175,35.78012501449585,4.8319275,35.68052501449585Q4.8417375,35.58092501449585,4.8417375,35.48082501449585L4.8417375,15.62302501449585Q4.8417375,15.36692501449585,5.0109175,15.174525014495849L12.0898175,7.127275014495849Q12.2223275,6.97663501449585,12.3229075,6.803035014495849Q12.4234875,6.62943501449585,12.4882675,6.43955501449585Q12.5530475,6.24966501449585,12.5795375,6.050785014495849Q12.6060275,5.85191501449585,12.5932075,5.65169501449585Q12.5803875,5.45147501449585,12.5287575,5.2575970144958495Q12.4771275,5.063723014495849,12.3886575,4.88364801449585Q12.3001975,4.703572014495849,12.1782975,4.544216014495849Q12.0564075,4.3848590144958495,11.9057675,4.252344514495849Q11.8306275,4.186247214495849,11.7493675,4.12783301449585Q11.6681175,4.06941901449585,11.5815175,4.0192510144958495Q11.4949275,3.9690830144958498,11.4038375,3.9276430144958496Q11.3127475,3.8862040144958496,11.2180375,3.8538930144958496Q11.1233175,3.8215810144958495,11.0258975,3.7987090144958495Q10.9284675,3.7758370144958495,10.8292775,3.7626240144958496Q10.7300775,3.7494120144958494,10.6300575,3.7459860144958497Q10.5300475,3.7425600144958495,10.4301775,3.7489530144958496Q10.3303075,3.7553470144958494,10.2315475,3.7714990144958493Q10.1327875,3.7876510144958497,10.036077500000001,3.81340501449585Q9.939377499999999,3.8391590144958494,9.845667500000001,3.8742680144958497Q9.7519475,3.9093770144958495,9.6621275,3.9535020144958497Q9.5723075,3.9976280144958496,9.487247499999999,4.05034501449585Q9.4021875,4.103061014495849,9.3226975,4.16386201449585Q9.2432175,4.22466251449585,9.1700675,4.29296131449585Q9.0969275,4.36126011449585,9.030827500000001,4.43639901449585L1.9519285,12.48368501449585Q0.7676375000000002,13.82998501449585,0.7676375000000002,15.62302501449585Z" fill-rule="evenodd" fill="#FFFFFF" fill-opacity="1"/></g><g transform="matrix(-1,0,0,1,171.640625,0)"><path d="M92.1224325,15.62062501449585L92.1224325,37.54172501449585Q92.1224325,37.64182501449585,92.1322425,37.74142501449585Q92.1420425,37.84102501449585,92.1615725,37.93912501449585Q92.1810925,38.03732501449585,92.2101425,38.13312501449585Q92.2391925,38.22882501449585,92.2774925,38.32132501449585Q92.3157825,38.41372501449585,92.3629625,38.50202501449585Q92.4101325,38.59022501449585,92.4657325,38.67342501449585Q92.5213325,38.75672501449585,92.5848125,38.83402501449585Q92.6483025,38.91142501449585,92.7190625,38.98212501449585Q92.7898325,39.05292501449585,92.8671925,39.11642501449585Q92.9445425,39.17992501449585,93.0277525,39.23552501449585Q93.1109625,39.29112501449585,93.1992225,39.33822501449585Q93.2874725,39.38542501449585,93.3799325,39.42372501449585Q93.4723925,39.46202501449585,93.5681525,39.49112501449585Q93.6639225,39.52012501449585,93.7620725,39.53962501449585Q93.8602225,39.55922501449585,93.9598125,39.56902501449585Q94.0594025,39.57882501449585,94.15947249999999,39.57882501449585Q94.2595525,39.57882501449585,94.3591425,39.56902501449585Q94.4587325,39.55922501449585,94.5568825,39.53962501449585Q94.6550325,39.52012501449585,94.7508025,39.49112501449585Q94.8465625,39.46202501449585,94.9390225,39.42372501449585Q95.0314825,39.38542501449585,95.1197325,39.33822501449585Q95.2079925,39.29112501449585,95.2912025,39.23552501449585Q95.3744125,39.17992501449585,95.4517625,39.11642501449585Q95.5291225,39.05292501449585,95.5998825,38.98212501449585Q95.6706525,38.91142501449585,95.7341325,38.83402501449585Q95.7976225,38.75672501449585,95.8532125,38.67342501449585Q95.9088125,38.59022501449585,95.9560125,38.50202501449585Q96.0032125,38.41372501449585,96.0415125,38.32132501449585Q96.0797125,38.22882501449585,96.1088125,38.13312501449585Q96.1378125,38.03732501449585,96.15741249999999,37.93912501449585Q96.1769125,37.84102501449585,96.1867125,37.74142501449585Q96.1965125,37.64182501449585,96.1965125,37.54172501449585L96.1965125,15.62062501449585Q96.1965125,15.36502501449585,96.3650125,15.17292501449585L104.7411125,5.6209750144958495Q104.8071125,5.5457350144958495,104.8653125,5.46438501449585Q104.9236125,5.383035014495849,104.9737125,5.29636501449585Q105.0237125,5.2096990144958495,105.0650125,5.11854401449585Q105.1063125,5.027389014495849,105.1384125,4.9326240144958495Q105.1706125,4.83786001449585,105.1933125,4.74039901449585Q105.2160125,4.64293901449585,105.2291125,4.5437210144958495Q105.2422125,4.44450201449585,105.2454125,4.344482114495849Q105.2487125,4.24446181449585,105.2422125,4.14460301449585Q105.2356125,4.044743014495849,105.2193125,3.9460070144958497Q105.2030125,3.8472710144958495,105.17711249999999,3.7506080144958496Q105.1512125,3.6539460144958498,105.11591250000001,3.5602880144958498Q105.0807125,3.4666300144958497,105.0364125,3.3768780144958495Q104.9921125,3.2871270144958498,104.9393125,3.2021450144958497Q104.8864125,3.11716501449585,104.8255125,3.0377750144958497Q104.7646125,2.9583850144958497,104.6962125,2.88534501449585Q104.6278125,2.8123050144958497,104.5525125,2.7463250144958495Q104.4017125,2.6140550144958494,104.2279125,2.5137450144958495Q104.0542125,2.4134350144958496,103.86421250000001,2.3489550144958495Q103.6742125,2.2844750144958494,103.4753125,2.25829501449585Q103.27641249999999,2.2321150144958497,103.0762125,2.2452450144958496Q102.8760125,2.2583750144958494,102.68221249999999,2.3103150144958495Q102.4884125,2.3622450144958496,102.3084125,2.4509950144958497Q102.1285125,2.5397350144958497,101.9693125,2.6618850144958497Q101.8102125,2.7840250144958496,101.6779125,2.9348750144958498L93.3018225,12.48684501449585Q92.1224325,13.831805014495849,92.1224325,15.62062501449585ZM83.7832625,15.62302501449585L83.7832625,35.48082501449585Q83.7832625,35.58092501449585,83.7930725,35.68052501449585Q83.8028825,35.78012501449585,83.8224025,35.878225014495854Q83.8419325,35.976425014495845,83.8709825,36.07212501449585Q83.9000325,36.16792501449585,83.9383225,36.26042501449585Q83.9766225,36.35282501449585,84.0237925,36.44112501449585Q84.0709725,36.529325014495846,84.1265725,36.61252501449585Q84.1821625,36.69572501449585,84.2456525,36.77312501449585Q84.30914250000001,36.85052501449585,84.3799025,36.92122501449585Q84.45066249999999,36.99202501449585,84.5280225,37.05552501449585Q84.6053825,37.11902501449585,84.6885925,37.17452501449585Q84.7718025,37.23012501449585,84.8600545,37.27732501449585Q84.9483115,37.32452501449585,85.0407685,37.36282501449585Q85.1332245,37.40112501449585,85.2289885,37.43012501449585Q85.3247535,37.45922501449585,85.4229045,37.47872501449585Q85.5210555,37.49822501449585,85.6206465,37.50802501449585Q85.7202385,37.51792501449585,85.8203125,37.51792501449585Q85.9203865,37.51792501449585,86.0199785,37.50802501449585Q86.1195695,37.49822501449585,86.2177205,37.47872501449585Q86.3158715,37.45922501449585,86.4116365,37.43012501449585Q86.5074005,37.40112501449585,86.5998565,37.36282501449585Q86.6923135,37.32452501449585,86.7805705,37.27732501449585Q86.8688225,37.23012501449585,86.9520325,37.17452501449585Q87.0352425,37.11902501449585,87.1126025,37.05552501449585Q87.18996250000001,36.99202501449585,87.2607225,36.92122501449585Q87.33148249999999,36.85052501449585,87.3949725,36.77312501449585Q87.4584625,36.69572501449585,87.5140525,36.61252501449585Q87.5696525,36.529325014495846,87.6168325,36.44112501449585Q87.6640025,36.35282501449585,87.7023025,36.26042501449585Q87.7405925,36.16792501449585,87.7696425,36.07212501449585Q87.7986925,35.976425014495845,87.8182225,35.878225014495854Q87.8377425,35.78012501449585,87.8475525,35.68052501449585Q87.8573625,35.58092501449585,87.8573625,35.48082501449585L87.8573625,15.62302501449585Q87.8573625,15.36692501449585,88.0265425,15.174525014495849L95.1054425,7.127275014495849Q95.2379525,6.97663501449585,95.3385325,6.803035014495849Q95.4391125,6.62943501449585,95.5038925,6.43955501449585Q95.5686725,6.24966501449585,95.5951625,6.050785014495849Q95.6216525,5.85191501449585,95.6088325,5.65169501449585Q95.5960125,5.45147501449585,95.5443825,5.2575970144958495Q95.4927525,5.063723014495849,95.4042825,4.88364801449585Q95.3158225,4.703572014495849,95.1939225,4.544216014495849Q95.0720325,4.3848590144958495,94.9213925,4.252344514495849Q94.8462525,4.186247214495849,94.7649925,4.12783301449585Q94.6837425,4.06941901449585,94.5971425,4.0192510144958495Q94.5105525,3.9690830144958498,94.4194625,3.9276430144958496Q94.3283725,3.8862040144958496,94.2336625,3.8538930144958496Q94.1389425,3.8215810144958495,94.0415225,3.7987090144958495Q93.9440925,3.7758370144958495,93.8449025,3.7626240144958496Q93.7457025,3.7494120144958494,93.6456825,3.7459860144958497Q93.5456725,3.7425600144958495,93.4458025,3.7489530144958496Q93.3459325,3.7553470144958494,93.2471725,3.7714990144958493Q93.1484125,3.7876510144958497,93.0517025,3.81340501449585Q92.9550025,3.8391590144958494,92.8612925,3.8742680144958497Q92.7675725,3.9093770144958495,92.6777525,3.9535020144958497Q92.5879325,3.9976280144958496,92.5028725,4.05034501449585Q92.4178125,4.103061014495849,92.3383225,4.16386201449585Q92.2588425,4.22466251449585,92.1856925,4.29296131449585Q92.11255249999999,4.36126011449585,92.0464525,4.43639901449585L84.9675535,12.48368501449585Q83.7832625,13.82998501449585,83.7832625,15.62302501449585Z" fill-rule="evenodd" fill="#FFFFFF" fill-opacity="1"/></g></g></g></svg>