<svg xmlns="http://www.w3.org/2000/svg" xmlns:xlink="http://www.w3.org/1999/xlink" fill="none" version="1.1" width="61.484375" height="57.201171875" viewBox="0 0 61.484375 57.201171875"><g><g transform="matrix(-1,0,0,1,122.96468353271484,0)"><path d="M65.66980176635742,0.00005650556201171873L67.57411176635742,0.000020265562011718735L68.48660176635742,-4.379882812769603e-10Q72.48024176635742,-4.379882812769603e-10,76.13744176635743,1.4177198385620118Q79.64844176635742,2.778779838562012,82.44144176635743,5.281789838562012Q85.20284176635742,7.756499838562012,86.88684176635742,11.008029838562011Q88.61044176635743,14.335929838562011,88.96634176635743,18.022229838562012L84.87074176635743,18.41752983856201Q84.59124176635743,15.522429838562012,83.23314176635742,12.900329838562012Q81.89564176635741,10.317829838562012,79.69534176635742,8.345969838562011Q77.46134176635742,6.343929838562012,74.65024176635742,5.2541798385620115Q71.71064176635743,4.114639838562011,68.48669176635742,4.114639838562011L67.57419176635742,4.1146598385620115L65.66988176635742,4.114689838562012L65.66980176635742,0.00005650556201171873ZM63.45420176635742,6.996589838562012Q66.39621176635742,6.161379838562012,69.41316176635742,6.5197598385620115Q72.32644176635742,6.865839838562012,74.90554176635742,8.272359838562013Q77.48764176635743,9.680549838562012,79.33794176635742,11.935229838562012Q81.25744176635742,14.274329838562013,82.10824176635742,17.18912983856201L88.22514176635742,38.14712983856201Q88.41734176635742,38.80542983856201,88.96584176635741,39.21672983856201Q89.51444176635742,39.628029838562014,90.20014176635742,39.628029838562014L107.91074176635743,39.628029838562014Q110.96684176635742,39.628029838562014,113.76164176635743,40.793929838562015Q116.46244176635741,41.92052983856201,118.54534176635742,43.97482983856201Q120.63134176635742,46.032129838562014,121.77684176635742,48.70302983856201Q122.96464176635743,51.47292983856201,122.96464176635743,54.503229838562014Q122.96464176635743,55.62922983856201,122.16164176635742,56.42112983856201Q121.37054176635742,57.201429838562014,120.25724176635742,57.201429838562014L104.96884176635743,57.199329838562015L79.91024176635742,57.199329838562015Q77.85434176635742,57.199329838562015,76.20464176635743,55.967929838562014Q74.54904176635742,54.73222983856201,73.97244176635742,52.75642983856201L61.595503766357425,10.346929838562012Q61.27888176635742,9.262109838562012,61.831831766357425,8.275909838562011Q62.37780176635742,7.3021598385620115,63.454191766357425,6.996589838562012L63.45420176635742,6.996589838562012ZM77.92224176635742,51.60372983856201L65.97072176635743,10.651629838562013Q67.43792176635742,10.428729838562012,68.92779176635742,10.605629838562011Q71.05310176635743,10.85812983856201,72.93544176635743,11.884729838562011Q74.81474176635743,12.909629838562012,76.15724176635742,14.545529838562011Q77.54324176635743,16.23442983856201,78.15834176635742,18.341929838562013L84.27534176635743,39.30002983856201Q84.85164176635742,41.274629838562014,86.49734176635742,42.50862983856201Q88.14314176635742,43.74272983856201,90.20014176635742,43.74272983856201L107.91074176635743,43.74272983856201Q110.14304176635741,43.74272983856201,112.17754176635742,44.591429838562014Q114.14154176635742,45.41062983856201,115.65614176635742,46.90442983856201Q117.16774176635742,48.39522983856201,117.99524176635742,50.32482983856201Q118.56894176635743,51.66242983856201,118.75754176635742,53.086529838562015L104.96884176635743,53.08462983856201L79.91024176635742,53.08462983856201Q79.22064176635742,53.08462983856201,78.66574176635743,52.67052983856201Q78.11324176635742,52.25812983856201,77.92224176635742,51.60372983856201Z" fill-rule="evenodd" fill="#FFFFFF" fill-opacity="1"/></g><g><path d="M8.41378339111328,11.171518309326173Q8.521543391113282,11.053938309326172,8.605763391113282,10.918505309326171Q8.689993391113282,10.783072309326172,8.747803391113282,10.634431309326171Q8.805613391113281,10.485790309326172,8.835023391113282,10.329037309326171Q8.86442339111328,10.172285309326172,8.86442339111328,10.012798309326172Q8.86442339111328,9.928545809326172,8.85617339111328,9.844699309326172Q8.84791339111328,9.760852309326172,8.831473391113281,9.678218309326171Q8.815033391113282,9.595585309326172,8.79058339111328,9.514960309326172Q8.76612339111328,9.434335309326173,8.733883391113281,9.356496309326172Q8.701633391113281,9.278657309326173,8.66192339111328,9.204353309326171Q8.622203391113281,9.130049309326171,8.57539339111328,9.059995309326172Q8.528593391113281,8.989938309326172,8.475143391113281,8.924818309326172Q8.421693391113282,8.859688309326172,8.362113391113281,8.800108309326172Q8.302543391113282,8.740538309326173,8.237413391113282,8.687088309326171Q8.17228339111328,8.633638309326171,8.10223339111328,8.586828309326172Q8.03217339111328,8.540018309326172,7.9578733911132815,8.500308309326172Q7.883573391113281,8.460588309326171,7.805733391113281,8.428348309326172Q7.727893391113281,8.396098309326172,7.647263391113281,8.371648309326172Q7.566643391113281,8.347188309326171,7.484003391113282,8.330748309326172Q7.401373391113282,8.314318309326172,7.317523391113282,8.306058309326172Q7.233683391113281,8.297798309326172,7.149423391113281,8.297798309326172Q6.9710833911132815,8.297798309326172,6.796543391113281,8.334498309326172Q6.622013391113281,8.371188309326172,6.458773391113281,8.443018309326172Q6.2955233911132815,8.514838309326173,6.150543391113281,8.618718309326171Q6.005573391113281,8.722588309326172,5.885074391113282,8.854078309326171L5.884455391113281,8.853508309326171Q2.781363391113281,12.239488309326171,3.511073391113281,15.41091830932617Q3.7994433911132814,16.664238309326173,4.722073391113281,17.96047830932617Q5.214919391113281,18.652908309326172,6.3430333911132815,19.905148309326172Q7.445893391113281,21.12939830932617,7.856293391113281,21.73399830932617Q8.431703391113281,22.581798309326174,8.53739339111328,23.297298309326173Q8.82080339111328,25.21579830932617,5.935668391113281,28.10319830932617L5.936265391113281,28.103798309326173Q5.816932391113281,28.223198309326172,5.723177391113281,28.36359830932617Q5.629422391113281,28.50409830932617,5.564845391113281,28.659998309326173Q5.5002683911132815,28.815998309326172,5.4673473911132815,28.981598309326174Q5.434427391113282,29.14719830932617,5.434427391113282,29.315998309326172Q5.434427391113282,29.40029830932617,5.442685391113281,29.48409830932617Q5.450943391113281,29.56799830932617,5.467380391113281,29.65059830932617Q5.4838173911132815,29.733198309326173,5.508274391113281,29.813898309326174Q5.532731391113281,29.89449830932617,5.5649733911132815,29.97229830932617Q5.597215391113282,30.050198309326174,5.636932391113281,30.12449830932617Q5.6766483911132815,30.198798309326172,5.723456391113281,30.268798309326172Q5.770264391113281,30.338898309326172,5.823714391113281,30.403998309326173Q5.877163391113282,30.46909830932617,5.936738391113281,30.52869830932617Q5.996314391113281,30.588298309326174,6.061442391113281,30.641698309326173Q6.126573391113281,30.695198309326173,6.196623391113281,30.74199830932617Q6.266673391113281,30.78879830932617,6.340983391113282,30.82849830932617Q6.415283391113281,30.86819830932617,6.493123391113281,30.90049830932617Q6.570963391113281,30.93269830932617,6.651593391113281,30.957198309326174Q6.732213391113281,30.981598309326174,6.814843391113281,30.99809830932617Q6.897483391113282,31.01449830932617,6.981323391113281,31.022798309326173Q7.065173391113281,31.030998309326172,7.149423391113281,31.030998309326172Q7.318423391113281,31.030998309326172,7.484173391113281,30.99799830932617Q7.649913391113281,30.965098309326173,7.806043391113281,30.90039830932617Q7.962163391113281,30.835698309326173,8.102643391113281,30.74169830932617Q8.24313339111328,30.647798309326173,8.36259339111328,30.52819830932617L8.363183391113282,30.52879830932617Q12.46776339111328,26.421098309326172,11.932243391113282,22.795798309326173Q11.711863391113281,21.303898309326172,10.695723391113281,19.80682830932617Q10.153113391113282,19.00737830932617,8.89268339111328,17.60824830932617Q7.8964533911132815,16.50240830932617,7.517873391113281,15.970518309326172Q6.990803391113281,15.229998309326172,6.8553733911132815,14.641438309326173Q6.530183391113281,13.228088309326171,8.414403391113282,11.172088309326172L8.41378339111328,11.171518309326173Z" fill-rule="evenodd" fill="#FFFFFF" fill-opacity="1"/></g><g><path d="M18.02321942626953,11.171518309326173Q18.13097942626953,11.053938309326172,18.215199426269532,10.918505309326171Q18.29942942626953,10.783072309326172,18.35723942626953,10.634431309326171Q18.415049426269533,10.485790309326172,18.444459426269532,10.329037309326171Q18.47385942626953,10.172285309326172,18.47385942626953,10.012798309326172Q18.47385942626953,9.928545809326172,18.46560942626953,9.844699309326172Q18.45734942626953,9.760852309326172,18.44090942626953,9.678218309326171Q18.424469426269532,9.595585309326172,18.40001942626953,9.514960309326172Q18.375559426269533,9.434335309326173,18.34331942626953,9.356496309326172Q18.31106942626953,9.278657309326173,18.27135942626953,9.204353309326171Q18.23163942626953,9.130049309326171,18.18482942626953,9.059995309326172Q18.138029426269533,8.989938309326172,18.08457942626953,8.924818309326172Q18.03112942626953,8.859688309326172,17.971549426269533,8.800108309326172Q17.911979426269532,8.740538309326173,17.846849426269532,8.687088309326171Q17.781719426269532,8.633638309326171,17.71166942626953,8.586828309326172Q17.641609426269532,8.540018309326172,17.56730942626953,8.500308309326172Q17.49300942626953,8.460588309326171,17.415169426269532,8.428348309326172Q17.33732942626953,8.396098309326172,17.25669942626953,8.371648309326172Q17.17607942626953,8.347188309326171,17.09343942626953,8.330748309326172Q17.01080942626953,8.314318309326172,16.92695942626953,8.306058309326172Q16.84311942626953,8.297798309326172,16.75885942626953,8.297798309326172Q16.580519426269532,8.297798309326172,16.405979426269532,8.334498309326172Q16.23144942626953,8.371188309326172,16.068209426269533,8.443018309326172Q15.904959426269532,8.514838309326173,15.759979426269531,8.618718309326171Q15.61500942626953,8.722588309326172,15.494510426269532,8.854078309326171L15.493891426269531,8.853508309326171Q12.390799426269531,12.239488309326171,13.120509426269532,15.41091830932617Q13.40887942626953,16.664238309326173,14.33150942626953,17.96047830932617Q14.82435542626953,18.652908309326172,15.95246942626953,19.905148309326172Q17.05532942626953,21.12939830932617,17.465729426269533,21.73399830932617Q18.04113942626953,22.581798309326174,18.14682942626953,23.297298309326173Q18.43023942626953,25.21579830932617,15.545104426269532,28.10319830932617L15.545701426269531,28.103798309326173Q15.426368426269532,28.223198309326172,15.332613426269532,28.36359830932617Q15.23885842626953,28.50409830932617,15.17428142626953,28.659998309326173Q15.10970442626953,28.815998309326172,15.07678342626953,28.981598309326174Q15.043863426269532,29.14719830932617,15.043863426269532,29.315998309326172Q15.043863426269532,29.40029830932617,15.052121426269531,29.48409830932617Q15.060379426269531,29.56799830932617,15.07681642626953,29.65059830932617Q15.09325342626953,29.733198309326173,15.11771042626953,29.813898309326174Q15.14216742626953,29.89449830932617,15.17440942626953,29.97229830932617Q15.20665142626953,30.050198309326174,15.246368426269532,30.12449830932617Q15.28608442626953,30.198798309326172,15.332892426269531,30.268798309326172Q15.379700426269531,30.338898309326172,15.433150426269531,30.403998309326173Q15.486599426269532,30.46909830932617,15.54617442626953,30.52869830932617Q15.60575042626953,30.588298309326174,15.670878426269532,30.641698309326173Q15.736009426269531,30.695198309326173,15.806059426269531,30.74199830932617Q15.876109426269531,30.78879830932617,15.950419426269532,30.82849830932617Q16.02471942626953,30.86819830932617,16.102559426269533,30.90049830932617Q16.18039942626953,30.93269830932617,16.26102942626953,30.957198309326174Q16.34164942626953,30.981598309326174,16.424279426269532,30.99809830932617Q16.50691942626953,31.01449830932617,16.590759426269532,31.022798309326173Q16.67460942626953,31.030998309326172,16.75885942626953,31.030998309326172Q16.92785942626953,31.030998309326172,17.09360942626953,30.99799830932617Q17.25934942626953,30.965098309326173,17.41547942626953,30.90039830932617Q17.571599426269533,30.835698309326173,17.712079426269533,30.74169830932617Q17.852569426269532,30.647798309326173,17.972029426269533,30.52819830932617L17.97261942626953,30.52879830932617Q22.07719942626953,26.421098309326172,21.541679426269532,22.795798309326173Q21.321299426269533,21.303898309326172,20.305159426269533,19.80682830932617Q19.76254942626953,19.00737830932617,18.50211942626953,17.60824830932617Q17.50588942626953,16.50240830932617,17.12730942626953,15.970518309326172Q16.600239426269532,15.229998309326172,16.464809426269532,14.641438309326173Q16.13961942626953,13.228088309326171,18.023839426269532,11.172088309326172L18.02321942626953,11.171518309326173Z" fill-rule="evenodd" fill="#FFFFFF" fill-opacity="1"/></g><g style="opacity:0.4000000059604645;"><path d="M27.63253339111328,11.171518309326173Q27.74029339111328,11.053938309326172,27.824513391113282,10.918505309326171Q27.90874339111328,10.783072309326172,27.96655339111328,10.634431309326171Q28.024363391113283,10.485790309326172,28.053773391113282,10.329037309326171Q28.08317339111328,10.172285309326172,28.08317339111328,10.012798309326172Q28.08317339111328,9.928545809326172,28.07492339111328,9.844699309326172Q28.06666339111328,9.760852309326172,28.05022339111328,9.678218309326171Q28.033783391113282,9.595585309326172,28.00933339111328,9.514960309326172Q27.984873391113283,9.434335309326173,27.95263339111328,9.356496309326172Q27.92038339111328,9.278657309326173,27.88067339111328,9.204353309326171Q27.84095339111328,9.130049309326171,27.79414339111328,9.059995309326172Q27.747343391113283,8.989938309326172,27.69389339111328,8.924818309326172Q27.64044339111328,8.859688309326172,27.580863391113283,8.800108309326172Q27.521293391113282,8.740538309326173,27.456163391113282,8.687088309326171Q27.391033391113282,8.633638309326171,27.32098339111328,8.586828309326172Q27.250923391113282,8.540018309326172,27.17662339111328,8.500308309326172Q27.10232339111328,8.460588309326171,27.024483391113282,8.428348309326172Q26.94664339111328,8.396098309326172,26.86601339111328,8.371648309326172Q26.78539339111328,8.347188309326171,26.70275339111328,8.330748309326172Q26.62012339111328,8.314318309326172,26.53627339111328,8.306058309326172Q26.45243339111328,8.297798309326172,26.36817339111328,8.297798309326172Q26.189833391113282,8.297798309326172,26.015293391113282,8.334498309326172Q25.84076339111328,8.371188309326172,25.677523391113283,8.443018309326172Q25.51427339111328,8.514838309326173,25.36929339111328,8.618718309326171Q25.22432339111328,8.722588309326172,25.10382439111328,8.854078309326171L25.10320539111328,8.853508309326171Q22.00011339111328,12.239488309326171,22.729823391113282,15.41091830932617Q23.018193391113282,16.664238309326173,23.94082339111328,17.96047830932617Q24.43366939111328,18.652908309326172,25.56178339111328,19.905148309326172Q26.66464339111328,21.12939830932617,27.075043391113283,21.73399830932617Q27.65045339111328,22.581798309326174,27.75614339111328,23.297298309326173Q28.03955339111328,25.21579830932617,25.154418391113282,28.10319830932617L25.15501539111328,28.103798309326173Q25.03568239111328,28.223198309326172,24.941927391113282,28.36359830932617Q24.84817239111328,28.50409830932617,24.78359539111328,28.659998309326173Q24.71901839111328,28.815998309326172,24.686097391113282,28.981598309326174Q24.65317739111328,29.14719830932617,24.65317739111328,29.315998309326172Q24.65317739111328,29.40029830932617,24.66143539111328,29.48409830932617Q24.66969339111328,29.56799830932617,24.68613039111328,29.65059830932617Q24.70256739111328,29.733198309326173,24.727024391113282,29.813898309326174Q24.75148139111328,29.89449830932617,24.78372339111328,29.97229830932617Q24.81596539111328,30.050198309326174,24.85568239111328,30.12449830932617Q24.895398391113282,30.198798309326172,24.94220639111328,30.268798309326172Q24.98901439111328,30.338898309326172,25.04246439111328,30.403998309326173Q25.09591339111328,30.46909830932617,25.15548839111328,30.52869830932617Q25.21506439111328,30.588298309326174,25.28019239111328,30.641698309326173Q25.345323391113283,30.695198309326173,25.41537339111328,30.74199830932617Q25.48542339111328,30.78879830932617,25.55973339111328,30.82849830932617Q25.63403339111328,30.86819830932617,25.711873391113283,30.90049830932617Q25.78971339111328,30.93269830932617,25.87034339111328,30.957198309326174Q25.95096339111328,30.981598309326174,26.033593391113282,30.99809830932617Q26.11623339111328,31.01449830932617,26.200073391113282,31.022798309326173Q26.28392339111328,31.030998309326172,26.36817339111328,31.030998309326172Q26.53717339111328,31.030998309326172,26.70292339111328,30.99799830932617Q26.86866339111328,30.965098309326173,27.02479339111328,30.90039830932617Q27.180913391113283,30.835698309326173,27.321393391113283,30.74169830932617Q27.461883391113282,30.647798309326173,27.581343391113283,30.52819830932617L27.58193339111328,30.52879830932617Q31.68651339111328,26.421098309326172,31.150993391113282,22.795798309326173Q30.930613391113283,21.303898309326172,29.914473391113283,19.80682830932617Q29.37186339111328,19.00737830932617,28.11143339111328,17.60824830932617Q27.11520339111328,16.50240830932617,26.73662339111328,15.970518309326172Q26.209553391113282,15.229998309326172,26.074123391113282,14.641438309326173Q25.74893339111328,13.228088309326171,27.633153391113282,11.172088309326172L27.63253339111328,11.171518309326173Z" fill-rule="evenodd" fill="#FFFFFF" fill-opacity="1"/></g></g></svg>