<svg xmlns="http://www.w3.org/2000/svg" xmlns:xlink="http://www.w3.org/1999/xlink" fill="none" version="1.1" width="44.203125" height="43.302734375" viewBox="0 0 44.203125 43.302734375"><g><g><path d="M13.7734,31.2083Q13.6934,31.1293,13.6214,31.0429Q13.5495,30.9565,13.4863,30.8634Q13.4232,30.7704,13.3694,30.6717Q13.3156,30.5729,13.2717,30.4694Q13.2278,30.3659,13.1942,30.2586Q13.1606,30.1512,13.1377,30.0412Q13.1147,29.9311,13.1026,29.8193Q13.0905,29.7075,13.0893,29.5951Q13.0882,29.4826,13.098,29.3706Q13.1078,29.2586,13.1285,29.1481Q13.1492,29.0376,13.1806,28.9296Q13.2119,28.8216,13.2537,28.7172Q13.2955,28.6128,13.3472,28.513Q13.399,28.4132,13.4602,28.3188Q13.5214,28.2245,13.5916,28.1367Q13.6617,28.0488,13.7401,27.9682L40.2546,0.696566L40.2668,0.68408Q40.426,0.522865,40.6135,0.395794Q40.801,0.268724,41.0097,0.180681Q41.2185,0.0926379,41.4404,0.0470063Q41.6622,0.00137468,41.8888,-0.0000921461Q42.1153,-0.00155897,42.3377,0.0411953Q42.5602,0.0839495,42.7701,0.169282Q42.9799,0.254614,43.1691,0.379245Q43.3582,0.503876,43.5194,0.663016Q43.5995,0.74201,43.6714,0.828433Q43.7433,0.914855,43.8065,1.00788Q43.8697,1.10091,43.9234,1.19966Q43.9772,1.2984,44.0211,1.40192Q44.065,1.50544,44.0986,1.61275Q44.1322,1.72006,44.1552,1.83014Q44.1781,1.94021,44.1903,2.052Q44.2024,2.16379,44.2035,2.27623Q44.2047,2.38866,44.1949,2.50068Q44.1851,2.61269,44.1644,2.72322Q44.1437,2.83374,44.1123,2.94172Q44.0809,3.04969,44.0391,3.1541Q43.9974,3.2585,43.9456,3.35833Q43.8939,3.45816,43.8326,3.55246Q43.7714,3.64677,43.7013,3.73465Q43.6311,3.82253,43.5527,3.90315L17.0383,31.1747L17.026,31.1872Q16.9467,31.2676,16.8598,31.3399Q16.7729,31.4121,16.6794,31.4755Q16.5858,31.5389,16.4865,31.5928Q16.3872,31.6467,16.2831,31.6906Q16.179,31.7345,16.0711,31.768Q15.9632,31.8015,15.8525,31.8243Q15.7418,31.8471,15.6294,31.8589Q15.5171,31.8707,15.4041,31.8714Q15.2911,31.8721,15.1786,31.8618Q15.0661,31.8514,14.9551,31.8301Q14.8441,31.8088,14.7358,31.7767Q14.6275,31.7446,14.5228,31.702Q14.4181,31.6595,14.3181,31.6068Q14.2181,31.5542,14.1238,31.4921Q14.0294,31.4299,13.9416,31.3588Q13.8538,31.2877,13.7734,31.2083ZM8,9.28477L28.9759,9.28477L32.2577,5.90921Q31.9458,5.88477,31.6328,5.88477L8,5.88477Q7.80361,5.88477,7.60746,5.8944Q7.41131,5.90404,7.21586,5.92329Q7.02042,5.94254,6.82616,5.97135Q6.63189,6.00017,6.43928,6.03848Q6.24666,6.0768,6.05616,6.12452Q5.86565,6.17223,5.67772,6.22924Q5.48979,6.28625,5.30488,6.35241Q5.11997,6.41857,4.93853,6.49373Q4.75709,6.56888,4.57956,6.65285Q4.40203,6.73682,4.22883,6.8294Q4.05563,6.92197,3.88718,7.02294Q3.71873,7.1239,3.55544,7.23301Q3.39215,7.34212,3.23441,7.45911Q3.07666,7.57609,2.92485,7.70068Q2.77304,7.82527,2.62753,7.95716Q2.48201,8.08904,2.34315,8.22791Q2.20428,8.36678,2.07239,8.51229Q1.9405,8.65781,1.81592,8.80962Q1.69133,8.96143,1.57434,9.11917Q1.45735,9.27691,1.34824,9.4402Q1.23914,9.6035,1.13817,9.77194Q1.03721,9.94039,0.94463,10.1136Q0.852053,10.2868,0.768086,10.4643Q0.684118,10.6419,0.608964,10.8233Q0.533809,11.0047,0.467647,11.1896Q0.401486,11.3746,0.344477,11.5625Q0.287469,11.7504,0.23975,11.9409Q0.192031,12.1314,0.153718,12.324Q0.115404,12.5167,0.0865879,12.7109Q0.0577717,12.9052,0.0385222,13.1006Q0.0192727,13.2961,0.00963635,13.4922Q0,13.6884,0,13.8848L0,35.3027Q0,35.4991,0.00963635,35.6953Q0.0192727,35.8914,0.0385222,36.0869Q0.0577717,36.2823,0.0865879,36.4766Q0.115404,36.6708,0.153718,36.8635Q0.192031,37.0561,0.23975,37.2466Q0.287469,37.4371,0.344477,37.625Q0.401486,37.8129,0.467647,37.9979Q0.533809,38.1828,0.608964,38.3642Q0.684118,38.5456,0.768086,38.7232Q0.852053,38.9007,0.94463,39.0739Q1.03721,39.2471,1.13817,39.4156Q1.23914,39.584,1.34824,39.7473Q1.45735,39.9106,1.57434,40.0683Q1.69133,40.2261,1.81592,40.3779Q1.9405,40.5297,2.07239,40.6752Q2.20428,40.8207,2.34315,40.9596Q2.48201,41.0985,2.62753,41.2303Q2.77304,41.3622,2.92485,41.4868Q3.07666,41.6114,3.23441,41.7284Q3.39215,41.8454,3.55544,41.9545Q3.71873,42.0636,3.88718,42.1646Q4.05563,42.2655,4.22883,42.3581Q4.40203,42.4507,4.57956,42.5346Q4.75709,42.6186,4.93853,42.6938Q5.11997,42.7689,5.30488,42.8351Q5.48979,42.9012,5.67772,42.9583Q5.86565,43.0153,6.05616,43.063Q6.24666,43.1107,6.43928,43.149Q6.63189,43.1873,6.82616,43.2161Q7.02042,43.245,7.21586,43.2642Q7.41131,43.2835,7.60746,43.2931Q7.80361,43.3027,8,43.3027L31.6328,43.3027Q31.8292,43.3027,32.0253,43.2931Q32.2215,43.2835,32.4169,43.2642Q32.6124,43.245,32.8066,43.2162Q33.0009,43.1873,33.1935,43.149Q33.3861,43.1107,33.5766,43.063Q33.7671,43.0153,33.9551,42.9583Q34.143,42.9012,34.3279,42.8351Q34.5128,42.7689,34.6943,42.6938Q34.8757,42.6186,35.0532,42.5346Q35.2308,42.4507,35.404,42.3581Q35.5772,42.2655,35.7456,42.1646Q35.9141,42.0636,36.0774,41.9545Q36.2407,41.8454,36.3984,41.7284Q36.5561,41.6114,36.708,41.4868Q36.8598,41.3622,37.0053,41.2303Q37.1508,41.0985,37.2897,40.9596Q37.4285,40.8207,37.5604,40.6752Q37.6923,40.5297,37.8169,40.3779Q37.9415,40.2261,38.0585,40.0683Q38.1755,39.9106,38.2846,39.7473Q38.3937,39.584,38.4946,39.4156Q38.5956,39.2471,38.6882,39.0739Q38.7808,38.9007,38.8647,38.7232Q38.9487,38.5456,39.0238,38.3642Q39.099,38.1828,39.1652,37.9979Q39.2313,37.8129,39.2883,37.625Q39.3453,37.4371,39.3931,37.2466Q39.4408,37.0561,39.4791,36.8635Q39.5174,36.6708,39.5462,36.4766Q39.575,36.2823,39.5943,36.0869Q39.6135,35.8914,39.6232,35.6953Q39.6328,35.4991,39.6328,35.3027L39.6328,13.8848Q39.6328,12.5925,39.226,11.366L36.2328,14.4446L36.2328,35.3027Q36.2328,37.2081,34.8855,38.5554Q33.5382,39.9027,31.6328,39.9027L8,39.9027Q6.09462,39.9027,4.74731,38.5554Q3.4,37.2081,3.4,35.3027L3.4,13.8848Q3.4,11.9794,4.74731,10.6321Q6.09462,9.28477,8,9.28477Z" fill-rule="evenodd" fill="#FFFFFF" fill-opacity="1"/></g></g></svg>