<svg xmlns="http://www.w3.org/2000/svg" xmlns:xlink="http://www.w3.org/1999/xlink" fill="none" version="1.1" width="61.484375" height="57.2021484375" viewBox="0 0 61.484375 57.2021484375"><g transform="matrix(-1,0,0,1,122.96875,0)"><path d="M65.671835,0.0005266665L67.576145,0.0004904275L68.488635,0.00047016150000000004Q72.482275,0.00047016150000000004,76.139475,1.4181865625Q79.650475,2.7792565625,82.443475,5.2822565625Q85.204875,7.7569665625,86.888875,11.0084765625Q88.612475,14.3363765625,88.96837500000001,18.0226765625L84.872775,18.4179765625Q84.593275,15.5229765625,83.235175,12.9007765625Q81.89767499999999,10.3182765625,79.697375,8.3464465625Q77.463375,6.3444065625,74.652275,5.2546465625Q71.712675,4.1151065625,68.488725,4.1151065625L67.576225,4.1151265625L65.671915,4.1151665625L65.671835,0.0005266665ZM63.456235,6.9970565625Q66.398245,6.1618465625,69.415195,6.5202265625Q72.328475,6.8663065625,74.907575,8.2728265625Q77.489675,9.6810165625,79.339975,11.9357765625Q81.259475,14.2747765625,82.110275,17.1895765625L88.227175,38.1476765625Q88.419375,38.8058765625,88.96787499999999,39.2171765625Q89.516475,39.6285765625,90.202175,39.6285765625L107.91277500000001,39.6285765625Q110.968875,39.6285765625,113.763675,40.7943765625Q116.464475,41.9209765625,118.547375,43.9753765625Q120.633375,46.0325765625,121.778875,48.7034765625Q122.96667500000001,51.4733765625,122.96667500000001,54.5036765625Q122.96667500000001,55.6296765625,122.163675,56.4216765625Q121.372575,57.2018765625,120.259275,57.2018765625L104.970875,57.1997765625L79.912275,57.1997765625Q77.856375,57.1997765625,76.206675,55.9684765625Q74.551075,54.7327765625,73.974475,52.7568765625L61.597537,10.3473765625Q61.280915,9.2625865625,61.833865,8.2763865625Q62.379835,7.3026365625,63.456225,6.9970565625L63.456235,6.9970565625ZM77.924275,51.6041765625L65.972755,10.6520765625Q67.439955,10.4291765625,68.929825,10.6061765625Q71.055135,10.8585765625,72.937475,11.8851765625Q74.816775,12.9100765625,76.159275,14.5459765625Q77.545275,16.2349765625,78.160375,18.3423765625L84.277375,39.3004765625Q84.853675,41.2750765625,86.499375,42.5091765625Q88.145175,43.7431765625,90.202175,43.7431765625L107.91277500000001,43.7431765625Q110.14507499999999,43.7431765625,112.179575,44.5918765625Q114.143575,45.4111765625,115.658175,46.9048765625Q117.169775,48.3956765625,117.997275,50.3252765625Q118.570975,51.6628765625,118.759575,53.0870765625L104.970875,53.0850765625L79.912275,53.0850765625Q79.222675,53.0850765625,78.667775,52.6709765625Q78.115275,52.2585765625,77.924275,51.6041765625Z" fill-rule="evenodd" fill="#FFFFFF" fill-opacity="1"/></g></svg>