<svg xmlns="http://www.w3.org/2000/svg" xmlns:xlink="http://www.w3.org/1999/xlink" fill="none" version="1.1" width="61.484375" height="57.203125" viewBox="0 0 61.484375 57.203125"><g><g transform="matrix(-1,0,0,1,122.96468353271484,0)"><path d="M65.66980176635742,0.000056505062011718774L67.57411176635742,0.000020266062011718743L68.48660176635742,6.20117187851224e-11Q72.48024176635742,6.20117187851224e-11,76.13744176635743,1.4177164010620118Q79.64844176635742,2.778786401062012,82.44144176635743,5.2817864010620115Q85.20284176635742,7.756496401062011,86.88684176635742,11.008006401062012Q88.61044176635743,14.335906401062012,88.96634176635743,18.02220640106201L84.87074176635743,18.417506401062013Q84.59124176635743,15.522506401062012,83.23314176635742,12.900306401062013Q81.89564176635741,10.317806401062011,79.69534176635742,8.345976401062012Q77.46134176635742,6.343936401062011,74.65024176635742,5.254176401062011Q71.71064176635743,4.114636401062012,68.48669176635742,4.114636401062012L67.57419176635742,4.114656401062012L65.66988176635742,4.1146964010620115L65.66980176635742,0.000056505062011718774ZM63.45420176635742,6.997566401062012Q66.39621176635742,6.162356401062012,69.41316176635742,6.5207364010620115Q72.32644176635742,6.866816401062012,74.90554176635742,8.273336401062013Q77.48764176635743,9.681526401062012,79.33794176635742,11.936206401062012Q81.25744176635742,14.275306401062013,82.10824176635742,17.19010640106201L88.22514176635742,38.14810640106201Q88.41734176635742,38.80640640106201,88.96584176635741,39.21770640106201Q89.51444176635742,39.629006401062014,90.20014176635742,39.629006401062014L107.91074176635743,39.629006401062014Q110.96684176635742,39.629006401062014,113.76164176635743,40.794906401062015Q116.46244176635741,41.92150640106201,118.54534176635742,43.97580640106201Q120.63134176635742,46.033106401062014,121.77684176635742,48.70400640106201Q122.96464176635743,51.47390640106201,122.96464176635743,54.504206401062014Q122.96464176635743,55.63020640106201,122.16164176635742,56.42210640106201Q121.37054176635742,57.202406401062014,120.25724176635742,57.202406401062014L104.96884176635743,57.200306401062015L79.91024176635742,57.200306401062015Q77.85434176635742,57.200306401062015,76.20464176635743,55.968906401062014Q74.54904176635742,54.73320640106201,73.97244176635742,52.75740640106201L61.595503766357425,10.347906401062012Q61.27888176635742,9.263086401062012,61.831831766357425,8.276886401062011Q62.37780176635742,7.3031364010620115,63.454191766357425,6.997566401062012L63.45420176635742,6.997566401062012ZM77.92224176635742,51.60470640106201L65.97072176635743,10.652606401062013Q67.43792176635742,10.429706401062012,68.92779176635742,10.606606401062011Q71.05310176635743,10.85910640106201,72.93544176635743,11.885706401062011Q74.81474176635743,12.910606401062012,76.15724176635742,14.546506401062011Q77.54324176635743,16.23540640106201,78.15834176635742,18.342906401062013L84.27534176635743,39.30100640106201Q84.85164176635742,41.275606401062014,86.49734176635742,42.50960640106201Q88.14314176635742,43.74370640106201,90.20014176635742,43.74370640106201L107.91074176635743,43.74370640106201Q110.14304176635741,43.74370640106201,112.17754176635742,44.592406401062014Q114.14154176635742,45.41160640106201,115.65614176635742,46.90540640106201Q117.16774176635742,48.39620640106201,117.99524176635742,50.32580640106201Q118.56894176635743,51.66340640106201,118.75754176635742,53.087506401062015L104.96884176635743,53.08560640106201L79.91024176635742,53.08560640106201Q79.22064176635742,53.08560640106201,78.66574176635743,52.67150640106201Q78.11324176635742,52.25910640106201,77.92224176635742,51.60470640106201Z" fill-rule="evenodd" fill="#FFFFFF" fill-opacity="1"/></g><g><path d="M8.414534886474609,11.172133429260255Q8.52229488647461,11.054553429260254,8.60651488647461,10.919120429260254Q8.69074488647461,10.783687429260254,8.74855488647461,10.635046429260253Q8.80636488647461,10.486405429260254,8.83577488647461,10.329652429260253Q8.865174886474609,10.172900429260254,8.865174886474609,10.013413429260254Q8.865174886474609,9.929160929260254,8.856924886474609,9.845314429260254Q8.848664886474609,9.761467429260254,8.83222488647461,9.678833429260253Q8.81578488647461,9.596200429260254,8.791334886474608,9.515575429260254Q8.766874886474609,9.434950429260255,8.734634886474609,9.357111429260254Q8.70238488647461,9.279272429260255,8.662674886474608,9.204968429260253Q8.62295488647461,9.130664429260253,8.576144886474609,9.060610429260255Q8.52934488647461,8.990553429260254,8.47589488647461,8.925433429260254Q8.42244488647461,8.860303429260254,8.36286488647461,8.800723429260254Q8.30329488647461,8.741153429260255,8.23816488647461,8.687703429260253Q8.173034886474609,8.634253429260253,8.102984886474609,8.587443429260254Q8.032924886474609,8.540633429260254,7.95862488647461,8.500923429260254Q7.884324886474609,8.461203429260253,7.8064848864746095,8.428963429260254Q7.728644886474609,8.396713429260254,7.648014886474609,8.372263429260254Q7.5673948864746095,8.347803429260253,7.48475488647461,8.331363429260254Q7.40212488647461,8.314933429260254,7.31827488647461,8.306673429260254Q7.2344348864746095,8.298413429260254,7.150174886474609,8.298413429260254Q6.97183488647461,8.298413429260254,6.797294886474609,8.335113429260254Q6.622764886474609,8.371803429260254,6.459524886474609,8.443633429260254Q6.29627488647461,8.515453429260255,6.151294886474609,8.619333429260253Q6.0063248864746095,8.723203429260254,5.88582588647461,8.854693429260253L5.885206886474609,8.854123429260254Q2.7821148864746092,12.240103429260254,3.511824886474609,15.411533429260253Q3.8001948864746096,16.664853429260255,4.722824886474609,17.961093429260252Q5.2156708864746095,18.653523429260254,6.34378488647461,19.905763429260254Q7.446644886474609,21.130013429260252,7.857044886474609,21.734613429260254Q8.43245488647461,22.582413429260257,8.538144886474608,23.297913429260255Q8.821554886474608,25.216413429260253,5.936419886474609,28.103813429260253L5.937016886474609,28.104413429260255Q5.817683886474609,28.223813429260254,5.723928886474609,28.364213429260253Q5.630173886474609,28.504713429260253,5.5655968864746095,28.660613429260255Q5.50101988647461,28.816613429260254,5.46809888647461,28.982213429260256Q5.43517888647461,29.147813429260253,5.43517888647461,29.316613429260254Q5.43517888647461,29.400913429260253,5.443436886474609,29.484713429260253Q5.451694886474609,29.568613429260253,5.468131886474609,29.651213429260252Q5.48456888647461,29.733813429260255,5.50902588647461,29.814513429260256Q5.5334828864746095,29.895113429260253,5.56572488647461,29.972913429260252Q5.59796688647461,30.050813429260256,5.637683886474609,30.125113429260253Q5.67739988647461,30.199413429260254,5.724207886474609,30.269413429260254Q5.7710158864746095,30.339513429260254,5.824465886474609,30.404613429260255Q5.87791488647461,30.469713429260253,5.9374898864746095,30.529313429260252Q5.997065886474609,30.588913429260256,6.062193886474609,30.642313429260255Q6.127324886474609,30.695813429260255,6.197374886474609,30.742613429260253Q6.267424886474609,30.789413429260254,6.34173488647461,30.829113429260254Q6.416034886474609,30.868813429260253,6.493874886474609,30.901113429260253Q6.571714886474609,30.933313429260252,6.6523448864746095,30.957813429260256Q6.732964886474609,30.982213429260256,6.815594886474609,30.998713429260253Q6.89823488647461,31.015113429260253,6.982074886474609,31.023413429260255Q7.065924886474609,31.031613429260254,7.150174886474609,31.031613429260254Q7.31917488647461,31.031613429260254,7.484924886474609,30.998613429260253Q7.650664886474609,30.965713429260255,7.806794886474609,30.901013429260253Q7.962914886474609,30.836313429260255,8.103394886474609,30.742313429260253Q8.243884886474609,30.648413429260255,8.363344886474609,30.528813429260254L8.36393488647461,30.529413429260252Q12.468514886474608,26.421713429260254,11.93299488647461,22.796413429260255Q11.71261488647461,21.304513429260254,10.69647488647461,19.807443429260253Q10.15386488647461,19.007993429260253,8.893434886474608,17.608863429260253Q7.89720488647461,16.503023429260253,7.518624886474609,15.971133429260254Q6.991554886474609,15.230613429260254,6.85612488647461,14.642053429260255Q6.5309348864746095,13.228703429260253,8.41515488647461,11.172703429260254L8.414534886474609,11.172133429260255Z" fill-rule="evenodd" fill="#FFFFFF" fill-opacity="1"/></g><g><path d="M18.02397092163086,11.172133429260255Q18.131730921630858,11.054553429260254,18.21595092163086,10.919120429260254Q18.300180921630858,10.783687429260254,18.357990921630858,10.635046429260253Q18.41580092163086,10.486405429260254,18.44521092163086,10.329652429260253Q18.47461092163086,10.172900429260254,18.47461092163086,10.013413429260254Q18.47461092163086,9.929160929260254,18.46636092163086,9.845314429260254Q18.45810092163086,9.761467429260254,18.44166092163086,9.678833429260253Q18.42522092163086,9.596200429260254,18.40077092163086,9.515575429260254Q18.37631092163086,9.434950429260255,18.34407092163086,9.357111429260254Q18.311820921630858,9.279272429260255,18.27211092163086,9.204968429260253Q18.23239092163086,9.130664429260253,18.18558092163086,9.060610429260255Q18.13878092163086,8.990553429260254,18.08533092163086,8.925433429260254Q18.031880921630858,8.860303429260254,17.97230092163086,8.800723429260254Q17.91273092163086,8.741153429260255,17.84760092163086,8.687703429260253Q17.78247092163086,8.634253429260253,17.71242092163086,8.587443429260254Q17.64236092163086,8.540633429260254,17.56806092163086,8.500923429260254Q17.49376092163086,8.461203429260253,17.41592092163086,8.428963429260254Q17.33808092163086,8.396713429260254,17.25745092163086,8.372263429260254Q17.17683092163086,8.347803429260253,17.094190921630858,8.331363429260254Q17.01156092163086,8.314933429260254,16.927710921630858,8.306673429260254Q16.84387092163086,8.298413429260254,16.75961092163086,8.298413429260254Q16.58127092163086,8.298413429260254,16.40673092163086,8.335113429260254Q16.23220092163086,8.371803429260254,16.06896092163086,8.443633429260254Q15.90571092163086,8.515453429260255,15.76073092163086,8.619333429260253Q15.615760921630859,8.723203429260254,15.49526192163086,8.854693429260253L15.49464292163086,8.854123429260254Q12.39155092163086,12.240103429260254,13.12126092163086,15.411533429260253Q13.409630921630859,16.664853429260255,14.332260921630859,17.961093429260252Q14.825106921630859,18.653523429260254,15.953220921630859,19.905763429260254Q17.05608092163086,21.130013429260252,17.46648092163086,21.734613429260254Q18.04189092163086,22.582413429260257,18.14758092163086,23.297913429260255Q18.43099092163086,25.216413429260253,15.54585592163086,28.103813429260253L15.54645292163086,28.104413429260255Q15.42711992163086,28.223813429260254,15.33336492163086,28.364213429260253Q15.239609921630858,28.504713429260253,15.175032921630859,28.660613429260255Q15.110455921630859,28.816613429260254,15.077534921630859,28.982213429260256Q15.04461492163086,29.147813429260253,15.04461492163086,29.316613429260254Q15.04461492163086,29.400913429260253,15.05287292163086,29.484713429260253Q15.061130921630859,29.568613429260253,15.077567921630859,29.651213429260252Q15.094004921630859,29.733813429260255,15.118461921630859,29.814513429260256Q15.142918921630859,29.895113429260253,15.175160921630859,29.972913429260252Q15.207402921630859,30.050813429260256,15.24711992163086,30.125113429260253Q15.286835921630859,30.199413429260254,15.333643921630859,30.269413429260254Q15.38045192163086,30.339513429260254,15.43390192163086,30.404613429260255Q15.48735092163086,30.469713429260253,15.546925921630859,30.529313429260252Q15.606501921630858,30.588913429260256,15.67162992163086,30.642313429260255Q15.736760921630859,30.695813429260255,15.80681092163086,30.742613429260253Q15.87686092163086,30.789413429260254,15.95117092163086,30.829113429260254Q16.02547092163086,30.868813429260253,16.10331092163086,30.901113429260253Q16.18115092163086,30.933313429260252,16.26178092163086,30.957813429260256Q16.34240092163086,30.982213429260256,16.42503092163086,30.998713429260253Q16.507670921630858,31.015113429260253,16.59151092163086,31.023413429260255Q16.67536092163086,31.031613429260254,16.75961092163086,31.031613429260254Q16.92861092163086,31.031613429260254,17.09436092163086,30.998613429260253Q17.26010092163086,30.965713429260255,17.41623092163086,30.901013429260253Q17.57235092163086,30.836313429260255,17.71283092163086,30.742313429260253Q17.85332092163086,30.648413429260255,17.97278092163086,30.528813429260254L17.97337092163086,30.529413429260252Q22.07795092163086,26.421713429260254,21.54243092163086,22.796413429260255Q21.32205092163086,21.304513429260254,20.30591092163086,19.807443429260253Q19.763300921630858,19.007993429260253,18.50287092163086,17.608863429260253Q17.506640921630858,16.503023429260253,17.12806092163086,15.971133429260254Q16.60099092163086,15.230613429260254,16.46556092163086,14.642053429260255Q16.140370921630858,13.228703429260253,18.02459092163086,11.172703429260254L18.02397092163086,11.172133429260255Z" fill-rule="evenodd" fill="#FFFFFF" fill-opacity="1"/></g><g><path d="M27.63328488647461,11.172133429260255Q27.741044886474608,11.054553429260254,27.82526488647461,10.919120429260254Q27.909494886474608,10.783687429260254,27.967304886474608,10.635046429260253Q28.02511488647461,10.486405429260254,28.05452488647461,10.329652429260253Q28.08392488647461,10.172900429260254,28.08392488647461,10.013413429260254Q28.08392488647461,9.929160929260254,28.07567488647461,9.845314429260254Q28.06741488647461,9.761467429260254,28.05097488647461,9.678833429260253Q28.03453488647461,9.596200429260254,28.01008488647461,9.515575429260254Q27.98562488647461,9.434950429260255,27.95338488647461,9.357111429260254Q27.921134886474608,9.279272429260255,27.88142488647461,9.204968429260253Q27.84170488647461,9.130664429260253,27.79489488647461,9.060610429260255Q27.74809488647461,8.990553429260254,27.69464488647461,8.925433429260254Q27.641194886474608,8.860303429260254,27.58161488647461,8.800723429260254Q27.52204488647461,8.741153429260255,27.45691488647461,8.687703429260253Q27.39178488647461,8.634253429260253,27.32173488647461,8.587443429260254Q27.25167488647461,8.540633429260254,27.17737488647461,8.500923429260254Q27.10307488647461,8.461203429260253,27.02523488647461,8.428963429260254Q26.94739488647461,8.396713429260254,26.86676488647461,8.372263429260254Q26.78614488647461,8.347803429260253,26.703504886474608,8.331363429260254Q26.62087488647461,8.314933429260254,26.537024886474608,8.306673429260254Q26.45318488647461,8.298413429260254,26.36892488647461,8.298413429260254Q26.19058488647461,8.298413429260254,26.01604488647461,8.335113429260254Q25.84151488647461,8.371803429260254,25.67827488647461,8.443633429260254Q25.51502488647461,8.515453429260255,25.37004488647461,8.619333429260253Q25.22507488647461,8.723203429260254,25.10457588647461,8.854693429260253L25.10395688647461,8.854123429260254Q22.00086488647461,12.240103429260254,22.73057488647461,15.411533429260253Q23.01894488647461,16.664853429260255,23.94157488647461,17.961093429260252Q24.43442088647461,18.653523429260254,25.56253488647461,19.905763429260254Q26.66539488647461,21.130013429260252,27.07579488647461,21.734613429260254Q27.65120488647461,22.582413429260257,27.75689488647461,23.297913429260255Q28.04030488647461,25.216413429260253,25.15516988647461,28.103813429260253L25.15576688647461,28.104413429260255Q25.036433886474608,28.223813429260254,24.94267888647461,28.364213429260253Q24.84892388647461,28.504713429260253,24.78434688647461,28.660613429260255Q24.71976988647461,28.816613429260254,24.68684888647461,28.982213429260256Q24.65392888647461,29.147813429260253,24.65392888647461,29.316613429260254Q24.65392888647461,29.400913429260253,24.662186886474608,29.484713429260253Q24.67044488647461,29.568613429260253,24.68688188647461,29.651213429260252Q24.70331888647461,29.733813429260255,24.72777588647461,29.814513429260256Q24.75223288647461,29.895113429260253,24.78447488647461,29.972913429260252Q24.81671688647461,30.050813429260256,24.85643388647461,30.125113429260253Q24.89614988647461,30.199413429260254,24.94295788647461,30.269413429260254Q24.989765886474608,30.339513429260254,25.04321588647461,30.404613429260255Q25.09666488647461,30.469713429260253,25.15623988647461,30.529313429260252Q25.21581588647461,30.588913429260256,25.28094388647461,30.642313429260255Q25.34607488647461,30.695813429260255,25.41612488647461,30.742613429260253Q25.486174886474608,30.789413429260254,25.560484886474608,30.829113429260254Q25.63478488647461,30.868813429260253,25.71262488647461,30.901113429260253Q25.79046488647461,30.933313429260252,25.87109488647461,30.957813429260256Q25.95171488647461,30.982213429260256,26.03434488647461,30.998713429260253Q26.116984886474608,31.015113429260253,26.20082488647461,31.023413429260255Q26.28467488647461,31.031613429260254,26.36892488647461,31.031613429260254Q26.53792488647461,31.031613429260254,26.70367488647461,30.998613429260253Q26.86941488647461,30.965713429260255,27.02554488647461,30.901013429260253Q27.18166488647461,30.836313429260255,27.32214488647461,30.742313429260253Q27.46263488647461,30.648413429260255,27.58209488647461,30.528813429260254L27.58268488647461,30.529413429260252Q31.68726488647461,26.421713429260254,31.15174488647461,22.796413429260255Q30.93136488647461,21.304513429260254,29.91522488647461,19.807443429260253Q29.372614886474608,19.007993429260253,28.11218488647461,17.608863429260253Q27.115954886474608,16.503023429260253,26.73737488647461,15.971133429260254Q26.21030488647461,15.230613429260254,26.07487488647461,14.642053429260255Q25.749684886474608,13.228703429260253,27.63390488647461,11.172703429260254L27.63328488647461,11.172133429260255Z" fill-rule="evenodd" fill="#FFFFFF" fill-opacity="1"/></g></g></svg>