<svg xmlns="http://www.w3.org/2000/svg" xmlns:xlink="http://www.w3.org/1999/xlink" fill="none" version="1.1" width="61.4921875" height="57.203125" viewBox="0 0 61.4921875 57.203125"><g><g transform="matrix(-1,0,0,1,122.98031616210938,0)"><path d="M65.68542808105468,0.000053644039062500024L67.58973808105469,0.000017405039062499993L68.50222808105468,-0.000002860960937499965Q72.49585808105469,-0.000002860960937499965,76.1530580810547,1.4177135400390626Q79.6641580810547,2.7787835400390626,82.45705808105468,5.281783540039062Q85.21845808105469,7.756493540039062,86.90245808105469,11.008003540039063Q88.62615808105468,14.335903540039062,88.98195808105469,18.02220354003906L84.88635808105468,18.417503540039064Q84.6068580810547,15.522503540039063,83.24885808105469,12.900303540039063Q81.91125808105468,10.317803540039062,79.71095808105468,8.345973540039063Q77.4770580810547,6.343933540039062,74.6658580810547,5.254173540039062Q71.72625808105468,4.114633540039063,68.50231808105468,4.114633540039063L67.58981808105469,4.114653540039063L65.68550808105469,4.114693540039062L65.68542808105468,0.000053644039062500024ZM63.469828081054686,6.997563540039063Q66.41184808105469,6.162353540039063,69.42878808105469,6.520733540039062Q72.34205808105469,6.866813540039063,74.92115808105468,8.273333540039063Q77.5032580810547,9.681523540039063,79.35355808105469,11.936203540039063Q81.27315808105469,14.275303540039063,82.12385808105469,17.19010354003906L88.24085808105468,38.14810354003906Q88.4329580810547,38.806403540039064,88.98145808105468,39.21770354003906Q89.53005808105469,39.629003540039065,90.21575808105469,39.629003540039065L107.92635808105469,39.629003540039065Q110.98245808105469,39.629003540039065,113.7772580810547,40.794903540039066Q116.47805808105468,41.92150354003906,118.56095808105468,43.97580354003906Q120.64695808105469,46.033103540039065,121.79245808105469,48.70400354003906Q122.98035808105469,51.47390354003906,122.98035808105469,54.504203540039065Q122.98035808105469,55.63020354003906,122.17725808105469,56.42210354003906Q121.38615808105469,57.202403540039064,120.2728580810547,57.202403540039064L104.9844580810547,57.200303540039066L79.92585808105468,57.200303540039066Q77.86995808105469,57.200303540039066,76.22025808105468,55.968903540039065Q74.56465808105469,54.733203540039064,73.98805808105469,52.757403540039064L61.611132081054684,10.347903540039063Q61.29451108105469,9.263083540039062,61.84746108105469,8.276883540039062Q62.393431081054686,7.303133540039062,63.46981808105469,6.997563540039063L63.469828081054686,6.997563540039063ZM77.93785808105469,51.60470354003906L65.98634808105469,10.652603540039063Q67.4535580810547,10.429703540039062,68.94341808105469,10.606603540039062Q71.06872808105469,10.859103540039062,72.95105808105468,11.885703540039062Q74.83035808105468,12.910603540039062,76.17285808105468,14.546503540039062Q77.5588580810547,16.235403540039062,78.17395808105469,18.342903540039064L84.29095808105468,39.30100354003906Q84.86725808105469,41.275603540039064,86.51305808105468,42.50960354003906Q88.15875808105469,43.743703540039064,90.21575808105469,43.743703540039064L107.92635808105469,43.743703540039064Q110.15865808105468,43.743703540039064,112.19315808105469,44.592403540039065Q114.15715808105469,45.41160354003906,115.67175808105469,46.90540354003906Q117.18335808105468,48.39620354003906,118.01085808105469,50.32580354003906Q118.5845580810547,51.66340354003906,118.77325808105468,53.087503540039066L104.9844580810547,53.08560354003906L79.92585808105468,53.08560354003906Q79.23625808105469,53.08560354003906,78.68135808105468,52.67150354003906Q78.12885808105469,52.259103540039064,77.93785808105469,51.60470354003906Z" fill-rule="evenodd" fill="#FFFFFF" fill-opacity="1"/></g><g><path d="M8.416598637695312,11.171949370117188Q8.524358637695313,11.054369370117188,8.608578637695313,10.918936370117187Q8.692808637695313,10.783503370117188,8.750618637695313,10.634862370117187Q8.808428637695313,10.486221370117187,8.837838637695313,10.329468370117187Q8.867238637695312,10.172716370117188,8.867238637695312,10.013229370117188Q8.867238637695312,9.928976870117188,8.858988637695312,9.845130370117188Q8.850728637695312,9.761283370117187,8.834288637695312,9.678649370117187Q8.817848637695313,9.596016370117187,8.793398637695311,9.515391370117188Q8.768938637695312,9.434766370117188,8.736698637695312,9.356927370117187Q8.704448637695313,9.279088370117188,8.664738637695311,9.204784370117187Q8.625018637695312,9.130480370117187,8.578208637695312,9.060426370117188Q8.531408637695312,8.990369370117188,8.477958637695313,8.925249370117188Q8.424508637695313,8.860119370117188,8.364928637695312,8.800539370117187Q8.305358637695313,8.740969370117188,8.240228637695314,8.687519370117187Q8.175098637695312,8.634069370117187,8.105048637695312,8.587259370117188Q8.034988637695312,8.540449370117187,7.960688637695313,8.500739370117188Q7.886388637695312,8.461019370117187,7.808548637695313,8.428779370117187Q7.7307086376953125,8.396529370117188,7.650078637695312,8.372079370117188Q7.569458637695313,8.347619370117187,7.486818637695313,8.331179370117187Q7.404188637695313,8.314749370117188,7.320338637695313,8.306489370117188Q7.236498637695313,8.298229370117188,7.152238637695312,8.298229370117188Q6.973898637695313,8.298229370117188,6.799358637695312,8.334929370117187Q6.6248286376953125,8.371619370117187,6.461588637695312,8.443449370117188Q6.298338637695313,8.515269370117188,6.153358637695312,8.619149370117187Q6.008388637695313,8.723019370117187,5.887889637695313,8.854509370117187L5.887270637695313,8.853939370117187Q2.7841786376953124,12.239919370117187,3.5138886376953122,15.411349370117186Q3.8022586376953127,16.66466937011719,4.7248886376953125,17.960909370117186Q5.217734637695313,18.653339370117187,6.345848637695313,19.905579370117188Q7.448708637695312,21.129829370117186,7.8591086376953125,21.734429370117187Q8.434518637695312,22.58222937011719,8.540208637695311,23.29772937011719Q8.823618637695311,25.216229370117187,5.938483637695312,28.103629370117186L5.939080637695312,28.10422937011719Q5.819747637695312,28.223629370117187,5.725992637695312,28.364029370117187Q5.6322376376953125,28.504529370117186,5.567660637695313,28.66042937011719Q5.503083637695313,28.816429370117188,5.470162637695313,28.98202937011719Q5.437242637695313,29.147629370117187,5.437242637695313,29.316429370117188Q5.437242637695313,29.400729370117187,5.445500637695313,29.484529370117187Q5.453758637695312,29.568429370117187,5.470195637695312,29.651029370117186Q5.486632637695313,29.73362937011719,5.511089637695313,29.81432937011719Q5.535546637695313,29.894929370117186,5.567788637695313,29.972729370117186Q5.600030637695313,30.05062937011719,5.639747637695312,30.124929370117187Q5.679463637695313,30.199229370117187,5.726271637695312,30.269229370117188Q5.773079637695313,30.339329370117188,5.826529637695312,30.40442937011719Q5.879978637695313,30.469529370117186,5.939553637695313,30.529129370117186Q5.9991296376953125,30.58872937011719,6.064257637695312,30.64212937011719Q6.129388637695312,30.69562937011719,6.199438637695312,30.742429370117186Q6.2694886376953125,30.789229370117187,6.343798637695313,30.828929370117187Q6.418098637695312,30.868629370117187,6.495938637695312,30.900929370117186Q6.5737786376953125,30.933129370117186,6.654408637695313,30.95762937011719Q6.735028637695312,30.98202937011719,6.817658637695312,30.998529370117186Q6.900298637695313,31.014929370117187,6.984138637695312,31.02322937011719Q7.067988637695312,31.031429370117188,7.152238637695312,31.031429370117188Q7.321238637695313,31.031429370117188,7.486988637695312,30.998429370117186Q7.652728637695312,30.96552937011719,7.808858637695312,30.900829370117187Q7.964978637695312,30.836129370117188,8.105458637695312,30.742129370117187Q8.245948637695312,30.64822937011719,8.365408637695312,30.528629370117187L8.365998637695313,30.529229370117186Q12.470578637695311,26.421529370117188,11.935058637695313,22.79622937011719Q11.714678637695313,21.304329370117188,10.698538637695313,19.807259370117187Q10.155928637695313,19.007809370117187,8.895498637695312,17.608679370117187Q7.899268637695313,16.502839370117186,7.520688637695312,15.970949370117188Q6.993618637695312,15.230429370117188,6.858188637695313,14.641869370117188Q6.532998637695313,13.228519370117187,8.417218637695314,11.172519370117188L8.416598637695312,11.171949370117188Z" fill-rule="evenodd" fill="#FFFFFF" fill-opacity="1"/></g><g style="opacity:0.4000000059604645;"><path d="M18.026034672851562,11.171949370117188Q18.13379467285156,11.054369370117188,18.218014672851563,10.918936370117187Q18.30224467285156,10.783503370117188,18.36005467285156,10.634862370117187Q18.417864672851564,10.486221370117187,18.447274672851563,10.329468370117187Q18.476674672851562,10.172716370117188,18.476674672851562,10.013229370117188Q18.476674672851562,9.928976870117188,18.46842467285156,9.845130370117188Q18.460164672851562,9.761283370117187,18.443724672851562,9.678649370117187Q18.427284672851563,9.596016370117187,18.40283467285156,9.515391370117188Q18.378374672851564,9.434766370117188,18.346134672851562,9.356927370117187Q18.31388467285156,9.279088370117188,18.27417467285156,9.204784370117187Q18.234454672851562,9.130480370117187,18.18764467285156,9.060426370117188Q18.140844672851564,8.990369370117188,18.087394672851563,8.925249370117188Q18.03394467285156,8.860119370117188,17.974364672851564,8.800539370117187Q17.914794672851563,8.740969370117188,17.849664672851564,8.687519370117187Q17.784534672851564,8.634069370117187,17.71448467285156,8.587259370117188Q17.644424672851564,8.540449370117187,17.570124672851563,8.500739370117188Q17.495824672851562,8.461019370117187,17.417984672851563,8.428779370117187Q17.34014467285156,8.396529370117188,17.259514672851562,8.372079370117188Q17.178894672851563,8.347619370117187,17.09625467285156,8.331179370117187Q17.013624672851563,8.314749370117188,16.92977467285156,8.306489370117188Q16.845934672851563,8.298229370117188,16.761674672851562,8.298229370117188Q16.583334672851564,8.298229370117188,16.408794672851563,8.334929370117187Q16.234264672851562,8.371619370117187,16.071024672851564,8.443449370117188Q15.907774672851563,8.515269370117188,15.762794672851562,8.619149370117187Q15.617824672851562,8.723019370117187,15.497325672851563,8.854509370117187L15.496706672851563,8.853939370117187Q12.393614672851562,12.239919370117187,13.123324672851563,15.411349370117186Q13.411694672851562,16.66466937011719,14.334324672851562,17.960909370117186Q14.827170672851562,18.653339370117187,15.955284672851562,19.905579370117188Q17.05814467285156,21.129829370117186,17.468544672851564,21.734429370117187Q18.043954672851562,22.58222937011719,18.14964467285156,23.29772937011719Q18.43305467285156,25.216229370117187,15.547919672851563,28.103629370117186L15.548516672851562,28.10422937011719Q15.429183672851563,28.223629370117187,15.335428672851563,28.364029370117187Q15.241673672851562,28.504529370117186,15.177096672851562,28.66042937011719Q15.112519672851562,28.816429370117188,15.079598672851562,28.98202937011719Q15.046678672851563,29.147629370117187,15.046678672851563,29.316429370117188Q15.046678672851563,29.400729370117187,15.054936672851563,29.484529370117187Q15.063194672851562,29.568429370117187,15.079631672851562,29.651029370117186Q15.096068672851562,29.73362937011719,15.120525672851562,29.81432937011719Q15.144982672851562,29.894929370117186,15.177224672851562,29.972729370117186Q15.209466672851562,30.05062937011719,15.249183672851563,30.124929370117187Q15.288899672851562,30.199229370117187,15.335707672851562,30.269229370117188Q15.382515672851563,30.339329370117188,15.435965672851562,30.40442937011719Q15.489414672851563,30.469529370117186,15.548989672851562,30.529129370117186Q15.608565672851562,30.58872937011719,15.673693672851563,30.64212937011719Q15.738824672851562,30.69562937011719,15.808874672851562,30.742429370117186Q15.878924672851563,30.789229370117187,15.953234672851563,30.828929370117187Q16.027534672851562,30.868629370117187,16.105374672851564,30.900929370117186Q16.183214672851562,30.933129370117186,16.26384467285156,30.95762937011719Q16.34446467285156,30.98202937011719,16.427094672851563,30.998529370117186Q16.50973467285156,31.014929370117187,16.593574672851563,31.02322937011719Q16.67742467285156,31.031429370117188,16.761674672851562,31.031429370117188Q16.930674672851563,31.031429370117188,17.096424672851562,30.998429370117186Q17.26216467285156,30.96552937011719,17.418294672851562,30.900829370117187Q17.574414672851564,30.836129370117188,17.714894672851564,30.742129370117187Q17.855384672851564,30.64822937011719,17.974844672851564,30.528629370117187L17.975434672851563,30.529229370117186Q22.08001467285156,26.421529370117188,21.544494672851563,22.79622937011719Q21.324114672851564,21.304329370117188,20.307974672851564,19.807259370117187Q19.76536467285156,19.007809370117187,18.50493467285156,17.608679370117187Q17.50870467285156,16.502839370117186,17.13012467285156,15.970949370117188Q16.603054672851563,15.230429370117188,16.467624672851564,14.641869370117188Q16.14243467285156,13.228519370117187,18.026654672851564,11.172519370117188L18.026034672851562,11.171949370117188Z" fill-rule="evenodd" fill="#FFFFFF" fill-opacity="1"/></g><g style="opacity:0.4000000059604645;"><path d="M27.635348637695312,11.171949370117188Q27.74310863769531,11.054369370117188,27.827328637695313,10.918936370117187Q27.91155863769531,10.783503370117188,27.96936863769531,10.634862370117187Q28.027178637695314,10.486221370117187,28.056588637695313,10.329468370117187Q28.085988637695312,10.172716370117188,28.085988637695312,10.013229370117188Q28.085988637695312,9.928976870117188,28.07773863769531,9.845130370117188Q28.069478637695312,9.761283370117187,28.053038637695312,9.678649370117187Q28.036598637695313,9.596016370117187,28.01214863769531,9.515391370117188Q27.987688637695314,9.434766370117188,27.955448637695312,9.356927370117187Q27.92319863769531,9.279088370117188,27.88348863769531,9.204784370117187Q27.843768637695312,9.130480370117187,27.79695863769531,9.060426370117188Q27.750158637695314,8.990369370117188,27.696708637695313,8.925249370117188Q27.64325863769531,8.860119370117188,27.583678637695314,8.800539370117187Q27.524108637695313,8.740969370117188,27.458978637695314,8.687519370117187Q27.393848637695314,8.634069370117187,27.32379863769531,8.587259370117188Q27.253738637695314,8.540449370117187,27.179438637695313,8.500739370117188Q27.105138637695312,8.461019370117187,27.027298637695313,8.428779370117187Q26.94945863769531,8.396529370117188,26.868828637695312,8.372079370117188Q26.788208637695313,8.347619370117187,26.70556863769531,8.331179370117187Q26.622938637695313,8.314749370117188,26.53908863769531,8.306489370117188Q26.455248637695313,8.298229370117188,26.370988637695312,8.298229370117188Q26.192648637695314,8.298229370117188,26.018108637695313,8.334929370117187Q25.843578637695312,8.371619370117187,25.680338637695314,8.443449370117188Q25.517088637695313,8.515269370117188,25.372108637695312,8.619149370117187Q25.22713863769531,8.723019370117187,25.106639637695313,8.854509370117187L25.106020637695313,8.853939370117187Q22.002928637695312,12.239919370117187,22.732638637695313,15.411349370117186Q23.021008637695314,16.66466937011719,23.94363863769531,17.960909370117186Q24.43648463769531,18.653339370117187,25.564598637695312,19.905579370117188Q26.66745863769531,21.129829370117186,27.077858637695314,21.734429370117187Q27.653268637695312,22.58222937011719,27.75895863769531,23.29772937011719Q28.04236863769531,25.216229370117187,25.157233637695313,28.103629370117186L25.157830637695312,28.10422937011719Q25.03849763769531,28.223629370117187,24.944742637695313,28.364029370117187Q24.85098763769531,28.504529370117186,24.78641063769531,28.66042937011719Q24.721833637695312,28.816429370117188,24.688912637695314,28.98202937011719Q24.655992637695313,29.147629370117187,24.655992637695313,29.316429370117188Q24.655992637695313,29.400729370117187,24.66425063769531,29.484529370117187Q24.672508637695312,29.568429370117187,24.688945637695312,29.651029370117186Q24.705382637695312,29.73362937011719,24.729839637695314,29.81432937011719Q24.75429663769531,29.894929370117186,24.786538637695312,29.972729370117186Q24.818780637695312,30.05062937011719,24.85849763769531,30.124929370117187Q24.898213637695314,30.199229370117187,24.945021637695312,30.269229370117188Q24.99182963769531,30.339329370117188,25.045279637695312,30.40442937011719Q25.098728637695313,30.469529370117186,25.15830363769531,30.529129370117186Q25.21787963769531,30.58872937011719,25.283007637695313,30.64212937011719Q25.348138637695314,30.69562937011719,25.418188637695312,30.742429370117186Q25.48823863769531,30.789229370117187,25.56254863769531,30.828929370117187Q25.636848637695312,30.868629370117187,25.714688637695314,30.900929370117186Q25.792528637695312,30.933129370117186,25.87315863769531,30.95762937011719Q25.95377863769531,30.98202937011719,26.036408637695313,30.998529370117186Q26.11904863769531,31.014929370117187,26.202888637695313,31.02322937011719Q26.28673863769531,31.031429370117188,26.370988637695312,31.031429370117188Q26.539988637695313,31.031429370117188,26.705738637695312,30.998429370117186Q26.87147863769531,30.96552937011719,27.027608637695312,30.900829370117187Q27.183728637695314,30.836129370117188,27.324208637695314,30.742129370117187Q27.464698637695314,30.64822937011719,27.584158637695314,30.528629370117187L27.584748637695313,30.529229370117186Q31.68932863769531,26.421529370117188,31.153808637695313,22.79622937011719Q30.933428637695314,21.304329370117188,29.917288637695314,19.807259370117187Q29.37467863769531,19.007809370117187,28.11424863769531,17.608679370117187Q27.11801863769531,16.502839370117186,26.73943863769531,15.970949370117188Q26.212368637695313,15.230429370117188,26.076938637695314,14.641869370117188Q25.75174863769531,13.228519370117187,27.635968637695314,11.172519370117188L27.635348637695312,11.171949370117188Z" fill-rule="evenodd" fill="#FFFFFF" fill-opacity="1"/></g></g></svg>