<svg xmlns="http://www.w3.org/2000/svg" xmlns:xlink="http://www.w3.org/1999/xlink" fill="none" version="1.1" width="34" height="36.3076171875" viewBox="0 0 34 36.3076171875"><g><g><path d="M17.1899,9.90917Q17.2546,9.94964,17.3273,9.97263Q17.4001,9.99563,17.4763,9.99969Q17.5524,10.0037,17.6272,9.98862Q17.702,9.97349,17.7706,9.94014L26.8199,5.54008Q26.8958,5.50317,26.9586,5.44674Q27.0214,5.39031,27.0662,5.31875Q27.111,5.24719,27.1343,5.16604Q27.1576,5.0849,27.1576,5.00049Q27.1576,4.91607,27.1343,4.83493Q27.111,4.75379,27.0662,4.68223Q27.0214,4.61066,26.9586,4.55423Q26.8958,4.49781,26.8199,4.46089L17.7706,0.06084Q17.702,0.027483,17.6272,0.0123542Q17.5524,-0.00277472,17.4763,0.0012871Q17.4001,0.00534892,17.3273,0.028343Q17.2546,0.0513371,17.1899,0.0918003Q17.1253,0.132264,17.0728,0.187622Q17.0203,0.242979,16.9833,0.30971Q16.9464,0.37644,16.9273,0.450296Q16.9082,0.524153,16.9082,0.600436L16.9082,3.33227Q16.4923,3.33445,16.077,3.35635Q15.6618,3.37825,15.2481,3.41982Q14.8344,3.46138,14.4233,3.52252Q14.0122,3.58366,13.6047,3.66422Q13.1972,3.74478,12.7942,3.84457Q12.3913,3.94436,11.9938,4.06315Q11.5964,4.18193,11.2054,4.31942Q10.8144,4.45691,10.4308,4.61278Q10.0472,4.76865,9.67197,4.94252Q9.2967,5.1164,8.93065,5.30786Q8.5646,5.49932,8.20864,5.70792Q7.85267,5.91651,7.50766,6.14174Q7.16264,6.36697,6.82939,6.60829Q6.49613,6.84961,6.17545,7.10645Q5.85476,7.36329,5.54741,7.63502Q5.24006,7.90676,4.94677,8.19275Q4.65349,8.47874,4.37497,8.7783Q4.09646,9.07786,3.83338,9.39027Q3.5703,9.70267,3.32329,10.0272Q3.07628,10.3517,2.84592,10.6875Q2.61556,11.0234,2.40242,11.3697Q2.18927,11.7161,1.99384,12.0722Q1.79841,12.4282,1.62116,12.7931Q1.44392,13.158,1.28528,13.5309Q1.12664,13.9037,0.986997,14.2837Q0.84735,14.6636,0.727026,15.0497Q0.606702,15.4359,0.505989,15.8272Q0.405276,16.2186,0.324415,16.6142Q0.243554,17.0099,0.182739,17.4089Q0.121923,17.808,0.0812982,18.2094Q0.0406735,18.6108,0.0203367,19.0137Q0,19.4166,0,19.82Q0,20.2247,0.0204772,20.629Q0.0409545,21.0333,0.0818596,21.4361Q0.122765,21.8389,0.183999,22.2392Q0.245234,22.6396,0.32665,23.0366Q0.408067,23.4336,0.509469,23.8262Q0.610871,24.2188,0.732014,24.6062Q0.853158,24.9935,0.993751,25.3746Q1.13434,25.7557,1.29405,26.1296Q1.45375,26.5036,1.63218,26.8695Q1.81061,27.2353,2.00734,27.5923Q2.20406,27.9493,2.41861,28.2964Q2.63316,28.6436,2.86502,28.9802Q3.09687,29.3167,3.34547,29.6418Q3.59407,29.9669,3.85882,30.2798Q4.12357,30.5927,4.40383,30.8926Q4.68409,31.1925,4.97918,31.4787Q5.27428,31.7649,5.5835,32.0367Q5.89272,32.3085,6.21531,32.5653Q6.53791,32.8221,6.87311,33.0632Q7.20831,33.3043,7.55531,33.5292Q7.9023,33.754,8.26025,33.9621Q8.61821,34.1702,8.98625,34.361Q9.3543,34.5518,9.73156,34.7249Q10.1088,34.8979,10.4944,35.0528Q10.8799,35.2077,11.2729,35.3441Q11.6658,35.4804,12.0652,35.5979Q12.4645,35.7154,12.8693,35.8138Q13.2742,35.9121,13.6835,35.9911Q14.0928,36.07,14.5056,36.1294Q14.9184,36.1888,15.3337,36.2285Q15.749,36.2682,16.1658,36.288Q16.5827,36.3079,17,36.3079Q17.4173,36.3079,17.8342,36.288Q18.251,36.2682,18.6663,36.2285Q19.0816,36.1888,19.4944,36.1294Q19.9072,36.07,20.3165,35.9911Q20.7258,35.9121,21.1307,35.8138Q21.5355,35.7154,21.9348,35.5979Q22.3342,35.4804,22.7271,35.3441Q23.1201,35.2077,23.5056,35.0528Q23.8912,34.8979,24.2684,34.7249Q24.6457,34.5518,25.0137,34.361Q25.3818,34.1702,25.7397,33.9621Q26.0977,33.754,26.4447,33.5292Q26.7917,33.3043,27.1269,33.0632Q27.4621,32.8221,27.7847,32.5653Q28.1073,32.3085,28.4165,32.0367Q28.7257,31.7649,29.0208,31.4787Q29.3159,31.1925,29.5962,30.8926Q29.8764,30.5927,30.1412,30.2798Q30.4059,29.9669,30.6545,29.6418Q30.9031,29.3167,31.135,28.9802Q31.3668,28.6436,31.5814,28.2964Q31.7959,27.9493,31.9927,27.5923Q32.1894,27.2354,32.3678,26.8695Q32.5462,26.5036,32.7059,26.1296Q32.8657,25.7557,33.0062,25.3746Q33.1468,24.9935,33.268,24.6062Q33.3891,24.2188,33.4905,23.8262Q33.5919,23.4336,33.6733,23.0366Q33.7548,22.6396,33.816,22.2392Q33.8772,21.8389,33.9181,21.4361Q33.959,21.0333,33.9795,20.629Q34,20.2247,34,19.82Q34,18.2021,33.6758,16.6151Q33.3515,15.0282,32.7154,13.5326L28.93,13.5326Q29.34,14.2555,29.6585,15.0358Q30.6,17.3422,30.6,19.82Q30.6,22.2977,29.6585,24.6042Q28.6318,27.1195,26.6537,29.038Q24.6633,30.9685,22.0389,31.9762Q19.6123,32.9079,17,32.9079Q14.3877,32.9079,11.9611,31.9762Q9.33672,30.9685,7.34631,29.038Q5.36818,27.1195,4.34146,24.6042Q3.4,22.2977,3.4,19.82Q3.4,17.3422,4.34146,15.0358Q5.36818,12.5204,7.34631,10.6019Q9.33671,8.67142,11.9611,7.66374Q14.345,6.74841,16.9082,6.73232L16.9082,9.40054Q16.9082,9.47682,16.9273,9.55068Q16.9464,9.62454,16.9833,9.69127Q17.0203,9.758,17.0728,9.81335Q17.1253,9.86871,17.1899,9.90917Z" fill-rule="evenodd" fill="#FFFFFF" fill-opacity="1"/></g></g></svg>