<svg xmlns="http://www.w3.org/2000/svg" xmlns:xlink="http://www.w3.org/1999/xlink" fill="none" version="1.1" width="49.252662658691406" height="48.97591018676758" viewBox="0 0 49.252662658691406 48.97591018676758"><defs><clipPath id="master_svg0_819_19682"><rect x="0" y="0" width="49.252662658691406" height="48.97591018676758" rx="0"/></clipPath></defs><g clip-path="url(#master_svg0_819_19682)"><g><path d="M24.6263,0C25.7598,0,26.6785,0.913635,26.6785,2.04066C26.6785,2.04066,26.6785,6.12199,26.6785,6.12199C26.6785,7.24901,25.7598,8.16265,24.6263,8.16265C23.4929,8.16265,22.5741,7.24901,22.5741,6.12199C22.5741,6.12199,22.5741,2.04066,22.5741,2.04066C22.5741,0.913635,23.4929,0,24.6263,0C24.6263,0,24.6263,0,24.6263,0ZM7.20913,7.16862C8.01058,6.37171,9.30994,6.37171,10.1114,7.16862C10.1114,7.16862,13.0255,10.0664,13.0255,10.0664C13.8269,10.8633,13.8269,12.1554,13.0255,12.9523C12.2241,13.7492,10.9247,13.7492,10.1232,12.9523C10.1232,12.9523,7.20913,10.0546,7.20913,10.0546C6.40771,9.25763,6.40771,7.96556,7.20913,7.16862C7.20913,7.16862,7.20913,7.16862,7.20913,7.16862ZM42.0435,7.16862C42.8449,7.96556,42.8449,9.25763,42.0435,10.0546C42.0435,10.0546,39.1294,12.9523,39.1294,12.9523C38.328,13.7492,37.0286,13.7492,36.2272,12.9523C35.4258,12.1554,35.4258,10.8633,36.2272,10.0664C36.2272,10.0664,39.1413,7.16862,39.1413,7.16862C39.9427,6.37171,41.2421,6.37171,42.0435,7.16862C42.0435,7.16862,42.0435,7.16862,42.0435,7.16862ZM24.6263,16.3253C20.0927,16.3253,16.4176,19.9798,16.4176,24.488C16.4176,28.996,20.0927,32.6506,24.6263,32.6506C29.1598,32.6506,32.8351,28.996,32.8351,24.488C32.8351,19.9798,29.1598,16.3253,24.6263,16.3253C24.6263,16.3253,24.6263,16.3253,24.6263,16.3253ZM12.3132,24.488C12.3132,17.7258,17.826,12.244,24.6263,12.244C31.4267,12.244,36.9395,17.7258,36.9395,24.488C36.9395,31.2501,31.4267,36.7319,24.6263,36.7319C17.826,36.7319,12.3132,31.2501,12.3132,24.488C12.3132,24.488,12.3132,24.488,12.3132,24.488ZM0,24.488C0,23.3609,0.918798,22.4473,2.05219,22.4473C2.05219,22.4473,6.15658,22.4473,6.15658,22.4473C7.28997,22.4473,8.20878,23.3609,8.20878,24.488C8.20878,25.615,7.28997,26.5286,6.15658,26.5286C6.15658,26.5286,2.05219,26.5286,2.05219,26.5286C0.918798,26.5286,0,25.615,0,24.488C0,24.488,0,24.488,0,24.488ZM41.0439,24.488C41.0439,23.3609,41.9627,22.4473,43.0961,22.4473C43.0961,22.4473,47.2005,22.4473,47.2005,22.4473C48.3339,22.4473,49.2527,23.3609,49.2527,24.488C49.2527,25.615,48.3339,26.5286,47.2005,26.5286C47.2005,26.5286,43.0961,26.5286,43.0961,26.5286C41.9627,26.5286,41.0439,25.615,41.0439,24.488C41.0439,24.488,41.0439,24.488,41.0439,24.488ZM13.0255,36.0236C13.8269,36.8205,13.8269,38.1126,13.0255,38.9095C13.0255,38.9095,10.1114,41.8073,10.1114,41.8073C9.30994,42.6041,8.01058,42.6041,7.20913,41.8073C6.40771,41.0104,6.40771,39.7182,7.20913,38.9214C7.20913,38.9214,10.1232,36.0236,10.1232,36.0236C10.9247,35.2267,12.2241,35.2267,13.0255,36.0236C13.0255,36.0236,13.0255,36.0236,13.0255,36.0236ZM36.2272,36.0236C37.0286,35.2267,38.328,35.2267,39.1294,36.0236C39.1294,36.0236,42.0435,38.9214,42.0435,38.9214C42.8449,39.7182,42.8449,41.0104,42.0435,41.8073C41.2421,42.6041,39.9427,42.6041,39.1413,41.8073C39.1413,41.8073,36.2272,38.9095,36.2272,38.9095C35.4258,38.1126,35.4258,36.8205,36.2272,36.0236C36.2272,36.0236,36.2272,36.0236,36.2272,36.0236ZM24.6263,40.8133C25.7598,40.8133,26.6785,41.7269,26.6785,42.8539C26.6785,42.8539,26.6785,46.9352,26.6785,46.9352C26.6785,48.0623,25.7598,48.9759,24.6263,48.9759C23.4929,48.9759,22.5741,48.0623,22.5741,46.9352C22.5741,46.9352,22.5741,42.8539,22.5741,42.8539C22.5741,41.7269,23.4929,40.8133,24.6263,40.8133C24.6263,40.8133,24.6263,40.8133,24.6263,40.8133Z" fill-rule="evenodd" fill="#FFFFFF" fill-opacity="1"/></g></g></svg>