<svg xmlns="http://www.w3.org/2000/svg" xmlns:xlink="http://www.w3.org/1999/xlink" fill="none" version="1.1" width="61.9453125" height="68.6904296875" viewBox="0 0 61.9453125 68.6904296875"><g><g><path d="M23.80690869064331,27.572779052734376L23.79500869064331,27.574979052734374L23.78290869064331,27.576379052734374Q21.42350869064331,27.841179052734375,20.14460869064331,25.637579052734374Q19.61560869064331,24.766279052734376,18.84060869064331,24.306679052734374Q18.41510869064331,24.054279052734373,17.98530869064331,23.910979052734376Q18.85330869064331,24.646579052734374,19.47090869064331,25.570079052734375Q20.245708690643312,26.773679052734376,20.58270869064331,27.917679052734375Q21.75080869064331,31.953079052734374,18.17870869064331,34.101679052734376Q16.84240869064331,34.920779052734375,14.967008690643311,34.94847905273437Q13.09850869064331,34.95517905273438,11.56257869064331,34.32647905273437L11.557948690643311,34.32457905273438L11.55336869064331,34.322579052734376Q9.508118690643311,33.413079052734375,9.23290869064331,31.216079052734376Q8.98198869064331,28.880979052734375,11.15881869064331,27.626479052734375Q12.399208690643311,26.881979052734376,12.88060869064331,25.504079052734376Q12.22510869064331,26.271479052734374,11.24651869064331,26.921279052734373Q9.92479869064331,27.765979052734377,8.88728869064331,28.030179052734375Q4.88497869064331,29.225379052734375,2.7198176906433105,25.655579052734375Q1.8628363906433105,24.321579052734375,1.8347789321433106,22.433379052734374Q1.8280853706433104,20.571479052734375,2.4591306906433106,19.040689052734376Q3.3124186906433106,16.977039052734376,5.546028690643311,16.699209052734375Q7.848188690643311,16.453589052734376,9.106648690643311,18.547559052734375L9.141838690643311,18.568429052734373L9.18540869064331,18.643059052734372Q9.90640869064331,19.878079052734375,11.32498869064331,20.350479052734375Q10.46777869064331,19.620179052734375,9.856178690643311,18.705669052734375Q9.17019869064331,17.639989052734375,8.74820869064331,16.370539052734376L8.746748690643312,16.366129052734376L8.74540869064331,16.361689052734377Q8.15039869064331,14.389329052734375,8.751458690643311,12.816419052734375Q9.35135869064331,11.246549052734375,11.10859869064331,10.157032052734374Q12.39410869064331,9.335424352734375,14.31960869064331,9.306996372734375Q16.13790869064331,9.267558552734375,17.73170869064331,9.929573052734375L17.73550869064331,9.931162052734376L17.739308690643313,9.932845052734375Q19.837208690643312,10.865689052734375,20.05950869064331,13.036539052734375Q20.35770869064331,15.343449052734375,18.13560869064331,16.627909052734374Q17.30250869064331,17.162249052734374,16.81260869064331,17.982589052734376L16.806508690643312,17.992799052734377L16.79970869064331,18.002559052734377Q16.49620869064331,18.436939052734374,16.350408690643313,18.891539052734373Q17.01010869064331,18.090609052734376,18.06920869064331,17.362079052734373Q19.06410869064331,16.667599052734374,20.38960869064331,16.230069052734375L20.39580869064331,16.228029052734374L20.40210869064331,16.226219052734375Q24.43110869064331,15.068269052734376,26.62770869064331,18.585929052734375L26.631408690643312,18.591849052734375L26.63480869064331,18.597909052734373Q27.41960869064331,19.980279052734375,27.47820869064331,21.778179052734373L27.47840869064331,21.782979052734376L27.47840869064331,21.787779052734376Q27.48510869064331,23.649579052734374,26.85420869064331,25.180079052734374L26.852308690643312,25.184679052734374L26.85020869064331,25.189279052734374Q25.96260869064331,27.171179052734374,23.80690869064331,27.572779052734376ZM16.25530869064331,19.358979052734377Q16.25410869064331,19.356279052734376,16.253008690643313,19.351379052734373Q16.254908690643312,19.352479052734374,16.25670869064331,19.353479052734375L16.25530869064331,19.358979052734377Z" fill-rule="evenodd" fill="#FFFFFF" fill-opacity="1"/></g><g transform="matrix(-1,0,0,1,123.88697814941406,0)"><path d="M66.03719907470703,0.0012170080205078124L67.96009907470703,0.0011802910205078124L68.88149907470704,0.0011597870205078125Q72.89048907470703,0.0011599060205078125,76.56098907470704,1.4308196710205079Q80.08378907470703,2.8029196710205078,82.88558907470703,5.3257996710205076Q85.65458907470703,7.819119671020508,87.34288907470703,11.094259671020508Q89.06998907470702,14.444759671020508,89.42638907470703,18.15525967102051L85.56038907470703,18.526659671020507Q85.27538907470704,15.560059671020507,83.89068907470703,12.873859671020508Q82.52788907470703,10.230059671020507,80.28668907470703,8.212009671020509Q78.01258907470702,6.1642496710205075,75.15138907470703,5.049849671020508Q72.16078907470703,3.885019671020508,68.88158907470704,3.885019671020508L67.96016907470703,3.885039671020508L66.03727907470703,3.8850696710205077L66.03719907470703,0.0012170080205078124ZM63.83193907470703,7.0950396710205075Q66.77823907470703,6.254649671020508,69.79950907470703,6.615249671020508Q72.71678907470704,6.963439671020508,75.29898907470704,8.378369671020508Q77.88308907470703,9.794339671020508,79.73428907470704,12.060859671020507Q81.65358907470703,14.410759671020507,82.50408907470703,17.33855967102051L88.74018907470703,38.80635967102051Q88.92088907470703,39.42855967102051,89.43898907470702,39.81755967102051Q89.95708907470703,40.20655967102051,90.60498907470704,40.20655967102051L108.68798907470703,40.20655967102051Q111.74838907470703,40.20655967102051,114.54688907470702,41.379459671020506Q117.25008907470703,42.51245967102051,119.33458907470703,44.57795967102051Q121.42088907470703,46.64535967102051,122.56618907470704,49.32865967102051Q123.75338907470703,52.11005967102051,123.75338907470703,55.15295967102051Q123.75338907470703,56.23185967102051,122.98618907470703,56.992059671020506Q122.22628907470704,57.745059671020506,121.15498907470703,57.745059671020506L105.71728907470703,57.74295967102051L93.63868907470703,57.74295967102051L80.19768907470703,57.74295967102051Q78.25358907470704,57.74295967102051,76.70048907470704,56.57495967102051Q75.14898907470703,55.408359671020506,74.60698907470703,53.54215967102051L62.04979107470703,10.310559671020508Q61.74805907470703,9.271879671020509,62.27532307470703,8.327019671020508Q62.79828007470703,7.389879671020508,63.831929074707034,7.095049671020508L63.83193907470703,7.0950396710205075ZM78.33668907470704,52.45875967102051L66.16198907470704,10.544059671020507Q67.73775907470703,10.280559671020507,69.33921907470703,10.471759671020507Q71.50982907470703,10.730759671020508,73.43258907470704,11.784359671020507Q75.35338907470702,12.836959671020507,76.72618907470704,14.517659671020509Q78.14478907470703,16.25445967102051,78.77438907470703,18.42195967102051L85.01048907470704,39.88975967102051Q85.55268907470703,41.75625967102051,87.10698907470703,42.923359671020506Q88.66138907470703,44.09035967102051,90.60498907470704,44.09035967102051L108.68798907470703,44.09035967102051Q110.96738907470703,44.09035967102051,113.04558907470704,44.96135967102051Q115.05258907470703,45.80255967102051,116.60078907470702,47.33675967102051Q118.14718907470703,48.869159671020505,118.99408907470703,50.853359671020506Q119.61478907470703,52.30745967102051,119.79538907470703,53.861059671020506L105.71728907470703,53.85905967102051L93.63868907470703,53.85905967102051L80.19768907470703,53.85905967102051Q79.55088907470703,53.85905967102051,79.03468907470703,53.470859671020506Q78.51768907470704,53.08205967102051,78.33668907470704,52.45875967102051Z" fill-rule="evenodd" fill="#FFFFFF" fill-opacity="1"/></g><g><rect x="0" y="63.2916145324707" width="16.196048736572266" height="5.398683547973633" rx="1.349670648574829" fill="#FFFFFF" fill-opacity="1"/></g><g><rect x="18.895389556884766" y="63.2916145324707" width="16.196048736572266" height="5.398683547973633" rx="1.349670648574829" fill="#FFFFFF" fill-opacity="1"/></g><g style="opacity:0.30000001192092896;"><rect x="37.79077911376953" y="63.2916145324707" width="16.196048736572266" height="5.398683547973633" rx="1.349670648574829" fill="#FFFFFF" fill-opacity="1"/></g></g></svg>