<svg xmlns="http://www.w3.org/2000/svg" xmlns:xlink="http://www.w3.org/1999/xlink" fill="none" version="1.1" width="61.9453125" height="68.6904296875" viewBox="0 0 61.9453125 68.6904296875"><g><g><path d="M23.80690869064331,27.572779052734376L23.79500869064331,27.574979052734374L23.78290869064331,27.576379052734374Q21.42350869064331,27.841179052734375,20.14460869064331,25.637579052734374Q19.61560869064331,24.766279052734376,18.84060869064331,24.306679052734374Q18.41510869064331,24.054279052734373,17.98530869064331,23.910979052734376Q18.85330869064331,24.646579052734374,19.47090869064331,25.570079052734375Q20.245708690643312,26.773679052734376,20.58270869064331,27.917679052734375Q21.75080869064331,31.953079052734374,18.17870869064331,34.101679052734376Q16.84240869064331,34.920779052734375,14.967008690643311,34.94847905273437Q13.09850869064331,34.95517905273438,11.56257869064331,34.32647905273437L11.557948690643311,34.32457905273438L11.55336869064331,34.322579052734376Q9.508118690643311,33.413079052734375,9.23290869064331,31.216079052734376Q8.98198869064331,28.880979052734375,11.15881869064331,27.626479052734375Q12.399208690643311,26.881979052734376,12.88060869064331,25.504079052734376Q12.22510869064331,26.271479052734374,11.24651869064331,26.921279052734373Q9.92479869064331,27.765979052734377,8.88728869064331,28.030179052734375Q4.88497869064331,29.225379052734375,2.7198176906433105,25.655579052734375Q1.8628363906433105,24.321579052734375,1.8347789321433106,22.433379052734374Q1.8280853706433104,20.571479052734375,2.4591306906433106,19.040689052734376Q3.3124186906433106,16.977039052734376,5.546028690643311,16.699209052734375Q7.848188690643311,16.453589052734376,9.106648690643311,18.547559052734375L9.141838690643311,18.568429052734373L9.18540869064331,18.643059052734372Q9.90640869064331,19.878079052734375,11.32498869064331,20.350479052734375Q10.46777869064331,19.620179052734375,9.856178690643311,18.705669052734375Q9.17019869064331,17.639989052734375,8.74820869064331,16.370539052734376L8.746748690643312,16.366129052734376L8.74540869064331,16.361689052734377Q8.15039869064331,14.389329052734375,8.751458690643311,12.816419052734375Q9.35135869064331,11.246549052734375,11.10859869064331,10.157032052734374Q12.39410869064331,9.335424352734375,14.31960869064331,9.306996372734375Q16.13790869064331,9.267558552734375,17.73170869064331,9.929573052734375L17.73550869064331,9.931162052734376L17.739308690643313,9.932845052734375Q19.837208690643312,10.865689052734375,20.05950869064331,13.036539052734375Q20.35770869064331,15.343449052734375,18.13560869064331,16.627909052734374Q17.30250869064331,17.162249052734374,16.81260869064331,17.982589052734376L16.806508690643312,17.992799052734377L16.79970869064331,18.002559052734377Q16.49620869064331,18.436939052734374,16.350408690643313,18.891539052734373Q17.01010869064331,18.090609052734376,18.06920869064331,17.362079052734373Q19.06410869064331,16.667599052734374,20.38960869064331,16.230069052734375L20.39580869064331,16.228029052734374L20.40210869064331,16.226219052734375Q24.43110869064331,15.068269052734376,26.62770869064331,18.585929052734375L26.631408690643312,18.591849052734375L26.63480869064331,18.597909052734373Q27.41960869064331,19.980279052734375,27.47820869064331,21.778179052734373L27.47840869064331,21.782979052734376L27.47840869064331,21.787779052734376Q27.48510869064331,23.649579052734374,26.85420869064331,25.180079052734374L26.852308690643312,25.184679052734374L26.85020869064331,25.189279052734374Q25.96260869064331,27.171179052734374,23.80690869064331,27.572779052734376ZM16.25530869064331,19.358979052734377Q16.25410869064331,19.356279052734376,16.253008690643313,19.351379052734373Q16.254908690643312,19.352479052734374,16.25670869064331,19.353479052734375L16.25530869064331,19.358979052734377Z" fill-rule="evenodd" fill="#FFFFFF" fill-opacity="1"/></g><g transform="matrix(-1,0,0,1,123.89468383789062,0)"><path d="M66.04887191894531,0.0010517839451904295L67.97176191894532,0.0010150669451904296L68.89317191894531,0.0009945629451904297Q72.90214191894532,0.0009946819451904297,76.57264191894531,1.4306544469451905Q80.09544191894531,2.8027544469451904,82.89724191894531,5.32563444694519Q85.66624191894532,7.818954446945191,87.35454191894532,11.09409444694519Q89.08164191894531,14.44459444694519,89.43804191894532,18.155094446945192L85.57204191894532,18.52649444694519Q85.2870419189453,15.55989444694519,83.90234191894531,12.87369444694519Q82.5395419189453,10.22989444694519,80.29834191894531,8.211844446945191Q78.02424191894531,6.16408444694519,75.16304191894531,5.04968444694519Q72.17244191894531,3.8848544469451904,68.89325191894531,3.8848544469451904L67.97184191894532,3.8848744469451906L66.04894191894532,3.8849044469451903L66.04887191894531,0.0010517839451904295ZM63.843611918945314,7.09487444694519Q66.78990191894532,6.254484446945191,69.81118191894531,6.615084446945191Q72.72844191894531,6.96327444694519,75.31064191894531,8.37820444694519Q77.89474191894531,9.79417444694519,79.7459419189453,12.06069444694519Q81.66524191894531,14.41059444694519,82.51574191894531,17.33839444694519L88.75184191894532,38.80619444694519Q88.93264191894531,39.42839444694519,89.45074191894531,39.817394446945194Q89.96884191894532,40.20639444694519,90.61674191894531,40.20639444694519L108.6996419189453,40.20639444694519Q111.76004191894532,40.20639444694519,114.55854191894531,41.37929444694519Q117.26174191894532,42.51229444694519,119.34624191894531,44.57779444694519Q121.4325419189453,46.64519444694519,122.57784191894531,49.32849444694519Q123.76504191894531,52.10989444694519,123.76504191894531,55.152794446945194Q123.76504191894531,56.23169444694519,122.99784191894531,56.99189444694519Q122.23794191894531,57.74489444694519,121.16674191894532,57.74489444694519L105.72904191894531,57.74279444694519L93.65034191894532,57.74279444694519L80.20934191894531,57.74279444694519Q78.26534191894531,57.74279444694519,76.7121419189453,56.57479444694519Q75.16064191894532,55.40819444694519,74.61864191894531,53.54199444694519L62.06145691894531,10.31039444694519Q61.75972391894531,9.271714446945191,62.28698891894531,8.326854446945191Q62.80994591894531,7.389714446945191,63.843591918945314,7.094884446945191L63.843611918945314,7.09487444694519ZM78.34834191894531,52.45859444694519L66.17366191894531,10.54389444694519Q67.74942191894532,10.28039444694519,69.3508819189453,10.47159444694519Q71.52149191894532,10.73059444694519,73.44424191894531,11.78419444694519Q75.36514191894531,12.83679444694519,76.73794191894531,14.517494446945191Q78.15644191894532,16.25429444694519,78.78604191894532,18.421794446945192L85.02214191894531,39.88959444694519Q85.56434191894532,41.75609444694519,87.11874191894532,42.92319444694519Q88.67304191894532,44.09019444694519,90.61674191894531,44.09019444694519L108.6996419189453,44.09019444694519Q110.97904191894531,44.09019444694519,113.05724191894532,44.96119444694519Q115.06424191894531,45.80239444694519,116.61244191894531,47.33659444694519Q118.15884191894531,48.86899444694519,119.00574191894532,50.85319444694519Q119.62644191894532,52.30729444694519,119.80704191894532,53.86089444694519L105.72904191894531,53.85889444694519L93.65034191894532,53.85889444694519L80.20934191894531,53.85889444694519Q79.56264191894532,53.85889444694519,79.04634191894532,53.47069444694519Q78.5293419189453,53.08189444694519,78.34834191894531,52.45859444694519Z" fill-rule="evenodd" fill="#FFFFFF" fill-opacity="1"/></g><g style="opacity:0.30000001192092896;"><rect x="0" y="63.2916145324707" width="16.196048736572266" height="5.398683547973633" rx="1.349670648574829" fill="#FFFFFF" fill-opacity="1"/></g><g style="opacity:0.30000001192092896;"><rect x="18.895389556884766" y="63.2916145324707" width="16.196048736572266" height="5.398683547973633" rx="1.349670648574829" fill="#FFFFFF" fill-opacity="1"/></g><g style="opacity:0.30000001192092896;"><rect x="37.79077911376953" y="63.2916145324707" width="16.196048736572266" height="5.398683547973633" rx="1.349670648574829" fill="#FFFFFF" fill-opacity="1"/></g></g></svg>