<svg xmlns="http://www.w3.org/2000/svg" xmlns:xlink="http://www.w3.org/1999/xlink" fill="none" version="1.1" width="61.9453125" height="68.6904296875" viewBox="0 0 61.9453125 68.6904296875"><g><g><path d="M23.80690869064331,27.572779052734376L23.79500869064331,27.574979052734374L23.78290869064331,27.576379052734374Q21.42350869064331,27.841179052734375,20.14460869064331,25.637579052734374Q19.61560869064331,24.766279052734376,18.84060869064331,24.306679052734374Q18.41510869064331,24.054279052734373,17.98530869064331,23.910979052734376Q18.85330869064331,24.646579052734374,19.47090869064331,25.570079052734375Q20.245708690643312,26.773679052734376,20.58270869064331,27.917679052734375Q21.75080869064331,31.953079052734374,18.17870869064331,34.101679052734376Q16.84240869064331,34.920779052734375,14.967008690643311,34.94847905273437Q13.09850869064331,34.95517905273438,11.56257869064331,34.32647905273437L11.557948690643311,34.32457905273438L11.55336869064331,34.322579052734376Q9.508118690643311,33.413079052734375,9.23290869064331,31.216079052734376Q8.98198869064331,28.880979052734375,11.15881869064331,27.626479052734375Q12.399208690643311,26.881979052734376,12.88060869064331,25.504079052734376Q12.22510869064331,26.271479052734374,11.24651869064331,26.921279052734373Q9.92479869064331,27.765979052734377,8.88728869064331,28.030179052734375Q4.88497869064331,29.225379052734375,2.7198176906433105,25.655579052734375Q1.8628363906433105,24.321579052734375,1.8347789321433106,22.433379052734374Q1.8280853706433104,20.571479052734375,2.4591306906433106,19.040689052734376Q3.3124186906433106,16.977039052734376,5.546028690643311,16.699209052734375Q7.848188690643311,16.453589052734376,9.106648690643311,18.547559052734375L9.141838690643311,18.568429052734373L9.18540869064331,18.643059052734372Q9.90640869064331,19.878079052734375,11.32498869064331,20.350479052734375Q10.46777869064331,19.620179052734375,9.856178690643311,18.705669052734375Q9.17019869064331,17.639989052734375,8.74820869064331,16.370539052734376L8.746748690643312,16.366129052734376L8.74540869064331,16.361689052734377Q8.15039869064331,14.389329052734375,8.751458690643311,12.816419052734375Q9.35135869064331,11.246549052734375,11.10859869064331,10.157032052734374Q12.39410869064331,9.335424352734375,14.31960869064331,9.306996372734375Q16.13790869064331,9.267558552734375,17.73170869064331,9.929573052734375L17.73550869064331,9.931162052734376L17.739308690643313,9.932845052734375Q19.837208690643312,10.865689052734375,20.05950869064331,13.036539052734375Q20.35770869064331,15.343449052734375,18.13560869064331,16.627909052734374Q17.30250869064331,17.162249052734374,16.81260869064331,17.982589052734376L16.806508690643312,17.992799052734377L16.79970869064331,18.002559052734377Q16.49620869064331,18.436939052734374,16.350408690643313,18.891539052734373Q17.01010869064331,18.090609052734376,18.06920869064331,17.362079052734373Q19.06410869064331,16.667599052734374,20.38960869064331,16.230069052734375L20.39580869064331,16.228029052734374L20.40210869064331,16.226219052734375Q24.43110869064331,15.068269052734376,26.62770869064331,18.585929052734375L26.631408690643312,18.591849052734375L26.63480869064331,18.597909052734373Q27.41960869064331,19.980279052734375,27.47820869064331,21.778179052734373L27.47840869064331,21.782979052734376L27.47840869064331,21.787779052734376Q27.48510869064331,23.649579052734374,26.85420869064331,25.180079052734374L26.852308690643312,25.184679052734374L26.85020869064331,25.189279052734374Q25.96260869064331,27.171179052734374,23.80690869064331,27.572779052734376ZM16.25530869064331,19.358979052734377Q16.25410869064331,19.356279052734376,16.253008690643313,19.351379052734373Q16.254908690643312,19.352479052734374,16.25670869064331,19.353479052734375L16.25530869064331,19.358979052734377Z" fill-rule="evenodd" fill="#FFFFFF" fill-opacity="1"/></g><g transform="matrix(-1,0,0,1,123.88147735595703,0)"><path d="M66.03444867797852,0.0010697845479125975L67.95734867797852,0.0010330675479125976L68.87874867797852,0.0010125635479125976Q72.88773867797852,0.0010126825479125977,76.55823867797852,1.4306724475479127Q80.08103867797851,2.8027724475479125,82.88283867797851,5.325652447547912Q85.65183867797852,7.818972447547913,87.34013867797852,11.094112447547912Q89.06723867797851,14.444612447547913,89.42363867797852,18.155112447547914L85.55763867797852,18.526512447547912Q85.27263867797852,15.559912447547912,83.88793867797851,12.873712447547913Q82.52513867797852,10.229912447547912,80.28393867797851,8.211862447547913Q78.00983867797851,6.164102447547912,75.14863867797851,5.049702447547912Q72.15803867797851,3.8848724475479126,68.87883867797852,3.8848724475479126L67.95741867797851,3.8848924475479127L66.03452867797851,3.8849224475479125L66.03444867797852,0.0010697845479125975ZM63.829188677978514,7.094892447547912Q66.77548867797852,6.254502447547913,69.79675867797852,6.615102447547913Q72.71403867797852,6.9632924475479125,75.29623867797852,8.378222447547913Q77.88033867797851,9.794192447547912,79.73153867797852,12.060712447547912Q81.65083867797851,14.410612447547912,82.50133867797851,17.338412447547913L88.73743867797852,38.806212447547914Q88.91813867797852,39.42841244754791,89.43623867797851,39.817412447547916Q89.95433867797851,40.20641244754791,90.60223867797852,40.20641244754791L108.68523867797852,40.20641244754791Q111.74563867797852,40.20641244754791,114.54413867797851,41.37931244754791Q117.24733867797852,42.51231244754791,119.33183867797851,44.57781244754791Q121.41813867797852,46.64521244754791,122.56343867797852,49.328512447547915Q123.75063867797851,52.10991244754791,123.75063867797851,55.152812447547916Q123.75063867797851,56.23171244754791,122.98343867797851,56.99191244754791Q122.22353867797852,57.74491244754791,121.15223867797852,57.74491244754791L105.71453867797851,57.74281244754791L93.63593867797852,57.74281244754791L80.19493867797851,57.74281244754791Q78.25083867797852,57.74281244754791,76.69773867797852,56.57481244754791Q75.14623867797852,55.40821244754791,74.60423867797851,53.54201244754791L62.047040677978515,10.310412447547913Q61.745308677978514,9.271732447547913,62.272572677978516,8.326872447547913Q62.795529677978514,7.389732447547913,63.82917867797852,7.094902447547913L63.829188677978514,7.094892447547912ZM78.33393867797852,52.458612447547914L66.15923867797852,10.543912447547912Q67.73500867797851,10.280412447547912,69.33646867797852,10.471612447547912Q71.50707867797851,10.730612447547912,73.42983867797852,11.784212447547912Q75.35063867797851,12.836812447547912,76.72343867797852,14.517512447547913Q78.14203867797852,16.254312447547914,78.77163867797852,18.421812447547914L85.00773867797852,39.88961244754791Q85.54993867797852,41.75611244754791,87.10423867797851,42.92321244754791Q88.65863867797852,44.09021244754791,90.60223867797852,44.09021244754791L108.68523867797852,44.09021244754791Q110.96463867797851,44.09021244754791,113.04283867797852,44.961212447547915Q115.04983867797851,45.802412447547916,116.59803867797851,47.336612447547914Q118.14443867797851,48.86901244754791,118.99133867797852,50.85321244754791Q119.61203867797852,52.307312447547915,119.79263867797852,53.86091244754791L105.71453867797851,53.858912447547915L93.63593867797852,53.858912447547915L80.19493867797851,53.858912447547915Q79.54813867797851,53.858912447547915,79.03193867797852,53.47071244754791Q78.51493867797852,53.081912447547914,78.33393867797852,52.458612447547914Z" fill-rule="evenodd" fill="#FFFFFF" fill-opacity="1"/></g><g><rect x="0" y="63.2916145324707" width="16.196048736572266" height="5.398683547973633" rx="1.349670648574829" fill="#FFFFFF" fill-opacity="1"/></g><g style="opacity:0.30000001192092896;"><rect x="18.895389556884766" y="63.2916145324707" width="16.196048736572266" height="5.398683547973633" rx="1.349670648574829" fill="#FFFFFF" fill-opacity="1"/></g><g style="opacity:0.30000001192092896;"><rect x="37.79077911376953" y="63.2916145324707" width="16.196048736572266" height="5.398683547973633" rx="1.349670648574829" fill="#FFFFFF" fill-opacity="1"/></g></g></svg>