<svg xmlns="http://www.w3.org/2000/svg" xmlns:xlink="http://www.w3.org/1999/xlink" fill="none" version="1.1" width="61.9453125" height="68.689453125" viewBox="0 0 61.9453125 68.689453125"><g><g><path d="M23.80690869064331,27.571802490234376L23.79500869064331,27.574002490234374L23.78290869064331,27.575402490234374Q21.42350869064331,27.840202490234375,20.14460869064331,25.636602490234374Q19.61560869064331,24.765302490234376,18.84060869064331,24.305702490234374Q18.41510869064331,24.053302490234373,17.98530869064331,23.910002490234376Q18.85330869064331,24.645602490234374,19.47090869064331,25.569102490234375Q20.245708690643312,26.772702490234376,20.58270869064331,27.916702490234375Q21.75080869064331,31.952102490234374,18.17870869064331,34.100702490234376Q16.84240869064331,34.919802490234375,14.967008690643311,34.94750249023437Q13.09850869064331,34.95420249023438,11.56257869064331,34.32550249023437L11.557948690643311,34.32360249023438L11.55336869064331,34.321602490234376Q9.508118690643311,33.412102490234375,9.23290869064331,31.215102490234376Q8.98198869064331,28.880002490234375,11.15881869064331,27.625502490234375Q12.399208690643311,26.881002490234376,12.88060869064331,25.503102490234376Q12.22510869064331,26.270502490234374,11.24651869064331,26.920302490234373Q9.92479869064331,27.765002490234377,8.88728869064331,28.029202490234375Q4.88497869064331,29.224402490234375,2.7198176906433105,25.654602490234375Q1.8628363906433105,24.320602490234375,1.8347789321433106,22.432402490234374Q1.8280853706433104,20.570502490234375,2.4591306906433106,19.039712490234376Q3.3124186906433106,16.976062490234376,5.546028690643311,16.698232490234375Q7.848188690643311,16.452612490234376,9.106648690643311,18.546582490234375L9.141838690643311,18.567452490234373L9.18540869064331,18.642082490234372Q9.90640869064331,19.877102490234375,11.32498869064331,20.349502490234375Q10.46777869064331,19.619202490234375,9.856178690643311,18.704692490234375Q9.17019869064331,17.639012490234375,8.74820869064331,16.369562490234376L8.746748690643312,16.365152490234376L8.74540869064331,16.360712490234377Q8.15039869064331,14.388352490234375,8.751458690643311,12.815442490234375Q9.35135869064331,11.245572490234375,11.10859869064331,10.156055490234374Q12.39410869064331,9.334447790234375,14.31960869064331,9.306019810234375Q16.13790869064331,9.266581990234375,17.73170869064331,9.928596490234375L17.73550869064331,9.930185490234376L17.739308690643313,9.931868490234375Q19.837208690643312,10.864712490234375,20.05950869064331,13.035562490234375Q20.35770869064331,15.342472490234375,18.13560869064331,16.626932490234374Q17.30250869064331,17.161272490234374,16.81260869064331,17.981612490234376L16.806508690643312,17.991822490234377L16.79970869064331,18.001582490234377Q16.49620869064331,18.435962490234374,16.350408690643313,18.890562490234373Q17.01010869064331,18.089632490234376,18.06920869064331,17.361102490234373Q19.06410869064331,16.666622490234374,20.38960869064331,16.229092490234375L20.39580869064331,16.227052490234374L20.40210869064331,16.225242490234375Q24.43110869064331,15.067292490234376,26.62770869064331,18.584952490234375L26.631408690643312,18.590872490234375L26.63480869064331,18.596932490234373Q27.41960869064331,19.979302490234375,27.47820869064331,21.777202490234373L27.47840869064331,21.782002490234376L27.47840869064331,21.786802490234376Q27.48510869064331,23.648602490234374,26.85420869064331,25.179102490234374L26.852308690643312,25.183702490234374L26.85020869064331,25.188302490234374Q25.96260869064331,27.170202490234374,23.80690869064331,27.571802490234376ZM16.25530869064331,19.358002490234377Q16.25410869064331,19.355302490234376,16.253008690643313,19.350402490234373Q16.254908690643312,19.351502490234374,16.25670869064331,19.352502490234375L16.25530869064331,19.358002490234377Z" fill-rule="evenodd" fill="#FFFFFF" fill-opacity="1"/></g><g transform="matrix(-1,0,0,1,123.89093780517578,0)"><path d="M66.04699890258789,-0.00016522419183349608L67.9698889025879,-0.0002019401918334961L68.89129890258789,-0.0002224441918334961Q72.9002689025879,-0.00022232519183349608,76.57076890258789,1.4294340018081666Q80.09356890258789,2.8015340018081667,82.89536890258789,5.3244240018081666Q85.6643689025879,7.817744001808166,87.3526689025879,11.092854001808167Q89.07976890258789,14.443354001808167,89.4361689025879,18.153954001808167L85.5701689025879,18.525354001808168Q85.28516890258788,15.558654001808167,83.90046890258789,12.872454001808167Q82.53766890258788,10.228654001808167,80.29646890258789,8.210634001808167Q78.02236890258789,6.1628740018081665,75.16116890258789,5.048464001808166Q72.17056890258789,3.8836340018081663,68.89137890258789,3.8836340018081663L67.9699689025879,3.8836540018081664L66.0470689025879,3.8836940018081667L66.04699890258789,-0.00016522419183349608ZM63.84173890258789,7.0936640018081665Q66.7880289025879,6.253264001808167,69.80930890258789,6.613874001808166Q72.72656890258789,6.962054001808166,75.30876890258789,8.376984001808166Q77.89286890258789,9.792964001808166,79.74406890258788,12.059454001808167Q81.66336890258789,14.409354001808167,82.51386890258789,17.337154001808166L88.7499689025879,38.80495400180817Q88.93076890258789,39.42715400180817,89.44886890258789,39.816154001808165Q89.9669689025879,40.20515400180817,90.61486890258789,40.20515400180817L108.69776890258788,40.20515400180817Q111.7581689025879,40.20515400180817,114.55666890258789,41.37805400180817Q117.2598689025879,42.51105400180817,119.34436890258789,44.576654001808166Q121.43066890258788,46.64395400180817,122.57596890258789,49.327254001808164Q123.76316890258789,52.10865400180817,123.76316890258789,55.151554001808165Q123.76316890258789,56.23045400180817,122.99596890258789,56.99075400180816Q122.23606890258789,57.74365400180817,121.1648689025879,57.74365400180817L105.72716890258789,57.74155400180817L93.6484689025879,57.74155400180817L80.20746890258789,57.74155400180817Q78.26346890258789,57.74155400180817,76.71026890258788,56.573654001808166Q75.1587689025879,55.40695400180817,74.61676890258789,53.54075400180817L62.05958390258789,10.309154001808167Q61.75785090258789,9.270494001808167,62.28511590258789,8.325634001808167Q62.80807290258789,7.388504001808166,63.84171890258789,7.0936640018081665L63.84173890258789,7.0936640018081665ZM78.34646890258789,52.457454001808166L66.17178890258789,10.542654001808167Q67.7475489025879,10.279254001808166,69.34900890258788,10.470354001808166Q71.5196189025879,10.729454001808167,73.44236890258789,11.783054001808166Q75.36326890258789,12.835554001808166,76.73606890258789,14.516354001808166Q78.1545689025879,16.253054001808167,78.7841689025879,18.420654001808167L85.02026890258789,39.88835400180817Q85.5624689025879,41.754954001808166,87.1168689025879,42.92195400180817Q88.6711689025879,44.089054001808165,90.61486890258789,44.089054001808165L108.69776890258788,44.089054001808165Q110.97716890258789,44.089054001808165,113.0553689025879,44.96005400180817Q115.06236890258789,45.80125400180817,116.61056890258789,47.335454001808166Q118.15696890258789,48.867754001808166,119.0038689025879,50.85195400180817Q119.6245689025879,52.30615400180817,119.8051689025879,53.85965400180817L105.72716890258789,53.857654001808164L93.6484689025879,53.857654001808164L80.20746890258789,53.857654001808164Q79.5607689025879,53.857654001808164,79.0444689025879,53.46945400180817Q78.52746890258788,53.08075400180817,78.34646890258789,52.457454001808166Z" fill-rule="evenodd" fill="#FFFFFF" fill-opacity="1"/></g><g><rect x="0" y="63.2906379699707" width="16.196048736572266" height="5.398683547973633" rx="1.349670648574829" fill="#FFFFFF" fill-opacity="1"/></g><g><rect x="18.895389556884766" y="63.2906379699707" width="16.196048736572266" height="5.398683547973633" rx="1.349670648574829" fill="#FFFFFF" fill-opacity="1"/></g><g><rect x="37.79077911376953" y="63.2906379699707" width="16.196048736572266" height="5.398683547973633" rx="1.349670648574829" fill="#FFFFFF" fill-opacity="1"/></g></g></svg>