<svg xmlns="http://www.w3.org/2000/svg" xmlns:xlink="http://www.w3.org/1999/xlink" fill="none" version="1.1" width="44.140625" height="29.4560546875" viewBox="0 0 44.140625 29.4560546875"><g><g><rect x="1.7000000476837158" y="1.7000000476837158" width="40.7406210899353" height="26.05605459213257" rx="4.299999952316284" fill-opacity="0" stroke-opacity="1" stroke="#FFFFFF" fill="none" stroke-width="3.4000000953674316"/></g><g><path d="M21.785893235778808,14.562090374298096L12.797503235778809,6.677654374298096L12.797243235778808,6.677420374298095Q12.739173235778809,6.626485374298095,12.676473235778808,6.581381374298096Q12.613763235778809,6.536276374298096,12.54701323577881,6.497421374298096Q12.48025323577881,6.458566374298096,12.410063235778809,6.4263223742980955Q12.339873235778809,6.394079374298096,12.266913235778809,6.368745974298096Q12.193943235778809,6.343412974298095,12.118873235778809,6.325226574298096Q12.043803235778809,6.307040074298095,11.967333235778808,6.296169274298096Q11.89086323577881,6.285298464298096,11.813693235778809,6.281844414298096Q11.736533235778808,6.2783903742980955,11.659393235778808,6.282385214298095Q11.58226323577881,6.286380044298095,11.505863235778808,6.297786574298096Q11.429473235778808,6.309193174298096,11.354533235778808,6.327905374298096Q11.279593235778808,6.3466175742980955,11.206803235778809,6.372461374298096Q11.134017235778808,6.398305374298095,11.064056235778809,6.431040374298096Q10.994096235778809,6.463775374298096,10.927613235778809,6.503097374298096Q10.861131235778808,6.542419374298095,10.79874623577881,6.587962374298096Q10.736361235778809,6.633505374298096,10.678653235778809,6.684845374298096Q10.620945235778809,6.736186374298096,10.568450235778808,6.792847374298096Q10.51503023577881,6.850507374298096,10.467518235778808,6.913125374298096Q10.420007235778808,6.975744374298095,10.378862235778808,7.042718374298095Q10.33771723577881,7.1096923742980955,10.303335235778809,7.1803763742980955Q10.268952235778809,7.2510603742980955,10.241664135778809,7.324770374298096Q10.214375735778809,7.398490374298095,10.194443935778809,7.474520374298096Q10.174512135778809,7.550560374298096,10.162128935778808,7.628180374298096Q10.149745785778808,7.705800374298096,10.145030458778809,7.784260374298096Q10.140315125778809,7.862720374298096,10.143313065778809,7.941270374298096Q10.14631100577881,8.019810374298096,10.15699333577881,8.097690374298097Q10.167675635778808,8.175560374298096,10.18593953577881,8.252010374298095Q10.204203335778809,8.328460374298096,10.229872835778808,8.402760374298095Q10.255542235778808,8.477050374298095,10.288370235778808,8.548470374298095Q10.321198235778809,8.619890374298096,10.360868235778808,8.687750374298096Q10.400538235778809,8.755610374298096,10.446669235778808,8.819250374298097Q10.492799235778808,8.882890374298096,10.544945235778808,8.941710374298095Q10.597092235778808,9.000520374298095,10.654752235778808,9.053940374298096Q10.670707235778808,9.068720374298096,10.687058235778808,9.083070374298096L10.68732523577881,9.083300374298096L20.64519323577881,17.818170374298095Q20.75709323577881,17.931270374298094,20.88899323577881,18.020170374298097Q21.02099323577881,18.109070374298096,21.16789323577881,18.170170374298095Q21.314693235778808,18.231370374298095,21.470793235778807,18.262370374298094Q21.62679323577881,18.293370374298096,21.785893235778808,18.293070374298097Q21.94499323577881,18.293370374298096,22.10109323577881,18.262370374298094Q22.25709323577881,18.231370374298095,22.403993235778806,18.170170374298095Q22.55079323577881,18.109070374298096,22.68279323577881,18.020170374298097Q22.814793235778808,17.931270374298094,22.92659323577881,17.818170374298095L32.884493235778805,9.083300374298096L32.88479323577881,9.083070374298096Q32.90109323577881,9.068720374298096,32.91709323577881,9.053940374298096Q32.974793235778805,9.000520374298095,33.02689323577881,8.941710374298095Q33.07899323577881,8.882890374298096,33.12519323577881,8.819250374298097Q33.171293235778805,8.755610374298096,33.21099323577881,8.687750374298096Q33.25059323577881,8.619890374298096,33.283493235778806,8.548470374298095Q33.31629323577881,8.477050374298095,33.34199323577881,8.402760374298095Q33.36759323577881,8.328460374298096,33.38589323577881,8.252010374298095Q33.404193235778806,8.175560374298096,33.41479323577881,8.097690374298097Q33.42549323577881,8.019810374298096,33.42849323577881,7.941270374298096Q33.43149323577881,7.862720374298096,33.42679323577881,7.784260374298096Q33.42209323577881,7.705800374298096,33.4096932357788,7.628180374298096Q33.397293235778804,7.550560374298096,33.37739323577881,7.474520374298096Q33.357493235778804,7.398490374298095,33.33019323577881,7.324770374298096Q33.30289323577881,7.2510603742980955,33.268493235778806,7.1803763742980955Q33.23409323577881,7.1096923742980955,33.19299323577881,7.042718374298095Q33.15179323577881,6.975744374298095,33.10429323577881,6.913125374298096Q33.05679323577881,6.850507374298096,33.00339323577881,6.792847374298096Q32.95089323577881,6.736186374298096,32.89319323577881,6.684845374298096Q32.83549323577881,6.633505374298096,32.77309323577881,6.587962374298096Q32.710693235778805,6.542419374298095,32.64419323577881,6.503097374298096Q32.57769323577881,6.463775374298096,32.507793235778806,6.431040374298096Q32.43779323577881,6.398305374298095,32.36499323577881,6.372461474298095Q32.29219323577881,6.3466175742980955,32.21729323577881,6.327905374298096Q32.14239323577881,6.309193174298096,32.065993235778805,6.297786574298096Q31.98959323577881,6.286380044298095,31.912393235778808,6.282385214298095Q31.83529323577881,6.2783903742980955,31.75809323577881,6.281844414298096Q31.680993235778807,6.285298464298096,31.604493235778808,6.296169274298096Q31.52799323577881,6.307040074298095,31.45299323577881,6.325226574298096Q31.37789323577881,6.343412974298095,31.30489323577881,6.368745974298096Q31.23199323577881,6.394079374298096,31.16179323577881,6.4263223742980955Q31.09159323577881,6.458566374298096,31.02479323577881,6.497421374298096Q30.958093235778808,6.536276374298096,30.89539323577881,6.581381374298096Q30.83269323577881,6.626485374298095,30.77459323577881,6.677420374298095L30.77429323577881,6.677654374298096L21.785893235778808,14.562090374298096Z" fill-rule="evenodd" fill="#FFFFFF" fill-opacity="1"/></g></g></svg>