<svg xmlns="http://www.w3.org/2000/svg" xmlns:xlink="http://www.w3.org/1999/xlink" fill="none" version="1.1" width="46.46875" height="36.2412109375" viewBox="0 0 46.46875 36.2412109375"><g><g><rect x="1.7000000476837158" y="1.7000000476837158" width="43.06874990463257" height="32.84121084213257" rx="4.299999952316284" fill-opacity="0" stroke-opacity="1" stroke="#FFFFFF" fill="none" stroke-width="3.4000000953674316"/></g><g><path d="M18.628854306030274,20.029670625Q17.71947430603027,19.794680624999998,16.859604306030274,19.416780625Q15.999744306030273,19.038880625,15.211684306030273,18.527850625L11.257374306030274,22.797290625000002L11.257164306030273,22.797490625000002Q11.204304306030274,22.854590625,11.146164306030274,22.906290625Q11.088024306030274,22.957990625,11.025134306030274,23.003690625Q10.962254306030273,23.049490625,10.895224306030274,23.088990625Q10.828204306030273,23.128490624999998,10.757664306030273,23.161290625Q10.687124306030274,23.194090625,10.613734306030274,23.219790625Q10.540344306030274,23.245590625,10.464804306030274,23.264190624999998Q10.389264306030274,23.282690625,10.312274306030274,23.293890625Q10.235284306030273,23.304990625000002,10.157584306030273,23.308590625Q10.079884306030273,23.312190625,10.002194306030272,23.308290624999998Q9.924504306030274,23.304290625,9.847574306030273,23.292890625Q9.770634306030274,23.281390625,9.695164306030273,23.262490624999998Q9.619704306030274,23.243690625,9.546424306030273,23.217590625Q9.473152306030274,23.191490625,9.402752306030273,23.158390625Q9.332353306030274,23.125290624999998,9.265495306030273,23.085490625Q9.198636306030274,23.045790625000002,9.135950306030274,22.999690625Q9.073265306030274,22.953690625,9.015342306030274,22.901690625Q8.897998306030274,22.796590625,8.803429306030273,22.670490625Q8.708860306030273,22.544390625,8.640701306030273,22.402390625000002Q8.572542106030273,22.260290625,8.533411606030274,22.107590625Q8.494281106030273,21.954990625,8.485683066030273,21.797590624999998Q8.477085046030274,21.640290625,8.499350006030273,21.484290625Q8.521615006030274,21.328250625000003,8.573887406030273,21.179590625Q8.626159306030273,21.030920625,8.706430306030274,20.895310625Q8.786701306030274,20.759700625,8.891886306030273,20.642360625000002Q8.900582306030273,20.632660625,8.909435306030273,20.623100625L8.909640306030273,20.622880625L12.790704306030275,16.432500625Q12.314434306030273,15.888650625,11.909194306030273,15.289980625Q11.503964306030273,14.691320625,11.176004306030274,14.047070625Q10.848054306030274,13.402820625,10.602434306030274,12.722910625Q10.356804306030273,12.042993625,10.197294306030273,11.337890625L13.720574306030272,11.337890625Q13.797284306030274,11.570693625,13.888374306030274,11.800760625Q14.515554306030275,13.384990625,15.720364306030273,14.589800625Q16.92517430603027,15.794610625,18.509354306030275,16.421790625Q19.968454306030274,16.999420625,21.537654306030273,16.999420625L26.057254306030273,16.999420625Q27.626454306030272,16.999420625,29.085554306030275,16.421790625Q30.669754306030274,15.794610625,31.874554306030273,14.589800625Q33.07935430603027,13.384980625,33.70655430603027,11.800760625Q33.797654306030275,11.570705625,33.87435430603027,11.337890625L37.397654306030276,11.337890625Q37.127954306030276,12.529860625,36.616354306030274,13.639720624999999Q36.10475430603027,14.749580625,35.373654306030275,15.728810625000001L39.45875430603027,20.139480624999997L39.45895430603028,20.139700625Q39.46775430603027,20.149260625,39.47645430603028,20.158960625Q39.58165430603027,20.276300624999998,39.661954306030275,20.411910625Q39.74215430603027,20.547520625,39.794454306030275,20.696190625Q39.84675430603028,20.844850625,39.86905430603028,21.000860625Q39.89125430603028,21.156860625,39.882654306030275,21.314210625Q39.874054306030274,21.471590624999997,39.83495430603027,21.624190625Q39.79585430603028,21.776890625,39.727654306030274,21.918990625Q39.65945430603027,22.060990625000002,39.56495430603027,22.187090625Q39.47035430603027,22.313190625,39.35305430603027,22.418290624999997Q39.29505430603027,22.470290625,39.23245430603028,22.516290625Q39.16975430603027,22.562390625,39.102854306030274,22.602090625000002Q39.03605430603027,22.641890625000002,38.965654306030274,22.674990625Q38.895254306030274,22.708090625,38.82195430603028,22.734190625Q38.748654306030275,22.760290625,38.67315430603027,22.779090625000002Q38.597754306030275,22.797990625,38.52075430603027,22.809490625000002Q38.443854306030275,22.820890625,38.366154306030275,22.824890625000002Q38.288454306030275,22.828790625,38.210754306030275,22.825190624999998Q38.133054306030274,22.821590625,38.056054306030276,22.810490625Q37.97905430603028,22.799290624999998,37.90355430603027,22.780790625Q37.828054306030275,22.762190625000002,37.754654306030275,22.736390625Q37.68125430603027,22.710690624999998,37.61065430603027,22.677890625Q37.540154306030274,22.645090625,37.473154306030274,22.605590624999998Q37.40605430603027,22.566090625,37.343254306030275,22.520290625Q37.280354306030276,22.474590624999998,37.222154306030276,22.422890625Q37.16405430603027,22.371190625,37.11115430603027,22.314090625L37.11095430603027,22.313890625L33.121954306030275,18.006950625Q32.124954306030276,18.769700625,30.988054306030275,19.302070625Q29.851254306030274,19.834440625,28.626954306030274,20.111880624999998L31.078354306030274,25.395090625L31.078554306030274,25.395390624999997Q31.111254306030272,25.465890625,31.137054306030272,25.539290625Q31.162754306030273,25.612690625,31.181254306030272,25.688290625Q31.199754306030272,25.763790625,31.210854306030274,25.840790625Q31.221954306030273,25.917790625000002,31.225454306030272,25.995490625000002Q31.229054306030275,26.073190625000002,31.225054306030273,26.150890625000002Q31.221054306030272,26.228590625000002,31.209554306030274,26.305490624999997Q31.198054306030272,26.382490625000003,31.179154306030274,26.457890624999997Q31.16015430603027,26.533390625,31.134054306030272,26.606590625000003Q31.107954306030273,26.679890625,31.074754306030272,26.750290624999998Q31.041654306030274,26.820690624999997,31.001854306030275,26.887490624999998Q30.962054306030275,26.954290625,30.915954306030272,27.016990625Q30.869854306030273,27.079590625,30.817854306030274,27.137490624999998Q30.765954306030274,27.195390625,30.708654306030272,27.247990625Q30.651254306030275,27.300590624999998,30.589154306030274,27.347290625Q30.526954306030273,27.394090625,30.460554306030275,27.434590625Q30.394154306030273,27.475090625,30.324154306030273,27.508990625Q30.253354306030275,27.543290625,30.179654306030272,27.570390625Q30.105854306030274,27.597490625,30.029754306030274,27.617290625Q29.953754306030273,27.637090625,29.876054306030273,27.649290625Q29.798454306030273,27.661590625,29.719954306030274,27.666090625Q29.641454306030273,27.670690625,29.562954306030274,27.667490625Q29.484354306030273,27.664390625,29.406554306030273,27.653490625Q29.328654306030273,27.642690625,29.252254306030274,27.624290625Q29.175854306030274,27.605890625,29.101654306030273,27.579990625Q29.027354306030272,27.554190625,28.956054306030275,27.521190625Q28.884654306030274,27.488290625,28.816854306030272,27.448490625Q28.749154306030274,27.408690625,28.685554306030273,27.362390625Q28.62205430603027,27.316090625,28.563254306030274,27.263890625000002Q28.504554306030272,27.211590625,28.451254306030272,27.153890625000003Q28.39795430603027,27.096090625000002,28.350554306030272,27.033390625Q28.303254306030272,26.970690625,28.262154306030272,26.903590625Q28.221154306030275,26.836490625,28.186954306030273,26.765790625Q28.181254306030272,26.754090625,28.175754306030274,26.742190625L28.175654306030275,26.741990625L25.232654306030273,20.399420624999998L21.845754306030273,20.399420624999998L20.180554306030274,26.462390624999998L20.180454306030274,26.462690625Q20.159854306030276,26.537690625,20.132054306030273,26.610290624999998Q20.104254306030274,26.682990625000002,20.069554306030273,26.752590625Q20.034854306030276,26.822190624999998,19.993554306030273,26.888090625Q19.952354306030273,26.954090625,19.904854306030273,27.015690624999998Q19.857354306030274,27.077290625,19.804054306030274,27.133990625Q19.750854306030273,27.190690625000002,19.692354306030275,27.241990625Q19.633854306030273,27.293290624999997,19.570654306030274,27.338590625Q19.507454306030276,27.383990625,19.440154306030273,27.422990625Q19.372954306030273,27.461990625,19.302154306030275,27.494390625Q19.231354306030273,27.526690625,19.157854306030274,27.551990625Q19.084254306030275,27.577190625,19.008554306030273,27.595290625Q18.932954306030275,27.613290625,18.855854306030274,27.623890625Q18.778854306030276,27.634490625,18.701054306030272,27.637590625Q18.623354306030272,27.640690625,18.545754306030275,27.636290625Q18.468044306030272,27.631790625,18.391194306030272,27.619790625Q18.314334306030275,27.607790625,18.23899430603027,27.588490625Q18.086374306030272,27.549190625,17.944354306030274,27.480890625Q17.802324306030272,27.412590625,17.676344306030273,27.317990625Q17.55037430603027,27.223290625,17.445284306030274,27.105890625Q17.340194306030273,26.988390625,17.260034306030274,26.852790625Q17.179884306030274,26.717090625,17.127734306030273,26.568390625Q17.075584306030272,26.419690625,17.053444306030272,26.263590625Q17.031314306030275,26.107590625,17.040044306030275,25.950290625Q17.048774306030275,25.792890625,17.088024306030274,25.640290625Q17.09127430603027,25.627690625,17.094724306030272,25.615090625L17.094804306030273,25.614790624999998L18.628854306030274,20.029670625Z" fill-rule="evenodd" fill="#FFFFFF" fill-opacity="1"/></g></g></svg>