<svg xmlns="http://www.w3.org/2000/svg" xmlns:xlink="http://www.w3.org/1999/xlink" fill="none" version="1.1" width="45.671878814697266" height="41.349605560302734" viewBox="0 0 45.671878814697266 41.349605560302734"><defs><clipPath id="master_svg0_819_20000"><rect x="0" y="0" width="45.671878814697266" height="41.349605560302734" rx="0"/></clipPath></defs><g clip-path="url(#master_svg0_819_20000)"><g><path d="M10.499935,37.476884375C10.268004999999999,37.476884375,10.031615,37.464784375,9.795235,37.440584375C6.8827549999999995,37.149784375,4.53226,35.021784374999996,4.2111295,32.384884375C4.010423,30.753584375,4.585782,29.118084375,5.790025,27.902684375C6.994255,26.687184375,8.715875,25.988684375,10.513315,25.988684375C11.128815,25.988684375,11.628345,26.440884375,11.628345,26.998184375C11.628345,27.555384375,11.128815,28.007684375,10.513315,28.007684375C9.344755,28.007684375,8.229714999999999,28.459884375,7.449195,29.247384375C6.659745,30.046884375,6.294015,31.080584375,6.427825,32.158784374999996C6.637445,33.866884375,8.153895,35.239784375,10.040535,35.429584375000005C11.231395,35.546684375,12.373195,35.219584375,13.256305,34.504884375C14.126025,33.798184375000005,14.625575,32.788684375,14.625575,31.730784375L14.625575,11.790864375C14.625575,9.586094375,16.271375,7.655904375,18.626275,7.094614375L31.913075,3.932826375C33.532075,3.549212375,35.222475,3.856103575,36.551675,4.784854375C37.876275,5.709564375,38.638975,7.110774375,38.638975,8.629074375L38.638975,27.615984375C38.638975,30.810084375,35.846975,33.454984374999995,32.417075,33.515584375C30.699875,33.543784375,29.080875,32.958284375000005,27.854375,31.872084375C26.627775,30.781784375,25.954375,29.328084375,25.954375,27.773484375C25.954375,24.607584375,28.799875,22.031384375,32.296675,22.031384375C32.912175000000005,22.031384375,33.411675,22.483584375,33.411675,23.040884375C33.411675,23.598084375,32.912175000000005,24.050384375,32.296675,24.050384375C30.030875,24.050384375,28.184375,25.722084375,28.184375,27.773484375C28.184375,28.778884375,28.621475,29.723884375,29.415375,30.430484375C30.209275,31.137184375,31.261875,31.516684375,32.372475,31.496584375C34.598075,31.460184375,36.408875,29.719784375,36.408875,27.615984375L36.408875,8.629074375C36.408875,7.744744375,35.962875,6.925024375,35.191275000000005,6.383924374999999C34.415275,5.842824375,33.429575,5.661114375,32.483975,5.887244375L19.197175,9.049034375C17.823475000000002,9.376114375,16.860075000000002,10.502734375,16.860075000000002,11.790864375L16.860075000000002,31.734784375C16.860075000000002,33.366184375,16.088475000000003,34.924884375000005,14.745975,36.011084375C13.577435,36.959984375,12.060984999999999,37.476884375,10.499935,37.476884375Z" fill="#FFFFFF" fill-opacity="1"/><path d="M15.060475,36.399784375L15.061175,36.399184375Q16.152974999999998,35.515584375,16.754675,34.298984375Q17.360075000000002,33.074784375,17.360075000000002,31.734784375L17.360075000000002,11.790864375Q17.360075000000002,11.009714375,17.893875,10.384084375Q18.440775000000002,9.743124375,19.312975,9.535454375L32.600274999999996,6.373524375000001Q33.867475,6.070474375,34.904174999999995,6.793294375Q35.908874999999995,7.497854375,35.908874999999995,8.629074375L35.908874999999995,27.615984375Q35.908874999999995,28.980884375,34.878775000000005,29.971084375Q33.836974999999995,30.972584375,32.363375000000005,30.996584375Q30.834675,31.024384375,29.747875,30.056984375Q28.684375,29.110484375,28.684375,27.773484375Q28.684375,26.456784375,29.726475,25.513284375Q30.790075,24.550384375,32.296675,24.550384375Q32.950975,24.550384375,33.420575,24.125284375Q33.911675,23.680584375,33.911675,23.040884375Q33.911675,22.401184375,33.420575,21.956484375Q32.950975,21.531384375,32.296675,21.531384375Q29.481375,21.531384375,27.478675,23.344584375Q25.454375,25.177284375,25.454375,27.773484375Q25.454375,30.407684375,27.522875,32.246384375000005Q29.573475,34.062384375,32.425875000000005,34.015484375Q35.192975000000004,33.966584375,37.158175,32.103684375Q39.138975,30.226084375,39.138975,27.615984375L39.138975,8.629074375Q39.138975,7.363914375,38.531375,6.245654375Q37.928675,5.136344375,36.838075,4.375002375Q35.753275,3.616974375,34.431174999999996,3.374881375Q33.115775,3.1340193750000003,31.797375,3.446409375L18.510375,6.608244375Q16.585075,7.067134375,15.362275,8.502144375Q14.125565,9.953454375,14.125565,11.790864375L14.125565,31.730784375Q14.125565,33.154384375,12.941745,34.116184375Q11.733995,35.093684374999995,10.090585,34.932084375Q8.839224999999999,34.806184375,7.940875,33.992884375Q7.058635000000001,33.194184375,6.924015,32.097184375Q6.746925,30.670184375,7.804295,29.599384375Q8.886425,28.507684375,10.513315,28.507684375Q11.167655,28.507684375,11.637225,28.082584375Q12.128345,27.637884375,12.128345,26.998184375Q12.128345,26.358384375,11.637225,25.913784375Q11.167655,25.488684375,10.513315,25.488684375Q9.068165,25.488684375,7.741375,26.026484375Q6.410525,26.565984375,5.434835,27.550784375Q4.452759,28.541984375,4.002106,29.821784375Q3.54998,31.105684375,3.714797,32.445384375Q3.978185,34.608084375000004,5.695845,36.163184375Q7.397355,37.703684375,9.744265,37.937984375Q10.124355000000001,37.976884375,10.499935,37.976884375Q13.117915,37.976884375,15.060475,36.399784375ZM16.360075000000002,31.734784375Q16.360075000000002,34.061884375000005,14.431475,35.622384374999996L14.430775,35.622884375Q12.763485,36.976884375,10.499935,36.976884375Q10.175435,36.976884375,9.846195,36.943184375Q7.8243849999999995,36.741284375,6.367005,35.421884375000005Q4.925771,34.116984375,4.707462,32.324484375Q4.420869,29.994984375,6.145205,28.254584375Q7.894864999999999,26.488684375,10.513315,26.488684375Q10.782225,26.488684375,10.966065,26.655084375Q11.128345,26.801984375,11.128345,26.998184375Q11.128345,27.194284375,10.966065,27.341184375Q10.782225,27.507684375,10.513315,27.507684375Q8.469625,27.507684375,7.094085,28.895384375Q5.694845,30.312484375,5.931625,32.220384374999995Q6.111445,33.685584375000005,7.269725,34.734184375Q8.411895000000001,35.768284375,9.990495,35.927084375Q12.044295,36.129084375,13.570855,34.893584375Q15.125575,33.630284375,15.125575,31.730784375L15.125575,11.790864375Q15.125575,10.321724374999999,16.123375,9.150724375Q17.134475000000002,7.964194375,18.742275,7.5809943749999995L32.028875,4.419243375Q34.363775000000004,3.866004975,36.265275,5.194704375Q38.138975,6.502704375,38.138975,8.629074375L38.138975,27.615984375Q38.138975,29.796184375,36.470275,31.377984375Q34.786874999999995,32.973684375000005,32.408275,33.015684375Q29.945575,33.056184375,28.185875,31.497784375Q26.454375,29.958584375,26.454375,27.773484375Q26.454375,25.620884375,28.149775,24.085884375Q29.866775,22.531384375,32.296675,22.531384375Q32.565574999999995,22.531384375,32.749375,22.697784375Q32.911675,22.844684375,32.911675,23.040884375Q32.911675,23.236984375,32.749375,23.383884375Q32.565574999999995,23.550384375,32.296675,23.550384375Q30.404575,23.550384375,29.055275,24.771984375Q27.684375,26.013184375,27.684375,27.773484375Q27.684375,29.559084375,29.082975,30.803984375Q30.461875,32.031384375,32.381575,31.996484375Q34.246575,31.965984375,35.571775,30.691984375Q36.908875,29.406684375,36.908875,27.615984375L36.908875,8.629074375Q36.908875,6.977734375,35.478375,5.974544375Q34.071375,4.993524375,32.367675,5.4009543749999995L19.081474999999998,8.562614374999999Q17.891775000000003,8.845884375,17.133175,9.735024375Q16.360075000000002,10.641094375,16.360075000000002,11.790864375L16.360075000000002,31.734784375Z" fill-rule="evenodd" fill="#FFFFFF" fill-opacity="1"/></g></g></svg>