<svg xmlns="http://www.w3.org/2000/svg" xmlns:xlink="http://www.w3.org/1999/xlink" fill="none" version="1.1" width="62" height="58.00390625" viewBox="0 0 62 58.00390625"><g><g transform="matrix(-1,0,0,1,124,0)"><path d="M66.13277,-0.000420332L68.05946,-0.000457168L68.98267,-0.000477791Q73.0061,-0.000477791,76.69,1.43653Q80.22540000000001,2.81562,83.0372,5.35125Q85.81569999999999,7.85696,87.5098,11.1483Q89.2427,14.5151,89.60040000000001,18.2438L85.6619,18.6215Q85.3769,15.6498,83.9919,12.959Q82.6288,10.3108,80.3874,8.28951Q78.1132,6.23862,75.2522,5.12258Q72.2618,3.95608,68.98276,3.95608L68.05954,3.9561L66.13285,3.95614L66.13277,-0.000420332ZM80.9722,17.5011Q80.9722,17.088,80.80709999999999,16.7095Q78.7484,11.4321,73.9837,8.88409Q69.68455,6.58509,64.29088,7.05093Q64.10099,7.06733,63.91773,7.11969Q62.868922,7.41929,62.3387,8.37087Q61.804822,9.32901,62.110285,10.3821L74.6793,53.7196Q75.23,55.6182,76.7809,56.8023Q78.3513,58.0013,80.3362,58.0013L93.7928,58.0013L105.8952,58.0013L121.36330000000001,58.0034Q122.45089999999999,58.0034,123.2219,57.2382Q123.9993,56.4668,123.9993,55.3727Q123.9993,52.3138,122.8075,49.5176Q121.6577,46.8198,119.56309999999999,44.7411Q117.4701,42.6639,114.7556,41.5245Q111.9452,40.3448,108.8716,40.3448L87.0747,40.3444Q87.0335,40.3427,86.9922,40.3427Q86.8949,40.3427,86.7981,40.3523Q86.7013,40.3618,86.60589999999999,40.3808Q86.51050000000001,40.3997,86.4174,40.428Q86.3243,40.4562,86.2345,40.4934Q86.1446,40.5307,86.0588,40.5765Q85.973,40.6224,85.8922,40.6764Q85.8113,40.7305,85.7361,40.7922Q85.6609,40.8539,85.5921,40.9226Q85.5233,40.9914,85.4616,41.0666Q85.3999,41.1418,85.3459,41.2227Q85.2918,41.3036,85.246,41.3893Q85.20009999999999,41.4751,85.16290000000001,41.565Q85.1257,41.6549,85.0974,41.7479Q85.0692,41.841,85.0502,41.9364Q85.0313,42.0318,85.0217,42.1286Q85.0122,42.2254,85.0122,42.3227Q85.0122,42.42,85.0217,42.5168Q85.0313,42.6136,85.0502,42.709Q85.0692,42.8044,85.0974,42.8975Q85.1257,42.9906,85.16290000000001,43.0804Q85.20009999999999,43.1703,85.246,43.2561Q85.2918,43.3419,85.3459,43.4227Q85.3999,43.5036,85.4616,43.5788Q85.5233,43.654,85.5921,43.7228Q85.6609,43.7916,85.7361,43.8533Q85.8113,43.915,85.8922,43.969Q85.973,44.0231,86.0588,44.0689Q86.1446,44.1148,86.2345,44.152Q86.3243,44.1892,86.4174,44.2175Q86.51050000000001,44.2457,86.60589999999999,44.2647Q86.7013,44.2836,86.7981,44.2932Q86.8949,44.3027,86.9922,44.3027Q87.0334,44.3027,87.0747,44.301L108.8716,44.3014Q111.1485,44.3014,113.2243,45.1727Q115.2293,46.0143,116.7761,47.5494Q118.3214,49.0829,119.1678,51.0688Q119.7816,52.509,119.9648,54.0467L105.8952,54.0447L93.7928,54.0447L80.3362,54.0447Q79.689,54.0447,79.1819,53.6575Q78.6669,53.2643,78.4793,52.6175L66.38972,10.9332Q69.55087,11.0004,72.1179,12.3731Q75.589,14.2293,77.1179,18.1392Q77.1675,18.2851,77.2392,18.4215Q77.3108,18.5579,77.4027,18.6816Q77.4945,18.8053,77.6044,18.9133Q77.7143,19.0213,77.8396,19.111Q77.9649,19.2007,78.1026,19.2699Q78.2402,19.3392,78.3869,19.3863Q78.5336,19.4334,78.6859,19.4572Q78.8381,19.4811,78.9922,19.4811Q79.0895,19.4811,79.1863,19.4715Q79.2831,19.462,79.3785,19.443Q79.4739,19.424,79.56700000000001,19.3958Q79.66,19.3676,79.7499,19.3303Q79.8398,19.2931,79.9256,19.2473Q80.0113,19.2014,80.09219999999999,19.1474Q80.1731,19.0933,80.2483,19.0316Q80.3235,18.9699,80.3923,18.9011Q80.461,18.8323,80.5227,18.7571Q80.58449999999999,18.682,80.6385,18.6011Q80.6925,18.5202,80.7384,18.4344Q80.7842,18.3486,80.8215,18.2588Q80.8587,18.1689,80.8869,18.0758Q80.9152,17.9827,80.9341,17.8873Q80.9531,17.7919,80.9627,17.6951Q80.9722,17.5983,80.9722,17.5011Z" fill-rule="evenodd" fill="#FFFFFF" fill-opacity="1"/></g><g><ellipse cx="38.84765625" cy="23.6630859375" rx="2.75390625" ry="2.75390625" fill="#FFFFFF" fill-opacity="1"/></g><g><ellipse cx="47.38671875" cy="23.6630859375" rx="2.75390625" ry="2.75390625" fill="#FFFFFF" fill-opacity="1"/></g><g><ellipse cx="35.53515625" cy="32.271484375" rx="2.75390625" ry="2.75390625" fill="#FFFFFF" fill-opacity="1"/></g><g><ellipse cx="43.85546875" cy="30.431640625" rx="2.75390625" ry="2.75390625" fill="#FFFFFF" fill-opacity="1"/></g><g><ellipse cx="43.85546875" cy="38.599609375" rx="2.75390625" ry="2.75390625" fill="#FFFFFF" fill-opacity="1"/></g></g></svg>