<svg xmlns="http://www.w3.org/2000/svg" xmlns:xlink="http://www.w3.org/1999/xlink" fill="none" version="1.1" width="73.240234375" height="42" viewBox="0 0 73.240234375 42"><g><g><rect x="23.9613037109375" y="6.22900390625" width="6.810791492462158" height="25.77099609375" rx="3" fill="#FFFFFF" fill-opacity="1"/></g><g><rect x="16.028564453125" y="11.677734375" width="6.810791492462158" height="20.322265625" rx="3" fill="#FFFFFF" fill-opacity="1"/></g><g><path d="M8.0142822265625,29.000003125C8.0142822265625,30.656903125,9.3574322265625,32.000003125,11.0142822265625,32.000003125L11.6831022265625,32.000003125C13.3399622265625,32.000003125,14.6831022265625,30.656803125,14.6831022265625,29.000003125L14.6831022265625,20.033203125C14.6831022265625,18.376353125,13.3399622265625,17.033203125,11.6831022265625,17.033203125L11.0142822265625,17.033203125C9.3574322265625,17.033203125,8.0142822265625,18.376353125,8.0142822265625,20.033203125L8.0142822265625,29.000003125Z" fill="#FFFFFF" fill-opacity="1"/></g><g><path d="M0,29.000001015625C0,30.656891015625,1.34315,31.999991015625,3,31.999991015625L3.66882,31.999991015625C5.32568,31.999991015625,6.66882,30.656891015625,6.66882,29.000001015625L6.66882,22.748291015625C6.66882,21.091441015625,5.32568,19.748291015625,3.66882,19.748291015625L3,19.748291015625C1.34315,19.748291015625,0,21.091441015625,0,22.748291015625L0,29.000001015625Z" fill="#FFFFFF" fill-opacity="1"/></g><g><path d="M47.9881123046875,18.144L47.9881123046875,22.932L50.760112304687496,22.932L50.760112304687496,26.404L47.9881123046875,26.404L47.9881123046875,30.576L44.0121123046875,30.576L44.0121123046875,26.404L35.2201123046875,26.404L35.2201123046875,23.632L42.2761123046875,10.052L46.5321123046875,10.052L39.7841123046875,22.932L44.0121123046875,22.932L44.0121123046875,18.144L47.9881123046875,18.144ZM63.9481123046875,22.708L63.9481123046875,19.208L71.7881123046875,19.208L71.7881123046875,27.552Q70.8361123046875,29.092,68.75011230468749,30.002Q66.6641123046875,30.912,64.1441123046875,30.912Q61.1481123046875,30.912,58.8241123046875,29.568Q56.500112304687505,28.224,55.2121123046875,25.816Q53.9241123046875,23.408,53.9241123046875,20.3Q53.9241123046875,17.164,55.254112304687496,14.756Q56.5841123046875,12.348,58.9081123046875,11.032Q61.232112304687504,9.716,64.0601123046875,9.716Q66.8881123046875,9.716,68.97411230468751,10.99Q71.0601123046875,12.264,71.7881123046875,14.252L68.4281123046875,16.184Q67.8121123046875,14.896,66.6641123046875,14.154Q65.5161123046875,13.412,63.9481123046875,13.412Q62.2961123046875,13.412,60.980112304687495,14.252Q59.6641123046875,15.092,58.9081123046875,16.66Q58.1521123046875,18.228,58.1521123046875,20.3Q58.1521123046875,22.428,58.9221123046875,23.996Q59.6921123046875,25.564,61.1061123046875,26.404Q62.5201123046875,27.244,64.3961123046875,27.244Q66.5801123046875,27.244,67.8121123046875,26.04L67.8121123046875,22.708L63.9481123046875,22.708Z" fill="#FFFFFF" fill-opacity="1"/></g></g></svg>