<svg xmlns="http://www.w3.org/2000/svg" xmlns:xlink="http://www.w3.org/1999/xlink" fill="none" version="1.1" width="104" height="104" viewBox="0 0 104 104"><defs><linearGradient x1="0.5" y1="0" x2="0.5" y2="1" id="master_svg0_36_5645"><stop offset="15.531960129737854%" stop-color="#F1B26F" stop-opacity="1"/><stop offset="100%" stop-color="#E9612F" stop-opacity="1"/></linearGradient><filter id="master_svg1_28_25068" filterUnits="objectBoundingBox" color-interpolation-filters="sRGB" x="-10" y="-6" width="83.74102783203125" height="87.6405258178711"><feFlood flood-opacity="0" result="BackgroundImageFix"/><feColorMatrix in="SourceAlpha" type="matrix" values="0 0 0 0 0 0 0 0 0 0 0 0 0 0 0 0 0 0 127 0"/><feOffset dy="4" dx="0"/><feGaussianBlur stdDeviation="2.5"/><feColorMatrix type="matrix" values="0 0 0 0 0.9254902005195618 0 0 0 0 0.5254902243614197 0 0 0 0 0.2980392277240753 0 0 0 1 0"/><feBlend mode="normal" in2="BackgroundImageFix" result="effect1_dropShadow"/><feBlend mode="normal" in="SourceGraphic" in2="effect1_dropShadow" result="shape"/></filter><linearGradient x1="0.7732335925102234" y1="0.016765590757131577" x2="0.5" y2="1" id="master_svg2_28_26067"><stop offset="0%" stop-color="#FCFCFC" stop-opacity="1"/><stop offset="29.438969492912292%" stop-color="#FBF7FB" stop-opacity="1"/><stop offset="74.95068311691284%" stop-color="#F5D4DA" stop-opacity="1"/><stop offset="100%" stop-color="#F0AE93" stop-opacity="1"/></linearGradient></defs><g><g><rect x="0" y="0" width="104.00000762939453" height="104.00000762939453" rx="18" fill="url(#master_svg0_36_5645)" fill-opacity="1"/></g><g><ellipse cx="48.9287109375" cy="27.35595703125" rx="10" ry="10" fill="#F7DDD5" fill-opacity="1"/></g><g><path d="M38.531115853881836,38.33164588476563C36.74991585388184,37.79246788476563,34.86882585388184,38.799352884765625,34.32965585388183,40.580591884765624C33.790495853881836,42.361821884765625,34.797385853881835,44.242891884765626,36.578615853881836,44.782061884765625L43.880215853881836,46.99225188476562C44.72381585388183,47.247611884765625,45.300815853881836,48.02509188476563,45.300815853881836,48.906431884765624L45.300815853881836,50.462331884765625C45.300815853881836,51.64463188476562,44.28071585388184,52.568931884765625,43.10411585388184,52.45263188476562L29.189765853881838,51.07783188476563C28.300405853881834,50.989931884765625,27.412555853881837,51.25893188476562,26.721545853881835,51.825731884765624C26.030534853881836,52.39243188476563,25.592961853881835,53.210431884765626,25.505088453881836,54.09983188476562C25.322100853881835,55.951831884765625,26.675105853881835,57.60153188476562,28.527115853881835,57.78453188476563L51.459415853881836,60.050331884765626C52.34881585388183,60.138231884765624,53.23661585388184,59.869231884765625,53.92761585388183,59.302431884765625C54.618615853881835,58.73573188476563,55.05621585388184,57.91773188476563,55.144115853881836,57.02833188476562C55.14421585388183,57.02713188476562,55.144315853881835,57.025931884765626,55.14441585388184,57.024831884765625C55.167215853881835,56.791931884765624,55.22211585388183,56.561431884765625,55.22291585388184,56.32743188476562C55.22301585388183,56.326231884765626,55.22301585388183,56.32503188476562,55.22301585388183,56.32393188476563L55.22301585388183,44.02090188476562C55.22301585388183,43.468621884765625,54.77521585388183,43.02090188476562,54.22301585388183,43.02090188476562C54.09011585388184,43.02090188476562,53.957915853881836,43.00134188476562,53.830715853881834,42.96284188476562L38.531115853881836,38.33164588476563Z" fill-rule="evenodd" fill="#F7DDD5" fill-opacity="1"/></g><g filter="url(#master_svg1_28_25068)"><path d="M24.09282453125,64.0219421875C19.44373253125,68.26214218749999,19.72549653125,71.1724421875,20.75949553125,75.3552421875C23.01070453125,79.7891421875,33.07399453125,82.1402421875,43.426194531250005,82.0218421875C48.453994531250004,82.0218421875,53.26869453125,81.7462421875,57.71379453125,80.0233421875C65.10229453125001,77.1593421875,68.79919453125001,74.4571421875,73.42619453124999,68.0219421875C78.45029453125,61.0344421875,82.75949453125,50.0219421875,83.42619453124999,40.688542187500005C83.42619453124999,39.0346421875,83.52909453125,37.2339421875,83.63589453125,35.365942187499996C83.91639453125,30.4574421875,84.22349453125,25.0843421875,82.75949453125,20.6886521875C81.53159453125,17.6690721875,80.75949453125,17.3552121875,78.75949453125,16.0219821875C76.75949453125,14.6887551875,68.06939453125,13.9261531875,66.09279453125001,14.6886641875C63.00859453125,16.7742921875,63.03629453125,19.5449021875,64.75949453125,22.6885621875C66.65069453125,26.2596421875,64.92809453125,30.2730421875,62.83779453125,35.143142187500004C62.25859453125,36.492642187499996,61.65119453125,37.907842187499995,61.08459453125,39.3976421875C58.97559453125,51.1498421875,59.42759453125,55.5972421875,59.68979453125,58.1767421875C59.76199453125,58.8878421875,59.81989453125,59.4569421875,59.80569453125,59.9979421875C58.26939453125,67.1204421875,53.00479453125,67.1984421875,46.09279453125,66.68854218749999C35.52869453125,62.4861421875,27.74904453125,61.1396421875,24.09282453125,64.0219421875Z" fill="url(#master_svg2_28_26067)" fill-opacity="1"/></g></g></svg>