<svg xmlns="http://www.w3.org/2000/svg" xmlns:xlink="http://www.w3.org/1999/xlink" fill="none" version="1.1" width="24" height="24.000001907348633" viewBox="0 0 24 24.000001907348633"><defs><clipPath id="master_svg0_5_8027"><rect x="24" y="0" width="24" height="24.000001907348633" rx="0"/></clipPath></defs><g transform="matrix(-1,0,0,1,48,0)" clip-path="url(#master_svg0_5_8027)"><g><path d="M41.81281171875,2.60121071875Q41.99411171875,2.39568371875,42.09111171875,2.13932071875Q42.18801171875,1.88295771875,42.18801171875,1.60888671875Q42.18801171875,1.53519641875,42.18081171875,1.4618607187500001Q42.17351171875,1.38852571875,42.15921171875,1.31625171875Q42.14481171875,1.24397671875,42.12341171875,1.17345971875Q42.10201171875,1.10294271875,42.07381171875,1.03486171875Q42.045611718749996,0.96678071875,42.01091171875,0.90179171875Q41.97611171875,0.83680271875,41.93521171875,0.77553171875Q41.89421171875,0.71425971875,41.84751171875,0.65729671875Q41.80071171875,0.6003367187499999,41.74861171875,0.5482267187500001Q41.69651171875,0.49611671874999996,41.639611718750004,0.4493667187499999Q41.58261171875,0.4026267187499999,41.52131171875,0.3616867187499999Q41.46011171875,0.32074671874999994,41.39511171875,0.28600671874999994Q41.330111718750004,0.25126671874999995,41.26201171875,0.22306671874999995Q41.19393171875,0.19486671874999995,41.12341171875,0.17347671874999993Q41.05290171875,0.1520867187499999,40.98062171875,0.13770671875000007Q40.90835171875,0.12333671875000007,40.835011718749996,0.11610671875Q40.76168171875,0.10888671875,40.68799171875,0.10888671875Q40.528401718750004,0.10888671875,40.37239171875,0.1424567187500001Q40.21639171875,0.17603671875000004,40.07093171875,0.24168671875000003Q39.92548171875,0.30732671874999995,39.797091718749996,0.40210671875000004Q39.668711718750004,0.49689671874999997,39.56313171875,0.61656271875L39.56251171875,0.61726871875L30.18716171875,11.24473671875Q30.14159171875,11.29638671875,30.10094171875,11.35200671875Q30.06030171875,11.40761671875,30.02493171875,11.46672671875Q29.98955171875,11.52582671875,29.95974171875,11.58792671875Q29.92993171875,11.64998671875,29.90594171875,11.71458671875Q29.88195171875,11.77918671875,29.86397171875,11.84568671875Q29.84600171875,11.91218671875,29.83420171875,11.97998671875Q29.82239171875,12.04788671875,29.81686171875,12.11658671875Q29.81132171875,12.18518671875,29.81211171875,12.25408671875Q29.81289171875,12.32298671875,29.81998171875,12.39148671875Q29.82707171875,12.45998671875,29.84041171875,12.52758671875Q29.85375171875,12.59518671875,29.87323171875,12.66118671875Q29.89271171875,12.72728671875,29.91816171875,12.79128671875Q29.94361171875,12.85528671875,29.97483171875,12.91668671875Q30.00604171875,12.97808671875,30.04274171875,13.03638671875Q30.07945171875,13.09468671875,30.12135171875,13.14938671875Q30.16324171875,13.20408671875,30.20997171875,13.25468671875L39.585951718749996,23.40858671875Q39.69129171875,23.52268671875,39.81777171875,23.61278671875Q39.94424171875,23.70288671875,40.08649171875,23.76508671875Q40.22874171875,23.82738671875,40.380721718749996,23.85918671875Q40.53271171875,23.89098671875,40.68799171875,23.89098671875Q40.76168171875,23.89098671875,40.835011718749996,23.88378671875Q40.90835171875,23.87658671875,40.98062171875,23.86218671875Q41.05290171875,23.84778671875,41.12341171875,23.82638671875Q41.19393171875,23.80498671875,41.26201171875,23.77678671875Q41.330111718750004,23.74858671875,41.39511171875,23.71388671875Q41.46011171875,23.67908671875,41.52131171875,23.63818671875Q41.58261171875,23.59728671875,41.639611718750004,23.55048671875Q41.69651171875,23.50378671875,41.74861171875,23.45168671875Q41.80071171875,23.39958671875,41.84751171875,23.34258671875Q41.89421171875,23.28558671875,41.93521171875,23.22438671875Q41.97611171875,23.16308671875,42.01091171875,23.09808671875Q42.045611718749996,23.03308671875,42.07381171875,22.96498671875Q42.10201171875,22.89688671875,42.12341171875,22.82638671875Q42.14481171875,22.75588671875,42.15921171875,22.68358671875Q42.17351171875,22.61138671875,42.18081171875,22.53798671875Q42.18801171875,22.46468671875,42.18801171875,22.39098671875Q42.18801171875,22.10808671875,42.08491171875,21.84468671875Q41.98191171875,21.58118671875,41.79001171875,21.37338671875L33.33251171875,12.21408671875L41.81221171875,2.60191571875L41.81281171875,2.60121071875L41.81281171875,2.60121071875Z" fill-rule="evenodd" fill="#FCFCFC" fill-opacity="1"/></g></g></svg>