<svg xmlns="http://www.w3.org/2000/svg" xmlns:xlink="http://www.w3.org/1999/xlink" fill="none" version="1.1" width="304" height="304" viewBox="0 0 304 304"><defs><filter id="master_svg0_561_50322/561_45959" filterUnits="objectBoundingBox" color-interpolation-filters="sRGB" x="-108" y="-108" width="354" height="354"><feFlood flood-opacity="0" result="BackgroundImageFix"/><feColorMatrix in="SourceAlpha" type="matrix" values="0 0 0 0 0 0 0 0 0 0 0 0 0 0 0 0 0 0 127 0"/><feMorphology radius="8" operator="dilate" in="SourceAlpha" result="effect1_dropShadow"/><feOffset dy="0" dx="0"/><feGaussianBlur stdDeviation="25"/><feColorMatrix type="matrix" values="0 0 0 0 0.0313725508749485 0 0 0 0 0.8470588326454163 0 0 0 0 0.800000011920929 0 0 0 1 0"/><feBlend mode="normal" in2="BackgroundImageFix" result="effect1_dropShadow"/><feBlend mode="normal" in="SourceGraphic" in2="effect1_dropShadow" result="shape"/></filter></defs><g><g transform="matrix(0,1,-1,0,304,-138)" filter="url(#master_svg0_561_50322/561_45959)"><ellipse cx="290" cy="152" rx="69" ry="69" fill="#00DAD0" fill-opacity="1"/></g><g><path d="M173.72830468749999,137.10084375L173.7291046875,137.10219375Q173.7952046875,137.21382375,173.8751046875,137.31599375Q173.9551046875,137.41815375,174.0475046875,137.50913375Q174.1400046875,137.60011375,174.2434046875,137.67839375Q174.3469046875,137.75666375,174.4596046875,137.82091375Q174.5723046875,137.88517375,174.69230468749998,137.93432375Q174.8124046875,137.98348375,174.9378046875,138.01671375Q175.0632046875,138.04995375,175.1918046875,138.06670375Q175.3205046875,138.08346375,175.4502046875,138.08346375Q175.5484046875,138.08346375,175.64620468750002,138.07383375Q175.7440046875,138.06420375,175.84040468749998,138.04503375Q175.9367046875,138.02587375,176.0308046875,137.99734375Q176.1248046875,137.96882375,176.2156046875,137.93122375Q176.30630468750002,137.89362375,176.3930046875,137.84731375Q176.4796046875,137.80099375,176.5613046875,137.74640375Q176.6430046875,137.69182375,176.7190046875,137.62948375Q176.7949046875,137.56715375,176.86440468749998,137.49768375Q176.9339046875,137.42820375,176.99620468749998,137.35225375Q177.0585046875,137.27630375,177.1131046875,137.19460375Q177.1677046875,137.11291375,177.2140046875,137.02626375Q177.2603046875,136.93960375,177.2979046875,136.84883375Q177.3355046875,136.75805375,177.3641046875,136.66403375Q177.3926046875,136.57001375,177.4118046875,136.47364375Q177.4309046875,136.37728375,177.4406046875,136.27950375Q177.4502046875,136.18172375,177.4502046875,136.08346375Q177.4502046875,135.81464375,177.3792046875,135.55536375Q177.3082046875,135.29608375,177.1713046875,135.06474375L177.1712046875,135.06462375Q177.1702046875,135.06291375,177.16920468749998,135.06119375Q173.1830046875,128.32869975,167.9455046875,127.37229375Q162.7109046875,126.41640375,157.6764046875,131.33657375Q156.6542046875,132.33549375,155.1897046875,132.88024375Q153.7398046875,133.41958375,152.1301046875,133.41866375Q150.5204046875,133.41774375,149.0940046875,132.87637375Q147.6528046875,132.32939375,146.6638046875,131.32316375Q144.0794046875,128.69370375,141.3868046875,127.58736375Q138.5480946875,126.42099375,135.7807246875,126.99730375Q130.45896468749999,128.10558475,126.77690468750001,135.15781375Q126.5498046875,135.59278375,126.5498046875,136.08346375Q126.5498046875,136.18172375,126.5594346875,136.27950375Q126.5690646875,136.37728375,126.5882346875,136.47364375Q126.6074046875,136.57001375,126.6359246875,136.66403375Q126.6644446875,136.75806375,126.7020446875,136.84883375Q126.7396446875,136.93960375,126.7859646875,137.02626375Q126.8322746875,137.11291375,126.8868646875,137.19460375Q126.9414546875,137.27630375,127.0037846875,137.35225375Q127.0661146875,137.42820375,127.1355946875,137.49768375Q127.2050646875,137.56715375,127.2810146875,137.62948375Q127.3569646875,137.69182375,127.4386646875,137.74640375Q127.5203546875,137.80099375,127.6070116875,137.84731375Q127.6936636875,137.89362375,127.7844376875,137.93122375Q127.8752126875,137.96882375,127.9692356875,137.99734375Q128.0632586875,138.02587375,128.1596236875,138.04503375Q128.2559896875,138.06420375,128.3537706875,138.07383375Q128.4515509875,138.08346375,128.5498046875,138.08346375Q128.6862176875,138.08346375,128.8213676875,138.06494375Q128.9565166875,138.04642375,129.0878996875,138.00972375Q129.2192826875,137.97302375,129.3444656875,137.91881375Q129.4696486875,137.86461375,129.5863146875,137.79392375Q129.7029746875,137.72322375,129.8089646875,137.63734375Q129.9149446875,137.55145375,130.0082846875,137.45198375Q130.1016246875,137.35250375,130.1805946875,137.24127375Q130.2595646875,137.13004375,130.3227046875,137.00911375Q130.3234746875,137.00764375,130.3242446875,137.00617375Q133.1292846875,131.63529375,136.5962446875,130.91329375Q139.9632046875,130.21211375,143.8110046875,134.12704375Q145.4142046875,135.75819375,147.6747046875,136.61609375Q149.7858046875,137.41732375,152.1278046875,137.41866375Q154.4585046875,137.41999375,156.5842046875,136.62929375Q158.8435046875,135.78890375,160.4721046875,134.19729375Q164.0272046875,130.72292375,167.2270046875,131.30722375Q170.6709046875,131.93611375,173.72830468749999,137.10084375Z" fill-rule="evenodd" fill="#FFFFFF" fill-opacity="1"/></g><g><path d="M173.72830468749999,155.6438125L173.7291046875,155.6451625Q173.7952046875,155.7567925,173.8751046875,155.8589625Q173.9551046875,155.9611225,174.0475046875,156.0521025Q174.1400046875,156.1430825,174.2434046875,156.2213625Q174.3469046875,156.2996325,174.4596046875,156.3638825Q174.5723046875,156.4281425,174.69230468749998,156.4772925Q174.8124046875,156.5264525,174.9378046875,156.5596825Q175.0632046875,156.5929225,175.1918046875,156.6096725Q175.3205046875,156.6264325,175.4502046875,156.6264325Q175.5484046875,156.6264325,175.64620468750002,156.6168025Q175.7440046875,156.6071725,175.84040468749998,156.5880025Q175.9367046875,156.5688425,176.0308046875,156.5403125Q176.1248046875,156.5117925,176.2156046875,156.4741925Q176.30630468750002,156.4365925,176.3930046875,156.3902825Q176.4796046875,156.3439625,176.5613046875,156.2893725Q176.6430046875,156.2347925,176.7190046875,156.1724525Q176.7949046875,156.1101225,176.86440468749998,156.0406525Q176.9339046875,155.9711725,176.99620468749998,155.8952225Q177.0585046875,155.8192725,177.1131046875,155.7375725Q177.1677046875,155.6558825,177.2140046875,155.5692325Q177.2603046875,155.4825725,177.2979046875,155.3918025Q177.3355046875,155.3010225,177.3641046875,155.2070025Q177.3926046875,155.1129825,177.4118046875,155.0166125Q177.4309046875,154.9202525,177.4406046875,154.8224725Q177.4502046875,154.7246925,177.4502046875,154.6264325Q177.4502046875,154.3576125,177.3792046875,154.0983325Q177.3082046875,153.8390525,177.1713046875,153.6077125L177.1712046875,153.6075925Q177.1702046875,153.6058825,177.16920468749998,153.6041625Q173.1830046875,146.8716685,167.9455046875,145.9152625Q162.7109046875,144.9593725,157.6764046875,149.8795425Q156.6542046875,150.8784625,155.1897046875,151.4232125Q153.7398046875,151.9625525,152.1301046875,151.9616325Q150.5204046875,151.9607125,149.0940046875,151.4193425Q147.6528046875,150.8723625,146.6638046875,149.8661325Q144.0794046875,147.2366725,141.3868046875,146.1303325Q138.5480946875,144.9639625,135.7807246875,145.5402725Q130.45896468749999,146.6485535,126.77690468750001,153.7007825Q126.5498046875,154.1357525,126.5498046875,154.6264325Q126.5498046875,154.7246925,126.5594346875,154.8224725Q126.5690646875,154.9202525,126.5882346875,155.0166125Q126.6074046875,155.1129825,126.6359246875,155.2070025Q126.6644446875,155.3010325,126.7020446875,155.3918025Q126.7396446875,155.4825725,126.7859646875,155.5692325Q126.8322746875,155.6558825,126.8868646875,155.7375725Q126.9414546875,155.8192725,127.0037846875,155.8952225Q127.0661146875,155.9711725,127.1355946875,156.0406525Q127.2050646875,156.1101225,127.2810146875,156.1724525Q127.3569646875,156.2347925,127.4386646875,156.2893725Q127.5203546875,156.3439625,127.6070116875,156.3902825Q127.6936636875,156.4365925,127.7844376875,156.4741925Q127.8752126875,156.5117925,127.9692356875,156.5403125Q128.0632586875,156.5688425,128.1596236875,156.5880025Q128.2559896875,156.6071725,128.3537706875,156.6168025Q128.4515509875,156.6264325,128.5498046875,156.6264325Q128.6862176875,156.6264325,128.8213676875,156.6079125Q128.9565166875,156.5893925,129.0878996875,156.5526925Q129.2192826875,156.5159925,129.3444656875,156.4617825Q129.4696486875,156.4075825,129.5863146875,156.3368925Q129.7029746875,156.2661925,129.8089646875,156.1803125Q129.9149446875,156.0944225,130.0082846875,155.9949525Q130.1016246875,155.8954725,130.1805946875,155.7842425Q130.2595646875,155.6730125,130.3227046875,155.5520825Q130.3234746875,155.5506125,130.3242446875,155.5491425Q133.1292846875,150.1782625,136.5962446875,149.4562625Q139.9632046875,148.7550825,143.8110046875,152.6700125Q145.4142046875,154.3011625,147.6747046875,155.1590625Q149.7858046875,155.9602925,152.1278046875,155.9616325Q154.4585046875,155.9629625,156.5842046875,155.1722625Q158.8435046875,154.3318725,160.4721046875,152.7402625Q164.0272046875,149.2658925,167.2270046875,149.8501925Q170.6709046875,150.4790825,173.72830468749999,155.6438125Z" fill-rule="evenodd" fill="#66E9E3" fill-opacity="1"/></g><g><path d="M173.72830468749999,174.18678125L173.7291046875,174.18813125Q173.7952046875,174.29976125,173.8751046875,174.40193125Q173.9551046875,174.50409125,174.0475046875,174.59507125Q174.1400046875,174.68605125,174.2434046875,174.76433125Q174.3469046875,174.84260125,174.4596046875,174.90685125Q174.5723046875,174.97111125,174.69230468749998,175.02026125Q174.8124046875,175.06942125,174.9378046875,175.10265125Q175.0632046875,175.13589125,175.1918046875,175.15264125Q175.3205046875,175.16940125,175.4502046875,175.16940125Q175.5484046875,175.16940125,175.64620468750002,175.15977125Q175.7440046875,175.15014125,175.84040468749998,175.13097125Q175.9367046875,175.11181125,176.0308046875,175.08328125Q176.1248046875,175.05476125,176.2156046875,175.01716125Q176.30630468750002,174.97956125,176.3930046875,174.93325125Q176.4796046875,174.88693125,176.5613046875,174.83234125Q176.6430046875,174.77776125,176.7190046875,174.71542125Q176.7949046875,174.65309125,176.86440468749998,174.58362125Q176.9339046875,174.51414125,176.99620468749998,174.43819125Q177.0585046875,174.36224125,177.1131046875,174.28054125Q177.1677046875,174.19885125,177.2140046875,174.11220125Q177.2603046875,174.02554125,177.2979046875,173.93477125Q177.3355046875,173.84399125,177.3641046875,173.74997125Q177.3926046875,173.65595125,177.4118046875,173.55958125Q177.4309046875,173.46322125,177.4406046875,173.36544125Q177.4502046875,173.26766125,177.4502046875,173.16940125Q177.4502046875,172.90058125,177.3792046875,172.64130125Q177.3082046875,172.38202125,177.1713046875,172.15068125L177.1712046875,172.15056125Q177.1702046875,172.14885125,177.16920468749998,172.14713125Q173.1830046875,165.41463725,167.9455046875,164.45823125Q162.7109046875,163.50234125,157.6764046875,168.42251125Q156.6542046875,169.42143125,155.1897046875,169.96618125Q153.7398046875,170.50552125,152.1301046875,170.50460125Q150.5204046875,170.50368125,149.0940046875,169.96231125Q147.6528046875,169.41533125,146.6638046875,168.40910125Q144.0794046875,165.77964125,141.3868046875,164.67330125Q138.5480946875,163.50693125,135.7807246875,164.08324125Q130.45896468749999,165.19152225,126.77690468750001,172.24375125Q126.5498046875,172.67872125,126.5498046875,173.16940125Q126.5498046875,173.26766125,126.5594346875,173.36544125Q126.5690646875,173.46322125,126.5882346875,173.55958125Q126.6074046875,173.65595125,126.6359246875,173.74997125Q126.6644446875,173.84400125,126.7020446875,173.93477125Q126.7396446875,174.02554125,126.7859646875,174.11220125Q126.8322746875,174.19885125,126.8868646875,174.28054125Q126.9414546875,174.36224125,127.0037846875,174.43819125Q127.0661146875,174.51414125,127.1355946875,174.58362125Q127.2050646875,174.65309125,127.2810146875,174.71542125Q127.3569646875,174.77776125,127.4386646875,174.83234125Q127.5203546875,174.88693125,127.6070116875,174.93325125Q127.6936636875,174.97956125,127.7844376875,175.01716125Q127.8752126875,175.05476125,127.9692356875,175.08328125Q128.0632586875,175.11181125,128.1596236875,175.13097125Q128.2559896875,175.15014125,128.3537706875,175.15977125Q128.4515509875,175.16940125,128.5498046875,175.16940125Q128.6862176875,175.16940125,128.8213676875,175.15088125Q128.9565166875,175.13236125,129.0878996875,175.09566125Q129.2192826875,175.05896125,129.3444656875,175.00475125Q129.4696486875,174.95055125,129.5863146875,174.87986125Q129.7029746875,174.80916125,129.8089646875,174.72328125Q129.9149446875,174.63739125,130.0082846875,174.53792125Q130.1016246875,174.43844125,130.1805946875,174.32721125Q130.2595646875,174.21598125,130.3227046875,174.09505125Q130.3234746875,174.09358125,130.3242446875,174.09211125Q133.1292846875,168.72123125,136.5962446875,167.99923125Q139.9632046875,167.29805125,143.8110046875,171.21298125Q145.4142046875,172.84413125,147.6747046875,173.70203125Q149.7858046875,174.50326125,152.1278046875,174.50460125Q154.4585046875,174.50593125,156.5842046875,173.71523125Q158.8435046875,172.87484125,160.4721046875,171.28323125Q164.0272046875,167.80886125,167.2270046875,168.39316125Q170.6709046875,169.02205125,173.72830468749999,174.18678125Z" fill-rule="evenodd" fill="#66E9E3" fill-opacity="1"/></g></g></svg>