<svg xmlns="http://www.w3.org/2000/svg" xmlns:xlink="http://www.w3.org/1999/xlink" fill="none" version="1.1" width="138" height="138" viewBox="0 0 138 138"><g><g transform="matrix(0,1,-1,0,138,-138)" style="opacity:0.8500000238418579;"><ellipse cx="207" cy="69" rx="69" ry="69" fill="#585C7E" fill-opacity="1"/></g><g><path d="M90.7283046875,54.100843749999996L90.7291046875,54.10219375Q90.79520468749999,54.21382375,90.8751046875,54.315993750000004Q90.9551046875,54.41815375,91.04750468750001,54.509133750000004Q91.14000468750001,54.60011375,91.2434046875,54.67839375Q91.3469046875,54.75666375,91.45960468749999,54.82091375Q91.57230468750001,54.88517375,91.6923046875,54.934323750000004Q91.81240468749999,54.98348375,91.9378046875,55.01671375Q92.06320468749999,55.04995375,92.1918046875,55.06670375Q92.3205046875,55.08346375,92.45020468749999,55.08346375Q92.54840468750001,55.08346375,92.6462046875,55.07383375Q92.7440046875,55.064203750000004,92.8404046875,55.04503375Q92.9367046875,55.02587375,93.0308046875,54.99734375Q93.1248046875,54.96882375,93.21560468749999,54.93122375Q93.3063046875,54.89362375,93.3930046875,54.84731375Q93.4796046875,54.80099375,93.5613046875,54.74640375Q93.6430046875,54.69182375,93.71900468749999,54.62948375Q93.79490468750001,54.56715375,93.8644046875,54.49768375Q93.93390468749999,54.42820375,93.9962046875,54.35225375Q94.0585046875,54.27630375,94.1131046875,54.19460375Q94.16770468749999,54.112913750000004,94.2140046875,54.02626375Q94.2603046875,53.93960375,94.2979046875,53.84883375Q94.33550468749999,53.75805375,94.3641046875,53.66403375Q94.3926046875,53.57001375,94.4118046875,53.47364375Q94.4309046875,53.377283750000004,94.4406046875,53.27950375Q94.45020468749999,53.18172375,94.45020468749999,53.08346375Q94.45020468749999,52.81464375,94.37920468749999,52.55536375Q94.3082046875,52.29608375,94.1713046875,52.06474375L94.1712046875,52.06462375Q94.17020468749999,52.06291375,94.1692046875,52.06119375Q90.1830046875,45.32869975,84.9455046875,44.37229375Q79.7109046875,43.41640375,74.6764046875,48.33657375Q73.6542046875,49.33549375,72.1897046875,49.88024375Q70.7398046875,50.41958375,69.1301046875,50.41866375Q67.5204046875,50.41774375,66.0940046875,49.87637375Q64.65280468750001,49.32939375,63.663804687500004,48.32316375Q61.0794046875,45.69370375,58.3868046875,44.58736375Q55.5480946875,43.42099375,52.7807246875,43.99730375Q47.4589646875,45.10558475,43.7769046875,52.15781375Q43.5498046875,52.59278375,43.5498046875,53.08346375Q43.5498046875,53.18172375,43.5594346875,53.27950375Q43.5690646875,53.377283750000004,43.5882346875,53.47364375Q43.6074046875,53.57001375,43.6359246875,53.66403375Q43.6644446875,53.75806375,43.7020446875,53.84883375Q43.7396446875,53.93960375,43.7859646875,54.02626375Q43.8322746875,54.112913750000004,43.8868646875,54.19460375Q43.9414546875,54.27630375,44.0037846875,54.35225375Q44.0661146875,54.42820375,44.1355946875,54.49768375Q44.2050646875,54.56715375,44.2810146875,54.62948375Q44.3569646875,54.69182375,44.4386646875,54.74640375Q44.5203546875,54.80099375,44.6070116875,54.84731375Q44.6936636875,54.89362375,44.7844376875,54.93122375Q44.8752126875,54.96882375,44.9692356875,54.99734375Q45.0632586875,55.02587375,45.1596236875,55.04503375Q45.2559896875,55.064203750000004,45.3537706875,55.07383375Q45.4515509875,55.08346375,45.5498046875,55.08346375Q45.6862176875,55.08346375,45.8213676875,55.06494375Q45.9565166875,55.04642375,46.0878996875,55.00972375Q46.2192826875,54.973023749999996,46.3444656875,54.91881375Q46.4696486875,54.864613750000004,46.5863146875,54.79392375Q46.7029746875,54.72322375,46.8089646875,54.63734375Q46.9149446875,54.55145375,47.0082846875,54.45198375Q47.1016246875,54.35250375,47.1805946875,54.24127375Q47.2595646875,54.13004375,47.3227046875,54.00911375Q47.3234746875,54.00764375,47.3242446875,54.00617375Q50.129284687500004,48.63529375,53.596244687500004,47.91329375Q56.963204687499996,47.21211375,60.8110046875,51.12704375Q62.4142046875,52.758193750000004,64.6747046875,53.61609375Q66.7858046875,54.41732375,69.1278046875,54.41866375Q71.4585046875,54.41999375,73.5842046875,53.62929375Q75.8435046875,52.78890375,77.4721046875,51.19729375Q81.0272046875,47.72292375,84.2270046875,48.30722375Q87.6709046875,48.93611375,90.7283046875,54.100843749999996Z" fill-rule="evenodd" fill="#FFFFFF" fill-opacity="1"/></g><g><path d="M90.7283046875,72.6438125L90.7291046875,72.6451625Q90.79520468749999,72.7567925,90.8751046875,72.8589625Q90.9551046875,72.9611225,91.04750468750001,73.0521025Q91.14000468750001,73.1430825,91.2434046875,73.2213625Q91.3469046875,73.2996325,91.45960468749999,73.3638825Q91.57230468750001,73.4281425,91.6923046875,73.4772925Q91.81240468749999,73.5264525,91.9378046875,73.5596825Q92.06320468749999,73.5929225,92.1918046875,73.6096725Q92.3205046875,73.62643249999999,92.45020468749999,73.62643249999999Q92.54840468750001,73.62643249999999,92.6462046875,73.6168025Q92.7440046875,73.6071725,92.8404046875,73.5880025Q92.9367046875,73.5688425,93.0308046875,73.5403125Q93.1248046875,73.5117925,93.21560468749999,73.4741925Q93.3063046875,73.4365925,93.3930046875,73.3902825Q93.4796046875,73.3439625,93.5613046875,73.2893725Q93.6430046875,73.2347925,93.71900468749999,73.1724525Q93.79490468750001,73.1101225,93.8644046875,73.0406525Q93.93390468749999,72.9711725,93.9962046875,72.8952225Q94.0585046875,72.8192725,94.1131046875,72.7375725Q94.16770468749999,72.6558825,94.2140046875,72.5692325Q94.2603046875,72.4825725,94.2979046875,72.3918025Q94.33550468749999,72.3010225,94.3641046875,72.2070025Q94.3926046875,72.1129825,94.4118046875,72.0166125Q94.4309046875,71.9202525,94.4406046875,71.8224725Q94.45020468749999,71.7246925,94.45020468749999,71.62643249999999Q94.45020468749999,71.3576125,94.37920468749999,71.0983325Q94.3082046875,70.8390525,94.1713046875,70.6077125L94.1712046875,70.6075925Q94.17020468749999,70.6058825,94.1692046875,70.6041625Q90.1830046875,63.8716685,84.9455046875,62.9152625Q79.7109046875,61.9593725,74.6764046875,66.8795425Q73.6542046875,67.8784625,72.1897046875,68.4232125Q70.7398046875,68.9625525,69.1301046875,68.96163250000001Q67.5204046875,68.9607125,66.0940046875,68.4193425Q64.65280468750001,67.8723625,63.663804687500004,66.8661325Q61.0794046875,64.2366725,58.3868046875,63.1303325Q55.5480946875,61.9639625,52.7807246875,62.5402725Q47.4589646875,63.6485535,43.7769046875,70.7007825Q43.5498046875,71.1357525,43.5498046875,71.62643249999999Q43.5498046875,71.7246925,43.5594346875,71.8224725Q43.5690646875,71.9202525,43.5882346875,72.0166125Q43.6074046875,72.1129825,43.6359246875,72.2070025Q43.6644446875,72.3010325,43.7020446875,72.3918025Q43.7396446875,72.4825725,43.7859646875,72.5692325Q43.8322746875,72.6558825,43.8868646875,72.7375725Q43.9414546875,72.8192725,44.0037846875,72.8952225Q44.0661146875,72.9711725,44.1355946875,73.0406525Q44.2050646875,73.1101225,44.2810146875,73.1724525Q44.3569646875,73.2347925,44.4386646875,73.2893725Q44.5203546875,73.3439625,44.6070116875,73.3902825Q44.6936636875,73.4365925,44.7844376875,73.4741925Q44.8752126875,73.5117925,44.9692356875,73.5403125Q45.0632586875,73.5688425,45.1596236875,73.5880025Q45.2559896875,73.6071725,45.3537706875,73.6168025Q45.4515509875,73.62643249999999,45.5498046875,73.62643249999999Q45.6862176875,73.62643249999999,45.8213676875,73.6079125Q45.9565166875,73.5893925,46.0878996875,73.5526925Q46.2192826875,73.5159925,46.3444656875,73.4617825Q46.4696486875,73.4075825,46.5863146875,73.3368925Q46.7029746875,73.2661925,46.8089646875,73.1803125Q46.9149446875,73.09442250000001,47.0082846875,72.9949525Q47.1016246875,72.8954725,47.1805946875,72.7842425Q47.2595646875,72.6730125,47.3227046875,72.5520825Q47.3234746875,72.5506125,47.3242446875,72.5491425Q50.129284687500004,67.1782625,53.596244687500004,66.4562625Q56.963204687499996,65.7550825,60.8110046875,69.6700125Q62.4142046875,71.3011625,64.6747046875,72.1590625Q66.7858046875,72.9602925,69.1278046875,72.96163250000001Q71.4585046875,72.9629625,73.5842046875,72.1722625Q75.8435046875,71.3318725,77.4721046875,69.7402625Q81.0272046875,66.2658925,84.2270046875,66.8501925Q87.6709046875,67.4790825,90.7283046875,72.6438125Z" fill-rule="evenodd" fill="#FFFFFF" fill-opacity="1"/></g><g><path d="M90.7283046875,91.18678125L90.7291046875,91.18813125Q90.79520468749999,91.29976125,90.8751046875,91.40193125Q90.9551046875,91.50409125,91.04750468750001,91.59507125Q91.14000468750001,91.68605125,91.2434046875,91.76433125Q91.3469046875,91.84260125,91.45960468749999,91.90685125Q91.57230468750001,91.97111125,91.6923046875,92.02026125Q91.81240468749999,92.06942125,91.9378046875,92.10265125Q92.06320468749999,92.13589125,92.1918046875,92.15264125Q92.3205046875,92.16940124999999,92.45020468749999,92.16940124999999Q92.54840468750001,92.16940124999999,92.6462046875,92.15977125Q92.7440046875,92.15014125,92.8404046875,92.13097125Q92.9367046875,92.11181125,93.0308046875,92.08328125Q93.1248046875,92.05476125,93.21560468749999,92.01716125Q93.3063046875,91.97956125,93.3930046875,91.93325125Q93.4796046875,91.88693125,93.5613046875,91.83234125Q93.6430046875,91.77776125,93.71900468749999,91.71542125Q93.79490468750001,91.65309125,93.8644046875,91.58362125Q93.93390468749999,91.51414125,93.9962046875,91.43819125Q94.0585046875,91.36224125,94.1131046875,91.28054125Q94.16770468749999,91.19885125,94.2140046875,91.11220125Q94.2603046875,91.02554125,94.2979046875,90.93477125Q94.33550468749999,90.84399125,94.3641046875,90.74997125Q94.3926046875,90.65595125,94.4118046875,90.55958125Q94.4309046875,90.46322125,94.4406046875,90.36544125Q94.45020468749999,90.26766125,94.45020468749999,90.16940124999999Q94.45020468749999,89.90058125,94.37920468749999,89.64130125Q94.3082046875,89.38202125,94.1713046875,89.15068125L94.1712046875,89.15056125Q94.17020468749999,89.14885125,94.1692046875,89.14713125Q90.1830046875,82.41463725,84.9455046875,81.45823125Q79.7109046875,80.50234125,74.6764046875,85.42251125Q73.6542046875,86.42143125,72.1897046875,86.96618125Q70.7398046875,87.50552125,69.1301046875,87.50460125000001Q67.5204046875,87.50368125,66.0940046875,86.96231125Q64.65280468750001,86.41533125,63.663804687500004,85.40910125Q61.0794046875,82.77964125,58.3868046875,81.67330125Q55.5480946875,80.50693125,52.7807246875,81.08324125Q47.4589646875,82.19152225,43.7769046875,89.24375125Q43.5498046875,89.67872125,43.5498046875,90.16940124999999Q43.5498046875,90.26766125,43.5594346875,90.36544125Q43.5690646875,90.46322125,43.5882346875,90.55958125Q43.6074046875,90.65595125,43.6359246875,90.74997125Q43.6644446875,90.84400125,43.7020446875,90.93477125Q43.7396446875,91.02554125,43.7859646875,91.11220125Q43.8322746875,91.19885125,43.8868646875,91.28054125Q43.9414546875,91.36224125,44.0037846875,91.43819125Q44.0661146875,91.51414125,44.1355946875,91.58362125Q44.2050646875,91.65309125,44.2810146875,91.71542125Q44.3569646875,91.77776125,44.4386646875,91.83234125Q44.5203546875,91.88693125,44.6070116875,91.93325125Q44.6936636875,91.97956125,44.7844376875,92.01716125Q44.8752126875,92.05476125,44.9692356875,92.08328125Q45.0632586875,92.11181125,45.1596236875,92.13097125Q45.2559896875,92.15014125,45.3537706875,92.15977125Q45.4515509875,92.16940124999999,45.5498046875,92.16940124999999Q45.6862176875,92.16940124999999,45.8213676875,92.15088125Q45.9565166875,92.13236125,46.0878996875,92.09566125Q46.2192826875,92.05896125,46.3444656875,92.00475125Q46.4696486875,91.95055125,46.5863146875,91.87986125Q46.7029746875,91.80916125,46.8089646875,91.72328125Q46.9149446875,91.63739125000001,47.0082846875,91.53792125Q47.1016246875,91.43844125,47.1805946875,91.32721125Q47.2595646875,91.21598125,47.3227046875,91.09505125Q47.3234746875,91.09358125,47.3242446875,91.09211125Q50.129284687500004,85.72123125,53.596244687500004,84.99923125Q56.963204687499996,84.29805125,60.8110046875,88.21298125Q62.4142046875,89.84413125,64.6747046875,90.70203125Q66.7858046875,91.50326125,69.1278046875,91.50460125000001Q71.4585046875,91.50593125,73.5842046875,90.71523125Q75.8435046875,89.87484125,77.4721046875,88.28323125Q81.0272046875,84.80886125,84.2270046875,85.39316125Q87.6709046875,86.02205125,90.7283046875,91.18678125Z" fill-rule="evenodd" fill="#FFFFFF" fill-opacity="1"/></g></g></svg>