<svg xmlns="http://www.w3.org/2000/svg" xmlns:xlink="http://www.w3.org/1999/xlink" fill="none" version="1.1" width="104" height="110.7431640625" viewBox="0 0 104 110.7431640625"><defs><linearGradient x1="0.5" y1="0" x2="0.5" y2="1" id="master_svg0_144_02455"><stop offset="0.7142857182770967%" stop-color="#3E8CF4" stop-opacity="1"/><stop offset="98.57142567634583%" stop-color="#2B66F3" stop-opacity="1"/></linearGradient><linearGradient x1="0.1967732459306717" y1="0.10893445461988449" x2="0.9370428919792175" y2="0.5843615531921387" id="master_svg1_36_5063"><stop offset="0%" stop-color="#4AA4F5" stop-opacity="1"/><stop offset="99.99992251396179%" stop-color="#60CEF7" stop-opacity="1"/></linearGradient><linearGradient x1="0.5" y1="0" x2="0.5" y2="1" id="master_svg2_201_1687"><stop offset="0%" stop-color="#FFFFFF" stop-opacity="1"/><stop offset="100%" stop-color="#FFFFFF" stop-opacity="0.7400000095367432"/></linearGradient><linearGradient x1="0.5" y1="0" x2="0.5" y2="1" id="master_svg3_144_02476"><stop offset="0%" stop-color="#7B8DF0" stop-opacity="1"/><stop offset="100%" stop-color="#2559F3" stop-opacity="1"/></linearGradient><filter id="master_svg4_201_923" filterUnits="objectBoundingBox" color-interpolation-filters="sRGB" x="-14" y="-14" width="60" height="59"><feFlood flood-opacity="0" result="BackgroundImageFix"/><feBlend mode="normal" in="SourceGraphic" in2="BackgroundImageFix" result="shape"/><feGaussianBlur stdDeviation="3.5" result="effect1_foregroundBlur"/></filter><linearGradient x1="0.5" y1="0" x2="0.5" y2="1" id="master_svg5_201_0227"><stop offset="0%" stop-color="#1940BF" stop-opacity="1"/><stop offset="100%" stop-color="#275BEE" stop-opacity="1"/></linearGradient></defs><g><g><rect x="0" y="0" width="104" height="104" rx="24" fill="url(#master_svg0_144_02455)" fill-opacity="1"/></g><g><path d="M12.97509765625,101.318L12.97509765625,2.682Q14.24842765625,2.0235,15.59108765625,1.52125Q16.933757656250002,1.01899,18.32665765625,0.680138Q19.71955765625,0.341282,21.14289765625,0.170641Q22.56622765625,-9.60187e-16,23.99979765625,0L79.99979765625,0Q81.43329765625,0,82.85669765625,0.170651Q84.28009765625,0.341302,85.67299765625,0.680177Q87.06599765625,1.01905,88.40859765625,1.52133Q89.75129765625,2.02361,91.02469765625,2.68215L91.02469765625,101.318Q89.75129765625,101.976,88.40859765625,102.479Q87.06599765625,102.981,85.67299765625,103.32Q84.28009765625,103.659,82.85669765625,103.829Q81.43329765625,104,79.99979765625,104L23.99979765625,104Q22.56622765625,104,21.14289765625,103.829Q19.71955765625,103.659,18.32665765625,103.32Q16.933757656250002,102.981,15.59108765625,102.479Q14.24842765625,101.976,12.97509765625,101.318Z" fill-rule="evenodd" fill="url(#master_svg1_36_5063)" fill-opacity="1"/></g><g><path d="M53.8908984375,21.085546875Q57.0108984375,21.085546875,59.4508984375,22.245546875000002Q61.8908984375,23.405546875,63.2308984375,25.525546875Q64.5708984375,27.645546875,64.5708984375,30.365546875Q64.5708984375,33.085546875,63.2308984375,35.185546875Q61.8908984375,37.285546875,59.4708984375,38.445546875000005Q57.0508984375,39.605546875,53.8908984375,39.605546875L48.8108984375,39.605546875L48.8108984375,50.365546875L44.5308984375,50.365546875L44.5308984375,21.085546875L53.8908984375,21.085546875ZM53.3708984375,35.885546875Q56.5308984375,35.885546875,58.2708984375,34.385546875Q60.0108984375,32.885546875,60.0108984375,30.365546875Q60.0108984375,27.845546875,58.2708984375,26.325546875Q56.5308984375,24.805546875,53.3708984375,24.805546875L48.8108984375,24.805546875L48.8108984375,35.885546875L53.3708984375,35.885546875Z" fill="#FFFFFF" fill-opacity="1"/></g><g><path d="M47.79374921875,54.1953125C33.80254921875,54.1953125,22.46044921875,65.5374125,22.46044921875,79.52861250000001L23.04140321875,104.0000125L29.05826921875,104.0000125L30.46044921875,79.52861250000001Q30.46044921875,75.99691250000001,31.81930921875,72.7842125Q33.13434921875,69.6750125,35.53724921875,67.2721125Q37.94014921875,64.8692125,41.049349218749995,63.5541725Q44.26204921875,62.1953125,47.79374921875,62.1953125L56.20704921875,62.1953125Q59.73874921875,62.1953125,62.95144921875,63.5541725Q66.06064921875,64.8692125,68.46354921875,67.2721125Q70.86644921875,69.6750125,72.18154921875,72.7842125Q73.54034921875001,75.99691250000001,73.54034921875001,79.52861250000001L74.97464921875,104.0000125L80.95934921874999,104.0000125L81.54034921875001,79.52861250000001C81.54034921875001,65.5374125,70.19824921875,54.1953125,56.20704921875,54.1953125L47.79374921875,54.1953125Z" fill-rule="evenodd" fill="url(#master_svg2_201_1687)" fill-opacity="1"/></g><g><path d="M74.91047890625,103.999534375L74.08817890625,79.003634375C73.78067890625,69.657594375,66.11527890625,62.240234375,56.764178906249995,62.240234375L47.10987890625,62.240234375C37.75877890625,62.240234375,30.09336890625,69.657594375,29.78587690625,79.003634375L28.96349472425,103.999534375L74.91047890625,103.999534375Z" fill-rule="evenodd" fill="url(#master_svg3_144_02476)" fill-opacity="1"/></g><g style="opacity:0.8999999761581421;" filter="url(#master_svg4_201_923)"><rect x="36" y="69.2431640625" width="32" height="31" rx="12" fill="url(#master_svg5_201_0227)" fill-opacity="1"/></g></g></svg>