<svg xmlns="http://www.w3.org/2000/svg" xmlns:xlink="http://www.w3.org/1999/xlink" fill="none" version="1.1" width="80" height="80" viewBox="0 0 80 80"><defs><clipPath id="master_svg0_5_9370"><rect x="0" y="0" width="80" height="80" rx="0"/></clipPath></defs><g clip-path="url(#master_svg0_5_9370)"><g><path d="M60.66971640625,58.210769921875Q60.41631640625,57.700569921875,59.93221640625,57.400369921875Q59.44801640625,57.100169921875,58.87841640625,57.100169921875L21.36911640625,57.100169921875Q20.73961640625,57.100169921875,20.22361640625,57.460769921875Q19.70761640625,57.821369921875,19.49111640625,58.412469921875L18.71221640625,60.539169921875Q18.06271640625,62.312469921875,16.514716406250002,63.394169921875Q14.96661640625,64.475869921875,13.07811640625,64.475869921875L8.98681640625,64.475869921875Q6.5015364062500005,64.475869921875,4.74417640625,62.718469921875Q2.98681640625,60.961069921875,2.98681640625,58.475869921875L2.98681640625,39.538069921875Q2.98681640625,37.551169921875,4.17271640625,35.956969921875L17.572916406250002,17.943049921875Q18.422016406250002,16.801599921875,19.69321640625,16.162886921875Q20.96441640625,15.524169921875,22.38701640625,15.524169921875L57.89711640625,15.524169921875Q59.33501640625,15.524169921875,60.61671640625,16.175954921875Q61.89851640625,16.827739921875,62.74551640625,17.989699921875L75.86191640625,35.982269921875Q77.01341640625,37.561869921875,77.01341640625,39.516669921875L77.01341640625,58.475869921875Q77.01341640625,60.961169921875,75.25611640625,62.718469921875Q73.49871640625,64.475869921875,71.01341640625,64.475869921875L67.50031640625,64.475869921875Q65.79131640624999,64.475869921875,64.33881640625,63.575369921875Q62.88641640625,62.674869921875,62.12631640625,61.144269921875L60.66971640625,58.210769921875ZM64.25231640625,56.431769921875L65.70901640625,59.365269921875Q65.96231640625,59.875469921875,66.44651640625,60.175669921875Q66.93061640625001,60.475869921875,67.50031640625,60.475869921875L71.01341640625,60.475869921875Q71.84181640625,60.475869921875,72.42761640625,59.890069921875Q73.01341640625,59.304269921875,73.01341640625,58.475869921875L73.01341640625,39.516669921875Q73.01341640625,38.865069921875005,72.62961640625,38.338569921875L59.51321640625,20.346009921875Q58.91411640625,19.524169921875,57.89711640625,19.524169921875L22.38701640625,19.524169921875Q21.38211640625,19.524169921875,20.78231640625,20.330469921875L7.38211640625,38.344369921875Q6.98681640625,38.875769921875005,6.98681640625,39.538069921875L6.98681640625,58.475869921875Q6.98681640625,59.304269921875,7.57260640625,59.890069921875Q8.15838640625,60.475869921875,8.98681640625,60.475869921875L13.07811640625,60.475869921875Q13.70761640625,60.475869921875,14.22371640625,60.115269921875Q14.73971640625,59.754769921875,14.95621640625,59.163569921875L15.73501640625,57.036869921875Q16.38451640625,55.263569921875,17.932516406250002,54.181869921875Q19.48061640625,53.100169921875,21.36911640625,53.100169921875L58.87841640625,53.100169921875Q60.58731640625,53.100169921875,62.03981640625,54.000669921875Q63.49231640625,54.901169921875,64.25231640625,56.431769921875ZM60.42751640625,35.194869921875Q60.42751640625,35.290169921875,60.41841640625,35.385069921875Q60.40931640625,35.479969921874996,60.39131640625,35.573569921875Q60.37321640625,35.667169921875,60.34641640625,35.758669921875Q60.31951640625,35.850069921875004,60.28401640625,35.938569921875Q60.24861640625,36.027069921875,60.20491640625,36.111869921875Q60.16121640625,36.196569921874996,60.10961640625,36.276769921875Q60.05801640625,36.356869921875,59.99911640625,36.431769921875Q59.94011640625,36.506769921875005,59.87431640625,36.575669921875004Q59.80851640625,36.644669921875,59.73641640625,36.707069921875004Q59.66431640625,36.769469921875,59.58661640625,36.824669921875Q59.50891640625,36.879969921875,59.42631640625,36.927569921875005Q59.34371640625,36.975169921875,59.25701640625,37.014669921875Q59.17021640625,37.054269921875004,59.08011640625,37.085369921875Q58.99001640625,37.116469921875,58.89731640625,37.138869921875Q58.80471640625,37.161269921875004,58.71031640625,37.174769921875Q58.61591640625,37.188169921875,58.52071640625,37.192669921875Q56.51771640625,37.286069921875,52.41211640625,37.555869921875Q44.13591640625,38.099569921875,39.74151640625,38.099569921875Q36.01861640625,38.099569921875,28.53731640625,37.639669921875Q24.52391640625,37.392969921875,22.64651640625,37.316969921875L22.64611640625,37.316969921875Q22.55051640625,37.313069921875,22.45561640625,37.300069921875Q22.36081640625,37.287069921875,22.26771640625,37.265169921875Q22.17451640625,37.243169921875,22.08391640625,37.212369921874995Q21.99321640625,37.181569921874996,21.90591640625,37.142269921875Q21.81871640625,37.102969921875,21.73551640625,37.055569921875005Q21.65241640625,37.008069921875,21.57421640625,36.952869921875Q21.49601640625,36.897769921874996,21.42341640625,36.835369921875Q21.35081640625,36.772969921875,21.28451640625,36.703869921875Q21.21821640625,36.634869921875,21.15881640625,36.559769921875Q21.09941640625,36.484769921875,21.04741640625,36.404369921875Q20.99551640625,36.323969921875005,20.95141640625,36.238969921875Q20.90741640625,36.154069921875,20.87161640625,36.065269921875Q20.83591640625,35.976469921875,20.80881640625,35.884669921875Q20.78171640625,35.792869921874995,20.76351640625,35.698869921875Q20.74531640625,35.604869921875,20.73621640625,35.509569921875Q20.72701640625,35.414369921875,20.72701640625,35.318569921874996Q20.72701640625,35.220369921875005,20.73671640625,35.122569921875Q20.74631640625,35.024769921875,20.76551640625,34.928369921875Q20.78461640625,34.832069921875004,20.81321640625,34.738069921874995Q20.84171640625,34.643969921875,20.87931640625,34.553269921875Q20.91691640625,34.462469921875,20.96321640625,34.375769921875005Q21.00951640625,34.289169921875,21.06411640625,34.207469921875Q21.11871640625,34.125769921875005,21.18101640625,34.049769921875Q21.24331640625,33.973869921875,21.31281640625,33.904369921875Q21.38231640625,33.834869921875,21.45821640625,33.772569921875004Q21.53421640625,33.710269921874996,21.61591640625,33.655669921875Q21.69761640625,33.601069921874995,21.78421640625,33.554769921875Q21.87091640625,33.508469921875005,21.96171640625,33.470869921875Q22.05241640625,33.433269921874995,22.14651640625,33.404769921875Q22.24051640625,33.376169921875004,22.33691640625,33.357069921874995Q22.43321640625,33.337869921875,22.53101640625,33.328269921875Q22.62881640625,33.318569921874996,22.72701640625,33.318569921874996Q22.76751640625,33.318569921874996,22.80791640625,33.320269921874996L22.80811640625,33.320269921874996L22.80971640625,33.320269921874996Q24.72901640625,33.398069921875,28.78271640625,33.647269921875Q36.14141640625,34.099569921875,39.74151640625,34.099569921875Q44.00461640625,34.099569921875,52.14991640625,33.564469921875Q56.29331640625,33.292169921875,58.33431640625,33.196969921874995Q58.38081640625,33.194869921875,58.42751640625,33.194869921875Q58.52571640625,33.194869921875,58.62351640625,33.204469921875Q58.72131640625,33.214069921875,58.81771640625,33.233269921875Q58.91401640625,33.252469921875004,59.00801640625,33.280969921875Q59.10211640625,33.309469921875,59.19281640625,33.347069921875004Q59.28361640625,33.384669921875,59.37031640625,33.430969921875004Q59.45691640625,33.477269921875,59.53861640625,33.531869921875Q59.62031640625,33.586469921875,59.69631640625,33.648769921875Q59.77221640625,33.711169921875,59.84171640625,33.780569921875Q59.91121640625,33.850069921875004,59.97351640625,33.926069921875Q60.03581640625,34.001969921875,60.09041640625,34.083669921875Q60.14501640625,34.165369921875,60.19131640625,34.252069921875005Q60.23761640625,34.338669921874995,60.27521640625,34.429469921875Q60.31281640625,34.520269921875,60.34131640625,34.614269921875Q60.36991640625,34.708269921875,60.38901640625,34.804669921875Q60.40821640625,34.900969921875,60.41781640625,34.998769921874995Q60.42751640625,35.096569921875,60.42751640625,35.194869921875Z" fill-rule="evenodd" fill="#FFFFFF" fill-opacity="1"/></g></g></svg>