<svg xmlns="http://www.w3.org/2000/svg" xmlns:xlink="http://www.w3.org/1999/xlink" fill="none" version="1.1" width="80" height="80" viewBox="0 0 80 80"><defs><clipPath id="master_svg0_5_9380"><rect x="0" y="0" width="80" height="80" rx="0"/></clipPath></defs><g clip-path="url(#master_svg0_5_9380)"><g><path d="M14.357388085937501,12.0057373046875L16.1966180859375,12.0057018994875L17.0779280859375,12.0056821107875Q20.942388085937502,12.0056821107875,24.480788085937498,13.396477304687501Q27.8754880859375,14.7308273046875,30.5747880859375,17.183617304687502Q33.2409880859375,19.6063173046875,34.8660880859375,22.7879373046875Q36.5279880859375,26.0414373046875,36.8709880859375,29.6442373046875L32.8889880859375,30.0232373046875Q32.6183880859375,27.1808373046875,31.3038880859375,24.6075373046875Q30.0107880859375,22.0758373046875,27.8847880859375,20.1439773046875Q25.7288880859375,18.1849673046875,23.0174880859375,17.1192173046875Q20.1845280859375,16.0056773046875,17.0780180859375,16.0056773046875L16.1966880859375,16.0056973046875L14.3574580859375,16.0057373046875L14.357388085937501,12.0057373046875ZM12.2039980859375,18.8591973046875Q15.0528680859375,18.0391473046875,17.9746980859375,18.3910773046875Q20.7951880859375,18.7307973046875,23.2910880859375,20.1109373046875Q25.7868880859375,21.4910773046875,27.5741880859375,23.6993373046875Q29.4256880859375,25.9869373046875,30.2456880859375,28.8358373046875L36.1556880859375,49.3671373046875Q36.3405880859375,50.0096373046875,36.874788085937496,50.4117373046875Q37.4089880859375,50.8138373046875,38.0775880859375,50.8138373046875L55.1519880859375,50.8138373046875Q58.1113880859375,50.8138373046875,60.8171880859375,51.9583373046875Q63.4290880859375,53.0630373046875,65.4421880859375,55.0762373046875Q67.4553880859375,57.0893373046875,68.56008808593751,59.7013373046875Q69.7045880859375,62.4070373046875,69.7045880859375,65.36643730468751Q69.7045880859375,66.4548373046875,68.9349880859375,67.2244373046875Q68.1652880859375,67.99403730468751,67.07668808593749,67.99403730468751L52.3106880859375,67.9919373046875L40.7575880859375,67.9919373046875L28.1082880859375,67.9919373046875Q26.1006880859375,67.9919373046875,24.5037880859375,66.7815373046875Q22.9151880859375,65.5775373046875,22.3608880859375,63.6515373046875L10.4048710859375,22.1127373046875Q10.1036450859375,21.066297304687502,10.6305970859375,20.1133573046875Q11.1575460859375,19.1604173046875,12.2039780859375,18.8591973046875L12.2039980859375,18.8591973046875ZM26.2047880859375,62.5451373046875L14.6519880859375,22.407137304687502Q16.0633680859375,22.189737304687497,17.4963580859375,22.3623373046875Q19.5422980859375,22.608837304687498,21.3553880859375,23.6114373046875Q23.1684880859375,24.6140373046875,24.4649880859375,26.2158373046875Q25.8060880859375,27.8729373046875,26.4017880859375,29.9422373046875L32.3117880859375,50.4736373046875Q32.8665880859375,52.4012373046875,34.4691880859375,53.6075373046875Q36.0717880859375,54.8138373046875,38.0775880859375,54.8138373046875L55.1519880859375,54.8138373046875Q57.3002880859375,54.8138373046875,59.2588880859375,55.6423373046875Q61.1522880859375,56.4431373046875,62.6137880859375,57.9046373046875Q64.0752880859375,59.3661373046875,64.87608808593751,61.2595373046875Q65.4360880859375,62.5833373046875,65.61748808593751,63.9938373046875L52.3106880859375,63.9919373046875L40.7575880859375,63.9919373046875L28.1082880859375,63.9919373046875Q27.4452880859375,63.9919373046875,26.9199880859375,63.5937373046875Q26.3912880859375,63.1930373046875,26.2047880859375,62.5451373046875Z" fill-rule="evenodd" fill="#FFFFFF" fill-opacity="1"/></g></g></svg>