<svg xmlns="http://www.w3.org/2000/svg" xmlns:xlink="http://www.w3.org/1999/xlink" fill="none" version="1.1" width="102.8505859375" height="48" viewBox="0 0 102.8505859375 48"><g><g><path d="M2.816,20L2.816,15.552L9.984,11.488L13.6,11.488L13.6,34.944L8.896,34.944L8.896,16.608L2.816,20ZM38.08,23.232Q38.08,29.152,35.936,32.24Q33.792,35.328,29.824,35.328Q25.856,35.328,23.696,32.24Q21.536,29.152,21.536,23.232Q21.536,17.28,23.696,14.176Q25.856,11.072,29.824,11.072Q33.792,11.072,35.936,14.176Q38.08,17.28,38.08,23.232ZM26.464,23.232Q26.464,27.2,27.28,29.136Q28.096,31.072,29.824,31.072Q31.552,31.072,32.352,29.136Q33.152,27.2,33.152,23.232Q33.152,19.232,32.352,17.28Q31.552,15.328,29.824,15.328Q28.096,15.328,27.28,17.264Q26.464,19.2,26.464,23.232Z" fill="#FFFFFF" fill-opacity="1"/></g><g><path d="M64.1225859375,19.712Q66.1385859375,19.712,67.8025859375,20.656Q69.4665859375,21.6,70.4265859375,23.344Q71.3865859375,25.088,71.3865859375,27.36Q71.3865859375,29.824,70.3145859375,31.632Q69.2425859375,33.44,67.3865859375,34.384Q65.5305859375,35.328,63.2905859375,35.328Q60.6345859375,35.328,58.6985859375,34.112Q56.7625859375,32.896,55.9625859375,30.432L59.7065859375,28.288Q60.1225859375,29.728,61.0505859375,30.464Q61.9785859375,31.2,63.2265859375,31.2Q64.7945859375,31.2,65.6425859375,30.16Q66.4905859375,29.12,66.4905859375,27.52Q66.4905859375,25.92,65.6105859375,24.848Q64.7305859375,23.776,63.0985859375,23.776Q60.9865859375,23.776,59.7385859375,25.856L56.4105859375,24.224L58.0105859375,11.488L70.29858593750001,11.488L70.29858593750001,15.456L61.9145859375,15.456L61.2745859375,20.288Q62.6505859375,19.712,64.1225859375,19.712ZM82.0745859375,30.88L91.4505859375,30.88L91.4505859375,34.944L75.2905859375,34.944L75.2905859375,31.936L82.3625859375,24Q84.1865859375,21.952,84.9065859375,20.784Q85.6265859375,19.616,85.6265859375,18.368Q85.6265859375,16.992,84.8585859375,16.16Q84.0905859375,15.328,82.7785859375,15.328Q81.4345859375,15.328,80.4105859375,16.304Q79.3865859375,17.28,78.8425859375,19.072L75.1945859375,16.96Q76.0265859375,14.112,78.2025859375,12.592Q80.37858593749999,11.072,83.2265859375,11.072Q85.4665859375,11.072,87.11458593750001,11.984Q88.7625859375,12.896,89.6425859375,14.496Q90.5225859375,16.096,90.5225859375,18.144Q90.5225859375,20.16,89.5465859375,21.904Q88.5705859375,23.648,86.07458593749999,26.432L82.0745859375,30.88Z" fill="#FFFFFF" fill-opacity="1"/></g><g><ellipse cx="45.0205078125" cy="19.776611328125" rx="3.5" ry="3.5" fill="#FFFFFF" fill-opacity="1"/></g><g><ellipse cx="45.0205078125" cy="32.506103515625" rx="3.5" ry="3.5" fill="#FFFFFF" fill-opacity="1"/></g></g></svg>