<svg xmlns="http://www.w3.org/2000/svg" xmlns:xlink="http://www.w3.org/1999/xlink" fill="none" version="1.1" width="42.81689453125" height="29.340087890625" viewBox="0 0 42.81689453125 29.340087890625"><g><g transform="matrix(0.8149986863136292,0.5794627666473389,-0.5794627666473389,0.8149986863136292,2.188525284291245,-1.2770382318340125)"><path d="M3.09423828125,0.7889404296875L44.10153828125,0.7889404296875Q44.19983828125,0.7889404296875,44.29753828125,0.7985704296875Q44.39533828125,0.8082004296875,44.49173828125,0.8273704296875Q44.58813828125,0.8465404296875001,44.68213828125,0.8750604296875Q44.77613828125,0.9035804296875001,44.86693828125,0.9411804296874999Q44.95763828125,0.9787804296875,45.04433828125,1.0251004296875Q45.13103828125,1.0714104296875,45.21263828125,1.1260004296875Q45.29433828125,1.1805904296875,45.37033828125,1.2429204296875Q45.44623828125,1.3052504296875,45.51573828125,1.3747304296875Q45.58523828125,1.4442004296875,45.64753828125,1.5201504296875Q45.70993828125,1.5961004296875,45.76443828125,1.6778004296875Q45.81903828125,1.7594904296875,45.86533828125,1.8461474296875Q45.91173828125,1.9327994296875,45.94933828125,2.0235734296875Q45.98693828125,2.1143484296875,46.01543828125,2.2083714296875Q46.04393828125,2.3023944296875,46.06313828125,2.3987594296875Q46.08223828125,2.4951254296875,46.09193828125,2.5929064296875Q46.10153828125,2.6906867296875,46.10153828125,2.7889404296875Q46.10153828125,2.8871941296875,46.09193828125,2.9849744296875Q46.08223828125,3.0827554296875,46.06313828125,3.1791214296875Q46.04393828125,3.2754864296875,46.01543828125,3.3695094296875Q45.98693828125,3.4635324296875,45.94933828125,3.5543074296875Q45.91173828125,3.6450814296875,45.86533828125,3.7317334296875Q45.81903828125,3.8183904296874998,45.76443828125,3.9000804296875Q45.70993828125,3.9817804296875,45.64753828125,4.0577304296875Q45.58523828125,4.1336804296875,45.51573828125,4.2031504296875Q45.44623828125,4.2726304296875,45.37033828125,4.3349604296875Q45.29433828125,4.3972904296875,45.21263828125,4.4518804296875Q45.13103828125,4.5064704296875,45.04433828125,4.5527804296875Q44.95763828125,4.5991004296875,44.86693828125,4.6367004296875Q44.77613828125,4.6743004296875,44.68213828125,4.7028204296875Q44.58813828125,4.7313404296875,44.49173828125,4.7505104296875Q44.39533828125,4.7696804296875,44.29753828125,4.7793104296875Q44.19983828125,4.7889404296875,44.10153828125,4.7889404296875L3.09423828125,4.7889404296875Q2.99598458125,4.7889404296875,2.89820428125,4.7793104296875Q2.80042328125,4.7696804296875,2.70405728125,4.7505104296875Q2.60769228125,4.7313404296875,2.51366928125,4.7028204296875Q2.41964628125,4.6743004296875,2.32887128125,4.6367004296875Q2.23809728125,4.5991004296875,2.15144528125,4.5527804296875Q2.0647882812500002,4.5064704296875,1.98309828125,4.4518804296875Q1.90139828125,4.3972904296875,1.82544828125,4.3349604296875Q1.74949828125,4.2726304296875,1.68002828125,4.2031504296875Q1.61054828125,4.1336804296875,1.54821828125,4.0577304296875Q1.48588828125,3.9817804296875,1.43129828125,3.9000804296875Q1.37670828125,3.8183904296874998,1.33039828125,3.7317334296875Q1.28407828125,3.6450814296875,1.24647828125,3.5543074296875Q1.20887828125,3.4635324296875,1.18035828125,3.3695094296875Q1.15183828125,3.2754864296875,1.13266828125,3.1791214296875Q1.11349828125,3.0827554296875,1.10386828125,2.9849744296875Q1.09423828125,2.8871941296875,1.09423828125,2.7889404296875Q1.09423828125,2.6906867296875,1.10386828125,2.5929064296875Q1.11349828125,2.4951254296875,1.13266828125,2.3987594296875Q1.15183828125,2.3023944296875,1.18035828125,2.2083714296875Q1.20887828125,2.1143484296875,1.24647828125,2.0235734296875Q1.28407828125,1.9327994296875,1.33039828125,1.8461474296875Q1.37670828125,1.7594904296875,1.43129828125,1.6778004296875Q1.48588828125,1.5961004296875,1.54821828125,1.5201504296875Q1.61054828125,1.4442004296875,1.68002828125,1.3747304296875Q1.74949828125,1.3052504296875,1.82544828125,1.2429204296875Q1.90139828125,1.1805904296875,1.98309828125,1.1260004296875Q2.0647882812500002,1.0714104296875,2.15144528125,1.0251004296875Q2.23809728125,0.9787804296875,2.32887128125,0.9411804296874999Q2.41964628125,0.9035804296875001,2.51366928125,0.8750604296875Q2.60769228125,0.8465404296875001,2.70405728125,0.8273704296875Q2.80042328125,0.8082004296875,2.89820428125,0.7985704296875Q2.99598458125,0.7889404296875,3.09423828125,0.7889404296875Z" fill-rule="evenodd" fill="#FFFFFF" fill-opacity="1"/></g><g><rect x="1.5" y="3.3829345703125" width="33.276241302490234" height="23.966310501098633" rx="4.5" fill-opacity="0" stroke-opacity="1" stroke="#FFFFFF" fill="none" stroke-width="3"/></g><g><rect x="36.6925048828125" y="8.3336181640625" width="5.12451171875" height="14.06494140625" rx="0" fill-opacity="0" stroke-opacity="1" stroke="#FFFFFF" fill="none" stroke-width="2"/></g></g></svg>