<svg xmlns="http://www.w3.org/2000/svg" xmlns:xlink="http://www.w3.org/1999/xlink" fill="none" version="1.1" width="80" height="80" viewBox="0 0 80 80"><defs><clipPath id="master_svg0_5_9376"><rect x="0" y="0" width="80" height="80" rx="0"/></clipPath></defs><g clip-path="url(#master_svg0_5_9376)"><g><path d="M8,34L8,12Q8,11.80349,8.0192611,11.60793Q8.0385222,11.41237,8.0768589,11.21964Q8.115196,11.02691,8.172239,10.83886Q8.229282,10.65082,8.304482,10.46927Q8.379682,10.28772,8.472315,10.11441Q8.564948,9.94111,8.674121,9.77772Q8.783295,9.61433,8.907958,9.46243Q9.03262,9.31052,9.17157,9.17157Q9.31052,9.03262,9.46243,8.907958Q9.61433,8.783295,9.77772,8.674121Q9.94111,8.564948,10.11441,8.472315Q10.28772,8.379682,10.46927,8.304482Q10.65082,8.229282,10.83886,8.172239Q11.02691,8.115196,11.21964,8.0768589Q11.41237,8.0385222,11.60793,8.0192611Q11.80349,8,12,8L34,8Q34.1965,8,34.3921,8.0192611Q34.587599999999995,8.0385222,34.7804,8.0768589Q34.9731,8.115196,35.161100000000005,8.172239Q35.349199999999996,8.229282,35.530699999999996,8.304482Q35.7123,8.379682,35.8856,8.472315Q36.0589,8.564948,36.222300000000004,8.674121Q36.3857,8.783295,36.5376,8.907958Q36.689499999999995,9.03262,36.8284,9.17157Q36.9674,9.31052,37.092,9.46243Q37.2167,9.61433,37.325900000000004,9.77772Q37.4351,9.94111,37.527699999999996,10.11441Q37.6203,10.28772,37.695499999999996,10.46927Q37.770700000000005,10.65082,37.827799999999996,10.83886Q37.8848,11.02691,37.923100000000005,11.21964Q37.9615,11.41237,37.9807,11.60793Q38,11.80349,38,12L38,34Q38,34.1965,37.9807,34.3921Q37.9615,34.587599999999995,37.923100000000005,34.7804Q37.8848,34.9731,37.827799999999996,35.161100000000005Q37.770700000000005,35.349199999999996,37.695499999999996,35.530699999999996Q37.6203,35.7123,37.527699999999996,35.8856Q37.435,36.0589,37.325900000000004,36.222300000000004Q37.2167,36.3857,37.092,36.5376Q36.9674,36.689499999999995,36.8284,36.8284Q36.689499999999995,36.9674,36.5376,37.092Q36.3857,37.2167,36.222300000000004,37.325900000000004Q36.0589,37.4351,35.8856,37.527699999999996Q35.7123,37.6203,35.530699999999996,37.695499999999996Q35.349199999999996,37.770700000000005,35.161100000000005,37.827799999999996Q34.9731,37.8848,34.7804,37.923100000000005Q34.587599999999995,37.9615,34.3921,37.9807Q34.1965,38,34,38L12,38Q11.80349,38,11.60793,37.9807Q11.41237,37.9615,11.21964,37.923100000000005Q11.02691,37.8848,10.83886,37.827799999999996Q10.65082,37.770700000000005,10.46927,37.695499999999996Q10.28772,37.6203,10.11441,37.527699999999996Q9.94111,37.435,9.77772,37.325900000000004Q9.61433,37.2167,9.46243,37.092Q9.31052,36.9674,9.17157,36.8284Q9.03262,36.689499999999995,8.907958,36.5376Q8.783295,36.3857,8.674121,36.222300000000004Q8.564948,36.0589,8.472315,35.8856Q8.379682,35.7123,8.304482,35.530699999999996Q8.229282,35.349199999999996,8.172239,35.161100000000005Q8.115196,34.9731,8.0768589,34.7804Q8.0385222,34.587599999999995,8.0192611,34.3921Q8,34.1965,8,34ZM8,68L8,46Q8,45.8035,8.0192611,45.6079Q8.0385222,45.4124,8.0768589,45.2196Q8.115196,45.0269,8.172239,44.8389Q8.229282,44.6508,8.304482,44.4693Q8.379682,44.2877,8.472315,44.1144Q8.564948,43.9411,8.674121,43.7777Q8.783295,43.6143,8.907958,43.4624Q9.03262,43.3105,9.17157,43.1716Q9.31052,43.0326,9.46243,42.908Q9.61433,42.7833,9.77772,42.6741Q9.94111,42.5649,10.11441,42.4723Q10.28772,42.3797,10.46927,42.3045Q10.65082,42.2293,10.83886,42.1722Q11.02691,42.1152,11.21964,42.0769Q11.41237,42.0385,11.60793,42.0193Q11.80349,42,12,42L34,42Q34.1965,42,34.3921,42.0193Q34.587599999999995,42.0385,34.7804,42.0769Q34.9731,42.1152,35.161100000000005,42.1722Q35.349199999999996,42.2293,35.530699999999996,42.3045Q35.7123,42.3797,35.8856,42.4723Q36.0589,42.5649,36.222300000000004,42.6741Q36.3857,42.7833,36.5376,42.908Q36.689499999999995,43.0326,36.8284,43.1716Q36.9674,43.3105,37.092,43.4624Q37.2167,43.6143,37.325900000000004,43.7777Q37.4351,43.9411,37.527699999999996,44.1144Q37.6203,44.2877,37.695499999999996,44.4693Q37.770700000000005,44.6508,37.827799999999996,44.8389Q37.8848,45.0269,37.923100000000005,45.2196Q37.9615,45.4124,37.9807,45.6079Q38,45.8035,38,46L38,68Q38,68.1965,37.9807,68.3921Q37.9615,68.58760000000001,37.923100000000005,68.7804Q37.8848,68.9731,37.827799999999996,69.1611Q37.770700000000005,69.3492,37.695499999999996,69.5307Q37.6203,69.7123,37.527699999999996,69.8856Q37.435,70.0589,37.325900000000004,70.22229999999999Q37.2167,70.3857,37.092,70.5376Q36.9674,70.68950000000001,36.8284,70.8284Q36.689499999999995,70.9674,36.5376,71.092Q36.3857,71.2167,36.222300000000004,71.32589999999999Q36.0589,71.4351,35.8856,71.52770000000001Q35.7123,71.6203,35.530699999999996,71.69550000000001Q35.349199999999996,71.7707,35.161100000000005,71.8278Q34.9731,71.8848,34.7804,71.9231Q34.587599999999995,71.9615,34.3921,71.9807Q34.1965,72,34,72L12,72Q11.80349,72,11.60793,71.9807Q11.41237,71.9615,11.21964,71.9231Q11.02691,71.8848,10.83886,71.8278Q10.65082,71.7707,10.46927,71.69550000000001Q10.28772,71.6203,10.11441,71.52770000000001Q9.94111,71.4351,9.77772,71.32589999999999Q9.61433,71.2167,9.46243,71.092Q9.31052,70.9674,9.17157,70.8284Q9.03262,70.68950000000001,8.907958,70.5376Q8.783295,70.3857,8.674121,70.22229999999999Q8.564948,70.0589,8.472315,69.8856Q8.379682,69.7123,8.304482,69.5307Q8.229282,69.3492,8.172239,69.1611Q8.115196,68.9731,8.0768589,68.7804Q8.0385222,68.58760000000001,8.0192611,68.3921Q8,68.1965,8,68ZM42,34L42,12Q42,11.80349,42.0193,11.60793Q42.0385,11.41237,42.0769,11.21964Q42.1152,11.02691,42.1722,10.83886Q42.2293,10.65082,42.3045,10.46927Q42.3797,10.28772,42.4723,10.11441Q42.5649,9.94111,42.6741,9.77772Q42.7833,9.61433,42.908,9.46243Q43.0326,9.31052,43.1716,9.17157Q43.3105,9.03262,43.4624,8.907958Q43.6143,8.783295,43.7777,8.674121Q43.9411,8.564948,44.1144,8.472315Q44.2877,8.379682,44.4693,8.304482Q44.6508,8.229282,44.8389,8.172239Q45.0269,8.115196,45.2196,8.0768589Q45.4124,8.0385222,45.6079,8.0192611Q45.8035,8,46,8L68,8Q68.1965,8,68.3921,8.0192611Q68.58760000000001,8.0385222,68.7804,8.0768589Q68.9731,8.115196,69.1611,8.172239Q69.3492,8.229282,69.5307,8.304482Q69.7123,8.379682,69.8856,8.472315Q70.0589,8.564948,70.22229999999999,8.674121Q70.3857,8.783295,70.5376,8.907958Q70.68950000000001,9.03262,70.8284,9.17157Q70.9674,9.31052,71.092,9.46243Q71.2167,9.61433,71.32589999999999,9.77772Q71.4351,9.94111,71.52770000000001,10.11441Q71.6203,10.28772,71.69550000000001,10.46927Q71.7707,10.65082,71.8278,10.83886Q71.8848,11.02691,71.9231,11.21964Q71.9615,11.41237,71.9807,11.60793Q72,11.80349,72,12L72,34Q72,34.1965,71.9807,34.3921Q71.9615,34.587599999999995,71.9231,34.7804Q71.8848,34.9731,71.8278,35.161100000000005Q71.7707,35.349199999999996,71.69550000000001,35.530699999999996Q71.6203,35.7123,71.52770000000001,35.8856Q71.4351,36.0589,71.32589999999999,36.222300000000004Q71.2167,36.3857,71.092,36.5376Q70.9674,36.689499999999995,70.8284,36.8284Q70.68950000000001,36.9674,70.5376,37.092Q70.3857,37.2167,70.22229999999999,37.325900000000004Q70.0589,37.4351,69.8856,37.527699999999996Q69.7123,37.6203,69.5307,37.695499999999996Q69.3492,37.770700000000005,69.1611,37.827799999999996Q68.9731,37.8848,68.7804,37.923100000000005Q68.58760000000001,37.9615,68.3921,37.9807Q68.1965,38,68,38L46,38Q45.8035,38,45.6079,37.9807Q45.4124,37.9615,45.2196,37.923100000000005Q45.0269,37.8848,44.8389,37.827799999999996Q44.6508,37.770700000000005,44.4693,37.695499999999996Q44.2877,37.6203,44.1144,37.527699999999996Q43.9411,37.435,43.7777,37.325900000000004Q43.6143,37.2167,43.4624,37.092Q43.3105,36.9674,43.1716,36.8284Q43.0326,36.689499999999995,42.908,36.5376Q42.7833,36.3857,42.6741,36.222300000000004Q42.5649,36.0589,42.4723,35.8856Q42.3797,35.7123,42.3045,35.530699999999996Q42.2293,35.349199999999996,42.1722,35.161100000000005Q42.1152,34.9731,42.0769,34.7804Q42.0385,34.587599999999995,42.0193,34.3921Q42,34.1965,42,34ZM42,68L42,46Q42,45.8035,42.0193,45.6079Q42.0385,45.4124,42.0769,45.2196Q42.1152,45.0269,42.1722,44.8389Q42.2293,44.6508,42.3045,44.4693Q42.3797,44.2877,42.4723,44.1144Q42.5649,43.9411,42.6741,43.7777Q42.7833,43.6143,42.908,43.4624Q43.0326,43.3105,43.1716,43.1716Q43.3105,43.0326,43.4624,42.908Q43.6143,42.7833,43.7777,42.6741Q43.9411,42.5649,44.1144,42.4723Q44.2877,42.3797,44.4693,42.3045Q44.6508,42.2293,44.8389,42.1722Q45.0269,42.1152,45.2196,42.0769Q45.4124,42.0385,45.6079,42.0193Q45.8035,42,46,42L68,42Q68.1965,42,68.3921,42.0193Q68.58760000000001,42.0385,68.7804,42.0769Q68.9731,42.1152,69.1611,42.1722Q69.3492,42.2293,69.5307,42.3045Q69.7123,42.3797,69.8856,42.4723Q70.0589,42.5649,70.22229999999999,42.6741Q70.3857,42.7833,70.5376,42.908Q70.68950000000001,43.0326,70.8284,43.1716Q70.9674,43.3105,71.092,43.4624Q71.2167,43.6143,71.32589999999999,43.7777Q71.4351,43.9411,71.52770000000001,44.1144Q71.6203,44.2877,71.69550000000001,44.4693Q71.7707,44.6508,71.8278,44.8389Q71.8848,45.0269,71.9231,45.2196Q71.9615,45.4124,71.9807,45.6079Q72,45.8035,72,46L72,68Q72,68.1965,71.9807,68.3921Q71.9615,68.58760000000001,71.9231,68.7804Q71.8848,68.9731,71.8278,69.1611Q71.7707,69.3492,71.69550000000001,69.5307Q71.6203,69.7123,71.52770000000001,69.8856Q71.4351,70.0589,71.32589999999999,70.22229999999999Q71.2167,70.3857,71.092,70.5376Q70.9674,70.68950000000001,70.8284,70.8284Q70.68950000000001,70.9674,70.5376,71.092Q70.3857,71.2167,70.22229999999999,71.32589999999999Q70.0589,71.4351,69.8856,71.52770000000001Q69.7123,71.6203,69.5307,71.69550000000001Q69.3492,71.7707,69.1611,71.8278Q68.9731,71.8848,68.7804,71.9231Q68.58760000000001,71.9615,68.3921,71.9807Q68.1965,72,68,72L46,72Q45.8035,72,45.6079,71.9807Q45.4124,71.9615,45.2196,71.9231Q45.0269,71.8848,44.8389,71.8278Q44.6508,71.7707,44.4693,71.69550000000001Q44.2877,71.6203,44.1144,71.52770000000001Q43.9411,71.4351,43.7777,71.32589999999999Q43.6143,71.2167,43.4624,71.092Q43.3105,70.9674,43.1716,70.8284Q43.0326,70.68950000000001,42.908,70.5376Q42.7833,70.3857,42.6741,70.22229999999999Q42.5649,70.0589,42.4723,69.8856Q42.3797,69.7123,42.3045,69.5307Q42.2293,69.3492,42.1722,69.1611Q42.1152,68.9731,42.0769,68.7804Q42.0385,68.58760000000001,42.0193,68.3921Q42,68.1965,42,68Z" fill="#FFFFFF" fill-opacity="1"/></g></g></svg>