<svg xmlns="http://www.w3.org/2000/svg" xmlns:xlink="http://www.w3.org/1999/xlink" fill="none" version="1.1" width="80" height="80" viewBox="0 0 80 80"><defs><clipPath id="master_svg0_144_03295/5_9376"><rect x="0" y="0" width="80" height="80" rx="0"/></clipPath></defs><g clip-path="url(#master_svg0_144_03295/5_9376)"><g><path d="M37.290800000000004,9.72616Q37.153400000000005,9.5272,36.9929,9.34625Q36.832499999999996,9.16531,36.651399999999995,9.004999999999999Q36.4703,8.844702,36.2713,8.707384Q36.072199999999995,8.570066,35.858000000000004,8.457731Q35.6439,8.345395,35.417699999999996,8.25968Q35.1916,8.173965,34.9568,8.116118Q34.722,8.0582713,34.481899999999996,8.0291356Q34.2418,8,34,8L12,8Q11.80349,8,11.60793,8.0192611Q11.41237,8.0385222,11.21964,8.0768589Q11.02691,8.115196,10.83886,8.172239Q10.65082,8.229282,10.46927,8.304482Q10.28772,8.379682,10.11441,8.472315Q9.94111,8.564948,9.77772,8.674121Q9.61433,8.783295,9.46243,8.907958Q9.31052,9.03262,9.17157,9.17157Q9.03262,9.31052,8.907958,9.46243Q8.783295,9.61433,8.674121,9.77772Q8.564948,9.94111,8.472315,10.11441Q8.379682,10.28772,8.304482,10.46927Q8.229282,10.65082,8.172239,10.83886Q8.115196,11.02691,8.0768589,11.21964Q8.0385222,11.41237,8.0192611,11.60793Q8,11.80349,8,12L8,34Q8,34.2418,8.0291356,34.481899999999996Q8.0582713,34.722,8.116118,34.9568Q8.173965,35.1916,8.25968,35.417699999999996Q8.345395,35.6439,8.457731,35.858000000000004Q8.570066,36.072199999999995,8.707384,36.2713Q8.844702,36.4703,9.004999999999999,36.651399999999995Q9.16531,36.832499999999996,9.34625,36.9929Q9.5272,37.153400000000005,9.72616,37.290800000000004Q9.97536,37.463,10.24764,37.5957Q10.519919999999999,37.7284,10.80907,37.8186Q11.098230000000001,37.9088,11.39767,37.9544Q11.69711,38,12,38L34,38Q34.3029,38,34.6023,37.9544Q34.9018,37.9088,35.1909,37.8186Q35.4801,37.7284,35.7524,37.5957Q36.0246,37.463,36.2738,37.290800000000004Q36.875299999999996,36.875299999999996,37.290800000000004,36.2738Q37.463,36.0246,37.5957,35.7524Q37.7284,35.4801,37.8186,35.1909Q37.9088,34.9018,37.9544,34.6023Q38,34.3029,38,34L38,12Q38,11.69711,37.9544,11.39767Q37.9088,11.098230000000001,37.8186,10.80907Q37.7284,10.519919999999999,37.5957,10.24764Q37.463,9.97536,37.290800000000004,9.72616ZM36.2738,42.7092Q36.0246,42.537,35.7524,42.4043Q35.4801,42.2716,35.1909,42.1814Q34.9018,42.0912,34.6023,42.0456Q34.3029,42,34,42L12,42Q11.69711,42,11.39767,42.0456Q11.098230000000001,42.0912,10.80907,42.1814Q10.519919999999999,42.2716,10.24764,42.4043Q9.97536,42.537,9.72616,42.7092Q9.5272,42.8466,9.34625,43.0071Q9.16531,43.1675,9.004999999999999,43.3486Q8.844702,43.5297,8.707384,43.7287Q8.570066,43.9278,8.457731,44.1419Q8.345395,44.3561,8.25968,44.5822Q8.173965,44.8084,8.116118,45.0432Q8.0582713,45.278,8.0291356,45.5181Q8,45.7582,8,46L8,68Q8,68.1965,8.0192611,68.3921Q8.0385222,68.58760000000001,8.0768589,68.7804Q8.115196,68.9731,8.172239,69.1611Q8.229282,69.3492,8.304482,69.5307Q8.379682,69.7123,8.472315,69.8856Q8.564948,70.0589,8.674121,70.22229999999999Q8.783295,70.3857,8.907958,70.5376Q9.03262,70.68950000000001,9.17157,70.8284Q9.31052,70.9674,9.46243,71.092Q9.61433,71.2167,9.77772,71.32589999999999Q9.94111,71.4351,10.11441,71.52770000000001Q10.28772,71.6203,10.46927,71.69550000000001Q10.65082,71.7707,10.83886,71.8278Q11.02691,71.8848,11.21964,71.9231Q11.41237,71.9615,11.60793,71.9807Q11.80349,72,12,72L34,72Q34.2418,72,34.481899999999996,71.9709Q34.722,71.9417,34.9568,71.8839Q35.1916,71.826,35.417699999999996,71.74029999999999Q35.6439,71.6546,35.858000000000004,71.5423Q36.072199999999995,71.4299,36.2713,71.2926Q36.4703,71.1553,36.651399999999995,70.995Q36.832499999999996,70.8347,36.9929,70.6537Q37.153400000000005,70.4728,37.290800000000004,70.2738Q37.463,70.02459999999999,37.5957,69.7524Q37.7284,69.4801,37.8186,69.1909Q37.9088,68.90180000000001,37.9544,68.6023Q38,68.3029,38,68L38,46Q38,45.6971,37.9544,45.3977Q37.9088,45.0982,37.8186,44.8091Q37.7284,44.5199,37.5957,44.2476Q37.463,43.9754,37.290800000000004,43.7262Q36.875299999999996,43.1247,36.2738,42.7092ZM42.7092,43.7262Q42.537,43.9754,42.4043,44.2476Q42.2716,44.5199,42.1814,44.8091Q42.0912,45.0982,42.0456,45.3977Q42,45.6971,42,46L42,68Q42,68.3029,42.0456,68.6023Q42.0912,68.90180000000001,42.1814,69.1909Q42.2716,69.4801,42.4043,69.7524Q42.537,70.02459999999999,42.7092,70.2738Q42.8466,70.4728,43.0071,70.6537Q43.1675,70.8347,43.3486,70.995Q43.5297,71.1553,43.7287,71.2926Q43.9278,71.4299,44.142,71.5423Q44.3561,71.6546,44.5822,71.74029999999999Q44.8084,71.826,45.0432,71.8839Q45.278,71.9417,45.5181,71.9709Q45.7582,72,46,72L68,72Q68.1965,72,68.3921,71.9807Q68.58760000000001,71.9615,68.7804,71.9231Q68.9731,71.8848,69.1611,71.8278Q69.3492,71.7707,69.5307,71.69550000000001Q69.7123,71.6203,69.8856,71.52770000000001Q70.0589,71.4351,70.22229999999999,71.32589999999999Q70.3857,71.2167,70.5376,71.092Q70.68950000000001,70.9674,70.8284,70.8284Q70.9674,70.68950000000001,71.092,70.5376Q71.2167,70.3857,71.32589999999999,70.22229999999999Q71.4351,70.0589,71.52770000000001,69.8856Q71.6203,69.7123,71.69550000000001,69.5307Q71.7707,69.3492,71.8278,69.1611Q71.8848,68.9731,71.9231,68.7804Q71.9615,68.58760000000001,71.9807,68.3921Q72,68.1965,72,68L72,46Q72,45.7582,71.9709,45.5181Q71.9417,45.278,71.8839,45.0432Q71.826,44.8084,71.74029999999999,44.5822Q71.6546,44.3561,71.5423,44.142Q71.4299,43.9278,71.2926,43.7287Q71.1553,43.5297,70.995,43.3486Q70.8347,43.1675,70.6537,43.0071Q70.4728,42.8466,70.2738,42.7092Q70.02459999999999,42.537,69.7524,42.4043Q69.4801,42.2716,69.1909,42.1814Q68.90180000000001,42.0912,68.6023,42.0456Q68.3029,42,68,42L46,42Q45.6971,42,45.3977,42.0456Q45.0982,42.0912,44.8091,42.1814Q44.5199,42.2716,44.2476,42.4043Q43.9754,42.537,43.7262,42.7092Q43.1247,43.1247,42.7092,43.7262ZM43.7262,37.290800000000004Q43.9754,37.463,44.2476,37.5957Q44.5199,37.7284,44.8091,37.8186Q45.0982,37.9088,45.3977,37.9544Q45.6971,38,46,38L68,38Q68.3029,38,68.6023,37.9544Q68.90180000000001,37.9088,69.1909,37.8186Q69.4801,37.7284,69.7524,37.5957Q70.02459999999999,37.463,70.2738,37.290800000000004Q70.4728,37.153400000000005,70.6537,36.9929Q70.8347,36.832499999999996,70.995,36.651399999999995Q71.1553,36.4703,71.2926,36.2713Q71.4299,36.072199999999995,71.5423,35.858000000000004Q71.6546,35.6439,71.74029999999999,35.417699999999996Q71.826,35.1916,71.8839,34.9568Q71.9417,34.722,71.9709,34.481899999999996Q72,34.2418,72,34L72,12Q72,11.80349,71.9807,11.60793Q71.9615,11.41237,71.9231,11.21964Q71.8848,11.02691,71.8278,10.83886Q71.7707,10.65082,71.69550000000001,10.46927Q71.6203,10.28772,71.52770000000001,10.11441Q71.4351,9.94111,71.32589999999999,9.77772Q71.2167,9.61433,71.092,9.46243Q70.9674,9.31052,70.8284,9.17157Q70.68950000000001,9.03262,70.5376,8.907958Q70.3857,8.783295,70.22229999999999,8.674121Q70.0589,8.564948,69.8856,8.472315Q69.7123,8.379682,69.5307,8.304482Q69.3492,8.229282,69.1611,8.172239Q68.9731,8.115196,68.7804,8.0768589Q68.58760000000001,8.0385222,68.3921,8.0192611Q68.1965,8,68,8L46,8Q45.7582,8,45.5181,8.0291356Q45.278,8.0582713,45.0432,8.116118Q44.8084,8.173965,44.5822,8.25968Q44.3561,8.345395,44.1419,8.457731Q43.9278,8.570066,43.7287,8.707384Q43.5297,8.844702,43.3486,9.004999999999999Q43.1675,9.16531,43.0071,9.34625Q42.8466,9.5272,42.7092,9.72616Q42.537,9.97536,42.4043,10.24764Q42.2716,10.519919999999999,42.1814,10.80907Q42.0912,11.098230000000001,42.0456,11.39767Q42,11.69711,42,12L42,34Q42,34.3029,42.0456,34.6023Q42.0912,34.9018,42.1814,35.1909Q42.2716,35.4801,42.4043,35.7524Q42.537,36.0246,42.7092,36.2738Q43.1247,36.875299999999996,43.7262,37.290800000000004ZM13,33L33,33L33,13L13,13L13,33ZM47,33L67,33L67,13L47,13L47,33ZM13,67L33,67L33,47L13,47L13,67ZM47,67L67,67L67,47L47,47L47,67Z" fill-rule="evenodd" fill="#FFFFFF" fill-opacity="1"/></g></g></svg>