<svg xmlns="http://www.w3.org/2000/svg" xmlns:xlink="http://www.w3.org/1999/xlink" fill="none" version="1.1" width="80" height="80" viewBox="0 0 80 80"><defs><clipPath id="master_svg0_5_9374"><rect x="0" y="0" width="80" height="80" rx="0"/></clipPath></defs><g clip-path="url(#master_svg0_5_9374)"><g><path d="M34.644769140625,43.5152015625L11.621789140625,37.8422015625Q10.252219140625,37.5047015625,9.413068140625,36.4194015625Q8.648076540625,35.430001562499996,8.583894730625,34.160301562499995Q8.519712940625,32.8905015625,9.181038140625,31.8291015625Q9.906479140625,30.6647015625,11.235029140625,30.1908015625L66.069769140625,10.6329365625Q67.282969140625,10.2001965625,68.496969140625,10.5435485625Q69.61716914062501,10.8603915625,70.400769140625,11.7403615625Q71.184369140625,12.6203415625,71.36976914062501,13.7696615625Q71.570569140625,15.0151415625,71.000669140625,16.1703315625L45.736869140625,67.3748015625Q45.120669140625,68.6237015625,43.899069140625,69.2123015625Q42.783469140625,69.7499015625,41.540169140625,69.5582015625Q40.296869140625,69.36650156249999,39.394969140625,68.5179015625Q38.407469140625,67.5886015625,38.196069140625,66.21210156250001L34.727569140625,43.6269015625Q34.684269140625,43.5725015625,34.644769140625,43.5152015625ZM36.137169140625005,39.792401562500004Q35.911169140625,39.7076015625,35.670069140625,39.6482015625L12.578799140625,33.9583015625L67.413469140625,14.4004615625L42.149769140625,65.6049015625L38.666669140625004,42.9249015625Q38.665169140625,42.9152015625,38.663669140625004,42.9052015625L48.307269140625,33.9403015625Q48.458269140625,33.7999015625,48.577469140625,33.6317015625Q48.696669140625,33.463401562499996,48.779069140625,33.2744015625Q48.861469140625,33.085401562499996,48.903469140625,32.8835015625Q48.945569140625,32.681701562499995,48.945569140625,32.4755015625Q48.945569140625,32.377201562500005,48.935969140625,32.2794015625Q48.926269140625,32.1816015625,48.907169140625,32.0853015625Q48.887969140625,31.9889015625,48.859469140625,31.8949015625Q48.830869140625,31.8009015625,48.793269140625,31.7101015625Q48.755669140625,31.6193015625,48.709369140625,31.5327015625Q48.663069140625,31.4460015625,48.608469140625,31.3643015625Q48.553869140625,31.2826015625,48.491569140625,31.2067015625Q48.429269140625,31.1307015625,48.359769140625,31.0612015625Q48.290269140625,30.9918015625,48.214369140625,30.9294015625Q48.138369140625,30.8671015625,48.056669140625,30.8125015625Q47.974969140625,30.7579015625,47.888369140625,30.7116015625Q47.801669140625,30.6653015625,47.710969140625,30.6277015625Q47.620169140625,30.5901015625,47.526169140625,30.5616015625Q47.432069140625,30.5331015625,47.335769140625,30.5139015625Q47.239369140625,30.4947015625,47.141569140625,30.4851015625Q47.043769140625,30.4755015625,46.945569140625,30.4755015625Q46.757769140625,30.4755015625,46.573269140625,30.5104015625Q46.388769140625,30.5454015625,46.213969140625,30.6141015625Q46.039269140625,30.6827015625,45.880269140625,30.7828015625Q45.721369140625,30.8828015625,45.583869140625,31.0106015625L36.137169140625005,39.792401562500004Z" fill-rule="evenodd" fill="#FFFFFF" fill-opacity="1"/></g></g></svg>