<svg xmlns="http://www.w3.org/2000/svg" xmlns:xlink="http://www.w3.org/1999/xlink" fill="none" version="1.1" width="120.207763671875" height="123.79833984375" viewBox="0 0 120.207763671875 123.79833984375"><defs><linearGradient x1="0.5" y1="0" x2="0.5" y2="1" id="master_svg0_28_1814"><stop offset="0%" stop-color="#6AD04E" stop-opacity="1"/><stop offset="100%" stop-color="#4DA434" stop-opacity="1"/></linearGradient><linearGradient x1="0.5" y1="0" x2="0.08960279077291489" y2="0.7898917198181152" id="master_svg1_28_2110"><stop offset="0%" stop-color="#5590F4" stop-opacity="1"/><stop offset="100%" stop-color="#5590F4" stop-opacity="1"/></linearGradient></defs><g><g><rect x="14.953857421875" y="18.54443359375" width="105.2539291381836" height="105.2539291381836" rx="24.289371490478516" fill="url(#master_svg0_28_1814)" fill-opacity="1"/></g><g><g><path d="M30.956116044921874,71.88170380859376L42.65029604492187,71.22980380859374L42.63609604492187,70.97530380859375L30.941926044921875,71.62720380859375Q30.816246044921876,71.63430380859376,30.548486044921876,71.64540380859376Q29.688293044921874,71.68110380859375,29.227461044921874,71.75410380859375L30.235416044921877,64.15100380859374L33.640476044921876,65.57480380859374Q33.733996044921874,65.61440380859375,33.819016044921874,65.55780380859375Q33.903456044921874,65.50150380859375,33.903796044921876,65.39990380859375L33.949686044921876,51.52132050859375Q33.94944604492188,51.55749780859375,33.91456604492188,51.56556380859375L33.954406044921875,51.31493880859375Q33.90899604492188,51.30772080859375,33.86662604492187,51.31524980859375Q33.69474604492188,51.34519850859375,33.69474604492188,51.51997330859375L33.64917604492187,65.30210380859376L30.253066044921876,63.88200380859375Q30.157636044921876,63.841603808593746,30.081612044921876,63.88630380859375Q30.007060044921875,63.93020380859375,29.994091044921873,64.03140380859375L28.969258044921876,71.76180380859375Q28.954174044921874,71.87380380859375,29.035069244921875,71.95240380859374Q29.116469144921876,72.03160380859376,29.227712044921876,72.01230380859374Q29.674721044921874,71.93690380859375,30.559066044921874,71.90010380859376Q30.828676044921874,71.88890380859375,30.956116044921874,71.88170380859376Z" fill-rule="evenodd" fill="#FFFFFF" fill-opacity="1"/></g><g><path d="M30.585490238671873,73.35719724609375L40.598117138671874,73.37003924609375L40.59851713867187,73.11509724609375L32.393447138671874,73.10457424609375Q35.42979713867187,72.85350924609375,38.472937138671874,72.71155824609374Q38.74222713867188,72.69896924609375,39.376277138671874,72.65634824609376Q40.65521713867187,72.57037824609375,41.258417138671874,72.56539424609375L41.256317138671875,72.31046024609375Q40.645617138671874,72.31550724609374,39.359177138671875,72.40198004609375Q38.727727138671874,72.44442682609375,38.461057138671876,72.45689274609374Q34.96446713867188,72.61999624609375,31.476746138671874,72.92694324609376Q31.004878138671874,72.96859024609375,30.562420758671873,73.05455424609374L30.555404838671876,73.05591724609376L30.548585238671876,73.05805624609376Q30.429478138671875,73.09541124609375,30.442137138671875,73.21973324609375Q30.454835138671875,73.34433524609375,30.579342538671874,73.35659224609375L30.585490238671873,73.35719724609375Z" fill-rule="evenodd" fill="#FFFFFF" fill-opacity="1"/></g><g><path d="M34.67389252929688,74.39928762109375Q39.14926252929688,74.65344662109375,46.04994252929687,74.94607162109375L46.060742529296874,74.69135962109375Q39.161592529296875,74.39879562109375,34.688342529296875,74.14475562109375Q33.73532252929687,74.09032262109375,32.54374252929688,73.98568062109375L47.325142529296876,73.96188262109375L47.32474252929687,73.70694062109375L30.586744929296874,73.73388862109375Q30.481926929296876,73.73388862109375,30.450039529296873,73.83028924109375Q30.443116529296876,73.84980322109375,30.437413529296876,73.86938332109375Q30.415834529296873,73.93185152109375,30.450636529296876,73.98690362109375Q30.486438629296874,74.04353562109375,30.554425319296875,74.04974462109375Q32.98570252929687,74.30286662109376,34.67389252929688,74.39928762109375Z" fill-rule="evenodd" fill="#FFFFFF" fill-opacity="1"/></g><g><path d="M42.28911529492188,87.20981005859375L45.67857229492188,76.03082365859375L45.92255229492187,76.10479645859375L42.53308929492187,87.28381005859374L42.28911529492188,87.20981005859375Z" fill-rule="evenodd" fill="#FFFFFF" fill-opacity="1"/></g><g><path d="M28.590706157421874,74.93063042734374L28.537167857421874,75.19371102734375L28.786989857421876,75.24455102734375L28.830586857421874,75.03032202734374L39.906278857421874,75.80471902734375L39.42587885742188,84.76789302734375L39.680478857421875,84.78154302734374L40.163578857421875,75.76741202734375Q40.17417885742188,75.56728502734374,39.97507885742188,75.55396402734375L28.796279857421876,74.77236402734376Q28.622873757421875,74.76145402734375,28.590706157421874,74.93063042734374ZM28.840038857421874,74.98387232734375L28.840527857421876,74.98147032734374L28.840038857421874,74.98387232734375Z" fill-rule="evenodd" fill="#FFFFFF" fill-opacity="1"/></g><g><path d="M64.79314916992188,69.67321474609375L65.47384916992188,61.42921474609375L65.21974916992187,61.40821474609375L64.53904916992187,69.65221474609375Q64.53124916992188,69.75071474609375,64.43344916992187,69.75621474609375L58.46174916992187,70.09511474609374L59.831049169921876,64.72521474609376Q59.856249169921874,64.62241474609375,59.78744916992187,64.54401474609375Q59.716749169921876,64.46361474609375,59.61124916992188,64.47901474609375L57.427349169921875,64.75981474609375Q57.196349169921874,64.78981474609375,57.10554916992187,65.00631474609375L54.886649169921874,70.28911474609376Q51.570879169921874,70.46101474609375,48.28259916992187,70.68281474609375Q47.875659169921875,70.71061474609375,47.49665916992188,70.69131474609375L48.93125916992187,65.68101474609375Q48.95806916992188,65.58951474609376,48.89747916992187,65.51501474609375Q48.836439169921874,65.43991474609375,48.740139169921875,65.44841474609375L43.046264169921876,65.90191474609375L43.79410516992188,58.14853474609375L50.797069169921876,58.58015474609375Q50.967329169921875,58.59044474609375,51.00780916992188,58.42402474609375L52.842039169921875,50.96053704609375L52.59446916992188,50.89969244609375L50.770089169921874,58.32306474609375L43.77477316992187,57.89191474609375Q43.56356916992188,57.87939474609375,43.54346816992187,58.09162474609375L42.78249616992188,65.98111474609375Q42.774873169921875,66.05811474609375,42.82854376992187,66.11381474609375Q42.882649169921876,66.16991474609375,42.96153486992188,66.16441474609375L48.657579169921874,65.71071474609374L47.22391916992188,70.71771474609375Q47.201459169921876,70.79741474609375,47.24883916992187,70.86541474609375Q47.29655916992188,70.93381474609374,47.38001916992187,70.93971474609376Q47.82212916992187,70.96981474609375,48.29975916992188,70.93721474609376Q51.58956916992187,70.71521474609375,54.90734916992187,70.54331474609376Q55.05974916992187,70.53521474609374,55.11874916992188,70.39481474609374L57.340649169921875,65.10491474609375Q57.37474916992188,65.02371474609375,57.459849169921874,65.01261474609375L59.56354916992187,64.74211474609375L58.19304916992188,70.11721474609375Q58.170049169921874,70.21041474609375,58.23074916992188,70.28471474609375Q58.291849169921875,70.35951474609375,58.389049169921876,70.35461474609374L64.44754916992187,70.01071474609375Q64.76784916992187,69.99301474609375,64.79314916992188,69.67321474609375Z" fill-rule="evenodd" fill="#FFFFFF" fill-opacity="1"/></g><g><path d="M67.83598053242187,65.12522162109374L68.79201573242187,65.20350162109375L68.81281573242188,64.94941162109374L67.92708073242187,64.87689162109375L68.20556073242187,63.57992162109375L67.95629873242187,63.52640162109375L67.66297473242187,64.89252162109375Q67.64365673242187,64.98491162109374,67.69214253242187,65.05070162109375Q67.74098763242188,65.11698162109376,67.83598053242187,65.12522162109374Z" fill-rule="evenodd" fill="#FFFFFF" fill-opacity="1"/></g><g><path d="M90.40244487304687,91.25781396484375L90.34514487304688,88.62311396484375L90.09024487304687,88.62871396484375L90.14674487304687,91.22551396484374L83.22414487304687,91.22551396484374L85.35844487304688,76.23421396484375Q85.37334487304688,76.12933396484375,85.31684487304688,76.06037396484375Q85.25944487304687,75.99037396484376,85.15314487304687,75.98620396484375L80.84518487304688,75.79758396484375Q80.66537487304687,75.78882396484374,80.61620487304688,75.96355396484375L76.09919487304687,91.25761396484376L72.40314787304688,91.25761396484376L75.39943487304687,75.52528396484375Q75.39995487304688,75.52246396484375,75.40164487304688,75.52161396484375Q77.10882487304687,74.65322396484375,78.07030487304688,73.95960396484375Q78.27808487304688,73.81018396484374,78.21612487304688,73.56739396484375Q78.16891487304687,73.38244396484374,77.98972487304687,73.25051396484375Q77.06310487304688,72.57669396484376,76.08573487304687,71.98908396484374L76.41175487304687,70.19460026484376L76.16092487304688,70.14902766484374L75.83078487304688,71.96611396484376Q75.80376487304687,72.11423396484375,75.93268487304688,72.19455396484375Q76.91191487304687,72.78197396484374,77.83857487304688,73.45581396484376Q77.94441487304688,73.53374396484375,77.96909487304687,73.63044396484375Q77.98805487304688,73.70473396484375,77.92115487304687,73.75284396484375Q76.97565487304688,74.43494396484375,75.28701487304687,75.29389396484375Q75.17143487304688,75.35207396484375,75.14899487304687,75.47758396484375L72.14828987304688,91.23311396484375Q72.12510787304687,91.35591396484375,72.18953397304688,91.43411396484375Q72.25422347304688,91.51251396484375,72.37934887304688,91.51251396484375L76.13464487304688,91.51251396484375Q76.28999487304688,91.51251396484375,76.33338487304688,91.36471396484376L80.85552487304687,76.05322396484375L85.10024487304688,76.23907396484375L82.95694487304688,91.29381396484375Q82.94634487304688,91.36791396484375,82.99534487304688,91.42431396484375Q83.04474487304688,91.48121396484375,83.11884487304687,91.48041396484375L90.18574487304687,91.48041396484375Q90.27724487304687,91.48051396484375,90.34104487304688,91.41441396484375Q90.40374487304688,91.34951396484375,90.40244487304687,91.25781396484375Z" fill-rule="evenodd" fill="#FFFFFF" fill-opacity="1"/></g><g><path d="M54.43437901367187,76.63672053109374L52.745386013671876,80.85883662109374L52.982092013671874,80.95352662109374L54.65303901367187,76.77651562109375L65.36743901367187,82.32451662109375Q65.39243901367188,82.33764662109375,65.40583901367188,82.36357662109376L69.86123901367188,91.22748662109375L63.42853901367187,91.23008662109375L63.42863901367188,91.48498662109375L69.94043901367188,91.48238662109375Q70.05583901367187,91.48188662109375,70.11573901367187,91.38298662109375Q70.17533901367187,91.28478662109374,70.12373901367188,91.18218662109375L65.63233901367187,82.24642662109375Q65.58193901367187,82.14915662109375,65.48463901367188,82.09812662109375L54.72571901367188,76.52705662109375Q54.64255901367188,76.48432162109376,54.55518901367188,76.51755162109374Q54.468169013671876,76.55064732109375,54.43437901367187,76.63672053109374Z" fill-rule="evenodd" fill="#FFFFFF" fill-opacity="1"/></g><g><path d="M52.34179659179688,76.37181105859375L45.80890188179688,75.94061605859375L45.79211130179687,76.19500405859375L52.236686591796875,76.62037005859375L51.11071659179687,79.29857005859375L51.34573659179688,79.39737005859375L52.50540659179688,76.63898305859375Q52.549116591796874,76.53684505859376,52.50117659179688,76.45827705859375Q52.45323659179687,76.37971005859374,52.34179659179688,76.37181105859375Z" fill-rule="evenodd" fill="#FFFFFF" fill-opacity="1"/></g><g><path d="M65.58398940429687,73.70694062109375L47.324999404296875,73.70694062109375L47.324999404296875,73.96188262109375L65.58398940429687,73.96188262109375Q65.84758940429688,73.96188262109375,65.86578940429688,74.33346262109374Q65.86618940429688,74.33841862109375,65.86388940429687,74.34102462109375Q64.99948940429687,75.31918162109375,64.04648940429688,75.31109162109375Q62.016889404296876,75.29186162109374,59.98848940429687,75.20341162109375Q58.611889404296875,75.14326162109376,55.706959404296875,75.05722162109375Q52.68270940429687,74.96766162109375,51.62393940429688,74.90960162109376Q51.236039404296875,74.88829162109376,50.478629404296875,74.87057162109375Q49.565979404296876,74.84922162109375,49.13334940429687,74.81609962109376Q47.59785940429688,74.69896862109375,46.05602783329687,74.69124662109375L46.05475097529688,74.94618162109376Q47.58753940429688,74.95386162109375,49.11388940429688,75.07030162109375Q49.553259404296874,75.10394162109375,50.47266940429687,75.12544162109376Q51.226059404296876,75.14307162109375,51.60997940429687,75.16416162109375Q52.671949404296875,75.22239162109375,55.69940940429687,75.31205162109374Q58.602489404296875,75.39804162109375,59.97738940429687,75.45811162109375Q62.01008940429688,75.54675162109375,64.04428940429688,75.56602162109375Q65.11358940429687,75.57510162109375,66.05618940429687,74.50844862109375Q66.12768940429687,74.42624262109375,66.12048940429688,74.32094862109375Q66.09028940429687,73.70694062109375,65.58398940429687,73.70694062109375Z" fill-rule="evenodd" fill="#FFFFFF" fill-opacity="1"/></g><g><path d="M52.16585815429688,71.82927299609375L41.251754154296876,72.31179999609375L41.263014154296876,72.56649099609375L52.17705815429687,72.08396599609375Q52.37975815429687,72.07539399609375,53.02805815429687,72.06241899609375Q54.591258154296874,72.03113699609375,55.279258154296876,71.98238899609375Q57.08195815429687,71.85262799609374,60.725958154296876,71.76192299609374Q62.298058154296875,71.72279099609375,63.08095815429688,71.69645599609375Q64.11985815429688,71.66074999609376,64.62115815429688,71.79410699609375Q65.25435815429688,71.96255899609375,65.81795815429687,72.53856199609375Q66.05875815429687,72.78396099609375,65.89505815429688,73.01802099609375Q65.88335815429687,73.03418099609375,65.86365815429687,73.03877099609375Q65.83935815429687,73.04471099609376,65.79195815429688,73.05734099609376Q65.62815815429687,73.10091099609375,65.56485815429687,73.10091099609375L40.59827952159687,73.11632099609375L40.59843678699688,73.37126099609375L65.56485815429687,73.35586099609375Q65.66145815429687,73.35586099609375,65.85745815429688,73.30371099609376Q65.90255815429688,73.29172099609374,65.92135815429688,73.28710099609376Q66.03415815429688,73.26089099609375,66.10395815429688,73.16412099609374Q66.38905815429688,72.75652099609376,66.00015815429688,72.36026499609375Q65.38755815429687,71.73419499609375,64.68665815429688,71.54773379609375Q64.14895815429688,71.40465999609376,63.07235815429688,71.44165799609375Q62.290558154296875,71.46795539609376,60.71965815429688,71.50705929609374Q57.069658154296874,71.59791399609375,55.261258154296875,71.72808399609374Q54.57965815429687,71.77637499609375,53.02295815429687,71.80752699609376Q52.37175815429688,71.82055999609375,52.16585815429688,71.82927299609375Z" fill-rule="evenodd" fill="#FFFFFF" fill-opacity="1"/></g><g><path d="M41.457645654296876,51.31338593359375L33.934295654296875,51.31338593359375L33.934295654296875,51.56832793359375L41.388625654296874,51.56832793359375L40.34762565429688,68.05565693359375Q40.33869565429688,68.22335693359375,40.49530565429687,68.27985693359375L42.307775654296876,68.91755693359374L42.516225654296875,71.11465693359375L42.77002565429687,71.09055693359375L42.560905654296874,68.88635693359375Q42.545035654296875,68.72925693359375,42.39734565429688,68.67875693359375L40.603575654296876,68.04765693359374L41.647355654296874,51.51648013359375Q41.652235654296874,51.43476813359375,41.59711565429687,51.37474133359375Q41.54052565429687,51.31312493359375,41.457645654296876,51.31338593359375Z" fill-rule="evenodd" fill="#FFFFFF" fill-opacity="1"/></g><g><path d="M68.05031752929688,71.96146224609375L66.83255372929688,72.46913224609375Q66.70186852929687,72.52368224609376,66.70186852929687,72.66507224609376L66.69549752929687,74.49977224609376Q66.69549652929688,74.66373224609374,66.84564432929687,74.72581224609375L67.99964752929688,75.21753224609375L66.96452752929687,76.25965224609375Q66.89494322929687,76.33128224609375,66.90214782929688,76.41524224609375Q66.90942452929687,76.50004224609376,66.99004452929688,76.55733224609375Q67.53579952929688,76.94437224609375,68.24827752929687,77.00774224609376Q69.16537752929688,77.08918224609376,69.83186752929687,76.73835224609375Q70.38752752929688,76.44586224609375,71.01158752929688,75.69429224609375Q71.01689752929687,75.68781224609376,71.02310752929688,75.68768224609374Q74.05629752929687,75.60179224609375,76.43976752929687,73.75266224609375Q76.51545752929687,73.69400224609375,76.51545752929687,73.59804224609375Q76.51545752929687,73.50209224609375,76.43971752929687,73.44339224609375Q74.06469752929688,71.57269224609375,71.02747752929687,71.51101224609376Q70.37391752929688,70.45364124609375,69.20095752929687,70.18104884609374Q68.02512752929688,69.90778724609375,66.98355752929687,70.57635524609375Q66.90423152929688,70.62717824609375,66.89541422929688,70.70836724609374Q66.88650252929688,70.79042524609375,66.95429752929688,70.85682824609376L68.05031752929688,71.96146224609375ZM68.30879752929687,71.86001224609375L67.19964552929687,70.74217724609375Q68.11627752929688,70.19070684609375,69.14324752929687,70.42937324609375Q70.21352752929687,70.67810624609375,70.81145752929687,71.64641224609375Q70.88368752929688,71.76326224609375,71.02057752929687,71.76586224609375Q73.93487752929687,71.82454224609376,76.22312752929687,73.59769224609374Q73.92749752929687,75.35038224609374,71.01807752929687,75.43279224609375Q70.89426752929687,75.43524224609375,70.81544752929688,75.53142224609375Q70.22382752929687,76.24392224609375,69.71311752929688,76.51275224609375Q69.11310752929687,76.82860224609375,68.27085752929688,76.75380224609376Q67.66460952929687,76.69988224609375,67.19534952929688,76.38903224609375L68.26167752929688,75.31550224609376Q68.32792752929687,75.24935224609375,68.31023752929687,75.15734224609375Q68.29249752929688,75.06504224609375,68.20628752929687,75.02846224609375L66.95046352929687,74.49337224609376L66.95671152929687,72.69358224609375L68.25195752929687,72.15361224609374Q68.35084752929687,72.11169224609375,68.36784752929688,72.02347224609375Q68.38484752929688,71.93526224609376,68.30879752929687,71.86001224609375ZM67.13372152929688,70.67573724609375L67.13269052929688,70.67469724609376L67.13372152929688,70.67573724609375Z" fill-rule="evenodd" fill="#FFFFFF" fill-opacity="1"/></g><g><path d="M73.44323409179688,80.43402771484375Q73.46772409179687,80.30308771484376,73.35401409179687,80.23318771484375L73.35216409179688,80.23206771484375L70.16793409179688,78.34815971484375Q70.03918409179687,78.27450771484375,69.93465409179687,78.37720541484374L66.40984629179688,81.85778771484375Q66.30879809179687,81.96037771484374,66.37519109179688,82.08624771484375L71.10443409179688,91.27245771484375Q71.16629409179687,91.39835771484375,71.30549409179687,91.37835771484374Q71.44525409179687,91.35825771484375,71.46898409179687,91.21875771484375L73.44323409179688,80.43402771484375ZM73.18491409179687,80.42933771484375L70.07975409179687,78.59221071484374L66.62127709179687,82.00729771484374L71.25014409179687,90.99845771484375L73.18491409179687,80.42933771484375Z" fill-rule="evenodd" fill="#FFFFFF" fill-opacity="1"/></g><g><path d="M77.00579463867187,65.72957615234375L76.16130463867188,70.14856615234375L76.41171463867188,70.19641615234374L77.26322463867187,65.74073615234374Q77.28094463867187,65.64256615234375,77.22118463867187,65.56444615234375Q77.16109463867187,65.48589615234376,77.06268463867187,65.47809615234375L74.04742563867188,65.26000615234375L75.13942463867187,60.59401215234375L75.64409463867187,60.52769015234375L75.61087463867187,60.27492215234375L75.09241463867187,60.34306215234375Q74.93270463867188,60.36524085234375,74.89405363867188,60.52369015234375L73.78286263867187,65.27175615234376Q73.76139963867188,65.35874615234376,73.81468773867188,65.43105615234376Q73.86725623867187,65.50238615234375,73.95606203867187,65.50900615234374L77.00579463867187,65.72957615234375Z" fill-rule="evenodd" fill="#FFFFFF" fill-opacity="1"/></g><g><path d="M69.36140831054688,57.03344245859375L67.95668031054687,63.52575505859375L68.20585631054688,63.57966505859375L69.58595831054687,57.20120305859375L74.26695831054687,60.45753505859375L73.15498831054687,65.25001505859375L68.81157331054688,64.94884505859375L68.79393831054688,65.20317505859376L73.17900831054688,65.50722505859375Q73.35275831054688,65.52094505859375,73.39351831054688,65.34993505859376L74.52245831054688,60.48421505859375Q74.55658831054687,60.34675505859375,74.44093831054687,60.26800505859375L69.63434831054687,56.92432075859375Q69.55621831054688,56.87098505859375,69.46849831054688,56.90631005859375Q69.38125831054687,56.94144025859375,69.36140831054688,57.03344245859375Z" fill-rule="evenodd" fill="#FFFFFF" fill-opacity="1"/></g><g><path d="M62.46649120117188,52.22204474609375L52.73661510117188,50.80397574609375L52.69984730117187,51.05625374609375L62.35549120117187,52.46350474609375L59.764191201171876,58.77410474609375Q59.72165120117187,58.87812474609375,59.77031120117188,58.95649474609375Q59.81965120117187,59.03597474609375,59.93245120117187,59.04220474609375L65.35793120117188,59.27327474609375Q65.37313120117187,59.27383474609375,65.38293120117187,59.284864746093746Q65.39303120117188,59.29628474609375,65.39183120117187,59.311684746093746L65.21973120117187,61.40821474609375L65.47383120117188,61.42911474609375L65.64593120117188,59.331784746093746Q65.65573120117188,59.20846474609375,65.57393120117187,59.11595474609375Q65.49173120117187,59.02304474609375,65.36883120117187,59.01856474609375L60.032721201171874,58.79131474609375L62.61961120117188,52.49145474609375Q62.65579120117187,52.40308474609375,62.60891120117188,52.31992474609375Q62.56174120117188,52.23626474609375,62.46649120117188,52.22204474609375Z" fill-rule="evenodd" fill="#FFFFFF" fill-opacity="1"/></g><g><path d="M94.60766807617188,58.93612990234375L104.79897807617188,60.37985990234375L104.83477807617187,60.12743990234375L94.64342807617187,58.68370990234375Q94.44446807617187,58.65542990234375,94.35360807617188,58.83604990234375L93.08977807617188,61.38840990234375L90.41593807617187,59.93237990234375L91.86286807617188,53.29956840234375L91.61377807617187,53.24523140234375L90.15544107617187,59.93035990234375Q90.12648707617187,60.06477990234375,90.24714037617187,60.13075990234375L92.99027807617188,61.62451990234375Q93.07649807617187,61.671499902343754,93.17004807617188,61.64180990234375Q93.26330807617188,61.61220990234375,93.30700807617187,61.52423990234375L94.58135807617188,58.950619902343746Q94.58991807617187,58.93360990234375,94.60766807617188,58.93612990234375Z" fill-rule="evenodd" fill="#FFFFFF" fill-opacity="1"/></g><g><path d="M95.69251940429687,76.10897412109375L95.31660940429687,82.75547412109376L95.57114940429688,82.76987412109375L95.94718940429688,76.12097412109375Q95.95417940429688,76.00367412109375,95.88822940429688,75.93097412109375Q95.82186940429688,75.85777412109375,95.70394940429688,75.85417412109375L91.65161040429687,75.74917412109374L91.65161040429687,71.26841412109376L97.13286940429687,71.26841412109376Q97.26756940429688,71.26826412109375,97.34356940429687,71.15818412109375L99.35766940429687,68.23598412109375Q99.42291940429688,68.13820412109375,99.36671940429687,68.03752412109375Q99.30867940429687,67.93342412109375,99.19027940429687,67.94289412109374L91.65161040429687,68.38018412109375L91.65161040429687,62.38124912109375L104.94043940429688,63.41556412109375L104.94043940429688,68.92336412109375L104.94013940429687,68.92369412109375L102.09673940429687,70.94333412109376Q101.99023940429687,71.01942412109375,102.03083940429687,71.14393412109375Q102.07033940429687,71.26503412109375,102.19783940429687,71.26836412109375L102.19943940429687,71.26841412109376L107.92773940429687,71.26841412109376L107.41293940429688,76.21697412109376L100.99684940429688,76.00817412109375Q100.90523940429688,76.00647412109375,100.85114940429688,76.06427412109375Q100.79759940429688,76.12157412109374,100.80440940429688,76.21077412109375L101.24034940429688,82.02657412109374L101.49457940429687,82.00757412109375L101.06416940429688,76.26547412109375L107.45573940429688,76.47347412109374Q107.64383940429687,76.48057412109375,107.66133940429688,76.29377412109375L108.18913940429687,71.21979412109376Q108.19763940429688,71.13076412109375,108.14533940429688,71.07247412109375Q108.09233940429688,71.01347412109375,108.00233940429688,71.01347412109375L102.43823940429688,71.01347412109375L105.08863940429687,69.13093412109374Q105.19543940429688,69.05444412109375,105.19543940429688,68.92336412109375L105.19543940429688,63.38584412109375Q105.19543940429688,63.18193312109375,104.99113940429687,63.16379612109375L91.60245140429687,62.12171012109375Q91.51242500429687,62.11499612109375,91.45442710429687,62.16906292109375Q91.39666840429688,62.22290662109375,91.39666840429688,62.31299452109375L91.39666840429688,68.44854412109375Q91.39666840429688,68.53668412109376,91.45298280429688,68.59010412109374Q91.50958770429688,68.64380412109375,91.59780910429687,68.63867412109374L99.06923940429688,68.20522412109375L97.13377940429687,71.01333412109375L97.13286940429687,71.01347412109375L91.58787500429688,71.01347412109375Q91.39666840429688,71.01347412109375,91.39666840429688,71.20510412109375L91.39666840429688,75.75697412109375Q91.39661040429688,75.99857412109375,91.63683140429687,76.00377412109376L95.69251940429687,76.10897412109375ZM99.20635940429688,68.19727412109376L99.21061940429688,68.19702412109375L99.20635940429688,68.19727412109376Z" fill-rule="evenodd" fill="#FFFFFF" fill-opacity="1"/></g><g><path d="M79.35536502929688,60.01592380859375L75.61887351929687,60.27394380859375L75.63643653929688,60.52827380859375L79.39046502929688,60.26904380859375Q79.51307502929687,60.26049380859375,79.57354502929688,60.17984380859375Q79.63368502929687,60.09961380859375,79.60839502929687,59.97956380859375L78.26252502929688,53.84761580859375L86.59275502929688,53.84762480859375L86.59135502929688,53.84770180859375L84.87703502929688,59.68116380859375Q84.85064502929687,59.77041380859375,84.90972502929688,59.84294380859375Q84.96751502929688,59.91388380859375,85.05905502929687,59.90852380859375L89.79585502929687,59.580973808593754L88.36285502929688,66.59675380859375L83.62646502929688,66.12105380859376Q83.42224502929687,66.10195380859375,83.36619502929688,66.29905380859375L82.01125502929688,71.02135380859374Q81.98541502929687,71.11415380859376,82.04177502929687,71.19055380859375Q82.09969502929687,71.26915380859376,82.19682502929687,71.26865380859375L89.78225502929688,71.26865380859375L89.83815502929687,78.05165380859376L90.09305502929688,78.04955380859374L90.03695502929688,71.24775380859376Q90.03695502929688,71.15105380859376,89.96895502929688,71.08255380859376Q89.90055502929687,71.01375380859375,89.80375502929688,71.01375380859375L82.27866502929687,71.01375380859375L83.60945502929687,66.37555380859375L88.38135502929687,66.85485380859375Q88.56805502929687,66.87135380859375,88.60415502929688,66.68925380859375L90.04845502929687,59.61806380859375Q90.07625502929687,59.48153380859375,90.00495502929688,59.39914380859375Q89.93305502929688,59.31613380859375,89.79365502929687,59.32557380859375L85.15294502929687,59.646493808593746L86.83625502929688,53.91856880859375Q86.87745502929687,53.77635720859375,86.80945502929687,53.68487390859375Q86.74095502929687,53.59268280859375,86.59275502929688,53.59268280859375L78.14493502929687,53.59269180859375Q78.06733502929687,53.59363580859375,78.01947502929687,53.65480290859375Q77.97199502929688,53.71548143859375,77.98883502929688,53.78983100859375L79.35536502929688,60.01592380859375Z" fill-rule="evenodd" fill="#FFFFFF" fill-opacity="1"/></g><g><path d="M92.00366159179687,51.49745215859375L91.61359959179687,53.24405255859375L91.86241359179688,53.29961255859375L92.24654859179688,51.57955555859375L97.85218659179688,51.86844655859375L96.72922659179687,54.11312255859375Q96.67681659179688,54.21889255859375,96.74745659179688,54.31280255859375Q96.81859659179688,54.40742255859375,96.93475659179687,54.38518255859375L104.94020659179688,52.94681255859375L104.94020659179688,60.15949255859375Q104.90690659179688,60.15245255859375,104.86510659179687,60.13522255859375L104.76800659179688,60.37095255859375Q104.91030659179688,60.42955255859375,105.02450659179688,60.41698255859375Q105.19510659179687,60.39789255859375,105.19510659179687,60.22613255859375L105.19510659179687,52.88936255859375Q105.19510659179687,52.79285255859375,105.12140659179687,52.73082255859375Q105.04720659179688,52.66840255859375,104.95210659179688,52.68566255859375L97.01496659179688,54.11176255859375L98.09953659179688,51.94382855859375Q98.16369659179688,51.81463155859375,98.10886659179687,51.71951755859375Q98.05350659179688,51.62349155859375,97.90906659179687,51.61609755859375L92.23114959179688,51.32348255859375Q92.04538759179688,51.31443355859375,92.00366159179687,51.49745215859375Z" fill-rule="evenodd" fill="#FFFFFF" fill-opacity="1"/></g><g><path d="M90.09025751367187,88.62962021484375L89.83786651367187,78.05376142484376L90.09273651367188,78.04767900484374L90.34512651367187,88.62352021484375L90.09025751367187,88.62962021484375Z" fill-rule="evenodd" fill="#FFFFFF" fill-opacity="1"/></g><g><path d="M95.11798831054688,91.22618708984375L95.57133431054687,82.76994908984375L95.31675831054687,82.75630108984375L94.86040931054687,91.26855708984375Q94.85582031054687,91.36255708984375,94.91160021054688,91.42161708984375Q94.96781121054687,91.48112708984375,95.06163271054687,91.48112708984375L101.97438831054687,91.48112708984375Q102.07484831054687,91.48112708984375,102.13342831054688,91.41762708984375Q102.19148831054687,91.35467708984375,102.18440831054687,91.25480708984375L101.49474831054687,82.00803615984375L101.24050831054687,82.02699801984375L101.92661831054687,91.22618708984375L95.11798831054688,91.22618708984375Z" fill-rule="evenodd" fill="#FFFFFF" fill-opacity="1"/></g><g><path d="M39.32962338867188,91.26020068359375L39.68022338867188,84.78068068359374L39.42562338867187,84.76691068359375L39.07642338867188,91.22110068359375L33.56984338867188,91.28440068359374L33.727473388671875,76.11271368359375Q33.72967338867188,75.85707768359374,33.59970338867188,75.83328668359376Q33.469033388671875,75.80936768359375,33.38198338867188,76.05007368359375L32.81646338867188,77.63144068359375L28.576650388671876,76.84587068359374Q28.574918388671875,76.84554068359375,28.575223388671876,76.84328068359375L28.788146388671876,75.23493008359375L28.535409688671876,75.20147128359375L28.322580388671874,76.80912068359375Q28.289981388671876,77.05021068359375,28.530205188671875,77.09655068359375L32.81203338867188,77.88988068359374Q32.984073388671874,77.91986068359375,33.04316338867187,77.75461068359375L33.46779338867187,76.56722068359375L33.31447338867187,91.32510068359375Q33.31447338867187,91.43210068359375,33.367943388671875,91.48570068359375Q33.421843388671874,91.53990068359374,33.53009338867187,91.53990068359374L39.10282338867187,91.47570068359374Q39.318623388671874,91.47600068359375,39.32962338867188,91.26020068359375Z" fill-rule="evenodd" fill="#FFFFFF" fill-opacity="1"/></g><g><path d="M41.23855586679687,91.47209927734374L46.232875966796875,91.40665927734375L46.229535966796874,91.15173927734375L41.337606966796876,91.21583927734375L42.53285596679687,87.28408497734375L42.28893596679688,87.20993357734375L41.063797966796876,91.24000927734374Q41.035125966796876,91.33562927734376,41.086452766796874,91.40409927734375Q41.13744016679688,91.47211927734375,41.23855586679687,91.47209927734374Z" fill-rule="evenodd" fill="#FFFFFF" fill-opacity="1"/></g><g><path d="M70.70802665429687,74.41801443359375Q71.04708265429687,74.75935443359376,71.52676565429688,74.75935443359376Q72.00643565429688,74.75935443359376,72.34549565429687,74.41801443359375Q72.68420565429687,74.07702443359375,72.68420565429687,73.59496443359374Q72.68420565429687,73.11290943359376,72.34549565429687,72.77191943359375Q72.00643565429688,72.43057343359375,71.52676565429688,72.43057343359375Q71.04708265429687,72.43057343359375,70.70802665429687,72.77191943359375Q70.36932465429688,73.11290943359376,70.36932465429688,73.59496443359374Q70.36932465429688,74.07702443359375,70.70802665429687,74.41801443359375ZM72.16462565429687,74.23834443359375Q71.90033565429688,74.50441443359375,71.52676565429688,74.50441443359375Q71.15318665429687,74.50441443359375,70.88890365429687,74.23834443359375Q70.62426665429687,73.97192443359376,70.62426665429687,73.59496443359374Q70.62426665429687,73.21800743359375,70.88890365429687,72.95158343359375Q71.15318665429687,72.68551543359375,71.52676565429688,72.68551543359375Q71.90033565429688,72.68551543359375,72.16462565429687,72.95158343359375Q72.42925565429688,73.21800843359375,72.42925565429688,73.59496443359374Q72.42925565429688,73.97192443359376,72.16462565429687,74.23834443359375Z" fill-rule="evenodd" fill="#FFFFFF" fill-opacity="1"/></g><g><path d="M46.113838794921875,91.23037177734375L51.110714794921876,79.29932937734375L51.34586479492187,79.39781417734375L46.348990794921875,91.32887177734375L46.113838794921875,91.23037177734375Z" fill-rule="evenodd" fill="#FFFFFF" fill-opacity="1"/></g><g><path d="M52.85127734179687,81.26478040234375L52.981145341796875,80.95441700234375L52.74596144179687,80.85600780234375L52.60956634179688,81.18197140234375Q52.554812341796875,81.31829240234374,52.652129041796876,81.42491040234376L61.85353534179687,91.38151240234374Q61.936015341796875,91.47141240234374,62.059495341796875,91.47371240234375L63.427375341796875,91.48401240234375L63.429275341796874,91.22911240234374L62.06425534179687,91.21881240234374Q62.05006534179687,91.21861240234375,62.04076534179688,91.20841240234375L52.85127734179687,81.26478040234375Z" fill-rule="evenodd" fill="#FFFFFF" fill-opacity="1"/></g><g><path d="M52.71825916992188,50.93011474609375L62.44814916992188,52.34818474609375C62.492449169921876,52.35478474609375,62.518749169921875,52.401494746093746,62.501649169921876,52.44314474609375L59.882149169921874,58.82252474609375Q59.846449169921875,58.90978474609375,59.939549169921875,58.91492474609375L65.36334916992188,59.14591474609375C65.45544916992188,59.14928474609375,65.52624916992187,59.22925474609375,65.51894916992188,59.32173474609375L65.34684916992188,61.41871474609375L64.66614916992188,69.66271474609376Q64.64954916992187,69.87191474609375,64.44054916992188,69.88341474609375L58.38184916992188,70.22741474609376C58.339149169921875,70.22951474609374,58.306449169921876,70.18961474609375,58.31674916992188,70.14781474609376L59.707549169921876,64.69371474609375C59.71964916992188,64.64421474609375,59.679049169921875,64.59791474609375,59.62974916992188,64.60511474609375L57.443649169921876,64.88621474609374Q57.28554916992188,64.90671474609375,57.22304916992188,65.05561474609375L55.00124916992188,70.34541474609375Q54.97324916992187,70.41221474609375,54.900549169921874,70.41601474609375Q51.58248916992187,70.58801474609375,48.291179169921875,70.81001474609374Q47.822089169921874,70.84211474609376,47.388689169921875,70.81261474609374C47.358829169921876,70.81041474609376,47.338459169921876,70.78121474609375,47.34661916992187,70.75221474609376L48.80871916992187,65.64591474609375C48.81963916992188,65.60861474609375,48.789839169921876,65.57191474609375,48.75134916992187,65.57531474609375L42.95141326992187,66.03731474609376C42.92699506992187,66.03901474609376,42.90692013992187,66.01821474609375,42.90934756592188,65.99371474609374L43.67035116992187,58.10386474609375C43.67510416992187,58.05367474609375,43.71792116992187,58.01624474609375,43.76723016992187,58.01916474609375L50.80490916992188,58.45292474609375Q50.86864916992187,58.45677474609375,50.88394916992188,58.39389474609375L52.71825916992188,50.93011474609375Z" fill="#FFFFFF" fill-opacity="1"/></g><g><path d="M33.934396044921876,51.44082894859375L41.45779604492188,51.44082894859375C41.49379604492188,51.44071561859375,41.52239604492188,51.47188290859375,41.520196044921875,51.50884490859375L40.47489604492188,68.06370380859374Q40.47109604492188,68.13550380859375,40.53869604492188,68.15990380859375L42.35509604492188,68.79900380859375Q42.426496044921876,68.82340380859375,42.434196044921876,68.89910380859375L42.64319604492188,71.10250380859375Q36.792296044921876,71.42210380859375,30.949016044921876,71.75450380859375C30.426386044921877,71.78400380859375,29.806878044921874,71.78530380859375,29.206488044921876,71.88670380859375C29.142847844921874,71.89760380859374,29.086909984921874,71.84330380859375,29.095588338921875,71.77890380859375L30.120456044921873,64.04810380859375Q30.130656044921874,63.96860380859375,30.203316044921873,63.99940380859375L33.68964604492187,65.45720380859375C33.730736044921876,65.47460380859376,33.776176044921876,65.44440380859375,33.77632604492187,65.39950380859375L33.82221604492187,51.52039480859375Q33.82221604492187,51.45237880859375,33.888506044921876,51.44082894859375Q33.910176044921876,51.43697890859375,33.934396044921876,51.44082894859375Z" fill="#FFFFFF" fill-opacity="1"/></g><g><path d="M104.81687807617188,60.253082558593746L94.62554807617188,58.80935255859375Q94.51719807617188,58.79395255859375,94.46748807617188,58.89276255859375L93.19277807617188,61.46712255859375C93.16667807617188,61.51962255859375,93.10257807617188,61.54002255859375,93.05127807617187,61.51202255859375L90.30810177617188,60.01823255859375C90.28619262617187,60.00625255859375,90.27477125617187,59.98116255859375,90.28005403617188,59.95663255859375L91.73832807617187,53.27183255859375L92.12838807617187,51.52523545859375Q92.14623807617187,51.44695315859375,92.22526807617187,51.45080295659375L97.90282807617187,51.74339955859375Q98.05324807617187,51.75109955859375,97.98568807617187,51.88713155859375L96.84354807617187,54.17015255859375C96.83294807617187,54.19154255859375,96.83530807617187,54.21712255859375,96.84964807617187,54.23617255859375C96.86397807617188,54.25522255859375,96.88778807617187,54.26445255859375,96.91110807617187,54.25998255859375L104.97497807617188,52.81112255859375C105.02337807617188,52.80232255859375,105.06797807617187,52.83982255859375,105.06797807617187,52.88940255859375L105.06797807617187,60.22613255859375Q105.06797807617187,60.283882558593746,105.01057807617187,60.29030255859375Q104.92907807617188,60.29928255859375,104.81687807617188,60.253082558593746Z" fill="#FFFFFF" fill-opacity="1"/></g><g><path d="M89.96524487304687,78.05055380859375L90.21764487304688,88.62645380859375L90.27504487304688,91.26105380859374C90.27574487304688,91.31185380859375,90.23554487304688,91.35345380859374,90.18584487304688,91.35345380859374L83.11884487304687,91.35345380859374C83.09694487304688,91.35365380859375,83.07994487304687,91.33425380859376,83.08314487304688,91.31235380859374L85.23224487304688,76.21675380859375Q85.24624487304688,76.11795380859375,85.14814487304687,76.11405380859375L80.83961487304687,75.92545380859374Q80.76058487304688,75.92155380859376,80.73891487304688,75.99855380859375L76.21113487304687,91.32905380859376Q76.19456487304687,91.38555380859376,76.13464487304688,91.38555380859376L72.37934887304688,91.38555380859376Q72.24932957304688,91.38555380859376,72.27354940304687,91.25725380859376L75.27421487304687,75.50195380859375Q75.28569487304688,75.43775380859375,75.34433487304688,75.40825380859374Q77.04224487304687,74.54455380859375,77.99572487304687,73.85675380859375C78.19203487304688,73.71555380859375,78.08496487304687,73.47945380859375,77.91414487304688,73.35365380859375Q76.98233487304688,72.67605380859375,75.99825487304687,72.08575380859375Q75.94471487304688,72.05235380859375,75.95619487304687,71.98945380859375L76.28633487304687,70.17225380859375L77.13785487304688,65.71665380859375C77.14783487304688,65.66125380859376,77.10813487304688,65.60935380859375,77.05244487304688,65.60495380859375L73.96509487304688,65.38165380859375C73.92492487304688,65.37865380859375,73.89693487304687,65.34065380859374,73.90645487304687,65.30205380859375L75.01800487304688,60.552543808593754Q75.03584487304687,60.47939380859375,75.10978487304688,60.46912380859375L75.62731487304687,60.40111380859375L79.38134487304687,60.14187380859375Q79.51008487304688,60.13289380859375,79.48331487304688,60.00584380859375L78.11300487304688,53.76250350859375C78.10813487304688,53.74098310859375,78.12421487304688,53.72042061159375,78.14614487304688,53.72015380859375L86.59234487304687,53.72015380859375Q86.76064487304687,53.72015380859375,86.71344487304688,53.88313480859375L84.99904487304687,59.71710380859375C84.98914487304688,59.75037380859375,85.01604487304688,59.78333380859375,85.05124487304687,59.78126380859375L89.80214487304687,59.45273380859375Q89.95384487304688,59.442473808593746,89.92324487304688,59.59262380859375L88.47894487304687,66.66375380859375Q88.46494487304687,66.73425380859375,88.39224487304688,66.72785380859375L83.61334487304687,66.24795380859375C83.55664487304688,66.24265380859376,83.50414487304687,66.27875380859375,83.48844487304687,66.33385380859374L82.13344487304687,71.05645380859374C82.12157487304688,71.09915380859375,82.15272487304688,71.14135380859375,82.19590487304687,71.14115380859374L89.80334487304688,71.14115380859374C89.86184487304688,71.14115380859374,89.90914487304687,71.18885380859375,89.90914487304687,71.24775380859376L89.96524487304687,78.05055380859375Z" fill="#FFFFFF" fill-opacity="1"/></g><g><path d="M68.80241573242188,65.07600505859375L67.84638333242188,64.99772505859374Q67.77245173242187,64.99130505859375,67.78774767242187,64.91815505859375L68.08092973242188,63.55270505859375L69.48566573242188,57.06039895859375C69.49313573242188,57.02576688859375,69.53300573242187,57.00970925859375,69.56214573242187,57.02959955859375L74.36780573242187,60.37264505859375Q74.41114573242187,60.40216505859375,74.39840573242188,60.45349505859375L73.26900573242187,65.32112505859375Q73.25371573242188,65.38528505859375,73.18870573242188,65.38015505859374L68.80241573242188,65.07600505859375Z" fill="#FFFFFF" fill-opacity="1"/></g><g><path d="M101.36745940429688,82.01707412109374L102.05703940429687,91.26337412109375Q102.06343940429687,91.35317412109376,101.97423940429688,91.35317412109376L95.06146940429687,91.35317412109376Q94.98370940429687,91.35317412109376,94.98752940429688,91.27487412109375L95.44387940429688,82.76267412109375L95.81991940429687,76.11377412109375Q95.82756940429688,75.98547412109374,95.70009940429688,75.98157412109376L91.64013440429687,75.87637412109375C91.57567560429688,75.87497412109374,91.52413162406687,75.82197412109375,91.52413940429688,75.75707412109375L91.52413940429688,71.20510412109375C91.52413940429688,71.16966412109375,91.55267730429688,71.14094412109375,91.58787500429688,71.14094412109375L97.13286940429687,71.14094412109375C97.17531940429687,71.14089412109375,97.21482940429688,71.12028412109375,97.23867940429687,71.08576412109375L99.25271940429687,68.16364412109375C99.26553940429687,68.14442412109375,99.26658940429688,68.11967412109375,99.25541940429687,68.09966412109375C99.24431940429687,68.07976412109375,99.22285940429687,68.06816412109374,99.20044940429688,68.06996412109375L91.59042690429688,68.51142412109375Q91.52413940429688,68.51527412109375,91.52413940429688,68.44854412109375L91.52413940429688,62.31299442109375Q91.52413940429688,62.24369516109375,91.59297100429687,62.24882855309375L104.98123940429687,63.29088412109375Q105.06793940429688,63.298584121093754,105.06793940429688,63.38584412109375L105.06793940429688,68.92336412109375C105.06793940429688,68.96452412109375,105.04803940429687,69.00325412109375,105.01443940429688,69.02731412109375L102.17053940429687,71.04726412109375C102.15263940429688,71.06005412109374,102.14513940429687,71.08321412109375,102.15203940429687,71.10437412109376C102.15903940429688,71.12571412109375,102.17863940429687,71.14035412109375,102.20113940429687,71.14094412109375L108.00233940429688,71.14094412109375Q108.06863940429687,71.14094412109375,108.06223940429688,71.20767412109375L107.53453940429688,76.28067412109375Q107.52813940429688,76.34867412109375,107.46063940429687,76.34607412109375L100.99269940429687,76.13557412109375Q100.92641940429688,76.13437412109374,100.93150940429688,76.20107412109375L101.36745940429688,82.01707412109374Z" fill="#FFFFFF" fill-opacity="1"/></g><g><path d="M68.21877752929687,71.95026224609374L67.04349452929688,70.76576324609375Q66.99632652929688,70.71956324609376,67.05241452929687,70.68362924609374C68.38193752929688,69.83022324609375,70.08622752929688,70.22933498609375,70.91988752929687,71.57938224609374Q70.95558752929688,71.63713224609376,71.02314752929688,71.63842224609375Q74.01871752929688,71.69873224609375,76.36163752929687,73.54414224609376C76.39676752929688,73.57137224609374,76.39676752929688,73.62471224609375,76.36163752929687,73.65194224609375Q74.01106752929688,75.47554224609375,71.02059752929688,75.56024224609375Q70.95558752929688,75.56152224609374,70.91351752929688,75.61285224609375C70.16653752929687,76.51246224609375,69.50240752929687,76.99114224609374,68.25956752929687,76.88077224609376Q67.58142252929687,76.82046224609375,67.06388652929688,76.45343224609375Q66.99887852929687,76.40723224609376,67.05496552929688,76.34948224609374L68.17160752929688,75.22529224609374C68.19608752929688,75.20085224609375,68.18808752929688,75.15921224609374,68.15631752929687,75.14573224609374L66.89435112929688,74.60801224609375Q66.82296752929688,74.57850224609375,66.82296752929688,74.50022224609376L66.82933952929687,72.66507224609376Q66.82933952929687,72.60860224609375,66.88160322929687,72.58679224609375L68.20220752929687,72.03625224609375Q68.27485752929688,72.00545224609375,68.21877752929687,71.95026224609374ZM72.55662752929688,73.59548224609375C72.55662752929688,73.02280224609375,72.09548752929688,72.55855224609375,71.52665752929687,72.55855224609375C70.95781752929688,72.55855224609375,70.49668752929688,73.02280224609375,70.49668752929688,73.59548224609375C70.49668752929688,74.16815224609375,70.95781752929688,74.63240224609375,71.52665752929687,74.63240224609375C72.09548752929688,74.63240224609375,72.55662752929688,74.16815224609375,72.55662752929688,73.59548224609375Z" fill="#FFFFFF" fill-opacity="1"/></g><g><path d="M40.598317138671874,73.24379099609375L30.591831038671874,73.23095099609375C30.579758038671876,73.22976099609375,30.570189378671873,73.22018099609375,30.568951347671874,73.20803099609375C30.567714288671876,73.19588099609375,30.575150238671874,73.18454099609374,30.586732038671876,73.18090099609375Q31.022684138671874,73.09620099609376,31.487953138671877,73.05514099609375Q34.97301713867188,72.74843099609375,38.467007138671875,72.58544099609375C39.235657138671876,72.54951199609376,40.325537138671876,72.44684599609376,41.25731713867187,72.43914699609375Q46.72711713867187,72.18761499609376,52.17141713867187,71.95661899609375C52.77821713867188,71.93095199609375,54.237717138671876,71.92838599609375,55.270217138671875,71.85523599609375C57.855417138671875,71.66915499609375,60.482517138671874,71.65632139609374,63.07661713867188,71.56905669609375C64.34621713867188,71.52542439609375,65.06901713867188,71.59087289609376,65.90901713867189,72.44941299609376Q66.22381713867188,72.77024099609375,65.99951713867188,73.09107099609375Q65.95871713867187,73.14754099609375,65.89241713867187,73.16294099609375C65.79301713867187,73.18732099609375,65.66681713867187,73.22839099609375,65.56481713867188,73.22839099609375Q53.08281713867187,73.21299099609375,40.598317138671874,73.24379099609375Z" fill="#FFFFFF" fill-opacity="1"/></g><g><path d="M47.32494252929688,73.83441162109375Q56.45324252929687,73.83697685109375,65.58394252929688,73.83441162109375Q65.96894252929687,73.83441162109375,65.99314252929688,74.32720562109375C65.99554252929687,74.36248762109375,65.98364252929687,74.39759462109375,65.96004252929689,74.42473662109376C65.47684252929687,74.97143162109376,64.80124252929687,75.44497162109376,64.04534252929687,75.43856162109375Q62.013442529296874,75.41931162109375,59.982842529296875,75.33076162109376C57.07524252929687,75.20371162109375,53.62974252929688,75.14724162109376,51.61694252929688,75.03688162109376C50.75264252929688,74.98940162109375,49.911342529296874,75.00351162109375,49.12364252929687,74.94320162109375Q47.592642529296874,74.82641562109374,46.05534252929687,74.81871662109376Q39.15536252929687,74.52611962109376,34.68112252929687,74.27202162109376Q32.99595252929687,74.17577262109376,30.567625029296874,73.92295892109375Q30.553603159296873,73.92167632109376,30.558702119296875,73.90884432109375Q30.563800119296875,73.89087602109375,30.570174029296876,73.87290962109375Q30.573998029296874,73.86136022109375,30.586744929296874,73.86136022109375L47.32494252929688,73.83441162109375Z" fill="#FFFFFF" fill-opacity="1"/></g><g><path d="M39.55292338867187,84.77472302734375L39.20232338867187,91.25415302734375C39.199623388671874,91.30745302734375,39.15592338867187,91.34925302734375,39.102923388671876,91.34915302734375L33.52863338867188,91.41335302734375Q33.44194338867187,91.41335302734375,33.44194338867187,91.32605302734375L33.600013388671876,76.11232302734375Q33.602563388671875,75.81587302734376,33.50186338867188,76.09435302734374L32.923143388671875,77.71261302734375Q32.90019338867187,77.77678302734375,32.833913388671874,77.76523302734375L28.553428388671875,76.97214302734375C28.485582488671874,76.95905302734376,28.439675718671875,76.89536302734375,28.448901608671875,76.82713302734375L28.661778388671873,75.21913102734375L28.715316388671877,74.95605042734375Q28.726788388671874,74.89573429734375,28.787975388671875,74.89958409334375L39.965923388671875,75.68112402734376C40.007023388671875,75.68387402734375,40.038223388671874,75.71932702734375,40.03602338867188,75.76069202734375L39.55292338867187,84.77472302734375Z" fill="#FFFFFF" fill-opacity="1"/></g><g><path d="M51.228065966796876,79.34797005859375L46.23120596679688,91.27901005859376L41.23688566679687,91.34441005859375Q41.165502066796876,91.34441005859375,41.18589794679688,91.27641005859375L42.41089596679687,87.24681005859375L45.80035596679687,76.06781005859375L52.33326596679687,76.49900505859375Q52.42376596679688,76.50542205859375,52.38806596679687,76.58883705859375L51.228065966796876,79.34797005859375Z" fill="#FFFFFF" fill-opacity="1"/></g><g><path d="M63.42837534179687,91.35748662109376L62.06187534179688,91.34728662109374Q61.993035341796876,91.34598662109374,61.947145341796876,91.29588662109376L52.746277941796876,81.33994662109374Q52.70293824179687,81.29246662109375,52.72715807179687,81.23214662109375L52.86355334179687,80.90618662109375L54.55254534179687,76.68406572109375C54.57051534179688,76.63829889109375,54.62373534179687,76.61805902109376,54.66726534179688,76.64043332109375L65.42587534179688,82.21131662109374Q65.48697534179688,82.24340662109375,65.51887534179687,82.30499662109375L70.00967534179688,91.23948662109375C70.03627534179688,91.29218662109375,69.99837534179687,91.35468662109375,69.93957534179688,91.35498662109374L63.42837534179687,91.35748662109376Z" fill="#FFFFFF" fill-opacity="1"/></g><g><path d="M70.10302409179687,78.45786773484375L73.28725409179688,80.34177771484374C73.31076409179687,80.35623771484374,73.32294409179687,80.38381771484374,73.31784409179687,80.41107771484376L71.34331409179687,91.19735771484375C71.33845409179688,91.22595771484374,71.31585409179688,91.24805771484375,71.28736409179687,91.25215771484375C71.25887409179687,91.25625771484376,71.23100409179688,91.24135771484374,71.21839409179688,91.21535771484375L66.48793930179687,82.02677771484375C66.47432391179687,82.00096771484375,66.47897259179688,81.96924771484375,66.49941129179687,81.94849771484375L70.02398409179688,78.46813451484375C70.04512409179688,78.44736988484375,70.07735409179688,78.44318523484375,70.10302409179687,78.45786773484375Z" fill="#FFFFFF" fill-opacity="1"/></g></g><g><path d="M59.80512690429688,18.54437255859375L39.243226904296876,18.54437255859375Q38.646926904296876,18.54437255859375,38.05132690429687,18.57363015859375Q37.45582690429687,18.60288775859375,36.862426904296875,18.66133255859375Q36.26902690429688,18.71977755859375,35.679226904296875,18.80726855859375Q35.08942690429687,18.89475955859375,34.504526904296874,19.01108555859375Q33.91972690429688,19.12741255859375,33.34132690429688,19.27229455859375Q32.762926904296876,19.41717655859375,32.19232690429688,19.59026255859375Q31.621726904296874,19.76335255859375,31.060326904296875,19.96423255859375Q30.498926904296873,20.16511255859375,29.948026904296874,20.39329255859375Q29.397126904296876,20.62147255859375,28.858126904296874,20.87641255859375Q28.319126904296873,21.13135255859375,27.793226904296873,21.41243255859375Q27.267426904296876,21.69351255859375,26.755926904296874,22.00005255859375Q26.244526904296876,22.30660255859375,25.748726904296873,22.63787255859375Q25.252926904296874,22.96914255859375,24.774036904296874,23.32433255859375Q24.295106904296873,23.67953255859375,23.834186904296875,24.05780255859375Q23.373256904296873,24.43607255859375,22.931456904296876,24.83650255859375Q22.489646904296876,25.23693255859375,22.068016904296876,25.65856255859375Q21.646386904296875,26.08019255859375,21.245956904296875,26.52200255859375Q20.845526904296875,26.96380255859375,20.467256904296875,27.42473255859375Q20.088986904296874,27.885652558593748,19.733786904296874,28.36458255859375Q19.378596904296874,28.84347255859375,19.047326904296874,29.33927255859375Q18.716056904296874,29.83507255859375,18.409506904296876,30.34647255859375Q18.102966904296874,30.85797255859375,17.821886904296875,31.383772558593748Q17.540806904296876,31.909672558593748,17.285866904296874,32.44867255859375Q17.030926904296877,32.98767255859375,16.802746904296875,33.53857255859375Q16.574566904296876,34.08947255859375,16.373686904296875,34.65087255859375Q16.172806904296873,35.21227255859375,15.999716904296875,35.78287255859375Q15.826630904296875,36.35347255859375,15.681748904296875,36.93187255859375Q15.536866904296875,37.510272558593755,15.420539904296875,38.09507255859375Q15.304213904296875,38.67997255859375,15.216722904296875,39.26977255859375Q15.129231904296875,39.859572558593754,15.070786904296876,40.45297255859375Q15.012342104296875,41.046372558593745,14.983084504296874,41.64187255859375Q14.953826904296875,42.23747255859375,14.953826904296875,42.83377255859375L14.953826904296875,63.39567255859375L59.80512690429688,18.544372558593743L59.80512690429688,18.54437255859375Z" fill-rule="evenodd" fill="url(#master_svg1_28_2110)" fill-opacity="1"/></g><g transform="matrix(0.7071067690849304,-0.7071067690849304,0.7071067690849304,0.7071067690849304,-12.819762859435286,5.310119953064714)"><path d="M5.2627,46.384482812499996Q6.38541,46.384482812499996,7.28884,46.9107828125Q8.19227,47.4369828125,8.70099,48.384282812500004Q9.20972,49.3315828125,9.20972,50.5419828125Q9.20972,51.8225828125,8.64837,52.7961828125Q8.08701,53.7697828125,7.11341,54.2960828125Q6.13981,54.8222828125,4.96448,54.8222828125Q3.63126,54.8222828125,2.61381,54.1732828125Q1.59635,53.5241828125,1.19288,52.2611828125L2.71906,51.3839828125Q2.99974,52.2611828125,3.56986,52.6996828125Q4.13999,53.1382828125,4.94694,53.1382828125Q6.01702,53.1382828125,6.61346,52.4277828125Q7.2099,51.7172828125,7.2099,50.6121828125Q7.2099,49.5420828125,6.62223,48.805282812499996Q6.03456,48.0684828125,4.92939,48.0684828125Q3.54355,48.0684828125,2.71906,49.3666828125L1.45601,48.7351828125L2.33313,41.753282812500004L8.61328,41.753282812500004L8.61328,43.3846828125L3.94702,43.3846828125L3.49092,46.8229828125Q4.28033,46.384482812499996,5.2627,46.384482812499996ZM17.2967,49.4367828125L17.2967,47.7702828125L21.7876,47.7702828125L21.7876,52.8575828125Q21.2087,53.7171828125,19.9895,54.2697828125Q18.7703,54.8222828125,17.2616,54.8222828125Q15.4548,54.8222828125,14.0339,53.9890828125Q12.6129,53.1557828125,11.806,51.6383828125Q10.999,50.1209828125,10.999,48.1737828125Q10.999,46.2265828125,11.8148,44.7266828125Q12.6305,43.2268828125,14.0426,42.4023828125Q15.4548,41.5778828125,17.1739,41.5778828125Q18.7878,41.5778828125,20.007,42.2707828125Q21.2262,42.9636828125,21.7349,44.156582812500005L20.1912,45.0512828125Q19.7877,44.261882812500005,18.9808,43.7793828125Q18.1738,43.296982812500005,17.1038,43.296982812500005Q15.9109,43.296982812500005,14.9724,43.9021828125Q14.0339,44.5074828125,13.5076,45.6213828125Q12.9813,46.7352828125,12.9813,48.1737828125Q12.9813,49.6473828125,13.5251,50.7612828125Q14.0689,51.8751828125,15.0689,52.4891828125Q16.0688,53.1031828125,17.3844,53.1031828125Q19.0685,53.1031828125,19.9105,52.2084828125L19.9105,49.4367828125L17.2967,49.4367828125Z" fill="#FFFFFF" fill-opacity="1"/></g></g></svg>