<svg xmlns="http://www.w3.org/2000/svg" xmlns:xlink="http://www.w3.org/1999/xlink" fill="none" version="1.1" width="20.5" height="26.5" viewBox="0 0 20.5 26.5"><g><g><path d="M8.40724,13.2771L0.583795,19.3123Q0.4475499999999999,19.4174,0.3386499999999999,19.5507Q0.22974000000000006,19.6839,0.15383999999999998,19.8383Q0.07793000000000005,19.9927,0.03896999999999995,20.1603Q0,20.3279,0,20.5Q0,20.5737,0.007220000000000004,20.647Q0.014450000000000074,20.7204,0.028820000000000068,20.7926Q0.043199999999999905,20.8649,0.06458999999999993,20.9354Q0.08597999999999995,21.0059,0.11417999999999995,21.074Q0.14237999999999995,21.1421,0.17711999999999994,21.2071Q0.21185999999999994,21.2721,0.2527999999999999,21.3334Q0.2937399999999999,21.3946,0.3404799999999999,21.4516Q0.38722999999999996,21.5086,0.43934000000000006,21.5607Q0.49144999999999994,21.6128,0.54841,21.6595Q0.605373,21.7063,0.666645,21.7472Q0.727916,21.7881,0.792905,21.8229Q0.857894,21.8576,0.925975,21.8858Q0.994056,21.914,1.064573,21.9354Q1.13509,21.9568,1.207365,21.9712Q1.279639,21.9856,1.3529740000000001,21.9928Q1.4263097,22,1.5,22Q1.748644,22,1.983989,21.9198Q2.219334,21.8395,2.416205,21.6877L9.5,16.223L9.5,25Q9.5,25.0737,9.50722,25.147Q9.51445,25.2204,9.52882,25.2926Q9.5432,25.3649,9.56459,25.4354Q9.58598,25.5059,9.61418,25.574Q9.64238,25.6421,9.67712,25.7071Q9.71185,25.7721,9.75279,25.8334Q9.79374,25.8946,9.84048,25.9516Q9.88723,26.0086,9.93934,26.0607Q9.99145,26.1128,10.04841,26.1595Q10.10537,26.2063,10.16664,26.2472Q10.22791,26.2881,10.2929,26.3229Q10.35789,26.3576,10.42597,26.3858Q10.49406,26.414,10.56457,26.4354Q10.63509,26.4568,10.70736,26.4712Q10.77964,26.4856,10.85297,26.4928Q10.92631,26.5,11,26.5Q11.24342,26.5,11.47434,26.423Q11.7053,26.3461,11.9,26.2L19.9,20.2Q19.959,20.1558,20.0133,20.106Q20.0676,20.0562,20.1168,20.0014Q20.166,19.9465,20.2096,19.8871Q20.2532,19.8276,20.2907,19.7642Q20.3283,19.7008,20.3594,19.634Q20.3906,19.5673,20.415,19.4977Q20.4395,19.4282,20.457,19.3567Q20.4745,19.2851,20.4849,19.2121Q20.4953,19.1392,20.4986,19.0656Q20.5018,18.9919,20.4978,18.9184Q20.4938,18.8448,20.4826,18.7719Q20.4714,18.6991,20.4531,18.6277Q20.4348,18.5563,20.4096,18.4871Q20.3844,18.4178,20.3525,18.3514Q20.3207,18.285,20.2824,18.222Q20.2442,18.159,20.2,18.1Q20.0607,17.9143,19.8719,17.7794L13.4389,13.1844L19.9162,8.18767Q19.9746,8.14266,20.0282,8.09215Q20.0819,8.041640000000001,20.1303,7.98611Q20.1787,7.93058,20.2215,7.87057Q20.2643,7.81056,20.301,7.74665Q20.3376,7.68274,20.3679,7.61554Q20.3981,7.54834,20.4216,7.4785Q20.4451,7.40866,20.4617,7.33685Q20.4782,7.26504,20.4877,7.19196Q20.4971,7.11887,20.4993,7.04522Q20.5015,6.97156,20.4965,6.89804Q20.4915,6.82452,20.4793,6.75184Q20.4671,6.67917,20.4479,6.60804Q20.4286,6.53691,20.4025,6.46801Q20.3764,6.39911,20.3436,6.3331Q20.3108,6.2671,20.2718,6.20462Q20.2327,6.14214,20.1877,6.08379Q20.0438,5.89734,19.8498,5.76394L11.8498,0.26394000000000006Q11.7891,0.2221900000000001,11.7245,0.18659000000000003Q11.66,0.15100000000000002,11.5923,0.1218999999999999Q11.5246,0.0928,11.45439,0.0704800000000001Q11.38416,0.04815999999999998,11.31208,0.032829999999999915Q11.24001,0.017490000000000006,11.16677,0.009300000000000086Q11.09354,0.0011099999999999444,11.01986,0.00012999999999996348Q10.94617,-0.0008399999999999519,10.87275,0.005409999999999915Q10.79932,0.011660000000000004,10.72687,0.02507999999999999Q10.65441,0.03849999999999998,10.58361,0.05895000000000006Q10.51282,0.07940999999999998,10.44437,0.10670000000000002Q10.37592,0.1339999999999999,10.31048,0.16786999999999996Q10.24504,0.2017500000000001,10.18323,0.24187000000000003Q10.12142,0.28200000000000003,10.06384,0.32799Q10.00626,0.37398,9.95347,0.42538999999999993Q9.90068,0.4767999999999999,9.85318,0.533143Q9.80568,0.589483,9.76394,0.650207Q9.63501,0.837742,9.5675,1.055081Q9.5,1.2724199999999999,9.5,1.5L9.5,10.37093L2.372211,5.27965L2.371857,5.2794Q2.181056,5.14311,1.957766,5.07156Q1.734476,5,1.5,5Q1.4263097,5,1.3529740000000001,5.00722Q1.279639,5.01445,1.207365,5.02882Q1.13509,5.043200000000001,1.064573,5.06459Q0.994056,5.08598,0.925975,5.11418Q0.857894,5.14238,0.792905,5.17712Q0.727916,5.21186,0.666645,5.252800000000001Q0.605373,5.29374,0.54841,5.3404799999999994Q0.49144999999999994,5.387230000000001,0.43934000000000006,5.43934Q0.38722999999999996,5.49145,0.3404799999999999,5.54841Q0.2937399999999999,5.60537,0.2527999999999999,5.66664Q0.21185999999999994,5.72792,0.17711999999999994,5.7929Q0.14237999999999995,5.85789,0.11417999999999995,5.92597Q0.08597999999999995,5.99406,0.06458999999999993,6.06457Q0.043199999999999905,6.13509,0.028820000000000068,6.20736Q0.014450000000000074,6.27964,0.007220000000000004,6.35297Q0,6.42631,0,6.5Q0,6.67907,0.04214999999999991,6.85311Q0.08431000000000011,7.02715,0.16625,7.18637Q0.2481899999999999,7.3456,0.36531,7.48106Q0.4824299999999999,7.61652,0.628143,7.7206L0.628496,7.72085L8.40724,13.2771ZM12.5,16.200499999999998L16.4606,19.0295L12.5,22L12.5,16.200499999999998ZM12.5,10.11983L12.5,4.35155L16.4538,7.06977L12.5,10.11983Z" fill-rule="evenodd" fill="#FCFCFC" fill-opacity="1"/></g></g></svg>