<svg xmlns="http://www.w3.org/2000/svg" xmlns:xlink="http://www.w3.org/1999/xlink" fill="none" version="1.1" width="80" height="80" viewBox="0 0 80 80"><defs><clipPath id="master_svg0_5_9378"><rect x="0" y="0" width="80" height="80" rx="0"/></clipPath></defs><g clip-path="url(#master_svg0_5_9378)"><g><path d="M63.5,33.1220365234375L63.5,17.0636265234375Q63.5,16.5544965234375,63.0883,16.254986523437502Q62.6766,15.9554665234375,62.1922,16.1121865234375L34.1922,25.1710365234375Q33.5,25.3949365234375,33.5,26.1224365234375L33.5,57.4399365234375Q33.5,59.5748365234375,32.674,61.5276365234375Q31.8769,63.4123365234375,30.4246,64.8645365234375Q28.9723,66.3168365234375,27.087699999999998,67.1139365234375Q25.134900000000002,67.9399365234375,23,67.9399365234375Q20.86511,67.9399365234375,18.912309999999998,67.1139365234375Q17.02765,66.3168365234375,15.57538,64.8645365234375Q14.12311,63.4123365234375,13.325964,61.5276365234375Q12.5,59.5748365234375,12.5,57.4399365234375Q12.5,55.3050365234375,13.325963,53.3522365234375Q14.12311,51.4676365234375,15.57538,50.0153365234375Q17.02765,48.5630365234375,18.912309999999998,47.7659365234375Q20.86511,46.9399365234375,23,46.9399365234375Q24.6354,46.9399365234375,26.164,47.4246365234375C26.3658,47.4886365234375,26.5,47.6789365234375,26.5,47.8906365234375L26.5,51.0233365234375C26.5,51.4206365234375,26.048299999999998,51.6638365234375,25.686799999999998,51.4991365234375Q24.4592,50.9399365234375,23,50.9399365234375Q20.30761,50.9399365234375,18.40381,52.8437365234375Q16.5,54.7475365234375,16.5,57.4399365234375Q16.5,60.1323365234375,18.40381,62.0361365234375Q20.30761,63.9399365234375,23,63.9399365234375Q25.6924,63.9399365234375,27.5962,62.0361365234375Q29.5,60.1323365234375,29.5,57.4399365234375Q29.5,57.4132365234375,29.4998,57.3868365234375C29.4998,57.3855365234375,29.4998,57.3846365234375,29.4998,57.3834365234375L29.5,26.1224365234375Q29.5,24.4961365234375,30.4568,23.180936523437502Q31.4135,21.8658465234375,32.960899999999995,21.3652265234375L60.9609,12.3064075234375Q62.1391,11.9252155234375,63.347,12.1335349234375Q64.4945,12.3314545234375,65.44149999999999,13.0203945234375Q66.3885,13.7093365234375,66.93,14.7402165234375Q67.5,15.8252765234375,67.5,17.0636265234375L67.5,48.9340365234375C67.5,48.9372365234375,67.4973,48.9399365234375,67.4941,48.9399365234375C67.49090000000001,48.9399365234375,67.48830000000001,48.9421365234375,67.4882,48.9453365234375Q67.4066,50.6787365234375,66.7628,52.3049365234375Q65.9623,54.3268365234375,64.4246,55.8645365234375Q62.8869,57.4022365234375,60.865,58.2027365234375Q59.0028,58.9399365234375,57,58.9399365234375Q54.9972,58.9399365234375,53.135,58.2027365234375Q51.1131,57.4022365234375,49.5754,55.8645365234375Q48.0377,54.3268365234375,47.2372,52.3049365234375Q46.5,50.4427365234375,46.5,48.4399365234375Q46.5,46.4371365234375,47.2372,44.5749365234375Q48.0377,42.5530365234375,49.5754,41.0153365234375Q51.1131,39.477636523437496,53.135,38.6771365234375Q54.9972,37.939936523437495,57,37.939936523437495Q58.6277,37.939936523437495,60.1624,38.4268365234375C60.3642,38.4908365234375,60.5,38.6817365234375,60.5,38.8934365234375L60.5,42.0233365234375C60.5,42.4206365234375,60.0483,42.663836523437496,59.6868,42.4991365234375Q58.4592,41.939936523437495,57,41.939936523437495Q54.3076,41.939936523437495,52.4038,43.8437365234375Q50.5,45.7475365234375,50.5,48.4399365234375Q50.5,51.1323365234375,52.4038,53.0361365234375Q54.3076,54.9399365234375,57,54.9399365234375Q59.6924,54.9399365234375,61.5962,53.0361365234375Q63.4701,51.1622365234375,63.4995,48.5244365234375L63.4995,48.5244365234375L63.5,33.1220365234375Z" fill-rule="evenodd" fill="#FFFFFF" fill-opacity="1"/></g></g></svg>