<svg xmlns="http://www.w3.org/2000/svg" xmlns:xlink="http://www.w3.org/1999/xlink" fill="none" version="1.1" width="126" height="48" viewBox="0 0 126 48"><g><path d="M26.016,40.288L19.584,40.288L13.696,35.264Q12.928,35.328,12.512,35.328Q9.376,35.328,6.832,33.872Q4.288,32.416,2.816,29.664Q1.344,26.912,1.344,23.2Q1.344,19.52,2.816,16.768Q4.288,14.016,6.832,12.56Q9.376,11.104,12.512,11.104Q15.648,11.104,18.192,12.56Q20.736,14.016,22.224,16.768Q23.712,19.52,23.712,23.2Q23.712,26.784,22.304,29.488Q20.896,32.192,18.496,33.696L26.016,40.288ZM6.24,23.2Q6.24,25.536,7.024,27.328Q7.808,29.12,9.232,30.096Q10.656,31.072,12.512,31.072Q14.368,31.072,15.792,30.096Q17.216,29.12,18,27.328Q18.784,25.536,18.784,23.2Q18.784,20.864,18,19.088Q17.216,17.312,15.792,16.336Q14.368,15.36,12.512,15.36Q10.656,15.36,9.232,16.336Q7.808,17.312,7.024,19.088Q6.24,20.864,6.24,23.2ZM49.376,11.52L41.152,22.944L49.76,34.944L44,34.944L38.304,26.72L32.576,34.944L27.2,34.944L35.776,23.04L27.584,11.52L33.248,11.52L38.624,19.264L44,11.52L49.376,11.52ZM74.176,11.52L65.952,22.944L74.56,34.944L68.8,34.944L63.104,26.72L57.376,34.944L52,34.944L60.576,23.04L52.384,11.52L58.048,11.52L63.424,19.264L68.8,11.52L74.176,11.52ZM84.736,17.952Q88.096,17.952,89.984,19.856Q91.872,21.76,91.872,25.28L91.872,34.944L88.128,34.944Q88.096,34.688,88.048,34.096Q88,33.504,87.904,33.056Q87.168,34.208,86,34.768Q84.832,35.328,83.168,35.328Q81.44,35.328,80.016,34.72Q78.592,34.112,77.76,32.944Q76.928,31.776,76.928,30.176Q76.928,28.512,77.866,27.28Q78.8045,26.048,80.3945,25.376Q81.985,24.704,83.8935,24.704Q85.611,24.704,87.424,25.28Q87.424,21.6,84.369,21.6Q81.9255,21.6,80.8,23.776L77.632,21.952Q78.528,20.096,80.384,19.024Q82.24,17.952,84.736,17.952ZM87.488,28.224Q85.888,27.84,84.704,27.84Q83.136,27.84,82.272,28.4Q81.408,28.96,81.408,29.984Q81.408,30.912,82.096,31.424Q82.784,31.936,83.872,31.936Q85.312,31.936,86.4,31.12Q87.488,30.304,87.488,28.864L87.488,28.224ZM108.416,18.368L112.864,18.368L112.864,34.944L108.928,34.944Q108.8,33.024,108.672,32.352Q107.84,33.856,106.496,34.592Q105.152,35.328,103.424,35.328Q100.64,35.328,99.04,33.536Q97.44,31.744,97.44,28.288L97.44,18.368L101.888,18.368L101.888,26.816Q101.888,31.392,104.832,31.392Q106.432,31.392,107.424,30.144Q108.416,28.896,108.416,26.656L108.416,18.368Z" fill="#FFFFFF" fill-opacity="1"/></g></svg>