<svg xmlns="http://www.w3.org/2000/svg" xmlns:xlink="http://www.w3.org/1999/xlink" fill="none" version="1.1" width="18.19403076171875" height="19.8831787109375" viewBox="0 0 18.19403076171875 19.8831787109375"><g><path d="M7.94812,0C7.39584,0,6.94812,0.447715,6.94812,1L6.94812,2.39048C4.35313,3.2823,2.48828,5.74438,2.48828,8.64201L2.48828,14.6841L0.5,14.6841Q0.450754,14.6841,0.402455,14.6937Q0.354155,14.7033,0.308658,14.7222Q0.263161,14.741,0.222215,14.7684Q0.181269,14.7958,0.146447,14.8306Q0.111625,14.8654,0.0842652,14.9063Q0.0569057,14.9473,0.0380602,14.9928Q0.0192147,15.0383,0.00960736,15.0866Q0,15.1349,0,15.1841L0,16.2016Q0,16.2508,0.00960736,16.2991Q0.0192147,16.3474,0.0380602,16.3929Q0.0569057,16.4384,0.0842652,16.4793Q0.111625,16.5203,0.146447,16.5551Q0.181269,16.5899,0.222215,16.6173Q0.263161,16.6446,0.308658,16.6635Q0.354155,16.6823,0.402455,16.6919Q0.450754,16.7016,0.5,16.7016L17.694,16.7016Q17.7433,16.7016,17.7916,16.6919Q17.8399,16.6823,17.8854,16.6635Q17.9309,16.6446,17.9718,16.6173Q18.0128,16.5899,18.0476,16.5551Q18.0824,16.5203,18.1098,16.4793Q18.1371,16.4384,18.156,16.3929Q18.1748,16.3474,18.1844,16.2991Q18.194,16.2508,18.194,16.2016L18.194,15.1841Q18.194,15.1349,18.1844,15.0866Q18.1748,15.0383,18.156,14.9928Q18.1371,14.9473,18.1098,14.9063Q18.0824,14.8654,18.0476,14.8306Q18.0128,14.7958,17.9718,14.7684Q17.9309,14.741,17.8854,14.7222Q17.8399,14.7033,17.7916,14.6937Q17.7433,14.6841,17.694,14.6841L15.7058,14.6841L15.7058,8.64201C15.7058,5.7444,13.841,3.28234,11.246,2.3905L11.246,1C11.246,0.447715,10.7983,0,10.246,0L7.94812,0ZM9.09705,19.8832Q8.97423,19.8832,8.852,19.8711Q8.72978,19.8591,8.60932,19.8351Q8.48886,19.8112,8.37133,19.7755Q8.25381,19.7399,8.14034,19.6929Q8.02687,19.6459,7.91855,19.588Q7.81024,19.5301,7.70812,19.4619Q7.606,19.3936,7.51106,19.3157Q7.41612,19.2378,7.32928,19.1509Q7.24243,19.0641,7.16452,18.9692Q7.08661,18.8742,7.01837,18.7721Q6.95014,18.67,6.89224,18.5617Q6.83435,18.4534,6.78735,18.3399Q6.74035,18.2264,6.70469,18.1089Q6.66904,17.9914,6.64508,17.8709Q6.62112,17.7504,6.60908,17.6282Q6.59705,17.506,6.59705,17.3832L11.597,17.3832Q11.597,17.506,11.585,17.6282Q11.573,17.7504,11.549,17.8709Q11.525,17.9914,11.4894,18.1089Q11.4537,18.2264,11.4067,18.3399Q11.3597,18.4534,11.3018,18.5617Q11.244,18.67,11.1757,18.7721Q11.1075,18.8742,11.0296,18.9692Q10.9517,19.0641,10.8648,19.1509Q10.778,19.2378,10.683,19.3157Q10.5881,19.3936,10.486,19.4619Q10.3839,19.5301,10.2755,19.588Q10.1672,19.6459,10.0538,19.6929Q9.94028,19.7399,9.82276,19.7755Q9.70523,19.8112,9.58477,19.8351Q9.46431,19.8591,9.34209,19.8711Q9.21986,19.8832,9.09705,19.8832Z" fill-rule="evenodd" fill="#FFFFFF" fill-opacity="1"/></g></svg>