<svg xmlns="http://www.w3.org/2000/svg" xmlns:xlink="http://www.w3.org/1999/xlink" fill="none" version="1.1" width="29.04443359375" height="29.1898193359375" viewBox="0 0 29.04443359375 29.1898193359375"><g><g transform="matrix(0.9677586555480957,0.25187963247299194,-0.25187963247299194,0.9677586555480957,1.672858296566119,-0.9465554142589099)"><path d="M7.4723834765625,8.4567572265625L11.5327034765625,10.780157226562501C11.9954734765625,11.0438872265625,12.5216334765625,11.1851772265625,13.0541334765625,11.1851772265625C13.6975734765625,11.1851772265625,14.3124834765625,10.987367226562501,14.8355134765625,10.6137472265625C15.2539134765625,10.3154772265625,15.7673134765625,10.1490672265625,16.2840134765625,10.1490672265625C16.6865134765625,10.1490672265625,17.0732134765625,10.2463972265625,17.4314134765625,10.4347872265625C17.8720134765625,10.6671272265625,18.223813476562498,11.0187772265625,18.4552134765625,11.452047226562499C18.6803134765625,11.8790472265625,18.7722134765625,12.3562872265625,18.7246134765625,12.8303872265625C18.6042134765625,14.0140672265625,19.1937134765625,15.1631972265625,20.2302134765625,15.7534672265625L24.1035134765625,17.9669572265625C23.3333134765625,19.0595572265625,22.3349134765625,19.985757226562498,21.1779134765625,20.679657226562497C19.697713476562498,21.5650572265625,17.9956134765625,22.0391572265625,16.2555134765625,22.0517572265625L16.1984134765625,22.0517572265625C14.9020134765625,22.0517572265625,13.6436934765625,21.8036572265625,12.4614134765625,21.3107572265625C11.3171634765625,20.8366572265625,10.2901934765625,20.1553572265625,9.409033476562499,19.2856572265625C8.5247034765625,18.415957226562497,7.8305534765625,17.4049572265625,7.3424234765625,16.2777572265625C6.8384534765625,15.1098272265625,6.5753634765625,13.866497226562501,6.5658634765625,12.579207226562499C6.5531834765625,11.1474972265625,6.8638034765625004,9.7377672265625,7.4723834765625,8.4567572265625ZM7.0730034765625,6.0611572265625C6.7275134765625,6.0611572265625,6.3947034765624995,6.2338412265625,6.2045234765625,6.5478122265625C5.1300084765625,8.3123372265625,4.5182655765625,10.3814072265625,4.5341138235625,12.594907226562501C4.5816585765625,18.9559572265625,9.7830534765625,24.0611572265625,16.1984134765625,24.0611572265625L16.268113476562498,24.0611572265625C20.6296134765625,24.0360572265625,24.4237134765625,21.6404572265625,26.4047134765625,18.1082572265625C26.6741134765625,17.6278572265625,26.5093134765625,17.0219572265625,26.0275134765625,16.7456572265625L21.2477134765625,14.010927226562501C20.8990134765625,13.8131172265625,20.7057134765625,13.4269372265625,20.7469134765625,13.0313272265625C20.9244134765625,11.288787226562501,20.0464134765625,9.5305472265625,18.388613476562497,8.6577072265625C17.7167134765625,8.3060572265625,16.9972134765625,8.1365072265625,16.2872134765625,8.1365072265625C15.3426134765625,8.1365072265625,14.4170834765625,8.4316472265625,13.6500334765625,8.9842372265625C13.4756934765625,9.1098272265625,13.2665034765625,9.172617226562501,13.0604734765625,9.172617226562501C12.8861434765625,9.172617226562501,12.7086434765625,9.128657226562499,12.5533334765625,9.0376072265625L7.5801434765625,6.1961642265625C7.4184934765624995,6.1051128265625,7.2441634765625,6.0611572265625,7.0730034765625,6.0611572265625Z" fill="#FFFFFF" fill-opacity="1"/></g><g transform="matrix(0.9998974800109863,-0.008363314904272556,0.008363314904272556,0.9998974800109863,-0.041606628193562756,0.10851531111904933)"><path d="M23.911731445312498,16.1332787109375Q23.9116314453125,15.8648787109375,23.8985314453125,15.5967787109375Q23.8854314453125,15.3285787109375,23.8593314453125,15.0614587109375Q23.8331314453125,14.7942987109375,23.793931445312502,14.5287387109375Q23.754831445312497,14.2631687109375,23.7027314453125,13.9998287109375Q23.6506314453125,13.7364887109375,23.5858314453125,13.4759987109375Q23.5209314453125,13.2155187109375,23.4434314453125,12.9584987109375Q23.3660314453125,12.7014887109375,23.276031445312498,12.448558710937501Q23.186131445312498,12.1956287109375,23.084031445312498,11.9473887109375Q22.9818314453125,11.6991487109375,22.8677414453125,11.4561887109375Q22.753601445312498,11.2132287109375,22.6277614453125,10.976118710937499Q22.501921445312497,10.739008710937501,22.3646614453125,10.5083287109375Q22.227401445312502,10.277638710937499,22.079061445312497,10.0539187109375Q21.9307114453125,9.8302087109375,21.7716414453125,9.6139887109375Q21.6125614453125,9.3977787109375,21.443131445312503,9.1895787109375Q21.2737014453125,8.9813887109375,21.0943114453125,8.7816987109375Q20.9149314453125,8.5820187109375,20.7260214453125,8.391318710937501Q20.5371114453125,8.2006187109375,20.3391314453125,8.0193687109375Q20.1411414453125,7.8381087109375,19.9345514453125,7.6667287109375Q19.727971445312498,7.4953487109375,19.5132714453125,7.3342487109375Q19.2985714453125,7.1731487109375,19.0762714453125,7.0227087109375Q18.8539614453125,6.8722687109375,18.6245914453125,6.7328587109375Q18.3952214453125,6.5934487109374995,18.1593214453125,6.4653887109375Q17.9234214453125,6.3373287109375,17.6815614453125,6.2209287109375Q17.4397014453125,6.1045257109375,17.1924414453125,6.0000617109375Q16.9451914453125,5.8955977109374995,16.6931414453125,5.8033187109375Q16.4410914453125,5.7110397109375,16.1848414453125,5.6311657109375Q15.9285814453125,5.5512907109375,15.6687414453125,5.4840107109375Q15.4089014453125,5.4167317109375,15.1460814453125,5.3622067109375Q14.8832714453125,5.3076817109375,14.6181114453125,5.2660417109375Q14.3529514453125,5.2244013109375,14.0860714453125,5.1957448109375Q13.8191984453125,5.1670883109375,13.5512424453125,5.1514838109375Q13.2832864453125,5.1358792509375,13.0148884453125,5.1333638279375Q12.9634391453125,5.1328816419375,12.9119873043125,5.1328808309375L12.9119873043125,7.1328687109375Q12.9540386453125,7.1328787109375,12.9961490453125,7.1332787109375Q14.7127014453125,7.1493587109375,16.3028214453125,7.796248710937499Q18.0293714453125,8.4986387109375,19.3349614453125,9.8290787109375Q20.640591445312502,11.1595487109375,21.3104414453125,12.8992187109375Q21.912091445312498,14.4617487109375,21.911701445312502,16.1332787109375L23.911731445312498,16.1332787109375Z" fill-rule="evenodd" fill="#FFFFFF" fill-opacity="1"/></g><g transform="matrix(0.9998974800109863,-0.008363314904272556,0.008363314904272556,0.9998974800109863,0.00020377079442823742,0.10799870261200795)"><path d="M28.9116431640625,16.1341111328125Q28.9116431640625,15.7437111328125,28.892543164062502,15.3537111328125Q28.8734431640625,14.9637111328125,28.8353431640625,14.5751111328125Q28.7973431640625,14.1865111328125,28.7403431640625,13.8002111328125Q28.6833431640625,13.4139111328125,28.6075431640625,13.0309111328125Q28.5318431640625,12.6479111328125,28.4374431640625,12.2690111328125Q28.3431431640625,11.8901111328125,28.2304431640625,11.5163111328125Q28.1177431640625,11.1424111328125,27.986943164062502,10.7745111328125Q27.8561431640625,10.4066111328125,27.7075431640625,10.0455711328125Q27.558943164062498,9.6845011328125,27.3929431640625,9.3311011328125Q27.2269431640625,8.9777111328125,27.0438431640625,8.6328311328125Q26.8608431640625,8.2879511328125,26.6611431640625,7.9524111328125Q26.461543164062498,7.6168811328125,26.2457431640625,7.2914811328125Q26.0299431640625,6.9660811328125,25.7986431640625,6.6515911328125Q25.5672431640625,6.3371011328125,25.3207431640625,6.0342811328125Q25.074343164062498,5.7314511328125,24.813443164062498,5.4410111328125Q24.552443164062502,5.1505611328125,24.2777431640625,4.8731911328125Q24.0029431640625,4.5958211328125,23.7149431640625,4.3321811328125Q23.4270431640625,4.0685511328125,23.1265431640625,3.8192711328125Q22.8260531640625,3.5699911328125,22.5137731640625,3.3356711328125Q22.201493164062498,3.1013511328125,21.8781631640625,2.8825411328125Q21.5548331640625,2.6637311328125,21.221213164062497,2.4609511328125Q20.8875931640625,2.2581711328125,20.5444831640625,2.0719111328124997Q20.2013731640625,1.8856411328125,19.8495931640625,1.7163411328125Q19.4978031640625,1.5470311328125,19.1381831640625,1.3950911328125Q18.7785631640625,1.2431511328125,18.4119631640625,1.1089291328125Q18.0453631640625,0.9747091328125,17.6726531640625,0.8585321328125Q17.2999431640625,0.7423541328125,16.9220031640625,0.6444961328125Q16.5440731640625,0.5466381328125001,16.1618231640625,0.4673311328125Q15.7795631640625,0.3880251328125,15.3939031640625,0.3274591328125Q15.0082331640625,0.2668931328125,14.6200731640625,0.2252125328125Q14.231913164062501,0.18353173281250001,13.8421781640625,0.1608349328125Q13.4524461640625,0.1381381528125,13.0620721640625,0.1344794778125Q12.9869091640625,0.1337750388125,12.9117431640625,0.1337769678125L12.9117431640625,2.1337611328125Q12.9774834640625,2.1337711328125,13.0433331640625,2.1343911328125Q15.7134731640625,2.1594211328125,18.186943164062498,3.1657311328125Q20.8726331640625,4.2583811328125,22.9035231640625,6.3280511328125Q24.9344431640625,8.3977711328125,25.976443164062502,11.1040111328125Q26.9121431640625,13.5343111328125,26.9117431640625,16.1341111328125L28.9116431640625,16.1341111328125Z" fill-rule="evenodd" fill="#FFFFFF" fill-opacity="1"/></g><g><rect x="3.538330078125" y="26.4498291015625" width="11.5382080078125" height="2.739990234375" rx="0" fill="#FFFFFF" fill-opacity="1"/></g></g></svg>