<svg xmlns="http://www.w3.org/2000/svg" xmlns:xlink="http://www.w3.org/1999/xlink" fill="none" version="1.1" width="80" height="80" viewBox="0 0 80 80"><defs><clipPath id="master_svg0_5_9382"><rect x="0" y="0" width="80" height="80" rx="0"/></clipPath></defs><g clip-path="url(#master_svg0_5_9382)"><g><path d="M10.794542671875,29.965548828125L16.828553671875,49.000248828125C16.995443671875,49.526748828125,17.557513671875,49.818148828125,18.083983671875,49.651348828125L19.990483671874998,49.046948828125C20.516963671875,48.880048828125,20.808463671875,48.317948828125,20.641563671874998,47.791548828125L14.607543671875,28.756848828125Q14.131233671875,27.254248828125,14.773543671875,25.886778828125Q15.401473671875,24.549928828124997,16.787953671875,24.076728828125Q28.402963671875,20.112548828125,40.000163671875,20.112548828125Q51.597263671875,20.112548828125,63.212163671875,24.076728828125Q64.598663671875,24.549928828124997,65.226563671875,25.886768828125Q65.868863671875,27.254248828125,65.392563671875,28.756748828124998L59.358563671875,47.791548828125C59.191663671875,48.317948828125,59.483163671875,48.880048828125,60.009663671875,49.046948828125L61.916163671875,49.651348828125C62.442563671875,49.818148828125,63.004663671875,49.526748828125,63.171563671875,49.000248828125L69.205563671875,29.965548828125Q70.15496367187501,26.970648828125,68.84706367187499,24.186198828125Q67.49736367187501,21.312718828125,64.50426367187501,20.291138828125Q52.261063671875,16.112548828125,40.000163671875,16.112548828125Q27.739163671875,16.112548828125,15.495943671875,20.291138828125Q12.502753671875,21.312708828125,11.153043671875,24.186188828124997Q9.845160671875,26.970648828125,10.794542671875,29.965548828125ZM27.648663671875,59.807148828125Q27.645063671875,59.808848828125,27.641363671875,59.810648828125C27.362263671875,59.944048828125,27.116663671875,60.233448828125,27.116663671875,60.542848828125L27.116663671875,62.982648828125C27.116663671875,63.534948828125,27.570163671875,63.989848828125,28.108663671875,63.867248828125Q28.728363671875,63.726148828125,29.381063671875,63.412548828125Q30.580563671875,62.836148828125,31.551763671875,61.828948828125Q33.970063671874996,59.321148828125,33.970063671874996,55.410448828125Q33.970063671874996,53.411948828125,32.808463671875,51.364648828125Q32.186963671875,50.269148828125,30.605963671875,48.281348828125Q29.017963671875,46.284848828125,28.450363671875,45.240248828125004Q27.600063671875,43.675748828124995,27.600063671875,42.164648828124996Q27.600063671875,40.573848828125,28.492163671875,39.497648828125Q28.669663671875,39.283548828125,28.842663671875,39.127248828125005C29.252563671875,38.756948828125005,29.745563671875,38.256848828125,29.745563671875,37.704548828125L29.745563671875,35.704548828125C29.745563671875,35.152348828125,29.297863671875,34.693848828125,28.757863671875,34.809448828125Q28.038063671875,34.963448828124996,27.335363671875,35.343848828125005Q26.255163671875,35.928548828125,25.412663671875002,36.944948828125Q23.600063671875,39.131548828125,23.600063671875,42.164648828124996Q23.600063671875,44.692348828125,24.935763671875,47.150148828125Q25.670163671875002,48.501548828125,27.475463671875,50.771348828125Q28.862063671875,52.514648828125,29.329463671875,53.338448828125Q29.970063671875,54.467648828125,29.970063671875,55.410448828125Q29.970063671875,57.706748828125,28.672463671875,59.052448828125Q28.200263671875,59.542048828125,27.648663671875,59.807148828125ZM39.471463671875,59.810648828125Q39.475063671875,59.808848828125,39.478763671875,59.807148828125Q40.030363671875,59.542048828125,40.502563671874995,59.052448828125Q41.800163671875,57.706748828125,41.800163671875,55.410448828125Q41.800163671875,54.467648828125,41.159563671875,53.338448828125Q40.692063671875005,52.514648828125,39.305463671875,50.771348828125Q37.500163671875,48.501548828125,36.765863671874996,47.150148828125Q35.430163671875,44.692348828125,35.430163671875,42.164648828124996Q35.430163671875,39.131548828125,37.242763671875,36.944948828125Q38.085263671875,35.928548828125,39.165463671875,35.343848828125005Q39.868163671874996,34.963448828124996,40.587963671875,34.809448828125C41.127963671875,34.693848828125,41.575663671875,35.152348828125,41.575663671875,35.704548828125L41.575663671875,37.704548828125C41.575663671875,38.256848828125,41.082563671875,38.756948828125005,40.672763671875,39.127248828125005Q40.499763671875,39.283548828125,40.322263671875,39.497648828125Q39.430163671875,40.573848828125,39.430163671875,42.164648828124996Q39.430163671875,43.675748828124995,40.280363671875,45.240248828125004Q40.848063671874996,46.284848828125,42.436063671875,48.281348828125Q44.017063671875,50.269148828125,44.638563671875,51.364648828125Q45.800163671875,53.411948828125,45.800163671875,55.410448828125Q45.800163671875,59.321148828125,43.381863671875,61.828948828125Q42.410663671875,62.836148828125,41.211063671874996,63.412548828125Q40.558463671875,63.726148828125,39.938763671875,63.867248828125C39.400263671874995,63.989848828125,38.946763671875004,63.534948828125,38.946763671875004,62.982648828125L38.946763671875004,60.542848828125C38.946763671875004,60.233448828125,39.192363671875,59.944048828125,39.471463671875,59.810648828125M51.301563671875,59.810648828125Q51.305163671875,59.808848828125,51.308863671875,59.807148828125Q51.860463671875,59.542048828125,52.332563671875,59.052448828125Q53.630263671875,57.706748828125,53.630263671875,55.410448828125Q53.630263671875,54.467648828125,52.989563671875,53.338448828125Q52.522163671875,52.514648828125,51.135563671875,50.771348828125Q49.330263671875,48.501548828125,48.595863671875,47.150148828125Q47.260263671875,44.692348828125,47.260263671875,42.164648828124996Q47.260263671875,39.131548828125,49.072763671875,36.944948828125Q49.915363671875,35.928548828125,50.995563671875,35.343848828125005Q51.698263671875,34.963448828124996,52.417963671875,34.809448828125C52.958063671875,34.693848828125,53.405763671875,35.152348828125,53.405763671875,35.704548828125L53.405763671875,37.704548828125C53.405763671875,38.256848828125,52.912663671875,38.756948828125005,52.502863671875,39.127248828125005Q52.329863671875,39.283548828125,52.152363671875,39.497648828125Q51.260263671875,40.573848828125,51.260263671875,42.164648828124996Q51.260263671875,43.675748828124995,52.110463671875,45.240248828125004Q52.678163671875,46.284848828125,54.266063671875,48.281348828125Q55.847063671875,50.269148828125,56.468663671875,51.364648828125Q57.630263671875,53.411948828125,57.630263671875,55.410448828125Q57.630263671875,59.321148828125,55.211963671875,61.828948828125Q54.240763671875,62.836148828125,53.041163671875,63.412548828125Q52.388563671875,63.726148828125,51.768863671875,63.867248828125C51.230363671875,63.989848828125,50.776863671875,63.534948828125,50.776863671875,62.982648828125L50.776863671875,60.542848828125C50.776863671875,60.233448828125,51.022463671875,59.944048828125,51.301563671875,59.810648828125" fill-rule="evenodd" fill="#FFFFFF" fill-opacity="1"/></g></g></svg>