<svg xmlns="http://www.w3.org/2000/svg" xmlns:xlink="http://www.w3.org/1999/xlink" fill="none" version="1.1" width="80" height="80" viewBox="0 0 80 80"><defs><clipPath id="master_svg0_168_9764/5_9382"><rect x="0" y="0" width="80" height="80" rx="0"/></clipPath></defs><g clip-path="url(#master_svg0_168_9764/5_9382)"><g><path d="M10.794967659057617,29.965548828125L16.82897865905762,49.000248828125C16.995868659057617,49.526748828125,17.55793865905762,49.818148828125,18.084408659057615,49.651348828125L19.990908659057617,49.046948828125C20.517378659057616,48.880048828125,20.80887865905762,48.317948828125,20.641978659057617,47.791548828125L14.607968659057617,28.756848828125Q14.131658659057617,27.254248828125,14.773968659057617,25.886778828125Q15.401898659057618,24.549928828124997,16.788378659057617,24.076728828125Q28.403378659057616,20.112548828125,40.00057865905762,20.112548828125Q51.597678659057614,20.112548828125,63.21257865905762,24.076728828125Q64.59907865905762,24.549928828124997,65.22697865905761,25.886768828125Q65.86927865905761,27.254248828125,65.39297865905762,28.756748828124998L59.35897865905762,47.791548828125C59.192078659057614,48.317948828125,59.48357865905762,48.880048828125,60.01007865905762,49.046948828125L61.91657865905762,49.651348828125C62.44307865905762,49.818148828125,63.00507865905762,49.526748828125,63.171978659057615,49.000248828125L69.20597865905762,29.965548828125Q70.15537865905762,26.970648828125,68.84747865905761,24.186198828125Q67.49777865905762,21.312718828125,64.50467865905762,20.291138828125Q52.261478659057616,16.112548828125,40.00057865905762,16.112548828125Q27.739578659057617,16.112548828125,15.496368659057616,20.291138828125Q12.503178659057617,21.312708828125,11.153469659057617,24.186188828124997Q9.845585659057617,26.970648828125,10.794967659057617,29.965548828125ZM27.648778659057616,59.806848828125Q27.645078659057617,59.808648828125,27.64147865905762,59.810348828125C27.36237865905762,59.943848828125,27.116778659057616,60.233248828125,27.116778659057616,60.542648828125L27.116778659057616,62.982448828125C27.116778659057616,63.534748828125,27.570278659057617,63.989548828125,28.108778659057617,63.866948828125Q28.728478659057618,63.725848828125,29.381078659057618,63.412248828125Q30.580678659057618,62.835948828125,31.551878659057618,61.828748828125Q33.970178659057616,59.320948828125,33.970178659057616,55.410148828125Q33.970178659057616,53.411748828125,32.808578659057616,51.364348828125Q32.186978659057615,50.268848828125,30.605978659057616,48.281148828125Q29.01807865905762,46.284648828125,28.450378659057616,45.240048828125Q27.60017865905762,43.675448828125,27.60017865905762,42.164448828125Q27.60017865905762,40.573648828125,28.492278659057618,39.497348828125Q28.669778659057616,39.283248828125,28.84277865905762,39.126948828124995C29.25257865905762,38.756748828125,29.745678659057617,38.256648828125,29.745678659057617,37.704348828125L29.745678659057617,35.704348828125C29.745678659057617,35.152048828125004,29.297978659057616,34.693648828125,28.757878659057617,34.809248828125Q28.038178659057618,34.963248828125,27.335378659057618,35.343648828125Q26.255178659057616,35.928248828125,25.41267865905762,36.944648828125Q23.60017865905762,39.131348828125,23.60017865905762,42.164448828125Q23.60017865905762,44.692148828125,24.93577865905762,47.149948828125005Q25.67017865905762,48.501348828125,27.475478659057618,50.771048828125Q28.862078659057616,52.514348828125,29.329478659057617,53.338248828125Q29.970178659057616,54.467448828125,29.970178659057616,55.410148828125Q29.970178659057616,57.706448828125,28.672478659057617,59.052148828125Q28.200278659057616,59.541848828125,27.648778659057616,59.806848828125ZM39.47157865905761,59.810348828125Q39.47517865905762,59.808648828125,39.47877865905762,59.806848828125Q40.03037865905762,59.541848828125,40.50257865905762,59.052148828125Q41.80027865905762,57.706448828125,41.80027865905762,55.410148828125Q41.80027865905762,54.467448828125,41.159578659057615,53.338248828125Q40.69217865905762,52.514348828125,39.305578659057616,50.771048828125Q37.500278659057614,48.501348828125,36.76587865905762,47.149948828125005Q35.43027865905762,44.692148828125,35.43027865905762,42.164448828125Q35.43027865905762,39.131348828125,37.24277865905762,36.944648828125Q38.08527865905762,35.928248828125,39.16547865905761,35.343648828125Q39.86817865905762,34.963248828125,40.58797865905762,34.809148828125004C41.12807865905762,34.693648828125,41.57577865905762,35.152048828125004,41.57577865905762,35.704348828125L41.57577865905762,37.704348828125C41.57577865905762,38.256648828125,41.08267865905762,38.756748828125,40.672878659057616,39.126948828124995Q40.499878659057615,39.283248828125,40.32237865905762,39.497348828125Q39.43027865905762,40.573648828125,39.43027865905762,42.164448828125Q39.43027865905762,43.675448828125,40.28047865905762,45.240048828125Q40.84807865905762,46.284648828125,42.436078659057614,48.281148828125Q44.01707865905762,50.268848828125,44.63867865905762,51.364348828125Q45.80027865905762,53.411748828125,45.80027865905762,55.410148828125Q45.80027865905762,59.320948828125,43.381978659057616,61.828748828125Q42.41077865905762,62.835948828125,41.211178659057616,63.412248828125Q40.558578659057616,63.725848828125,39.93887865905762,63.866948828125C39.400378659057615,63.989548828125,38.94687865905762,63.534748828125,38.94687865905762,62.982448828125L38.94687865905762,60.542648828125C38.94687865905762,60.233248828125,39.19237865905762,59.943848828125,39.47157865905761,59.810348828125M51.30157865905762,59.810348828125Q51.30527865905762,59.808648828125,51.30887865905762,59.806848828125Q51.86047865905762,59.541848828125,52.33267865905762,59.052148828125Q53.630278659057616,57.706448828125,53.630278659057616,55.410148828125Q53.630278659057616,54.467448828125,52.98967865905762,53.338248828125Q52.52227865905762,52.514348828125,51.13567865905762,50.771048828125Q49.330378659057615,48.501348828125,48.595978659057614,47.149948828125005Q47.26027865905762,44.692148828125,47.26027865905762,42.164448828125Q47.26027865905762,39.131348828125,49.072878659057615,36.944648828125Q49.915378659057616,35.928248828125,50.995578659057614,35.343648828125Q51.698278659057614,34.963248828125,52.41807865905762,34.809148828125004C52.95807865905762,34.693648828125,53.40577865905762,35.152048828125004,53.40577865905762,35.704348828125L53.40577865905762,37.704348828125C53.40577865905762,38.256648828125,52.912778659057615,38.756748828125,52.502878659057615,39.126948828124995Q52.32987865905762,39.283248828125,52.15237865905762,39.497348828125Q51.26027865905762,40.573648828125,51.26027865905762,42.164448828125Q51.26027865905762,43.675448828125,52.110578659057616,45.240048828125Q52.678178659057615,46.284648828125,54.266178659057616,48.281148828125Q55.84717865905762,50.268848828125,56.468678659057616,51.364348828125Q57.630278659057616,53.411748828125,57.630278659057616,55.410148828125Q57.630278659057616,59.320948828125,55.211978659057614,61.828748828125Q54.24077865905762,62.835948828125,53.04127865905762,63.412248828125Q52.388578659057615,63.725848828125,51.76887865905762,63.866948828125C51.230378659057614,63.989548828125,50.776878659057616,63.534748828125,50.776878659057616,62.982448828125L50.776878659057616,60.542648828125C50.776878659057616,60.233248828125,51.02247865905762,59.943848828125,51.30157865905762,59.810348828125" fill-rule="evenodd" fill="#EF8A34" fill-opacity="1"/></g></g></svg>