<svg xmlns="http://www.w3.org/2000/svg" xmlns:xlink="http://www.w3.org/1999/xlink" fill="none" version="1.1" width="57.5126953125" height="57.7177734375" viewBox="0 0 57.5126953125 57.7177734375"><g><g><path d="M49.2785,41.1168L49.2517,41.1218L49.2246,41.1249Q43.9331,41.7209,41.0648,36.7612Q39.8785,34.8,38.1402,33.7655Q37.1859,33.1976,36.2219,32.8751Q38.1687,34.5307,39.5539,36.6092Q41.2915,39.3183,42.0474,41.893Q44.6671,50.9757,36.6558,55.8118Q33.6586,57.6553,29.4526,57.7176Q25.262,57.7327,21.8173,56.3177L21.8069,56.3134L21.7967,56.3088Q17.2097,54.2619,16.5924,49.317Q16.0297,44.0613,20.9118,41.2377Q23.6938,39.562,24.7732,36.4606Q23.3032,38.1878,21.1085,39.6504Q18.1442,41.5517,15.8173,42.1462Q6.84104,44.8364,1.98509,36.8016Q0.0630839,33.799,0.000157535,29.5492Q-0.0148546,25.3586,1.40043,21.9131Q3.31416,17.2684,8.32362,16.643Q13.4868,16.0902,16.3093,20.8032L16.3882,20.8502L16.4859,21.0182Q18.1029,23.798,21.2845,24.8611Q19.3619,23.2174,17.9903,21.1591Q16.4518,18.7605,15.5054,15.9033L15.5021,15.8934L15.4991,15.8834Q14.1646,11.4441,15.5127,7.90383Q16.8581,4.37044,20.7992,1.91821Q23.6823,0.0689752,28.0008,0.00499064Q32.0787,-0.0837741,35.6533,1.40626L35.6618,1.40983L35.6703,1.41362Q40.3754,3.51323,40.874,8.39927Q41.5427,13.5916,36.5591,16.4826Q34.6907,17.6852,33.5919,19.5316L33.5782,19.5546L33.5629,19.5766Q32.8823,20.5542,32.5554,21.5774Q34.0349,19.7747,36.4102,18.135Q38.6414,16.5719,41.6143,15.5871L41.6282,15.5825L41.6423,15.5785Q50.6783,12.9722,55.6048,20.8896L55.6131,20.9029L55.6208,20.9166Q57.3809,24.0278,57.5123,28.0745L57.5127,28.0853L57.5127,28.0962Q57.5278,32.2867,56.1128,35.7314L56.1085,35.7418L56.1039,35.7521Q54.1133,40.2129,49.2785,41.1168ZM32.3421,22.6296Q32.3394,22.6236,32.3369,22.6124Q32.341,22.6148,32.3451,22.6172L32.3421,22.6296Z" fill-rule="evenodd" fill="#FFFFFF" fill-opacity="1"/></g></g></svg>