<svg xmlns="http://www.w3.org/2000/svg" xmlns:xlink="http://www.w3.org/1999/xlink" fill="none" version="1.1" width="40" height="40" viewBox="0 0 40 40"><g><g style="opacity:0;"><rect x="0" y="0" width="40" height="40" rx="0" fill="#D8D8D8" fill-opacity="1"/></g><g><g><path d="M32.97669762802124,14.7139124899292L32.97759762802124,14.7147524899292Q33.08099762802124,14.8117824899292,33.20069762802124,14.8877324899292Q33.32039762802124,14.963682489929198,33.45219762802124,15.015862489929198Q33.58399762802124,15.0680424899292,33.72329762802124,15.0946024899292Q33.862497628021245,15.1211624899292,34.00429762802124,15.1211624899292L34.00659762802124,15.1211624899292Q34.02909762802124,15.1211224899292,34.05159762802124,15.1204124899292Q34.19929762802124,15.1157524899292,34.343197628021244,15.082372489929199Q34.48709762802124,15.0489924899292,34.62169762802124,14.9881824899292Q34.75639762802124,14.927362489929198,34.876597628021244,14.8414524899292Q34.99679762802124,14.7555424899292,35.097897628021244,14.6478324899292Q35.19489762802124,14.544472489929198,35.270897628021245,14.4247724899292Q35.346797628021235,14.305062489929199,35.39899762802124,14.1732524899292Q35.45119762802124,14.0414324899292,35.47769762802124,13.9021824899292Q35.50429762802124,13.762922489929199,35.50429762802124,13.6211624899292Q35.50429762802124,13.597492489929198,35.503497628021236,13.573842489929199Q35.49889762802124,13.4261824899292,35.46549762802124,13.282262489929199Q35.43209762802124,13.1383424899292,35.37129762802124,13.0037024899292Q35.31049762802124,12.869062489929199,35.22459762802124,12.748872489929198Q35.13869762802124,12.628682489929199,35.03099762802124,12.527572489929199L35.03009762802124,12.526742489929198Q32.03769762802124,9.7177724899292,28.25319762802124,8.167117489929199Q24.59199762802124,6.666982489929199,20.61679762802124,6.514252489929199Q16.65579762802124,6.362072489929199,12.89578762802124,7.566753489929199Q9.03128762802124,8.8049144899292,5.858894628021241,11.327252489929199Q5.14169162802124,11.8975324899292,4.4714076280212405,12.526742489929198L4.47063762802124,12.5274624899292L4.47051762802124,12.527572489929199Q4.3628076280212404,12.6286924899292,4.27689762802124,12.7488824899292Q4.19098762802124,12.869062489929199,4.13017762802124,13.0037024899292Q4.0693576280212405,13.1383424899292,4.03597762802124,13.282262489929199Q4.00260762802124,13.4261824899292,3.9979476280212403,13.573842489929199Q3.9971976280212402,13.597492489929198,3.9971976280212402,13.6211624899292Q3.9971976280212402,13.633532489929198,3.99739762802124,13.645912489929199Q4.002017628021241,13.925562489929199,4.10709762802124,14.1847424899292Q4.2121876280212405,14.4439324899292,4.40360762802124,14.6478324899292Q4.50472862802124,14.7555424899292,4.62491762802124,14.8414524899292Q4.74510562802124,14.9273724899292,4.87974562802124,14.9881824899292Q5.01438662802124,15.0489924899292,5.15830362802124,15.082372489929199Q5.3022206280212405,15.1157524899292,5.44988402802124,15.1204124899292Q5.47353492802124,15.1211624899292,5.49719762802124,15.1211624899292Q5.50957742802124,15.1211624899292,5.52195732802124,15.120952489929198Q5.8015976280212405,15.116342489929199,6.06078462802124,15.011252489929198Q6.31997262802124,14.9061724899292,6.52387762802124,14.7147424899292Q7.104757628021241,14.1694024899292,7.72593762802124,13.675472489929199Q10.46899762802124,11.4945024899292,13.81113762802124,10.423702489929198Q17.06829762802124,9.3801324899292,20.50159762802124,9.512042489929199Q23.94609762802124,9.6443824899292,27.11579762802124,10.943122489929198Q30.38689762802124,12.2834224899292,32.97499762802124,14.712252489929199Q32.97579762802124,14.7130824899292,32.97669762802124,14.7139124899292Z" fill-rule="evenodd" fill="#FFFFFF" fill-opacity="1"/></g><g><path d="M14.39829638305664,14.087909472808837Q11.486596383056641,15.159003472808838,9.24056638305664,17.19645447280884Q9.13114638305664,17.29571447280884,9.043186383056641,17.41442447280884Q8.95523638305664,17.533124472808836,8.89212638305664,17.66670447280884Q8.82901638305664,17.800284472808837,8.793186383056641,17.943604472808836Q8.75734638305664,18.08693447280884,8.75016638305664,18.234494472808837Q8.74838638305664,18.27095447280884,8.74838638305664,18.30744447280884Q8.74838638305664,18.343354472808837,8.750106383056641,18.379214472808837Q8.762586383056641,18.63982447280884,8.86233638305664,18.880924472808836Q8.962096383056641,19.122014472808836,9.137396383056641,19.31526447280884Q9.23665638305664,19.424694472808838,9.355358383056641,19.512644472808837Q9.47406038305664,19.60060447280884,9.60764038305664,19.66370447280884Q9.74122038305664,19.726814472808837,9.884546383056641,19.762654472808837Q10.02787138305664,19.798484472808838,10.17543338305664,19.80567447280884Q10.211888283056641,19.80744447280884,10.24838638305664,19.80744447280884Q10.28428728305664,19.80744447280884,10.32014958305664,19.805734472808837Q10.580766383056641,19.793244472808837,10.82186138305664,19.693494472808837Q11.062955383056641,19.593744472808837,11.256206383056641,19.418434472808837Q13.07000638305664,17.773074472808837,15.43401638305664,16.90345447280884Q17.73116638305664,16.058424472808838,20.22586638305664,16.058424472808838Q22.72058638305664,16.058424472808838,25.017686383056642,16.90345447280884Q27.38168638305664,17.773074472808837,29.19548638305664,19.418434472808837Q29.40248638305664,19.606194472808838,29.66318638305664,19.706824472808837Q29.92388638305664,19.80744447280884,30.20338638305664,19.80744447280884Q30.23988638305664,19.80744447280884,30.27628638305664,19.80567447280884Q30.42388638305664,19.798484472808838,30.56718638305664,19.762654472808837Q30.71048638305664,19.726814472808837,30.84408638305664,19.663714472808838Q30.97768638305664,19.60060447280884,31.09638638305664,19.512644472808837Q31.21508638305664,19.424694472808838,31.31438638305664,19.31526447280884Q31.50208638305664,19.108294472808836,31.60268638305664,18.847594472808836Q31.70338638305664,18.586894472808837,31.70338638305664,18.30745447280884L31.70338638305664,18.306554472808838Q31.70328638305664,18.270504472808838,31.70158638305664,18.234494472808837Q31.694386383056642,18.08693447280884,31.65858638305664,17.943604472808836Q31.622686383056642,17.800284472808837,31.55958638305664,17.66670447280884Q31.49648638305664,17.533124472808836,31.40858638305664,17.41442447280884Q31.32058638305664,17.29571447280884,31.211186383056642,17.19645447280884L31.21088638305664,17.19617447280884Q31.20858638305664,17.194134472808837,31.20638638305664,17.192104472808836Q28.96198638305664,15.157857472808837,26.05348638305664,14.087909472808837Q23.254886383056643,13.058424472808838,20.22586638305664,13.058424472808838Q17.19687638305664,13.058424472808838,14.39829638305664,14.087909472808837Z" fill-rule="evenodd" fill="#FFFFFF" fill-opacity="1"/></g><g><path d="M13.11719686392212,21.818530455688478L13.11678586392212,21.818856455688476Q12.98406786392212,21.924199455688477,12.87819786392212,22.056494455688476Q12.772317863922119,22.188786455688476,12.69862786392212,22.341366455688476Q12.624937863922119,22.493946455688477,12.58713786392212,22.659126455688476Q12.54933786392212,22.824296455688476,12.54933786392212,22.993736455688477Q12.54933786392212,23.024146455688477,12.550567863922119,23.054526455688478Q12.560227863922119,23.29269645568848,12.643247863922118,23.516136455688475Q12.726257863922118,23.739586455688475,12.87445786392212,23.926286455688476Q12.97979786392212,24.059006455688476,13.11209386392212,24.16487645568848Q13.244388863922119,24.270756455688478,13.39696786392212,24.344446455688477Q13.549546863922119,24.418136455688476,13.71472086392212,24.455936455688477Q13.87989486392212,24.493736455688477,14.04933786392212,24.493736455688477Q14.07974216392212,24.493736455688477,14.11012146392212,24.492506455688478Q14.348294863922119,24.482846455688478,14.571739863922119,24.399826455688476Q14.79518586392212,24.316816455688475,14.981889863922119,24.168616455688475Q16.93390786392212,22.619226455688477,19.750757863922118,22.619226455688477Q22.56646786392212,22.619226455688477,24.518037863922117,24.167366455688477Q24.51883786392212,24.167996455688478,24.51963786392212,24.168616455688475Q24.71853786392212,24.326516455688477,24.958337863922118,24.410126455688477Q25.198237863922117,24.493736455688477,25.45213786392212,24.493736455688477L25.46083786392212,24.493716455688478Q25.542437863922117,24.493236455688475,25.623537863922117,24.483916455688476Q25.77033786392212,24.467046455688475,25.91093786392212,24.421856455688477Q26.051637863922117,24.376666455688476,26.18073786392212,24.304916455688478Q26.30993786392212,24.233156455688476,26.42253786392212,24.137576455688475Q26.53523786392212,24.042006455688476,26.62703786392212,23.926286455688476Q26.784937863922117,23.727366455688475,26.86853786392212,23.487546455688477Q26.95213786392212,23.247726455688476,26.95213786392212,22.993746455688477L26.95213786392212,22.985046455688476Q26.95163786392212,22.903446455688478,26.94233786392212,22.822386455688477Q26.92543786392212,22.675616455688477,26.88033786392212,22.534956455688476Q26.83513786392212,22.394296455688476,26.763337863922118,22.265166455688476Q26.69153786392212,22.136026455688476,26.59603786392212,22.023363455688475Q26.50043786392212,21.910704455688478,26.38473786392212,21.818856455688476L26.38443786392212,21.818606455688478Q26.38353786392212,21.817902455688476,26.38263786392212,21.817197455688476Q23.61204786392212,19.619226455688477,19.750757863922118,19.619226455688477Q15.88828786392212,19.619226455688477,13.11719686392212,21.818530455688478Z" fill-rule="evenodd" fill="#FFFFFF" fill-opacity="1"/></g><g><path d="M22.72035390823364,29.280131691589354Q22.72035390823364,29.395241691589355,22.708913908233644,29.509801691589356Q22.697473908233643,29.624351691589354,22.674703908233642,29.737251691589357Q22.65194390823364,29.850151691589357,22.618063908233644,29.960311691589354Q22.58418390823364,30.070461691589355,22.539523908233644,30.176811691589357Q22.494863908233643,30.283161691589356,22.43984390823364,30.384681691589357Q22.38483390823364,30.486201691589354,22.31999390823364,30.581911691589355Q22.255153908233645,30.677621691589355,22.181123908233644,30.766601691589354Q22.10708390823364,30.855581691589357,22.02456390823364,30.936981691589356Q21.942033908233643,31.018381691589354,21.85182390823364,31.091401691589354Q21.76161390823364,31.164431691589357,21.664573908233642,31.228381691589355Q21.567533908233642,31.292331691589354,21.46461390823364,31.346591691589357Q21.361683908233644,31.400861691589355,21.253863908233644,31.444911691589354Q21.146043908233644,31.488961691589356,21.034363908233644,31.522371691589356Q20.922683908233644,31.555791691589356,20.808223908233643,31.578251691589355Q20.693753908233642,31.600701691589357,20.577613908233644,31.611991691589356Q20.461473908233643,31.623271691589355,20.34476390823364,31.623271691589355Q20.228063908233644,31.623271691589355,20.111913908233642,31.611991691589356Q19.995773908233645,31.600701691589357,19.881313908233643,31.578251691589355Q19.766843908233643,31.555791691589356,19.655163908233643,31.522371691589356Q19.543483908233643,31.488961691589356,19.435663908233643,31.444911691589354Q19.327843908233643,31.400861691589355,19.22492390823364,31.346591691589357Q19.12199390823364,31.292331691589354,19.02495390823364,31.228381691589355Q18.927919908233644,31.164431691589357,18.83770590823364,31.091401691589354Q18.74749190823364,31.018381691589354,18.664967908233642,30.936981691589356Q18.582444908233644,30.855581691589357,18.508407908233643,30.766601691589354Q18.434370908233642,30.677621691589355,18.369532908233644,30.581911691589355Q18.304694908233643,30.486201691589354,18.249680908233643,30.384681691589357Q18.19466590823364,30.283161691589356,18.150004908233644,30.176811691589357Q18.105343908233642,30.070461691589355,18.07146590823364,29.960311691589354Q18.037588308233644,29.850151691589357,18.014820208233644,29.737251691589357Q17.992052108233644,29.624351691589354,17.980613008233643,29.509801691589356Q17.969173908233643,29.395241691589355,17.969173908233643,29.280131691589354Q17.969173908233643,29.165021691589356,17.980613008233643,29.050461691589355Q17.992052108233644,28.935911691589354,18.014820208233644,28.823011691589354Q18.037588308233644,28.710111691589354,18.07146590823364,28.599951691589354Q18.105343908233642,28.489801691589356,18.150004908233644,28.383451691589357Q18.19466590823364,28.277101691589355,18.249680908233643,28.175581691589354Q18.304694908233643,28.074061691589357,18.369532908233644,27.978351691589356Q18.434370908233642,27.882641691589356,18.508407908233643,27.793659691589355Q18.582444908233644,27.704677691589357,18.664967908233642,27.623281691589355Q18.74749190823364,27.541885691589357,18.83770590823364,27.468859691589355Q18.927919908233644,27.395833691589356,19.02495390823364,27.331881691589356Q19.12199390823364,27.267929691589355,19.22492390823364,27.213666691589356Q19.327843908233643,27.159403691589354,19.435663908233643,27.115352691589354Q19.543483908233643,27.071301691589355,19.655163908233643,27.037886691589357Q19.766843908233643,27.004471491589356,19.881313908233643,26.982014491589357Q19.995773908233645,26.959557391589357,20.111913908233642,26.948274591589357Q20.228063908233644,26.936991691589355,20.34476390823364,26.936991691589355Q20.461473908233643,26.936991691589355,20.577613908233644,26.948274591589357Q20.693753908233642,26.959557391589357,20.808223908233643,26.982014491589357Q20.922683908233644,27.004471491589356,21.034363908233644,27.037886691589357Q21.146043908233644,27.071301691589355,21.253863908233644,27.115352691589354Q21.361683908233644,27.159403691589354,21.46461390823364,27.213666691589356Q21.567533908233642,27.267929691589355,21.664573908233642,27.331881691589356Q21.76161390823364,27.395833691589356,21.85182390823364,27.468859691589355Q21.942033908233643,27.541885691589357,22.02456390823364,27.623281691589355Q22.10708390823364,27.704677691589357,22.181123908233644,27.793659691589355Q22.255153908233645,27.882641691589356,22.31999390823364,27.978351691589356Q22.38483390823364,28.074061691589357,22.43984390823364,28.175581691589354Q22.494863908233643,28.277101691589355,22.539523908233644,28.383451691589357Q22.58418390823364,28.489801691589356,22.618063908233644,28.599951691589354Q22.65194390823364,28.710111691589354,22.674703908233642,28.823011691589354Q22.697473908233643,28.935911691589354,22.708913908233644,29.050461691589355Q22.72035390823364,29.165021691589356,22.72035390823364,29.280131691589354Z" fill="#FFFFFF" fill-opacity="1"/></g></g></g></svg>