<svg xmlns="http://www.w3.org/2000/svg" xmlns:xlink="http://www.w3.org/1999/xlink" fill="none" version="1.1"
     width="36.5" height="36.5" viewBox="0 0 36.5 36.5">
    <g>
        <g>
            <path d="M0.7322299999999999,4.2677700000000005Q0.55812,4.09366,0.4213300000000002,3.88893Q0.28453000000000017,3.68419,0.19030000000000014,3.456709Q0.0960700000000001,3.229223,0.04803999999999986,2.987726Q0,2.746229,0,2.5Q0,2.377183,0.012039999999999829,2.254957Q0.0240800000000001,2.132731,0.04803999999999986,2.012274Q0.07200000000000006,1.891817,0.10765000000000002,1.7742879999999999Q0.14329999999999998,1.65676,0.19030000000000014,1.543292Q0.23729999999999984,1.42982,0.2951999999999999,1.32151Q0.3530899999999999,1.21319,0.4213300000000002,1.11107Q0.48956,1.00896,0.5674699999999999,0.91402Q0.6453899999999999,0.81908,0.7322299999999999,0.7322299999999999Q0.81908,0.6453899999999999,0.91402,0.5674699999999999Q1.00896,0.48956,1.11107,0.4213300000000002Q1.21319,0.3530899999999999,1.32151,0.2951999999999999Q1.42982,0.23729999999999984,1.543292,0.19030000000000014Q1.65676,0.14329999999999998,1.7742879999999999,0.10765000000000002Q1.891817,0.07200000000000006,2.012274,0.04803999999999986Q2.132731,0.0240800000000001,2.254957,0.012039999999999829Q2.377183,0,2.5,0Q2.746229,0,2.987726,0.04803999999999986Q3.229223,0.0960700000000001,3.456709,0.19030000000000014Q3.68419,0.28453000000000017,3.88893,0.4213300000000002Q4.09366,0.55812,4.2677700000000005,0.7322299999999999L35.7678,32.2322Q35.9419,32.4063,36.0787,32.6111Q36.2155,32.815799999999996,36.3097,33.0433Q36.4039,33.2708,36.452,33.512299999999996Q36.5,33.7538,36.5,34Q36.5,34.1228,36.488,34.245000000000005Q36.4759,34.3673,36.452,34.487700000000004Q36.428,34.6082,36.3923,34.7257Q36.3567,34.8432,36.3097,34.9567Q36.2627,35.0702,36.2048,35.1785Q36.1469,35.2868,36.0787,35.3889Q36.0104,35.491,35.9325,35.586Q35.8546,35.6809,35.7678,35.7678Q35.6809,35.8546,35.586,35.9325Q35.491,36.0104,35.3889,36.0787Q35.2868,36.1469,35.1785,36.2048Q35.0702,36.2627,34.9567,36.3097Q34.8432,36.3567,34.7257,36.3923Q34.6082,36.428,34.487700000000004,36.452Q34.3673,36.4759,34.245000000000005,36.488Q34.1228,36.5,34,36.5Q33.7538,36.5,33.512299999999996,36.452Q33.2708,36.4039,33.0433,36.3097Q32.815799999999996,36.2155,32.6111,36.0787Q32.4063,35.9419,32.2322,35.7678L0.7322299999999999,4.2677700000000005Z"
                  fill-rule="evenodd" fill="#FFFFFF" fill-opacity="1"/>
        </g>
        <g>
            <path d="M35.7536,4.78185Q35.9309,4.6073699999999995,36.0703,4.40137Q36.2097,4.1953700000000005,36.3059,3.965939Q36.402,3.736504,36.451,3.492628Q36.5,3.248753,36.5,3Q36.5,2.877183,36.488,2.754957Q36.4759,2.632731,36.452,2.512274Q36.428,2.391817,36.3923,2.274288Q36.3567,2.1567600000000002,36.3097,2.043292Q36.2627,1.92982,36.2048,1.82151Q36.1469,1.71319,36.0787,1.61107Q36.0104,1.50896,35.9325,1.41402Q35.8546,1.31908,35.7678,1.23223Q35.6809,1.14539,35.586,1.06747Q35.491,0.98956,35.3889,0.9213300000000002Q35.2868,0.8530899999999999,35.1785,0.7951999999999999Q35.0702,0.7372999999999998,34.9567,0.6903000000000001Q34.8432,0.6433,34.7257,0.60765Q34.6082,0.5720000000000001,34.487700000000004,0.5480399999999999Q34.3673,0.5240800000000001,34.245000000000005,0.5120399999999998Q34.1228,0.5,34,0.5Q33.756299999999996,0.5,33.5172,0.5470700000000002Q33.278099999999995,0.5941299999999998,33.052499999999995,0.68649Q32.827,0.7788499999999998,32.623599999999996,0.91303Q32.420100000000005,1.04721,32.2464,1.21815L0.7464299999999999,32.2181Q0.5691299999999999,32.3926,0.42969999999999997,32.598600000000005Q0.29025999999999996,32.8046,0.19415000000000004,33.034099999999995Q0.09803000000000006,33.2635,0.049020000000000064,33.507400000000004Q0,33.7512,0,34Q0,34.1228,0.012039999999999829,34.245000000000005Q0.0240800000000001,34.3673,0.04803999999999986,34.487700000000004Q0.07200000000000006,34.6082,0.10765000000000002,34.7257Q0.14329999999999998,34.843199999999996,0.19030000000000014,34.9567Q0.23729999999999984,35.0702,0.2951999999999999,35.1785Q0.3530899999999999,35.2868,0.4213300000000002,35.3889Q0.48956,35.491,0.5674699999999999,35.586Q0.6453899999999999,35.6809,0.7322299999999999,35.7678Q0.81908,35.8546,0.91402,35.9325Q1.00896,36.0104,1.11107,36.0787Q1.21319,36.1469,1.32151,36.2048Q1.42982,36.2627,1.543292,36.3097Q1.65676,36.3567,1.7742879999999999,36.3923Q1.891817,36.428,2.012274,36.452Q2.132731,36.4759,2.254957,36.488Q2.377183,36.5,2.5,36.5Q2.743704,36.5,2.982821,36.4529Q3.221937,36.4059,3.447462,36.3135Q3.67299,36.2211,3.87643,36.087Q4.07987,35.9528,4.25357,35.7819L35.7536,4.78185L35.7536,4.78185Z"
                  fill-rule="evenodd" fill="#FFFFFF" fill-opacity="1"/>
        </g>
    </g>
</svg>