<svg xmlns="http://www.w3.org/2000/svg" xmlns:xlink="http://www.w3.org/1999/xlink" fill="none" version="1.1"
     width="19.0234375" height="19.0234375" viewBox="0 0 19.0234375 19.0234375">
    <defs>
        <clipPath id="master_svg0_146_4104">
            <rect x="0" y="0" width="19.0234375" height="19.0234375" rx="0"/>
        </clipPath>
    </defs>
    <g clip-path="url(#master_svg0_146_4104)">
        <g>
            <g>
                <path d="M3.1552734375,10.740966796875Q3.1552734375,10.667098296875,3.1696844375,10.594648796875Q3.1840954375,10.522199796875,3.2123634375,10.453953796875Q3.2406324375,10.385708796875,3.2816714375,10.324288796875Q3.3227104375,10.262869796875,3.3749434375,10.210636796875Q3.4271764375,10.158403796875,3.4885954375,10.117364796875Q3.5500154375,10.076325796875,3.6182604375,10.048056796875Q3.6865064375,10.019788796875,3.7589554375,10.005377796874999Q3.8314049375,9.990966796875,3.9052734375,9.990966796875Q3.9791419375,9.990966796875,4.0515914375,10.005377796874999Q4.1240404375,10.019788796875,4.1922864375,10.048056796875Q4.2605314375,10.076325796875,4.3219514375,10.117364796875Q4.3833704375,10.158403796875,4.4356034375,10.210636796875Q4.4878364375,10.262869796875,4.5288754375,10.324288796875Q4.5699144375,10.385708796875,4.5981834375,10.453953796875Q4.6264514375,10.522199796875,4.6408624375,10.594648796875Q4.6552734375,10.667098296875,4.6552734375,10.740966796875L4.6552734375,14.547846796875Q4.6552734375,14.797846796875,4.9052734375,14.797846796875L9.511723437499999,14.797846796875Q9.5855834375,14.797846796875,9.6580334375,14.812266796875Q9.7304834375,14.826676796874999,9.798733437500001,14.854936796875Q9.8669734375,14.883206796875001,9.928393437499999,14.924246796875Q9.9898134375,14.965286796874999,10.0420534375,15.017516796875Q10.0942834375,15.069756796875,10.1353234375,15.131176796875Q10.176363437500001,15.192596796875,10.2046234375,15.260836796875001Q10.2328934375,15.329086796875,10.247303437500001,15.401536796875Q10.261723437499999,15.473986796875,10.261723437499999,15.547846796875Q10.261723437499999,15.621716796874999,10.247303437500001,15.694166796874999Q10.2328934375,15.766616796874999,10.2046234375,15.834866796875Q10.176363437500001,15.903106796875,10.1353234375,15.964526796874999Q10.0942834375,16.025946796875,10.0420534375,16.078176796875Q9.9898134375,16.130416796875,9.928393437499999,16.171456796875Q9.8669734375,16.212496796875,9.798733437500001,16.240756796875Q9.7304834375,16.269026796875,9.6580334375,16.283436796875Q9.5855834375,16.297846796875,9.511723437499999,16.297846796875L4.9052734375,16.297846796875Q4.1803994375,16.297846796875,3.6678364375,15.785286796874999Q3.1552734375,15.272726796875,3.1552734375,14.547846796875L3.1552734375,10.740966796875Z"
                      fill-rule="evenodd" fill="#D8D8D8" fill-opacity="1"/>
            </g>
            <g transform="matrix(-1,0,0,-1,31.880859375,16.564697265625)">
                <path d="M15.1904296875,8.2823486328125Q15.1904296875,8.2084801328125,15.204840687499999,8.1360306328125Q15.2192516875,8.0635816328125,15.2475196875,7.9953356328125Q15.2757886875,7.9270906328125,15.3168276875,7.8656706328125Q15.3578666875,7.8042516328125,15.4100996875,7.7520186328125Q15.4623326875,7.6997856328125,15.5237516875,7.6587466328125Q15.5851716875,7.6177076328125,15.6534166875,7.5894386328125Q15.7216626875,7.5611706328125,15.7941116875,7.5467596328125Q15.8665611875,7.5323486328125,15.9404296875,7.5323486328125Q16.0142981875,7.5323486328125,16.0867476875,7.5467596328125Q16.1591966875,7.5611706328125,16.2274426875,7.5894386328125Q16.2956876875,7.6177076328125,16.3571076875,7.6587466328125Q16.418526687499998,7.6997856328125,16.4707596875,7.7520186328125Q16.5229926875,7.8042516328125,16.564031687499998,7.8656706328125Q16.6050706875,7.9270906328125,16.6333396875,7.9953356328125Q16.6616076875,8.0635816328125,16.6760186875,8.1360306328125Q16.6904296875,8.2084801328125,16.6904296875,8.2823486328125L16.6904296875,12.0892286328125Q16.6904296875,12.3392286328125,16.9404296875,12.3392286328125L21.5468796875,12.3392286328125Q21.6207396875,12.3392286328125,21.693189687500002,12.3536486328125Q21.7656396875,12.368058632812499,21.8338896875,12.3963186328125Q21.9021296875,12.424588632812501,21.9635496875,12.4656286328125Q22.0249696875,12.506668632812499,22.0772096875,12.5588986328125Q22.1294396875,12.6111386328125,22.1704796875,12.6725586328125Q22.2115196875,12.7339786328125,22.2397796875,12.802218632812501Q22.2680496875,12.8704686328125,22.2824596875,12.9429186328125Q22.2968796875,13.0153686328125,22.2968796875,13.0892286328125Q22.2968796875,13.163098632812499,22.2824596875,13.235548632812499Q22.2680496875,13.307998632812499,22.2397796875,13.3762486328125Q22.2115196875,13.4444886328125,22.1704796875,13.505908632812499Q22.1294396875,13.567328632812501,22.0772096875,13.619558632812499Q22.0249696875,13.6717986328125,21.9635496875,13.712838632812499Q21.9021296875,13.7538786328125,21.8338896875,13.7821386328125Q21.7656396875,13.8104086328125,21.693189687500002,13.8248186328125Q21.6207396875,13.8392286328125,21.5468796875,13.8392286328125L16.9404296875,13.8392286328125Q16.2155556875,13.8392286328125,15.7029926875,13.326668632812499Q15.1904296875,12.8141086328125,15.1904296875,12.0892286328125L15.1904296875,8.2823486328125Z"
                      fill-rule="evenodd" fill="#D8D8D8" fill-opacity="1"/>
            </g>
        </g>
    </g>
</svg>