<svg xmlns="http://www.w3.org/2000/svg" xmlns:xlink="http://www.w3.org/1999/xlink" fill="none" version="1.1"
     width="19.4892578125" height="19.48919677734375" viewBox="0 0 19.4892578125 19.48919677734375">
    <g style="opacity:0.8999999761581421;">
        <path d="M19.4893,9.7446Q19.4893,9.98382,19.4776,10.2227Q19.4658,10.4617,19.4424,10.6997Q19.4189,10.9378,19.3838,11.1744Q19.3487,11.4111,19.3021,11.6457Q19.2554,11.8803,19.1973,12.1123Q19.1392,12.3444,19.0697,12.5733Q19.0003,12.8022,18.9197,13.0275Q18.8391,13.2527,18.7475,13.4737Q18.656,13.6947,18.5537,13.9109Q18.4514,14.1272,18.3387,14.3382Q18.2259,14.5491,18.1029,14.7543Q17.9799,14.9595,17.847,15.1584Q17.7141,15.3573,17.5716,15.5494Q17.4291,15.7416,17.2774,15.9265Q17.1256,16.1114,16.965,16.2887Q16.8043,16.4659,16.6352,16.6351Q16.466,16.8042,16.2888,16.9649Q16.1115,17.1255,15.9266,17.2773Q15.7417,17.429,15.5495,17.5715Q15.3574,17.714,15.1585,17.8469Q14.9596,17.9798,14.7544,18.1028Q14.5492,18.2258,14.3383,18.3386Q14.1273,18.4513,13.911,18.5536Q13.6948,18.6559,13.4738,18.7474Q13.2528,18.839,13.0275,18.9196Q12.8023,19.0002,12.5734,19.0696Q12.3445,19.139,12.1124,19.1972Q11.8804,19.2553,11.6457,19.302Q11.4111,19.3486,11.1745,19.3837Q10.9379,19.4188,10.6998,19.4423Q10.4617,19.4657,10.2228,19.4775Q9.98388,19.4892,9.74466,19.4892Q9.50544,19.4892,9.26651,19.4775Q9.02758,19.4657,8.78952,19.4423Q8.55145,19.4188,8.31482,19.3837Q8.07819,19.3486,7.84357,19.302Q7.60895,19.2553,7.3769,19.1972Q7.14485,19.139,6.91593,19.0696Q6.68702,19.0002,6.46178,18.9196Q6.23655,18.839,6.01554,18.7474Q5.79453,18.6559,5.57828,18.5536Q5.36203,18.4513,5.15106,18.3386Q4.94009,18.2258,4.7349,18.1028Q4.52972,17.9798,4.33082,17.8469Q4.13191,17.714,3.93977,17.5715Q3.74763,17.429,3.56271,17.2773Q3.37779,17.1255,3.20055,16.9649Q3.0233,16.8042,2.85414,16.6351Q2.68499,16.4659,2.52434,16.2887Q2.36369,16.1114,2.21194,15.9265Q2.06018,15.7416,1.91768,15.5494Q1.77517,15.3573,1.64227,15.1584Q1.50937,14.9595,1.38639,14.7543Q1.2634,14.5491,1.15064,14.3382Q1.03787,14.1272,0.935591,13.9109Q0.833313,13.6947,0.741768,13.4737Q0.650223,13.2527,0.569633,13.0275Q0.489043,12.8022,0.419602,12.5733Q0.35016,12.3444,0.292035,12.1123Q0.23391,11.8803,0.187241,11.6457Q0.140572,11.4111,0.105471,11.1744Q0.0703706,10.9378,0.0469232,10.6997Q0.0234757,10.4617,0.0117379,10.2227Q0,9.98382,0,9.7446Q0,9.50538,0.0117379,9.26645Q0.0234757,9.02753,0.0469232,8.78946Q0.0703706,8.5514,0.105471,8.31477Q0.140572,8.07814,0.187241,7.84352Q0.23391,7.6089,0.292035,7.37685Q0.35016,7.14481,0.419602,6.91589Q0.489043,6.68697,0.569633,6.46174Q0.650223,6.23651,0.741768,6.0155Q0.833313,5.79449,0.935591,5.57824Q1.03787,5.362,1.15064,5.15103Q1.2634,4.94006,1.38639,4.73487Q1.50937,4.52969,1.64227,4.33079Q1.77517,4.13189,1.91768,3.93975Q2.06018,3.74761,2.21194,3.56269Q2.36369,3.37777,2.52434,3.20053Q2.68499,3.02328,2.85414,2.85413Q3.0233,2.68497,3.20055,2.52433Q3.37779,2.36368,3.56271,2.21192Q3.74763,2.06016,3.93977,1.91766Q4.13191,1.77516,4.33082,1.64226Q4.52972,1.50936,4.7349,1.38638Q4.94009,1.2634,5.15106,1.15063Q5.36203,1.03786,5.57828,0.935586Q5.79453,0.833308,6.01554,0.741763Q6.23655,0.650219,6.46178,0.569629Q6.68702,0.48904,6.91593,0.419599Q7.14485,0.350158,7.3769,0.292033Q7.60895,0.233909,7.84357,0.18724Q8.07819,0.140571,8.31482,0.105471Q8.55145,0.0703702,8.78951,0.0469229Q9.02758,0.0234756,9.26651,0.0117378Q9.50544,0,9.74466,0Q9.98388,0,10.2228,0.0117378Q10.4617,0.0234756,10.6998,0.0469229Q10.9379,0.0703702,11.1745,0.105471Q11.4111,0.140571,11.6457,0.18724Q11.8804,0.233909,12.1124,0.292033Q12.3445,0.350158,12.5734,0.419599Q12.8023,0.48904,13.0275,0.569629Q13.2528,0.650219,13.4738,0.741763Q13.6948,0.833308,13.911,0.935586Q14.1273,1.03786,14.3383,1.15063Q14.5492,1.2634,14.7544,1.38638Q14.9596,1.50936,15.1585,1.64226Q15.3574,1.77516,15.5495,1.91766Q15.7417,2.06016,15.9266,2.21192Q16.1115,2.36368,16.2888,2.52433Q16.466,2.68497,16.6352,2.85413Q16.8043,3.02328,16.965,3.20053Q17.1256,3.37777,17.2774,3.56269Q17.4291,3.74761,17.5716,3.93975Q17.7141,4.13189,17.847,4.33079Q17.9799,4.52969,18.1029,4.73487Q18.2259,4.94006,18.3387,5.15103Q18.4514,5.362,18.5537,5.57824Q18.656,5.79449,18.7475,6.0155Q18.8391,6.23651,18.9197,6.46174Q19.0003,6.68698,19.0697,6.91589Q19.1392,7.14481,19.1973,7.37685Q19.2554,7.6089,19.3021,7.84352Q19.3487,8.07814,19.3838,8.31477Q19.4189,8.5514,19.4424,8.78946Q19.4658,9.02753,19.4776,9.26645Q19.4893,9.50538,19.4893,9.7446ZM17.9893,9.7446Q17.9893,8.172,17.4104,6.70981Q16.7819,5.12218,15.5745,3.91479Q14.3671,2.7074,12.7795,2.07887Q11.3173,1.5,9.74466,1.5Q8.17204,1.5,6.70984,2.07887Q5.1222,2.7074,3.9148,3.91479Q2.7074,5.12218,2.07887,6.70981Q1.5,8.172,1.5,9.7446Q1.5,11.3172,2.07887,12.7794Q2.7074,14.367,3.9148,15.5744Q5.12221,16.7818,6.70984,17.4103Q8.17204,17.9892,9.74466,17.9892Q11.3173,17.9892,12.7795,17.4103Q14.3671,16.7818,15.5745,15.5744Q16.7819,14.367,17.4104,12.7794Q17.9893,11.3172,17.9893,9.7446ZM8.71777,5.04171L8.71777,7.00724Q8.71777,7.02713,8.72538,7.04551Q8.733,7.06388,8.74706,7.07795Q8.76113,7.09201,8.7795,7.09963Q8.79788,7.10724,8.81777,7.10724L10.7833,7.10724Q10.8032,7.10724,10.8216,7.09963Q10.8399,7.09201,10.854,7.07795Q10.8681,7.06388,10.8757,7.04551Q10.8833,7.02713,10.8833,7.00724L10.8833,5.04171Q10.8833,5.02182,10.8757,5.00344Q10.8681,4.98507,10.854,4.971Q10.8399,4.95693,10.8216,4.94932Q10.8032,4.94171,10.7833,4.94171L8.81777,4.94171Q8.79788,4.94171,8.7795,4.94932Q8.76113,4.95693,8.74706,4.971Q8.733,4.98507,8.72538,5.00344Q8.71777,5.02182,8.71777,5.04171ZM8.71777,8.13076L8.71777,14.4408Q8.71777,14.4607,8.72538,14.4791Q8.733,14.4975,8.74706,14.5115Q8.76113,14.5256,8.7795,14.5332Q8.79788,14.5408,8.81777,14.5408L10.7833,14.5408Q10.8032,14.5408,10.8216,14.5332Q10.8399,14.5256,10.854,14.5115Q10.8681,14.4975,10.8757,14.4791Q10.8833,14.4607,10.8833,14.4408L10.8833,8.13076Q10.8833,8.11087,10.8757,8.09249Q10.8681,8.07412,10.854,8.06005Q10.8399,8.04599,10.8216,8.03837Q10.8032,8.03076,10.7833,8.03076L8.81777,8.03076Q8.79788,8.03076,8.7795,8.03837Q8.76113,8.04599,8.74706,8.06005Q8.733,8.07412,8.72538,8.09249Q8.71777,8.11087,8.71777,8.13076Z"
              fill-rule="evenodd" fill="#FFFFFF" fill-opacity="1"/>
    </g>
</svg>