<svg xmlns="http://www.w3.org/2000/svg" xmlns:xlink="http://www.w3.org/1999/xlink" fill="none" version="1.1" width="29" height="43.5" viewBox="0 0 29 43.5"><g><path d="M27.7163,6.20885Q27.8663,6.08613,28.0019,5.94759Q28.1374,5.80905,28.2568,5.6564Q28.3762,5.50375,28.478,5.33885Q28.5798,5.17394,28.6628,4.99881Q28.7458,4.82367,28.809,4.64044Q28.8721,4.457211,28.9147,4.26813Q28.9572,4.079049,28.9786,3.886427Q29,3.693806,29,3.5Q29,3.328056,28.9831,3.15694Q28.9663,2.985824,28.9327,2.817184Q28.8992,2.6485440000000002,28.8493,2.484Q28.7994,2.3194600000000003,28.7336,2.16061Q28.6678,2.00175,28.5867,1.85011Q28.5057,1.69847,28.4101,1.5555Q28.3146,1.41254,28.2055,1.27962Q28.0965,1.1467100000000001,27.9749,1.0251299999999999Q27.8533,0.90354,27.7204,0.7944599999999999Q27.5875,0.6853799999999999,27.4445,0.5898599999999998Q27.3015,0.49433000000000016,27.1499,0.41327999999999987Q26.9982,0.33221999999999996,26.8394,0.2664200000000001Q26.6805,0.2006199999999998,26.516,0.15071000000000012Q26.3515,0.1008,26.1828,0.06725000000000003Q26.0142,0.03371000000000013,25.8431,0.01684999999999981Q25.6719,0,25.5,0Q25.1993,0,24.9029,0.05130999999999997Q24.6066,0.10260999999999987,24.3233,0.20372000000000012Q24.0401,0.30481999999999987,23.7783,0.45276000000000005Q23.5164,0.6007099999999999,23.2837,0.79115L23.2823,0.7922500000000001L2.21673,18.0277Q0.5806300000000002,19.3664,0.5663999999999998,21.4803Q0.5521699999999998,23.5941,2.1700999999999997,24.9547L23.2474,42.6788Q23.4821,42.8761,23.7476,43.0297Q24.0131,43.1833,24.3012,43.2883Q24.5893,43.3933,24.8913,43.4467Q25.1933,43.5,25.5,43.5Q25.6719,43.5,25.8431,43.4831Q26.0142,43.4663,26.1828,43.4327Q26.3515,43.3992,26.516,43.3493Q26.6805,43.2994,26.8394,43.2336Q26.9982,43.1678,27.1499,43.0867Q27.3015,43.0057,27.4445,42.9101Q27.5875,42.8146,27.7204,42.7055Q27.8533,42.5965,27.9749,42.4749Q28.0965,42.3533,28.2055,42.2204Q28.3146,42.0875,28.4101,41.9445Q28.5057,41.8015,28.5867,41.6499Q28.6678,41.4982,28.7336,41.3394Q28.7994,41.1805,28.8493,41.016Q28.8992,40.8515,28.9327,40.6828Q28.9663,40.5142,28.9831,40.3431Q29,40.1719,29,40Q29,39.8092,28.9792,39.6194Q28.9585,39.4297,28.9172,39.2434Q28.876,39.057,28.8147,38.8763Q28.7534,38.6955,28.6729,38.5225Q28.5923,38.3495,28.4934,38.1863Q28.3945,38.0231,28.2784,37.8715Q28.1624,37.72,28.0305,37.5821Q27.8987,37.4441,27.7526,37.3212L8.982050000000001,21.5369L27.715,6.20995L27.7163,6.20885L27.7163,6.20885Z" fill-rule="evenodd" fill="#FCFCFC" fill-opacity="1"/></g></svg>