<svg xmlns="http://www.w3.org/2000/svg" xmlns:xlink="http://www.w3.org/1999/xlink" fill="none" version="1.1"
     width="29.15625" height="37.80078125" viewBox="0 0 29.15625 37.80078125">
    <g>
        <g>
            <path d="M27.1097,28.09178125Q26.2188,27.20928125,26.2188,25.95518125L26.2187,14.87888125Q26.2188,12.57503125,25.328,10.46910125Q24.4681,8.43596125,22.9008,6.8687112500000005Q21.3336,5.30146025,19.3004,4.44151425Q17.1945,3.55078125,14.8906,3.55078125Q12.5868,3.55078125,10.4808,4.44151425Q8.44768,5.30146125,6.88043,6.8687112500000005Q5.31318,8.43596125,4.45323,10.46910125Q3.5625,12.57504125,3.5625,14.87888125L3.5625,25.78338125Q3.5625,27.15408125,2.5201,28.04428125L0.898442,29.42898125Q0.373965,29.87678125,0.220935,30.53638125Q0.0806161,31.14118125,0.297796,31.72998125Q0.514976,32.31878125,1.01443,32.68758125Q1.55912,33.089881250000005,2.24879,33.089881250000005L27.0539,33.089881250000005Q27.7251,33.089881250000005,28.2643,32.70878125Q28.7612,32.35768125,28.995,31.78958125Q29.2287,31.22148125,29.1228,30.62228125Q29.0079,29.97208125,28.531,29.49978125L27.1097,28.09178125ZM23.7187,14.87888125L23.7188,25.95518125Q23.7188,28.25168125,25.3503,29.86788125L26.0791,30.58988125L3.38883,30.58988125L4.14351,29.94538125Q5.05681,29.16558125,5.55965,28.07498125Q6.0625,26.98438125,6.0625,25.78338125L6.0625,14.87888125Q6.0625,13.08200125,6.75574,11.442981249999999Q7.42574,9.858931250000001,8.6482,8.63648125Q9.87065,7.414021249999999,11.4547,6.74402125Q13.0937,6.05078125,14.8906,6.05078125Q16.6875,6.05078125,18.3265,6.74402125Q19.9106,7.414021249999999,21.133,8.63648125Q22.3555,9.85894125,23.0255,11.442981249999999Q23.7188,13.08199125,23.7187,14.87888125Z"
                  fill-rule="evenodd" fill="#FDFDFD" fill-opacity="1"/>
        </g>
        <g>
            <path d="M22.0391125,31.85234375Q22.0391125,33.06165375,21.525712499999997,34.17456375Q21.019212500000002,35.27246375,20.0910825,36.10583375Q19.178112499999997,36.92560375,17.9935425,37.36614375Q16.8207925,37.80234375,15.5546825,37.80234375Q14.2885725,37.80234375,13.1158325,37.36614375Q11.9312625,36.92560375,11.0182925,36.10583375Q10.0901785,35.27247375,9.5837075,34.17457375Q9.0703125,33.06165375,9.0703125,31.85234375L9.0703125,30.60234375L15.5546925,30.60234375L22.0391125,30.60234375L22.0391125,31.85234375ZM19.5390625,31.85234375L20.7891125,31.85234375L20.7891125,33.10234375L15.5546925,33.10234375L10.3203125,33.10234375L10.3203125,31.85234375L11.5703125,31.85234375Q11.5703125,32.51281375,11.8538025,33.12735375Q12.1442225,33.75690375,12.6885625,34.24567375Q13.2480425,34.74803375,13.9873225,35.02299375Q14.7384325,35.30235375,15.5546925,35.30235375Q16.370942499999998,35.30235375,17.1220525,35.02299375Q17.8613425,34.74803375,18.4208125,34.24566375Q18.965152500000002,33.75690375,19.2555725,33.12735375Q19.5390625,32.51281375,19.5390625,31.85234375Z"
                  fill-opacity="0" stroke-opacity="1" stroke="#FDFDFD" fill="none" stroke-width="2.5"/>
        </g>
        <g>
            <ellipse cx="14.855468511581421" cy="2.941406011581421" rx="2.941406011581421" ry="2.941406011581421"
                     fill="#FDFDFD" fill-opacity="1"/>
        </g>
    </g>
</svg>