<svg xmlns="http://www.w3.org/2000/svg" xmlns:xlink="http://www.w3.org/1999/xlink" fill="none" version="1.1"
     width="41.9296875" height="41.90234375" viewBox="0 0 41.9296875 41.90234375">
    <g>
        <g>
            <path d="M32.3174,11L32.3174,12.4102L35.9297,12.4102Q36.077,12.4102,36.2241,12.4174Q36.3712,12.4246,36.5178,12.439Q36.6644,12.4535,36.8101,12.4751Q36.9558,12.4967,37.1002,12.5254Q37.2447,12.5542,37.3876,12.59Q37.5304,12.6258,37.6714,12.6685Q37.8123,12.7113,37.951,12.7609Q38.0897,12.8105,38.2258,12.8669Q38.3619,12.9232,38.495,12.9862Q38.6282,13.0492,38.7581,13.1186Q38.888,13.1881,39.0143,13.2638Q39.1406,13.3395,39.2631,13.4213Q39.3856,13.5032,39.5039,13.5909Q39.6222,13.6787,39.736,13.7721Q39.8499,13.8655,39.959,13.9644Q40.0682,14.0634,40.1723,14.1675Q40.2765,14.2717,40.3754,14.3808Q40.4743,14.4899,40.5678,14.6038Q40.6612,14.7177,40.7489,14.836Q40.8367,14.9543,40.9185,15.0767Q41.0003,15.1992,41.0761,15.3255Q41.1518,15.4519,41.2212,15.5818Q41.2906,15.7117,41.3536,15.8448Q41.4166,15.978,41.473,16.1141Q41.5293,16.2501,41.5789,16.3888Q41.6286,16.5275,41.6713,16.6684Q41.7141,16.8094,41.7499,16.9523Q41.7857,17.0952,41.8144,17.2396Q41.8431,17.3841,41.8647,17.5298Q41.8864,17.6755,41.9008,17.8221Q41.9152,17.9686,41.9225,18.1158Q41.9297,18.2629,41.9297,18.4102L41.9297,35.9023Q41.9297,36.0496,41.9225,36.1968Q41.9152,36.3439,41.9008,36.4904Q41.8864,36.637,41.8647,36.7827Q41.8431,36.9284,41.8144,37.0729Q41.7857,37.2173,41.7499,37.3602Q41.7141,37.5031,41.6713,37.6441Q41.6286,37.785,41.5789,37.9237Q41.5293,38.0624,41.473,38.1984Q41.4166,38.3345,41.3536,38.4677Q41.2906,38.6008,41.2212,38.7307Q41.1518,38.8606,41.0761,38.987Q41.0003,39.1133,40.9185,39.2358Q40.8367,39.3582,40.7489,39.4765Q40.6612,39.5948,40.5678,39.7087Q40.4743,39.8226,40.3754,39.9317Q40.2765,40.0408,40.1723,40.145Q40.0682,40.2491,39.959,40.348Q39.8499,40.447,39.736,40.5404Q39.6222,40.6338,39.5039,40.7216Q39.3856,40.8093,39.2631,40.8912Q39.1406,40.973,39.0143,41.0487Q38.888,41.1244,38.7581,41.1939Q38.6282,41.2633,38.495,41.3263Q38.3619,41.3893,38.2258,41.4456Q38.0897,41.502,37.951,41.5516Q37.8123,41.6012,37.6714,41.644Q37.5304,41.6867,37.3876,41.7225Q37.2447,41.7583,37.1002,41.7871Q36.9558,41.8158,36.8101,41.8374Q36.6644,41.859,36.5178,41.8735Q36.3712,41.8879,36.2241,41.8951Q36.077,41.9023,35.9297,41.9023L6,41.9023Q5.85271,41.9023,5.70559,41.8951Q5.55848,41.8879,5.4119,41.8735Q5.26531,41.859,5.11962,41.8374Q4.97392,41.8158,4.82946,41.7871Q4.685,41.7583,4.54212,41.7225Q4.39924,41.6867,4.25829,41.644Q4.11734,41.6012,3.97866,41.5516Q3.83998,41.502,3.7039,41.4456Q3.56782,41.3893,3.43467,41.3263Q3.30152,41.2633,3.17162,41.1939Q3.04172,41.1244,2.91538,41.0487Q2.78905,40.973,2.66658,40.8912Q2.54411,40.8093,2.4258,40.7216Q2.3075,40.6338,2.19364,40.5404Q2.07978,40.447,1.97065,40.348Q1.86151,40.2491,1.75736,40.145Q1.65321,40.0408,1.55429,39.9317Q1.45538,39.8226,1.36194,39.7087Q1.2685,39.5948,1.18075,39.4765Q1.09301,39.3582,1.01118,39.2358Q0.929351,39.1133,0.853628,38.987Q0.777905,38.8606,0.708472,38.7307Q0.63904,38.6008,0.576064,38.4677Q0.513089,38.3345,0.456723,38.1984Q0.400357,38.0624,0.350736,37.9237Q0.301114,37.785,0.258358,37.6441Q0.215601,37.5031,0.179812,37.3602Q0.144023,37.2173,0.115288,37.0729Q0.0865531,36.9284,0.0649409,36.7827Q0.0433288,36.637,0.0288916,36.4904Q0.0144545,36.3439,0.00722726,36.1968Q0,36.0496,0,35.9023L0,18.4102Q0,18.2629,0.00722726,18.1158Q0.0144545,17.9686,0.0288916,17.8221Q0.0433288,17.6755,0.0649409,17.5298Q0.0865531,17.3841,0.115288,17.2396Q0.144023,17.0952,0.179812,16.9523Q0.215601,16.8094,0.258358,16.6684Q0.301114,16.5275,0.350736,16.3888Q0.400357,16.2501,0.456723,16.1141Q0.513089,15.978,0.576064,15.8448Q0.63904,15.7117,0.708472,15.5818Q0.777905,15.4519,0.853628,15.3255Q0.929351,15.1992,1.01118,15.0767Q1.09301,14.9543,1.18075,14.836Q1.2685,14.7177,1.36194,14.6038Q1.45538,14.4899,1.55429,14.3808Q1.65321,14.2717,1.75736,14.1675Q1.86151,14.0634,1.97065,13.9644Q2.07978,13.8655,2.19364,13.7721Q2.3075,13.6787,2.4258,13.5909Q2.54411,13.5032,2.66658,13.4213Q2.78905,13.3395,2.91538,13.2638Q3.04172,13.1881,3.17162,13.1186Q3.30152,13.0492,3.43467,12.9862Q3.56782,12.9232,3.7039,12.8669Q3.83998,12.8105,3.97866,12.7609Q4.11734,12.7113,4.25829,12.6685Q4.39924,12.6258,4.54212,12.59Q4.685,12.5542,4.82946,12.5254Q4.97392,12.4967,5.11962,12.4751Q5.26532,12.4535,5.4119,12.439Q5.55848,12.4246,5.70559,12.4174Q5.85271,12.4102,6,12.4102L9.61328,12.4102L9.61328,11Q9.61328,10.73,9.62653,10.4603Q9.63978,10.1905,9.66625,9.92181Q9.69272,9.65308,9.73234,9.38596Q9.77196,9.11885,9.82464,8.854Q9.87732,8.58916,9.94294,8.32722Q10.0086,8.06527,10.0869,7.80687Q10.1653,7.54846,10.2563,7.29421Q10.3473,7.03996,10.4506,6.79048Q10.5539,6.541,10.6694,6.29689Q10.7849,6.05279,10.9121,5.81464Q11.0394,5.57649,11.1783,5.34487Q11.3171,5.11325,11.4671,4.88873Q11.6171,4.6642,11.778,4.44731Q11.9389,4.23041,12.1102,4.02167Q12.2815,3.81293,12.4628,3.61285Q12.6442,3.41277,12.8351,3.22183Q13.026,3.03088,13.2261,2.84954Q13.4262,2.66819,13.635,2.49688Q13.8437,2.32558,14.0606,2.16472Q14.2775,2.00386,14.502,1.85383Q14.7265,1.70381,14.9582,1.56499Q15.1898,1.42616,15.4279,1.29887Q15.6661,1.17157,15.9102,1.05612Q16.1543,0.940663,16.4038,0.837325Q16.6532,0.733987,16.9075,0.643015Q17.1617,0.552043,17.4202,0.473656Q17.6786,0.395269,17.9405,0.329656Q18.2024,0.264043,18.4673,0.211362Q18.7321,0.158681,18.9992,0.119058Q19.2664,0.079436,19.5351,0.052968Q19.8038,0.0265,20.0735,0.01325Q20.3432,0,20.6133,0L21.3174,0Q21.5874,0,21.8571,0.01325Q22.1268,0.0265,22.3956,0.052968Q22.6643,0.079436,22.9314,0.119058Q23.1985,0.158681,23.4634,0.211362Q23.7282,0.264043,23.9902,0.329656Q24.2521,0.395269,24.5105,0.473656Q24.7689,0.552043,25.0232,0.643015Q25.2774,0.733987,25.5269,0.837325Q25.7764,0.940663,26.0205,1.05612Q26.2646,1.17157,26.5027,1.29887Q26.7409,1.42616,26.9725,1.56499Q27.2041,1.70381,27.4287,1.85383Q27.6532,2.00386,27.8701,2.16472Q28.087,2.32558,28.2957,2.49688Q28.5044,2.66819,28.7045,2.84954Q28.9046,3.03088,29.0956,3.22183Q29.2865,3.41277,29.4678,3.61285Q29.6492,3.81293,29.8205,4.02167Q29.9918,4.23041,30.1527,4.44731Q30.3135,4.6642,30.4635,4.88873Q30.6136,5.11325,30.7524,5.34487Q30.8912,5.57649,31.0185,5.81464Q31.1458,6.05279,31.2613,6.29689Q31.3767,6.541,31.4801,6.79048Q31.5834,7.03996,31.6744,7.29421Q31.7653,7.54846,31.8437,7.80687Q31.9221,8.06527,31.9877,8.32722Q32.0533,8.58916,32.106,8.854Q32.1587,9.11885,32.1983,9.38596Q32.2379,9.65308,32.2644,9.92181Q32.2909,10.1905,32.3041,10.4603Q32.3174,10.73,32.3174,11ZM28.3174,11L28.3174,12.4102L13.6133,12.4102L13.6133,11Q13.6133,8.1005,15.6635,6.05025Q17.7138,4,20.6133,4L21.3174,4Q24.2169,4,26.2671,6.05025Q28.3174,8.1005,28.3174,11ZM5.43431,36.468Q5.2,36.2337,5.2,35.9023L5.2,18.4102Q5.2,18.0788,5.43431,17.8445Q5.66863,17.6102,6,17.6102L35.9297,17.6102Q36.2611,17.6102,36.4954,17.8445Q36.7297,18.0788,36.7297,18.4102L36.7297,35.9023Q36.7297,36.2337,36.4954,36.468Q36.2611,36.7023,35.9297,36.7023L6,36.7023Q5.66863,36.7023,5.43431,36.468ZM18.1387,23.2119L18.1387,31.1475Q18.1387,31.2864,18.1523,31.4248Q18.1659,31.5631,18.193,31.6994Q18.2201,31.8357,18.2605,31.9687Q18.3008,32.1017,18.354,32.2301Q18.4072,32.3585,18.4727,32.4811Q18.5382,32.6037,18.6155,32.7192Q18.6927,32.8348,18.7808,32.9422Q18.869,33.0497,18.9673,33.1479Q19.0656,33.2462,19.173,33.3344Q19.2804,33.4226,19.396,33.4998Q19.5116,33.577,19.6341,33.6425Q19.7567,33.708,19.8851,33.7612Q20.0135,33.8144,20.1465,33.8547Q20.2795,33.8951,20.4158,33.9222Q20.5522,33.9493,20.6905,33.9629Q20.8288,33.9766,20.9678,33.9766Q21.1068,33.9766,21.2451,33.9629Q21.3834,33.9493,21.5197,33.9222Q21.656,33.8951,21.789,33.8547Q21.922,33.8144,22.0504,33.7612Q22.1788,33.708,22.3014,33.6425Q22.424,33.577,22.5395,33.4998Q22.6551,33.4226,22.7625,33.3344Q22.87,33.2462,22.9682,33.1479Q23.0665,33.0497,23.1547,32.9422Q23.2429,32.8348,23.3201,32.7192Q23.3973,32.6037,23.4628,32.4811Q23.5283,32.3585,23.5815,32.2301Q23.6347,32.1017,23.6751,31.9687Q23.7154,31.8357,23.7425,31.6994Q23.7696,31.5631,23.7833,31.4248Q23.7969,31.2864,23.7969,31.1475L23.7969,23.2119Q23.7969,23.0729,23.7833,22.9346Q23.7696,22.7963,23.7425,22.66Q23.7154,22.5237,23.6751,22.3907Q23.6347,22.2577,23.5815,22.1293Q23.5283,22.0009,23.4628,21.8783Q23.3973,21.7557,23.3201,21.6401Q23.2429,21.5246,23.1547,21.4172Q23.0665,21.3097,22.9682,21.2114Q22.87,21.1132,22.7625,21.025Q22.6551,20.9368,22.5395,20.8596Q22.424,20.7824,22.3014,20.7169Q22.1788,20.6514,22.0504,20.5982Q21.922,20.545,21.789,20.5046Q21.656,20.4643,21.5197,20.4372Q21.3834,20.4101,21.2451,20.3964Q21.1068,20.3828,20.9678,20.3828Q20.8288,20.3828,20.6905,20.3964Q20.5522,20.4101,20.4158,20.4372Q20.2795,20.4643,20.1465,20.5046Q20.0135,20.545,19.8851,20.5982Q19.7567,20.6514,19.6341,20.7169Q19.5116,20.7824,19.396,20.8596Q19.2804,20.9368,19.173,21.025Q19.0656,21.1132,18.9673,21.2114Q18.869,21.3097,18.7808,21.4172Q18.6927,21.5246,18.6155,21.6401Q18.5382,21.7557,18.4727,21.8783Q18.4072,22.0009,18.354,22.1293Q18.3008,22.2577,18.2605,22.3907Q18.2201,22.5237,18.193,22.66Q18.1659,22.7963,18.1523,22.9346Q18.1387,23.0729,18.1387,23.2119Z"
                  fill-rule="evenodd" fill="#FDFDFD" fill-opacity="1"/>
        </g>
    </g>
</svg>