<svg xmlns="http://www.w3.org/2000/svg" xmlns:xlink="http://www.w3.org/1999/xlink" fill="none" version="1.1"
     width="33.990234375" height="43.0546875" viewBox="0 0 33.990234375 43.0546875">
    <g>
        <path d="M0,35.0547L0,8Q0,7.80361,0.00963635,7.60746Q0.0192727,7.41131,0.0385222,7.21586Q0.0577717,7.02042,0.0865879,6.82616Q0.115404,6.63189,0.153718,6.43928Q0.192031,6.24666,0.23975,6.05616Q0.287469,5.86565,0.344477,5.67772Q0.401486,5.48979,0.467647,5.30488Q0.533809,5.11997,0.608964,4.93853Q0.684118,4.75709,0.768086,4.57956Q0.852053,4.40203,0.94463,4.22883Q1.03721,4.05563,1.13817,3.88718Q1.23914,3.71873,1.34824,3.55544Q1.45735,3.39215,1.57434,3.23441Q1.69133,3.07666,1.81592,2.92485Q1.9405,2.77304,2.07239,2.62753Q2.20428,2.48201,2.34315,2.34315Q2.48201,2.20428,2.62753,2.07239Q2.77304,1.9405,2.92485,1.81592Q3.07666,1.69133,3.23441,1.57434Q3.39215,1.45735,3.55544,1.34824Q3.71873,1.23914,3.88718,1.13817Q4.05563,1.03721,4.22883,0.94463Q4.40203,0.852053,4.57956,0.768086Q4.75709,0.684118,4.93853,0.608964Q5.11997,0.533809,5.30488,0.467647Q5.48979,0.401486,5.67772,0.344477Q5.86565,0.287469,6.05616,0.23975Q6.24666,0.192031,6.43928,0.153718Q6.63189,0.115404,6.82616,0.0865879Q7.02042,0.0577717,7.21586,0.0385222Q7.41131,0.0192727,7.60746,0.00963635Q7.80361,0,8,0L25.9902,0Q26.1866,0,26.3828,0.00963635Q26.5789,0.0192727,26.7744,0.0385222Q26.9698,0.0577717,27.1641,0.0865879Q27.3583,0.115404,27.551,0.153718Q27.7436,0.192031,27.9341,0.23975Q28.1246,0.287469,28.3125,0.344477Q28.5004,0.401486,28.6853,0.467647Q28.8703,0.533809,29.0517,0.608964Q29.2331,0.684118,29.4107,0.768086Q29.5882,0.852053,29.7614,0.94463Q29.9346,1.03721,30.1031,1.13817Q30.2715,1.23914,30.4348,1.34824Q30.5981,1.45735,30.7558,1.57434Q30.9136,1.69133,31.0654,1.81592Q31.2172,1.9405,31.3627,2.07239Q31.5082,2.20428,31.6471,2.34315Q31.786,2.48201,31.9178,2.62753Q32.0497,2.77304,32.1743,2.92485Q32.2989,3.07666,32.4159,3.23441Q32.5329,3.39215,32.642,3.55544Q32.7511,3.71873,32.8521,3.88718Q32.953,4.05563,33.0456,4.22883Q33.1382,4.40203,33.2221,4.57956Q33.3061,4.75709,33.3813,4.93853Q33.4564,5.11997,33.5226,5.30488Q33.5887,5.48979,33.6458,5.67772Q33.7028,5.86565,33.7505,6.05616Q33.7982,6.24666,33.8365,6.43928Q33.8748,6.63189,33.9036,6.82616Q33.9325,7.02042,33.9517,7.21586Q33.971,7.41131,33.9806,7.60746Q33.9902,7.80361,33.9902,8L33.9902,35.0547Q33.9902,35.2511,33.9806,35.4472Q33.971,35.6434,33.9517,35.8388Q33.9325,36.0343,33.9036,36.2285Q33.8748,36.4228,33.8365,36.6154Q33.7982,36.808,33.7505,36.9985Q33.7028,37.189,33.6458,37.377Q33.5887,37.5649,33.5226,37.7498Q33.4564,37.9347,33.3813,38.1161Q33.3061,38.2976,33.2221,38.4751Q33.1382,38.6527,33.0456,38.8259Q32.953,38.9991,32.8521,39.1675Q32.7511,39.3359,32.642,39.4992Q32.5329,39.6625,32.4159,39.8203Q32.2989,39.978,32.1743,40.1298Q32.0497,40.2816,31.9178,40.4272Q31.786,40.5727,31.6471,40.7115Q31.5082,40.8504,31.3627,40.9823Q31.2172,41.1142,31.0654,41.2388Q30.9136,41.3633,30.7558,41.4803Q30.5981,41.5973,30.4348,41.7064Q30.2715,41.8155,30.1031,41.9165Q29.9346,42.0175,29.7614,42.1101Q29.5882,42.2026,29.4107,42.2866Q29.2331,42.3706,29.0517,42.4457Q28.8703,42.5209,28.6854,42.587Q28.5004,42.6532,28.3125,42.7102Q28.1246,42.7672,27.9341,42.8149Q27.7436,42.8627,27.551,42.901Q27.3583,42.9393,27.1641,42.9681Q26.9698,42.9969,26.7744,43.0162Q26.5789,43.0354,26.3828,43.0451Q26.1866,43.0547,25.9902,43.0547L8,43.0547Q7.80361,43.0547,7.60746,43.0451Q7.41131,43.0354,7.21586,43.0162Q7.02042,42.9969,6.82616,42.9681Q6.63189,42.9393,6.43928,42.901Q6.24666,42.8627,6.05616,42.8149Q5.86565,42.7672,5.67772,42.7102Q5.48979,42.6532,5.30488,42.587Q5.11997,42.5209,4.93853,42.4457Q4.75709,42.3706,4.57956,42.2866Q4.40203,42.2026,4.22883,42.1101Q4.05563,42.0175,3.88718,41.9165Q3.71873,41.8155,3.55544,41.7064Q3.39215,41.5973,3.23441,41.4803Q3.07666,41.3633,2.92485,41.2388Q2.77304,41.1142,2.62753,40.9823Q2.48201,40.8504,2.34315,40.7115Q2.20428,40.5727,2.07239,40.4271Q1.9405,40.2816,1.81592,40.1298Q1.69133,39.978,1.57434,39.8203Q1.45735,39.6625,1.34824,39.4992Q1.23914,39.3359,1.13817,39.1675Q1.03721,38.9991,0.94463,38.8259Q0.852053,38.6527,0.768086,38.4751Q0.684118,38.2976,0.608964,38.1161Q0.533809,37.9347,0.467647,37.7498Q0.401486,37.5649,0.344477,37.377Q0.287469,37.189,0.23975,36.9985Q0.192031,36.808,0.153718,36.6154Q0.115404,36.4228,0.0865879,36.2285Q0.0577717,36.0343,0.0385222,35.8388Q0.0192727,35.6434,0.00963635,35.4472Q0,35.2511,0,35.0547ZM10.1914,5.6L8,5.6Q7.00589,5.6,6.30294,6.30294Q5.6,7.00589,5.6,8L5.6,35.0547Q5.6,36.0488,6.30294,36.7517Q7.00589,37.4547,8,37.4547L10.1953,37.4547L10.1953,35.0859L23.7969,35.0859L23.7969,37.4547L25.9902,37.4547Q26.9843,37.4547,27.6873,36.7517Q28.3902,36.0488,28.3902,35.0547L28.3902,8Q28.3902,7.00589,27.6873,6.30294Q26.9843,5.6,25.9902,5.6L23.793,5.6L23.793,7.89844L10.1914,7.89844L10.1914,5.6Z"
              fill-rule="evenodd" fill="#FFFFFF" fill-opacity="1"/>
    </g>
</svg>