<svg xmlns="http://www.w3.org/2000/svg" xmlns:xlink="http://www.w3.org/1999/xlink" fill="none" version="1.1"
     width="75.9609375" height="96.3359375" viewBox="0 0 75.9609375 96.3359375">
    <g>
        <g>
            <path d="M16.666,0C7.57358,0,0.308681,7.56729,0.679265,16.6521L3.30362,80.9881C3.65344,89.5638,10.7074,96.3359,19.2903,96.3359L56.9398,96.3359C65.5433,96.3359,72.6065,89.5324,72.9286,80.935L75.339,16.599C75.6787,7.53393,68.4217,0,59.3502,0L16.666,0ZM16.666,4Q14.153,4,11.8779,4.99134Q9.68058,5.9488,8.0095,7.68944Q6.33841,9.43008,5.47131,11.6646Q4.57352,13.9782,4.67594,16.4891L7.3003,80.825Q7.39713,83.1987,8.37775,85.336Q9.32765,87.4063,10.9798,88.9924Q12.6319,90.5785,14.7392,91.4432Q16.9147,92.3359,19.2903,92.3359L56.9398,92.3359Q59.321,92.3359,61.5006,91.4393Q63.6117,90.5709,65.2647,88.9786Q66.9178,87.3863,67.8646,85.3092Q68.8422,83.1647,68.9314,80.7852L71.3418,16.4493Q71.4357,13.9437,70.5342,11.6372Q69.6634,9.40934,67.9929,7.67508Q66.3224,5.94082,64.1287,4.98723Q61.8576,4,59.3502,4L16.666,4Z"
                  fill-rule="evenodd" fill="#FCFCFC" fill-opacity="1"/>
        </g>
        <g>
            <path d="M40.2366125,17.5443160625C40.4838125,17.2775360625,40.9299125,17.4524812625,40.9299125,17.8162140625L40.9299125,28.3568390625L50.9559125,28.3566390625C51.3218125,28.3566390625,51.495712499999996,28.8071390625,51.224712499999995,29.052939062500002L34.7811125,43.9672390625C34.5241125,44.200439062499996,34.1124025,44.0180390625,34.1124125,43.6709390625L34.1125925,35.205839062500004L24.7843175,35.205839062500004C24.4352341,35.205839062500004,24.2536505,34.7899390625,24.4909385,34.5339390625L40.2366125,17.5443160625Z"
                  fill-rule="evenodd" fill="#FCFCFC" fill-opacity="1"/>
        </g>
        <g>
            <ellipse cx="37.98046875" cy="67.423828125" rx="12.5" ry="12.5" fill-opacity="0" stroke-opacity="1"
                     stroke="#FCFCFC" fill="none" stroke-width="3"/>
        </g>
    </g>
</svg>