<svg xmlns="http://www.w3.org/2000/svg" xmlns:xlink="http://www.w3.org/1999/xlink" fill="none" version="1.1"
     width="52.103515625" height="32.869140625" viewBox="0 0 52.103515625 32.869140625">
    <g>
        <g>
            <g>
                <path d="M17.388926875,1.904954625Q17.483006875,1.6614446250000001,17.483006875,1.400390625Q17.483006875,1.331613025,17.476266875,1.263166625Q17.469526875,1.194720625,17.456106875,1.127264625Q17.442686875,1.059808625,17.422726875,0.993991625Q17.402756875,0.928175625,17.376436875,0.864633625Q17.350116875,0.801091625,17.317696875,0.740435625Q17.285276875,0.679778625,17.247066875,0.622592625Q17.208856875,0.565405625,17.165226875000002,0.512239625Q17.121586875,0.45907462499999996,17.072956875,0.41044162500000003Q17.024326875,0.36181062499999994,16.971156875,0.3181806250000001Q16.917996875,0.274540625,16.860806875,0.2363306249999999Q16.803616875,0.19812062500000005,16.742966875,0.16570062499999993Q16.682306875000002,0.13328062500000004,16.618766875,0.10696062499999992Q16.555226875,0.08064062500000002,16.489406875,0.06067062499999998Q16.423586875,0.040710625,16.356136875,0.027290625000000013Q16.288676875,0.013870625000000025,16.220236875,0.007130625000000057Q16.151786875,0.0003906250000000888,16.083006875,0.0003906250000000888Q15.977619875,0.0003906250000000888,15.873418875,0.016170624999999994Q15.769218875,0.031940625000000056,15.668553875,0.06314062499999995Q15.567889875,0.09434062500000007,15.473030875,0.14026062500000003Q15.378171875,0.186180625,15.291255875,0.24578062500000009Q15.204339875,0.30538062499999996,15.127325875,0.3773206250000001Q15.050311675,0.449262625,14.984935775,0.531921625Q14.919559775,0.614581625,14.867294875,0.706097625Q14.815030875,0.797612625,14.777055875,0.895921625L14.776957875,0.896174625Q12.376786875,7.108640625,14.846553875,11.759190625Q16.650756875,15.156490625,14.874728875,18.200790625Q14.683984875,18.527690625,14.683984875,18.906290625Q14.683983875,18.974990625,14.690725875,19.043490625Q14.697466875,19.111890625,14.710884875,19.179390625Q14.724302875,19.246790625,14.744267875,19.312690625Q14.764232875,19.378490625,14.790552875,19.441990625Q14.816872875,19.505590625,14.849294875,19.566190625Q14.881715875,19.626890625,14.919926975,19.684090625Q14.958137675,19.741190625,15.001769755,19.794390625Q15.045401775,19.847590625,15.094034875,19.896190625Q15.142667875,19.944790625,15.195833875,19.988490625Q15.248999874999999,20.032090625,15.306185875,20.070290625Q15.363372875,20.108490625,15.424028875,20.140890625Q15.484684875,20.173390625,15.548227875,20.199690625Q15.611769875,20.225990625,15.677585875,20.245990625Q15.743401875,20.265890625,15.810857875,20.279390625Q15.878313875,20.292790625,15.946760875,20.299490625Q16.015206875,20.306290625,16.083986875,20.306290625Q16.267496875,20.306290625,16.444796875,20.258990625Q16.622106875,20.211690625,16.781236875,20.120290625Q16.940366875,20.028890625,17.070566875,19.899590625Q17.200766875,19.770190625,17.293236874999998,19.611690625Q19.855096875,15.220490625,17.319456875,10.445890625Q15.449518875,6.924810625,17.388796875,1.905286625L17.388926875,1.904953625L17.388926875,1.904954625Z"
                      fill-rule="evenodd" fill="#FFFFFF" fill-opacity="1"/>
            </g>
            <g>
                <path d="M24.52759875,1.904954625Q24.62167875,1.6614446250000001,24.62167875,1.400390625Q24.62167875,1.331613025,24.61493875,1.263166625Q24.60819875,1.194720625,24.59477875,1.127264625Q24.58135875,1.059808625,24.56139875,0.993991625Q24.54142875,0.928175625,24.51510875,0.864633625Q24.48878875,0.801091625,24.45636875,0.740435625Q24.42394875,0.679778625,24.38573875,0.622592625Q24.34752875,0.565405625,24.303898750000002,0.512239625Q24.26025875,0.45907462499999996,24.21162875,0.41044162500000003Q24.16299875,0.36181062499999994,24.10982875,0.3181806250000001Q24.05666875,0.274540625,23.99947875,0.2363306249999999Q23.94228875,0.19812062500000005,23.88163875,0.16570062499999993Q23.820978750000002,0.13328062500000004,23.75743875,0.10696062499999992Q23.69389875,0.08064062500000002,23.62807875,0.06067062499999998Q23.56225875,0.040710625,23.49480875,0.027290625000000013Q23.42734875,0.013870625000000025,23.35890875,0.007130625000000057Q23.29045875,0.0003906250000000888,23.22167875,0.0003906250000000888Q23.11629175,0.0003906250000000888,23.01209075,0.016170624999999994Q22.90789075,0.031940625000000056,22.80722575,0.06314062499999995Q22.70656175,0.09434062500000007,22.61170275,0.14026062500000003Q22.51684375,0.186180625,22.42992775,0.24578062500000009Q22.34301175,0.30538062499999996,22.26599775,0.3773206250000001Q22.18898355,0.449262625,22.12360765,0.531921625Q22.05823165,0.614581625,22.00596675,0.706097625Q21.95370275,0.797612625,21.91572775,0.895921625L21.91562975,0.896174625Q19.51545875,7.108640625,21.98522575,11.759190625Q23.78942875,15.156490625,22.01340075,18.200790625Q21.82265675,18.527690625,21.82265675,18.906290625Q21.82265575,18.974990625,21.82939775,19.043490625Q21.83613875,19.111890625,21.84955675,19.179390625Q21.86297475,19.246790625,21.88293975,19.312690625Q21.90290475,19.378490625,21.92922475,19.441990625Q21.95554475,19.505590625,21.98796675,19.566190625Q22.02038775,19.626890625,22.05859885,19.684090625Q22.09680955,19.741190625,22.14044163,19.794390625Q22.18407365,19.847590625,22.23270675,19.896190625Q22.28133975,19.944790625,22.33450575,19.988490625Q22.38767175,20.032090625,22.44485775,20.070290625Q22.50204475,20.108490625,22.56270075,20.140890625Q22.62335675,20.173390625,22.68689975,20.199690625Q22.75044175,20.225990625,22.81625775,20.245990625Q22.88207375,20.265890625,22.94952975,20.279390625Q23.01698575,20.292790625,23.08543275,20.299490625Q23.15387875,20.306290625,23.22265875,20.306290625Q23.40616875,20.306290625,23.58346875,20.258990625Q23.76077875,20.211690625,23.91990875,20.120290625Q24.07903875,20.028890625,24.20923875,19.899590625Q24.33943875,19.770190625,24.431908749999998,19.611690625Q26.99376875,15.220490625,24.45812875,10.445890625Q22.58819075,6.924810625,24.52746875,1.905286625L24.52759875,1.904953625L24.52759875,1.904954625Z"
                      fill-rule="evenodd" fill="#FFFFFF" fill-opacity="1"/>
            </g>
            <g>
                <path d="M31.281505,1.904954625Q31.375585,1.6614446250000001,31.375585,1.400390625Q31.375585,1.331613025,31.368845,1.263166625Q31.362105,1.194720625,31.348685,1.127264625Q31.335265,1.059808625,31.315305,0.993991625Q31.295335,0.928175625,31.269015,0.864633625Q31.242695,0.801091625,31.210275,0.740435625Q31.177855,0.679778625,31.139645,0.622592625Q31.101435,0.565405625,31.057805000000002,0.512239625Q31.014165,0.45907462499999996,30.965535,0.41044162500000003Q30.916905,0.36181062499999994,30.863735,0.3181806250000001Q30.810575,0.274540625,30.753385,0.2363306249999999Q30.696195,0.19812062500000005,30.635545,0.16570062499999993Q30.574885000000002,0.13328062500000004,30.511345,0.10696062499999992Q30.447805,0.08064062500000002,30.381985,0.06067062499999998Q30.316165,0.040710625,30.248715,0.027290625000000013Q30.181255,0.013870625000000025,30.112815,0.007130625000000057Q30.044365,0.0003906250000000888,29.975585,0.0003906250000000888Q29.870198,0.0003906250000000888,29.765997,0.016170624999999994Q29.661797,0.031940625000000056,29.561132,0.06314062499999995Q29.460468,0.09434062500000007,29.365609,0.14026062500000003Q29.27075,0.186180625,29.183834,0.24578062500000009Q29.096918,0.30538062499999996,29.019904,0.3773206250000001Q28.9428898,0.449262625,28.8775139,0.531921625Q28.8121379,0.614581625,28.759873,0.706097625Q28.707609,0.797612625,28.669634,0.895921625L28.669536,0.896174625Q26.269365,7.108640625,28.739132,11.759190625Q30.543335,15.156490625,28.767307,18.200790625Q28.576563,18.527690625,28.576563,18.906290625Q28.576562,18.974990625,28.583304,19.043490625Q28.590045,19.111890625,28.603463,19.179390625Q28.616881,19.246790625,28.636846,19.312690625Q28.656811,19.378490625,28.683131,19.441990625Q28.709451,19.505590625,28.741873,19.566190625Q28.774294,19.626890625,28.8125051,19.684090625Q28.8507158,19.741190625,28.89434788,19.794390625Q28.9379799,19.847590625,28.986613,19.896190625Q29.035246,19.944790625,29.088412,19.988490625Q29.141578,20.032090625,29.198764,20.070290625Q29.255951,20.108490625,29.316607,20.140890625Q29.377263,20.173390625,29.440806,20.199690625Q29.504348,20.225990625,29.570164,20.245990625Q29.63598,20.265890625,29.703436,20.279390625Q29.770892,20.292790625,29.839339,20.299490625Q29.907785,20.306290625,29.976565,20.306290625Q30.160075,20.306290625,30.337375,20.258990625Q30.514685,20.211690625,30.673815,20.120290625Q30.832945,20.028890625,30.963145,19.899590625Q31.093345,19.770190625,31.185814999999998,19.611690625Q33.747675,15.220490625,31.212035,10.445890625Q29.342097,6.924810625,31.281375,1.905286625L31.281505,1.904953625L31.281505,1.904954625Z"
                      fill-rule="evenodd" fill="#FFFFFF" fill-opacity="1"/>
            </g>
        </g>
        <g>
            <path d="M27.8564,11.316406250000002Q28.0192,11.68273025,28.2092,12.04060225Q29.8551,15.13985625,28.2521,17.893226249999998L28.2491,17.89842625Q28.1152,18.12784625,28.0459,18.38424625Q27.9766,18.64064625,27.9766,18.90624625Q27.9766,19.00450625,27.9862,19.10228625Q27.9958,19.20006625,28.015,19.29642625Q28.0342,19.39279625,28.0627,19.48681625Q28.0912,19.58084625,28.1288,19.67161625Q28.1664,19.76238625,28.2127,19.84904625Q28.259,19.93569625,28.3136,20.01738625Q28.3682,20.09908625,28.4305,20.175036249999998Q28.4929,20.25098625,28.5623,20.320466250000003Q28.6318,20.389936249999998,28.7078,20.45227625Q28.7837,20.51460625,28.8654,20.56918625Q28.9471,20.62377625,29.0338,20.67009625Q29.1204,20.71640625,29.2112,20.75400625Q29.302,20.79160625,29.396,20.82012625Q29.49,20.848656249999998,29.5864,20.86781625Q29.6827,20.88698625,29.7805,20.89661625Q29.8783,20.906246250000002,29.9766,20.906246250000002Q30.1071,20.906246250000002,30.2365,20.889286249999998Q30.3659,20.87232625,30.492,20.838686250000002Q30.6181,20.80504625,30.7388,20.75530625Q30.8595,20.70556625,30.9726,20.64055625Q31.0858,20.575556249999998,31.1896,20.49639625Q31.2934,20.417236250000002,31.386,20.325256250000002Q31.4786,20.23327625,31.5584,20.13004625Q31.6383,20.02681625,31.7041,19.91407625L31.7047,19.91301625Q34.1225,15.76762625,32.2858,11.316406249999993L40.4434,11.31640625Q40.5906,11.31640625,40.7378,11.32363351Q40.8849,11.33086075,41.0315,11.34529785Q41.178,11.35973505,41.3237,11.38134715Q41.4694,11.40295935,41.6139,11.43169425Q41.7584,11.46042925,41.9012,11.49621825Q42.0441,11.53200725,42.1851,11.57476425Q42.326,11.61752025,42.4647,11.66714225Q42.6034,11.71676325,42.7395,11.77312925Q42.8755,11.82949525,43.0087,11.89247025Q43.1418,11.95544625,43.2717,12.02487825Q43.4016,12.09431125,43.528,12.17003425Q43.6543,12.24575725,43.7768,12.32758625Q43.8992,12.40941625,44.0175,12.49715625Q44.1358,12.58490625,44.2497,12.67834625Q44.3636,12.77178625,44.4727,12.87069625Q44.5818,12.96961625,44.686,13.07376625Q44.7901,13.177916249999999,44.8891,13.28705625Q44.988,13.39618625,45.0814,13.51004625Q45.1749,13.623906250000001,45.2626,13.74220625Q45.3503,13.86051625,45.4322,13.98298625Q45.514,14.10545625,45.5897,14.231786249999999Q45.6654,14.35812625,45.7349,14.48802625Q45.8043,14.61792625,45.8673,14.75107625Q45.9303,14.884226250000001,45.9866,15.02030625Q46.043,15.15638625,46.0926,15.29506625Q46.1422,15.43374625,46.185,15.574696249999999Q46.2277,15.715646249999999,46.2635,15.85852625Q46.2993,16.00140625,46.3281,16.14586625Q46.3568,16.29032625,46.3784,16.43602625Q46.4,16.58172625,46.4145,16.72830625Q46.4289,16.87488625,46.4361,17.02199625Q46.4434,17.169116250000002,46.4434,17.31640625L46.4434,26.86910625Q46.4434,27.01640625,46.4361,27.163506249999998Q46.4289,27.310706250000003,46.4145,27.45720625Q46.4,27.60380625,46.3784,27.74950625Q46.3568,27.89520625,46.3281,28.03970625Q46.2993,28.18410625,46.2635,28.32700625Q46.2278,28.46990625,46.185,28.61080625Q46.1422,28.75180625,46.0926,28.89050625Q46.043,29.02920625,45.9866,29.16520625Q45.9303,29.30130625,45.8673,29.43450625Q45.8043,29.56760625,45.7349,29.69750625Q45.6654,29.82740625,45.5897,29.95380625Q45.514,30.08010625,45.4322,30.20260625Q45.3503,30.32500625,45.2626,30.44330625Q45.1749,30.56160625,45.0814,30.67550625Q44.988,30.78940625,44.8891,30.89850625Q44.7901,31.00760625,44.686,31.11180625Q44.5818,31.21590625,44.4727,31.31480625Q44.3636,31.41380625,44.2497,31.50720625Q44.1359,31.60060625,44.0175,31.68840625Q43.8992,31.77610625,43.7768,31.85790625Q43.6543,31.93980625,43.528,32.01550625Q43.4016,32.09120625,43.2717,32.160706250000004Q43.1418,32.23010625,43.0087,32.29310625Q42.8755,32.35600625,42.7395,32.412406250000004Q42.6034,32.46880625,42.4647,32.51840625Q42.326,32.568006249999996,42.1851,32.610806249999996Q42.0441,32.65350625,41.9012,32.68930625Q41.7584,32.725106249999996,41.6139,32.75380625Q41.4694,32.78260625,41.3237,32.80420625Q41.178,32.82580625,41.0315,32.84020625Q40.8849,32.85470625,40.7378,32.861906250000004Q40.5906,32.86910625,40.4434,32.86910625L6,32.86910625Q5.85271,32.86910625,5.70559,32.861906250000004Q5.55848,32.85470625,5.4119,32.84020625Q5.26531,32.82580625,5.11962,32.80420625Q4.97392,32.78260625,4.82946,32.75380625Q4.685,32.725106249999996,4.54212,32.68930625Q4.39924,32.65350625,4.25829,32.610806249999996Q4.11734,32.568006249999996,3.97866,32.51840625Q3.83998,32.46880625,3.7039,32.412406250000004Q3.56782,32.35600625,3.43467,32.29310625Q3.30152,32.23010625,3.17162,32.160706250000004Q3.04172,32.09120625,2.91538,32.01550625Q2.78905,31.93980625,2.66658,31.85790625Q2.54411,31.77610625,2.4258,31.68840625Q2.3075,31.60060625,2.19364,31.50720625Q2.07978,31.41380625,1.97065,31.31480625Q1.86151,31.21590625,1.75736,31.11180625Q1.65321,31.00760625,1.55429,30.89850625Q1.45538,30.78940625,1.36194,30.67550625Q1.2685,30.56160625,1.18075,30.44330625Q1.09301,30.32500625,1.01118,30.20260625Q0.929351,30.08010625,0.853628,29.95380625Q0.777905,29.82740625,0.708472,29.69750625Q0.63904,29.56760625,0.576064,29.43450625Q0.513089,29.30130625,0.456723,29.16520625Q0.400357,29.02920625,0.350736,28.89050625Q0.301114,28.75180625,0.258358,28.61080625Q0.215601,28.46990625,0.179812,28.32700625Q0.144023,28.18410625,0.115288,28.03970625Q0.0865531,27.89520625,0.0649409,27.74950625Q0.0433288,27.60380625,0.0288916,27.45720625Q0.0144545,27.310706250000003,0.00722726,27.163506249999998Q0,27.01640625,0,26.86910625L0,17.31640625Q0,17.169116250000002,0.00722726,17.02199625Q0.0144545,16.87488625,0.0288916,16.72830625Q0.0433288,16.58171625,0.0649409,16.43602625Q0.0865531,16.29032625,0.115288,16.14586625Q0.144023,16.00140625,0.179812,15.85852625Q0.215601,15.715646249999999,0.258358,15.574696249999999Q0.301114,15.43374625,0.350736,15.29506625Q0.400357,15.15638625,0.456723,15.02030625Q0.513089,14.884226250000001,0.576064,14.75107625Q0.63904,14.61792625,0.708472,14.48802625Q0.777905,14.35812625,0.853628,14.231786249999999Q0.929351,14.10545625,1.01118,13.98298625Q1.09301,13.86051625,1.18075,13.74220625Q1.2685,13.623906250000001,1.36194,13.51004625Q1.45538,13.39618625,1.55429,13.28705625Q1.65321,13.177916249999999,1.75736,13.07376625Q1.86151,12.96961625,1.97065,12.87069625Q2.07978,12.77178625,2.19364,12.67834625Q2.3075,12.58490625,2.4258,12.49715625Q2.54411,12.40941625,2.66658,12.32758625Q2.78905,12.24575725,2.91538,12.17003425Q3.04172,12.09431125,3.17162,12.02487825Q3.30152,11.95544625,3.43467,11.89247025Q3.56782,11.82949525,3.7039,11.77312925Q3.83998,11.71676325,3.97866,11.66714225Q4.11734,11.61752025,4.25829,11.57476425Q4.39924,11.53200725,4.54212,11.49621825Q4.685,11.46042925,4.82946,11.43169425Q4.97392,11.40295935,5.11962,11.38134715Q5.26532,11.35973505,5.4119,11.34529785Q5.55848,11.33086075,5.70559,11.32363351Q5.85271,11.31640625,6,11.31640625L13.9638,11.31640625Q14.1266,11.68272025,14.3166,12.04060225Q15.9626,15.13985625,14.3595,17.893226249999998L14.3565,17.89842625Q14.2226,18.12784625,14.1533,18.38424625Q14.084,18.64064625,14.084,18.90624625Q14.084,19.00450625,14.0936,19.10228625Q14.1032,19.20006625,14.1224,19.29642625Q14.1416,19.39279625,14.1701,19.48681625Q14.1986,19.58084625,14.2362,19.67161625Q14.2738,19.76238625,14.3201,19.84904625Q14.3665,19.93569625,14.421,20.01738625Q14.4756,20.09908625,14.538,20.175036249999998Q14.6003,20.25098625,14.6698,20.320466250000003Q14.7392,20.389936249999998,14.8152,20.45227625Q14.8911,20.51460625,14.9728,20.56918625Q15.0545,20.62377625,15.1412,20.67009625Q15.2278,20.71640625,15.3186,20.75400625Q15.4094,20.79160625,15.5034,20.82012625Q15.5974,20.848656249999998,15.6938,20.86781625Q15.7902,20.88698625,15.888,20.89661625Q15.9857,20.906246250000002,16.084,20.906246250000002Q16.2145,20.906246250000002,16.3439,20.889286249999998Q16.4733,20.87232625,16.5994,20.838686250000002Q16.7255,20.80504625,16.8462,20.75530625Q16.9669,20.70556625,17.0801,20.64055625Q17.1932,20.575556249999998,17.297,20.49639625Q17.4008,20.417236250000002,17.4934,20.325256250000002Q17.586,20.23327625,17.6659,20.13004625Q17.7457,20.02681625,17.8115,19.91407625L17.8121,19.91301625Q20.23,15.76762625,18.3932,11.31640625L21.1025,11.31640625Q21.2653,11.68273025,21.4553,12.04060225Q23.1012,15.13985625,21.4982,17.893226249999998L21.4951,17.89842625Q21.3613,18.12784625,21.292,18.38424625Q21.2227,18.64064625,21.2227,18.90624625Q21.2227,19.00450625,21.2323,19.10228625Q21.2419,19.20006625,21.2611,19.29642625Q21.2803,19.39279625,21.3088,19.48681625Q21.3373,19.58084625,21.3749,19.67161625Q21.4125,19.76238625,21.4588,19.84904625Q21.5051,19.93569625,21.5597,20.01738625Q21.6143,20.09908625,21.6766,20.175036249999998Q21.739,20.25098625,21.8084,20.320466250000003Q21.8779,20.389936249999998,21.9539,20.45227625Q22.0298,20.51460625,22.1115,20.56918625Q22.1932,20.62377625,22.2799,20.67009625Q22.3665,20.71640625,22.4573,20.75400625Q22.5481,20.79160625,22.6421,20.82012625Q22.7361,20.848656249999998,22.8325,20.86781625Q22.9288,20.88698625,23.0266,20.89661625Q23.1244,20.906246250000002,23.2227,20.906246250000002Q23.3532,20.906246250000002,23.4826,20.889286249999998Q23.612,20.87232625,23.7381,20.838686250000002Q23.8642,20.80504625,23.9849,20.75530625Q24.1056,20.70556625,24.2187,20.64055625Q24.3319,20.575556249999998,24.4357,20.49639625Q24.5395,20.417236250000002,24.6321,20.325256250000002Q24.7247,20.23327625,24.8045,20.13004625Q24.8844,20.02681625,24.9502,19.91407625L24.9508,19.91301625Q27.3686,15.76762625,25.5319,11.31640625L27.8564,11.31640625L27.8564,11.316406250000002Z"
                  fill-rule="evenodd" fill="#FFFFFF" fill-opacity="1"/>
        </g>
        <g>
            <rect x="48.705078125" y="17.015625" width="3.398437261581421" height="11.3212890625"
                  rx="1.6992186307907104" fill="#FFFFFF" fill-opacity="1"/>
        </g>
    </g>
</svg>