<svg xmlns="http://www.w3.org/2000/svg" xmlns:xlink="http://www.w3.org/1999/xlink" fill="none" version="1.1" width="67.6796875" height="65.146484375" viewBox="0 0 67.6796875 65.146484375"><g><path d="M24.5749,38.9344765625L27.2727,58.3083765625C28.3468,66.0223765625,38.7443,67.7239765625,42.2233,60.7550765625L66.8179,11.4873765625C70.0389,5.0350365625,63.6646,-2.0152734375,56.9161,0.5355375625L5.1275,20.1107765625C-2.32281,22.9268765625,-1.43302,33.7335765625,6.37776,35.2954765625L24.5749,38.9344765625ZM33.4245,36.7741765625L42.0797,30.0590765625L42.0796,30.0588765625Q42.155,30.0003765625,42.2279,29.9387765625Q42.5686,29.6506765625,42.8465,29.3016765625Q43.1244,28.9526765625,43.3288,28.5561765625Q43.5332,28.1596765625,43.6563,27.7309765625Q43.7794,27.3022765625,43.8164,26.8577765625Q43.8535,26.4132765625,43.803,25.9700765625Q43.7526,25.5268765625,43.6166,25.1020765625Q43.4806,24.6771765625,43.2644,24.2869765625Q43.0481,23.8968765625,42.7598,23.5562765625Q42.6198,23.3910765625,42.4648,23.2398765625Q42.3097,23.0886765625,42.1409,22.9529765625Q41.9721,22.8172765625,41.7911,22.6982765625Q41.6101,22.5791765625,41.4186,22.4779765625Q41.2271,22.3767765625,41.0268,22.2942765625Q40.8265,22.2118765625,40.6193,22.1487765625Q40.412,22.0857765625,40.1997,22.0427765625Q39.9874,21.9998765625,39.7719,21.9772765625Q39.5565,21.9547765625,39.3398,21.9528765625Q39.1232,21.9509765625,38.9074,21.9697765625Q38.6916,21.9885765625,38.4786,22.0278765625Q38.2655,22.0670765625,38.0572,22.1264765625Q37.8489,22.1858765625,37.6472,22.2648765625Q37.4455,22.3438765625,37.2523,22.4416765625Q37.0591,22.5395765625,36.8761,22.6553765625Q36.6931,22.7712765625,36.522,22.9039765625L36.5218,22.9037765625L27.1117,30.2044765625L12.0255,27.1875765625L57.4164,10.0306765625L35.7454,53.4417765625L33.4245,36.7741765625Z" fill-rule="evenodd" fill="#FFFFFF" fill-opacity="1"/></g></svg>