<svg xmlns="http://www.w3.org/2000/svg" xmlns:xlink="http://www.w3.org/1999/xlink" fill="none" version="1.1" width="42.990234375" height="48.013671875" viewBox="0 0 42.990234375 48.013671875"><g><g><rect x="2.687819480895996" y="31.886794090270996" width="37.61398124694824" height="13.438940048217773" rx="6.719470024108887" fill-opacity="0" stroke-opacity="1" stroke="#FFFFFF" fill="none" stroke-width="5.375638961791992"/></g><g><path d="M27.257012500000002,17.386550400390625Q27.257012500000002,17.660300400390625,27.2318125,17.930740400390626L27.2337125,17.930910400390623Q27.2236125,18.039610400390625,27.2236125,18.148780400390624Q27.2236125,18.264230400390623,27.2349125,18.379120400390626Q27.2462125,18.494020400390625,27.2687125,18.607240400390623Q27.2912125,18.720470400390624,27.3247125,18.830950400390627Q27.3583125,18.941430400390622,27.4024125,19.048090400390628Q27.4466125,19.154750400390625,27.5010125,19.256560400390626Q27.5555125,19.358360400390623,27.619612500000002,19.454360400390627Q27.6837125,19.550360400390623,27.757012500000002,19.639560400390625Q27.830212500000002,19.728860400390623,27.9119125,19.810460400390625Q27.9935125,19.892160400390622,28.0827125,19.965360400390622Q28.1720125,20.038560400390622,28.268012499999998,20.102760400390626Q28.3640125,20.166860400390625,28.4658125,20.221260400390626Q28.5676125,20.275760400390624,28.6742125,20.319860400390624Q28.7809125,20.364060400390628,28.8914125,20.397560400390624Q29.0019125,20.431060400390624,29.115112500000002,20.453660400390625Q29.2283125,20.476160400390626,29.3432125,20.487460400390624Q29.4581125,20.498760400390623,29.5736125,20.498760400390623Q29.6822125,20.498760400390623,29.7903125,20.488760400390625Q29.8985125,20.478760400390627,30.0052125,20.458760400390624Q30.1120125,20.438860400390624,30.2165125,20.409160400390626Q30.3209125,20.379360400390624,30.4222125,20.340160400390623Q30.5235125,20.300960400390625,30.6207125,20.252560400390625Q30.7180125,20.204160400390627,30.8103125,20.146960400390626Q30.9027125,20.089860400390627,30.9894125,20.024360400390627Q31.0761125,19.958960400390623,31.1564125,19.885760400390623Q31.2366125,19.812660400390627,31.3098125,19.732360400390625Q31.3830125,19.652160400390628,31.4485125,19.565460400390627Q31.5140125,19.478860400390623,31.5712125,19.386460400390625Q31.6284125,19.294160400390624,31.6768125,19.196970400390626Q31.7253125,19.099750400390626,31.7646125,18.998490400390626Q31.8038125,18.897220400390623,31.8336125,18.792770400390623Q31.8634125,18.688310400390627,31.8834125,18.581550400390626Q31.9034125,18.474800400390627,31.9134125,18.366650400390625L31.9153125,18.366820400390623Q31.9607125,17.878800400390624,31.9607125,17.386550400390625Q31.9607125,15.258610400390625,31.1375125,13.311590400390624Q30.3430125,11.432680400390625,28.8959125,9.985037400390626Q27.4487125,8.537304400390624,25.5702125,7.742500400390625Q23.6235125,6.918820400390625,21.495842500000002,6.918820400390625Q19.3681825,6.918820400390625,17.4214525,7.742510400390625Q15.5429925,8.537305400390625,14.0957685,9.985038400390625Q12.6486315,11.432680400390625,11.8542025,13.311590400390624Q11.0309725,15.258610400390625,11.0309725,17.386550400390625Q11.0309725,19.514460400390625,11.8542025,21.461460400390624Q12.6486315,23.340460400390626,14.0957685,24.788060400390627Q15.5429925,26.235760400390625,17.4214525,27.030560400390623Q19.3681825,27.854260400390626,21.495842500000002,27.854260400390626Q24.403712499999997,27.854260400390626,26.885012500000002,26.360960400390624L26.8841125,26.359360400390624Q27.0138125,26.281360400390625,27.132312499999998,26.187260400390624Q27.2509125,26.093260400390626,27.3565125,25.984760400390623Q27.4620125,25.876360400390624,27.5528125,25.755160400390626Q27.6436125,25.634060400390624,27.7180125,25.502360400390625Q27.7925125,25.370560400390627,27.8495125,25.230360400390623Q27.906512499999998,25.090160400390623,27.9450125,24.943760400390623Q27.9835125,24.797460400390626,28.0029125,24.647360400390625Q28.022312499999998,24.497260400390623,28.022312499999998,24.345860400390627Q28.022312499999998,24.230460400390626,28.0110125,24.115560400390628Q27.9997125,24.000660400390625,27.9771125,23.887460400390623Q27.9546125,23.774160400390628,27.9211125,23.663760400390625Q27.8876125,23.553260400390627,27.8434125,23.446560400390624Q27.7992125,23.339960400390623,27.744812500000002,23.238060400390623Q27.6904125,23.136260400390626,27.6262125,23.040260400390626Q27.562112499999998,22.944260400390625,27.488912499999998,22.855060400390627Q27.4156125,22.765860400390626,27.3340125,22.684160400390624Q27.2524125,22.602560400390622,27.1631125,22.529260400390626Q27.0739125,22.456060400390626,26.977912500000002,22.391960400390623Q26.8819125,22.327760400390623,26.7801125,22.273360400390626Q26.6783125,22.218960400390625,26.5716125,22.174760400390625Q26.4649125,22.130560400390625,26.3545125,22.097060400390625Q26.2440125,22.063560400390624,26.130812499999998,22.041060400390627Q26.017512500000002,22.018560400390626,25.9026125,22.007160400390624Q25.787712499999998,21.995860400390626,25.6723125,21.995860400390626Q25.3520125,21.995860400390626,25.0435125,22.081560400390625Q24.7349125,22.167260400390624,24.4605125,22.332360400390627L24.4596125,22.330860400390627Q23.097472500000002,23.150560400390624,21.495842500000002,23.150560400390624Q19.1097225,23.150560400390624,17.4223625,21.462660400390625Q15.7346525,19.774360400390627,15.7346525,17.386550400390625Q15.7346525,14.998760400390626,17.4223625,13.310460400390625Q19.1097225,11.622500400390624,21.495842500000002,11.622500400390624Q23.882012500000002,11.622500400390624,25.569312500000002,13.310460400390625Q27.257012500000002,14.998760400390626,27.257012500000002,17.386550400390625Z" fill-rule="evenodd" fill="#FFFFFF" fill-opacity="1"/></g><g><path d="M4.204798698,18.160986376953126Q4.204798698,14.478086376953126,5.595958125,11.109586376953125Q6.941148125,7.852446376953125,9.395158125,5.339186376953125Q11.854918125000001,2.820046376953125,15.049678125,1.436136376953125Q18.365078125,-0.000004053046875000013,21.993078125,-0.000003815046875000006Q25.621178125,-0.000004768046874999995,28.936478125,1.436136376953125Q32.131378125,2.820046376953125,34.591078124999996,5.339186376953125Q37.045078125,7.852446376953125,38.390278125,11.109586376953125Q38.474778125,11.314286376953126,38.554178125,11.520086376953126C40.933578125,11.308386376953125,43.256178125,13.616886376953126,42.959378125,16.921186376953123C42.959378125,19.815686376953124,41.143178125,21.894186376953126,39.337378125,22.236886376953127Q38.847778125,24.419586376953124,37.818578125,26.461486376953125L37.816878125,26.460686376953124Q37.743778125,26.605686376953123,37.651478125,26.739286376953125Q37.559078125,26.872786376953126,37.449278125,26.992486376953124Q37.339378125,27.112086376953126,37.214178125,27.215386376953123Q37.088878125,27.318786376953124,36.950678125,27.403886376953125Q36.812378125,27.489086376953125,36.663678125,27.554386376953126Q36.514978125,27.619686376953126,36.358778125,27.663986376953126Q36.202478125,27.708186376953126,36.041678125000004,27.730586376953124Q35.880778125,27.752886376953125,35.718378125,27.752886376953125Q35.602978125,27.752886376953125,35.488078125,27.741586376953126Q35.373178124999995,27.730286376953124,35.259978125,27.707686376953124Q35.146678125,27.685186376953126,35.036278124999995,27.651686376953126Q34.925778125,27.618186376953126,34.819078125000004,27.573986376953126Q34.712478125000004,27.529786376953126,34.610578125,27.475386376953125Q34.508778125,27.420986376953124,34.412778125,27.356886376953124Q34.316778125,27.292686376953124,34.227578125,27.219486376953125Q34.138378125,27.146186376953125,34.056678125000005,27.064586376953127Q33.975078124999996,26.982986376953125,33.901878124999996,26.893686376953124Q33.828578125,26.804486376953125,33.764478125,26.708486376953125Q33.700278125,26.612486376953125,33.645878124999996,26.510686376953124Q33.591478124999995,26.408886376953124,33.547278125,26.302186376953124Q33.503078125,26.195486376953124,33.469578125,26.085086376953125Q33.436078125,25.974586376953123,33.413578125,25.861386376953124Q33.391078125,25.748086376953125,33.379678125,25.633186376953127Q33.368378125,25.518386376953124,33.368378125,25.402886376953123Q33.368378125,24.844086376953125,33.619978125,24.345086376953127L33.618278125,24.344286376953125Q35.077778124999995,21.448886376953126,35.077778124999995,18.160986376953126Q35.077778124999995,15.411186376953125,34.042778125,12.905086376953125Q33.044578125,10.488186376953125,31.225678125,8.625286376953126Q29.412478125,6.768316376953125,27.066878125,5.752266376953125Q24.646178125,4.703676376953125,21.993078125,4.703676376953125Q19.340078124999998,4.703676376953125,16.919378125,5.752266376953125Q14.573778125,6.768316376953125,12.760598125,8.625286376953126Q10.941668125,10.488186376953125,9.943468124999999,12.905086376953125Q8.908478125,15.411186376953125,8.908478125,18.160986376953126L8.906638125,18.160986376953126Q8.906638125,18.276486376953127,8.895328124999999,18.391386376953125Q8.884008125000001,18.506286376953124,8.861488125000001,18.619486376953127Q8.838958125000001,18.732686376953126,8.805448125,18.843186376953124Q8.771938125,18.953686376953126,8.727758125000001,19.060286376953126Q8.683578125,19.166986376953126,8.629158125,19.268786376953123Q8.574738125,19.370586376953124,8.510598125,19.466586376953124Q8.446458125,19.562586376953124,8.373218125000001,19.651886376953126Q8.299978124999999,19.741086376953124,8.218338124999999,19.822686376953126Q8.136708125,19.904386376953124,8.047468125,19.977586376953123Q7.958218125,20.050786376953123,7.862228125,20.114986376953127Q7.766238125,20.179086376953126,7.664418125,20.233486376953124Q7.562608125000001,20.287986376953125,7.455948125,20.332086376953125Q7.349288125,20.376286376953125,7.238808125,20.409786376953125Q7.1283281249999995,20.443386376953125,7.015098125,20.465886376953126Q6.901868125,20.488386376953127,6.786978125,20.499686376953125Q6.672088125,20.510986376953124,6.556638125,20.510986376953124Q6.441188125,20.510986376953124,6.326298125,20.499686376953125Q6.211408125,20.488386376953127,6.0981781250000004,20.465886376953126Q5.984948125,20.443386376953125,5.874468125,20.409786376953125Q5.7639981250000005,20.376286376953125,5.657338125,20.332086376953125Q5.550678125,20.287986376953125,5.448858125,20.233486376953124Q5.347038125,20.179086376953126,5.2510481250000005,20.114986376953127Q5.155059125,20.050786376953123,5.065816125,19.977586376953123Q4.976574125,19.904386376953124,4.894940125,19.822686376953126Q4.813305125,19.741086376953124,4.740066125,19.651886376953126Q4.666826125,19.562586376953124,4.602687125,19.466586376953124Q4.538547125,19.370586376953124,4.484126125,19.268786376953123Q4.429704125,19.166986376953126,4.385524125,19.060286376953126Q4.341344125,18.953686376953126,4.307831125,18.843186376953124Q4.274318125,18.732686376953126,4.251795325,18.619486376953127Q4.229272525,18.506286376953124,4.217956625,18.391386376953125Q4.206640725,18.276486376953127,4.206640725,18.160986376953126L4.204798698,18.160986376953126Z" fill-rule="evenodd" fill="#FFFFFF" fill-opacity="1"/></g></g></svg>