<svg xmlns="http://www.w3.org/2000/svg" xmlns:xlink="http://www.w3.org/1999/xlink" fill="none" version="1.1" width="65.05078125" height="66.4365234375" viewBox="0 0 65.05078125 66.4365234375"><g><g><path d="M39.615,66.4368L25.4359,66.4368C24.6315,66.4368,23.9787,65.7852,23.9787,64.9805L23.9787,56.8562C23.9787,56.3839,23.6819,55.9625,23.2452,55.7826C21.2394,54.9559,19.3422,53.8599,17.6196,52.532C17.2455,52.2437,16.7304,52.1958,16.3213,52.4318L9.27624,56.4968C8.57963,56.8987,7.68823,56.6602,7.28602,55.964L0.195722,43.6916C-0.206486,42.9954,0.0321623,42.1045,0.728777,41.7026L7.77092,37.6391C8.17997,37.4031,8.3968,36.9365,8.3344,36.4684C8.19122,35.3943,8.11943,34.308,8.11943,33.2188C8.11943,32.1296,8.1917,31.0433,8.33468,29.9692C8.39697,29.5013,8.18017,29.0346,7.77131,28.7987L0.728777,24.735C0.0322286,24.3331,-0.207184,23.4423,0.195607,22.7462C0.195767,22.7459,0.195802,22.7458,0.195961,22.7456L7.28528,10.4736C7.68745,9.77741,8.57875,9.53814,9.27534,9.94073C9.27559,9.94087,9.27563,9.94089,9.27588,9.94104L16.3207,14.0058C16.7297,14.2418,17.245,14.1938,17.619,13.9056C19.342,12.5777,21.2387,11.4816,23.2445,10.655C23.6812,10.4751,23.978,10.0536,23.978,9.58138L23.978,1.45631C23.978,0.652369,24.63,0,25.4352,0L39.6143,0C40.4187,0,41.0715,0.651626,41.0715,1.45631L41.0715,9.58064C41.0715,10.0529,41.3683,10.4743,41.805,10.6543C43.8108,11.4809,45.708,12.5769,47.4306,13.9048C47.8047,14.1931,48.3198,14.241,48.7289,14.005L55.774,9.94008C56.4706,9.5381,57.362,9.77661,57.7642,10.4728L64.8537,22.7452C65.2559,23.4414,65.0173,24.3323,64.3207,24.7343L57.2792,28.7977C56.8702,29.0338,56.6534,29.5003,56.7158,29.9684C56.859,31.0426,56.9308,32.1289,56.9308,33.218C56.9308,34.3072,56.8585,35.3935,56.7155,36.4677C56.6532,36.9355,56.87,37.4022,57.2788,37.6382L64.3214,41.7026C65.018,42.1045,65.2574,42.9953,64.8546,43.6915C64.8544,43.6917,64.8544,43.6917,64.8542,43.692L57.7649,55.964C57.3627,56.6602,56.4713,56.8995,55.7747,56.4968C55.7744,56.4966,55.7746,56.4967,55.7743,56.4965L48.7295,52.4317C48.3205,52.1958,47.8052,52.2438,47.4312,52.532C45.7082,53.8599,43.8115,54.9559,41.8057,55.7826C41.3691,55.9625,41.0722,56.3839,41.0722,56.8562L41.0722,64.98C41.0722,64.9803,41.0722,64.9802,41.0722,64.9805C41.0714,65.7845,40.4194,66.4368,39.615,66.4368ZM29.8694,61.6815L35.1815,61.6815C35.807,61.6815,36.3141,61.1745,36.3141,60.549L36.3141,53.423C36.3141,52.9193,36.6467,52.4762,37.1304,52.3355L38.0285,52.0743C41.0372,51.1991,43.8319,49.5845,46.1098,47.4052L46.7854,46.7588C47.149,46.4109,47.6986,46.3447,48.1344,46.5962L54.3155,50.1629C54.857,50.4755,55.5494,50.29,55.8622,49.7485L58.5177,45.152C58.8307,44.6102,58.645,43.9173,58.103,43.6045L51.929,40.042C51.4932,39.7905,51.2755,39.2816,51.3948,38.7927L51.6158,37.8864C51.9861,36.3684,52.1742,34.7977,52.1742,33.218C52.1742,31.6391,51.9861,30.0684,51.6158,28.5497L51.3948,27.6434C51.2755,27.1545,51.4932,26.6456,51.929,26.3941L58.103,22.8316C58.645,22.5188,58.8307,21.8259,58.5177,21.284L55.8622,16.6875C55.5494,16.1461,54.857,15.9606,54.3155,16.2731L48.1344,19.8399C47.6986,20.0914,47.149,20.0252,46.7854,19.6773L46.1098,19.0309C43.8319,16.8516,41.0372,15.237,38.0285,14.3618L37.1304,14.1006C36.6467,13.9599,36.3141,13.5168,36.3141,13.0131L36.3141,5.88861C36.3141,5.26311,35.807,4.75605,35.1815,4.75605L29.8694,4.75605C29.2439,4.75605,28.7368,5.26311,28.7368,5.88861L28.7368,13.0138C28.7368,13.5175,28.4042,13.9607,27.9205,14.1013L27.0224,14.3625C24.0137,15.2378,21.2191,16.8524,18.9411,19.0316L18.2655,19.678C17.9019,20.0259,17.3524,20.0921,16.9165,19.8406L10.7355,16.2739C10.1939,15.9614,9.50155,16.1469,9.18876,16.6883L6.53325,21.2848C6.22023,21.8266,6.40591,22.5196,6.94788,22.8323L13.1219,26.3948C13.5578,26.6463,13.7754,27.1553,13.6562,27.6441L13.4351,28.5504C13.0649,30.0684,12.8768,31.6391,12.8768,33.2188C12.8768,34.7977,13.0649,36.3684,13.4351,37.8872L13.6562,38.7934C13.7754,39.2823,13.5578,39.7913,13.1219,40.0428L6.94788,43.6053C6.40591,43.918,6.22023,44.611,6.53325,45.1528L9.18876,49.7493C9.50155,50.2907,10.1939,50.4762,10.7355,50.1637L16.9165,46.5969C17.3524,46.3454,17.9019,46.4117,18.2655,46.7596L18.9411,47.4059C21.2191,49.5852,24.0129,51.1998,27.0224,52.0751L27.9205,52.3362C28.4042,52.4769,28.7368,52.9201,28.7368,53.4237L28.7368,60.549C28.7368,61.1745,29.2439,61.6815,29.8694,61.6815" fill="#FFFFFF" fill-opacity="1"/></g><g><path d="M32.529414486694336,44.81430055236817C26.132024486694334,44.81430055236817,20.927114486694336,39.61250055236816,20.927114486694336,33.218800552368165C20.927114486694336,26.825160552368164,26.132024486694334,21.623300552368164,32.529414486694336,21.623300552368164C38.92681448669434,21.623300552368164,44.131714486694335,26.825160552368164,44.131714486694335,33.218800552368165C44.131714486694335,39.61250055236816,38.92681448669434,44.81430055236817,32.529414486694336,44.81430055236817ZM32.529414486694336,26.377860552368162C28.755664486694336,26.377860552368162,25.685204486694335,29.446520552368163,25.685204486694335,33.21810055236816C25.685204486694335,36.98960055236817,28.755664486694336,40.058300552368166,32.529414486694336,40.058300552368166C36.30321448669434,40.058300552368166,39.373614486694336,36.98960055236817,39.373614486694336,33.21810055236816C39.373614486694336,29.446520552368163,36.30321448669434,26.377860552368162,32.529414486694336,26.377860552368162Z" fill="#FFFFFF" fill-opacity="1"/></g></g></svg>