<svg xmlns="http://www.w3.org/2000/svg" xmlns:xlink="http://www.w3.org/1999/xlink" fill="none" version="1.1" width="74.7265625" height="59.9814453125" viewBox="0 0 74.7265625 59.9814453125"><g><g><path d="M28.309807852172852,33.9518Q28.72670785217285,33.9518,29.14320785217285,33.9314Q29.559707852172853,33.9109,29.974707852172852,33.8701Q30.38960785217285,33.8293,30.802107852172853,33.7681Q31.21460785217285,33.707,31.623507852172853,33.6256Q32.032507852172856,33.5443,32.437007852172854,33.4431Q32.84150785217285,33.3418,33.240507852172854,33.2209Q33.639507852172855,33.0999,34.03210785217286,32.9595Q34.42470785217285,32.8191,34.81000785217285,32.6596Q35.19520785217286,32.5001,35.57210785217285,32.322Q35.94910785217285,32.1438,36.31680785217285,31.9473Q36.68460785217285,31.7509,37.04220785217285,31.5366Q37.39990785217285,31.3224,37.74660785217285,31.0909Q38.093307852172856,30.8594,38.42820785217285,30.6111Q38.76310785217285,30.3629,39.08550785217285,30.0985Q39.40780785217285,29.8341,39.71680785217285,29.5542Q40.02570785217285,29.2744,40.320607852172856,28.9797Q40.61540785217285,28.685,40.895507852172855,28.3763Q41.175507852172856,28.0675,41.440007852172855,27.7453Q41.70450785217285,27.4232,41.95290785217286,27.0885Q42.20130785217285,26.7537,42.43300785217285,26.4072Q42.66460785217285,26.0607,42.87900785217285,25.7033Q43.09340785217285,25.3458,43.29000785217285,24.9783Q43.48650785217285,24.6108,43.66480785217285,24.2341Q43.84310785217285,23.8573,44.00260785217285,23.4723Q44.16220785217285,23.0873,44.30270785217285,22.6949Q44.443207852172854,22.3026,44.56420785217285,21.9038Q44.685307852172855,21.505,44.78660785217285,21.1007Q44.88790785217285,20.6965,44.96920785217285,20.2878Q45.05060785217285,19.879,45.11180785217285,19.4668Q45.17300785217285,19.0546,45.21380785217285,18.6399Q45.25470785217285,18.2251,45.275207852172855,17.8089Q45.29560785217285,17.3927,45.29560785217285,16.9759Q45.29560785217285,16.5592,45.275207852172855,16.143Q45.25470785217285,15.7267,45.21380785217285,15.312Q45.17300785217285,14.8973,45.11180785217285,14.485Q45.05060785217285,14.0728,44.96920785217285,13.6641Q44.88790785217285,13.2554,44.78660785217285,12.8511Q44.685307852172855,12.4469,44.56420785217285,12.0481Q44.443207852172854,11.6493,44.30270785217285,11.2569Q44.16220785217285,10.8645,44.00260785217285,10.4795Q43.84310785217285,10.0945,43.66480785217285,9.71778Q43.48650785217285,9.34105,43.29000785217285,8.97353Q43.09340785217285,8.606,42.87900785217285,8.24855Q42.66460785217285,7.8911,42.43300785217285,7.5446Q42.20130785217285,7.1981,41.95290785217286,6.86337Q41.70450785217285,6.52865,41.440007852172855,6.20651Q41.175507852172856,5.88437,40.895507852172855,5.57559Q40.61540785217285,5.26681,40.320607852172856,4.97213Q40.02570785217285,4.67745,39.71680785217285,4.39759Q39.40780785217285,4.11773,39.08550785217285,3.85336Q38.76310785217285,3.58898,38.42820785217285,3.34073Q38.093307852172856,3.09248,37.74660785217285,2.86096Q37.39990785217285,2.62943,37.04220785217285,2.41519Q36.68460785217285,2.20094,36.31680785217285,2.00449Q35.94910785217285,1.80805,35.57210785217285,1.62987Q35.19520785217286,1.45169,34.81000785217285,1.29221Q34.42470785217285,1.13274,34.03210785217286,0.992343Q33.639507852172855,0.851949,33.240507852172854,0.730977Q32.84150785217285,0.610005,32.437007852172854,0.508747Q32.032507852172856,0.407489,31.623507852172853,0.326187Q31.21460785217285,0.244886,30.802107852172853,0.183739Q30.38960785217285,0.122591,29.974707852172852,0.0817437Q29.559707852172853,0.0408965,29.14320785217285,0.0204482Q28.72670785217285,0,28.309807852172852,0Q27.89280785217285,0,27.47630785217285,0.0204482Q27.059807852172852,0.0408965,26.64490785217285,0.0817437Q26.22990785217285,0.122591,25.81740785217285,0.183739Q25.40500785217285,0.244886,24.996007852172852,0.326187Q24.587007852172853,0.407489,24.18250785217285,0.508747Q23.77810785217285,0.610005,23.37900785217285,0.730977Q22.980007852172854,0.851949,22.587407852172852,0.992343Q22.19480785217285,1.13274,21.809607852172853,1.29221Q21.424307852172852,1.45169,21.04737785217285,1.62987Q20.670437852172853,1.80805,20.302687852172852,2.0045Q19.93494785217285,2.20094,19.57728785217285,2.41519Q19.219637852172852,2.62943,18.87292785217285,2.86096Q18.526227852172852,3.09248,18.19130785217285,3.34073Q17.85637785217285,3.58898,17.53405785217285,3.85336Q17.21172785217285,4.11773,16.90275785217285,4.39759Q16.59379785217285,4.67745,16.29894785217285,4.97213Q16.00409785217285,5.26681,15.72407785217285,5.57559Q15.44404785217285,5.88437,15.179517852172852,6.20651Q14.914987852172851,6.52865,14.666597852172853,6.86338Q14.418207852172852,7.1981,14.186537852172851,7.5446Q13.954877852172851,7.89111,13.74050785217285,8.24855Q13.526137852172852,8.606,13.329577852172852,8.97353Q13.133017852172852,9.34105,12.954727852172851,9.71778Q12.77644785217285,10.0945,12.616877852172852,10.4795Q12.457307852172852,10.8645,12.316831852172852,11.2569Q12.176355852172852,11.6493,12.055312852172852,12.0481Q11.934270852172851,12.4469,11.832952852172852,12.8511Q11.731634852172851,13.2554,11.65028685217285,13.6641Q11.568937852172851,14.0728,11.507753852172852,14.485Q11.44657085217285,14.8973,11.405699452172852,15.312Q11.36482825217285,15.7267,11.344368052172852,16.143Q11.323907852172852,16.5592,11.323907852172852,16.9759Q11.323907852172852,17.3927,11.344368052172852,17.8089Q11.36482825217285,18.2251,11.405699452172852,18.6399Q11.44657085217285,19.0546,11.507753852172852,19.4668Q11.568937852172851,19.879,11.65028685217285,20.2878Q11.731634852172851,20.6965,11.832952852172852,21.1007Q11.934270852172851,21.505,12.055312852172852,21.9038Q12.176355852172852,22.3026,12.316831852172852,22.6949Q12.457307852172852,23.0873,12.616877852172852,23.4723Q12.77644785217285,23.8573,12.954727852172851,24.2341Q13.133017852172852,24.6108,13.329577852172852,24.9783Q13.526137852172852,25.3458,13.74050785217285,25.7033Q13.954877852172851,26.0607,14.186537852172851,26.4072Q14.418207852172852,26.7537,14.666597852172853,27.0885Q14.914987852172851,27.4232,15.179517852172852,27.7453Q15.44404785217285,28.0675,15.72407785217285,28.3763Q16.00409785217285,28.685,16.29894785217285,28.9797Q16.59379785217285,29.2744,16.90275785217285,29.5542Q17.21172785217285,29.8341,17.53405785217285,30.0985Q17.85637785217285,30.3629,18.19130785217285,30.6111Q18.526227852172852,30.8594,18.87292785217285,31.0909Q19.219637852172852,31.3224,19.57728785217285,31.5366Q19.93494785217285,31.7509,20.302687852172852,31.9473Q20.670437852172853,32.1438,21.04737785217285,32.322Q21.424307852172852,32.5001,21.809607852172853,32.6596Q22.19480785217285,32.8191,22.587407852172852,32.9595Q22.980007852172854,33.0999,23.37900785217285,33.2209Q23.77810785217285,33.3418,24.18250785217285,33.4431Q24.587007852172853,33.5443,24.996007852172852,33.6256Q25.40500785217285,33.707,25.81740785217285,33.7681Q26.22990785217285,33.8293,26.64490785217285,33.8701Q27.059807852172852,33.9109,27.47630785217285,33.9314Q27.89280785217285,33.9518,28.309807852172852,33.9518ZM28.30880785217285,26.0295Q28.53120785217285,26.0295,28.753307852172853,26.0186Q28.97540785217285,26.0077,29.196807852172853,25.9859Q29.418107852172852,25.9641,29.63810785217285,25.9315Q29.85800785217285,25.8989,30.076207852172853,25.8556Q30.294307852172853,25.8122,30.51000785217285,25.7582Q30.725707852172853,25.7042,30.93850785217285,25.6397Q31.151307852172852,25.5751,31.36070785217285,25.5003Q31.570107852172853,25.4254,31.77560785217285,25.3403Q31.98100785217285,25.2553,32.18210785217285,25.1603Q32.383107852172856,25.0652,32.57930785217285,24.9605Q32.77540785217285,24.8557,32.966107852172854,24.7414Q33.15690785217285,24.6272,33.34180785217285,24.5037Q33.52670785217285,24.3802,33.70530785217285,24.2478Q33.883907852172854,24.1154,34.05590785217285,23.9744Q34.22780785217285,23.8334,34.392507852172855,23.6841Q34.557307852172855,23.5349,34.71460785217285,23.3777Q34.87180785217285,23.2206,35.02120785217285,23.0559Q35.17050785217285,22.8912,35.311607852172855,22.7194Q35.45270785217285,22.5476,35.58520785217285,22.3691Q35.71760785217285,22.1905,35.84120785217285,22.0057Q35.96470785217285,21.8209,36.079107852172854,21.6303Q36.193407852172854,21.4397,36.29820785217285,21.2436Q36.40310785217285,21.0476,36.498207852172854,20.8467Q36.59320785217285,20.6458,36.67830785217285,20.4404Q36.76340785217285,20.2351,36.83840785217285,20.0258Q36.91330785217285,19.8166,36.97780785217285,19.6039Q37.04240785217285,19.3912,37.09640785217285,19.1756Q37.15050785217285,18.96,37.193907852172856,18.742Q37.23720785217285,18.524,37.26990785217285,18.3042Q37.30250785217285,18.0843,37.32430785217285,17.8631Q37.34610785217285,17.6419,37.357007852172856,17.4199Q37.36790785217285,17.198,37.36790785217285,16.9757Q37.36790785217285,16.7534,37.357007852172856,16.5315Q37.34610785217285,16.3095,37.32430785217285,16.0883Q37.30250785217285,15.8671,37.26990785217285,15.6472Q37.23720785217285,15.4274,37.193907852172856,15.2094Q37.15050785217285,14.9914,37.09640785217285,14.7758Q37.04240785217285,14.5602,36.97780785217285,14.3475Q36.91330785217285,14.1348,36.83840785217285,13.9256Q36.76340785217285,13.7163,36.67830785217285,13.511Q36.59320785217285,13.3056,36.498207852172854,13.1047Q36.40310785217285,12.9038,36.29820785217285,12.7078Q36.193407852172854,12.5117,36.079107852172854,12.3211Q35.96470785217285,12.1305,35.84120785217285,11.9457Q35.71760785217285,11.7609,35.58520785217285,11.5823Q35.45270785217285,11.4038,35.311607852172855,11.232Q35.17050785217285,11.0602,35.02120785217285,10.8955Q34.87180785217285,10.7308,34.71460785217285,10.5737Q34.557307852172855,10.4165,34.392507852172855,10.2673Q34.22780785217285,10.118,34.05590785217285,9.977Q33.883907852172854,9.836,33.70530785217285,9.7036Q33.52670785217285,9.5712,33.34180785217285,9.44772Q33.15690785217285,9.32424,32.966107852172854,9.20997Q32.77540785217285,9.09571,32.57930785217285,8.99094Q32.383107852172856,8.88617,32.18210785217285,8.79114Q31.98100785217285,8.69611,31.77560785217285,8.61106Q31.570107852172853,8.526,31.36070785217285,8.45112Q31.151307852172852,8.37625,30.93850785217285,8.31173Q30.725707852172853,8.24721,30.51000785217285,8.19321Q30.294307852172853,8.1392,30.076207852172853,8.09584Q29.85800785217285,8.05248,29.63810785217285,8.01987Q29.418107852172852,7.98726,29.196807852172853,7.96547Q28.97540785217285,7.94369,28.753307852172853,7.93278Q28.53120785217285,7.92188,28.30880785217285,7.92188Q28.08640785217285,7.92188,27.864307852172853,7.93278Q27.642207852172852,7.94369,27.420907852172853,7.96547Q27.19950785217285,7.98726,26.97960785217285,8.01987Q26.759607852172852,8.05248,26.54150785217285,8.09584Q26.323307852172853,8.1392,26.10760785217285,8.19321Q25.89190785217285,8.24721,25.67910785217285,8.31173Q25.466307852172854,8.37625,25.25690785217285,8.45112Q25.04750785217285,8.526,24.842007852172852,8.61106Q24.63660785217285,8.69611,24.43550785217285,8.79114Q24.234507852172854,8.88617,24.038407852172853,8.99094Q23.84220785217285,9.09571,23.651507852172852,9.20997Q23.460707852172852,9.32424,23.275807852172854,9.44772Q23.09090785217285,9.5712,22.91230785217285,9.7036Q22.733707852172852,9.836,22.56180785217285,9.977Q22.38980785217285,10.118,22.22510785217285,10.2673Q22.06030785217285,10.4165,21.903007852172852,10.5737Q21.745807852172852,10.7308,21.596407852172852,10.8955Q21.447107852172852,11.0602,21.30601785217285,11.232Q21.16493785217285,11.4038,21.032457852172854,11.5823Q20.899977852172853,11.7609,20.77642785217285,11.9457Q20.65287785217285,12.1305,20.53853785217285,12.3211Q20.424207852172852,12.5117,20.31937785217285,12.7078Q20.21454785217285,12.9038,20.11945785217285,13.1047Q20.02437785217285,13.3056,19.93927785217285,13.511Q19.85416785217285,13.7163,19.77924785217285,13.9256Q19.704327852172852,14.1348,19.639767852172852,14.3475Q19.57521785217285,14.5602,19.52117785217285,14.7758Q19.467137852172854,14.9914,19.42375785217285,15.2094Q19.380367852172853,15.4274,19.347737852172852,15.6472Q19.31510785217285,15.8671,19.293307852172852,16.0883Q19.271517852172853,16.3095,19.26059785217285,16.5315Q19.24968785217285,16.7534,19.24968785217285,16.9757Q19.24968785217285,17.198,19.26059785217285,17.4199Q19.271517852172853,17.6419,19.293307852172852,17.8631Q19.31510785217285,18.0843,19.347737852172852,18.3042Q19.380367852172853,18.524,19.42375785217285,18.742Q19.467137852172854,18.96,19.52117785217285,19.1756Q19.57521785217285,19.3912,19.639767852172852,19.6039Q19.704327852172852,19.8166,19.77924785217285,20.0258Q19.85416785217285,20.2351,19.93927785217285,20.4404Q20.02437785217285,20.6458,20.11945785217285,20.8467Q20.21454785217285,21.0476,20.31937785217285,21.2436Q20.424207852172852,21.4397,20.53853785217285,21.6303Q20.652867852172854,21.8209,20.77642785217285,22.0057Q20.899977852172853,22.1905,21.032457852172854,22.3691Q21.16493785217285,22.5476,21.30601785217285,22.7194Q21.447107852172852,22.8912,21.596407852172852,23.0559Q21.745807852172852,23.2206,21.903007852172852,23.3777Q22.06030785217285,23.5349,22.22510785217285,23.6841Q22.38980785217285,23.8334,22.56180785217285,23.9744Q22.733707852172852,24.1154,22.91230785217285,24.2478Q23.09090785217285,24.3802,23.275807852172854,24.5037Q23.460707852172852,24.6272,23.651507852172852,24.7414Q23.84220785217285,24.8557,24.038407852172853,24.9605Q24.234507852172854,25.0652,24.43550785217285,25.1603Q24.63660785217285,25.2553,24.842007852172852,25.3403Q25.04750785217285,25.4254,25.25690785217285,25.5003Q25.466307852172854,25.5751,25.67910785217285,25.6397Q25.89190785217285,25.7042,26.10760785217285,25.7582Q26.323307852172853,25.8122,26.54150785217285,25.8556Q26.759607852172852,25.8989,26.97960785217285,25.9315Q27.19950785217285,25.9641,27.420907852172853,25.9859Q27.642207852172852,26.0077,27.864307852172853,26.0186Q28.08640785217285,26.0295,28.30880785217285,26.0295Z" fill-rule="evenodd" fill="#FFFFFF" fill-opacity="1"/></g><g><path d="M48.40111925537109,25.9345C46.6545592553711,28.7442,44.1281892553711,30.9773,41.13857025537109,32.3674C40.809293355371096,32.5205,40.80285955537109,32.9973,41.148008255371096,33.1102C42.85116925537109,33.6671,44.633849255371096,33.9518,46.43009925537109,33.9518C55.81114925537109,33.9518,63.41594925537109,26.3515,63.41594925537109,16.9759C63.41594925537109,7.60038,55.81114925537109,0,46.43009925537109,0C44.633849255371096,0,42.85116925537109,0.28473,41.148003255371094,0.84167C40.802854855371095,0.954534,40.809236655371095,1.4313,41.13851425537109,1.58441C44.127979255371095,2.97445,46.65424925537109,5.2074,48.4007992553711,8.01679C48.45752925537109,8.10805,48.54762925537109,8.17226,48.651799255371095,8.19859C52.664849255371095,9.21281,55.488249255371095,12.8245,55.488249255371095,16.9757C55.488249255371095,21.1268,52.66494925537109,24.7384,48.652109255371094,25.7527C48.54793925537109,25.7791,48.457849255371094,25.8433,48.40111925537109,25.9345" fill-rule="evenodd" fill="#FFFFFF" fill-opacity="1"/></g><g><path d="M54.902019732177735,59.98156857299804L62.27868173217773,59.98156857299804C69.15403173217774,59.98156857299804,74.72773173217773,54.407968572998044,74.72773173217773,47.532568572998045C74.72773173217773,40.65717857299805,69.15403173217774,35.08356857299805,62.27868173217773,35.08356857299805L54.90232573217774,35.08356857299805C54.468733672177734,35.08356857299805,54.30859473217773,35.74123857299805,54.67780273217773,35.96858757299805C57.55942173217773,37.74301857299805,59.69353173217773,40.543918572998045,60.624591732177734,43.83712857299805C60.67421173217773,44.012648572998046,60.83319173217774,44.13727857299805,61.01559173217773,44.13727857299805L62.83895173217773,44.13727857299805C65.02653173217773,44.13727857299805,66.80003173217773,45.91066857299805,66.80003173217773,48.09836857299805C66.80003173217773,50.285968572998044,65.02653173217773,52.059368572998046,62.83895173217773,52.059368572998046L60.643151732177735,52.059368572998046C60.473631732177736,52.059368572998046,60.323961732177736,52.163968572998044,60.264171732177736,52.32256857299805C59.20087173217773,55.14376857299804,57.23506173217773,57.51576857299805,54.696428732177736,59.084768572998044C54.327586732177735,59.312768572998046,54.468418602177735,59.98156857299804,54.902019732177735,59.98156857299804" fill-rule="evenodd" fill="#FFFFFF" fill-opacity="1"/></g><g><path d="M12.449,35.08356857299805Q12.1434,35.08356857299805,11.8382,35.09856397299804Q11.5329,35.113559272998046,11.2288,35.14351397299804Q10.9247,35.17346857299805,10.6224,35.21831057299805Q10.3201,35.26315157299805,10.0203,35.32277257299805Q9.72059,35.38239357299805,9.42414,35.456649572998046Q9.1277,35.530905572998044,8.83525,35.61961857299805Q8.5428,35.70833157299805,8.25506,35.81128657299805Q7.96732,35.91424257299805,7.68498,36.031192572998044Q7.40264,36.14813857299805,7.12637,36.278808572998045Q6.85011,36.409468572998044,6.58059,36.55352857299805Q6.31107,36.69758857299804,6.04894,36.85470857299805Q5.78681,37.011818572998045,5.53271,37.181608572998044Q5.27861,37.35138857299805,5.03314,37.533438572998044Q4.78768,37.71548857299805,4.55144,37.909358572998045Q4.3152,38.103238572998045,4.08877,38.308468572998045Q3.86233,38.513698572998045,3.64623,38.72979857299805Q3.43013,38.94589857299805,3.2249,39.172338572998044Q3.01967,39.398768572998044,2.82579,39.635008572998046Q2.63192,39.87124857299805,2.44987,40.11670857299805Q2.26782,40.36217857299805,2.09804,40.61627857299805Q1.92825,40.87037857299805,1.77114,41.13250857299805Q1.61402,41.39463857299805,1.46996,41.66415857299805Q1.3259,41.93367857299805,1.19524,42.20993857299805Q1.06457,42.486208572998045,0.947624,42.76854857299805Q0.830674,43.05088857299805,0.727718,43.33862857299805Q0.624763,43.62636857299805,0.53605,43.91881857299805Q0.447337,44.21126857299805,0.373081,44.50770857299805Q0.298825,44.80415857299805,0.239204,45.103868572998046Q0.179583,45.40366857299804,0.134742,45.705968572998046Q0.0899,46.00826857299805,0.0599454,46.31236857299805Q0.0299907,46.616468572998045,0.0149954,46.92176857299805Q0,47.22696857299805,0,47.532568572998045Q0,47.83816857299804,0.0149954,48.143468572998046Q0.0299907,48.448668572998045,0.0599454,48.75276857299805Q0.0899,49.056968572998045,0.134742,49.35926857299805Q0.179583,49.66156857299805,0.239204,49.96126857299805Q0.298825,50.260968572998046,0.373081,50.55746857299805Q0.447337,50.853868572998046,0.53605,51.14636857299804Q0.624763,51.43876857299804,0.727718,51.72656857299805Q0.830674,52.01426857299805,0.947624,52.29656857299805Q1.06457,52.57896857299805,1.19524,52.855168572998046Q1.3259,53.131468572998045,1.46996,53.400968572998046Q1.61402,53.67046857299805,1.77114,53.93266857299805Q1.92825,54.19476857299804,2.09804,54.44886857299805Q2.26782,54.702968572998046,2.44987,54.948468572998046Q2.63192,55.19386857299804,2.82579,55.43016857299804Q3.01967,55.666368572998046,3.2249,55.89276857299805Q3.43013,56.119268572998045,3.64623,56.33536857299805Q3.86233,56.55146857299805,4.08877,56.75666857299805Q4.3152,56.96186857299804,4.55144,57.15576857299804Q4.78768,57.34966857299805,5.03314,57.53166857299804Q5.27861,57.71376857299805,5.53271,57.883568572998044Q5.78681,58.053368572998046,6.04894,58.210468572998046Q6.31107,58.367568572998046,6.58059,58.51166857299805Q6.85011,58.655668572998046,7.12637,58.78636857299804Q7.40264,58.916968572998044,7.68498,59.03396857299805Q7.96732,59.15086857299805,8.25506,59.253868572998044Q8.5428,59.356868572998046,8.83525,59.44556857299804Q9.1277,59.534268572998045,9.42414,59.60846857299805Q9.72059,59.68276857299804,10.0203,59.742368572998046Q10.3201,59.80196857299805,10.6224,59.84686857299805Q10.9247,59.89166857299804,11.2288,59.921668572998044Q11.5329,59.95156857299804,11.8382,59.96656857299804Q12.1434,59.98156857299804,12.449,59.98156857299804L44.1705,59.98156857299804Q44.4761,59.98156857299804,44.7814,59.96656857299804Q45.0866,59.95156857299804,45.3907,59.921668572998044Q45.6949,59.89166857299804,45.9972,59.84686857299805Q46.2995,59.80196857299805,46.5992,59.742368572998046Q46.8989,59.68276857299804,47.1954,59.60846857299805Q47.4918,59.534268572998045,47.7843,59.44556857299804Q48.0767,59.356868572998046,48.3645,59.253868572998044Q48.6522,59.15086857299805,48.9346,59.03396857299805Q49.2169,58.916968572998044,49.4932,58.78636857299804Q49.7694,58.655668572998046,50.039,58.51166857299805Q50.3085,58.367568572998046,50.5706,58.210468572998046Q50.8327,58.053368572998046,51.0868,57.883568572998044Q51.3409,57.71376857299805,51.5864,57.53166857299804Q51.8319,57.34966857299805,52.0681,57.15576857299804Q52.3043,56.96186857299804,52.5308,56.75666857299805Q52.7572,56.55146857299805,52.9733,56.33536857299805Q53.1894,56.119268572998045,53.3946,55.89276857299805Q53.5999,55.666368572998046,53.7937,55.43016857299804Q53.9876,55.19386857299804,54.1697,54.948468572998046Q54.3517,54.702968572998046,54.5215,54.44886857299805Q54.6913,54.19476857299804,54.8484,53.93266857299805Q55.0055,53.67046857299805,55.1496,53.400968572998046Q55.2936,53.131468572998045,55.4243,52.855168572998046Q55.555,52.57896857299805,55.6719,52.29656857299805Q55.7889,52.01426857299805,55.8918,51.72656857299805Q55.9948,51.43876857299804,56.0835,51.14636857299804Q56.1722,50.853868572998046,56.2465,50.55746857299805Q56.3207,50.260968572998046,56.3803,49.96126857299805Q56.4399,49.66156857299805,56.4848,49.35926857299805Q56.5296,49.056968572998045,56.5596,48.75276857299805Q56.5895,48.448668572998045,56.6045,48.143468572998046Q56.6195,47.83816857299804,56.6195,47.532568572998045Q56.6195,47.22696857299805,56.6045,46.92176857299805Q56.5895,46.616468572998045,56.5596,46.31236857299805Q56.5296,46.00826857299805,56.4848,45.705968572998046Q56.4399,45.40366857299804,56.3803,45.103868572998046Q56.3207,44.80415857299805,56.2465,44.50770857299805Q56.1722,44.21126857299805,56.0835,43.91881857299805Q55.9948,43.62636857299805,55.8918,43.33862857299805Q55.7889,43.05088857299805,55.6719,42.76854857299805Q55.555,42.486208572998045,55.4243,42.20993857299805Q55.2936,41.93367857299805,55.1496,41.66415857299805Q55.0055,41.39463857299805,54.8484,41.13250857299805Q54.6913,40.87037857299805,54.5215,40.61627857299805Q54.3517,40.36217857299805,54.1697,40.11670857299805Q53.9876,39.87124857299805,53.7937,39.635008572998046Q53.5999,39.398768572998044,53.3946,39.172338572998044Q53.1894,38.94589857299805,52.9733,38.72979857299805Q52.7572,38.513698572998045,52.5308,38.308468572998045Q52.3043,38.103238572998045,52.0681,37.909358572998045Q51.8319,37.71548857299805,51.5864,37.533438572998044Q51.3409,37.35138857299805,51.0868,37.181608572998044Q50.8327,37.011818572998045,50.5706,36.85470857299805Q50.3085,36.69758857299804,50.0389,36.55352857299805Q49.7694,36.409468572998044,49.4932,36.278808572998045Q49.2169,36.14813857299805,48.9346,36.031192572998044Q48.6522,35.91424257299805,48.3645,35.81128657299805Q48.0767,35.70833157299805,47.7843,35.61961857299805Q47.4918,35.530905572998044,47.1954,35.456649572998046Q46.8989,35.38239357299805,46.5992,35.32277257299805Q46.2995,35.26315157299805,45.9972,35.21831057299805Q45.6949,35.17346857299805,45.3907,35.14351397299804Q45.0866,35.113559272998046,44.7814,35.09856397299804Q44.4761,35.08356857299805,44.1705,35.08356857299805L12.449,35.08356857299805ZM11.8868,44.13727857299805Q11.6922,44.13727857299805,11.4986,44.156358572998045Q11.3049,44.175428572998044,11.1141,44.21338857299805Q10.9232,44.25135857299804,10.737,44.30783857299805Q10.5508,44.36432857299805,10.371,44.438798572998046Q10.1912,44.513268572998044,10.0196,44.60499857299805Q9.84799,44.69672857299805,9.68619,44.80483857299805Q9.52439,44.91294857299805,9.37397,45.036398572998046Q9.22354,45.15986857299805,9.08595,45.29746857299805Q8.94835,45.43506857299805,8.8249,45.585468572998046Q8.70145,45.735868572998044,8.59334,45.89766857299804Q8.48523,46.05946857299804,8.3935,46.23106857299805Q8.30176,46.402668572998046,8.2273,46.582468572998046Q8.15283,46.762268572998046,8.09634,46.948468572998046Q8.03986,47.134668572998045,8.00189,47.32556857299805Q7.96393,47.51646857299805,7.94485,47.71006857299805Q7.92578,47.90376857299805,7.92578,48.09836857299805Q7.92578,48.29296857299805,7.94485,48.486568572998046Q7.96393,48.680268572998045,8.00189,48.87106857299805Q8.03986,49.06196857299805,8.09634,49.24816857299805Q8.15283,49.434368572998046,8.2273,49.61416857299805Q8.30176,49.79396857299805,8.3935,49.965568572998045Q8.48523,50.13716857299805,8.59334,50.29896857299805Q8.70145,50.46076857299805,8.8249,50.61116857299805Q8.94835,50.761568572998044,9.08595,50.89916857299805Q9.22354,51.03676857299805,9.37397,51.16026857299805Q9.52439,51.283668572998046,9.68619,51.391768572998046Q9.84799,51.49996857299804,10.0196,51.591668572998046Q10.1912,51.68336857299805,10.371,51.75786857299805Q10.5508,51.83236857299805,10.737,51.888768572998046Q10.9232,51.945268572998046,11.1141,51.98326857299804Q11.3049,52.021268572998046,11.4986,52.040268572998045Q11.6922,52.059368572998046,11.8868,52.059368572998046L44.7308,52.059368572998046Q44.9254,52.059368572998046,45.1191,52.040268572998045Q45.3127,52.021268572998046,45.5036,51.98326857299804Q45.6944,51.945268572998046,45.8806,51.888768572998046Q46.0668,51.83236857299805,46.2466,51.75786857299805Q46.4264,51.68336857299805,46.598,51.591668572998046Q46.7696,51.49996857299804,46.9314,51.391768572998046Q47.0932,51.283668572998046,47.2437,51.16026857299805Q47.3941,51.03676857299805,47.5317,50.89916857299805Q47.6693,50.761568572998044,47.7927,50.61116857299805Q47.9162,50.46076857299805,48.0243,50.29896857299805Q48.1324,50.13716857299805,48.2241,49.965568572998045Q48.3159,49.79396857299805,48.3903,49.61416857299805Q48.4648,49.434368572998046,48.5213,49.24816857299805Q48.5778,49.06196857299805,48.6157,48.87106857299805Q48.6537,48.680268572998045,48.6728,48.486568572998046Q48.6919,48.29296857299805,48.6918,48.09836857299805Q48.6919,47.90376857299805,48.6728,47.71006857299805Q48.6537,47.51646857299805,48.6157,47.32556857299805Q48.5778,47.134668572998045,48.5213,46.948468572998046Q48.4648,46.762268572998046,48.3903,46.582468572998046Q48.3159,46.402668572998046,48.2241,46.23106857299805Q48.1324,46.05946857299804,48.0243,45.89766857299804Q47.9162,45.735868572998044,47.7927,45.585468572998046Q47.6693,45.43506857299805,47.5317,45.29746857299805Q47.3941,45.15986857299805,47.2437,45.036398572998046Q47.0932,44.91294857299805,46.9314,44.80483857299805Q46.7696,44.69672857299805,46.598,44.60499857299805Q46.4264,44.513268572998044,46.2466,44.438798572998046Q46.0668,44.36432857299805,45.8806,44.30783857299805Q45.6944,44.25135857299804,45.5036,44.21338857299805Q45.3127,44.175428572998044,45.1191,44.156358572998045Q44.9254,44.13727857299805,44.7308,44.13727857299805L11.8868,44.13727857299805Z" fill-rule="evenodd" fill="#FFFFFF" fill-opacity="1"/></g></g></svg>