<svg xmlns="http://www.w3.org/2000/svg" xmlns:xlink="http://www.w3.org/1999/xlink" fill="none" version="1.1" width="77.00257110595703" height="53.19121551513672" viewBox="0 0 77.00257110595703 53.19121551513672"><defs><clipPath id="master_svg0_436_02926"><rect x="0" y="0" width="77.00257110595703" height="53.19121551513672" rx="0"/></clipPath></defs><g clip-path="url(#master_svg0_436_02926)"><g><g><path d="M54.52935,45.742703125L55.86825,48.377303125Q56.85895,50.326603125,58.72275,51.470003125Q60.58645,52.613503125,62.77305,52.613503125L67.54655,52.613503125Q70.75485,52.613503125,73.02335,50.344903125Q75.29195,48.076303125,75.29185,44.868003125L75.29125,26.191703125Q75.29115,23.619503125,73.75225,21.558303125000002L61.25535,4.820126125Q60.15885,3.351463125,58.52035,2.530013125Q56.88195,1.708563125,55.04905,1.708563125L21.09465,1.708563125Q19.281750000000002,1.708563125,17.657049999999998,2.513223125Q16.03245,3.317883125,14.93375,4.760011125L2.16593,21.518603125Q0.58161,23.598203125,0.58161,26.212403125L0.58161,44.868203125Q0.58161,48.076403125,2.8501399999999997,50.345003125Q5.118676,52.613503125,8.32687,52.613503125L14.99585,52.613503125Q17.41755,52.613503125,19.40795,51.234003125Q21.39835,49.854403125,22.24835,47.586803125L22.93955,45.742703125L54.52935,45.742703125ZM62.86755,44.714203125L61.52865,42.079603125Q60.53795,40.130303125,58.67425,38.986903125Q56.81045,37.843403125,54.62385,37.843403125L22.83285,37.843403125Q20.41105,37.843403125,18.420749999999998,39.222903125Q16.43035,40.602503125,15.58035,42.870103125L14.88905,44.714203125L8.48089,44.714203125L8.48089,26.264403125L21.17095,9.607843125L54.97185,9.607843125L67.39195000000001,26.243103125L67.39255,44.714203125L62.86755,44.714203125Z" fill-rule="evenodd" fill="#FFFFFF" fill-opacity="1"/></g><g><path d="M56.750275,26.1509775Q56.904675,26.1072375,57.055175,26.0511675Q57.205575,25.9950875,57.350975,25.9270375Q57.496375,25.8589775,57.635775,25.7793975Q57.775175,25.6998175,57.907675,25.6092175Q58.040275,25.5186275,58.164975,25.4176175Q58.289775,25.3165975,58.405975,25.2058375Q58.522175,25.0950675,58.628975,24.9752675Q58.735875,24.8554675,58.832675,24.7274275Q58.929575,24.5993775,59.015675,24.4639275Q59.101875,24.3284675,59.176775,24.1864975Q59.251675,24.0445175,59.314875,23.8969575Q59.378075,23.7493875,59.429175,23.5971975Q59.480275,23.4449975,59.518775,23.2891745Q59.557375,23.1333515,59.583275,22.9749175Q59.609175,22.8164835,59.622175,22.6564765Q59.635075,22.4964695,59.635075,22.3359375Q59.635075,22.1411495,59.615975,21.9472995Q59.596875,21.7534495,59.558875,21.5624045Q59.520875,21.3713595,59.464375,21.1849575Q59.407875,20.9985575,59.333275,20.8185975Q59.258775,20.6386375,59.166975,20.4668475Q59.075075,20.2950575,58.966875,20.133097499999998Q58.858675,19.9711375,58.735075,19.8205675Q58.611475,19.6699975,58.473775,19.5322575Q58.336075,19.3945275,58.185475,19.2709475Q58.034875,19.1473775,57.872975,19.0391575Q57.710975,18.9309375,57.539175,18.8391175Q57.367375,18.747297500000002,57.187475,18.6727575Q57.007475,18.5982175,56.821075,18.5416675Q56.634675,18.4851275,56.443675,18.4471275Q56.252575,18.4091275,56.058775,18.3900275Q55.864875,18.3709375,55.670075,18.3709375Q55.026275,18.3709375,54.415575,18.5746475Q48.575075,20.3721775,45.055775,20.8384875Q42.692775,21.1515875,37.551474999999996,21.1515875Q33.116075,21.1515875,31.090435,20.8592075Q28.053545,20.4208675,22.950945,18.7200975Q22.30054,18.4862475,21.609375,18.4862475Q21.414587,18.4862475,21.220737,18.5053375Q21.026887,18.5244275,20.835842,18.5624275Q20.644797,18.6004275,20.458395,18.6569775Q20.271995,18.713517500000002,20.092035,18.7880575Q19.912075,18.8626075,19.740285,18.9544275Q19.568495,19.0462475,19.406534999999998,19.1544675Q19.244575,19.2626875,19.094005,19.3862575Q18.943435,19.5098275,18.805695,19.6475675Q18.667965,19.7852975,18.544385,19.9358775Q18.420815,20.0864475,18.312595,20.2484075Q18.204375,20.4103675,18.112555,20.5821575Q18.020735000000002,20.7539475,17.946195,20.9339075Q17.871655,21.1138675,17.815105,21.3002675Q17.758565,21.4866655,17.720565,21.6777105Q17.682565,21.8687555,17.663465,22.0626055Q17.644375,22.2564557,17.644375,22.4512435Q17.644375,22.6088925,17.656895,22.7660435Q17.669405,22.9231945,17.694365,23.0788565Q17.719315,23.2345175,17.756555,23.3877075Q17.793785,23.5408975,17.843065,23.6906475Q17.892345,23.8403975,17.953355000000002,23.9857575Q18.014365,24.1311175,18.086725,24.2711775Q18.159085,24.4112375,18.242345,24.5451175Q18.325595,24.678987499999998,18.419215,24.8058275Q18.512835,24.9326675,18.616225,25.0516775Q18.719615,25.1706875,18.832135,25.2811075Q18.944645,25.3915375,19.065575,25.4926775Q19.186505,25.5938175,19.315085,25.6850375Q19.443655,25.7762575,19.579065,25.8569875Q19.714485,25.937707500000002,19.855875,26.0074275Q19.997275,26.0771475,20.143755,26.1354275Q20.290235,26.1936975,20.440885,26.2401575Q26.219175,28.1661575,29.957864999999998,28.7057975Q31.726174999999998,28.9610275,33.734075000000004,29.0351575Q34.934675,29.0794875,37.551474999999996,29.0794875Q40.531675,29.0794875,41.886275,29.0338075Q44.132175000000004,28.9580675,46.097175,28.6976975Q50.273675,28.1443075,56.750275,26.1509775Z" fill-rule="evenodd" fill="#FFFFFF" fill-opacity="1"/></g></g></g></svg>