<svg xmlns="http://www.w3.org/2000/svg" xmlns:xlink="http://www.w3.org/1999/xlink" fill="none" version="1.1" width="79.265625" height="59.9814453125" viewBox="0 0 79.265625 59.9814453125"><g><g><rect x="3.9639506340026855" y="3.9639506340026855" width="71.33945560455322" height="52.05368137359619" rx="9.626737117767334" fill-opacity="0" stroke-opacity="1" stroke="#FFFFFF" fill="none" stroke-width="7.927901268005371"/></g><g><path d="M30.659085020141603,42.229596160888676Q30.9082150201416,42.38019616088867,31.174575020141603,42.49779616088867Q31.4409450201416,42.615296160888676,31.7201650201416,42.69779616088867Q31.999385020141602,42.78029616088867,32.286865020141605,42.826296160888674Q32.5743450201416,42.87239616088867,32.8653550201416,42.88119616088867Q33.1563750201416,42.890096160888675,33.4461250201416,42.86169616088867Q33.7358750201416,42.833196160888676,34.019605020141604,42.76789616088867Q34.3033350201416,42.702596160888675,34.576375020141604,42.60149616088867Q34.8494050201416,42.50039616088867,35.1072550201416,42.36519616088867L54.302405020141606,32.30009616088867Q54.5756050201416,32.15689616088867,54.8269050201416,31.977896160888672Q55.0782050201416,31.79889616088867,55.3029050201416,31.587596160888673Q55.527505020141604,31.37619616088867,55.721505020141606,31.136296160888673Q55.9155050201416,30.89639616088867,56.075105020141606,30.63239616088867Q56.234705020141604,30.36849616088867,56.3571050201416,30.08529616088867Q56.4795050201416,29.802096160888674,56.5624050201416,29.50489616088867Q56.645305020141606,29.20779616088867,56.6871050201416,28.90219616088867Q56.7289050201416,28.59649616088867,56.7289050201416,28.287996160888675Q56.7289050201416,27.979496160888672,56.6871050201416,27.673896160888674Q56.645305020141606,27.368196160888672,56.5624050201416,27.071096160888672Q56.4795050201416,26.773896160888672,56.3571050201416,26.49079616088867Q56.234705020141604,26.20759616088867,56.075105020141606,25.943596160888674Q55.9155050201416,25.67969616088867,55.721505020141606,25.439796160888672Q55.527505020141604,25.19989616088867,55.3029050201416,24.988496160888673Q55.0782050201416,24.77709616088867,54.8269050201416,24.598096160888673Q54.5756050201416,24.419196160888674,54.302405020141606,24.27589616088867L35.1072550201416,14.210802160888672Q34.8494050201416,14.075597160888671,34.576375020141604,13.974512160888672Q34.3033350201416,13.873426160888672,34.019605020141604,13.808122160888672Q33.7358750201416,13.742817660888672,33.4461250201416,13.714369960888671Q33.1563750201416,13.685922150888672,32.8653550201416,13.694798750888673Q32.5743450201416,13.703675360888672,32.286865020141605,13.749730260888672Q31.999385020141602,13.795785160888672,31.7201650201416,13.878260160888672Q31.4409450201416,13.960736160888672,31.174575020141603,14.078275160888673Q30.9082150201416,14.195814160888672,30.659085020141603,14.346483160888672Q30.409955020141602,14.497151160888672,30.1821550201416,14.678471160888671Q29.9543650201416,14.859786160888671,29.7516550201416,15.068776160888671Q29.548945020141602,15.277766160888671,29.374658020141602,15.510976160888672Q29.200368020141603,15.744196160888672,29.057365020141603,15.997806160888672Q28.9143610201416,16.25140616088867,28.8049980201416,16.521236160888673Q28.6956350201416,16.791056160888672,28.6217110201416,17.072666160888673Q28.547786720141602,17.354276160888674,28.5105181201416,17.643026160888674Q28.4732494351416,17.93177616088867,28.4732494351416,18.222926160888672L28.4732494351416,38.35309616088867Q28.4732494351416,38.64429616088867,28.5105181201416,38.93299616088867Q28.547786820141603,39.22179616088867,28.6217110201416,39.50339616088867Q28.6956350201416,39.78499616088867,28.8049980201416,40.05479616088867Q28.914362020141603,40.324596160888674,29.057365020141603,40.57819616088867Q29.200368020141603,40.83179616088867,29.374658020141602,41.06509616088867Q29.548945020141602,41.29829616088867,29.7516550201416,41.50729616088867Q29.9543650201416,41.71619616088867,30.1821550201416,41.89759616088867Q30.409955020141602,42.078896160888675,30.659085020141603,42.229596160888676ZM36.4494450201416,25.23299616088867C36.4494450201416,24.340696160888672,37.4333450201416,23.798896160888674,38.1874450201416,24.27589616088867L44.063505020141605,27.992796160888673C44.7620050201416,28.434596160888674,44.767305020141606,29.451696160888673,44.0733050201416,29.90069616088867L38.1973150201416,33.70329616088867C37.4437550201416,34.19089616088867,36.4494450201416,33.649996160888676,36.4494450201416,32.75249616088867L36.4494450201416,25.23299616088867Z" fill-rule="evenodd" fill="#FFFFFF" fill-opacity="1"/></g></g></svg>