<svg xmlns="http://www.w3.org/2000/svg" xmlns:xlink="http://www.w3.org/1999/xlink" fill="none" version="1.1" width="104" height="104" viewBox="0 0 104 104"><defs><linearGradient x1="0.5" y1="0" x2="0.5" y2="1" id="master_svg0_28_742"><stop offset="0.7142857182770967%" stop-color="#479EF4" stop-opacity="1"/><stop offset="100%" stop-color="#254AE2" stop-opacity="1"/></linearGradient></defs><g><g><rect x="0" y="0" width="104" height="104" rx="24" fill="url(#master_svg0_28_742)" fill-opacity="1"/></g><g><path d="M18.883544921875,73.22713125C18.883544921875,74.18513125,19.863680921875,74.83043125,20.743694921875,74.45193125L34.077044921875,68.71713125C34.566444921875004,68.50663125,34.883544921875,68.02503125,34.883544921875,67.49223125L34.883544921875,37.59180125C34.883544921875,37.05906125,34.566444921875004,36.57745125,34.077044921875,36.36696125L20.743694921875,30.63210925C19.863680921875,30.25360125,18.883544921875,30.89898125,18.883544921875,31.85695125L18.883544921875,73.22713125Z" fill="#69E3E2" fill-opacity="1"/></g><g><path d="M35.27361621020508,85.53909891052245Q35.42896521020508,85.62589891052247,35.60163421020508,85.66889891052246Q35.77430421020508,85.71189891052246,35.952204210205075,85.70809891052247Q36.130104210205076,85.70429891052247,36.300794210205076,85.65399891052246Q36.47147421020508,85.60369891052247,36.62299421020508,85.51039891052245L88.31623421020508,53.67689891052246Q88.46163421020508,53.58739891052246,88.57973421020507,53.46409891052246Q88.69783421020509,53.34089891052246,88.78113421020508,53.19179891052246Q88.86443421020508,53.042798910522464,88.90743421020508,52.87759891052246Q88.95043421020509,52.71229891052246,88.95043421020509,52.54159891052246Q88.95043421020509,52.37089891052246,88.90743421020508,52.205698910522464Q88.86443421020508,52.04039891052246,88.78113421020508,51.89139891052246Q88.69783421020509,51.742298910522464,88.57973421020507,51.61909891052246Q88.46163421020508,51.49579891052246,88.31623421020508,51.40629891052246L36.62299421020508,19.57279891052246Q36.47147421020508,19.479491910522462,36.300794210205076,19.42918571052246Q36.130104210205076,19.378879070522462,35.952204210205075,19.37509347052246Q35.77430421020508,19.37130787052246,35.60163421020508,19.41430831052246Q35.42896421020508,19.45730871052246,35.27361521020508,19.54408491052246Q35.11826621020508,19.630861910522462,34.99111021020508,19.755339910522462Q34.86395521020508,19.87981891052246,34.77389321020508,20.033285910522462Q34.68383171020508,20.186753910522462,34.63716771020508,20.35846791052246Q34.590503692605076,20.530178910522462,34.590503692605076,20.70812891052246L34.590503692605076,36.52169891052246L59.12173421020508,51.40149891052246Q59.26863421020508,51.49059891052246,59.38823421020508,51.61409891052246Q59.50773421020508,51.73759891052246,59.59203421020508,51.88729891052246Q59.67643421020507,52.03709891052246,59.71993421020508,52.20339891052246Q59.76353421020508,52.36959891052246,59.76353421020508,52.54149891052246Q59.76353421020508,52.713398910522464,59.71993421020508,52.87959891052246Q59.67643421020507,53.04589891052246,59.59203421020508,53.19559891052246Q59.50773421020508,53.34539891052246,59.38823421020508,53.46889891052246Q59.26863421020508,53.59239891052246,59.12173421020508,53.681498910522464L34.590503692605076,68.56119891052246L34.590503692605076,84.37509891052247Q34.590503692605076,84.55299891052246,34.63716781020508,84.72479891052247Q34.68383191020508,84.89649891052247,34.77389421020508,85.04989891052246Q34.863956210205075,85.20339891052247,34.99111121020508,85.32789891052246Q35.118267210205076,85.45239891052246,35.27361621020508,85.53909891052245Z" fill-rule="evenodd" fill="#FCFCFC" fill-opacity="1"/></g></g></svg>