<svg xmlns="http://www.w3.org/2000/svg" xmlns:xlink="http://www.w3.org/1999/xlink" fill="none" version="1.1" width="104" height="104.00000762939453" viewBox="0 0 104 104.00000762939453"><defs><clipPath id="master_svg0_544_18146"><rect x="0" y="0" width="104" height="104.00000762939453" rx="0"/></clipPath><linearGradient x1="0.5" y1="0" x2="0.5" y2="1" id="master_svg1_28_1814"><stop offset="0%" stop-color="#6AD04E" stop-opacity="1"/><stop offset="100%" stop-color="#4DA434" stop-opacity="1"/></linearGradient><linearGradient x1="0.5" y1="0" x2="0.08960279077291489" y2="0.7898917198181152" id="master_svg2_28_2110"><stop offset="0%" stop-color="#5590F4" stop-opacity="1"/><stop offset="100%" stop-color="#5590F4" stop-opacity="1"/></linearGradient></defs><g clip-path="url(#master_svg0_544_18146)"><g><g><rect x="0" y="0" width="104" height="104" rx="24.289371490478516" fill="url(#master_svg1_28_1814)" fill-opacity="1"/></g><g><g><path d="M15.457528011493682,51.18864818668365L26.914548011493682,50.56064818668365L26.900548011493683,50.306048186683654L15.443578011493683,50.93414818668366Q15.320468011493682,50.940948186683656,15.058128011493682,50.951648186683656Q14.218549011493684,50.98594818668366,13.767267011493683,51.055848186683654L14.753328011493682,43.74194818668366L18.087108011493683,45.11274818668365Q18.17912801149368,45.15104818668365,18.26293801149368,45.096148186683656Q18.347628011493683,45.04074818668366,18.347978011493684,44.939648186683655L18.392938011493683,31.569644886683655Q18.392678011493683,31.608645186683656,18.355848011493684,31.616873186683655L18.39505801149368,31.366061186683655Q18.350478011493685,31.359094186683656,18.308878011493682,31.366362186683656Q18.137998011493682,31.395641486683655,18.137998011493682,31.568224886683655L18.093368011493684,44.839648186683654L14.769018011493683,43.47274818668365Q14.675158011493682,43.433648186683655,14.600238011493683,43.47704818668365Q14.525520011493683,43.52024818668365,14.512472011493683,43.62034818668366L13.508431011493682,51.06754818668365Q13.493219011493682,51.17864818668366,13.574400111493683,51.256248186683656Q13.654824211493683,51.333048186683655,13.764252011493683,51.314448186683656Q14.202154011493683,51.24174818668365,15.068528011493683,51.20644818668366Q15.332788011493683,51.195648186683655,15.457528011493682,51.18864818668365Z" fill-rule="evenodd" fill="#FFFFFF" fill-opacity="1"/></g><g><path d="M15.094376618518066,52.61007620788574L24.903944918518064,52.62244820788574L24.904264918518066,52.36750620788574L16.979294918518065,52.35751120788574Q19.897384918518068,52.12223120788574,22.821864918518067,51.988091207885745Q23.085694918518065,51.975964207885745,23.706884918518064,51.934904207885744Q24.959834918518066,51.85208520788574,25.550764918518066,51.847283207885745L25.548764918518067,51.59234920788574Q24.95038491851807,51.59721120788574,23.69006491851807,51.680516807885745Q23.071434918518065,51.72140816788574,22.81018491851807,51.73341710788574Q19.384514918518065,51.890545207885744,15.967533918518066,52.18624720788574Q15.505208918518067,52.22637120788574,15.071696448518066,52.30919120788574L15.064779718518066,52.31051220788574L15.058050718518066,52.31258720788574Q14.938539918518066,52.34944420788574,14.951403918518066,52.47366920788574Q14.964235918518066,52.59747920788574,15.088330218518067,52.60949120788574L15.094376618518066,52.61007620788574Z" fill-rule="evenodd" fill="#FFFFFF" fill-opacity="1"/></g><g><path d="M19.09983276725769,53.61398595581055Q23.484002767257692,53.85881395581055,30.24512276725769,54.14073595581055L30.25572276725769,53.886017955810544Q23.49663276725769,53.604178955810546,19.11405276725769,53.359439955810544Q18.223302767257692,53.30941395581055,17.11984276725769,53.215363955810545L31.494522767257692,53.19260695581055L31.49412276725769,52.93766495581055L15.09562876725769,52.96362595581055Q14.99155876725769,52.96362595581055,14.95948876725769,53.058962385810545Q14.952680767257691,53.077830655810544,14.94706576725769,53.09676665581055Q14.92491376725769,53.15981985581055,14.96061876725769,53.21535695581055Q14.99651786725769,53.27119495581055,15.063915177257691,53.277247955810545Q17.44588276725769,53.52109695581055,19.09983276725769,53.61398595581055Z" fill-rule="evenodd" fill="#FFFFFF" fill-opacity="1"/></g><g><path d="M26.55830274609375,65.94860722961425L29.87900474609375,55.17914712961426L30.12262474609375,55.25426732961426L26.80192674609375,66.02370722961426L26.55830274609375,65.94860722961425Z" fill-rule="evenodd" fill="#FFFFFF" fill-opacity="1"/></g><g><path d="M13.13763311189041,54.11984884577637L13.08518101189041,54.37329054577637L13.334833011890412,54.42495854577637L13.37683201189041,54.222023545776366L24.223307011890412,54.96773354577637L23.75290701189041,63.597682545776365L24.00750701189041,63.61155254577637L24.480807011890413,54.927679545776364Q24.49140701189041,54.73003854577637,24.293607011890412,54.717020545776364L13.341515011890412,53.96405754577637Q13.16981231189041,53.95343454577637,13.13763311189041,54.11984884577637ZM13.386753011890411,54.17408664577637L13.38728501189041,54.17151644577637L13.386753011890411,54.17408664577637Z" fill-rule="evenodd" fill="#FFFFFF" fill-opacity="1"/></g><g><path d="M48.61065839538574,49.0569L49.27755839538574,41.115L49.02355839538574,41.0936L48.35665839538574,49.0356Q48.34935839538574,49.126599999999996,48.25565839538574,49.1316L42.40925839538574,49.458L43.749058395385745,44.2913Q43.77455839538574,44.189,43.70515839538574,44.1113Q43.63525839538574,44.0329,43.53125839538574,44.0478L41.39165839538574,44.3183Q41.164258395385744,44.3474,41.074358395385744,44.557900000000004L38.901458395385745,49.6451Q35.655728395385744,49.8106,32.43246839538574,50.0243Q32.03601839538574,50.051,31.66666839538574,50.0327L33.070328395385744,45.2123Q33.09755839538574,45.1209,33.03624839538574,45.0467Q32.97564839538574,44.9734,32.88071839538574,44.981700000000004L27.30549239538574,45.4183L28.037208395385743,37.95875L34.89593839538574,38.374430000000004Q35.06436839538574,38.38444,35.10481839538574,38.22093L36.90183839538574,31.0309085L36.65450839538574,30.9690915L34.86792839538574,38.11732L28.016149395385742,37.70207Q27.80704739538574,37.68988,27.786955395385743,37.89848L27.04142239538574,45.4989Q27.03366039538574,45.576,27.08797449538574,45.6314Q27.141657695385742,45.6862,27.219418795385742,45.6808L32.795548395385744,45.2441L31.392968395385743,50.0608Q31.370098395385742,50.1406,31.41816839538574,50.2084Q31.465718395385743,50.275400000000005,31.548198395385743,50.2812Q31.981348395385744,50.310199999999995,32.44934839538574,50.2787Q35.67467839538574,50.064800000000005,38.922858395385745,49.8993Q39.07335839538574,49.891400000000004,39.13205839538574,49.7541L41.30885839538574,44.658Q41.34135839538574,44.5817,41.42365839538574,44.5712L43.48045839538574,44.3112L42.139458395385745,49.482600000000005Q42.11615839538574,49.575500000000005,42.17745839538574,49.6493Q42.23815839538574,49.7222,42.33395839538574,49.7175L48.269558395385744,49.3862Q48.585558395385746,49.369,48.61065839538574,49.0569Z" fill-rule="evenodd" fill="#FFFFFF" fill-opacity="1"/></g><g><path d="M51.58917897866211,44.67969632995605L52.52581837866211,44.75511632995605L52.54628437866211,44.50099632995605L51.68216837866211,44.43141632995606L51.95373437866211,43.18776002995605L51.70466137866211,43.13337262995606L51.417280378662106,44.449476329956056Q51.39774437866211,44.541346329956056,51.44682847866211,44.60683632995605Q51.49544467866211,44.67170632995605,51.58917897866211,44.67969632995605Z" fill-rule="evenodd" fill="#FFFFFF" fill-opacity="1"/></g><g><path d="M73.70054061889648,69.85002790527344L73.64434061889648,67.31192790527344L73.38944061889649,67.31752790527344L73.44474061889649,69.81442790527343L66.66854061889649,69.81442790527343L68.75874061889648,55.37796790527344Q68.77374061889648,55.274117905273435,68.71684061889648,55.20576790527344Q68.65984061889648,55.13746790527344,68.55514061889649,55.133427905273436L64.33454061889648,54.95170790527344Q64.15686061889649,54.943197905273436,64.10785061889649,55.11445790527344L59.68332061889649,69.84532790527344L56.067352618896486,69.84532790527344L59.00171061889648,54.69532790527344L59.00180061889648,54.695077905273436Q60.67452061889649,53.85841790527344,61.616620618896484,53.19011790527344Q61.822930618896486,53.04422790527344,61.76116061889648,52.80624790527344Q61.71444061889648,52.62622790527344,61.537690618896484,52.49826790527344Q60.63107061889649,51.84998790527344,59.674850618896485,51.28453790527344L59.99350061889648,49.55988820527344L59.74280061889648,49.51356760527344L59.41937061889649,51.26407790527344Q59.39215061889649,51.41081790527344,59.521150618896485,51.489847905273436Q60.48044061889648,52.05569790527344,61.38819061889649,52.704767905273435Q61.49070061889648,52.77898790527344,61.51440061889649,52.87029790527344Q61.53191061889648,52.937777905273435,61.46911061889649,52.98217790527344Q60.542980618896486,53.639157905273436,58.88871061889648,54.466587905273435Q58.77385061889648,54.52343790527344,58.75142061889648,54.64684790527344L55.81158161889648,69.82512790527343Q55.788297618896486,69.94642790527344,55.853135918896484,70.02372790527343Q55.917259318896484,70.10022790527344,56.04042061889648,70.10022790527344L59.71954061889649,70.10022790527344Q59.87322061889648,70.10022790527344,59.91656061889648,69.95502790527344L64.34611061889649,55.207387905273436L68.49994061889649,55.38622790527344L66.40094061889648,69.88392790527344Q66.39004061889648,69.95822790527345,66.43984061889648,70.01442790527344Q66.48894061889648,70.07002790527343,66.56204061889649,70.06932790527344L73.48564061889648,70.06932790527344Q73.57574061889649,70.06932790527344,73.63884061889648,70.00502790527344Q73.70184061889648,69.94092790527344,73.70054061889648,69.85002790527344Z" fill-rule="evenodd" fill="#FFFFFF" fill-opacity="1"/></g><g><path d="M38.457365795288084,55.7623485505127L36.802631795288086,59.829778650512694L37.038779795288086,59.9258486505127L38.674685795288084,55.904697650512695L49.17030579528809,61.248728650512696Q49.194005795288085,61.260928650512696,49.20650579528809,61.2847286505127L53.56760579528809,69.81633865051269L47.271105795288086,69.8187386505127L47.27120579528808,70.0737386505127L53.651005795288086,70.0712386505127Q53.76480579528808,70.07063865051269,53.82450579528809,69.9740386505127Q53.884705795288085,69.8765386505127,53.832505795288085,69.77443865051269L49.43210579528809,61.16602865051269Q49.38220579528809,61.0711486505127,49.286005795288084,61.021538650512696L38.74532579528809,55.654579650512694Q38.663495795288085,55.613228650512696,38.57758579528809,55.6453556505127Q38.49116579528808,55.67767465051269,38.457365795288084,55.7623485505127Z" fill-rule="evenodd" fill="#FFFFFF" fill-opacity="1"/></g><g><path d="M36.409391032104494,55.504901229614255L30.009016802104494,55.08950322961426L29.99250526210449,55.34391122961426L36.30135103210449,55.75336822961426L35.20117103210449,58.32657722961426L35.435581032104494,58.426807229614255L36.57172103210449,55.769507229614256Q36.615871032104494,55.66804522961426,36.56720103210449,55.589620229614255Q36.519391032104494,55.51256822961426,36.409391032104494,55.504901229614255Z" fill-rule="evenodd" fill="#FFFFFF" fill-opacity="1"/></g><g><path d="M49.38287302246094,52.93766495581055L31.49433302246094,52.93766495581055L31.49433302246094,53.19260695581055L49.38287302246094,53.19260695581055Q49.63877302246094,53.19260695581055,49.656473022460936,53.54623695581055L49.65587302246094,53.549319955810546Q48.80977302246094,54.490835955810546,47.87657302246094,54.483045955810546Q45.88817302246094,54.46451595581055,43.900873022460935,54.379305955810544Q42.55227302246094,54.32136595581055,39.70626302246094,54.23847595581055Q36.743373022460936,54.15219595581055,35.70608302246094,54.096265955810544Q35.32603302246094,54.07573595581054,34.584003022460934,54.058663955810545Q33.68987302246094,54.03809795581055,33.26603302246094,54.006187955810546Q31.761673022460936,53.89334695581055,30.25110079546094,53.88590895581055L30.249845249460936,54.14084595581055Q31.751503022460938,54.148245955810545,33.24689302246094,54.26040595581055Q33.67737302246094,54.292815955810546,34.57813302246094,54.31353595581054Q35.316213022460936,54.33051595581055,35.692353022460935,54.350835955810545Q36.732823022460934,54.406935955810546,39.698843022460935,54.493315955810544Q42.54307302246094,54.576145955810546,43.889973022460936,54.63401595581055Q45.88157302246094,54.71941595581055,47.87447302246093,54.73797595581055Q48.92257302246094,54.74672595581055,49.84677302246094,53.71834595581055Q49.91837302246094,53.637449955810546,49.91107302246094,53.533512955810544Q49.88127302246094,52.93766495581055,49.38287302246094,52.93766495581055Z" fill-rule="evenodd" fill="#FFFFFF" fill-opacity="1"/></g><g><path d="M36.236944287109374,51.12878981750488L25.544264287109375,51.59363881750488L25.555337287109374,51.848340817504884L36.24804428710937,51.38349181750488Q36.446544287109376,51.37523481750488,37.08174428710937,51.36273481750488Q38.61314428710938,51.33259781750488,39.28734428710938,51.28563581750488Q41.05344428710937,51.160628817504886,44.62344428710938,51.073247817504885Q46.16364428710938,51.03554981750488,46.930644287109374,51.010179817504884Q47.948444287109375,50.97578381750488,48.439444287109374,51.104230817504884Q49.059344287109376,51.26639181750488,49.61104428710938,51.82079181750488Q49.843544287109374,52.053809817504884,49.68614428710937,52.275159817504885Q49.67544428710937,52.28971981750488,49.656744287109376,52.29398981750488Q49.632944287109375,52.29970981750488,49.58644428710937,52.31187981750488Q49.42604428710938,52.353839817504884,49.364144287109376,52.353839817504884L24.904066966609374,52.36867981750488L24.904221607609376,52.62361981750488L49.364144287109376,52.60877981750488Q49.45884428710937,52.60877981750488,49.650944287109375,52.55851981750488Q49.69514428710937,52.54696981750488,49.71354428710937,52.542529817504885Q49.824744287109375,52.51712981750488,49.89394428710938,52.42290981750488Q50.17614428710937,52.026099817504885,49.791744287109374,51.640968817504884Q49.19104428710938,51.03732781750488,48.50394428710938,50.85758791750488Q47.976944287109376,50.719731817504886,46.92224428710938,50.75537681750488Q46.15634428710938,50.780711017504885,44.61724428710937,50.818381717504884Q41.041344287109375,50.905906917504886,39.269544287109376,51.031309817504884Q38.601744287109376,51.07783081750488,37.07674428710938,51.107841817504884Q36.43874428710937,51.120395817504885,36.236944287109374,51.12878981750488Z" fill-rule="evenodd" fill="#FFFFFF" fill-opacity="1"/></g><g><path d="M25.746000366668703,31.364558756307602L18.3752703666687,31.364558756307602L18.3752703666687,31.619500756307602L25.6754803666687,31.619500756307602L24.655920366668703,47.4976297563076Q24.6469603666687,47.663329756307604,24.8029403666687,47.7187297563076L26.5766503666687,48.3323297563076L26.7805503666687,50.4456297563076L27.0343103666687,50.4211297563076L26.829430366668703,48.2976297563076Q26.8135403666687,48.1430297563076,26.666870366668704,48.0937297563076L24.912100366668703,47.486729756307604L25.9344303666687,31.565289656307602Q25.9393803666687,31.4838895763076,25.8838103666687,31.4243927563076Q25.8277003666687,31.3643057563076,25.746000366668703,31.364558756307602Z" fill-rule="evenodd" fill="#FFFFFF" fill-opacity="1"/></g><g><path d="M51.792185981445314,51.258968294677736L50.72438198144531,50.20072829467773Q50.65612028144531,50.134984294677736,50.665187481445315,50.05288729467773Q50.674119981445315,49.972011294677735,50.75351098144531,49.921995294677735Q51.77437598144531,49.277655294677736,52.926635981445315,49.540969794677736Q54.07582598144531,49.80358229467773,54.716795981445316,50.822208294677736Q57.69224598144531,50.881858294677734,60.01918598144531,52.68411829467773Q60.09520598144531,52.74205829467773,60.09520598144531,52.837428294677736Q60.09520598144531,52.932808294677734,60.01923598144531,52.990698294677735Q57.683665981445316,54.77240829467773,54.71170598144531,54.855178294677735Q54.70619598144531,54.855288294677734,54.70171598144531,54.86066829467774Q54.08988598144531,55.585208294677734,53.54503598144531,55.86722829467774Q52.89179598144531,56.205348294677734,51.99310598144531,56.12687829467774Q51.294822981445314,56.06580829467774,50.759770981445314,55.69268829467774Q50.67912968144531,55.636338294677735,50.671769381445316,55.55199829467773Q50.66446008144531,55.46823829467773,50.734368981445314,55.397468294677736L51.74258598144531,54.399388294677735L50.618681581445315,53.92847829467773Q50.46928498144531,53.867738294677736,50.46928598144531,53.70609829467774L50.47552798144531,51.93863829467774Q50.47552798144531,51.798768294677735,50.605852691445314,51.74527829467773L51.792185981445314,51.258968294677736ZM52.05350598144531,51.159018294677736L50.972058981445315,50.08728929467773Q51.867175981445314,49.56037709467773,52.86983598144531,49.78950529467773Q53.91759598144531,50.02894029467773,54.50264598144531,50.960568294677735Q54.574285981445314,51.074528294677734,54.709205981445315,51.07704829467774Q57.56042598144531,51.13348829467773,59.79973598144531,52.83705829467773Q57.553225981445316,54.521008294677735,54.70675598144531,54.60028829467773Q54.584875981445315,54.60265829467774,54.50693598144531,54.696178294677736Q53.927755981445316,55.382058294677734,53.427845981445316,55.640818294677736Q52.84028598144531,55.94493829467773,52.01531598144531,55.87289829467773Q51.425121981445315,55.821288294677736,50.967648981445315,55.52526829467774L52.00734598144531,54.49601829467773Q52.07429598144531,54.43028829467774,52.056315981445316,54.338318294677734Q52.038425981445315,54.246768294677736,51.95231598144531,54.210838294677735L50.72426398144531,53.69631829467774L50.73035998144531,51.969768294677735L51.99706598144531,51.45050829467773Q52.09558598144531,51.409438294677734,52.11275598144531,51.321828294677736Q52.13006598144531,51.23350829467773,52.05350598144531,51.159018294677736ZM50.90235298144531,50.018210294677736L50.90123598144531,50.01710329467773L50.90235298144531,50.018210294677736Z" fill-rule="evenodd" fill="#FFFFFF" fill-opacity="1"/></g><g><path d="M57.08519673706055,59.424177037353516Q57.109966737060546,59.293977037353514,56.995846737060546,59.22499703735352L56.994006737060545,59.22390703735351L53.874376737060544,57.40901603735352Q53.74752673706055,57.33766203735352,53.644276737060544,57.43741143735352L50.19096543706055,60.79047703735352Q50.088974737060546,60.892297037353515,50.156194737060545,61.017607037353514L54.78946673706055,69.86720703735352Q54.85106673706055,69.99040703735352,54.98841673706055,69.97100703735352Q55.127196737060544,69.95130703735352,55.15100673706055,69.81370703735351L57.08519673706055,59.424177037353516ZM56.826406737060545,59.42134703735351L53.78767673706055,57.653523037353516L50.40319373706055,60.939757037353516L54.933026737060544,69.59170703735352L56.826406737060545,59.42134703735351Z" fill-rule="evenodd" fill="#FFFFFF" fill-opacity="1"/></g><g><path d="M60.56944777709961,45.261668423156735L59.74318777709961,49.51306842315674L59.99344777709961,49.56169842315674L60.82767777709961,45.26926842315674Q60.84557777709961,45.17178842315674,60.78544777709961,45.094498423156736Q60.725837777099606,45.01786842315674,60.62877777709961,45.01030842315674L57.67847377709961,44.80047842315674L58.74621777709961,40.31428642315674L59.23899777709961,40.25060842315674L59.206317777099606,39.997768423156735L58.69837777709961,40.06341292315674Q58.54028777709961,40.084999823156735,58.50169977709961,40.24055742315674L57.41306977709961,44.81459842315674Q57.39129477709961,44.90136842315674,57.44516907709961,44.97324842315674Q57.49743957709961,45.04299842315674,57.58511047709961,45.04941842315674L60.56944777709961,45.261668423156735Z" fill-rule="evenodd" fill="#FFFFFF" fill-opacity="1"/></g><g><path d="M53.081272623291014,36.878291621344L51.705039623291015,43.132736721343996L51.95402562329102,43.18752672134399L53.305152623291015,37.047176721343995L57.88637262329102,40.180906721343995L56.798682623291015,44.79047672134399L52.545054623291016,44.50044672134399L52.527712623291016,44.75479672134399L56.823822623291015,45.047716721343996Q56.99570262329102,45.061056721343995,57.03643262329101,44.89302672134399L58.14244262329102,40.20567672134399Q58.176932623291016,40.069096721343996,58.060842623291016,39.991366721343994L53.35174262329102,36.770176821343995Q53.274682623291014,36.71844772134399,53.188342623291014,36.752634721343995Q53.10128262329101,36.78710892134399,53.081272623291014,36.878291621344ZM57.894652623291016,40.14579672134399L57.895252623291015,40.143256721343995L57.894652623291016,40.14579672134399Z" fill-rule="evenodd" fill="#FFFFFF" fill-opacity="1"/></g><g><path d="M46.32873246582031,32.23993L36.79623576582031,30.873818L36.76006916582031,31.126182L46.21510246582031,32.48119L43.67907246582031,38.55413Q43.636122465820314,38.6574,43.685482465820314,38.73559Q43.73468246582031,38.81351,43.84600246582031,38.81955L49.16145246582031,39.04216Q49.17585246582031,39.042680000000004,49.18475246582031,39.05254Q49.193052465820315,39.06181,49.19205246582031,39.073949999999996L49.023552465820316,41.0937L49.277552465820314,41.1149L49.44615246582031,39.094390000000004Q49.45595246582031,38.97288,49.37425246582031,38.88204Q49.29305246582031,38.79177,49.17215246582031,38.787440000000004L43.94926246582031,38.56873L46.48077246582031,32.5066Q46.51744246582031,32.41856,46.46998246582031,32.33579Q46.422952465820316,32.25376,46.32873246582031,32.23993Z" fill-rule="evenodd" fill="#FFFFFF" fill-opacity="1"/></g><g><path d="M77.81774645019532,38.71735924972534L87.80233645019531,40.108199249725345L87.83753645019532,39.855689249725344L77.85291645019531,38.46485924972534Q77.65699645019531,38.43746924972534,77.56698645019532,38.61340924972534L76.32995645019531,41.06994924972534L73.71451545019531,39.66949924972534L75.13111645019531,33.284077449725345L74.88222645019532,33.22886104972534L73.45346745019532,39.66907924972534Q73.42414645019531,39.80293924972534,73.5452931501953,39.86807924972534L76.2327864501953,41.30710924972534Q76.31761645019532,41.35256924972534,76.40954645019531,41.323879249725344Q76.5019064501953,41.29504924972534,76.5454664501953,41.208819249725344L77.79395645019531,38.72951924972534Q77.80134645019531,38.71506924972534,77.81774645019532,38.71735924972534Z" fill-rule="evenodd" fill="#FFFFFF" fill-opacity="1"/></g><g><path d="M78.87779685302735,55.26088175506592L78.50979685302734,61.658981755065916L78.76431685302734,61.67358175506592L79.13273685302734,55.26838175506592Q79.13974685302735,55.15268175506592,79.07359685302734,55.08098175506592Q79.00789685302735,55.00968175506592,78.89186685302734,55.00628175506592L74.92430785302734,54.90518175506592L74.92430785302734,50.59782175506592L80.29178685302735,50.59782175506592Q80.42447685302734,50.59767175506592,80.49976685302734,50.490441755065916L82.47301685302735,47.67530175506592Q82.53909685302735,47.57791175506592,82.48212685302734,47.47756175506592Q82.42432685302734,47.37561175506592,82.30742685302734,47.384801755065915L74.92430785302734,47.80592175506592L74.92430785302734,42.036461755065915L87.93843685302734,43.03249175506592L87.93843685302734,48.33107175506592L85.15423685302734,50.27559175506592Q85.04693685302735,50.351021755065915,85.08813685302735,50.47529175506592Q85.12773685302734,50.594531755065915,85.25393685302734,50.59778175506592L85.25563685302734,50.59782175506592L90.86463685302735,50.59782175506592L90.36123685302735,55.355681755065916L84.07739685302734,55.15458175506592Q83.98714685302734,55.15288175506592,83.93348685302735,55.20938175506592Q83.87939685302734,55.266181755065915,83.88628685302734,55.35498175506592L84.31337685302735,60.95768175506592L84.56757685302735,60.938281755065915L84.14630685302734,55.41188175506592L90.40523685302735,55.61218175506592Q90.59163685302734,55.61918175506592,90.60923685302734,55.43518175506592L91.12633685302734,50.54696175506592Q91.13493685302734,50.45840175506592,91.08203685302735,50.40047175506592Q91.02943685302735,50.34288175506592,90.94073685302735,50.34288175506592L85.50313685302734,50.34288175506592L88.08683685302734,48.53837175506592Q88.19333685302735,48.46334175506592,88.19333685302735,48.33402175506592L88.19333685302735,42.99938175506592Q88.19333685302735,42.79849475506592,87.99073685302734,42.78079975506592L74.87359515302734,41.77689375506592Q74.78498945302735,41.77039575506592,74.72756075302735,41.82303795506592Q74.66936585302734,41.87638285506592,74.66936585302734,41.96583825506592L74.66936585302734,47.87659175506592Q74.66936585302734,47.96415175506592,74.72612415302734,48.01709175506592Q74.78219315302735,48.069391755065915,74.86903905302735,48.06443175506592L82.18130685302734,47.64730175506592L80.29112685302735,50.34394175506592L80.29178685302735,50.34288175506592L74.85927955302735,50.34288175506592Q74.66936585302734,50.34288175506592,74.66936585302734,50.532161755065914L74.66936585302734,54.917281755065915Q74.66930785302735,55.154681755065916,74.90723085302734,55.15968175506592L78.87779685302735,55.26088175506592ZM82.32325685302735,47.63920175506592L82.32742685302735,47.63896175506592L82.32325685302735,47.63920175506592Z" fill-rule="evenodd" fill="#FFFFFF" fill-opacity="1"/></g><g><path d="M62.87118791137695,39.74850852722168L59.21419229137695,39.99681852722168L59.23146353137695,40.25117852722168L62.909327911376955,40.00144852722168Q63.030117911376955,39.99315852722168,63.09011791137695,39.91445852722168Q63.15064791137695,39.835058527221676,63.12524791137695,39.71650852722168L61.80804791137695,33.81528052722168L69.95992791137695,33.81528952722168L68.28225791137696,39.42854852722168Q68.25541791137695,39.51780852722168,68.31526791137695,39.59004852722168Q68.37265791137695,39.65932852722168,68.46292791137695,39.65412852722168L73.09982791137695,39.33883852722168L71.69792791137695,46.08781852722168L67.05941791137695,45.629718527221684Q66.85782791137696,45.61121852722168,66.80204791137696,45.80401852722168L65.47459791137695,50.35331852722168Q65.44840791137695,50.445818527221675,65.50536791137695,50.52171852722168Q65.56290791137695,50.59851852722168,65.65873791137696,50.59801852722168L73.08772791137696,50.59811852722168L73.14242791137696,57.12791852722168L73.39742791137695,57.12581852722168L73.34242791137696,50.573218527221684Q73.34242791137696,50.477518527221676,73.27432791137696,50.41001852722168Q73.20672791137696,50.34311852722168,73.11132791137695,50.34311852722168L65.74313791137695,50.34311852722168L67.04415791137696,45.88441852722168L71.71782791137696,46.34591852722168Q71.90242791137695,46.36201852722168,71.93852791137695,46.18311852722168L73.35352791137696,39.37098852722168Q73.38142791137696,39.23634852722168,73.30972791137695,39.15488852722168Q73.23852791137695,39.074068527221684,73.10142791137696,39.08319852722168L68.55924791137696,39.39205852722168L70.20642791137695,33.88081652722168Q70.24762791137695,33.74070882722168,70.17922791137696,33.65022192722168Q70.11132791137695,33.56034752722168,69.96542791137695,33.56034752722168L61.68903791137695,33.56035652722168Q61.61239791137695,33.56127352722168,61.56473791137695,33.621164827221676Q61.51649791137695,33.68178537722168,61.533677911376955,33.75638612722168L62.87118791137695,39.74850852722168Z" fill-rule="evenodd" fill="#FFFFFF" fill-opacity="1"/></g><g><path d="M75.26420591503906,31.545084904427338L74.88205691503906,33.22768760442734L75.13066891503907,33.284157604427335L75.50626391503906,31.63040260442734L80.99090291503906,31.908339604427336L79.89440291503907,34.063527604427335Q79.84127291503906,34.16895760442734,79.91275291503906,34.26238760442734Q79.98333291503906,34.354697604427336,80.09779291503907,34.33314760442734L87.93816291503906,32.94794760442734L87.93816291503906,39.886007604427334Q87.90666291503906,39.87912760442734,87.86746291503906,39.863247604427336L87.77176291503906,40.099547604427336Q87.91136291503906,40.15608760442734,88.02336291503906,40.143957604427335Q88.19306291503906,40.125287604427335,88.19306291503906,39.95543760442734L88.19306291503906,32.887467604427336Q88.19306291503906,32.791677604427335,88.11906291503907,32.73048760442734Q88.04586291503907,32.669877604427334,87.95226291503906,32.68656760442734L80.18260291503907,34.05928760442734L81.24077291503906,31.97941960442734Q81.30518291503907,31.851887604427336,81.24975291503907,31.757343604427337Q81.19464291503907,31.663347604427337,81.05226291503907,31.656180604427337L75.48952491503906,31.374286604427336Q75.30584691503907,31.365488604427338,75.26420591503906,31.545084904427338Z" fill-rule="evenodd" fill="#FFFFFF" fill-opacity="1"/></g><g><path d="M73.38945598803711,67.31836838378906L73.14218498803712,57.13006118378906L73.3970529880371,57.123875583789065L73.6443229880371,67.31226838378906L73.38945598803711,67.31836838378906Z" fill-rule="evenodd" fill="#FFFFFF" fill-opacity="1"/></g><g><path d="M78.32063066503906,69.81505101501465L78.76450566503907,61.67366101501465L78.50994166503907,61.65978201501465L78.06284966503907,69.86017101501464Q78.05821966503906,69.95344101501465,78.11443806503907,70.01197101501465Q78.17016896503907,70.06999101501465,78.26256756503906,70.06999101501465L85.03509666503906,70.06999101501465Q85.13400666503907,70.06999101501465,85.19206666503906,70.00809101501464Q85.25054666503907,69.94575101501465,85.24341666503906,69.84680101501465L84.56774666503907,60.938790085014645L84.31353666503907,60.95807194501465L84.98532666503907,69.81505101501465L78.32063066503906,69.81505101501465Z" fill-rule="evenodd" fill="#FFFFFF" fill-opacity="1"/></g><g><path d="M23.663800000000002,69.85282578430176L24.007199999999997,63.610725784301756L23.7526,63.59671578430176L23.410800000000002,69.81012578430176L18.02085,69.87112578430175L18.17523,55.26003678430176Q18.177419999999998,55.009489784301756,18.04756,54.986114784301755Q17.91823,54.96283678430176,17.83197,55.197383784301756L17.27889,56.71814578430176L13.127816,55.96185578430176L13.336044,54.41523418430176L13.0833811,54.381217384301756L12.874871,55.92994578430176Q12.842249,56.16718578430176,13.0807125,56.212415784301754L17.27568,56.97668578430176Q17.44556,57.00578578430176,17.50442,56.84392578430176L17.91548,55.71366578430176L17.765439999999998,69.91502578430176Q17.765439999999998,70.01022578430175,17.824460000000002,70.06872578430176Q17.88295,70.12652578430176,17.97928,70.12652578430176L23.4389,70.06472578430176Q23.6528,70.06502578430175,23.663800000000002,69.85282578430176Z" fill-rule="evenodd" fill="#FFFFFF" fill-opacity="1"/></g><g><path d="M25.53136138441162,70.06129812500001L30.42436558441162,69.998248125L30.42108558441162,69.743328125L25.63275358441162,69.805028125L26.801695584411622,66.023978625L26.55812558441162,65.948677625L25.35783858441162,69.831128125Q25.32878658441162,69.926388125,25.380891084411623,69.994738125Q25.43164138441162,70.061308125,25.53136138441162,70.06129812500001Z" fill-rule="evenodd" fill="#FFFFFF" fill-opacity="1"/></g><g><path d="M54.40192255126953,53.63140123474121Q54.734728551269534,53.96086123474121,55.20512255126953,53.96086123474121Q55.67552255126953,53.96086123474121,56.00832255126953,53.63140123474121Q56.34167255126953,53.30141123474121,56.34167255126953,52.83446223474121Q56.34167255126953,52.36751323474121,56.00832255126953,52.03752123474121Q55.67552255126953,51.70806023474121,55.20512255126953,51.70806023474121Q54.734728551269534,51.70806023474121,54.40192255126953,52.03752123474121Q54.06858155126953,52.36751323474121,54.06858155126953,52.83446223474121Q54.06858155126953,53.30141123474121,54.40192255126953,53.63140123474121ZM55.82897255126953,53.450221234741214Q55.57067255126953,53.70592123474121,55.20512255126953,53.70592123474121Q54.83957555126953,53.70592123474121,54.581281551269534,53.450221234741214Q54.32352355126953,53.195051234741214,54.32352355126953,52.83446223474121Q54.32352355126953,52.47386923474121,54.581281551269534,52.21870123474121Q54.83957555126953,51.96300223474121,55.20512255126953,51.96300223474121Q55.57067255126953,51.96300223474121,55.82897255126953,52.21870123474121Q56.086732551269534,52.47386923474121,56.086732551269534,52.83446223474121Q56.086732551269534,53.195051234741214,55.82897255126953,53.450221234741214Z" fill-rule="evenodd" fill="#FFFFFF" fill-opacity="1"/></g><g><path d="M30.30565085644531,69.82116974487305L35.20115785644531,58.32731894487305L35.43570785644531,58.427220544873045L30.540204856445314,69.92106974487305L30.30565085644531,69.82116974487305Z" fill-rule="evenodd" fill="#FFFFFF" fill-opacity="1"/></g><g><path d="M36.91219288439942,60.22200673840332L37.037818884399414,59.92679133840332L36.80323278439941,59.82696613840332L36.66960488439941,60.14098773840332Q36.61440888439942,60.27611573840332,36.712204584399416,60.38147073840332L45.726970884399414,69.97327873840332Q45.808430884399414,70.06067873840333,45.92991088439941,70.06287873840333L47.270090884399416,70.07277873840331L47.271990884399415,69.81783873840332L45.93459088439941,69.80796873840332Q45.92118088439941,69.80772873840331,45.91274088439941,69.79866873840332L36.91219288439942,60.22200673840332Z" fill-rule="evenodd" fill="#FFFFFF" fill-opacity="1"/></g><g><path d="M36.778178395385744,31L46.310658395385744,32.36611C46.35405839538574,32.37248,46.37985839538574,32.41747,46.36315839538574,32.4576L43.79675839538574,38.60325Q43.76175839538574,38.68732,43.85295839538574,38.69226L49.16675839538574,38.9148C49.25705839538574,38.91803,49.32635839538574,38.99507,49.31915839538574,39.08417L49.150558395385744,41.1043L48.483658395385746,49.0463Q48.46745839538574,49.2478,48.26265839538574,49.2589L42.32685839538574,49.5903C42.28495839538574,49.5923,42.25305839538574,49.553799999999995,42.263158395385744,49.5136L43.62565839538574,44.259299999999996C43.63755839538574,44.211600000000004,43.59775839538574,44.1671,43.54945839538574,44.174L41.40765839538574,44.4448Q41.25285839538574,44.4645,41.191658395385744,44.608000000000004L39.014858395385744,49.704Q38.98735839538574,49.768299999999996,38.91625839538574,49.772Q35.66544839538574,49.9377,32.44090839538574,50.1515Q31.98132839538574,50.1824,31.556718395385744,50.153999999999996C31.527468395385743,50.152,31.50750839538574,50.1238,31.515508395385744,50.0959L32.947948395385744,45.1767C32.958648395385744,45.1407,32.92944839538574,45.1054,32.89174839538574,45.1087L27.20946509538574,45.5537C27.18554229538574,45.5554,27.165874575385743,45.5353,27.16825276638574,45.5117L27.913818395385743,37.91092C27.91847539538574,37.86257,27.960423395385742,37.82651,28.008732395385742,37.82932L34.903648395385744,38.24719Q34.96608839538574,38.2509,34.981078395385744,38.19032L36.778178395385744,31Z" fill="#FFFFFF" fill-opacity="1"/></g><g><path d="M18.375368011493684,31.492002796683654L25.746048011493684,31.492002796683654C25.781448011493683,31.491893616683654,25.809448011493682,31.521918986683655,25.807248011493684,31.557526786683656L24.783248011493683,47.50584818668365Q24.779448011493685,47.57504818668366,24.845648011493683,47.59854818668366L26.62524801149368,48.214248186683655Q26.695248011493682,48.23764818668366,26.702748011493682,48.31064818668365L26.90754801149368,50.43334818668366Q21.175298011493684,50.741248186683656,15.450558011493683,51.061448186683656C14.938528011493682,51.08984818668365,14.331582011493683,51.09104818668365,13.743372011493683,51.188748186683654C13.681023011493682,51.19934818668365,13.626219901493682,51.14694818668366,13.634722204493682,51.08484818668366L14.638798011493684,43.637448186683656Q14.648788011493682,43.560748186683654,14.719978011493684,43.59044818668366L18.13558801149368,44.994848186683654C18.17583801149368,45.01164818668366,18.220358011493683,44.982448186683655,18.220508011493685,44.939248186683656L18.26546801149368,31.568653586683656Q18.26546801149368,31.503129486683655,18.33040801149368,31.492002796683654Q18.351638011493684,31.488293806683654,18.375368011493684,31.492002796683654Z" fill="#FFFFFF" fill-opacity="1"/></g><g><path d="M87.81993645019531,39.981397604427336L77.83532645019531,38.59055760442734Q77.72917645019531,38.575727604427335,77.68047645019531,38.67091760442734L76.4316164501953,41.15093760442734C76.40605645019531,41.20153760442734,76.34325645019531,41.22113760442734,76.29298645019531,41.19420760442733L73.60546525019531,39.75515760442734C73.58400059019532,39.743617604427335,73.57281092019531,39.71943760442734,73.57798652019531,39.69580760442734L75.00667645019531,33.25591760442734L75.38882645019531,31.57331680442734Q75.40630645019532,31.497902644427338,75.48373645019531,31.50161139342734L81.04612645019532,31.78348760442734Q81.19348645019531,31.790905604427337,81.1273064501953,31.921953604427337L80.00832645019531,34.121327604427336C79.99794645019531,34.14193760442734,80.00026645019531,34.16657760442734,80.0143064501953,34.18493760442734C80.02834645019531,34.20328760442734,80.05167645019532,34.21217760442734,80.07452645019531,34.20787760442734L87.97473645019531,32.81208760442734C88.02223645019531,32.80361760442734,88.06593645019531,32.839737604427334,88.06593645019531,32.887507604427334L88.06593645019531,39.95543760442734Q88.06593645019531,40.01106760442734,88.0097364501953,40.01724760442734Q87.92983645019531,40.025897604427335,87.81993645019531,39.981397604427336Z" fill="#FFFFFF" fill-opacity="1"/></g><g><path d="M73.26964061889649,57.12681852722168L73.51684061889648,67.31521852722167L73.57304061889648,69.85331852722169C73.57374061889648,69.90231852722168,73.53444061889648,69.94231852722169,73.48564061889648,69.94231852722169L66.56204061889649,69.94231852722169C66.54054061889649,69.94251852722168,66.52394061889649,69.92381852722167,66.52704061889648,69.90281852722168L68.63264061889649,55.360218527221676Q68.64634061889649,55.265018527221685,68.55014061889648,55.26121852722168L64.32906061889648,55.07951852722168Q64.25163061889648,55.075818527221685,64.23040061889648,55.150018527221675L59.79447061889648,69.91881852722167Q59.77824061889648,69.97321852722169,59.71954061889649,69.97321852722169L56.04042061889648,69.97321852722169Q55.91303941889648,69.97321852722169,55.93676796889648,69.84961852722168L58.876560618896484,54.67151852722168Q58.887800618896485,54.60971852722168,58.94525061889649,54.58131852722168Q60.60873061889649,53.749318527221675,61.54287061889649,53.08661852722168C61.73519061889648,52.95061852722168,61.63029061889648,52.72311852722168,61.46294061889648,52.60201852722168Q60.550030618896486,51.949218527221674,59.58592061889649,51.38051852722168Q59.533460618896484,51.34841852722168,59.544700618896485,51.28781852722168L59.868150618896486,49.53721852722168L60.70239061889649,45.24471852722168C60.71217061889649,45.19141852722168,60.673280618896484,45.14141852722168,60.61872061889648,45.13721852722168L57.593990618896484,44.92211852722168C57.554640618896485,44.91921852722168,57.527220618896486,44.88261852722168,57.536550618896484,44.84541852722168L58.62555061889648,40.26987852722168Q58.64303061889648,40.19940852722168,58.71547061889648,40.18951852722168L59.22250061889648,40.12399852722168L62.90037061889648,39.87426852722168Q63.026500618896485,39.86560852722168,63.00028061889648,39.74321852722168L61.65776061889648,33.72861672722168C61.65299061889648,33.70788462722168,61.66875061889648,33.68807555522168,61.690230618896486,33.68781852722168L69.96514061889648,33.68781852722168Q70.12994061889648,33.68781852722168,70.08374061889648,33.84482852722168L68.40404061889649,39.46504852722168C68.39444061889648,39.49710852722168,68.42074061889649,39.52885852722168,68.45524061889648,39.52686852722168L73.10974061889648,39.21036852722168Q73.25834061889648,39.20047852722168,73.22834061889648,39.34512852722168L71.81344061889648,46.157118527221684Q71.79974061889648,46.22511852722168,71.72854061889649,46.21891852722168L67.04654061889649,45.756618527221676C66.99094061889649,45.75151852722168,66.93954061889649,45.78621852722168,66.92414061889649,45.83941852722168L65.59664061889649,50.38901852722168C65.58501061889649,50.43011852722168,65.61553061889649,50.47081852722168,65.65784061889649,50.47061852722168L73.11094061889648,50.47061852722168C73.16824061889648,50.47061852722168,73.21464061889648,50.51651852722168,73.21464061889648,50.573218527221684L73.26964061889649,57.12681852722168Z" fill="#FFFFFF" fill-opacity="1"/></g><g><path d="M52.536049378662106,44.627616721344L51.59940927866211,44.55220672134399Q51.52697747866211,44.54602672134399,51.54196312866211,44.47555672134399L51.82919737866211,43.16012672134399L53.20543437866211,36.905684721343995C53.21275437866211,36.87232152134399,53.25181437866211,36.85685222134399,53.28036437866211,36.87601377134399L57.98854437866211,40.09657672134399Q58.03100437866211,40.125016721344,58.01851437866211,40.174466721344L56.912034378662106,44.863756721344Q56.89704437866211,44.925566721344,56.83335437866211,44.92062672134399L52.536049378662106,44.627616721344Z" fill="#FFFFFF" fill-opacity="1"/></g><g><path d="M84.44047685302735,60.94798175506592L85.11613685302734,69.85558175506591Q85.12233685302735,69.94208175506591,85.03493685302735,69.94208175506591L78.26240685302734,69.94208175506591Q78.18622685302735,69.94208175506591,78.18996685302734,69.86668175506591L78.63705685302735,61.66628175506592L79.00547685302735,55.26098175506592Q79.01296685302734,55.13738175506592,78.88807685302734,55.13368175506592L74.91047885302734,55.03228175506592C74.84732755302734,55.030981755065916,74.79682923063734,54.97988175506592,74.79683685302734,54.917281755065915L74.79683685302734,50.532161755065914C74.79683685302734,50.49802175506592,74.82479575302735,50.47035175506592,74.85927955302735,50.47035175506592L80.29178685302735,50.47035175506592C80.33337685302735,50.47030175506592,80.37208685302734,50.45045175506592,80.39544685302734,50.417191755065915L82.36863685302734,47.60213175506592C82.38119685302735,47.58361175506592,82.38222685302735,47.55978175506592,82.37127685302734,47.540491755065915C82.36040685302734,47.52132175506592,82.33937685302735,47.51015175506592,82.31742685302734,47.511881755065914L74.86177965302734,47.93717175506592Q74.79683685302734,47.94088175506592,74.79683685302734,47.87659175506592L74.79683685302734,41.96583825506592Q74.79683685302734,41.89907788506592,74.86427215302734,41.904023202065915L87.98093685302734,42.907901755065915Q88.06593685302734,42.91532175506592,88.06593685302734,42.99938175506592L88.06593685302734,48.33402175506592C88.06593685302734,48.37367175506592,88.04633685302734,48.41098175506592,88.01343685302734,48.434161755065915L85.22723685302735,50.380101755065915C85.20973685302735,50.39242175506592,85.20233685302735,50.414731755065915,85.20913685302735,50.43512175506592C85.21593685302734,50.45568175506592,85.23523685302735,50.46978175506592,85.25723685302734,50.47035175506592L90.94073685302735,50.47035175506592Q91.00573685302734,50.47035175506592,90.99943685302735,50.53463175506592L90.48243685302734,55.42178175506592Q90.47613685302734,55.48728175506592,90.41003685302735,55.48478175506592L84.07331685302734,55.281981755065914Q84.00837685302734,55.28078175506592,84.01336685302735,55.34508175506592L84.44047685302735,60.94798175506592Z" fill="#FFFFFF" fill-opacity="1"/></g><g><path d="M51.96425598144531,51.25001829467774L50.812808981445315,50.108916294677734Q50.766597981445315,50.06440929467774,50.82154798144531,50.029791294677736C52.12410598144531,49.20765129467773,53.79381598144531,49.592141344677735,54.61056598144531,50.89272829467773Q54.64553598144531,50.94835829467773,54.71172598144531,50.949598294677735Q57.64653598144531,51.007708294677734,59.94191598144531,52.78550829467773C59.97633598144532,52.81173829467773,59.97633598144532,52.863128294677736,59.94191598144531,52.889358294677734Q57.63903598144531,54.64613829467773,54.709225981445314,54.727738294677735Q54.64553598144531,54.728968294677735,54.604325981445314,54.778418294677735C53.87249598144531,55.645068294677735,53.22184598144531,56.106208294677735,52.00421598144531,55.99988829467773Q51.33982498144531,55.94177829467773,50.83278698144531,55.58819829467773Q50.76909798144531,55.54369829467773,50.82404798144531,55.488058294677735L51.918035981445314,54.40505829467774C51.94202598144531,54.38150829467774,51.93418598144531,54.34139829467773,51.90305598144531,54.328408294677736L50.66669148144531,53.81039829467773Q50.59675598144531,53.78196829467773,50.59675598144531,53.70654829467773L50.60299872144531,51.93863829467774Q50.60299872144531,51.884238294677736,50.654202181445314,51.86322829467773L51.94801598144531,51.33284829467773Q52.019195981445314,51.303178294677735,51.96425598144531,51.25001829467774ZM56.21409598144531,52.83495829467773C56.21409598144531,52.28326829467773,55.76231598144531,51.83602829467773,55.20502598144531,51.83602829467773C54.64772598144531,51.83602829467773,54.195955981445316,52.28326829467773,54.195955981445316,52.83495829467773C54.195955981445316,53.386648294677734,54.64772598144531,53.833888294677735,55.20502598144531,53.833888294677735C55.76231598144531,53.833888294677735,56.21409598144531,53.386648294677734,56.21409598144531,52.83495829467773Z" fill="#FFFFFF" fill-opacity="1"/></g><g><path d="M24.904104918518065,52.496149817504886L15.100611918518066,52.483789817504885C15.088783918518066,52.48263981750488,15.079409318518067,52.47340981750488,15.078196404518067,52.46169981750488C15.076984448518067,52.44999981750488,15.084269548518066,52.43906981750488,15.095616418518066,52.435569817504884Q15.522724918518067,52.35396981750488,15.978554918518066,52.31440981750488Q19.392924918518066,52.01893981750488,22.816024918518067,51.861927817504885C23.569084918518065,51.827311817504885,24.63685491851807,51.72840681750488,25.549764918518065,51.720989817504886Q30.908564918518067,51.478673817504884,36.24246491851807,51.256140817504885C36.83686491851807,51.23141381750488,38.26686491851807,51.22894281750488,39.278364918518065,51.15847281750488C41.81106491851807,50.97920881750488,44.384964918518065,50.966845417504885,46.92636491851806,50.88277784750488C48.170264918518065,50.84074411750488,48.878364918518066,50.90379471750488,49.70136491851807,51.730879817504885Q50.009764918518066,52.03995981750488,49.789964918518066,52.349029817504885Q49.75006491851806,52.403429817504886,49.685064918518066,52.41825981750488C49.587664918518065,52.441749817504885,49.46406491851807,52.48130981750488,49.364164918518064,52.48130981750488Q37.135364918518064,52.46647981750488,24.904104918518065,52.496149817504886Z" fill="#FFFFFF" fill-opacity="1"/></g><g><path d="M31.49432276725769,53.06513595581055Q40.43732276725769,53.067607195810545,49.38292276725769,53.06513595581055Q49.76002276725769,53.06513595581055,49.78372276725769,53.53987495581055C49.78612276725769,53.57386495581055,49.77442276725769,53.60768495581055,49.75132276725769,53.63383295581055C49.27802276725769,54.160495955810546,48.61612276725769,54.61669595581055,47.87552276725769,54.61051595581055Q45.88482276725769,54.591965955810544,43.89542276725769,54.506655955810544C41.046822767257694,54.38426595581055,37.671122767257685,54.32986595581055,35.699222767257694,54.22354595581055C34.85252276725769,54.17780595581055,34.02822276725769,54.191405955810545,33.25642276725769,54.133295955810546Q31.75652276725769,54.02079595581055,30.25042276725769,54.01337795581055Q23.49041276725769,53.73150195581054,19.106942767257692,53.486712955810546Q17.45596276725769,53.39398995581055,15.07689666725769,53.150439155810545Q15.06315925725769,53.14920345581055,15.068154777257691,53.13684155581055Q15.07314934725769,53.119531555810546,15.07939396725769,53.102223455810545Q15.083140367257691,53.091097255810546,15.09562876725769,53.091097255810546L31.49432276725769,53.06513595581055Z" fill="#FFFFFF" fill-opacity="1"/></g><g><path d="M23.8799,63.604622545776365L23.5365,69.84666254577637C23.5338,69.89806254577637,23.491,69.93826254577637,23.4391,69.93816254577636L17.97783,69.99996254577637Q17.89291,69.99996254577637,17.89291,69.91596254577637L18.04777,55.259592545776364Q18.05027,54.97400354577637,17.95161,55.24228254577637L17.38463,56.801252545776364Q17.36215,56.86307254577637,17.29721,56.85194254577637L13.10356,56.08791254577637C13.037091,56.07530254577637,12.99211559,56.013942545776366,13.00115432,55.948212545776364L13.209713,54.39912454577637L13.262165,54.14568264577637Q13.273404,54.08757639577637,13.333349,54.091285146776364L24.2845,54.84419154577637C24.3248,54.84684054577637,24.3554,54.88099454577637,24.3532,54.920843545776364L23.8799,63.604622545776365Z" fill="#FFFFFF" fill-opacity="1"/></g><g><path d="M35.31822558441162,58.376687229614255L30.422725584411623,69.87060722961425L25.52971898441162,69.93360722961425Q25.45978348441162,69.93360722961425,25.47976562441162,69.86810722961425L26.67991558441162,65.98610722961426L30.00061558441162,55.21670722961426L36.40102558441162,55.63210422961426Q36.48962558441162,55.63828622961426,36.45472558441162,55.71864522961426L35.31822558441162,58.376687229614255Z" fill="#FFFFFF" fill-opacity="1"/></g><g><path d="M47.27099088439941,69.9462386505127L45.93224088439941,69.9363386505127Q45.86481088439942,69.9351386505127,45.819850884399415,69.88693865051269L36.80562948439941,60.2956786505127Q36.763168984399414,60.249938650512696,36.78689747439942,60.19183865051269L36.92052588439942,59.8778086505127L38.575250884399416,55.810384050512695C38.592860884399414,55.766294010512695,38.645000884399415,55.746795750512696,38.68765088439942,55.768350240512696L49.22799088439942,61.1351286505127Q49.28789088439942,61.1660386505127,49.319090884399415,61.225378650512695L53.718890884399414,69.8325386505127C53.744790884399414,69.8833386505127,53.70769088439941,69.94343865051269,53.650190884399414,69.9437386505127L47.27099088439941,69.9462386505127Z" fill="#FFFFFF" fill-opacity="1"/></g><g><path d="M53.81027673706055,57.51919793735352L56.92990673706055,59.33408703735351C56.95293673706055,59.34800703735352,56.96487673706055,59.374587037353514,56.95987673706055,59.400847037353515L55.02540673706055,69.79190703735351C55.020646737060545,69.81950703735352,54.99849673706055,69.84080703735351,54.97058673706054,69.84470703735352C54.94266673706055,69.84870703735352,54.91537673706055,69.83430703735351,54.90301673706055,69.80930703735352L50.268524827060546,60.957347037353514C50.25518564706055,60.93248703735352,50.259740017060544,60.901927037353516,50.279764037060545,60.88193703735352L53.732836737060545,57.529088537353516C53.753546737060546,57.50908471735352,53.78511673706055,57.50505337735351,53.81027673706055,57.51919793735352Z" fill="#FFFFFF" fill-opacity="1"/></g></g><g><path d="M44,0L24.2894,0Q23.6931,0,23.0975,0.0292576Q22.502,0.0585152,21.9086,0.11696Q21.3152,0.175405,20.7254,0.262896Q20.1356,0.350387,19.5507,0.466713Q18.9659,0.58304,18.3875,0.727922Q17.8091,0.872804,17.2385,1.04589Q16.6679,1.21898,16.1065,1.41986Q15.5451,1.62074,14.9942,1.84892Q14.4433,2.0771,13.9043,2.33204Q13.3653,2.58698,12.8394,2.86806Q12.3136,3.14914,11.8021,3.45568Q11.2907,3.76223,10.7949,4.0935Q10.2991,4.42477,9.82021,4.77996Q9.34128,5.13516,8.88036,5.51343Q8.41943,5.8917,7.97763,6.29213Q7.53582,6.69256,7.11419,7.11419Q6.69256,7.53582,6.29213,7.97763Q5.8917,8.41943,5.51343,8.88036Q5.13516,9.34128,4.77996,9.82021Q4.42477,10.2991,4.0935,10.7949Q3.76223,11.2907,3.45568,11.8021Q3.14914,12.3136,2.86806,12.8394Q2.58698,13.3653,2.33204,13.9043Q2.0771,14.4433,1.84892,14.9942Q1.62074,15.5451,1.41986,16.1065Q1.21898,16.6679,1.04589,17.2385Q0.872804,17.8091,0.727922,18.3875Q0.58304,18.9659,0.466713,19.5507Q0.350387,20.1356,0.262896,20.7254Q0.175405,21.3152,0.11696,21.9086Q0.0585152,22.502,0.0292576,23.0975Q0,23.6931,0,24.2894L0,44L44,0Z" fill-rule="evenodd" fill="url(#master_svg2_28_2110)" fill-opacity="1"/></g><g transform="matrix(0.7071067690849304,-0.7071067690849304,0.7071067690849304,0.7071067690849304,-3.4848942126554903,-10.154489215783542)"><path d="M-8.9,27.45339453125Q-7.812,27.45339453125,-6.9365,27.96339453125Q-6.061,28.47339453125,-5.568,29.39139453125Q-5.074999999999999,30.30939453125,-5.074999999999999,31.48239453125Q-5.074999999999999,32.72339453125,-5.619,33.66689453125Q-6.163,34.61039453125,-7.1065,35.12039453125Q-8.05,35.63039453125,-9.189,35.63039453125Q-10.481,35.63039453125,-11.467,35.00139453125Q-12.453,34.37239453125,-12.844,33.14839453125L-11.365,32.29839453125Q-11.093,33.14839453125,-10.5405,33.57339453125Q-9.988,33.99839453125,-9.206,33.99839453125Q-8.169,33.99839453125,-7.591,33.30989453125Q-7.013,32.62139453125,-7.013,31.55039453125Q-7.013,30.51339453125,-7.5825,29.79939453125Q-8.152000000000001,29.08539453125,-9.222999999999999,29.08539453125Q-10.565999999999999,29.08539453125,-11.365,30.34339453125L-12.589,29.73139453125L-11.739,22.96539453125L-5.6530000000000005,22.96539453125L-5.6530000000000005,24.54639453125L-10.175,24.54639453125L-10.617,27.87839453125Q-9.852,27.45339453125,-8.9,27.45339453125ZM2.7620000000000005,30.41139453125L2.7620000000000005,28.79639453125L7.114000000000001,28.79639453125L7.114000000000001,33.72639453125Q6.553000000000001,34.55939453125,5.371500000000001,35.09489453125Q4.190000000000001,35.63039453125,2.7280000000000015,35.63039453125Q0.9770000000000003,35.63039453125,-0.40000000000000036,34.82289453125Q-1.7769999999999992,34.01539453125,-2.5589999999999993,32.54489453125Q-3.3409999999999993,31.07439453125,-3.3409999999999993,29.18739453125Q-3.3409999999999993,27.30039453125,-2.5504999999999995,25.84689453125Q-1.7599999999999998,24.39339453125,-0.3915000000000006,23.59439453125Q0.9770000000000003,22.79539453125,2.6430000000000007,22.79539453125Q4.207000000000001,22.79539453125,5.3885000000000005,23.46689453125Q6.57,24.13839453125,7.062999999999999,25.29439453125L5.567,26.16139453125Q5.175999999999998,25.39639453125,4.393999999999998,24.92889453125Q3.6119999999999983,24.46139453125,2.5749999999999993,24.46139453125Q1.4190000000000005,24.46139453125,0.5094999999999992,25.04789453125Q-0.40000000000000036,25.63439453125,-0.9100000000000001,26.71389453125Q-1.42,27.79339453125,-1.42,29.18739453125Q-1.42,30.61539453125,-0.8930000000000007,31.69489453125Q-0.36599999999999966,32.77439453125,0.6029999999999998,33.36939453125Q1.5719999999999992,33.96439453125,2.8470000000000013,33.96439453125Q4.478999999999999,33.96439453125,5.295000000000002,33.09739453125L5.295000000000002,30.41139453125L2.7620000000000005,30.41139453125Z" fill="#FFFFFF" fill-opacity="1"/></g></g></g></svg>