<svg xmlns="http://www.w3.org/2000/svg" xmlns:xlink="http://www.w3.org/1999/xlink" fill="none" version="1.1" width="104" height="104" viewBox="0 0 104 104"><defs><linearGradient x1="1" y1="0.4459381103515625" x2="0" y2="0.44275373220443726" id="master_svg0_5_18236"><stop offset="0%" stop-color="#007CFC" stop-opacity="1"/><stop offset="99.99989867210388%" stop-color="#007CFC" stop-opacity="1"/></linearGradient><clipPath id="master_svg1_36_8871"><rect x="0" y="0" width="104" height="104" rx="28"/></clipPath></defs><g clip-path="url(#master_svg1_36_8871)"><rect x="0" y="0" width="104" height="104" rx="28" fill="url(#master_svg0_5_18236)" fill-opacity="1"/><g><g><path d="M21,33L21,69L52,52L52,16L21,33Z" fill="#3496F7" fill-opacity="1"/></g><g transform="matrix(-1,0,0,1,166,0)"><path d="M83,33L83,69L114,52L114,16L83,33Z" fill="#CBE1F7" fill-opacity="1"/></g><g transform="matrix(-1,0,0,1,166,0)"><path d="M83,69L114,88L145,69L114,52L83,69Z" fill="#CBDFF6" fill-opacity="1"/></g><g><path d="M32,63L52,74L52,54L32,43L32,63Z" fill="#FCFCFC" fill-opacity="1"/></g><g transform="matrix(-1,0,0,1,144,0)"><path d="M72,63L92,74L92,54L72,43L72,63Z" fill="#92B5FC" fill-opacity="1"/></g><g transform="matrix(-1,0,0,1,144,0)"><path d="M72,43L92,54L112,43L92,32L72,43Z" fill="#E8EBFC" fill-opacity="1"/></g></g></g></svg>