<svg xmlns="http://www.w3.org/2000/svg" xmlns:xlink="http://www.w3.org/1999/xlink" fill="none" version="1.1" width="104" height="104" viewBox="0 0 104 104"><defs><clipPath id="master_svg0_36_8869"><rect x="0" y="0" width="104" height="104" rx="28"/></clipPath></defs><g clip-path="url(#master_svg0_36_8869)"><rect x="0" y="0" width="104" height="104" rx="28" fill="#FCFCFC" fill-opacity="1"/><g><path d="M48.278365625,76.08039C48.983165625,74.671295,50.423465625,73.78125,51.998965625,73.78125C53.574465625,73.78125,55.014765624999995,74.671295,55.719565625,76.08039L66.669565625,97.97845C68.052965625,100.74425,66.041365625,103.99895000000001,62.948465625,103.99895000000001L41.050475625,103.99895000000001C37.957795625,103.99915,35.946189625,100.74455,37.329387625,97.97845L48.278365625,76.08039Z" fill="#B4CDE6" fill-opacity="1"/></g><g><path d="M11.8143234375,84.606201171875L37.3533234375,84.606201171875L23.4861234375,103.998901171875L18.7198234375,103.998901171875C10.2413034375,103.966601171875,2.8315934375,98.267901171875,0.6240234375,90.081741171875L11.8143234375,84.606201171875Z" fill="#C9E4FF" fill-opacity="1"/></g><g><path d="M34.395569140625,72.836669921875L45.907169140625,72.836669921875L38.463969140625,82.908969921875L15.328369140625,82.908969921875L34.395569140625,72.836669921875Z" fill="#EEEEEE" fill-opacity="1"/></g><g><path d="M0,86.6414919921875L28.8077,72.7742919921875L0,72.7742919921875L0,86.6414919921875Z" fill="#EEEEEE" fill-opacity="1"/></g><g><path d="M92.183605078125,84.606201171875L66.647705078125,84.606201171875L80.512805078125,103.998901171875L85.279105078125,103.998901171875C93.757705078125,103.966601171875,101.167405078125,98.267901171875,103.37490507812501,90.081741171875L92.183605078125,84.606201171875Z" fill="#CBFFCB" fill-opacity="1"/></g><g><path d="M69.60535,72.836669921875L58.09375,72.836669921875L65.54111,82.908969921875L88.67255,82.908969921875L69.60535,72.836669921875Z" fill="#EEEEEE" fill-opacity="1"/></g><g><path d="M104.0020359375,86.6414919921875L75.1943359375,72.7742919921875L104.0020359375,72.7742919921875L104.0020359375,86.6414919921875Z" fill="#EEEEEE" fill-opacity="1"/></g><g><path d="M55.119578671875,76.9592524609375Q55.119578671875,77.0614324609375,55.104558671875,77.1631224609375Q55.089528671875,77.2648124609375,55.059628671875004,77.3650324609375Q55.029728671875,77.4652524609375,54.985238671875,77.5630324609375Q54.940738671874996,77.6608124609375,54.882088671874996,77.7552224609375Q54.823428671875,77.8496224609375,54.751178671875,77.9397424609375Q54.678928671875,78.0298624609375,54.593768671875,78.1148224609375Q54.508618671875,78.1997824609375,54.411378671875,78.2787724609375Q54.314138671875,78.3577624609375,54.205758671875,78.4300124609375Q54.097378671875,78.5022724609375,53.978898671875,78.5670924609375Q53.860418671875,78.6319124609375,53.732968671875,78.6886824609375Q53.605528671875,78.7454524609375,53.470348671875,78.7936224609375Q53.335178671875,78.8417924609375,53.193568671875,78.8808924609375Q53.051958671875,78.9200024609375,52.905288671875,78.9496624609375Q52.758618671875,78.9793224609375,52.608288671875,78.9992624609375Q52.457958671875,79.0191924609375,52.305418671875,79.0292124609375Q52.152878671875,79.0392224609375,51.999608671875,79.0392224609375Q51.846338671875,79.0392224609375,51.693798671875,79.0292124609375Q51.541258671875,79.0191924609375,51.390928671875,78.9992624609375Q51.240608671875,78.9793224609375,51.093928671875,78.9496624609375Q50.947258671875,78.9200024609375,50.805648671875,78.8808924609375Q50.664038671875,78.8417924609375,50.528868671875,78.7936224609375Q50.393688671875,78.7454524609375,50.266248671875,78.6886824609375Q50.138798671875,78.6319124609375,50.020318671875,78.5670924609375Q49.901838671875,78.5022724609375,49.793456671875,78.4300124609375Q49.685075671875,78.3577624609375,49.587839671875,78.2787724609375Q49.490602671875,78.1997824609375,49.405448671875,78.1148224609375Q49.320293671875,78.0298624609375,49.248040671875,77.9397424609375Q49.175787671875,77.8496224609375,49.117132671875,77.7552224609375Q49.058476671875,77.6608124609375,49.013983671875,77.5630324609375Q48.969490371875,77.4652524609375,48.939587971875,77.3650324609375Q48.909685671875,77.2648124609375,48.894662171875,77.1631224609375Q48.879638671875,77.0614324609375,48.879638671875,76.9592524609375Q48.879638671875,76.8570624609375,48.894662171875,76.7553724609375Q48.909685671875,76.6536824609375,48.939587971875,76.5534624609375Q48.969490371875,76.4532424609375,49.013983671875,76.3554624609375Q49.058476671875,76.2576824609375,49.117132671875,76.1632724609375Q49.175787671875,76.0688724609375,49.248040671875,75.9787524609375Q49.320293671875,75.8886424609375,49.405448671875,75.8036754609375Q49.490602671875,75.7187144609375,49.587839671875,75.6397254609375Q49.685075671875,75.5607374609375,49.793456671875,75.4884834609375Q49.901838671875,75.4162294609375,50.020318671875,75.3514054609375Q50.138798671875,75.2865814609375,50.266248671875,75.2298114609375Q50.393688671875,75.1730424609375,50.528868671875,75.1248734609375Q50.664038671875,75.0767044609375,50.805648671875,75.0376014609375Q50.947258671875,74.9984974609375,51.093928671875,74.9688355609375Q51.240608671875,74.9391734609375,51.390928671875,74.9192386609375Q51.541258671875,74.8993037609375,51.693798671875,74.8892881609375Q51.846338671875,74.8792724609375,51.999608671875,74.8792724609375Q52.152878671875,74.8792724609375,52.305418671875,74.8892881609375Q52.457958671875,74.8993037609375,52.608288671875,74.9192386609375Q52.758618671875,74.9391734609375,52.905288671875,74.9688355609375Q53.051958671875,74.9984974609375,53.193568671875,75.0376014609375Q53.335178671875,75.0767044609375,53.470348671875,75.1248734609375Q53.605528671875,75.1730424609375,53.732968671875,75.2298114609375Q53.860418671875,75.2865814609375,53.978898671875,75.3514054609375Q54.097378671875,75.4162294609375,54.205758671875,75.4884834609375Q54.314138671875,75.5607374609375,54.411378671875,75.6397254609375Q54.508618671875,75.7187144609375,54.593768671875,75.8036754609375Q54.678928671875,75.8886424609375,54.751178671875,75.9787524609375Q54.823428671875,76.0688724609375,54.882088671874996,76.1632724609375Q54.940738671874996,76.2576824609375,54.985238671875,76.3554624609375Q55.029728671875,76.4532424609375,55.059628671875004,76.5534624609375Q55.089528671875,76.6536824609375,55.104558671875,76.7553724609375Q55.119578671875,76.8570624609375,55.119578671875,76.9592524609375Z" fill="#ADBDCE" fill-opacity="1"/></g><g><path d="M51.90902890625,13.7767373657275C64.56272890625,13.7697876684375,74.83632890625,24.002833398437502,74.87932890625001,36.6565333984375C74.87932890625001,54.3363333984375,52.72752890625,60.3194333984375,52.72752890625,76.33523339843751C52.80402890625,76.78593339843749,52.45672890625,77.1971333984375,51.99952890625,77.1971333984375C51.542428906249995,77.1971333984375,51.195128906250005,76.78593339843749,51.27152890625,76.33523339843751C51.27152890625,60.3194333984375,29.11976181025,54.3363333984375,29.11976181025,36.6565333984375C29.07717100625,24.038133398437502,39.29052890625,13.7841373484375,51.90902890625,13.7767373657275Z" fill="#E3423A" fill-opacity="1"/></g><g><path d="M47.3193359375,25.999755859375L50.9592959375,25.999755859375L50.9592959375,47.839555859375L47.3193359375,47.839555859375L47.3193359375,25.999755859375Z" fill="#FFFFFF" fill-opacity="1"/></g><g><path d="M53.03955078125,34.319580078125L65.51945078125,34.319580078125L65.51945078125,47.839480078125L57.19951078125,47.839480078125C54.90202078125,47.839480078125,53.03955078125,45.976980078125,53.03955078125,43.679490078125L53.03955078125,34.319580078125Z" fill="#FFFFFF" fill-opacity="1"/></g><g><path d="M44.719676328125,37.959550078125C43.283746328125,37.959550078125,42.119696328125,39.123600078125,42.119696328125,40.559520078125L42.119696328125,41.599510078125C42.119706328125,43.035440078125,43.283746328125,44.199480078125,44.719676328125,44.199480078125L47.319646328125,44.199480078125L47.319646328125,37.959540078125L44.719676328125,37.959550078125ZM44.719676328125,34.319580078125L50.959636328125,34.319580078125L50.959636328125,47.839480078125L44.719676328125,47.839480078125C41.273446328125,47.839480078125,38.479736328125,45.045780078125,38.479736328125,41.599510078125L38.479736328125,40.559520078125C38.479736328125,37.113300078125,41.273446328125,34.319584045415,44.719676328125,34.319580078125Z" fill="#FFFFFF" fill-opacity="1"/></g><g><path d="M56.679443359375,33.2796630859375L61.879393359375,33.2796630859375L61.879393359375,44.1995630859375L57.199439359375,44.1995630859375C56.912255359375,44.1995630859375,56.679447326665,43.9667630859375,56.679443359375,43.6795630859375L56.679443359375,33.2796630859375Z" fill="#E34040" fill-opacity="1"/></g><g><path d="M39.519628203125,97.759033203125L51.999458203125,97.759033203125L51.999458203125,103.998973203125L39.519628203125,103.998973203125C37.796518203125,103.998973203125,36.399658203125,102.602113203125,36.399658203125,100.879003203125C36.399658203125,99.155893203125,37.796518203125,97.759041137695,39.519628203125,97.759033203125Z" fill="#DB3A42" fill-opacity="1"/></g><g><path d="M51.99951171875,97.759033203125L64.47941171875,97.759033203125C66.20251171875,97.759041137695,67.59931171875,99.155893203125,67.59931171875,100.879003203125C67.59931171875,102.602113203125,66.20251171875,103.998973203125,64.47941171875,103.998973203125L51.99951568604,103.998973203125L51.99951171875,97.759033203125Z" fill="#407CEC" fill-opacity="1"/></g></g></svg>