<svg xmlns="http://www.w3.org/2000/svg" xmlns:xlink="http://www.w3.org/1999/xlink" fill="none" version="1.1" width="104" height="104" viewBox="0 0 104 104"><defs><linearGradient x1="0.5" y1="0" x2="0.5" y2="1" id="master_svg0_5_02388"><stop offset="0%" stop-color="#009EFB" stop-opacity="1"/><stop offset="100%" stop-color="#00E3DE" stop-opacity="1"/></linearGradient><clipPath id="master_svg1_36_8877"><rect x="0" y="0" width="104" height="104" rx="28"/></clipPath></defs><g clip-path="url(#master_svg1_36_8877)"><rect x="0" y="0" width="104" height="104" rx="28" fill="url(#master_svg0_5_02388)" fill-opacity="1"/><g><path d="M27.37643,56.8577C26.830994,57.5085,27.29371,58.5,28.14286,58.5L42.381,58.5C42.977599999999995,58.5,43.441500000000005,59.0191,43.374700000000004,59.612L40.2769,87.1046C40.0523,89.0986,42.5762,90.1444,43.8277,88.5759L75.7045,48.6237C76.22710000000001,47.9687,75.7607,47,74.9228,47L62.2433,47C61.6046,47,61.1296,46.4094,61.2666,45.7856L67.3798,17.9363C68.0524,14.87245,64.1652,12.961960000000001,62.1503,15.36608L27.37643,56.8577Z" fill="#FCFCFC" fill-opacity="1"/></g></g></svg>