<svg xmlns="http://www.w3.org/2000/svg" xmlns:xlink="http://www.w3.org/1999/xlink" fill="none" version="1.1" width="104" height="104" viewBox="0 0 104 104"><defs><linearGradient x1="0.5" y1="0" x2="0.5" y2="1" id="master_svg0_5_02508"><stop offset="0%" stop-color="#71EA6A" stop-opacity="1"/><stop offset="100%" stop-color="#01D601" stop-opacity="1"/></linearGradient><clipPath id="master_svg1_36_8875"><rect x="0" y="0" width="104" height="104" rx="28"/></clipPath></defs><g clip-path="url(#master_svg1_36_8875)"><rect x="0" y="0" width="104" height="104" rx="28" fill="url(#master_svg0_5_02508)" fill-opacity="1"/><g><path d="M20.791957,28.32491C18.29248,32.825,20.791957,45.8249,41.792,67.8249C52.792,78.8249,69.792,89.8249,79.292,81.8249C83.792,77.3249,85.292,72.8249,79.292,67.8249C73.292,62.8249,70.792,61.8249,66.292,64.8249C62.792,67.8249,56.792,68.3249,46.292,55.8249C45.1225,54.3802,44.0476,53.0965,43.0791,51.9397C37.008700000000005,44.6894,35.1175,42.4306,40.292,36.8249C43.292,33.3249,44.292,29.32491,38.792,23.32491C33.292,17.32491,25.57423,19.714938,20.791957,28.32491Z" fill="#EAF8EA" fill-opacity="1"/></g></g></svg>