<svg xmlns="http://www.w3.org/2000/svg" xmlns:xlink="http://www.w3.org/1999/xlink"  version="1.1" width="52"
     height="72" viewBox="0 0 52 72">
    <defs>
        <clipPath id="master_svg0_544_7139">
            <rect x="0" y="0" width="52" height="72" rx="0"/>
        </clipPath>
    </defs>
    <g clip-path="url(#master_svg0_544_7139)">
        <g>
            <g>
                <path d="M31.5781,19.6591796875C24.07913,19.6591796875,18,25.7383096875,18,33.2372796875L18,61.3993796875C18,64.7130796875,20.68629,67.3993796875,24,67.3993796875L39.1562,67.3993796875C42.47,67.3993796875,45.1562,64.7130796875,45.1562,61.3993796875L45.1562,33.2372796875C45.1562,25.7383096875,39.0771,19.6591796875,31.5781,19.6591796875ZM31.375,23.1103496875C25.85215,23.1103496875,21.375,27.5874996875,21.375,33.1103796875L21.375,61.9794796875C21.375,63.0840796875,22.27043,63.9794796875,23.375,63.9794796875L39.7324,63.9794796875C40.837,63.9794796875,41.7324,63.0840796875,41.7324,61.9794796875L41.7324,33.1103796875C41.7324,27.5874996875,37.2553,23.1103496875,31.7324,23.1103496875L31.375,23.1103496875Z"
                      fill-rule="evenodd"  fill-opacity="1"/>
            </g>
            <g>
                <path d="M39.45402788391113,37.90137125Q39.446027883911135,37.75957125,39.431427883911134,37.61831125Q39.416727883911136,37.47705125,39.395327883911136,37.33664125Q39.37402788391113,37.19623125,39.346027883911134,37.05699125Q39.31812788391113,36.91774125,39.28362788391114,36.77998125Q39.24902788391113,36.64222125,39.20802788391113,36.50624125Q39.16702788391113,36.37027125,39.11972788391113,36.23638125Q39.07232788391113,36.10250125,39.01862788391114,35.971011250000004Q38.96492788391113,35.83952125,38.905127883911135,35.71071125Q38.84532788391113,35.58191125,38.77942788391113,35.45608125Q38.71362788391113,35.33025125,38.641827883911134,35.20767125Q38.570127883911134,35.08510125,38.49262788391113,34.96606125Q38.41522788391113,34.84702125,38.33222788391113,34.73177125Q38.24922788391113,34.61653125,38.16082788391113,34.50534125Q38.072527883911135,34.39415125,37.97902788391113,34.28727125Q37.885427883911134,34.18039125,37.787027883911136,34.07805125Q37.688527883911135,33.97571125,37.585327883911134,33.87815125Q37.48212788391113,33.78058125,37.37442788391113,33.68801125Q37.26672788391113,33.59544125,37.154727883911136,33.50807125Q37.042727883911134,33.42070125,36.92682788391113,33.33872125Q36.81082788391113,33.25674125,36.691127883911136,33.18034625Q36.57132788391113,33.10394925,36.448127883911134,33.03330125Q36.32492788391113,32.96265325,36.19852788391113,32.89791425Q36.072127883911136,32.83317525,35.942827883911136,32.77448925Q35.813527883911135,32.71580325,35.68152788391113,32.66330225Q35.54952788391113,32.61080125,35.41522788391113,32.56460225Q35.28092788391113,32.51840325,35.144627883911134,32.47861125Q35.008327883911136,32.43881825,34.870227883911134,32.40552025Q34.73212788391113,32.37222225,34.59272788391113,32.34549425Q34.45322788391113,32.31876615,34.312627883911134,32.29866755Q34.172027883911134,32.27856885,34.03062788391114,32.26514465Q33.88922788391113,32.25172045,33.74742788391113,32.24500087Q33.60552788391114,32.23828125,33.463507883911134,32.23828125L29.596317883911134,32.23828125Q29.45429788391113,32.23828125,29.312427883911134,32.24500087Q29.170567883911133,32.25172045,29.029187883911135,32.26514465Q28.887797883911134,32.27856885,28.747207883911134,32.29866755Q28.60660788391113,32.31876615,28.467127883911132,32.34549425Q28.327647883911133,32.37222225,28.189577883911134,32.40552025Q28.05151788391113,32.43881825,27.915187883911134,32.47861125Q27.778857883911133,32.51840325,27.644557883911133,32.56460225Q27.510257883911134,32.61080125,27.37829788391113,32.66330225Q27.24633788391113,32.71580325,27.117007883911132,32.77448925Q26.987677883911132,32.83317525,26.861267883911133,32.89791425Q26.734857883911133,32.96265325,26.611657883911132,33.03330125Q26.48845788391113,33.10394925,26.368727883911134,33.18034625Q26.249007883911133,33.25674125,26.133037883911133,33.33872125Q26.017057883911132,33.42070125,25.905097883911132,33.50807125Q25.793127883911133,33.59544125,25.68542788391113,33.68801125Q25.577717883911134,33.78058125,25.474507883911134,33.87815125Q25.371307883911133,33.97571125,25.272837883911134,34.07805125Q25.17435788391113,34.18039125,25.080837883911133,34.28727125Q24.987317883911132,34.39415125,24.898957883911134,34.50534125Q24.810597883911132,34.61653125,24.727597883911134,34.73177125Q24.644597883911132,34.84702125,24.56714288391113,34.96606125Q24.489688883911132,35.08510125,24.41795388391113,35.20767125Q24.34621888391113,35.33025125,24.28036288391113,35.45608125Q24.214507883911132,35.58191125,24.15467888391113,35.71071125Q24.094850883911132,35.83952125,24.04118388391113,35.971011250000004Q23.987516883911134,36.10250125,23.940131883911132,36.23638125Q23.892746883911133,36.37027125,23.85174888391113,36.50624125Q23.810750883911133,36.64222125,23.77623288391113,36.77998125Q23.74171388391113,36.91774125,23.713752883911134,37.05699125Q23.685791083911134,37.19623125,23.664448983911132,37.33664125Q23.643106783911133,37.47705125,23.628431883911134,37.61831125Q23.613756953911132,37.75957125,23.605782113911133,37.90137125L27.119707883911133,37.90137125Q27.149907883911133,37.78075125,27.189977883911133,37.66305125Q27.230047883911134,37.54535125,27.279717883911133,37.43136125Q27.329397883911135,37.31738125,27.38832788391113,37.20789125Q27.44726788391113,37.09841125,27.515057883911133,36.99418125Q27.582847883911132,36.88995125,27.659037883911132,36.79169125Q27.735217883911133,36.69343125,27.819277883911134,36.60181125Q27.903327883911132,36.51018125,27.994677883911134,36.42583125Q28.086027883911132,36.34148125,28.18403788391113,36.26498125Q28.282057883911133,36.18847125,28.38606788391113,36.12034125Q28.490077883911134,36.05221125,28.599367883911132,35.99292125Q28.708657883911133,35.93363125,28.822477883911134,35.88359125Q28.93629788391113,35.83355125,29.053877883911134,35.79310125Q29.17144788391113,35.752641249999996,29.291967883911134,35.72206125Q29.412477883911134,35.69147125,29.535117883911134,35.67097125Q29.65774788391113,35.65046125,29.781657883911134,35.64017125Q29.905567883911132,35.62988125,30.029907883911132,35.62988125L33.11974788391113,35.62988125Q33.244087883911135,35.62988125,33.36799788391113,35.64017125Q33.49190788391113,35.65046125,33.61452788391114,35.67097125Q33.73722788391113,35.69147125,33.85772788391113,35.72206125Q33.97822788391113,35.752641249999996,34.095827883911134,35.79310125Q34.213327883911134,35.83355125,34.327227883911135,35.88359125Q34.44102788391113,35.93363125,34.55032788391113,35.99292125Q34.659627883911135,36.05221125,34.763627883911134,36.12034125Q34.86762788391113,36.18847125,34.96562788391113,36.26498125Q35.06362788391113,36.34148125,35.15502788391113,36.42583125Q35.246327883911135,36.51018125,35.330427883911135,36.60181125Q35.41442788391113,36.69343125,35.49062788391113,36.79169125Q35.56682788391113,36.88995125,35.634627883911136,36.99418125Q35.702427883911135,37.09841125,35.761327883911136,37.20789125Q35.82022788391113,37.31738125,35.86992788391113,37.43136125Q35.91962788391113,37.54535125,35.959727883911135,37.66305125Q35.999727883911135,37.78075125,36.029927883911135,37.90137125L39.45402788391113,37.90137125Z"
                      fill-rule="evenodd"  fill-opacity="1"/>
            </g>
            <g>
                <rect x="24.76171875" y="54.873046875" width="13.57421875" height="2.3271484375" rx="0" 
                      fill-opacity="1"/>
            </g>
            <g>
                <path d="M22.916731249999998,6.3752465625L22.91783125,6.3752965625Q22.96493125,6.3777765625,23.01223125,6.3777765625Q23.10063125,6.3777765625,23.18863125,6.3691065625Q23.27663125,6.3604365625,23.36333125,6.3431865625Q23.45013125,6.3259365625,23.53473125,6.3002665625Q23.61933125,6.2745965625,23.70103125,6.2407565625Q23.78273125,6.2069165625,23.86073125,6.1652365625000005Q23.93873125,6.1235465625,24.01223125,6.0744165625Q24.08573125,6.0252965624999995,24.15413125,5.9691965625000005Q24.22243125,5.9130965625,24.28503125,5.8505665625Q24.34753125,5.7880365625,24.40363125,5.7196865625Q24.45973125,5.6513265624999995,24.50883125,5.5778065625Q24.55803125,5.5042765625,24.59963125,5.4262895625Q24.64133125,5.3483035625,24.67523125,5.2666055625Q24.70903125,5.1849085625,24.73473125,5.1002885625Q24.76033125,5.0156675625,24.77763125,4.9289385625Q24.79483125,4.8422095625,24.80353125,4.7542065625Q24.81223125,4.6662045625,24.81223125,4.5777758625Q24.81223125,4.4923059625,24.80413125,4.4072205625Q24.79603125,4.3221355625,24.77993125,4.2381995625Q24.76373125,4.1542645625,24.73973125,4.0722355625Q24.71573125,3.9902055625,24.68413125,3.9108195625Q24.65243125,3.8314335625,24.61333125,3.7554045625Q24.57433125,3.6793765625,24.52823125,3.6073905625Q24.48213125,3.5354065625,24.42943125,3.4681065625Q24.37683125,3.4008165625,24.31793125,3.3388065625000003Q24.25913125,3.2768065625,24.19473125,3.2206665625Q24.13023125,3.1645165625000002,24.06073125,3.1147265625Q23.99133125,3.0649365625,23.91743125,3.0219565624999998Q23.84353125,2.9789665625,23.76593125,2.9431765624999997Q23.68833125,2.9073965625,23.60763125,2.8791165625Q23.52703125,2.8508465625,23.44403125,2.8303365625000003Q23.36103125,2.8098365625,23.27653125,2.7972865625Q23.19193125,2.7847365625,23.10663125,2.7802565625L23.10623125,2.7802365625Q19.72543125,2.6027365625,16.27154125,4.2359205625Q13.07336125,5.7482065625,10.478451249999999,8.4826565625Q7.87176425,11.2295265625,6.52294725,14.5279665625Q5.05876125,18.108576562499998,5.41247125,21.5650765625Q5.42089125,21.6472765625,5.43681125,21.7284765625Q5.45273125,21.8095765625,5.4760212500000005,21.8888765625Q5.4993212499999995,21.9682765625,5.52978125,22.0450765625Q5.56025125,22.1219765625,5.59763125,22.1956765625Q5.63502125,22.2694765625,5.67900125,22.3394765625Q5.72299125,22.4094765625,5.77321125,22.4751765625Q5.8234312500000005,22.5408765625,5.87946125,22.6016765625Q5.93549125,22.6624765625,5.99685125,22.7178765625Q6.05822125,22.7732765625,6.12441125,22.8227765625Q6.19059825,22.8723765625,6.26104925,22.9155765625Q6.33150025,22.9588765625,6.40562125,22.9954765625Q6.47974325,23.0321765625,6.55691025,23.0618765625Q6.63407725,23.0914765625,6.71364125,23.1139765625Q6.79320425,23.1364765625,6.87449425,23.1515765625Q6.95578425,23.1666765625,7.03811525,23.1742765625Q7.12044585,23.1818765625,7.20312505,23.1818765625Q7.29155325,23.1818765625,7.37955625,23.1731765625Q7.46755825,23.1644765625,7.55428725,23.1472765625Q7.64101725,23.1299765625,7.72563725,23.1043765625Q7.81025825,23.0786765625,7.89195525,23.0447765625Q7.97365225,23.0109765625,8.051639250000001,22.9692765625Q8.12962625,22.9275765625,8.20315125,22.8784765625Q8.27668125,22.8293765625,8.34503125,22.7732765625Q8.41339125,22.7171765625,8.47592125,22.6546765625Q8.53844125,22.5920765625,8.59454125,22.5237765625Q8.65064125,22.4553765625,8.69977125,22.3818765625Q8.74890125,22.3083765625,8.79058125,22.2303765625Q8.83227125,22.1523765625,8.86611125,22.0706765625Q8.89995125,21.9889765625,8.92562125,21.9043765625Q8.95129125,21.8197765625,8.96854125,21.7329765625Q8.98579125,21.6462765625,8.99446125,21.5582765625Q9.00312125,21.4702765625,9.00312125,21.3818765625Q9.00312125,21.2899765625,8.99377125,21.1985765625L8.99343125,21.1952765625Q8.73245125,18.635976562499998,9.85511125,15.8905765625Q10.94819125,13.2175065625,13.08980125,10.9607365625Q15.22111125,8.7148065625,17.81043125,7.4904165625Q20.44303125,6.2455665625000005,22.916731249999998,6.3752465625ZM23.47473125,12.9980165625Q23.61753125,12.9600365625,23.75223125,12.8992665625Q23.88703125,12.8384865625,24.01003125,12.7565465625Q24.13303125,12.6746065625,24.24103125,12.5736965625Q24.34903125,12.4727865625,24.43913125,12.3556065625Q24.52923125,12.238426562499999,24.59903125,12.108116562500001Q24.66883125,11.9778065625,24.71643125,11.8378665625Q24.76403125,11.6979165625,24.78813125,11.552086562500001Q24.81223125,11.406256562500001,24.81223125,11.2584365625Q24.81223125,11.1700065625,24.80353125,11.0820065625Q24.79483125,10.994006562500001,24.77763125,10.9072765625Q24.76033125,10.820546562499999,24.73473125,10.735926562500001Q24.70903125,10.6513065625,24.67523125,10.569606562499999Q24.64133125,10.4879165625,24.59963125,10.4099265625Q24.55803125,10.331936562500001,24.50883125,10.258416562499999Q24.45973125,10.184886562500001,24.40363125,10.1165365625Q24.34753125,10.0481765625,24.28503125,9.985646562500001Q24.22243125,9.923116562499999,24.15413125,9.8670165625Q24.08573125,9.8109265625,24.01223125,9.761796562499999Q23.93873125,9.7126665625,23.86073125,9.6709765625Q23.78273125,9.6292965625,23.70103125,9.5954565625Q23.61933125,9.5616165625,23.53473125,9.535946562500001Q23.45013125,9.5102765625,23.36333125,9.493026562499999Q23.27663125,9.4757765625,23.18863125,9.4671065625Q23.10063125,9.458436562500001,23.01223125,9.458436562500001Q22.77703125,9.458436562500001,22.54973125,9.518866562500001L22.54843125,9.519216562499999Q18.029431250000002,10.7209065625,15.48262125,13.4169965625Q13.23360125,15.7978765625,11.37540125,20.7448765625Q11.374791250000001,20.7465765625,11.37418125,20.7481765625L11.37398125,20.7486765625Q11.25909125,21.0546765625,11.25909125,21.3814765625Q11.25909125,21.4698765625,11.26776125,21.5578765625Q11.27642125,21.6458765625,11.29367125,21.7326765625Q11.31093125,21.8193765625,11.336601250000001,21.9039765625Q11.36226125,21.9885765625,11.396101250000001,22.0702765625Q11.429941249999999,22.1519765625,11.47163125,22.2299765625Q11.513311250000001,22.3079765625,11.56244125,22.3814765625Q11.61157125,22.4550765625,11.66767125,22.5233765625Q11.72377125,22.5917765625,11.786301250000001,22.6542765625Q11.84882125,22.7167765625,11.917181249999999,22.7728765625Q11.98554125,22.8289765625,12.05906125,22.8781765625Q12.13259125,22.9272765625,12.210571250000001,22.9689765625Q12.28856125,23.0106765625,12.37026125,23.0444765625Q12.45196125,23.0782765625,12.536581250000001,23.1039765625Q12.62120125,23.1296765625,12.70793125,23.1468765625Q12.79466125,23.1641765625,12.88266125,23.1727765625Q12.97066125,23.1814765625,13.05909125,23.1814765625Q13.195651250000001,23.1814765625,13.330651249999999,23.1608765625Q13.46565125,23.1402765625,13.59600125,23.0995765625Q13.72635125,23.0587765625,13.849051249999999,22.9988765625Q13.97176125,22.9389765625,14.084031249999999,22.8611765625Q14.19629125,22.7834765625,14.29553125,22.6895765625Q14.394781250000001,22.5957765625,14.478741249999999,22.4880765625Q14.56269125,22.3803765625,14.62944125,22.2612765625Q14.69619125,22.1420765625,14.74420125,22.0142765625L14.74424125,22.0141765625L14.744731250000001,22.0128765625Q16.34822125,17.7431765625,18.09963125,15.8890765625Q19.94293125,13.9376765625,23.47113125,12.9989765625L23.47333125,12.9983665625L23.47473125,12.9980165625L23.47473125,12.9980165625Z"
                      fill-rule="evenodd"  fill-opacity="1"/>
            </g>
        </g>
    </g>
</svg>