<svg xmlns="http://www.w3.org/2000/svg" xmlns:xlink="http://www.w3.org/1999/xlink" fill="none" version="1.1"
     width="85.94140625" height="36.03125" viewBox="0 0 85.94140625 36.03125">
    <g>
        <g>
            <path d="M29.101594199218752,31.9837C24.95081419921875,31.6433,21.75555419921875,28.1752,21.75555419921875,24.0105L21.75555419921875,21.3861L28.36883419921875,21.3861L28.36883419921875,26.2348C28.36883419921875,26.7494,28.75941419921875,27.18,29.27159419921875,27.23L71.79235419921875,31.3844C72.38025419921874,31.4418,72.88965419921874,30.9799,72.88965419921874,30.3891L72.88965419921874,5.48633C72.88965419921874,4.93404,72.44195419921874,4.48633,71.88965419921874,4.48633L29.36883419921875,4.48633C28.81655419921875,4.48633,28.36883419921875,4.93404,28.36883419921875,5.48633L28.36883419921875,11.2754L21.75555419921875,11.2754L21.75555419921875,8C21.75555419921875,3.58172,25.33727419921875,0,29.75555419921875,0L70.45005419921876,0C74.86825419921874,0,78.45005419921876,3.58172,78.45005419921876,8L78.45005419921876,25.7832L85.94045419921875,25.7832L85.94045419921875,30.6946C85.94045419921875,31.8632,85.42935419921875,32.9734,84.54155419921875,33.7334L82.81445419921874,35.2118C82.27085419921875,35.677,81.57905419921875,35.9327,80.86355419921875,35.9327L78.45005419921876,35.9327L78.45005419921876,36.0312L77.24845419921874,35.9327L76.40395419921876,35.9327L76.40395419921876,35.8634L29.101594199218752,31.9837Z"
                  fill-rule="evenodd" fill="#FFFFFF" fill-opacity="1"/>
        </g>
        <g>
            <path d="M18.421861418533325,20.056006317138674C18.421861418533325,21.56230631713867,16.819661418533325,22.528006317138672,15.487761418533324,21.82440631713867L1.0661614185333252,14.206806317138671C-0.4961725814666748,13.381566317138672,-0.2992495814666748,11.084056317138671,1.3807214185333252,10.536726317138672L15.802361418533325,5.838184317138672C17.094861418533327,5.417078317138672,18.421861418533325,6.380403317138672,18.421861418533325,7.739806317138672L18.421861418533325,13.495736317138672Q24.904461418533327,15.077746317138672,30.246361418533326,14.958016317138672Q35.912661418533325,14.831016317138673,44.100161418533325,12.619896317138672Q44.420361418533325,12.533426317138673,44.75196141853333,12.533426317138673Q44.874761418533325,12.533426317138673,44.99706141853333,12.545466317138672Q45.11926141853333,12.557506317138671,45.23966141853332,12.581466317138672Q45.36016141853332,12.605426317138672,45.47766141853332,12.641076317138673Q45.59516141853332,12.676726317138673,45.708661418533325,12.723726317138672Q45.82216141853333,12.77072631713867,45.930461418533326,12.82862631713867Q46.038761418533326,12.886516317138671,46.140861418533326,12.95475631713867Q46.242961418533326,13.022986317138672,46.337961418533325,13.100906317138673Q46.43286141853333,13.178816317138672,46.51976141853333,13.26565631713867Q46.606561418533325,13.352506317138673,46.684461418533324,13.447446317138672Q46.762361418533324,13.542386317138671,46.830661418533325,13.64450631713867Q46.89886141853332,13.746616317138672,46.956761418533326,13.854936317138671Q47.01466141853332,13.963246317138672,47.061661418533326,14.076716317138672Q47.10866141853332,14.190186317138672,47.14436141853332,14.307716317138672Q47.179961418533324,14.425246317138672,47.203961418533325,14.545706317138672Q47.22786141853332,14.666156317138672,47.239961418533326,14.788386317138672Q47.25196141853333,14.910606317138672,47.25196141853333,15.033426317138671Q47.25196141853333,15.135606317138672,47.24366141853333,15.237446317138671Q47.23526141853333,15.339286317138672,47.21866141853332,15.440106317138671Q47.202061418533326,15.540926317138672,47.17726141853333,15.640046317138673Q47.15246141853333,15.739206317138672,47.119661418533326,15.835906317138672Q47.086861418533324,15.932706317138672,47.04626141853333,16.026506317138672Q47.00566141853332,16.12030631713867,46.957561418533324,16.21040631713867Q46.909461418533326,16.300606317138673,46.85416141853332,16.38650631713867Q46.79886141853333,16.47240631713867,46.73676141853333,16.55350631713867Q46.67456141853332,16.634606317138672,46.60606141853332,16.71040631713867Q46.53756141853332,16.78620631713867,46.46306141853333,16.85610631713867Q46.38856141853333,16.92610631713867,46.30856141853332,16.989706317138673Q46.22866141853333,17.05330631713867,46.14376141853332,17.110206317138672Q46.058861418533326,17.16710631713867,45.969561418533324,17.216806317138673Q45.880361418533326,17.266606317138674,45.78736141853332,17.30890631713867Q45.694361418533326,17.351306317138672,45.59816141853332,17.385806317138673Q45.50206141853332,17.42040631713867,45.40336141853332,17.447106317138672L45.39526141853332,17.44930631713867Q36.627761418533325,19.816206317138672,30.358461418533324,19.95680631713867Q24.863261418533327,20.079906317138672,18.421861418533325,18.631106317138673L18.421861418533325,20.056006317138674Z"
                  fill-rule="evenodd" fill="#FFFFFF" fill-opacity="1"/>
        </g>
    </g>
</svg>