<svg xmlns="http://www.w3.org/2000/svg" xmlns:xlink="http://www.w3.org/1999/xlink" fill="none" version="1.1"
     width="82.1171875" height="44.572265625" viewBox="0 0 82.1171875 44.572265625">
    <g>
        <g>
            <path d="M33.878635,38.22773125C29.774275,37.83503125,26.640625,34.38723125,26.640625,30.26413125L26.640625,27.45703125L32.359375,27.45703125L32.359375,32.36823125C32.359375,32.87673125,32.740935,33.30423125,33.246125,33.36183125L69.724625,37.51963125C70.317925,37.58723125,70.837925,37.12313125,70.837925,36.52603125L70.837925,11.41797125C70.837925,10.86568125,70.390125,10.41797125,69.837925,10.41797125L33.359375,10.41797125C32.807095000000004,10.41797125,32.359375,10.86568125,32.359375,11.41797125L32.359375,17.26273125L26.640625,17.26273125L26.640625,13.89453125C26.640625,9.47625125,30.222345,5.89453125,34.640625,5.89453125L67.640625,5.89453125C72.058925,5.89453125,75.640625,9.47625125,75.640625,13.89453125L75.640625,31.89063125L82.11722499999999,31.89063125L82.11722499999999,37.04073125C82.11722499999999,38.10253125,81.695025,39.12083125,80.943625,39.87113125L79.565925,41.24683125C79.003425,41.80853125,78.24102500000001,42.12403125,77.446125,42.12403125L75.640625,42.12403125L75.640625,42.22363125L74.599625,42.12403125L73.875025,42.12403125L73.875025,42.05473125L33.878635,38.22773125Z"
                  fill-rule="evenodd" fill="#FFFFFF" fill-opacity="1"/>
        </g>
        <g>
            <g>
                <rect x="19.91015625" y="9.865234375" width="5.650390625" height="26.14453125" rx="0" fill="#FFFFFF"
                      fill-opacity="1"/>
            </g>
            <g>
                <path d="M28.238771874999998,11.3742Q28.268871875000002,11.4311,28.291371875,11.4914Q28.313971875,11.5517,28.328571875,11.6144Q28.343171875,11.6771,28.349671875,11.7412Q28.356071874999998,11.8052,28.354271875000002,11.8696Q28.352471875,11.9339,28.342471875,11.9975Q28.332371875,12.0611,28.314271875,12.1228Q28.296171875,12.1846,28.270371875000002,12.2436Q28.244471875000002,12.3025,28.211271875,12.3576Q28.177971875,12.4128,28.137971874999998,12.4632Q28.097971875,12.5136,28.051871875,12.5585Q28.005671875,12.6034,27.954171875,12.642Q27.902671875,12.6805,27.846571875000002,12.7122Q27.790571874999998,12.7439,27.730871875,12.7681Q27.671271875000002,12.7923,27.608971875,12.8087Q27.546771874999997,12.825,27.482871875,12.8333Q27.419071875,12.8416,27.354671875,12.8416L17.098441875,12.8416Q17.034061875,12.8416,16.970221875,12.8333Q16.906381875,12.825,16.844131875,12.8087Q16.781871875,12.7923,16.722231875,12.7681Q16.662591875,12.7439,16.606541875,12.7122Q16.550501875000002,12.6805,16.498971875,12.642Q16.447451875,12.6034,16.401301875,12.5585Q16.355151875,12.5136,16.315131875,12.4632Q16.275121875,12.4128,16.241901875,12.3576Q16.208681875,12.3025,16.182801875,12.2436Q16.156921875000002,12.1846,16.138811875000002,12.1228Q16.120711875,12.0611,16.110671875,11.9975Q16.100631875,11.9339,16.098831875,11.8696Q16.097021875,11.8052,16.103491875,11.7412Q16.109951875,11.6771,16.124571875,11.6144Q16.139191875,11.5517,16.161731875,11.4914Q16.184261875,11.4311,16.214341875,11.3742L21.342471875,1.67257Q21.358311875,1.6426,21.376151874999998,1.61376Q21.393991875,1.58493,21.413741875,1.55737Q21.433491875,1.52981,21.455061875,1.50366Q21.476631875,1.4775,21.499931875,1.45286Q21.523221875,1.42822,21.548131875,1.40522Q21.573041875,1.38222,21.599451875,1.36096Q21.625861875,1.3397,21.653651875,1.32027Q21.681441875,1.30085,21.710481875,1.28335Q21.739521875,1.26585,21.769681875,1.25036Q21.799841875,1.23487,21.830981875,1.22146Q21.862111875,1.20804,21.894091875,1.19677Q21.926071874999998,1.1855,21.958731874999998,1.17642Q21.991401875,1.16734,22.024611874999998,1.16049Q22.057811875,1.15364,22.091411875,1.14906Q22.125001875,1.14448,22.158831875,1.14218Q22.192661875,1.13989,22.226561875,1.13989Q22.260471875,1.13989,22.294291875,1.14218Q22.328121875,1.14448,22.361711875,1.14906Q22.395311875,1.15364,22.428511874999998,1.16049Q22.461721875000002,1.16734,22.494391874999998,1.17642Q22.527051874999998,1.1855,22.559031875000002,1.19677Q22.591011875,1.20804,22.622141875,1.22146Q22.653291875,1.23487,22.683441875,1.25036Q22.713601875000002,1.26585,22.742641875,1.28335Q22.771691875000002,1.30085,22.799471875000002,1.32027Q22.827261874999998,1.3397,22.853671875,1.36096Q22.880081875000002,1.38222,22.904991875,1.40522Q22.929901875,1.42822,22.953191875,1.45286Q22.976491875,1.4775,22.998061874999998,1.50366Q23.019631875,1.52981,23.039381875,1.55737Q23.059131875,1.58493,23.076971874999998,1.61376Q23.094811874999998,1.6426,23.110651875000002,1.67257L28.238771874999998,11.3742Z"
                      fill="#FFFFFF" fill-opacity="1"/>
            </g>
            <g transform="matrix(1,0,0,-1,0,89.142578125)">
                <path d="M28.238771874999998,55.9454890625Q28.268871875000002,56.0023890625,28.291371875,56.0626890625Q28.313971875,56.1229890625,28.328571875,56.1856890625Q28.343171875,56.248389062499996,28.349671875,56.3124890625Q28.356071874999998,56.3764890625,28.354271875000002,56.4408890625Q28.352471875,56.5051890625,28.342471875,56.5687890625Q28.332371875,56.632389062499996,28.314271875,56.6940890625Q28.296171875,56.7558890625,28.270371875000002,56.8148890625Q28.244471875000002,56.8737890625,28.211271875,56.9288890625Q28.177971875,56.984089062500004,28.137971874999998,57.0344890625Q28.097971875,57.0848890625,28.051871875,57.1297890625Q28.005671875,57.1746890625,27.954171875,57.213289062499996Q27.902671875,57.2517890625,27.846571875000002,57.283489062499996Q27.790571874999998,57.3151890625,27.730871875,57.339389062500004Q27.671271875000002,57.3635890625,27.608971875,57.3799890625Q27.546771874999997,57.3962890625,27.482871875,57.4045890625Q27.419071875,57.4128890625,27.354671875,57.4128890625L17.098441875,57.4128890625Q17.034061875,57.4128890625,16.970221875,57.4045890625Q16.906381875,57.3962890625,16.844131875,57.3799890625Q16.781871875,57.3635890625,16.722231875,57.339389062500004Q16.662591875,57.3151890625,16.606541875,57.283489062499996Q16.550501875000002,57.2517890625,16.498971875,57.213289062499996Q16.447451875,57.1746890625,16.401301875,57.1297890625Q16.355151875,57.0848890625,16.315131875,57.0344890625Q16.275121875,56.984089062500004,16.241901875,56.9288890625Q16.208681875,56.8737890625,16.182801875,56.8148890625Q16.156921875000002,56.7558890625,16.138811875000002,56.6940890625Q16.120711875,56.632389062499996,16.110671875,56.5687890625Q16.100631875,56.5051890625,16.098831875,56.4408890625Q16.097021875,56.3764890625,16.103491875,56.3124890625Q16.109951875,56.248389062499996,16.124571875,56.1856890625Q16.139191875,56.1229890625,16.161731875,56.0626890625Q16.184261875,56.0023890625,16.214341875,55.9454890625L21.342471875,46.2438590625Q21.358311875,46.2138890625,21.376151874999998,46.1850490625Q21.393991875,46.1562190625,21.413741875,46.1286590625Q21.433491875,46.1010990625,21.455061875,46.074949062499996Q21.476631875,46.0487890625,21.499931875,46.0241490625Q21.523221875,45.9995090625,21.548131875,45.9765090625Q21.573041875,45.9535090625,21.599451875,45.9322490625Q21.625861875,45.9109890625,21.653651875,45.8915590625Q21.681441875,45.8721390625,21.710481875,45.8546390625Q21.739521875,45.8371390625,21.769681875,45.8216490625Q21.799841875,45.8061590625,21.830981875,45.7927490625Q21.862111875,45.7793290625,21.894091875,45.7680590625Q21.926071874999998,45.7567890625,21.958731874999998,45.7477090625Q21.991401875,45.7386290625,22.024611874999998,45.7317790625Q22.057811875,45.7249290625,22.091411875,45.7203490625Q22.125001875,45.7157690625,22.158831875,45.7134690625Q22.192661875,45.7111790625,22.226561875,45.7111790625Q22.260471875,45.7111790625,22.294291875,45.7134690625Q22.328121875,45.7157690625,22.361711875,45.7203490625Q22.395311875,45.7249290625,22.428511874999998,45.7317790625Q22.461721875000002,45.7386290625,22.494391874999998,45.7477090625Q22.527051874999998,45.7567890625,22.559031875000002,45.7680590625Q22.591011875,45.7793290625,22.622141875,45.7927490625Q22.653291875,45.8061590625,22.683441875,45.8216490625Q22.713601875000002,45.8371390625,22.742641875,45.8546390625Q22.771691875000002,45.8721390625,22.799471875000002,45.8915590625Q22.827261874999998,45.9109890625,22.853671875,45.9322490625Q22.880081875000002,45.9535090625,22.904991875,45.9765090625Q22.929901875,45.9995090625,22.953191875,46.0241490625Q22.976491875,46.0487890625,22.998061874999998,46.074949062499996Q23.019631875,46.1010990625,23.039381875,46.1286590625Q23.059131875,46.1562190625,23.076971874999998,46.1850490625Q23.094811874999998,46.2138890625,23.110651875000002,46.2438590625L28.238771874999998,55.9454890625Z"
                      fill="#FFFFFF" fill-opacity="1"/>
            </g>
            <g transform="matrix(0,1,-1,0,60.1953125,-31.3046875)">
                <g>
                    <rect x="51.271484375" y="24.571648597717285" width="5.650390625" height="26.836496353149414" rx="0"
                          fill="#FFFFFF" fill-opacity="1"/>
                </g>
                <g>
                    <path d="M59.625,26.168912499999998Q59.6543,26.2258125,59.6761,26.2860125Q59.697900000000004,26.3463125,59.7119,26.4087125Q59.725899999999996,26.4712125,59.731700000000004,26.5350125Q59.7376,26.5988125,59.7353,26.6628125Q59.733000000000004,26.7268125,59.7225,26.7899125Q59.7121,26.8531125,59.6937,26.914412499999997Q59.675200000000004,26.9758125,59.649100000000004,27.034212500000002Q59.6231,27.092712499999998,59.5897,27.1474125Q59.5564,27.2021125,59.5163,27.2520125Q59.4763,27.3020125,59.4302,27.3465125Q59.384100000000004,27.3909125,59.3327,27.429112500000002Q59.2813,27.4673125,59.2255,27.4987125Q59.1697,27.530012499999998,59.1103,27.5540125Q59.0509,27.5780125,58.989000000000004,27.594212499999998Q58.927,27.610412500000002,58.8635,27.618612499999998Q58.8,27.6267125,58.7359,27.6267125L48.43983,27.6267125Q48.3758,27.6267125,48.31228,27.618612499999998Q48.24877,27.610412500000002,48.18682,27.594212499999998Q48.12487,27.5780125,48.06549,27.5540125Q48.00611,27.530012499999998,47.95027,27.4987125Q47.89444,27.4673125,47.84305,27.429112500000002Q47.791669999999996,27.3909125,47.74558,27.3465125Q47.69949,27.3020125,47.65945,27.2520125Q47.61941,27.2021125,47.58607,27.1474125Q47.55273,27.092712499999998,47.52663,27.034212500000002Q47.50054,26.9758125,47.48211,26.914412499999997Q47.46369,26.8531125,47.45324,26.7899125Q47.44279,26.7268125,47.44048,26.6628125Q47.43817,26.5988125,47.44405,26.5350125Q47.44992,26.4712125,47.46388,26.4087125Q47.47784,26.3463125,47.49965,26.2860125Q47.52147,26.2258125,47.55079,26.168912499999998L52.69884,16.1717725Q52.71452,16.1413325,52.73224,16.1120325Q52.74996,16.0827425,52.76965,16.0547225Q52.78933,16.0267025,52.81088,16.0001025Q52.83244,15.9734925,52.855760000000004,15.9484225Q52.87908,15.9233625,52.90407,15.8999425Q52.929050000000004,15.8765325,52.95558,15.8548825Q52.9821,15.8332325,53.01005,15.8134425Q53.03799,15.7936625,53.06723,15.7758325Q53.09646,15.7580025,53.12684,15.7422125Q53.15723,15.7264325,53.18862,15.7127625Q53.22001,15.699092499999999,53.25227,15.687592500000001Q53.28452,15.6761025,53.31749,15.6668425Q53.35045,15.6575825,53.38397,15.6506025Q53.41749,15.6436225,53.45141,15.6389525Q53.48533,15.6342725,53.51949,15.6319325Q53.55365,15.6295925,53.58789,15.6295925Q53.62213,15.6295925,53.65629,15.6319325Q53.69045,15.6342725,53.72437,15.6389525Q53.75829,15.6436225,53.79181,15.6506025Q53.82533,15.6575825,53.8583,15.6668425Q53.89126,15.6761025,53.923519999999996,15.687592500000001Q53.95577,15.699092499999999,53.98716,15.7127625Q54.01856,15.7264325,54.04894,15.7422125Q54.079319999999996,15.7580025,54.10856,15.7758325Q54.13779,15.7936625,54.16574,15.8134425Q54.19368,15.8332325,54.22021,15.8548825Q54.24673,15.8765325,54.27172,15.8999425Q54.2967,15.9233625,54.32002,15.9484225Q54.34335,15.9734925,54.3649,16.0001025Q54.386449999999996,16.0267025,54.40614,16.0547225Q54.42582,16.0827425,54.44354,16.1120325Q54.461259999999996,16.1413325,54.47694,16.1717725L59.625,26.168912499999998Z"
                          fill="#FFFFFF" fill-opacity="1"/>
                </g>
                <g transform="matrix(1,0,0,-1,0,120.39252471923828)">
                    <path d="M59.625,71.91986235961915Q59.6543,71.97676235961914,59.6761,72.03696235961914Q59.697900000000004,72.09726235961914,59.7119,72.15966235961915Q59.725899999999996,72.22216235961915,59.731700000000004,72.28596235961913Q59.7376,72.34976235961913,59.7353,72.41376235961914Q59.733000000000004,72.47776235961913,59.7225,72.54086235961914Q59.7121,72.60406235961914,59.6937,72.66536235961914Q59.675200000000004,72.72676235961914,59.649100000000004,72.78516235961914Q59.6231,72.84366235961915,59.5897,72.89836235961914Q59.5564,72.95306235961914,59.5163,73.00296235961915Q59.4763,73.05296235961914,59.4302,73.09746235961914Q59.384100000000004,73.14186235961914,59.3327,73.18006235961914Q59.2813,73.21826235961915,59.2255,73.24966235961914Q59.1697,73.28096235961914,59.1103,73.30496235961914Q59.0509,73.32896235961914,58.989000000000004,73.34516235961914Q58.927,73.36136235961914,58.8635,73.36956235961914Q58.8,73.37766235961914,58.7359,73.37766235961914L48.43983,73.37766235961914Q48.3758,73.37766235961914,48.31228,73.36956235961914Q48.24877,73.36136235961914,48.18682,73.34516235961914Q48.12487,73.32896235961914,48.06549,73.30496235961914Q48.00611,73.28096235961914,47.95027,73.24966235961914Q47.89444,73.21826235961915,47.84305,73.18006235961914Q47.791669999999996,73.14186235961914,47.74558,73.09746235961914Q47.69949,73.05296235961914,47.65945,73.00296235961915Q47.61941,72.95306235961914,47.58607,72.89836235961914Q47.55273,72.84366235961915,47.52663,72.78516235961914Q47.50054,72.72676235961914,47.48211,72.66536235961914Q47.46369,72.60406235961914,47.45324,72.54086235961914Q47.44279,72.47776235961913,47.44048,72.41376235961914Q47.43817,72.34976235961913,47.44405,72.28596235961913Q47.44992,72.22216235961915,47.46388,72.15966235961915Q47.47784,72.09726235961914,47.49965,72.03696235961914Q47.52147,71.97676235961914,47.55079,71.91986235961915L52.69884,61.922722359619144Q52.71452,61.89228235961914,52.73224,61.86298235961914Q52.74996,61.83369235961914,52.76965,61.80567235961914Q52.78933,61.77765235961914,52.81088,61.75105235961914Q52.83244,61.72444235961914,52.855760000000004,61.69937235961914Q52.87908,61.674312359619144,52.90407,61.65089235961914Q52.929050000000004,61.627482359619144,52.95558,61.60583235961914Q52.9821,61.58418235961914,53.01005,61.56439235961914Q53.03799,61.54461235961914,53.06723,61.52678235961914Q53.09646,61.508952359619144,53.12684,61.49316235961914Q53.15723,61.47738235961914,53.18862,61.46371235961914Q53.22001,61.45004235961914,53.25227,61.43854235961914Q53.28452,61.42705235961914,53.31749,61.41779235961914Q53.35045,61.40853235961914,53.38397,61.40155235961914Q53.41749,61.39457235961914,53.45141,61.38990235961914Q53.48533,61.38522235961914,53.51949,61.38288235961914Q53.55365,61.38054235961914,53.58789,61.38054235961914Q53.62213,61.38054235961914,53.65629,61.38288235961914Q53.69045,61.38522235961914,53.72437,61.38990235961914Q53.75829,61.39457235961914,53.79181,61.40155235961914Q53.82533,61.40853235961914,53.8583,61.41779235961914Q53.89126,61.42705235961914,53.923519999999996,61.43854235961914Q53.95577,61.45004235961914,53.98716,61.46371235961914Q54.01856,61.47738235961914,54.04894,61.49316235961914Q54.079319999999996,61.508952359619144,54.10856,61.52678235961914Q54.13779,61.54461235961914,54.16574,61.56439235961914Q54.19368,61.58418235961914,54.22021,61.60583235961914Q54.24673,61.627482359619144,54.27172,61.65089235961914Q54.2967,61.674312359619144,54.32002,61.69937235961914Q54.34335,61.72444235961914,54.3649,61.75105235961914Q54.386449999999996,61.77765235961914,54.40614,61.80567235961914Q54.42582,61.83369235961914,54.44354,61.86298235961914Q54.461259999999996,61.89228235961914,54.47694,61.922722359619144L59.625,71.91986235961915Z"
                          fill="#FFFFFF" fill-opacity="1"/>
                </g>
            </g>
        </g>
    </g>
</svg>