<svg xmlns="http://www.w3.org/2000/svg" xmlns:xlink="http://www.w3.org/1999/xlink" fill="none" version="1.1" width="77.55078125" height="37.2412109375" viewBox="0 0 77.55078125 37.2412109375"><g><g><path d="M21.8971475,33.0669C17.7612675,32.7094,14.5859375,29.2479,14.5859375,25.0966L14.5859375,22.1036L21.0742175,22.1036L21.0742175,27.1507C21.0742175,27.6633,21.4618775,28.0929,21.9718175,28.1454L63.6445375,32.4354C64.2342375,32.4961,64.7469375,32.0334,64.7469375,31.4406L64.7469375,5.63672C64.7469375,5.08443,64.2992375,4.63672,63.7469375,4.63672L22.0742175,4.63672C21.5219375,4.63672,21.0742175,5.08443,21.0742175,5.63672L21.0742175,11.6533L14.5859375,11.6533L14.5859375,8C14.5859375,3.58172,18.1676575,0,22.5859375,0L62.2004375,0C66.61873750000001,0,70.20043749999999,3.58172,70.20043749999999,8L70.20043749999999,26.6484L77.5501375,26.6484L77.5501375,31.849C77.5501375,32.9815,77.0700375,34.0609,76.22913750000001,34.8194L74.5136375,36.3665C73.9625375,36.8636,73.24663749999999,37.1388,72.5044375,37.1388L70.20043749999999,37.1388L70.20043749999999,37.2412L69.0150375,37.1388L68.1953375,37.1388L68.1953375,37.0679L21.8971475,33.0669Z" fill-rule="evenodd" fill="#FFFFFF" fill-opacity="1"/></g><g><path d="M6.729,6.9267578125L9.86328,6.9267578125C10.4156,6.9267578125,10.8633,7.3744728125,10.8633,7.9267578125L10.8633,10.8115278125C10.8633,11.3638078125,10.4156,11.8115278125,9.86328,11.8115278125L5.98047,11.8115278125C5.42818,11.8115278125,4.98047,12.2592378125,4.98047,12.8115278125L4.98047,15.4374978125C4.98047,15.9897878125,5.42818,16.4374978125,5.98047,16.4374978125L28.7461,16.4374978125L28.7461,10.6218078125C28.7461,9.1563778125,30.2701,8.1885278125,31.5964,8.811587812500001L45.1788,15.1918178125C46.7703,15.9394078125,46.6919,18.229257812500002,45.053,18.8661578125L31.4706,24.1451578125C30.1596,24.6547578125,28.7461,23.6875578125,28.7461,22.281057812500002L28.7461,20.3847578125L6.729,20.3847578125C3.01268,20.3847578125,0,17.3720578125,0,13.6557578125C0,9.9394378125,3.01268,6.9267578125,6.729,6.9267578125Z" fill-rule="evenodd" fill="#FFFFFF" fill-opacity="1"/></g></g></svg>