<svg xmlns="http://www.w3.org/2000/svg" xmlns:xlink="http://www.w3.org/1999/xlink" fill="none" version="1.1" width="70"
     height="70" viewBox="0 0 70 70">
    <defs>
        <clipPath id="master_svg0_544_03396">
            <rect x="0" y="0" width="70" height="70" rx="0"/>
        </clipPath>
    </defs>
    <g clip-path="url(#master_svg0_544_03396)">
        <g>
            <g>
                <path d="M23.02810287475586,8.770706176757812L58.07690287475586,8.770706176757812Q60.41430287475586,8.770706176757812,62.55430287475586,9.675866176757813Q64.61870287475585,10.549036176757813,66.20870287475586,12.138978176757812Q67.79860287475586,13.728936176757813,68.67180287475585,15.793316176757813Q69.57690287475586,17.93336617675781,69.57690287475586,20.270706176757812L69.57690287475586,51.118406176757816Q69.57690287475586,53.455706176757815,68.67180287475585,55.59580617675781Q67.79860287475586,57.660106176757814,66.20870287475586,59.25010617675781Q64.61870287475585,60.84000617675781,62.55430287475586,61.713206176757815Q60.41430287475586,62.618406176757816,58.07690287475586,62.618406176757816L23.02810287475586,62.618406176757816Q22.85615887475586,62.618406176757816,22.685042874755858,62.601506176757816Q22.51392687475586,62.58460617675781,22.34528687475586,62.55110617675781Q22.17664687475586,62.51760617675781,22.01210287475586,62.46760617675781Q21.84756287475586,62.41770617675781,21.688712874755858,62.351906176757815Q21.52985287475586,62.28610617675781,21.37821287475586,62.20510617675781Q21.22657287475586,62.12400617675781,21.083602874755858,62.028506176757816Q20.94064287475586,61.933006176757814,20.80772287475586,61.82390617675781Q20.674812874755858,61.71480617675781,20.55323287475586,61.59320617675781Q20.43164287475586,61.47160617675781,20.32256287475586,61.33870617675781Q20.213482874755858,61.20580617675781,20.11796287475586,61.06280617675781Q20.02243287475586,60.91990617675781,19.94138287475586,60.768206176757815Q19.86032287475586,60.61660617675781,19.79452287475586,60.45770617675781Q19.72872287475586,60.29890617675781,19.67881287475586,60.134406176757814Q19.62890287475586,59.969806176757814,19.59535287475586,59.801206176757816Q19.56181287475586,59.632506176757815,19.544952874755857,59.46140617675781Q19.52810287475586,59.29030617675781,19.52810287475586,59.118406176757816Q19.52810287475586,58.94640617675781,19.544952874755857,58.775306176757816Q19.56181287475586,58.60420617675781,19.59535287475586,58.43550617675781Q19.62890287475586,58.266906176757814,19.67881287475586,58.10240617675781Q19.72872287475586,57.93780617675781,19.79452287475586,57.77900617675781Q19.86032287475586,57.620106176757815,19.94138287475586,57.46850617675781Q20.02243287475586,57.316806176757815,20.11796287475586,57.17390617675781Q20.213482874755858,57.03090617675781,20.32256287475586,56.89800617675781Q20.43164287475586,56.76510617675781,20.55323287475586,56.64350617675781Q20.674812874755858,56.52190617675781,20.80772287475586,56.41280617675781Q20.94064287475586,56.303706176757814,21.083602874755858,56.20820617675781Q21.22657287475586,56.11270617675781,21.37821287475586,56.03160617675781Q21.52985287475586,55.950606176757816,21.688712874755858,55.88480617675781Q21.84756287475586,55.81900617675781,22.01210287475586,55.76910617675781Q22.17664687475586,55.719206176757815,22.34528687475586,55.685606176757815Q22.51392687475586,55.65210617675781,22.685042874755858,55.63520617675781Q22.85615887475586,55.618406176757816,23.02810287475586,55.618406176757816L58.07690287475586,55.618406176757816Q59.94090287475586,55.618406176757816,61.25890287475586,54.300306176757815Q62.57690287475586,52.98230617675781,62.57690287475586,51.118406176757816L62.57690287475586,20.270706176757812Q62.57690287475586,18.406746176757814,61.25890287475586,17.088726176757813Q59.94090287475586,15.770706176757812,58.07690287475586,15.770706176757812L23.02810287475586,15.770706176757812Q22.85615887475586,15.770706176757812,22.685042874755858,15.753856176757813Q22.51392687475586,15.736996176757813,22.34528687475586,15.703456176757813Q22.17664687475586,15.669906176757813,22.01210287475586,15.619996176757812Q21.84756287475586,15.570086176757812,21.688712874755858,15.504286176757812Q21.52985287475586,15.438486176757813,21.37821287475586,15.357426176757812Q21.22657287475586,15.276376176757813,21.083602874755858,15.180846176757813Q20.94064287475586,15.085326176757812,20.80772287475586,14.976246176757812Q20.674812874755858,14.867166176757813,20.55323287475586,14.745576176757812Q20.43164287475586,14.623996176757812,20.32256287475586,14.491086176757813Q20.213482874755858,14.358166176757813,20.11796287475586,14.215206176757812Q20.02243287475586,14.072236176757812,19.94138287475586,13.920596176757812Q19.86032287475586,13.768956176757813,19.79452287475586,13.610096176757812Q19.72872287475586,13.451246176757813,19.67881287475586,13.286706176757813Q19.62890287475586,13.122162176757813,19.59535287475586,12.953522176757813Q19.56181287475586,12.784882176757812,19.544952874755857,12.613766176757812Q19.52810287475586,12.442650176757812,19.52810287475586,12.270706176757812Q19.52810287475586,12.098762176757813,19.544952874755857,11.927646176757813Q19.56181287475586,11.756530176757813,19.59535287475586,11.587890176757812Q19.62890287475586,11.419250176757812,19.67881287475586,11.254706176757812Q19.72872287475586,11.090166176757812,19.79452287475586,10.931316176757813Q19.86032287475586,10.772456176757812,19.94138287475586,10.620816176757813Q20.02243287475586,10.469176176757813,20.11796287475586,10.326206176757813Q20.213482874755858,10.183246176757812,20.32256287475586,10.050326176757812Q20.43164287475586,9.917416176757813,20.55323287475586,9.795836176757813Q20.674812874755858,9.674246176757812,20.80772287475586,9.565166176757813Q20.94064287475586,9.456086176757813,21.083602874755858,9.360566176757812Q21.22657287475586,9.265036176757812,21.37821287475586,9.183986176757813Q21.52985287475586,9.102926176757812,21.688712874755858,9.037126176757813Q21.84756287475586,8.971326176757813,22.01210287475586,8.921416176757813Q22.17664687475586,8.871506176757812,22.34528687475586,8.837956176757812Q22.51392687475586,8.804416176757812,22.685042874755858,8.787556176757812Q22.85615887475586,8.770706176757812,23.02810287475586,8.770706176757812Z"
                      fill-rule="evenodd" fill="#FFFFFF" fill-opacity="1"/>
            </g>
            <g>
                <path d="M3.663865768890381,22.164569806861877C2.156099768890381,21.905969806861876,1.4849867688903808,20.119369806861876,2.449677768890381,18.932069806861875L10.73143576889038,8.739669806861878C11.777955768890381,7.451714806861878,13.84733576889038,7.9250942068618775,14.22983576889038,9.539939806861877L17.09663576889038,21.64406980686188C17.42713576889038,23.039069806861878,16.22553576889038,24.318469806861877,14.812535768890381,24.076169806861877L13.795535768890382,23.90186980686188L13.795535768890382,33.73006980686188L24.49293576889038,42.36346980686188L24.493635768890382,42.363969806861874Q24.64563576889038,42.486669806861876,24.782935768890383,42.62546980686188Q24.920335768890382,42.76416980686188,25.04143576889038,42.91736980686188Q25.162535768890383,43.07066980686188,25.26583576889038,43.23636980686188Q25.36913576889038,43.402069806861874,25.45333576889038,43.578269806861876Q25.537535768890383,43.75446980686188,25.601635768890382,43.93886980686188Q25.665735768890382,44.12336980686188,25.70893576889038,44.31376980686188Q25.75203576889038,44.50426980686188,25.773835768890383,44.69826980686188Q25.79553576889038,44.89236980686188,25.79553576889038,45.087669806861875Q25.79553576889038,45.259569806861876,25.778635768890382,45.430769806861875Q25.761835768890382,45.60186980686188,25.728235768890382,45.770469806861875Q25.694735768890382,45.93906980686188,25.64483576889038,46.10366980686188Q25.59493576889038,46.26816980686188,25.52903576889038,46.42706980686188Q25.46323576889038,46.58586980686188,25.382235768890382,46.73756980686188Q25.30113576889038,46.88916980686188,25.20563576889038,47.03216980686188Q25.11013576889038,47.17516980686188,25.001035768890382,47.30806980686188Q24.89193576889038,47.44096980686188,24.77033576889038,47.56256980686188Q24.648835768890383,47.68406980686188,24.51593576889038,47.793169806861876Q24.38293576889038,47.90226980686188,24.24003576889038,47.997769806861875Q24.097035768890382,48.09336980686188,23.94543576889038,48.174369806861876Q23.793735768890382,48.255469806861875,23.63493576889038,48.32126980686188Q23.47603576889038,48.38706980686188,23.31153576889038,48.436969806861875Q23.14693576889038,48.486869806861876,22.978335768890382,48.52036980686188Q22.80973576889038,48.55396980686188,22.63853576889038,48.570769806861875Q22.467435768890383,48.587669806861875,22.29553576889038,48.587669806861875Q21.99773576889038,48.587669806861875,21.70423576889038,48.537369806861875Q21.41073576889038,48.487069806861875,21.12993576889038,48.38786980686188Q20.84913576889038,48.288669806861876,20.58913576889038,48.14346980686188Q20.32913576889038,47.99836980686188,20.09743576889038,47.81126980686188L20.09663576889038,47.81076980686188L8.46935576889038,38.42696980686188Q6.795515768890381,37.07606980686188,6.795515768890381,34.92506980686188L6.795515768890381,22.701569806861876L3.663865768890381,22.164569806861877Z"
                      fill-rule="evenodd" fill="#FFFFFF" fill-opacity="1"/>
            </g>
            <g>
                <path d="M44.88254037475586,22.72086242675781Q48.27554037475586,22.72086242675781,50.81054037475586,23.890862426757813Q53.345540374755856,25.06086242675781,54.73004037475586,27.18636242675781Q56.11454037475586,29.311862426757813,56.11454037475586,32.158862426757814Q56.11454037475586,34.966862426757814,54.73004037475586,37.092362426757816Q53.345540374755856,39.21786242675781,50.81054037475586,40.36836242675781Q48.27554037475586,41.51886242675781,44.88254037475586,41.51886242675781L40.70954037475586,41.51886242675781L40.70954037475586,51.26886242675781L35.05454037475586,51.26886242675781L35.05454037475586,22.72086242675781L44.88254037475586,22.72086242675781ZM44.25854037475586,36.72186242675781Q46.91054037475586,36.72186242675781,48.50954037475586,35.571362426757815Q50.10854037475586,34.420862426757814,50.10854037475586,32.158862426757814Q50.10854037475586,29.896862426757814,48.50954037475586,28.70736242675781Q46.91054037475586,27.517862426757812,44.25854037475586,27.517862426757812L40.70954037475586,27.517862426757812L40.70954037475586,36.72186242675781L44.25854037475586,36.72186242675781Z"
                      fill="#FFFFFF" fill-opacity="1"/>
            </g>
        </g>
    </g>
</svg>