<svg xmlns="http://www.w3.org/2000/svg" xmlns:xlink="http://www.w3.org/1999/xlink" fill="none" version="1.1" width="70"
     height="70" viewBox="0 0 70 70">
    <defs>
        <clipPath id="master_svg0_544_7134">
            <rect x="0" y="0" width="70" height="70" rx="0"/>
        </clipPath>
    </defs>
    <g clip-path="url(#master_svg0_544_7134)">
        <g>
            <g>
                <path d="M20.234375,9.18359375L55.283175,9.18359375Q57.620575,9.18359375,59.760575,10.08875375Q61.824975,10.96192375,63.414975,12.55186575Q65.004875,14.14182375,65.878075,16.20620375Q66.783175,18.34625375,66.783175,20.68359375L66.783175,51.53129375Q66.783175,53.86859375,65.878075,56.00869375Q65.004875,58.07299375,63.414975,59.66299375Q61.824975,61.25289375,59.760575,62.12609375Q57.620575,63.03129375,55.283175,63.03129375L20.234375,63.03129375Q20.062431,63.03129375,19.891315,63.01439375Q19.720199,62.99749375,19.551559,62.96399375Q19.382919,62.93049375,19.218375,62.88049375Q19.053835,62.83059375,18.894985,62.76479375Q18.736125,62.69899375,18.584485,62.61799375Q18.432845,62.53689375,18.289875,62.44139375Q18.146915,62.34589375,18.013995,62.23679375Q17.881085,62.12769375,17.759505,62.00609375Q17.637915,61.88449375,17.528835,61.75159375Q17.419755,61.61869375,17.324235,61.47569375Q17.228705,61.33279375,17.147655,61.18109375Q17.066595,61.02949375,17.000795,60.87059375Q16.934995,60.71179375,16.885085,60.54729375Q16.835175,60.38269375,16.801625,60.21409375Q16.768085,60.04539375,16.751224999999998,59.87429375Q16.734375,59.70319375,16.734375,59.53129375Q16.734375,59.35929375,16.751224999999998,59.18819375Q16.768085,59.01709375,16.801625,58.84839375Q16.835175,58.67979375,16.885085,58.51529375Q16.934995,58.35069375,17.000795,58.19189375Q17.066595,58.03299375,17.147655,57.88139375Q17.228705,57.72969375,17.324235,57.58679375Q17.419755,57.44379375,17.528835,57.31089375Q17.637915,57.17799375,17.759505,57.05639375Q17.881085,56.93479375,18.013995,56.82569375Q18.146915,56.71659375,18.289875,56.62109375Q18.432845,56.52559375,18.584485,56.44449375Q18.736125,56.36349375,18.894985,56.29769375Q19.053835,56.23189375,19.218375,56.18199375Q19.382919,56.13209375,19.551559,56.09849375Q19.720199,56.06499375,19.891315,56.04809375Q20.062431,56.03129375,20.234375,56.03129375L55.283175,56.03129375Q57.147175,56.03129375,58.465175,54.71319375Q59.783175,53.39519375,59.783175,51.53129375L59.783175,20.68359375Q59.783175,18.81963375,58.465175,17.50161375Q57.147175,16.18359375,55.283175,16.18359375L20.234375,16.18359375Q20.062431,16.18359375,19.891315,16.166743750000002Q19.720199,16.14988375,19.551559,16.11634375Q19.382919,16.08279375,19.218375,16.03288375Q19.053835,15.98297375,18.894985,15.91717375Q18.736125,15.85137375,18.584485,15.77031375Q18.432845,15.68926375,18.289875,15.59373375Q18.146915,15.49821375,18.013995,15.38913375Q17.881085,15.28005375,17.759505,15.15846375Q17.637915,15.03688375,17.528835,14.90397375Q17.419755,14.77105375,17.324235,14.62809375Q17.228705,14.48512375,17.147655,14.33348375Q17.066595,14.18184375,17.000795,14.02298375Q16.934995,13.86413375,16.885085,13.69959375Q16.835175,13.53504975,16.801625,13.36640975Q16.768085,13.197769749999999,16.751224999999998,13.02665375Q16.734375,12.85553775,16.734375,12.68359375Q16.734375,12.51164975,16.751224999999998,12.34053375Q16.768085,12.169417750000001,16.801625,12.00077775Q16.835175,11.83213775,16.885085,11.66759375Q16.934995,11.50305375,17.000795,11.34420375Q17.066595,11.18534375,17.147655,11.03370375Q17.228705,10.88206375,17.324235,10.73909375Q17.419755,10.59613375,17.528835,10.46321375Q17.637915,10.33030375,17.759505,10.20872375Q17.881085,10.08713375,18.013995,9.97805375Q18.146915,9.86897375,18.289875,9.77345375Q18.432845,9.67792375,18.584485,9.59687375Q18.736125,9.51581375,18.894985,9.45001375Q19.053835,9.38421375,19.218375,9.33430375Q19.382919,9.28439375,19.551559,9.25084375Q19.720199,9.21730375,19.891315,9.20044375Q20.062431,9.18359375,20.234375,9.18359375Z"
                      fill-rule="evenodd" fill="#FFFFFF" fill-opacity="1"/>
            </g>
            <g>
                <path d="M7.5,9Q7.32806,9,7.1569400000000005,9.0168535Q6.98582,9.0337069,6.8171800000000005,9.0672515Q6.648540000000001,9.100796,6.484,9.150709Q6.319459999999999,9.200622,6.16061,9.266422Q6.0017499999999995,9.332222,5.85011,9.413276Q5.69847,9.494329,5.5555,9.589856Q5.41254,9.685383,5.2796199999999995,9.794463Q5.14671,9.903542999999999,5.02513,10.02513Q4.903543,10.14671,4.794463,10.27962Q4.685383,10.41254,4.589856,10.5555Q4.4943290000000005,10.69847,4.413276,10.85011Q4.332222,11.00175,4.266422,11.16061Q4.200622,11.31946,4.150709,11.484Q4.100796,11.64854,4.0672515,11.81718Q4.0337069,11.98582,4.0168535,12.15694Q4,12.32806,4,12.5L4,35.339600000000004Q4,37.4852,5.66698,38.835899999999995L10.389800000000001,42.6628L9.14073,44.0564C8.1174,45.1982,8.706579999999999,47.0195,10.20475,47.3455L22.4195,50.004C23.9799,50.3436,25.2894,48.8075,24.7071,47.3205L20.2686,35.9857C19.7255,34.5987,17.911099999999998,34.2709,16.917,35.3801L15.0676,37.4436L11,34.1477L11,12.5Q11,12.32806,10.98315,12.15694Q10.96629,11.98582,10.93275,11.81718Q10.8992,11.64854,10.84929,11.484Q10.79938,11.31946,10.73358,11.16061Q10.66778,11.00175,10.58672,10.85011Q10.50567,10.69847,10.41014,10.5555Q10.31462,10.41254,10.20554,10.27962Q10.09646,10.14671,9.97487,10.02513Q9.853290000000001,9.903542999999999,9.720379999999999,9.794463Q9.58746,9.685383,9.4445,9.589856Q9.30153,9.494329,9.14989,9.413276Q8.998249999999999,9.332222,8.83939,9.266422Q8.68054,9.200622,8.516,9.150709Q8.35146,9.100796,8.18282,9.0672515Q8.01418,9.0337069,7.8430599999999995,9.0168535Q7.67194,9,7.5,9Z"
                      fill-rule="evenodd" fill="#FFFFFF" fill-opacity="1"/>
            </g>
            <g>
                <path d="M42.0888125,23.13375Q45.481812500000004,23.13375,48.0168125,24.30375Q50.5518125,25.47375,51.9363125,27.599249999999998Q53.3208125,29.72475,53.3208125,32.57175Q53.3208125,35.37975,51.9363125,37.505250000000004Q50.5518125,39.63075,48.0168125,40.78125Q45.481812500000004,41.93175,42.0888125,41.93175L37.9158125,41.93175L37.9158125,51.68175L32.2608125,51.68175L32.2608125,23.13375L42.0888125,23.13375ZM41.4648125,37.13475Q44.1168125,37.13475,45.7158125,35.98425Q47.3148125,34.83375,47.3148125,32.57175Q47.3148125,30.30975,45.7158125,29.12025Q44.1168125,27.93075,41.4648125,27.93075L37.9158125,27.93075L37.9158125,37.13475L41.4648125,37.13475Z"
                      fill="#FFFFFF" fill-opacity="1"/>
            </g>
        </g>
    </g>
</svg>