<svg xmlns="http://www.w3.org/2000/svg" xmlns:xlink="http://www.w3.org/1999/xlink" fill="none" version="1.1" width="47" height="50" viewBox="0 0 47 50"><g><g><path d="M25.9908,49.9996L21.8985,49.9996C19.0517,49.9996,16.9166,47.6782,16.9166,44.9996L16.9166,43.571C14.9595,42.8568,13.1802,41.9639,11.5789,40.7139L10.1555,41.4282C8.91001,42.1425,7.66454,42.3211,6.41906,41.9639C5.17359,41.6068,4.10604,40.7139,3.39434,39.6425L1.25924,36.0711C-0.164164,33.5711,0.725461,30.5354,3.03849,29.1069L3.92811,28.5712C3.75019,27.3212,3.57226,26.0712,3.57226,24.9998C3.57226,24.1069,3.57226,23.2141,3.75019,22.3212L2.50471,21.607C0.0137614,20.1784,-0.697939,17.1427,0.725461,14.6427L2.86056,11.0713C4.28396,8.57135,7.30869,7.85707,9.79964,9.28563L10.8672,9.82134C12.4685,8.57135,14.2478,7.49993,16.2049,6.78565L16.2049,4.99996C16.027,2.32141,18.1621,0,21.0089,0L25.1012,0C27.948,0,30.0831,2.32141,30.0831,4.99996L30.0831,6.60708C31.8623,7.32136,33.4637,8.21421,35.065,9.4642L36.8442,8.39278C39.1573,6.96422,42.3599,7.85707,43.7833,10.1785L45.9184,13.7499C47.3418,16.2499,46.4522,19.2855,44.1392,20.7141L42.3599,21.607C42.5378,22.6784,42.7158,23.7498,42.7158,24.8212C42.7158,25.5355,42.7158,26.2498,42.5378,27.1426L44.495,28.3926C46.986,29.8212,47.6977,32.8569,46.2743,35.3568L44.1392,38.9282C43.4275,40.1782,42.3599,40.8925,41.1144,41.2496C39.869,41.6068,38.4456,41.4282,37.378,40.7139L35.7767,39.8211C34.3533,41.0711,32.752,42.1425,30.9727,42.8568L30.9727,44.821C31.1506,47.6782,28.8376,49.9996,25.9908,49.9996ZM11.7568,36.4282L12.6464,37.3211C14.4257,38.9282,16.7387,39.9996,19.0517,40.5354L20.4751,40.8925L20.4751,44.9996C20.4751,45.8924,21.1868,46.4282,21.8985,46.4282L25.9908,46.4282C26.8804,46.4282,27.4142,45.7139,27.4142,44.9996L27.4142,40.5354L28.4818,40.1782C30.6169,39.2854,32.574,38.2139,34.1754,36.6068L35.065,35.714L38.9793,38.0354C39.3352,38.2139,39.691,38.2139,40.0469,38.2139C40.4027,38.0354,40.7586,37.8568,40.9365,37.4997L43.0716,33.9283C43.4275,33.214,43.2495,32.3211,42.5378,31.964L38.4456,29.6426L38.6235,28.3926C38.8014,27.3212,38.9793,26.4283,38.9793,25.5355C38.9793,24.2855,38.8014,23.0355,38.6235,21.7855L38.2676,20.5355L42.182,18.2141C42.8937,17.857,43.0716,16.9641,42.7158,16.2499L40.5807,12.6785C40.4027,12.3213,40.0469,12.1427,39.691,11.9642C39.3352,11.7856,38.9793,11.9642,38.6235,12.1427L34.5312,14.4642L33.6416,13.5713C31.8623,11.9642,29.9052,10.8928,27.7701,10.1785L26.5246,9.82134L26.5246,4.99996C26.5246,4.10711,25.8129,3.5714,25.1012,3.5714L21.0089,3.5714C20.1193,3.5714,19.5855,4.28568,19.5855,4.99996L19.5855,9.28563L18.1621,9.64277C15.8534,10.3673,13.7288,11.5857,11.9347,13.2142L11.0451,14.2856L7.84246,12.3213C7.13076,11.9642,6.24114,12.1427,5.88529,12.857L3.75019,16.4284C3.39434,17.1427,3.57226,18.0356,4.28396,18.3927L7.66454,20.357L7.48661,21.607C7.30869,22.6784,7.13076,23.7498,7.13076,24.8212C7.13076,26.0712,7.30869,27.4998,7.66454,28.9283L8.02039,30.3569L4.81774,32.1426C4.10604,32.4997,3.92811,33.3926,4.28396,34.1068L6.41906,37.6782C6.59699,38.0354,6.95284,38.2139,7.30869,38.3925C7.66454,38.5711,8.02039,38.3925,8.37624,38.2139L11.7568,36.4282Z" fill="#FFFFFF" fill-opacity="1"/></g><g><path d="M23.501718750000002,33.9282890625C18.51981875,33.9282890625,14.60546875,29.9996890625,14.60546875,24.9997790625C14.60546875,19.999829062499998,18.51981875,16.0712890625,23.501718750000002,16.0712890625C28.48356875,16.0712890625,32.397968750000004,19.999829062499998,32.397968750000004,24.9997790625C32.397968750000004,29.9996890625,28.48356875,33.9282890625,23.501718750000002,33.9282890625ZM23.501718750000002,19.6426890625C20.47698875,19.6426890625,18.16396875,21.9640890625,18.16396875,24.9997790625C18.16396875,28.035489062499998,20.47698875,30.356889062500002,23.501718750000002,30.356889062500002C26.52646875,30.356889062500002,28.83946875,28.035489062499998,28.83946875,24.9997790625C28.83946875,21.9640890625,26.52646875,19.6426890625,23.501718750000002,19.6426890625Z" fill="#FFFFFF" fill-opacity="1"/></g></g></svg>