<svg xmlns="http://www.w3.org/2000/svg" xmlns:xlink="http://www.w3.org/1999/xlink" fill="none" version="1.1" width="55.7119140625" height="26.33154296875" viewBox="0 0 55.7119140625 26.33154296875"><g><g><g><path d="M11.65623532775879,22.085569154052735Q10.670815327758788,21.100139154052734,10.670815327758788,19.706539154052734L7.410075327758789,19.706539154052734Q7.410075327758789,22.450779154052736,9.35055032775879,24.391259154052733Q11.291025327758788,26.331729154052734,14.03526532775879,26.331729154052734Q16.77950532775879,26.331729154052734,18.71997532775879,24.391259154052733Q20.660445327758787,22.450779154052736,20.660445327758787,19.706539154052734L17.39971532775879,19.706539154052734Q17.39971532775879,21.100139154052734,16.41429532775879,22.085569154052735Q15.428865327758789,23.070989154052736,14.03526532775879,23.070989154052736Q12.641665327758789,23.070989154052736,11.65623532775879,22.085569154052735Z" fill-rule="evenodd" fill="#FFFFFF" fill-opacity="1"/></g><g><path d="M40.58653508666992,22.085569154052735Q39.60111508666992,21.100139154052734,39.60111508666992,19.706539154052734L36.34037508666992,19.706539154052734Q36.34037508666992,22.450779154052736,38.28085008666992,24.391259154052733Q40.22132508666992,26.331729154052734,42.96556508666992,26.331729154052734Q45.709805086669924,26.331729154052734,47.65027508666992,24.391259154052733Q49.59074508666992,22.450779154052736,49.59074508666992,19.706539154052734L46.330015086669924,19.706539154052734Q46.330015086669924,21.100139154052734,45.34459508666992,22.085569154052735Q44.35916508666992,23.070989154052736,42.96556508666992,23.070989154052736Q41.57196508666992,23.070989154052736,40.58653508666992,22.085569154052735Z" fill-rule="evenodd" fill="#FFFFFF" fill-opacity="1"/></g><g><path d="M3.0922901192092898,21.774182738018037L10.29660011920929,21.774182738018037L10.29660011920929,18.513482738018038L4.000430119209289,18.513482738018038Q2.5171401192092895,15.862782738018035,3.9855401192092894,14.256982738018037L19.03200011920929,8.824202738018036Q19.30540011920929,8.725512738018036,19.52780011920929,8.538452738018036Q26.48880011920929,2.683782738018036,34.09330011920929,3.325182738018036Q42.21750011920929,4.010402738018036,51.84090011920929,12.031982738018035Q52.74230011920929,15.735882738018036,52.31480011920929,18.513482738018038L46.82260011920929,18.513482738018038L46.82260011920929,21.774182738018037L53.62870011920929,21.774182738018037Q53.76110011920929,21.774182738018037,53.89180011920929,21.752782738018038Q54.02250011920929,21.731482738018038,54.14800011920929,21.689282738018036Q54.27350011920929,21.647082738018035,54.39060011920929,21.585182738018037Q54.50770011920929,21.523282738018036,54.61320011920929,21.443282738018034Q54.71880011920929,21.363382738018036,54.81010011920929,21.267382738018036Q54.90130011920929,21.171382738018035,54.97590011920929,21.061982738018035Q55.05050011920929,20.952582738018037,55.10640011920929,20.832482738018037Q55.16240011920929,20.712482738018036,55.19820011920929,20.584982738018034Q56.36960011920929,16.417382738018034,54.86910011920929,10.707582738018036Q54.80520011920929,10.464682738018036,54.67130011920929,10.252282738018035Q54.53730011920929,10.039882738018036,54.34570011920929,9.877622738018037Q43.69720011920929,0.8628897380180359,34.36740011920929,0.0759796380180359Q25.54710011920929,-0.6679582619819641,17.65480011920929,5.854702738018036L2.5385901192092897,11.312582738018035Q2.2295001192092894,11.424182738018036,1.9877801192092897,11.646782738018036Q0.01986121920928955,13.459282738018036,0.0001900192092895508,16.033982738018036Q-0.01818018079071045,18.438482738018035,1.7391301192092896,21.053282738018037Q1.8509801192092896,21.219682738018037,1.9998401192092896,21.354082738018036Q2.1486901192092898,21.488382738018036,2.3256701192092897,21.582682738018036Q2.5026501192092896,21.676982738018037,2.6972001192092896,21.725582738018037Q2.8917601192092897,21.774182738018037,3.0922901192092898,21.774182738018037ZM17.883200119209288,21.774182738018037L39.34020011920929,21.774182738018037L39.34020011920929,18.513482738018038L17.883200119209288,18.513482738018038L17.883200119209288,21.774182738018037Z" fill-rule="evenodd" fill="#FFFFFF" fill-opacity="1"/></g></g><g><path d="M23.4682734375,10.5206396484375L26.1142734375,17.1086396484375L25.0612734375,17.1086396484375L24.3862734375,15.3446396484375L21.7132734375,15.3446396484375L21.0652734375,17.1086396484375L20.0932734375,17.1086396484375L22.6402734375,10.5206396484375L23.4682734375,10.5206396484375ZM24.0622734375,14.4986396484375L23.0182734375,11.7806396484375L22.0282734375,14.4986396484375L24.0622734375,14.4986396484375ZM31.0462734375,10.5206396484375L32.0182734375,10.5206396484375L32.0182734375,14.4446396484375Q32.0182734375,15.2906396484375,31.703273437500002,15.9161396484375Q31.3882734375,16.5416396484375,30.7942734375,16.8746396484375Q30.2002734375,17.2076396484375,29.3722734375,17.2076396484375Q28.5442734375,17.2076396484375,27.9502734375,16.8746396484375Q27.3562734375,16.5416396484375,27.0412734375,15.9161396484375Q26.726273437499998,15.2906396484375,26.726273437499998,14.4446396484375L26.726273437499998,10.5206396484375L27.6982734375,10.5206396484375L27.6982734375,14.2556396484375Q27.6982734375,15.2726396484375,28.1302734375,15.7991396484375Q28.5622734375,16.3256396484375,29.3722734375,16.3256396484375Q30.1822734375,16.3256396484375,30.6142734375,15.7991396484375Q31.0462734375,15.2726396484375,31.0462734375,14.2556396484375L31.0462734375,10.5206396484375ZM32.8012734375,10.5206396484375L37.8322734375,10.5206396484375L37.8322734375,11.375639648437499L35.7982734375,11.375639648437499L35.7982734375,17.1086396484375L34.8262734375,17.1086396484375L34.8262734375,11.375639648437499L32.8012734375,11.375639648437499L32.8012734375,10.5206396484375ZM38.0752734375,13.8056396484375Q38.0752734375,12.779639648437499,38.4712734375,12.0101396484375Q38.8672734375,11.2406396484375,39.5602734375,10.8266396484375Q40.2532734375,10.4126396484375,41.1082734375,10.4126396484375Q41.9632734375,10.4126396484375,42.656273437500005,10.8266396484375Q43.3492734375,11.2406396484375,43.7452734375,12.0101396484375Q44.141273437500004,12.779639648437499,44.141273437500004,13.8056396484375Q44.141273437500004,14.840639648437499,43.740773437499996,15.6101396484375Q43.3402734375,16.3796396484375,42.6517734375,16.793639648437498Q41.9632734375,17.2076396484375,41.1082734375,17.2076396484375Q40.2532734375,17.2076396484375,39.5602734375,16.7981396484375Q38.8672734375,16.3886396484375,38.4712734375,15.6146396484375Q38.0752734375,14.840639648437499,38.0752734375,13.8056396484375ZM39.1012734375,13.8056396484375Q39.1012734375,14.5526396484375,39.3487734375,15.1241396484375Q39.5962734375,15.6956396484375,40.0462734375,16.0106396484375Q40.4962734375,16.3256396484375,41.1082734375,16.3256396484375Q41.7202734375,16.3256396484375,42.1747734375,16.0106396484375Q42.629273437500004,15.6956396484375,42.8767734375,15.1241396484375Q43.1242734375,14.5526396484375,43.1242734375,13.8056396484375Q43.1242734375,13.058639648437499,42.8767734375,12.4916396484375Q42.629273437500004,11.9246396484375,42.1702734375,11.6096396484375Q41.7112734375,11.2946396484375,41.1082734375,11.2946396484375Q40.5052734375,11.2946396484375,40.0507734375,11.6096396484375Q39.5962734375,11.9246396484375,39.3487734375,12.4916396484375Q39.1012734375,13.058639648437499,39.1012734375,13.8056396484375Z" fill="#FFFFFF" fill-opacity="1"/></g></g></svg>