<svg xmlns="http://www.w3.org/2000/svg" xmlns:xlink="http://www.w3.org/1999/xlink"  version="1.1"
     width="38.26123046875" height="39.4501953125" viewBox="0 0 38.26123046875 39.4501953125">
    <g>
        <g>
            <ellipse cx="34.26123046875" cy="4.7418212890625" rx="4" ry="4" />
        </g>
        <g>
            <path d="M34.13634453125,12.85667813671875Q34.21194453125,12.55639913671875,34.21194453125,12.24676513671875Q34.21194453125,12.12394813671875,34.19984453125,12.00172213671875Q34.18784453125,11.87949613671875,34.16384453125,11.75903913671875Q34.139944531249995,11.63858213671875,34.10424453125,11.52105313671875Q34.06864453125,11.40352513671875,34.021644531250004,11.29005713671875Q33.97464453125,11.17658513671875,33.91674453125,11.06827513671875Q33.85884453125,10.95995513671875,33.79054453125,10.85783513671875Q33.72234453125,10.75572513671875,33.64444453125,10.66078513671875Q33.56654453125,10.56584513671875,33.47964453125,10.47899513671875Q33.39284453125,10.392155136718749,33.297944531249996,10.31423513671875Q33.20294453125,10.23632513671875,33.100844531250004,10.168095136718751Q32.99874453125,10.09985513671875,32.89044453125,10.04196513671875Q32.78204453125,9.98406513671875,32.668644531249996,9.93706513671875Q32.55514453125,9.89006513671875,32.43764453125,9.85441513671875Q32.32014453125,9.81876513671875,32.19964453125,9.79480513671875Q32.07914453125,9.77084513671875,31.95694453125,9.758805136718749Q31.83474453125,9.74676513671875,31.71194453125,9.74676513671875Q31.60834453125,9.74676513671875,31.50524453125,9.75532513671875Q31.40204453125,9.76388513671875,31.29994453125,9.78094513671875Q31.19784453125,9.79800513671875,31.09744453125,9.82344513671875Q30.99714453125,9.848895136718749,30.89924453125,9.88254513671875Q30.80134453125,9.91619513671875,30.70654453125,9.95783513671875Q30.61174453125,9.99946513671875,30.52074453125,10.04879513671875Q30.42974453125,10.09811513671875,30.34304453125,10.15480513671875Q30.25644453125,10.21148513671875,30.17484453125,10.27513513671875Q30.09314453125,10.33878513671875,30.01704453125,10.40897513671875Q29.94094453125,10.47915513671875,29.87094453125,10.55539513671875Q29.80084453125,10.63162513671875,29.73734453125,10.71339513671875Q29.67384453125,10.79516513671875,29.61734453125,10.88189513671875Q29.56084453125,10.96863513671875,29.51164453125,11.05974513671875Q29.46254453125,11.15085513671875,29.42104453125,11.24571513671875Q29.37964453125,11.34058413671875,29.34614453125,11.43855013671875Q29.31264453125,11.53651613671875,29.28744453125,11.63691413671875L29.28694453125,11.63906413671875Q28.05244453125,16.54581513671875,26.95594453125,19.08197513671875Q26.47934453125,20.18417513671875,26.08454453125,20.722335136718748Q26.05404453125,20.763965136718753,26.02784453125,20.797475136718752Q25.13264453125,20.91446513671875,21.61044453125,20.80725513671875Q18.69634453125,20.718545136718753,17.42665453125,20.76205513671875Q14.71518453125,20.85496513671875,13.53991453125,21.650605136718752Q12.251144531249999,22.52306513671875,10.14070453125,26.35786513671875Q8.28147853125,29.73616513671875,5.3970245312500005,35.88926513671875Q5.16064453125,36.393465136718746,5.16064453125,36.95036513671875Q5.16064453125,37.07316513671875,5.17268453125,37.19546513671875Q5.18472453125,37.31766513671875,5.20868453125,37.43806513671875Q5.23264453125,37.558565136718755,5.26829453125,37.67606513671875Q5.30394453125,37.79366513671875,5.350944531250001,37.90706513671875Q5.397944531249999,38.02056513671875,5.4558445312499995,38.12886513671875Q5.51373453125,38.23716513671875,5.58197453125,38.33926513671875Q5.65020453125,38.44146513671875,5.72811453125,38.53636513671875Q5.80603453125,38.63126513671875,5.8928745312499995,38.71816513671875Q5.97972453125,38.80496513671875,6.07466453125,38.88286513671875Q6.16960453125,38.96086513671875,6.27171453125,39.02906513671875Q6.37383453125,39.09726513671875,6.48215453125,39.15516513671875Q6.59046453125,39.213065136718754,6.70393653125,39.26006513671875Q6.81740453125,39.30706513671875,6.93493253125,39.342765136718754Q7.05246153125,39.37836513671875,7.17291853125,39.40236513671875Q7.29337553125,39.426265136718754,7.41560153125,39.43836513671875Q7.53782753125,39.45036513671875,7.66064453125,39.45036513671875Q7.83788353125,39.45036513671875,8.01334853125,39.42536513671875Q8.18881453125,39.40036513671875,8.358997531250001,39.35086513671875Q8.52918053125,39.30136513671875,8.69067453125,39.22836513671875Q8.85217453125,39.155265136718754,9.00175453125,39.060265136718755Q9.15132453125,38.96516513671875,9.285994531250001,38.84986513671875Q9.42066453125,38.734665136718746,9.537734531249999,38.60156513671875Q9.65479453125,38.46856513671875,9.75191453125,38.320265136718746Q9.84903453125,38.171965136718754,9.92426453125,38.01156513671875Q12.740004531250001,32.00506513671875,14.52115453125,28.76856513671875Q15.374764531250001,27.21756513671875,15.96155453125,26.353865136718753Q16.16272453125,26.05776513671875,16.31419453125,25.86856513671875Q16.33361453125,25.86516513671875,16.354404531249997,25.86166513671875Q16.80807453125,25.78616513671875,17.59788453125,25.75916513671875Q18.705944531249997,25.72116513671875,21.45824453125,25.80496513671875Q23.78514453125,25.875765136718748,24.80024453125,25.86236513671875Q26.76524453125,25.83636513671875,27.76134453125,25.51946513671875Q29.07244453125,25.102365136718753,30.11594453125,23.67996513671875Q30.84474453125,22.68666513671875,31.54534453125,21.06622513671875Q32.80214453125,18.15918513671875,34.13514453125,12.86175713671875Q34.13564453125,12.85947813671875,34.13624453125,12.85719913671875L34.13634453125,12.85667713671875L34.13634453125,12.85667813671875Z"
                  />
        </g>
        <g transform="matrix(0,-1,1,0,-17.48358154296875,17.48358154296875)">
            <path d="M3.70583,18.17278554296875C3.70583,17.79207054296875,4.10042,17.48358154296875,4.58733,17.48358154296875L12.8963,17.48358154296875C13.3829,17.48358154296875,13.7775,17.79207054296875,13.7775,18.17278554296875L13.7775,28.32738154296875L16.6005,28.32738154296875C17.3454,28.32738154296875,17.7543,29.00458154296875,17.281,29.45428154296875C14.6616,31.94248154296875,12.0417,34.43048154296875,9.42233,36.91868154296875C9.06974,37.253381542968754,8.41395,37.253381542968754,8.0613,36.91868154296875C5.4418,34.43048154296875,2.82204,31.94248154296875,0.202581,29.45428154296875C-0.270729,29.00458154296875,0.138163,28.32738154296875,0.883053,28.32738154296875L3.70583,28.32738154296875L3.70583,18.17278554296875ZM5.59439,29.80368154296875L3.01657,29.80368154296875L8.74182,35.24178154296875L14.467,29.80368154296875L11.8892,29.80368154296875L11.8892,18.96015154296875L5.59439,18.96015154296875L5.59439,29.80368154296875Z"
                  />
        </g>
    </g>
</svg>