<svg xmlns="http://www.w3.org/2000/svg" xmlns:xlink="http://www.w3.org/1999/xlink"  version="1.1"
     width="36.05859375" height="40.2900390625" viewBox="0 0 36.05859375 40.2900390625">
    <g>
        <g>
            <ellipse cx="32.05859375" cy="5.58154296875" rx="4" ry="4"  />
        </g>
        <g>
            <path d="M31.9337078125,13.69639981640625Q32.0093078125,13.39612081640625,32.0093078125,13.08648681640625Q32.0093078125,12.96366981640625,31.9972078125,12.84144381640625Q31.9852078125,12.71921781640625,31.9612078125,12.59876081640625Q31.9373078125,12.47830381640625,31.9016078125,12.36077481640625Q31.8660078125,12.24324681640625,31.8190078125,12.12977881640625Q31.7720078125,12.01630681640625,31.7141078125,11.90799681640625Q31.6562078125,11.79967681640625,31.5879078125,11.69755681640625Q31.5197078125,11.59544681640625,31.4418078125,11.50050681640625Q31.3639078125,11.40556681640625,31.2770078125,11.31871681640625Q31.1902078125,11.231876816406249,31.0953078125,11.15395681640625Q31.0003078125,11.07604681640625,30.8982078125,11.007816816406251Q30.7961078125,10.93957681640625,30.6878078125,10.88168681640625Q30.5794078125,10.82378681640625,30.4660078125,10.77678681640625Q30.3525078125,10.72978681640625,30.2350078125,10.69413681640625Q30.1175078125,10.65848681640625,29.9970078125,10.63452681640625Q29.8765078125,10.61056681640625,29.7543078125,10.598526816406249Q29.6321078125,10.58648681640625,29.5093078125,10.58648681640625Q29.4057078125,10.58648681640625,29.3026078125,10.59504681640625Q29.1994078125,10.60360681640625,29.0973078125,10.62066681640625Q28.9952078125,10.63772681640625,28.8948078125,10.66316681640625Q28.7945078125,10.688616816406249,28.6966078125,10.72226681640625Q28.5987078125,10.75591681640625,28.5039078125,10.79755681640625Q28.4091078125,10.83918681640625,28.3181078125,10.88851681640625Q28.2271078125,10.93783681640625,28.1404078125,10.99452681640625Q28.0538078125,11.05120681640625,27.9722078125,11.11485681640625Q27.8905078125,11.17850681640625,27.8144078125,11.24869681640625Q27.7383078125,11.31887681640625,27.6683078125,11.39511681640625Q27.5982078125,11.47134681640625,27.5347078125,11.55311681640625Q27.4712078125,11.63488681640625,27.4147078125,11.72161681640625Q27.3582078125,11.80835681640625,27.3090078125,11.89946681640625Q27.2599078125,11.99057681640625,27.2184078125,12.08543681640625Q27.1770078125,12.18030581640625,27.1435078125,12.27827181640625Q27.1100078125,12.37623781640625,27.0848078125,12.47663581640625L27.0843078125,12.47878581640625Q25.8498078125,17.38553681640625,24.7533078125,19.92169681640625Q24.2767078125,21.02389681640625,23.8819078125,21.562056816406248Q23.8514078125,21.603686816406253,23.8252078125,21.637196816406252Q22.9300078125,21.75418681640625,19.4078078125,21.64697681640625Q16.4937078125,21.558266816406253,15.2240178125,21.60177681640625Q12.5125478125,21.69468681640625,11.3372778125,22.490326816406252Q10.048507812499999,23.36278681640625,7.9380678125,27.19758681640625Q6.0788418125,30.57588681640625,3.1943878125,36.72898681640625Q2.9580078125,37.233186816406246,2.9580078125,37.79008681640625Q2.9580078125,37.91288681640625,2.9700478125,38.03518681640625Q2.9820878125,38.15738681640625,3.0060478125,38.27778681640625Q3.0300078125,38.398286816406255,3.0656578125,38.51578681640625Q3.1013078125,38.63338681640625,3.1483078125,38.74678681640625Q3.1953078125,38.86028681640625,3.2532078125,38.96858681640625Q3.3110978125,39.07688681640625,3.3793378125,39.17898681640625Q3.4475678125,39.28118681640625,3.5254778125,39.37608681640625Q3.6033978125,39.47098681640625,3.6902378125,39.55788681640625Q3.7770878125,39.64468681640625,3.8720278125,39.72258681640625Q3.9669678125,39.80058681640625,4.0690778125,39.86878681640625Q4.1711978125,39.93698681640625,4.2795178125,39.99488681640625Q4.3878278125,40.052786816406254,4.5012998125,40.09978681640625Q4.6147678125,40.14678681640625,4.7322958125,40.182486816406254Q4.8498248125,40.21808681640625,4.9702818125,40.24208681640625Q5.0907388125,40.265986816406254,5.2129648125,40.27808681640625Q5.3351908125,40.29008681640625,5.4580078125,40.29008681640625Q5.6352468125,40.29008681640625,5.8107118125,40.26508681640625Q5.9861778125,40.24008681640625,6.1563608125,40.19058681640625Q6.3265438125,40.14108681640625,6.4880378125,40.06808681640625Q6.6495378125,39.994986816406254,6.7991178125000005,39.899986816406255Q6.9486878125,39.80488681640625,7.0833578125,39.68958681640625Q7.2180278125,39.574386816406246,7.3350978125,39.44128681640625Q7.4521578125,39.30828681640625,7.5492778125,39.159986816406246Q7.6463978125,39.011686816406254,7.7216278124999995,38.85128681640625Q10.537367812500001,32.84478681640625,12.3185178125,29.60828681640625Q13.172127812500001,28.05728681640625,13.7589178125,27.193586816406253Q13.9600878125,26.89748681640625,14.1115578125,26.70828681640625Q14.1309778125,26.70488681640625,14.1517678125,26.70138681640625Q14.6054378125,26.62588681640625,15.3952478125,26.59888681640625Q16.503307812499997,26.56088681640625,19.2556078125,26.64468681640625Q21.5825078125,26.715486816406248,22.5976078125,26.70208681640625Q24.5626078125,26.67608681640625,25.5587078125,26.35918681640625Q26.8698078125,25.942086816406253,27.9133078125,24.51968681640625Q28.6421078125,23.52638681640625,29.3427078125,21.90594681640625Q30.5995078125,18.99890681640625,31.9325078125,13.70147881640625Q31.9330078125,13.69919981640625,31.9336078125,13.69692081640625L31.9337078125,13.69639881640625L31.9337078125,13.69639981640625Z"
                  />
        </g>
        <g>
            <path d="M3.70583,0.689204C3.70583,0.308489,4.10042,0,4.58733,0L12.8963,0C13.3829,0,13.7775,0.308489,13.7775,0.689204L13.7775,10.8438L16.6005,10.8438C17.3454,10.8438,17.7543,11.521,17.281,11.9707C14.6616,14.4589,12.0417,16.9469,9.42233,19.4351C9.06974,19.7698,8.41395,19.7698,8.0613,19.4351C5.4418,16.9469,2.82204,14.4589,0.202581,11.9707C-0.270729,11.521,0.138163,10.8438,0.883053,10.8438L3.70583,10.8438L3.70583,0.689204ZM5.59439,12.3201L3.01657,12.3201L8.74182,17.7582L14.467,12.3201L11.8892,12.3201L11.8892,1.47657L5.59439,1.47657L5.59439,12.3201Z"
                  />
        </g>
    </g>
</svg>