<svg xmlns="http://www.w3.org/2000/svg" xmlns:xlink="http://www.w3.org/1999/xlink" version="1.1"
     width="38.35888671875" height="39.654296875" viewBox="0 0 38.35888671875 39.654296875">
    <g>
        <g>
            <ellipse cx="34.35888671875" cy="4.9456787109375" rx="4" ry="4"/>
        </g>
        <g>
            <path d="M34.23400078125,13.06053555859375Q34.30960078125,12.76025655859375,34.30960078125,12.45062255859375Q34.30960078125,12.32780555859375,34.29750078125,12.20557955859375Q34.28550078125,12.08335355859375,34.26150078125,11.96289655859375Q34.237600781249995,11.84243955859375,34.20190078125,11.72491055859375Q34.16630078125,11.60738255859375,34.119300781250004,11.49391455859375Q34.07230078125,11.38044255859375,34.01440078125,11.27213255859375Q33.95650078125,11.16381255859375,33.88820078125,11.06169255859375Q33.82000078125,10.95958255859375,33.74210078125,10.86464255859375Q33.66420078125,10.76970255859375,33.57730078125,10.68285255859375Q33.49050078125,10.596012558593749,33.395600781249996,10.51809255859375Q33.30060078125,10.44018255859375,33.198500781250004,10.371952558593751Q33.09640078125,10.30371255859375,32.98810078125,10.24582255859375Q32.87970078125,10.18792255859375,32.766300781249996,10.14092255859375Q32.65280078125,10.09392255859375,32.53530078125,10.05827255859375Q32.41780078125,10.02262255859375,32.29730078125,9.99866255859375Q32.17680078125,9.97470255859375,32.05460078125,9.962662558593749Q31.93240078125,9.95062255859375,31.80960078125,9.95062255859375Q31.70600078125,9.95062255859375,31.60290078125,9.95918255859375Q31.49970078125,9.96774255859375,31.39760078125,9.98480255859375Q31.29550078125,10.00186255859375,31.19510078125,10.02730255859375Q31.09480078125,10.052752558593749,30.99690078125,10.08640255859375Q30.89900078125,10.12005255859375,30.80420078125,10.16169255859375Q30.70940078125,10.20332255859375,30.61840078125,10.25265255859375Q30.52740078125,10.30197255859375,30.44070078125,10.35866255859375Q30.35410078125,10.41534255859375,30.27250078125,10.47899255859375Q30.19080078125,10.54264255859375,30.11470078125,10.61283255859375Q30.03860078125,10.68301255859375,29.96860078125,10.75925255859375Q29.89850078125,10.83548255859375,29.83500078125,10.91725255859375Q29.77150078125,10.99902255859375,29.71500078125,11.08575255859375Q29.65850078125,11.17249255859375,29.60930078125,11.26360255859375Q29.56020078125,11.35471255859375,29.51870078125,11.44957255859375Q29.47730078125,11.54444155859375,29.44380078125,11.64240755859375Q29.41030078125,11.74037355859375,29.38510078125,11.84077155859375L29.38460078125,11.84292155859375Q28.15010078125,16.74967255859375,27.05360078125,19.28583255859375Q26.57700078125,20.38803255859375,26.18220078125,20.926192558593748Q26.15170078125,20.967822558593753,26.12550078125,21.001332558593752Q25.23030078125,21.11832255859375,21.70810078125,21.01111255859375Q18.79400078125,20.922402558593753,17.52431078125,20.96591255859375Q14.81284078125,21.05882255859375,13.63757078125,21.854462558593752Q12.348800781249999,22.72692255859375,10.23836078125,26.56172255859375Q8.37913478125,29.94002255859375,5.4946807812500005,36.09312255859375Q5.25830078125,36.597322558593746,5.25830078125,37.15422255859375Q5.25830078125,37.27702255859375,5.27034078125,37.39932255859375Q5.28238078125,37.52152255859375,5.30634078125,37.64192255859375Q5.33030078125,37.762422558593755,5.36595078125,37.87992255859375Q5.40160078125,37.99752255859375,5.448600781250001,38.11092255859375Q5.495600781249999,38.22442255859375,5.5535007812499995,38.33272255859375Q5.61139078125,38.44102255859375,5.67963078125,38.54312255859375Q5.74786078125,38.64532255859375,5.82577078125,38.74022255859375Q5.90369078125,38.83512255859375,5.9905307812499995,38.92202255859375Q6.07738078125,39.00882255859375,6.17232078125,39.08672255859375Q6.26726078125,39.16472255859375,6.36937078125,39.23292255859375Q6.47149078125,39.30112255859375,6.57981078125,39.35902255859375Q6.68812078125,39.416922558593754,6.80159278125,39.46392255859375Q6.91506078125,39.51092255859375,7.03258878125,39.546622558593754Q7.15011778125,39.58222255859375,7.27057478125,39.60622255859375Q7.39103178125,39.630122558593754,7.51325778125,39.64222255859375Q7.63548378125,39.65422255859375,7.75830078125,39.65422255859375Q7.93553978125,39.65422255859375,8.11100478125,39.62922255859375Q8.28647078125,39.60422255859375,8.456653781250001,39.55472255859375Q8.62683678125,39.50522255859375,8.78833078125,39.43222255859375Q8.94983078125,39.359122558593754,9.09941078125,39.264122558593755Q9.24898078125,39.16902255859375,9.383650781250001,39.05372255859375Q9.51832078125,38.938522558593746,9.635390781249999,38.80542255859375Q9.75245078125,38.67242255859375,9.84957078125,38.524122558593746Q9.94669078125,38.375822558593754,10.02192078125,38.21542255859375Q12.837660781250001,32.20892255859375,14.61881078125,28.97242255859375Q15.472420781250001,27.42142255859375,16.059210781250002,26.557722558593753Q16.26038078125,26.26162255859375,16.41185078125,26.07242255859375Q16.43127078125,26.06902255859375,16.452060781249997,26.06552255859375Q16.90573078125,25.99002255859375,17.69554078125,25.96302255859375Q18.803600781249997,25.92502255859375,21.55590078125,26.00882255859375Q23.88280078125,26.079622558593748,24.89790078125,26.06622255859375Q26.86290078125,26.04022255859375,27.85900078125,25.72332255859375Q29.17010078125,25.306222558593753,30.21360078125,23.88382255859375Q30.94240078125,22.89052255859375,31.64300078125,21.27008255859375Q32.89980078125,18.36304255859375,34.23280078125,13.06561455859375Q34.23330078125,13.06333555859375,34.23390078125,13.06105655859375L34.23400078125,13.06053455859375L34.23400078125,13.06053555859375Z"
                  />
        </g>
        <g>
            <g>
                <path d="M8.8472290625,9.28570708984375Q8.8664390625,9.32409708984375,8.880629062499999,9.36460708984375Q8.8948090625,9.405127089843749,8.9037390625,9.44711708984375Q8.912669062500001,9.489107089843749,8.9162090625,9.53188708984375Q8.9197390625,9.57466708984375,8.9178190625,9.61755708984375Q8.9158990625,9.66043708984375,8.9085590625,9.702737089843751Q8.901219062500001,9.745027089843749,8.8885690625,9.78604708984375Q8.8759190625,9.827077089843751,8.8581690625,9.86615708984375Q8.8404190625,9.905247089843751,8.8178590625,9.94176708984375Q8.7952890625,9.97828708984375,8.7682790625,10.01164708984375Q8.741269062499999,10.04501708984375,8.710239062500001,10.07468708984375Q8.6792190625,10.104347089843749,8.6446790625,10.12984708984375Q8.6101390625,10.15533708984375,8.5726490625,10.17624708984375Q8.5351490625,10.19715708984375,8.495309062499999,10.21313708984375Q8.4554690625,10.22911708984375,8.4139190625,10.23991708984375Q8.3723790625,10.25071708984375,8.329799062500001,10.25616708984375Q8.2872090625,10.26160708984375,8.2442890625,10.26160708984375L5.3664690625,10.26160708984375Q5.3235390625,10.26160708984375,5.2809590625,10.25616708984375Q5.2383790625,10.25071708984375,5.1968290625,10.23991708984375Q5.1552790625,10.22911708984375,5.1154390625,10.21313708984375Q5.0755990625,10.19715708984375,5.0381090625,10.17624708984375Q5.0006090625,10.15533708984375,4.9660790625,10.12984708984375Q4.9315390625,10.104347089843749,4.9005090625,10.07468708984375Q4.8694840625,10.04501708984375,4.8424710625,10.01164708984375Q4.8154590625,9.97828708984375,4.7928950624999995,9.94176708984375Q4.7703320625,9.905247089843751,4.7525830625,9.86615708984375Q4.7348340625,9.827077089843751,4.7221850625,9.78604708984375Q4.7095370625,9.745027089843749,4.7021930625,9.702737089843751Q4.6948500625000005,9.66043708984375,4.6929300625,9.61755708984375Q4.6910100625,9.57466708984375,4.6945440625,9.53188708984375Q4.6980790625,9.489107089843749,4.7070110625,9.44711708984375Q4.7159430625,9.405127089843749,4.7301280625,9.36460708984375Q4.7443130625,9.32409708984375,4.7635230625,9.28570708984375L6.2024290625,6.41001708984375Q6.2233390625,6.36823708984375,6.2497990625,6.32973708984375Q6.2762690625,6.2912470898437505,6.3077890624999995,6.25676708984375Q6.3393090625,6.2222970898437495,6.3752890625,6.19249208984375Q6.411269062500001,6.16269108984375,6.4510090625,6.13813808984375Q6.4907490625,6.11358408984375,6.5334990625,6.09474608984375Q6.5762490625000005,6.07590708984375,6.6211890625,6.06314508984375Q6.6661190625,6.05038208984375,6.7123890625,6.04394008984375Q6.7586590625,6.03749708984375,6.8053790625,6.03749708984375Q6.8520890625,6.03749708984375,6.8983590625,6.04394008984375Q6.9446290625,6.05038208984375,6.9895690625,6.06314508984375Q7.0345090625,6.07590708984375,7.0772590625,6.09474508984375Q7.1199990625,6.11358408984375,7.1597490624999995,6.13813808984375Q7.1994890625,6.16269108984375,7.2354590625,6.19249208984375Q7.2714390625,6.22228708984375,7.302959062499999,6.25676708984375Q7.334489062499999,6.2912470898437505,7.3609490625,6.32973708984375Q7.387419062499999,6.36823708984375,7.4083190625,6.41001708984375L8.8472290625,9.28570708984375Z"
                     />
            </g>
            <g>
                <path d="M16.93756109375,9.28570708984375Q16.95677109375,9.32409708984375,16.97096109375,9.36460708984375Q16.985141093750002,9.405127089843749,16.99407109375,9.44711708984375Q17.00300109375,9.489107089843749,17.006541093750002,9.53188708984375Q17.01007109375,9.57466708984375,17.00815109375,9.61755708984375Q17.00623109375,9.66043708984375,16.99889109375,9.702737089843751Q16.99155109375,9.745027089843749,16.97890109375,9.78604708984375Q16.96625109375,9.827077089843751,16.94850109375,9.86615708984375Q16.93075109375,9.905247089843751,16.90819109375,9.94176708984375Q16.88562109375,9.97828708984375,16.85861109375,10.01164708984375Q16.83160109375,10.04501708984375,16.80057109375,10.07468708984375Q16.76955109375,10.104347089843749,16.73501109375,10.12984708984375Q16.70047109375,10.15533708984375,16.66298109375,10.17624708984375Q16.62548109375,10.19715708984375,16.58564109375,10.21313708984375Q16.54580109375,10.22911708984375,16.50425109375,10.23991708984375Q16.462711093750002,10.25071708984375,16.42013109375,10.25616708984375Q16.37754109375,10.26160708984375,16.334621093750002,10.26160708984375L13.45680109375,10.26160708984375Q13.41387109375,10.26160708984375,13.37129109375,10.25616708984375Q13.32871109375,10.25071708984375,13.28716109375,10.23991708984375Q13.24561109375,10.22911708984375,13.20577109375,10.21313708984375Q13.16593109375,10.19715708984375,13.12844109375,10.17624708984375Q13.09094109375,10.15533708984375,13.05641109375,10.12984708984375Q13.02187109375,10.104347089843749,12.99084109375,10.07468708984375Q12.95981609375,10.04501708984375,12.93280309375,10.01164708984375Q12.90579109375,9.97828708984375,12.88322709375,9.94176708984375Q12.86066409375,9.905247089843751,12.84291509375,9.86615708984375Q12.82516609375,9.827077089843751,12.81251709375,9.78604708984375Q12.79986909375,9.745027089843749,12.79252509375,9.702737089843751Q12.78518209375,9.66043708984375,12.78326209375,9.61755708984375Q12.78134209375,9.57466708984375,12.78487609375,9.53188708984375Q12.78841109375,9.489107089843749,12.79734309375,9.44711708984375Q12.80627509375,9.405127089843749,12.82046009375,9.36460708984375Q12.83464509375,9.32409708984375,12.85385509375,9.28570708984375L14.29276109375,6.41001708984375Q14.31367109375,6.36823708984375,14.34013109375,6.32973708984375Q14.366601093749999,6.2912470898437505,14.39812109375,6.25676708984375Q14.42964109375,6.2222970898437495,14.46562109375,6.19249208984375Q14.50160109375,6.16269108984375,14.541341093749999,6.13813808984375Q14.58108109375,6.11358408984375,14.623831093749999,6.09474608984375Q14.66658109375,6.07590708984375,14.711521093750001,6.06314508984375Q14.75645109375,6.05038208984375,14.80272109375,6.04394008984375Q14.84899109375,6.03749708984375,14.89571109375,6.03749708984375Q14.94242109375,6.03749708984375,14.988691093749999,6.04394008984375Q15.034961093749999,6.05038208984375,15.07990109375,6.06314508984375Q15.12484109375,6.07590708984375,15.16759109375,6.09474508984375Q15.21033109375,6.11358408984375,15.25008109375,6.13813808984375Q15.28982109375,6.16269108984375,15.32579109375,6.19249208984375Q15.36177109375,6.22228708984375,15.39329109375,6.25676708984375Q15.42482109375,6.2912470898437505,15.45128109375,6.32973708984375Q15.47775109375,6.36823708984375,15.49865109375,6.41001708984375L16.93756109375,9.28570708984375Z"
                     />
            </g>
            <g>
                <path d="M12.89263921875,8.9372573828125Q12.91184921875,8.9756473828125,12.926039218749999,9.0161573828125Q12.94021921875,9.056677382812499,12.94914921875,9.0986673828125Q12.958079218750001,9.140657382812499,12.96161921875,9.1834373828125Q12.96514921875,9.2262173828125,12.96322921875,9.2691073828125Q12.96130921875,9.3119873828125,12.95396921875,9.354287382812501Q12.946629218750001,9.396577382812499,12.93397921875,9.4375973828125Q12.92132921875,9.478627382812501,12.90357921875,9.5177073828125Q12.88582921875,9.556797382812501,12.86326921875,9.5933173828125Q12.84069921875,9.6298373828125,12.81368921875,9.6631973828125Q12.786679218749999,9.6965673828125,12.755649218750001,9.7262373828125Q12.72462921875,9.755897382812499,12.69008921875,9.7813973828125Q12.65554921875,9.8068873828125,12.61805921875,9.8277973828125Q12.58055921875,9.8487073828125,12.540719218749999,9.8646873828125Q12.50087921875,9.8806673828125,12.45932921875,9.8914673828125Q12.41778921875,9.9022673828125,12.375209218750001,9.9077173828125Q12.33261921875,9.9131573828125,12.28969921875,9.9131573828125L9.41187921875,9.9131573828125Q9.36894921875,9.9131573828125,9.32636921875,9.9077173828125Q9.28378921875,9.9022673828125,9.24223921875,9.8914673828125Q9.20068921875,9.8806673828125,9.16084921875,9.8646873828125Q9.12100921875,9.8487073828125,9.08351921875,9.8277973828125Q9.04601921875,9.8068873828125,9.01148921875,9.7813973828125Q8.97694921875,9.755897382812499,8.94591921875,9.7262373828125Q8.91489421875,9.6965673828125,8.88788121875,9.6631973828125Q8.86086921875,9.6298373828125,8.83830521875,9.5933173828125Q8.81574221875,9.556797382812501,8.79799321875,9.5177073828125Q8.78024421875,9.478627382812501,8.76759521875,9.4375973828125Q8.75494721875,9.396577382812499,8.74760321875,9.354287382812501Q8.74026021875,9.3119873828125,8.73834021875,9.2691073828125Q8.73642021875,9.2262173828125,8.73995421875,9.1834373828125Q8.74348921875,9.140657382812499,8.75242121875,9.0986673828125Q8.76135321875,9.056677382812499,8.77553821875,9.0161573828125Q8.78972321875,8.9756473828125,8.80893321875,8.9372573828125L10.24783921875,6.0615673828125Q10.26874921875,6.0197873828125,10.29520921875,5.9812873828125Q10.321679218749999,5.9427973828125005,10.35319921875,5.9083173828125Q10.38471921875,5.8738473828124995,10.42069921875,5.8440423828125Q10.45667921875,5.8142413828125,10.496419218749999,5.7896883828125Q10.53615921875,5.7651343828125,10.578909218749999,5.7462963828125Q10.62165921875,5.7274573828125,10.666599218750001,5.7146953828125Q10.71152921875,5.7019323828125,10.75779921875,5.6954903828125Q10.80406921875,5.6890473828125,10.85078921875,5.6890473828125Q10.89749921875,5.6890473828125,10.943769218749999,5.6954903828125Q10.990039218749999,5.7019323828125,11.03497921875,5.7146953828125Q11.07991921875,5.7274573828125,11.12266921875,5.7462953828125Q11.16540921875,5.7651343828125,11.20515921875,5.7896883828125Q11.24489921875,5.8142413828125,11.28086921875,5.8440423828125Q11.31684921875,5.8738373828125,11.34836921875,5.9083173828125Q11.37989921875,5.9427973828125005,11.40635921875,5.9812873828125Q11.43282921875,6.0197873828125,11.45372921875,6.0615673828125L12.89263921875,8.9372573828125Z"
                     />
            </g>
            <g transform="matrix(0,-1,1,0,-11.086669921875,24.696044921875)">
                <path d="M6.8372872,18.565569421875Q6.8209969,18.566357421875,6.8046875,18.566357421875Q6.7382058,18.566357421875,6.6730015,18.553387421875Q6.6077975,18.540417421875,6.5463765,18.514976421875Q6.4849555,18.489534421875,6.4296775,18.452599421875Q6.3744005,18.415664421875,6.3273905,18.368654421875Q6.2803805,18.321644421875,6.2434455,18.266367421875Q6.2065105,18.211089421875,6.1810685,18.149668421875Q6.1556275,18.088247421875,6.1426575,18.023043421875Q6.1296875,17.957839121875,6.1296875,17.891357421875Q6.1296875,17.824875721875,6.1426575,17.759671421875Q6.1556275,17.694467421875,6.1810685,17.633046421875Q6.2065105,17.571625421875,6.2434455,17.516347421875Q6.2803805,17.461070421875,6.3273905,17.414060421875Q6.3744005,17.367050421875,6.4296775,17.330115421875Q6.4849555,17.293180421875,6.5463765,17.267738421875Q6.6077975,17.242297421875,6.6730015,17.229327421875Q6.7382058,17.216357421875,6.8046875,17.216357421875Q6.8209969,17.216357421875,6.8372872,17.217145421875L16.6605375,17.217145421875Q16.6768275,17.216357421875,16.6931375,17.216357421875Q16.759617499999997,17.216357421875,16.8247875,17.229327421875Q16.8899875,17.242297421875,16.9514875,17.267738421875Q17.012887499999998,17.293180421875,17.0681875,17.330115421875Q17.1233875,17.367050421875,17.1703875,17.414060421875Q17.2174875,17.461070421875,17.2543875,17.516347421875Q17.2912875,17.571625421875,17.3167875,17.633046421875Q17.3421875,17.694467421875,17.3551875,17.759671421875Q17.3680875,17.824875721875,17.3680875,17.891357421875Q17.3680875,17.957839121875,17.3551875,18.023043421875Q17.3421875,18.088247421875,17.3167875,18.149668421875Q17.2912875,18.211089421875,17.2543875,18.266367421875Q17.2174875,18.321644421875,17.1703875,18.368654421875Q17.1233875,18.415664421875,17.0681875,18.452599421875Q17.012887499999998,18.489534421875,16.9514875,18.514976421875Q16.8899875,18.540417421875,16.8247875,18.553387421875Q16.759617499999997,18.566357421875,16.6931375,18.566357421875Q16.6768275,18.566357421875,16.6605375,18.565569421875L6.8372872,18.565569421875Z"
                      />
            </g>
            <g transform="matrix(0,-1,1,0,-2.69122314453125,32.48223876953125)">
                <path d="M14.9281075125,18.26094295703125Q14.9118172125,18.26173095703125,14.8955078125,18.26173095703125Q14.8290261125,18.26173095703125,14.7638218125,18.24876095703125Q14.6986178125,18.23579095703125,14.6371968125,18.21034995703125Q14.5757758125,18.18490795703125,14.5204978125,18.14797295703125Q14.4652208125,18.11103795703125,14.4182108125,18.06402795703125Q14.3712008125,18.01701795703125,14.3342658125,17.96174095703125Q14.2973308125,17.90646295703125,14.2718888125,17.84504195703125Q14.2464478125,17.78362095703125,14.2334778125,17.71841695703125Q14.2205078125,17.65321265703125,14.2205078125,17.58673095703125Q14.2205078125,17.52024925703125,14.2334778125,17.45504495703125Q14.2464478125,17.38984095703125,14.2718888125,17.32841995703125Q14.2973308125,17.26699895703125,14.3342658125,17.21172095703125Q14.3712008125,17.15644395703125,14.4182108125,17.10943395703125Q14.4652208125,17.06242395703125,14.5204978125,17.02548895703125Q14.5757758125,16.98855395703125,14.6371968125,16.96311195703125Q14.6986178125,16.93767095703125,14.7638218125,16.92470095703125Q14.8290261125,16.91173095703125,14.8955078125,16.91173095703125Q14.9118172125,16.91173095703125,14.9281075125,16.91251895703125L24.4466178125,16.91251895703125Q24.4629078125,16.91173095703125,24.4792178125,16.91173095703125Q24.545697812500002,16.91173095703125,24.610907812500002,16.92470095703125Q24.6761078125,16.93767095703125,24.737527812499998,16.96311195703125Q24.7989478125,16.98855395703125,24.8542278125,17.02548895703125Q24.9095078125,17.06242395703125,24.9565078125,17.10943395703125Q25.0035078125,17.15644395703125,25.0405078125,17.21172095703125Q25.0774078125,17.26699895703125,25.1028078125,17.32841995703125Q25.128307812499997,17.38984095703125,25.1412078125,17.45504495703125Q25.154207812499997,17.52024925703125,25.154207812499997,17.58673095703125Q25.154207812499997,17.65321265703125,25.1412078125,17.71841695703125Q25.128307812499997,17.78362095703125,25.1028078125,17.84504195703125Q25.0774078125,17.90646295703125,25.0405078125,17.96174095703125Q25.0035078125,18.01701795703125,24.9565078125,18.06402795703125Q24.9095078125,18.11103795703125,24.8542278125,18.14797295703125Q24.7989578125,18.18490795703125,24.737527812499998,18.21034995703125Q24.6761078125,18.23579095703125,24.610907812500002,18.24876095703125Q24.545697812500002,18.26173095703125,24.4792178125,18.26173095703125Q24.4629078125,18.26173095703125,24.4466178125,18.26094295703125L14.9281075125,18.26094295703125Z"
                      />
            </g>
            <g transform="matrix(0,-1,1,0,-7.041259765625,28.741455078125)">
                <path d="M10.88269735625,18.565569421875Q10.86640705625,18.566357421875,10.85009765625,18.566357421875Q10.78361595625,18.566357421875,10.71841165625,18.553387421875Q10.65320765625,18.540417421875,10.59178665625,18.514976421875Q10.53036565625,18.489534421875,10.47508765625,18.452599421875Q10.41981065625,18.415664421875,10.37280065625,18.368654421875Q10.32579065625,18.321644421875,10.28885565625,18.266367421875Q10.25192065625,18.211089421875,10.22647865625,18.149668421875Q10.20103765625,18.088247421875,10.18806765625,18.023043421875Q10.17509765625,17.957839121875,10.17509765625,17.891357421875Q10.17509765625,17.824875721875,10.18806765625,17.759671421875Q10.20103765625,17.694467421875,10.22647865625,17.633046421875Q10.25192065625,17.571625421875,10.28885565625,17.516347421875Q10.32579065625,17.461070421875,10.37280065625,17.414060421875Q10.41981065625,17.367050421875,10.47508765625,17.330115421875Q10.53036565625,17.293180421875,10.59178665625,17.267738421875Q10.65320765625,17.242297421875,10.71841165625,17.229327421875Q10.78361595625,17.216357421875,10.85009765625,17.216357421875Q10.86640705625,17.216357421875,10.88269735625,17.217145421875L20.70594765625,17.217145421875Q20.72223765625,17.216357421875,20.73854765625,17.216357421875Q20.805027656249997,17.216357421875,20.87019765625,17.229327421875Q20.93539765625,17.242297421875,20.99689765625,17.267738421875Q21.058297656249998,17.293180421875,21.11359765625,17.330115421875Q21.16879765625,17.367050421875,21.21579765625,17.414060421875Q21.26289765625,17.461070421875,21.29979765625,17.516347421875Q21.33669765625,17.571625421875,21.36219765625,17.633046421875Q21.38759765625,17.694467421875,21.40059765625,17.759671421875Q21.41349765625,17.824875721875,21.41349765625,17.891357421875Q21.41349765625,17.957839121875,21.40059765625,18.023043421875Q21.38759765625,18.088247421875,21.36219765625,18.149668421875Q21.33669765625,18.211089421875,21.29979765625,18.266367421875Q21.26289765625,18.321644421875,21.21579765625,18.368654421875Q21.16879765625,18.415664421875,21.11359765625,18.452599421875Q21.058297656249998,18.489534421875,20.99689765625,18.514976421875Q20.93539765625,18.540417421875,20.87019765625,18.553387421875Q20.805027656249997,18.566357421875,20.73854765625,18.566357421875Q20.72223765625,18.566357421875,20.70594765625,18.565569421875L10.88269735625,18.565569421875Z"
                      />
            </g>
            <g>
                <path d="M1.65914,2.08912C0.689753,2.56199,0.254418,3.70811,0.606181,4.72771L2.91942,11.4327C3.23209,12.339,4.08523,12.9472,5.04392,12.9472L16.5109,12.9472C17.499,12.9472,18.3711,12.3018,18.6601,11.357L20.6622,4.80988C20.9859,3.75113,20.484,2.60232,19.4667,2.16542C12.9572,-0.630277,7.5522,-0.785503,1.65914,2.08912ZM2.44738,3.70502Q2.19733,3.82699,2.30578,4.14134L4.61902,10.8464Q4.72351,11.1493,5.04392,11.1493L16.5109,11.1493Q16.8435,11.1493,16.9408,10.8312L18.9429,4.28411Q19.0475,3.94206,18.7572,3.81741Q14.1459,1.83693,10.3138,1.79871Q6.43468,1.76002,2.44738,3.70502Z"
                      />
            </g>
        </g>
    </g>
</svg>