<svg xmlns="http://www.w3.org/2000/svg" xmlns:xlink="http://www.w3.org/1999/xlink"  version="1.1"
     width="43.224609375" height="38.64892578125" viewBox="0 0 43.224609375 38.64892578125">
    <g>
        <g>
            <path d="M17.217190625,17.2832228515625Q17.397100625,16.9497948515625,17.397100625,16.5709228515625Q17.397100625,16.4972325515625,17.389880625,16.4238968515625Q17.382660625,16.3505618515625,17.368280625,16.2782878515625Q17.353910625,16.2060128515625,17.332510625,16.1354958515625Q17.311120625,16.0649788515625,17.282920625,15.9968978515625Q17.254720625,15.9288168515625,17.219990625,15.8638278515625Q17.185250625000002,15.7988388515625,17.144310625,15.7375678515625Q17.103370625,15.6762958515625,17.056620625,15.6193328515625Q17.009870625,15.5623728515625,16.957760625,15.5102628515625Q16.905660625,15.4581528515625,16.848690625,15.4114028515625Q16.791730625,15.3646628515625,16.730460625,15.3237228515625Q16.669190625,15.2827828515625,16.604200625,15.2480428515625Q16.539210625,15.2133028515625,16.471130625,15.1851028515625Q16.403050625,15.1569028515625,16.332530625,15.135512851562499Q16.262010625,15.1141228515625,16.189740625,15.0997428515625Q16.117460625,15.0853728515625,16.044130625,15.0781428515625Q15.970790625,15.0709228515625,15.897100625,15.0709228515625Q15.796080625,15.0709228515625,15.695960625,15.0844728515625Q15.595850625,15.0980128515625,15.498460625,15.1248628515625Q15.401070625,15.1517128515625,15.308150625,15.1913828515625Q15.215240625,15.2310428515625,15.128480625,15.2828128515625Q15.041730625,15.3345828515625,14.962700625,15.3975128515625Q14.883670625,15.460442851562501,14.813793625,15.5334028515625Q14.743916625,15.6063688515625,14.684453625,15.6880418515625Q14.624991625,15.7697138515625,14.577017625,15.8586228515625Q11.336460625,21.8642528515625,13.285281625,26.246362851562502Q13.411437625,26.5300428515625,13.668961625,27.099322851562498Q15.197200625,30.4774228515625,15.484620625,32.0959228515625Q15.914640625,34.517522851562504,14.670264625,36.2858228515625Q14.536880625,36.475322851562495,14.466926625,36.6963228515625Q14.396972625,36.9173228515625,14.396972625,37.1490228515625Q14.396972625,37.2227228515625,14.404195625,37.2961228515625Q14.411418625,37.369422851562504,14.425794625,37.4417228515625Q14.440170625,37.5139228515625,14.461561625,37.5844228515625Q14.482953625,37.6550228515625,14.511153625,37.723022851562504Q14.539353625,37.7911228515625,14.574090625,37.8561228515625Q14.608827625,37.9211228515625,14.649768625,37.982422851562504Q14.690708625,38.0437228515625,14.737456625,38.1006228515625Q14.784205625,38.1576228515625,14.836312625,38.2097228515625Q14.888419625000001,38.2618228515625,14.945382625,38.3085228515625Q15.002345625,38.355322851562505,15.063620625,38.3962228515625Q15.124890624999999,38.437222851562495,15.189880625,38.471922851562496Q15.254870625,38.5066228515625,15.322950625,38.534822851562495Q15.391030624999999,38.5630228515625,15.461540625,38.5844228515625Q15.532060625,38.6058228515625,15.604340625,38.6202228515625Q15.676610625,38.6346228515625,15.749950625,38.6418228515625Q15.823280625,38.6490228515625,15.896970625,38.6490228515625Q16.077380625,38.6490228515625,16.252650625,38.6062228515625Q16.427910625,38.563522851562496,16.588030625000002,38.4804228515625Q16.748160625,38.3972228515625,16.884010625000002,38.2785228515625Q17.019850625,38.159822851562495,17.123680625,38.0123228515625Q19.086800625000002,35.222622851562505,18.438410625,31.571422851562502Q18.200240625,30.2302228515625,17.574270625,28.5967228515625Q17.215380625,27.660122851562498,16.402280625,25.8627728515625Q16.148710625,25.3022628515625,16.026430625,25.0273128515625Q14.676604625,21.9920828515625,17.216770625,17.2840058515625L17.217190625,17.2832228515625L17.217190625,17.2832228515625Z"
                 />
        </g>
        <g>
            <path d="M23.25039375,17.2832228515625Q23.43030375,16.9497948515625,23.43030375,16.5709228515625Q23.43030375,16.4972325515625,23.42308375,16.4238968515625Q23.41586375,16.3505618515625,23.40148375,16.2782878515625Q23.38711375,16.2060128515625,23.36571375,16.1354958515625Q23.34432375,16.0649788515625,23.31612375,15.9968978515625Q23.28792375,15.9288168515625,23.25319375,15.8638278515625Q23.218453750000002,15.7988388515625,23.17751375,15.7375678515625Q23.13657375,15.6762958515625,23.08982375,15.6193328515625Q23.04307375,15.5623728515625,22.99096375,15.5102628515625Q22.93886375,15.4581528515625,22.88189375,15.4114028515625Q22.82493375,15.3646628515625,22.76366375,15.3237228515625Q22.70239375,15.2827828515625,22.63740375,15.2480428515625Q22.57241375,15.2133028515625,22.50433375,15.1851028515625Q22.43625375,15.1569028515625,22.36573375,15.135512851562499Q22.29521375,15.1141228515625,22.22294375,15.0997428515625Q22.15066375,15.0853728515625,22.07733375,15.0781428515625Q22.00399375,15.0709228515625,21.93030375,15.0709228515625Q21.829283750000002,15.0709228515625,21.72916375,15.0844728515625Q21.62905375,15.0980128515625,21.53166375,15.1248628515625Q21.43427375,15.1517128515625,21.34135375,15.1913828515625Q21.24844375,15.2310428515625,21.16168375,15.2828128515625Q21.07493375,15.3345828515625,20.99590375,15.3975128515625Q20.91687375,15.460442851562501,20.84699675,15.5334028515625Q20.77711975,15.6063688515625,20.71765675,15.6880418515625Q20.65819475,15.7697138515625,20.61022075,15.8586228515625Q17.36966375,21.8642528515625,19.31848475,26.246362851562502Q19.44464075,26.5300428515625,19.70216475,27.099322851562498Q21.23040375,30.4774228515625,21.51782375,32.0959228515625Q21.94784375,34.517522851562504,20.70346775,36.2858228515625Q20.57008375,36.475322851562495,20.50012975,36.6963228515625Q20.43017575,36.9173228515625,20.43017575,37.1490228515625Q20.43017575,37.2227228515625,20.43739875,37.2961228515625Q20.44462175,37.369422851562504,20.45899775,37.4417228515625Q20.47337375,37.5139228515625,20.49476475,37.5844228515625Q20.51615675,37.6550228515625,20.54435675,37.723022851562504Q20.57255675,37.7911228515625,20.60729375,37.8561228515625Q20.64203075,37.9211228515625,20.68297175,37.982422851562504Q20.72391175,38.0437228515625,20.77065975,38.1006228515625Q20.81740875,38.1576228515625,20.86951575,38.2097228515625Q20.92162275,38.2618228515625,20.97858575,38.3085228515625Q21.03554875,38.355322851562505,21.09682375,38.3962228515625Q21.15809375,38.437222851562495,21.22308375,38.471922851562496Q21.28807375,38.5066228515625,21.35615375,38.534822851562495Q21.42423375,38.5630228515625,21.49474375,38.5844228515625Q21.56526375,38.6058228515625,21.63754375,38.6202228515625Q21.70981375,38.6346228515625,21.78315375,38.6418228515625Q21.85648375,38.6490228515625,21.93017375,38.6490228515625Q22.11058375,38.6490228515625,22.28585375,38.6062228515625Q22.46111375,38.563522851562496,22.621233750000002,38.4804228515625Q22.78136375,38.3972228515625,22.917213750000002,38.2785228515625Q23.05305375,38.159822851562495,23.15688375,38.0123228515625Q25.120003750000002,35.222622851562505,24.47161375,31.571422851562502Q24.23344375,30.2302228515625,23.60747375,28.5967228515625Q23.24858375,27.660122851562498,22.43548375,25.8627728515625Q22.18191375,25.3022628515625,22.05963375,25.0273128515625Q20.70980775,21.9920828515625,23.24997375,17.2840058515625L23.25039375,17.2832228515625L23.25039375,17.2832228515625Z"
                 />
        </g>
        <g>
            <path d="M29.283596875,17.2832228515625Q29.463506875,16.9497948515625,29.463506875,16.5709228515625Q29.463506875,16.4972325515625,29.456286875,16.4238968515625Q29.449066875,16.3505618515625,29.434686875,16.2782878515625Q29.420316875,16.2060128515625,29.398916875,16.1354958515625Q29.377526875,16.0649788515625,29.349326875,15.9968978515625Q29.321126875,15.9288168515625,29.286396875,15.8638278515625Q29.251656875000002,15.7988388515625,29.210716875,15.7375678515625Q29.169776875,15.6762958515625,29.123026875,15.6193328515625Q29.076276875,15.5623728515625,29.024166875,15.5102628515625Q28.972066875,15.4581528515625,28.915096875,15.4114028515625Q28.858136875,15.3646628515625,28.796866875,15.3237228515625Q28.735596875,15.2827828515625,28.670606875,15.2480428515625Q28.605616875,15.2133028515625,28.537536875,15.1851028515625Q28.469456875,15.1569028515625,28.398936875,15.135512851562499Q28.328416875,15.1141228515625,28.256146875,15.0997428515625Q28.183866875,15.0853728515625,28.110536875,15.0781428515625Q28.037196875,15.0709228515625,27.963506875,15.0709228515625Q27.862486875000002,15.0709228515625,27.762366875,15.0844728515625Q27.662256875,15.0980128515625,27.564866875,15.1248628515625Q27.467476875,15.1517128515625,27.374556875,15.1913828515625Q27.281646875,15.2310428515625,27.194886875,15.2828128515625Q27.108136875,15.3345828515625,27.029106875,15.3975128515625Q26.950076875,15.460442851562501,26.880199875,15.5334028515625Q26.810322875,15.6063688515625,26.750859875,15.6880418515625Q26.691397875,15.7697138515625,26.643423875,15.8586228515625Q23.402866875,21.8642528515625,25.351687875,26.246362851562502Q25.477843875,26.5300428515625,25.735367875,27.099322851562498Q27.263606875,30.4774228515625,27.551026875,32.0959228515625Q27.981046875,34.517522851562504,26.736670875,36.2858228515625Q26.603286875,36.475322851562495,26.533332875,36.6963228515625Q26.463378875,36.9173228515625,26.463378875,37.1490228515625Q26.463378875,37.2227228515625,26.470601875,37.2961228515625Q26.477824875,37.369422851562504,26.492200875,37.4417228515625Q26.506576875,37.5139228515625,26.527967875,37.5844228515625Q26.549359875,37.6550228515625,26.577559875,37.723022851562504Q26.605759875,37.7911228515625,26.640496875,37.8561228515625Q26.675233875,37.9211228515625,26.716174875,37.982422851562504Q26.757114875,38.0437228515625,26.803862875,38.1006228515625Q26.850611875,38.1576228515625,26.902718875,38.2097228515625Q26.954825875,38.2618228515625,27.011788875,38.3085228515625Q27.068751875,38.355322851562505,27.130026875,38.3962228515625Q27.191296875,38.437222851562495,27.256286875,38.471922851562496Q27.321276875,38.5066228515625,27.389356875,38.534822851562495Q27.457436875,38.5630228515625,27.527946875,38.5844228515625Q27.598466875,38.6058228515625,27.670746875,38.6202228515625Q27.743016875,38.6346228515625,27.816356875,38.6418228515625Q27.889686875,38.6490228515625,27.963376875,38.6490228515625Q28.143786875,38.6490228515625,28.319056875,38.6062228515625Q28.494316875,38.563522851562496,28.654436875000002,38.4804228515625Q28.814566875,38.3972228515625,28.950416875000002,38.2785228515625Q29.086256875,38.159822851562495,29.190086875,38.0123228515625Q31.153206875000002,35.222622851562505,30.504816875,31.571422851562502Q30.266646875,30.2302228515625,29.640676875,28.5967228515625Q29.281786875,27.660122851562498,28.468686875,25.8627728515625Q28.215116875,25.3022628515625,28.092836875,25.0273128515625Q26.743010875,21.9920828515625,29.283176875,17.2840058515625L29.283596875,17.2832228515625L29.283596875,17.2832228515625Z"
                 />
        </g>
        <g>
            <path d="M32.843975156249996,4.85557990625Q32.92135515625,4.73318590625,32.92135515625,4.58837890625Q32.92135515625,4.53913320625,32.91175515625,4.49083380625Q32.90214515625,4.44253390625,32.88329515625,4.39703690625Q32.86445515625,4.35153990625,32.83709515625,4.31059390625Q32.80973515625,4.26964790625,32.77491515625,4.23482590625Q32.74009015625,4.20000390625,32.69914415625,4.17264390625Q32.65819815625,4.14528490625,32.61270115625,4.12643890625Q32.56720415625,4.10759390625,32.51890415625,4.09798590625Q32.47060515625,4.08837890625,32.42135915625,4.08837890625Q32.35808715625,4.08837890625,32.29681015625,4.10413990625Q32.23553315625,4.11990090625,32.18011315625,4.15042890625Q32.12469315625,4.18095690625,32.07862515625,4.22432790625Q32.03255715625,4.26769790625,31.99874415625,4.32117790625L31.99855815625,4.32105990625Q30.78802215625,6.23568890625,31.52398915625,7.64801890625Q31.58884915625,7.77248890625,31.72133335625,8.017928906249999Q32.24312715625,8.98458890625,32.33041315625,9.42653890625Q32.45428815625,10.05375890625,32.03544715625,10.56170890625L32.03561715625,10.561848906249999Q31.92138715625,10.70038890625,31.92138715625,10.87993890625Q31.92138715625,10.929188906250001,31.93099415625,10.977488906249999Q31.94060115625,11.02578890625,31.95944715625,11.07128890625Q31.97829215625,11.116778906250001,32.00565215625,11.15772890625Q32.03301115625,11.198678906249999,32.06783315625,11.23349890625Q32.10265515625,11.26831890625,32.14360115625,11.29567890625Q32.18454815625,11.32303890625,32.23004515625,11.341878906249999Q32.27554215625,11.36072890625,32.32384115625,11.37033890625Q32.37214115625,11.37993890625,32.42138715625,11.37993890625Q32.53336115625,11.37993890625,32.63464015625,11.33218890625Q32.73591915625,11.28442890625,32.80715515625,11.19803890625L32.80732515625,11.19817890625Q33.52756515625,10.32469890625,33.31189515625,9.23269890625Q33.19531515625,8.64241890625,32.60170415625,7.542708906250001Q32.47268215625,7.303688906250001,32.41119715625,7.18569890625Q31.94122615625,6.28380890625,32.84416515625,4.85569790625L32.843975156249996,4.85557990625Z"
                 />
        </g>
        <g>
            <path d="M35.049541562499996,4.85557990625Q35.1269215625,4.73318590625,35.1269215625,4.58837890625Q35.1269215625,4.53913320625,35.1173215625,4.49083380625Q35.1077115625,4.44253390625,35.0888615625,4.39703690625Q35.0700215625,4.35153990625,35.0426615625,4.31059390625Q35.0153015625,4.26964790625,34.9804815625,4.23482590625Q34.9456565625,4.20000390625,34.9047105625,4.17264390625Q34.8637645625,4.14528490625,34.8182675625,4.12643890625Q34.7727705625,4.10759390625,34.7244705625,4.09798590625Q34.6761715625,4.08837890625,34.6269255625,4.08837890625Q34.5636535625,4.08837890625,34.5023765625,4.10413990625Q34.4410995625,4.11990090625,34.3856795625,4.15042890625Q34.3302595625,4.18095690625,34.2841915625,4.22432790625Q34.2381235625,4.26769790625,34.2043105625,4.32117790625L34.2041245625,4.32105990625Q32.9935885625,6.23568890625,33.7295555625,7.64801890625Q33.7944155625,7.77248890625,33.9268997625,8.017928906249999Q34.4486935625,8.98458890625,34.5359795625,9.42653890625Q34.6598545625,10.05375890625,34.2410135625,10.56170890625L34.2411835625,10.561848906249999Q34.1269535625,10.70038890625,34.1269535625,10.87993890625Q34.1269535625,10.929188906250001,34.1365605625,10.977488906249999Q34.1461675625,11.02578890625,34.1650135625,11.07128890625Q34.1838585625,11.116778906250001,34.2112185625,11.15772890625Q34.2385775625,11.198678906249999,34.2733995625,11.23349890625Q34.3082215625,11.26831890625,34.3491675625,11.29567890625Q34.3901145625,11.32303890625,34.4356115625,11.341878906249999Q34.4811085625,11.36072890625,34.5294075625,11.37033890625Q34.5777075625,11.37993890625,34.6269535625,11.37993890625Q34.7389275625,11.37993890625,34.8402065625,11.33218890625Q34.9414855625,11.28442890625,35.0127215625,11.19803890625L35.0128915625,11.19817890625Q35.7331315625,10.32469890625,35.5174615625,9.23269890625Q35.4008815625,8.64241890625,34.8072705625,7.542708906250001Q34.6782485625,7.303688906250001,34.6167635625,7.18569890625Q34.1467925625,6.28380890625,35.0497315625,4.85569790625L35.049541562499996,4.85557990625Z"
                 />
        </g>
        <g>
            <path d="M37.255107968749996,4.85557990625Q37.33248796875,4.73318590625,37.33248796875,4.58837890625Q37.33248796875,4.53913320625,37.32288796875,4.49083380625Q37.31327796875,4.44253390625,37.29442796875,4.39703690625Q37.27558796875,4.35153990625,37.24822796875,4.31059390625Q37.22086796875,4.26964790625,37.18604796875,4.23482590625Q37.15122296875,4.20000390625,37.11027696875,4.17264390625Q37.06933096875,4.14528490625,37.02383396875,4.12643890625Q36.97833696875,4.10759390625,36.93003696875,4.09798590625Q36.88173796875,4.08837890625,36.83249196875,4.08837890625Q36.76921996875,4.08837890625,36.70794296875,4.10413990625Q36.64666596875,4.11990090625,36.59124596875,4.15042890625Q36.53582596875,4.18095690625,36.48975796875,4.22432790625Q36.44368996875,4.26769790625,36.40987696875,4.32117790625L36.40969096875,4.32105990625Q35.19915496875,6.23568890625,35.93512196875,7.64801890625Q35.99998196875,7.77248890625,36.13246616875,8.017928906249999Q36.65425996875,8.98458890625,36.74154596875,9.42653890625Q36.86542096875,10.05375890625,36.44657996875,10.56170890625L36.44674996875,10.561848906249999Q36.33251996875,10.70038890625,36.33251996875,10.87993890625Q36.33251996875,10.929188906250001,36.34212696875,10.977488906249999Q36.35173396875,11.02578890625,36.37057996875,11.07128890625Q36.38942496875,11.116778906250001,36.41678496875,11.15772890625Q36.44414396875,11.198678906249999,36.47896596875,11.23349890625Q36.51378796875,11.26831890625,36.55473396875,11.29567890625Q36.59568096875,11.32303890625,36.64117796875,11.341878906249999Q36.68667496875,11.36072890625,36.73497396875,11.37033890625Q36.78327396875,11.37993890625,36.83251996875,11.37993890625Q36.94449396875,11.37993890625,37.04577296875,11.33218890625Q37.14705196875,11.28442890625,37.21828796875,11.19803890625L37.21845796875,11.19817890625Q37.93869796875,10.32469890625,37.72302796875,9.23269890625Q37.60644796875,8.64241890625,37.01283696875,7.542708906250001Q36.88381496875,7.303688906250001,36.82232996875,7.18569890625Q36.35235896875,6.28380890625,37.25529796875,4.85569790625L37.255107968749996,4.85557990625Z"
                 />
        </g>
        <g>
            <path d="M26.60986328125,5.65653L26.60986328125,2.33436C26.60986328125,1.04513,27.65499328125,0,28.94422328125,0L40.07726328125,0C41.36646328125,0,42.41166328125,1.04513,42.41166328125,2.33436L42.41166328125,5.65653C42.41166328125,6.94576,41.36646328125,7.99089,40.07726328125,7.99089L38.95356328125,7.99089C38.585163281250004,7.99089,38.28656328125,7.69228,38.28656328125,7.32393C38.28656328125,6.95558,38.585163281250004,6.65697,38.95356328125,6.65697L40.07726328125,6.65697Q40.49166328125,6.65697,40.78466328125,6.36395Q41.07766328125,6.07093,41.07766328125,5.65653L41.07766328125,2.33436Q41.07766328125,1.91997,40.78466328125,1.62694Q40.49166328125,1.33392,40.07726328125,1.33392L28.94422328125,1.33392Q28.52983328125,1.33392,28.23680328125,1.62694Q27.94378328125,1.91997,27.94378328125,2.33436L27.94378328125,5.65653Q27.94378328125,6.07093,28.23680328125,6.36395Q28.52983328125,6.65697,28.94422328125,6.65697L29.84817328125,6.65697C30.21653328125,6.65697,30.51513328125,6.95558,30.51513328125,7.32393C30.51513328125,7.69228,30.21653328125,7.99089,29.84817328125,7.99089L28.94422328125,7.99089C27.65499328125,7.99089,26.60986328125,6.94576,26.60986328125,5.65653Z"
                 />
        </g>
        <g>
            <path d="M25.0312,1.78125L7,1.78125C3.13401,1.78125,0,4.91526,0,8.78125L0,20.47665C0,24.34265,3.13401,27.47665,7,27.47665L9.68311,27.47665C10.2354,27.47665,10.6831,27.02895,10.6831,26.47665L10.6831,24.47665C10.6831,23.92435,10.2354,23.47665,9.68311,23.47665L7,23.47665Q5.75736,23.47665,4.87868,22.59795Q4,21.71925,4,20.47665L4,8.78125Q4,7.53861,4.87868,6.65993Q5.75736,5.78125,7,5.78125L25.0312,5.78125L25.0312,1.78125ZM39.2246,10.87976L39.2246,20.47665Q39.2246,21.71925,38.3459,22.59795Q37.4673,23.47665,36.2246,23.47665L32.9414,23.47665C32.3891,23.47665,31.9414,23.92435,31.9414,24.47665L31.9414,26.47665C31.9414,27.02895,32.3891,27.47665,32.9414,27.47665L36.2246,27.47665C40.0906,27.47665,43.2246,24.34265,43.2246,20.47665L43.2246,10.87976L39.2246,10.87976Z"
                 />
        </g>
    </g>
</svg>