<svg xmlns="http://www.w3.org/2000/svg" xmlns:xlink="http://www.w3.org/1999/xlink" fill="none" version="1.1" width="43.04296875" height="44.41650390625" viewBox="0 0 43.04296875 44.41650390625"><g><g><path d="M21.521154375000002,26.62733896484375C20.087484375,26.62733896484375,18.927734375,25.96483896484375,18.927734375,25.14803896484375L18.927734375,1.47923896484375C18.927734375,0.66238696484375,20.087484375,-0.00006103515625,21.521154375000002,-0.00006103515625C22.954834375,-0.00006103515625,24.114584375,0.66238696484375,24.114584375,1.47923896484375L24.114584375,25.14803896484375C24.114584375,25.96483896484375,22.954834375,26.62733896484375,21.521154375000002,26.62733896484375Z" fill="#FFFFFF" fill-opacity="1"/></g><g><path d="M9.8886,5.60329218359375C3.80765,9.43292318359375,5.80324e-16,16.08851318359375,0,23.33731318359375C0,34.97891318359375,9.6355,44.41631318359375,21.5215,44.41631318359375C33.4075,44.41631318359375,43.043,34.97891318359375,43.043,23.33731318359375C43.043,15.88061318359375,39.0164,9.06649318359375,32.6533,5.29723318359375C31.061,4.35400718359375,29.1861,5.61186318359375,29.1861,7.46257318359375C29.1861,8.461683183593749,29.7459,9.35394318359375,30.588,9.89170318359375Q32.0135,10.80204318359375,33.2408,12.00420318359375Q35.6468,14.36070318359375,36.8963,17.45191318359375Q38.043,20.28891318359375,38.043,23.33731318359375Q38.043,26.38571318359375,36.8963,29.22261318359375Q35.6468,32.31381318359375,33.2408,34.67031318359375Q30.8227,37.03881318359375,27.6358,38.27451318359375Q24.6911,39.41631318359375,21.5215,39.41631318359375Q18.3518,39.41631318359375,15.4072,38.27451318359375Q12.2203,37.03881318359375,9.80212,34.67031318359375Q7.39618,32.313913183593755,6.1467,29.22261318359375Q5,26.38571318359375,5,23.33731318359375Q5,20.28891318359375,6.1467,17.45191318359375Q7.39618,14.36069318359375,9.80212,12.00421318359375Q10.8596,10.96851318359375,12.064,10.14942318359375C12.8705,9.60097318359375,13.4189,8.71505318359375,13.4189,7.73976318359375C13.4189,5.85559918359375,11.4829,4.59921618359375,9.8886,5.60329218359375" fill-rule="evenodd" fill="#FFFFFF" fill-opacity="1"/></g></g></svg>