<svg xmlns="http://www.w3.org/2000/svg" xmlns:xlink="http://www.w3.org/1999/xlink"  version="1.1" width="38"
     height="41.50439453125" viewBox="0 0 38 41.50439453125">
    <g>
        <g transform="matrix(-1,0,0,1,75.77908325195312,0)">
            <path d="M39.946741625976564,13.794265351562501Q41.93442162597656,9.8831053515625,45.43552162597656,7.2376483515625Q45.43841162597656,7.2354643515625,45.441301625976564,7.2332783515625Q45.70175162597656,7.0363973515625,46.011301625976564,6.9325663515625Q46.32084162597656,6.8287353515625,46.647341625976566,6.8287353515625Q46.74559162597656,6.8287353515625,46.84337162597656,6.8383659015625Q46.94115162597656,6.8479964515625,47.03751162597656,6.8671647515625Q47.133881625976564,6.8863331515625,47.227901625976564,6.9148546515625Q47.32193162597656,6.9433763515625,47.41270162597657,6.9809763515625Q47.50348162597656,7.0185763515625,47.59013162597656,7.0648923515625Q47.67678162597656,7.1112093515625,47.75847162597656,7.1657963515625Q47.840171625976566,7.2203833515625,47.916141625976564,7.2827143515625Q47.99204162597656,7.3450463515625,48.06154162597656,7.4145213515625Q48.131041625976565,7.4839973515625005,48.193341625976565,7.5599483515625Q48.255641625976565,7.6358993515625,48.31024162597656,7.7175943515625Q48.36484162597657,7.7992893515625,48.41114162597656,7.8859453515624995Q48.45754162597656,7.9725953515625,48.495141625976565,8.0633653515625Q48.53274162597656,8.1541453515625,48.561241625976564,8.2481653515625Q48.589741625976565,8.3421853515625,48.60894162597656,8.4385553515625Q48.628041625976564,8.5349253515625,48.63774162597656,8.6327053515625Q48.647341625976566,8.7304853515625,48.647341625976566,8.8287353515625Q48.647341625976566,9.0608053515625,48.594241625976565,9.2867053515625Q48.54104162597656,9.5126053515625,48.43764162597656,9.7203353515625Q48.334141625976564,9.9280653515625,48.185841625976565,10.1065953515625Q48.03764162597656,10.2851153515625,47.85238162597656,10.4249353515625Q45.083721625976565,12.5151253515625,43.51266162597656,15.6064953515625Q42.70206162597656,17.201535351562498,42.296291625976565,18.9018353515625L44.89095162597656,18.9018353515625C48.41124162597656,18.9018353515625,50.277041625976565,17.5811353515625,56.437541625976564,17.5811353515625C62.59804162597656,17.5811353515625,65.21604162597656,18.9018353515625,68.73634162597656,18.9018353515625L71.25814162597656,18.9018353515625Q70.97514162597656,17.719435351562502,70.49664162597657,16.5819453515625Q69.36564162597656,13.893515351562499,67.30274162597657,11.819385351562499Q67.16424162597656,11.680205351562499,67.05554162597656,11.516765351562501Q66.94684162597656,11.3533253515625,66.87194162597656,11.1718653515625Q66.79704162597656,10.9904053515625,66.75894162597656,10.7978453515625Q66.72074162597656,10.6052953515625,66.72074162597656,10.408995351562499Q66.72074162597656,10.3107353515625,66.73034162597656,10.2129553515625Q66.74004162597656,10.115175351562499,66.75914162597655,10.0188153515625Q66.77834162597657,9.9224453515625,66.80684162597656,9.828425351562501Q66.83534162597655,9.734395351562501,66.87294162597657,9.6436253515625Q66.91054162597656,9.5528553515625,66.95684162597657,9.4661953515625Q67.00324162597656,9.3795453515625,67.05774162597656,9.2978553515625Q67.11234162597657,9.2161553515625,67.17474162597657,9.1402053515625Q67.23704162597656,9.064255351562501,67.30654162597656,8.9947753515625Q67.37604162597657,8.9253053515625,67.45194162597656,8.8629753515625Q67.52794162597657,8.8006353515625,67.60964162597656,8.7460553515625Q67.69124162597656,8.691465351562499,67.77794162597657,8.6451453515625Q67.86454162597656,8.5988353515625,67.95534162597656,8.5612353515625Q68.04614162597656,8.5236353515625,68.14014162597655,8.4951153515625Q68.23414162597656,8.4665853515625,68.33054162597657,8.4474253515625Q68.42694162597657,8.4282553515625,68.52474162597656,8.4186253515625Q68.62244162597656,8.408995351562499,68.72074162597656,8.408995351562499Q68.91844162597656,8.408995351562499,69.11224162597657,8.4476853515625Q69.30604162597656,8.4863753515625,69.48864162597656,8.5622653515625Q69.67114162597656,8.6381553515625,69.83524162597656,8.7483053515625Q69.99934162597657,8.858455351562501,70.13874162597656,8.9986053515625L70.13884162597657,8.9986453515625L70.13904162597656,8.9989353515625Q72.75084162597656,11.6249853515625,74.18364162597656,15.0308653515625Q75.66734162597656,18.5577353515625,75.66734162597656,22.4159353515625Q75.66734162597656,26.2741353515625,74.18364162597656,29.8010353515625Q72.75074162597656,33.2071353515625,70.13874162597656,35.8332353515625Q67.52564162597656,38.4605353515625,64.13504162597656,39.9024353515625Q60.62214162597657,41.3963353515625,56.77844162597656,41.3963353515625Q52.93484162597656,41.3963353515625,49.42184162597656,39.9024353515625Q46.031341625976566,38.4605353515625,43.41821162597656,35.8332353515625Q40.80619162597656,33.2071353515625,39.37329162597656,29.8010353515625Q37.889591217076564,26.2741353515625,37.889595031776565,22.4159353515625Q37.88959884647656,17.8421353515625,39.946741625976564,13.794265351562501ZM71.22674162597656,26.0587353515625C60.81584162597656,25.9030353515625,59.49644162597656,31.8218353515625,59.364541625976564,37.1737353515625Q61.009441625976564,36.884935351562504,62.56974162597656,36.221435351562505Q65.24084162597656,35.0855353515625,67.30274162597657,33.0124353515625Q69.36564162597656,30.9383353515625,70.49664162597657,28.2499353515625Q70.94914162597657,27.1743353515625,71.22674162597656,26.0587353515625ZM52.574141625976566,36.7928353515625C52.63674162597656,31.6557353515625,52.513741625976564,26.5664353515625,42.35104162597656,26.1412353515625Q42.624591625976564,27.2141353515625,43.06032162597656,28.2499353515625Q44.191301625976564,30.9383353515625,46.25426162597656,33.0124353515625Q48.31614162597656,35.0855353515625,50.987241625976566,36.221435351562505Q51.77004162597656,36.5543353515625,52.574141625976566,36.7928353515625Z"
                  />
        </g>
        <g transform="matrix(-1,0,0,1,27.4453125,0)">
            <path d="M13.74822575,1.26375053125C13.86015225,0.72827853125,14.31611325,0.40160953125,14.76719625,0.53372053125C15.17141625,0.65172553125,15.73058625,0.91173653125,16.29986625,1.36775553125C17.301996250000002,2.17178453125,17.93358625,3.31983453125,17.93358625,4.81489453125C17.93358625,6.18595453125,17.51083625,6.94498453125,16.501136250000002,8.00603453125L16.24175625,8.28104453125C15.60005625,8.98007453125,15.40721625,9.39108453125,15.40721625,10.19412453125C15.40721625,10.84519453125,15.71374625,11.41619453125,16.27207625,11.90919453125C16.51700625,12.12359453125,16.89549625,12.36309453125,17.17588625,12.50339453125L17.17588625,12.50539453125L17.145376249999998,12.50339453125L17.09136625,12.50539453125C17.55622625,12.51349453125,17.951306250000002,12.96619453125,17.94479625,13.51829453125C17.93828625,14.07029453125,17.55632625,14.51169453125,17.09146625,14.50429453125C15.90322625,14.50429453125,13.722961433,12.58119453125,13.722961433,10.19412453125C13.722961433,8.62905453125,14.18612925,7.76802453125,15.26994625,6.62897453125L15.51416625,6.36996453125C16.09017625,5.74693453125,16.24933625,5.41992453125,16.24933625,4.81489453125C16.24933625,4.06286453125,15.93353625,3.48784453125,15.35668625,3.02482453125C15.11270625,2.83087453125,14.84970625,2.67303453125,14.57350825,2.55480453125L14.44382125,2.50380453125L14.26865925,2.44080453125C13.86895325,2.26241453125,13.64493735,1.75701453125,13.74738415,1.26475053125L13.74822575,1.26375053125Z"
                 />
            <path d="M16.60302625,11.53439453125Q15.90721625,10.91999453125,15.90721625,10.19412453125Q15.90721625,9.70374453125,16.04115625,9.40074453125Q16.17912625,9.08864453125,16.60549625,8.62410453125L16.86333625,8.35071453125Q17.70922625,7.46182453125,18.04857625,6.73927453125Q18.43358625,5.91948453125,18.43358625,4.81489453125Q18.43358625,2.43865453125,16.61246625,0.9775215312500001Q15.77576625,0.30728453125,14.90773625,0.053876531250000026Q14.33567725,-0.11366346875,13.83932925,0.24193953125Q13.43455325,0.53193663125,13.29127225,1.03014753125L13.28359925,1.03925853125L13.25787225,1.16287653125Q13.14826925,1.68952453125,13.36260525,2.17308453125Q13.58963525,2.68529453125,14.06488625,2.89739453125L14.08190025,2.90498453125L14.26767125,2.97180453125L14.38330525,3.01728453125Q14.733706250000001,3.16832453125,15.04370625,3.41475453125Q15.749336249999999,3.98113453125,15.749336249999999,4.81489453125Q15.749336249999999,5.15393453125,15.64614625,5.37108453125Q15.52922625,5.61714453125,15.15037625,6.02695453125L14.90771625,6.28431453125Q14.00221325,7.23596453125,13.63477145,8.04504453125Q13.22296125,8.95181453125,13.22296125,10.19412453125Q13.22296125,12.04319453125,14.58815825,13.57679453125Q15.85887625,15.00429453125,17.08356625,15.00419453125Q17.66550625,15.01339453125,18.06809625,14.54819453125Q18.43772625,14.12109453125,18.44475625,13.52419453125Q18.45181625,12.92539453125,18.075456250000002,12.48359453125Q17.76865625,12.12339453125,17.35654625,12.03439453125Q16.91625625,11.80859453125,16.60302625,11.53439453125ZM17.07974625,12.69549453125L16.95207625,12.95049453125Q16.36927625,12.65879453125,15.94111625,12.28399453125Q14.90721625,11.37099453125,14.90721625,10.19412453125Q14.90721625,9.49256453125,15.126536250000001,8.99642453125Q15.33108625,8.53370453125,15.87801625,7.93798453125L16.13892625,7.66135453125Q16.87301625,6.88993453125,17.14342625,6.31416453125Q17.43358625,5.69635453125,17.43358625,4.81489453125Q17.43358625,2.91840453125,15.98726625,1.75798453125Q15.30526625,1.21167053125,14.62666425,1.0135645312500001Q14.52209225,0.9829385312500001,14.42172625,1.05484453125Q14.28173425,1.1551395312500001,14.23764825,1.36605253125L14.22968925,1.4041305312499999Q14.15455425,1.83168453125,14.45819625,1.97761453125L14.61997025,2.03580453125L14.76342625,2.09221453125L14.77026625,2.09514453125Q15.24788625,2.29959453125,15.66966625,2.63489453125Q16.74933625,3.50150453125,16.74933625,4.81489453125Q16.74933625,5.37944453125,16.54935625,5.80027453125Q16.36699625,6.18405453125,15.87795625,6.71297453125L15.63217625,6.97363453125Q14.84295625,7.80307453125,14.54527325,8.45854453125Q14.22296125,9.16825453125,14.22296125,10.19412453125Q14.22296125,11.66259453125,15.33508625,12.91189453125Q15.79692625,13.43069453125,16.316546250000002,13.73509453125Q16.776196249999998,14.00429453125,17.09936625,14.00439453125Q17.21471625,14.00619453125,17.31193625,13.89389453125Q17.442106250000002,13.74339453125,17.44482625,13.51239453125Q17.44746625,13.28849453125,17.31422625,13.13209453125Q17.20808625,13.00749453125,17.08263625,13.00529453125L17.07974625,12.69549453125Z"
                  />
        </g>
        <g transform="matrix(-1,0,0,1,40.111328125,0)">
            <path d="M20.0812335625,1.26375053125C20.1931600625,0.72827853125,20.6491210625,0.40160953125,21.1002040625,0.53372053125C21.5044240625,0.65172553125,22.0635940625,0.91173653125,22.6328740625,1.36775553125C23.635004062500002,2.17178453125,24.2665940625,3.31983453125,24.2665940625,4.81489453125C24.2665940625,6.18595453125,23.8438440625,6.94498453125,22.834144062500002,8.00603453125L22.5747640625,8.28104453125C21.9330640625,8.98007453125,21.7402240625,9.39108453125,21.7402240625,10.19412453125C21.7402240625,10.84519453125,22.0467540625,11.41619453125,22.6050840625,11.90919453125C22.8500140625,12.12359453125,23.2285040625,12.36309453125,23.5088940625,12.50339453125L23.5088940625,12.50539453125L23.478384062499998,12.50339453125L23.4243740625,12.50539453125C23.8892340625,12.51349453125,24.284314062500002,12.96619453125,24.2778040625,13.51829453125C24.2712940625,14.07029453125,23.8893340625,14.51169453125,23.4244740625,14.50429453125C22.2362340625,14.50429453125,20.0559692455,12.58119453125,20.0559692455,10.19412453125C20.0559692455,8.62905453125,20.5191370625,7.76802453125,21.6029540625,6.62897453125L21.8471740625,6.36996453125C22.4231840625,5.74693453125,22.5823440625,5.41992453125,22.5823440625,4.81489453125C22.5823440625,4.06286453125,22.2665440625,3.48784453125,21.6896940625,3.02482453125C21.4457140625,2.83087453125,21.1827140625,2.67303453125,20.9065160625,2.55480453125L20.7768290625,2.50380453125L20.6016670625,2.44080453125C20.2019610625,2.26241453125,19.9779451625,1.75701453125,20.0803919625,1.26475053125L20.0812335625,1.26375053125Z"
                 />
            <path d="M22.9360340625,11.53439453125Q22.2402240625,10.91999453125,22.2402240625,10.19412453125Q22.2402240625,9.70374453125,22.3741640625,9.40074453125Q22.5121340625,9.08864453125,22.9385040625,8.62410453125L23.1963440625,8.35071453125Q24.0422340625,7.46182453125,24.3815840625,6.73927453125Q24.7665940625,5.91948453125,24.7665940625,4.81489453125Q24.7665940625,2.43865453125,22.9454740625,0.9775215312500001Q22.1087740625,0.30728453125,21.2407440625,0.053876531250000026Q20.6686850625,-0.11366346875,20.1723370625,0.24193953125Q19.7675610625,0.53193663125,19.6242800625,1.03014753125L19.6166070625,1.03925853125L19.5908800625,1.16287653125Q19.4812770625,1.68952453125,19.6956130625,2.17308453125Q19.9226430625,2.68529453125,20.3978940625,2.89739453125L20.4149080625,2.90498453125L20.6006790625,2.97180453125L20.7163130625,3.01728453125Q21.0667140625,3.16832453125,21.3767140625,3.41475453125Q22.0823440625,3.98113453125,22.0823440625,4.81489453125Q22.0823440625,5.15393453125,21.9791540625,5.37108453125Q21.8622340625,5.61714453125,21.4833840625,6.02695453125L21.2407240625,6.28431453125Q20.3352210625,7.23596453125,19.9677792625,8.04504453125Q19.5559690625,8.95181453125,19.5559690625,10.19412453125Q19.5559690625,12.04319453125,20.9211660625,13.57679453125Q22.1918840625,15.00429453125,23.4165740625,15.00419453125Q23.9985140625,15.01339453125,24.4011040625,14.54819453125Q24.7707340625,14.12109453125,24.7777640625,13.52419453125Q24.7848240625,12.92539453125,24.408464062500002,12.48359453125Q24.1016640625,12.12339453125,23.6895540625,12.03439453125Q23.2492640625,11.80859453125,22.9360340625,11.53439453125ZM23.4127540625,12.69549453125L23.2850840625,12.95049453125Q22.7022840625,12.65879453125,22.2741240625,12.28399453125Q21.2402240625,11.37099453125,21.2402240625,10.19412453125Q21.2402240625,9.49256453125,21.4595440625,8.99642453125Q21.6640940625,8.53370453125,22.2110240625,7.93798453125L22.4719340625,7.66135453125Q23.2060240625,6.88993453125,23.4764340625,6.31416453125Q23.7665940625,5.69635453125,23.7665940625,4.81489453125Q23.7665940625,2.91840453125,22.3202740625,1.75798453125Q21.6382740625,1.21167053125,20.9596720625,1.0135645312500001Q20.8551000625,0.9829385312500001,20.7547340625,1.05484453125Q20.6147420625,1.1551395312500001,20.5706560625,1.36605253125L20.5626970625,1.4041305312499999Q20.4875620625,1.83168453125,20.7912040625,1.97761453125L20.9529780625,2.03580453125L21.0964340625,2.09221453125L21.1032740625,2.09514453125Q21.5808940625,2.29959453125,22.0026740625,2.63489453125Q23.0823440625,3.50150453125,23.0823440625,4.81489453125Q23.0823440625,5.37944453125,22.8823640625,5.80027453125Q22.7000040625,6.18405453125,22.2109640625,6.71297453125L21.9651840625,6.97363453125Q21.1759640625,7.80307453125,20.8782810625,8.45854453125Q20.5559690625,9.16825453125,20.5559690625,10.19412453125Q20.5559690625,11.66259453125,21.6680940625,12.91189453125Q22.1299340625,13.43069453125,22.649554062500002,13.73509453125Q23.109204062499998,14.00429453125,23.4323740625,14.00439453125Q23.5477240625,14.00619453125,23.6449440625,13.89389453125Q23.775114062500002,13.74339453125,23.7778340625,13.51239453125Q23.7804740625,13.28849453125,23.6472340625,13.13209453125Q23.5410940625,13.00749453125,23.4156440625,13.00529453125L23.4127540625,12.69549453125Z"
                  />
        </g>
        <g transform="matrix(-1,0,0,1,52.77734375,0)">
            <path d="M26.414241375,1.26375053125C26.526167875,0.72827853125,26.982128875,0.40160953125,27.433211875,0.53372053125C27.837431875,0.65172553125,28.396601875,0.91173653125,28.965881875,1.36775553125C29.968011875000002,2.17178453125,30.599601875,3.31983453125,30.599601875,4.81489453125C30.599601875,6.18595453125,30.176851875,6.94498453125,29.167151875000002,8.00603453125L28.907771875,8.28104453125C28.266071875,8.98007453125,28.073231875,9.39108453125,28.073231875,10.19412453125C28.073231875,10.84519453125,28.379761875,11.41619453125,28.938091875,11.90919453125C29.183021875,12.12359453125,29.561511875,12.36309453125,29.841901875,12.50339453125L29.841901875,12.50539453125L29.811391874999998,12.50339453125L29.757381875,12.50539453125C30.222241875,12.51349453125,30.617321875000002,12.96619453125,30.610811875,13.51829453125C30.604301875,14.07029453125,30.222341875,14.51169453125,29.757481875,14.50429453125C28.569241875,14.50429453125,26.388977058,12.58119453125,26.388977058,10.19412453125C26.388977058,8.62905453125,26.852144875,7.76802453125,27.935961875,6.62897453125L28.180181875,6.36996453125C28.756191875,5.74693453125,28.915351875,5.41992453125,28.915351875,4.81489453125C28.915351875,4.06286453125,28.599551875,3.48784453125,28.022701875,3.02482453125C27.778721875,2.83087453125,27.515721875,2.67303453125,27.239523875,2.55480453125L27.109836875,2.50380453125L26.934674875,2.44080453125C26.534968875,2.26241453125,26.310952975,1.75701453125,26.413399775,1.26475053125L26.414241375,1.26375053125Z"
                 />
            <path d="M29.269041875,11.53439453125Q28.573231875,10.91999453125,28.573231875,10.19412453125Q28.573231875,9.70374453125,28.707171875,9.40074453125Q28.845141875,9.08864453125,29.271511875,8.62410453125L29.529351875,8.35071453125Q30.375241875,7.46182453125,30.714591875,6.73927453125Q31.099601875,5.91948453125,31.099601875,4.81489453125Q31.099601875,2.43865453125,29.278481875,0.9775215312500001Q28.441781875,0.30728453125,27.573751875,0.053876531250000026Q27.001692875,-0.11366346875,26.505344875,0.24193953125Q26.100568875,0.53193663125,25.957287875,1.03014753125L25.949614875,1.03925853125L25.923887875,1.16287653125Q25.814284875,1.68952453125,26.028620875,2.17308453125Q26.255650875,2.68529453125,26.730901875,2.89739453125L26.747915875,2.90498453125L26.933686875,2.97180453125L27.049320875,3.01728453125Q27.399721875,3.16832453125,27.709721875,3.41475453125Q28.415351875,3.98113453125,28.415351875,4.81489453125Q28.415351875,5.15393453125,28.312161875,5.37108453125Q28.195241875,5.61714453125,27.816391875,6.02695453125L27.573731875,6.28431453125Q26.668228875,7.23596453125,26.300787075,8.04504453125Q25.888976875,8.95181453125,25.888976875,10.19412453125Q25.888976875,12.04319453125,27.254173875,13.57679453125Q28.524891875,15.00429453125,29.749581875,15.00419453125Q30.331521875,15.01339453125,30.734111875,14.54819453125Q31.103741875,14.12109453125,31.110771875,13.52419453125Q31.117831875,12.92539453125,30.741471875000002,12.48359453125Q30.434671875,12.12339453125,30.022561875,12.03439453125Q29.582271875,11.80859453125,29.269041875,11.53439453125ZM29.745761875,12.69549453125L29.618091875,12.95049453125Q29.035291875,12.65879453125,28.607131875,12.28399453125Q27.573231875,11.37099453125,27.573231875,10.19412453125Q27.573231875,9.49256453125,27.792551875,8.99642453125Q27.997101875,8.53370453125,28.544031875,7.93798453125L28.804941875,7.66135453125Q29.539031875,6.88993453125,29.809441875,6.31416453125Q30.099601875,5.69635453125,30.099601875,4.81489453125Q30.099601875,2.91840453125,28.653281875,1.75798453125Q27.971281875,1.21167053125,27.292679875,1.0135645312500001Q27.188107875,0.9829385312500001,27.087741875,1.05484453125Q26.947749875,1.1551395312500001,26.903663875,1.36605253125L26.895704875,1.4041305312499999Q26.820569875,1.83168453125,27.124211875,1.97761453125L27.285985875,2.03580453125L27.429441875,2.09221453125L27.436281875,2.09514453125Q27.913901875,2.29959453125,28.335681875,2.63489453125Q29.415351875,3.50150453125,29.415351875,4.81489453125Q29.415351875,5.37944453125,29.215371875,5.80027453125Q29.033011875,6.18405453125,28.543971875,6.71297453125L28.298191875,6.97363453125Q27.508971875,7.80307453125,27.211288875,8.45854453125Q26.888976875,9.16825453125,26.888976875,10.19412453125Q26.888976875,11.66259453125,28.001101875,12.91189453125Q28.462941875,13.43069453125,28.982561875000002,13.73509453125Q29.442211874999998,14.00429453125,29.765381875,14.00439453125Q29.880731875,14.00619453125,29.977951875,13.89389453125Q30.108121875000002,13.74339453125,30.110841875,13.51239453125Q30.113481875,13.28849453125,29.980241875,13.13209453125Q29.874101875,13.00749453125,29.748651875,13.00529453125L29.745761875,12.69549453125Z"
                  />
        </g>
    </g>
</svg>