<svg xmlns="http://www.w3.org/2000/svg" xmlns:xlink="http://www.w3.org/1999/xlink" fill="none" version="1.1" width="80" height="80" viewBox="0 0 80 80"><defs><clipPath id="master_svg0_36_9127"><rect x="0" y="0" width="80" height="80" rx="0"/></clipPath></defs><g clip-path="url(#master_svg0_36_9127)"><g><path d="M60.495108203125,52.26291328125L60.521908203125,52.25791328125Q65.35670820312501,51.35401328125,67.34730820312501,46.89321328125L67.35190820312499,46.88291328125L67.356208203125,46.87251328125Q68.771208203125,43.42781328125,68.756108203125,39.237313281249996L68.756108203125,39.226413281250004L68.75570820312501,39.21561328125Q68.624308203125,35.16891328125,66.864208203125,32.05771328125L66.856508203125,32.04401328125L66.848208203125,32.03071328125Q61.921708203125,24.11331328125,52.885708203125,26.71961328125L52.871608203125,26.72361328125L52.857708203125,26.72821328125Q49.884808203125,27.71301328125,47.653608203125,29.27611328125Q45.278308203125,30.91581328125,43.798808203125,32.71851328125Q44.125708203125,31.69531328125,44.806308203125,30.71771328125L44.821608203125,30.69571328125L44.835308203125,30.67271328125Q45.934108203125,28.82631328125,47.802508203125,27.62371328125Q52.786108203125,24.73271328125,52.117408203125,19.54038328125Q51.618808203125,14.65435328125,46.913708203125,12.55473328125L46.905208203125,12.55094328125L46.896708203125,12.54737328125Q43.322108203125,11.05734008125,39.244208203125,11.14610477125Q34.925708203125,11.21008918125,32.042608203125,13.05932328125Q28.101508203125,15.51156328125,26.756108203125002,19.04494328125Q25.408008203125,22.58521328125,26.742508203125,27.02451328125L26.745508203125,27.03451328125L26.748808203125,27.04441328125Q27.695208203125,29.90161328125,29.233708203125,32.300213281249995Q30.605308203125,34.35851328125,32.527908203125,36.00221328125Q29.346308203125,34.93911328125,27.729308203125,32.15931328125L27.631608203125,31.99131328125L27.552708203125,31.94431328125Q24.730208203125002,27.23131328125,19.567028203125,27.78411328125Q14.557568203125001,28.40951328125,12.643838203125,33.05421328125Q11.228552903125,36.499713281249996,11.243564837125,40.69031328125Q11.306491103125,44.94011328125,13.228498203125,47.94271328125Q18.084448203125,55.97751328125,27.060708203125,53.28731328125Q29.387608203125,52.69281328125,32.351908203125,50.79151328125Q34.546608203125004,49.32891328125,36.016608203125,47.60171328125Q34.937208203124996,50.70311328125,32.155208203125,52.37881328125Q27.273108203125,55.20241328125,27.835808203125,60.45811328125Q28.453108203125,65.40301328125,33.040108203125,67.44991328124999L33.050308203125,67.45451328125L33.060708203125,67.45881328125Q36.505408203125,68.87381328125,40.696008203125004,68.85871328125Q44.902008203125,68.79641328125,47.899208203125,66.95291328125Q55.910508203125,62.11681328125,53.290808203125,53.03411328125Q52.534908203125,50.45941328125,50.797308203125,47.75031328125Q49.412108203125,45.67181328125,47.465308203125,44.01621328125Q48.429308203125,44.33871328125,49.383608203125,44.90661328125Q51.121908203125,45.94111328125,52.308208203125,47.90231328125Q55.176508203125,52.86201328125,60.468008203125,52.26601328125L60.495108203125,52.26291328125ZM33.370308203125,55.34391328125Q30.940208203125,57.09101328125,31.204108203125,59.95311328125Q31.527808203125,62.97601328125,34.451208203125,64.15791328125L34.462808203125,64.16261328125L34.474208203125,64.16761328125Q37.286308203125,65.41471328125,40.740508203125,65.31141328125L40.760108203125,65.31091328125001L40.779708203125,65.31131328125Q43.774108203125,65.37831328125,46.279208203125,63.92121328125Q52.246908203125,60.29421328125,50.220508203125,53.73831328125Q49.577308203125,51.57141328125,48.106008203125,49.38121328125Q46.628008203125,47.07691328125,44.596608203125,45.71351328125Q43.395008203125,44.99231328125,43.088808203125,43.98861328125Q42.778908203125,42.97291328125,43.419408203125,41.87821328125Q43.893008203125,40.927213281250005,44.771508203125,40.52121328125Q45.639808203125,40.120013281249996,46.788208203125,40.31671328125L46.805008203125,40.31961328125L46.821608203125,40.32321328125Q49.159008203125,40.83381328125,51.037608203125,41.95191328125Q53.672908203125,43.52021328125,55.170608203125,46.09521328125Q56.883808203125,49.15311328125,60.075708203125,48.86741328125Q63.164908203125,48.43111328125,64.332608203125,45.54261328125L64.336608203125,45.53281328125L64.340808203125,45.52311328125Q65.588408203125,42.67211328125,65.486208203125,39.25331328125Q65.385908203125,35.901113281250005,64.025208203125,33.678913281250004Q62.176108203125,30.74391328125,59.658008203125,29.77851328125Q57.128608203125,28.80881328125,53.736208203125,29.75231328125Q51.586708203125,30.58541328125,49.387008203125,31.99621328125Q47.098208203125,33.46431328125,45.718708203125,35.50661328125Q44.997708203125,36.707313281249995,43.994408203125,37.01351328125Q42.977908203125,37.323613281250005,41.882308203125,36.68181328125Q39.836908203125,35.65231328125,40.243808203125,33.27801328125Q40.567308203124995,31.22551328125,41.926508203124996,28.94161328125Q43.494808203125,26.30631328125,46.069808203125,24.80861328125Q49.132008203125,23.093013281250002,48.841208203125,19.894613281250003Q48.478208203125,16.76265328125,45.649008203125,15.618803281249999Q42.443608203124995,14.36933328125,39.336008203125004,14.46211328125Q36.153408203125,14.49379328125,33.808808203125,15.85421328125Q30.822808203125,17.70610328125,29.855108203125,20.23741328125Q28.897508203125,22.742513281249998,29.871708203125,26.037013281249997Q30.483808203125,28.12211328125,32.008508203125004,30.50221328125Q33.604908203125,32.77681328125,35.573008203125,34.10621328125Q36.773708203125,34.827213281249996,37.079908203125,35.830613281249995Q37.390008203125,36.84711328125,36.748208203125,37.94281328125Q35.756908203125,39.90961328125,33.380508203125004,39.50251328125L33.369608203125,39.50061328125L33.358908203125,39.498413281249995Q27.750708203125,38.367713281250005,25.126808203125,33.702913281250005Q23.330608203125,30.71471328125,20.170048203125,30.99771328125Q17.080908203125,31.43401328125,15.913168203125,34.32241328125L15.908498203125,34.33401328125L15.903448203125,34.34541328125Q14.656338203125,37.157513281250004,14.759618203125001,40.61181328125L14.760198203125,40.631413281250005L14.759768203125,40.65101328125Q14.692728203125,43.64531328125,16.149818203125,46.15051328125Q19.776888203125,52.11811328125,26.332708203125,50.09171328125Q28.499608203125,49.44851328125,30.689808203125,47.97721328125Q32.994108203124995,46.49921328125,34.357508203125,44.46781328125Q35.078708203125004,43.26621328125,36.082508203125,42.959913281249996Q37.098908203125,42.649813281250005,38.194708203125,43.29161328125Q40.161408203125,44.28291328125,39.754308203125,46.65941328125L39.751408203124996,46.67611328125L39.747808203125004,46.69281328125Q38.485208203125,52.47241328125,33.853408203125,55.07271328125L33.370308203125,55.34391328125ZM43.580308203125,33.75351328125Q43.582808203125,33.764713281249996,43.585508203125,33.770713281249996L43.588508203125,33.75831328125Q43.584408203125,33.75591328125,43.580308203125,33.75351328125Z" fill-rule="evenodd" fill="#FFFFFF" fill-opacity="1"/></g></g></svg>