<svg xmlns="http://www.w3.org/2000/svg" xmlns:xlink="http://www.w3.org/1999/xlink" fill="none" version="1.1" width="56.30103302001953" height="56.30103302001953" viewBox="0 0 56.30103302001953 56.30103302001953"><defs><clipPath id="master_svg0_144_03913"><rect x="0" y="0" width="56.30103302001953" height="56.30103302001953" rx="0"/></clipPath></defs><g clip-path="url(#master_svg0_144_03913)"><g><path d="M42.69735030441284,40.96661408538819Q42.30925030441284,40.18501408538818,41.436650304412844,40.18501408538818L15.039050304412841,40.18501408538818Q14.595950304412842,40.18501408538818,14.232850304412842,40.43881408538819Q13.869650304412842,40.69251408538818,13.717350304412841,41.10851408538818L13.169150304412842,42.605214085388184Q12.712150304412841,43.85321408538818,11.622670304412841,44.61451408538819Q10.533210304412842,45.37571408538818,9.204150304412842,45.37571408538818L6.3248203044128415,45.37571408538818Q4.575760304412842,45.37571408538818,3.339000304412842,44.13891408538819Q2.1022393704128417,42.90221408538818,2.1022393704128417,41.15311408538818L2.1022393704128417,27.825514085388182Q2.1022393704128417,26.427114085388183,2.936828304412842,25.305214085388183L12.367450304412841,12.627684085388184Q12.964950304412842,11.824370085388184,13.859550304412842,11.374865085388183Q14.754150304412843,10.925359010688183,15.755350304412842,10.925359010688183L40.74605030441284,10.925359129888184Q41.75805030441284,10.925359129888184,42.66005030441284,11.384061085388183Q43.56205030441284,11.842763085388183,44.15825030441284,12.660514085388183L53.38905030441284,25.323014085388184Q54.19945030441284,26.434714085388183,54.19945030441284,27.810414085388185L54.19945030441284,41.15311408538818Q54.19945030441284,42.90221408538818,52.96265030441284,44.13891408538819Q51.725850304412845,45.37571408538818,49.97685030441284,45.37571408538818L47.50445030441284,45.37571408538818Q46.30175030441284,45.37571408538818,45.279550304412844,44.742014085388185Q44.25735030441284,44.10831408538818,43.72245030441284,43.03111408538818L42.69735030441284,40.96661408538819ZM45.21865030441284,39.714614085388185L46.24375030441284,41.77911408538819Q46.63185030441284,42.560714085388184,47.50445030441284,42.560714085388184L49.97685030441284,42.560714085388184Q50.55985030441284,42.560714085388184,50.97215030441284,42.14841408538818Q51.38435030441284,41.73611408538818,51.38435030441284,41.15311408538818L51.38435030441284,27.810414085388185Q51.38435030441284,27.351814085388185,51.11425030441284,26.981314085388185L41.88345030441284,14.318794085388184Q41.46175030441284,13.740414085388183,40.74605030441284,13.740414085388183L15.755350304412842,13.740414085388183Q15.048150304412841,13.740414085388183,14.626050304412841,14.307854085388183L5.195490304412842,26.985414085388182Q4.917290304412842,27.359414085388185,4.917290304412842,27.825514085388182L4.917290304412842,41.15311408538818Q4.917290304412842,41.73611408538818,5.329550304412842,42.14841408538818Q5.741800304412841,42.560714085388184,6.3248203044128415,42.560714085388184L9.204150304412842,42.560714085388184Q9.647170304412843,42.560714085388184,10.010320304412842,42.306914085388186Q10.373480304412842,42.053214085388184,10.525830304412843,41.63721408538818L11.073980304412842,40.14041408538819Q11.531030304412841,38.89241408538818,12.620450304412842,38.13121408538818Q13.709950304412843,37.370014085388185,15.039050304412841,37.370014085388185L41.436650304412844,37.370014085388185Q42.639350304412844,37.370014085388185,43.66155030441284,38.00371408538818Q44.68375030441284,38.63741408538819,45.21865030441284,39.714614085388185ZM42.52925030441284,24.768914085388182Q42.52925030441284,24.838214085388184,42.52245030441284,24.907114085388184Q42.515650304412844,24.976014085388183,42.502150304412844,25.044014085388184Q42.48865030441284,25.111914085388186,42.468550304412844,25.178214085388184Q42.448450304412845,25.244514085388182,42.42195030441284,25.308514085388182Q42.39545030441284,25.372514085388183,42.36275030441284,25.433614085388186Q42.33015030441284,25.494714085388182,42.29165030441284,25.552314085388183Q42.25315030441284,25.609914085388183,42.20925030441284,25.663414085388183Q42.165250304412844,25.716914085388183,42.116250304412844,25.765914085388182Q42.06735030441284,25.81491408538818,42.013750304412845,25.858914085388186Q41.96025030441284,25.902814085388183,41.902650304412845,25.941314085388186Q41.845050304412844,25.979814085388185,41.78395030441284,26.012414085388183Q41.722850304412844,26.045114085388185,41.658850304412844,26.071614085388184Q41.594850304412844,26.098114085388183,41.52855030441284,26.118214085388182Q41.46225030441284,26.13831408538818,41.39435030441284,26.15181408538818Q41.326450304412845,26.165314085388182,41.25745030441284,26.172114085388184Q41.18855030441284,26.178914085388186,41.119250304412844,26.178914085388186L41.10225030441284,26.178814085388183Q39.69185030441284,26.246214085388182,36.88585030441284,26.430514085388182Q31.06135030441284,26.813214085388182,27.968750304412843,26.813214085388182Q25.348750304412842,26.813214085388182,20.083650304412842,26.489514085388183Q17.34555030441284,26.321214085388185,16.020150304412844,26.265814085388186Q16.007350304412842,26.266014085388186,15.994650304412842,26.266014085388186Q15.925350304412841,26.266014085388186,15.856450304412842,26.259214085388184Q15.787450304412841,26.25241408538818,15.719550304412842,26.23891408538818Q15.651650304412842,26.225414085388184,15.585350304412842,26.20531408538818Q15.519050304412842,26.185214085388182,15.455050304412842,26.158714085388183Q15.391050304412841,26.132214085388185,15.329950304412842,26.099514085388183Q15.268850304412842,26.066914085388184,15.211250304412841,26.028414085388185Q15.153650304412842,25.989914085388186,15.100150304412843,25.946014085388185Q15.046550304412841,25.90201408538818,14.997650304412842,25.853014085388182Q14.948650304412842,25.804114085388186,14.904650304412842,25.750514085388183Q14.860750304412841,25.697014085388183,14.822250304412842,25.639414085388182Q14.783750304412841,25.58181408538818,14.751150304412842,25.520714085388185Q14.718450304412842,25.459614085388182,14.691950304412842,25.395614085388182Q14.665450304412841,25.331614085388182,14.645350304412842,25.265314085388184Q14.625250304412841,25.199014085388185,14.611750304412842,25.131114085388184Q14.598250304412842,25.063214085388182,14.591450304412842,24.994214085388183Q14.584650304412841,24.925314085388184,14.584650304412841,24.856014085388182Q14.584650304412841,24.786714085388184,14.591450304412842,24.717814085388184Q14.598250304412842,24.648914085388185,14.611750304412842,24.580914085388184Q14.625250304412841,24.513014085388185,14.645350304412842,24.446714085388184Q14.665450304412841,24.380414085388182,14.691950304412842,24.316414085388182Q14.718450304412842,24.25241408538818,14.751150304412842,24.191314085388186Q14.783750304412841,24.130314085388186,14.822250304412842,24.072714085388185Q14.860750304412841,24.015114085388184,14.904650304412842,23.96151408538818Q14.948650304412842,23.90801408538818,14.997650304412842,23.859014085388182Q15.046550304412841,23.810014085388183,15.100150304412843,23.766114085388182Q15.153650304412842,23.722114085388185,15.211250304412841,23.683614085388186Q15.268850304412842,23.645214085388183,15.329950304412842,23.612514085388185Q15.391050304412841,23.579914085388182,15.455050304412842,23.553314085388184Q15.519050304412842,23.52681408538818,15.585350304412842,23.506714085388182Q15.651650304412842,23.486614085388183,15.719550304412842,23.473114085388183Q15.787450304412841,23.459614085388182,15.856450304412842,23.452814085388184Q15.925350304412841,23.446014085388185,15.994650304412842,23.446014085388185Q16.065450304412842,23.446014085388185,16.13595030441284,23.453114085388183Q17.489950304412844,23.509714085388183,20.25635030441284,23.679814085388184Q25.435150304412844,23.99811408538818,27.968750304412843,23.99811408538818Q30.969050304412843,23.99811408538818,36.70135030441284,23.621514085388185Q39.53315030441284,23.435514085388185,40.96955030441284,23.36691408538818Q41.044150304412845,23.358914085388186,41.119250304412844,23.358914085388186Q41.18855030441284,23.358914085388186,41.25745030441284,23.365714085388184Q41.326450304412845,23.372514085388183,41.39435030441284,23.386014085388183Q41.46225030441284,23.399514085388184,41.52855030441284,23.419614085388183Q41.594850304412844,23.439714085388182,41.658850304412844,23.466214085388184Q41.722850304412844,23.492714085388183,41.78395030441284,23.525414085388185Q41.845050304412844,23.558014085388184,41.902650304412845,23.596514085388183Q41.96025030441284,23.635014085388185,42.013750304412845,23.679014085388182Q42.06735030441284,23.722914085388183,42.116250304412844,23.771914085388183Q42.165250304412844,23.820914085388182,42.20925030441284,23.87441408538818Q42.25315030441284,23.928014085388185,42.29165030441284,23.985614085388185Q42.33015030441284,24.043114085388183,42.36275030441284,24.104214085388186Q42.39545030441284,24.165314085388182,42.42195030441284,24.229314085388182Q42.448450304412845,24.293314085388182,42.468550304412844,24.359614085388184Q42.48865030441284,24.425914085388186,42.502150304412844,24.493814085388184Q42.515650304412844,24.561814085388185,42.52245030441284,24.630714085388185Q42.52925030441284,24.699614085388184,42.52925030441284,24.768914085388182Z" fill-rule="evenodd" fill="#FFFFFF" fill-opacity="1"/></g></g></svg>