<svg xmlns="http://www.w3.org/2000/svg" xmlns:xlink="http://www.w3.org/1999/xlink" fill="none" version="1.1" width="47.2978515625" height="42.85107421875" viewBox="0 0 47.2978515625 42.85107421875"><g><g><rect x="10.258056640625" y="37.91357421875" width="26.781251907348633" height="4.9373779296875" rx="1" fill="#FFFFFF" fill-opacity="1"/></g><g><path d="M46.021944140625,19.3463Q46.131444140625,19.4481,46.233144140625,19.5579Q46.334744140625,19.6677,46.427844140625,19.7848Q46.521044140625,19.9018,46.605144140625,20.0255Q46.689244140625,20.1492,46.763944140625,20.2788Q46.838644140625,20.4085,46.903344140625,20.5433Q46.968144140625,20.6782,47.022644140625,20.8175Q47.077144140625,20.9568,47.121144140625,21.0998Q47.165144140625,21.2428,47.198244140625,21.3886Q47.231444140625,21.5345,47.253544140625,21.6824Q47.275744140625,21.8304,47.286844140625,21.9796Q47.297844140625,22.1288,47.297744140625,22.2784Q47.297644140625,22.4279,47.286344140625,22.5771Q47.275044140625,22.7263,47.252644140625,22.8742Q47.230244140625,23.0221,47.196844140625,23.1679Q47.163444140625,23.3137,47.119244140625,23.4567Q47.075144140625,23.5996,47.020344140625,23.7388Q46.965644140625,23.878,46.900644140625,24.0128Q46.835644140625,24.1475,46.760844140625,24.277Q46.685944140625,24.4065,46.601644140625,24.5301Q46.517244140625,24.6537,46.423944140625,24.7706Q46.330644140625,24.8875,46.228844140625,24.9971Q46.127044140625,25.1067,46.017344140625,25.2084Q45.907644140625,25.3101,45.790644140625,25.4034Q45.673644140625,25.4966,45.550044140625,25.5808Q45.426444140625,25.6651,45.296844140625,25.7398Q45.167244140625,25.8146,45.032444140625,25.8795Q44.897644140625,25.9443,44.758444140625,25.999Q44.619144140625,26.0536,44.476244140625,26.0977Q44.333244140625,26.1417,44.187444140625,26.175Q44.041544140625,26.2083,43.893644140625,26.2306Q43.745744140625,26.2529,43.596544140625,26.264Q43.447344140625,26.2752,43.297744140625,26.2752L36.807344140625,26.2752L36.807344140625,33.8237C36.807344140625,34.9283,35.911944140625,35.8237,34.807344140625,35.8237L11.961144140625,35.8237C10.856644140625,35.8237,9.961184140625,34.9283,9.961184140625,33.8237L9.961184140625,26.2752L4.000114140625,26.2752Q3.850514140625,26.2752,3.701344140625,26.264Q3.552164140625,26.2529,3.404244140625,26.2306Q3.256314140625,26.2083,3.110464140625,26.175Q2.964624140625,26.1417,2.821664140625,26.0977Q2.678714140625,26.0536,2.539444140625,25.999Q2.400184140625,25.9443,2.265384140625,25.8795Q2.130594140625,25.8146,2.001024140625,25.7398Q1.871444140625,25.6651,1.747824140625,25.5808Q1.624194140625,25.4966,1.507204140625,25.4034Q1.390224140625,25.3101,1.280524140625,25.2084Q1.170824140625,25.1067,1.069024140625,24.9971Q0.967232140625,24.8875,0.873909140625,24.7706Q0.780585140625,24.6537,0.696256140625,24.5301Q0.611926140625,24.4065,0.537061140625,24.277Q0.462196140625,24.1475,0.397213140625,24.0128Q0.332231140625,23.878,0.277494140625,23.7388Q0.222758140625,23.5996,0.178573140625,23.4567Q0.134388140625,23.3137,0.101002140625,23.1679Q0.067615640625,23.0221,0.045214340625,22.8742Q0.022813040625,22.7263,0.011521940625,22.5771Q0.000230855425,22.428,0.000113024625,22.2784Q-0.000004806375000000014,22.1288,0.011051340625,21.9796Q0.022107440625,21.8304,0.044275640625,21.6825Q0.066443940625,21.5345,0.099600540625,21.3886Q0.132757140625,21.2428,0.176717140625,21.0998Q0.220676140625,20.9568,0.275193140625,20.8175Q0.329711140625,20.6782,0.394481140625,20.5433Q0.459251140625,20.4085,0.533912140625,20.2789Q0.608573140625,20.1492,0.692708140625,20.0255Q0.776843140625,19.9018,0.869982140625,19.7848Q0.963120140625,19.6677,1.064744140625,19.5579Q1.166364140625,19.4481,1.275904140625,19.3463L20.924744140625,1.0709Q21.061944140625,0.943242,21.210544140625,0.828982Q21.359144140625,0.714722,21.517744140625,0.614856Q21.676344140625,0.514991,21.843644140625,0.430397Q22.010844140625,0.345802,22.185344140625,0.277219Q22.359744140625,0.208636,22.539844140625,0.156666Q22.719944140625,0.104696,22.904144140625,0.0697937Q23.088244140625,0.0348918,23.274844140625,0.017364Q23.461444140625,-0.000163718,23.648944140625,-0.000163718Q23.836344140625,-0.000163718,24.022944140625,0.017364Q24.209644140625,0.0348918,24.393744140625,0.0697937Q24.577944140625,0.104696,24.758044140625,0.156666Q24.938044140625,0.208636,25.112544140625,0.277219Q25.286944140625,0.345802,25.454244140625,0.430397Q25.621444140625,0.514991,25.780144140625,0.614856Q25.938744140625,0.714722,26.087344140625,0.828982Q26.235844140625,0.943242,26.373144140625,1.0709L46.021944140625,19.3463ZM40.526844140625,20.0034Q40.581744140625,20.0544,40.628344140625,20.113Q40.674944140625,20.1716,40.712344140625,20.2365Q40.749744140625,20.3014,40.777044140625,20.3712Q40.804344140625,20.4409,40.820944140625,20.514Q40.837544140625,20.587,40.843044140625,20.6617Q40.848644140625,20.7364,40.842944140625,20.8111Q40.837344140625,20.8858,40.820544140625,20.9588Q40.803844140625,21.0318,40.776444140625,21.1015Q40.749044140625,21.1712,40.711544140625,21.2361Q40.674044140625,21.3009,40.627344140625,21.3595Q40.580644140625,21.418,40.525744140625,21.4689Q40.470744140625,21.5199,40.408844140625,21.562Q40.346944140625,21.6042,40.279444140625,21.6367Q40.211944140625,21.6692,40.140444140625,21.6912Q40.068844140625,21.7133,39.994744140625,21.7245Q39.920744140625,21.7356,39.845844140625,21.7356L6.922764140625,21.7356Q6.847854140625,21.7356,6.773794140625,21.7245Q6.699724140625,21.7133,6.628144140625,21.6912Q6.556574140625,21.6692,6.489084140625,21.6367Q6.421584140625,21.6042,6.359684140625,21.562Q6.297784140625,21.5199,6.242864140625,21.4689Q6.187934140625,21.418,6.141214140625,21.3595Q6.094484140625,21.3009,6.056994140625,21.2361Q6.019514140625,21.1712,5.992104140625,21.1015Q5.964704140625,21.0318,5.947984140625,20.9588Q5.931264140625,20.8858,5.925614140625,20.8111Q5.919964140625,20.7364,5.925494140625,20.6617Q5.931034140625,20.587,5.947634140625,20.514Q5.964234140625,20.4409,5.991534140625,20.3712Q6.018824140625,20.3014,6.056214140625,20.2365Q6.093594140625,20.1716,6.140224140625,20.113Q6.186864140625,20.0544,6.241704140625,20.0034L22.703244140625,4.69253Q22.772044140625,4.62856,22.851444140625,4.57852Q22.930944140625,4.52848,23.018344140625,4.49411Q23.105744140625,4.45974,23.198044140625,4.44225Q23.290344140625,4.42476,23.384244140625,4.42476Q23.478244140625,4.42476,23.570444140625,4.44225Q23.662744140625,4.45974,23.750144140625,4.49411Q23.837544140625,4.52848,23.917044140625,4.57852Q23.996544140625,4.62856,24.065344140625,4.69253L40.526844140625,20.0034Z" fill-rule="evenodd" fill="#FFFFFF" fill-opacity="1"/></g></g></svg>