<svg xmlns="http://www.w3.org/2000/svg" xmlns:xlink="http://www.w3.org/1999/xlink" fill="none" version="1.1" width="65.6748046875" height="33" viewBox="0 0 65.6748046875 33"><g><g><path d="M39.369433203125,26.3753349609375L27.696533203125,26.3753349609375L27.696533203125,29.9753349609375L39.864933203125,29.9753349609375L40.095133203125,29.9132349609375Q43.174833203125004,29.0825349609375,47.321033203125,25.2563349609375L55.387233203125,25.2563349609375Q57.479133203125,25.2563349609375,59.392233203125,24.4471349609375Q61.238833203125,23.6661349609375,62.661833203125,22.2431349609375Q64.084733203125,20.8201349609375,64.86583320312499,18.9735349609375Q65.675033203125,17.0604349609375,65.675033203125,14.9685749609375Q65.675033203125,12.876734960937501,64.86583320312499,10.9635649609375Q64.084733203125,9.1170249609375,62.661833203125,7.6940449609375Q61.238833203125,6.2710549609375,59.392233203125,5.4900349609375Q57.479133203125,4.6808349609375,55.387233203125,4.6808349609375L30.357153203125,4.6808349609375L30.357153203125,8.2808349609375L55.387233203125,8.2808349609375Q58.157433203124995,8.2808349609375,60.116233203125,10.2396249609375Q62.075033203125,12.198424960937501,62.075033203125,14.9685749609375Q62.075033203125,17.7387349609375,60.116233203125,19.6975349609375Q58.157433203124995,21.6563349609375,55.387233203125,21.6563349609375L45.888633203124996,21.6563349609375L45.367133203125,22.1533349609375Q41.715733203125,25.6334349609375,39.369433203125,26.3753349609375Z" fill-rule="evenodd" fill="#FFFFFF" fill-opacity="1"/></g><g><path d="M33,16.5C33,21.0563,31.1532,25.1813,28.1673,28.1673C25.1813,31.1532,21.0563,33,16.5,33C7.3873,33,0,25.6127,0,16.5C0,7.3873,7.3873,0,16.5,0C25.6127,0,33,7.3873,33,16.5ZM28.0193,11.6357Q28.7895,13.4565,28.9548,15.4174Q16.3206,13.8101,4.05038,15.3576Q4.22228,13.4287,4.98067,11.6357Q5.92917,9.39316,7.66117,7.66116Q9.39316,5.92916,11.6357,4.98067Q13.9542,4,16.5,4Q19.0458,4,21.3643,4.98067Q23.6068,5.92917,25.3388,7.66117Q27.0708,9.39316,28.0193,11.6357ZM21.6294,20.7589C20.8446,21.9404,19.6976,23.2649,18.5591,24.2292L18.5591,28.8335Q20.001,28.596,21.3643,28.0193Q23.6068,27.0708,25.3388,25.3388Q27.0708,23.6068,28.0193,21.3643Q28.0228,21.3561,28.0263,21.3479Q24.8146,20.945,21.6294,20.7589ZM11.3958,20.7235C12.1874,21.9262,13.3352,23.3478,14.5083,24.339L14.5083,28.8445Q13.0308,28.6094,11.6357,28.0193Q9.39316,27.0708,7.66116,25.3388Q5.92916,23.6068,4.98067,21.3643Q4.96536,21.3282,4.95027,21.2919Q8.15894,20.8927,11.3958,20.7235Z" fill-rule="evenodd" fill="#FFFFFF" fill-opacity="1"/></g></g></svg>