<svg xmlns="http://www.w3.org/2000/svg" xmlns:xlink="http://www.w3.org/1999/xlink" fill="none" version="1.1" width="35.94140625" height="44.5400390625" viewBox="0 0 35.94140625 44.5400390625"><g><g><path d="M0,30.9695C0,32.0016,0.530544,32.9613,1.4046,33.5102L17.2816,43.4802C18.3041,44.1223,19.612,44.0888,20.6004,43.3952L34.6651,33.5241C35.4653,32.9625,35.9417,32.0461,35.9417,31.0685L35.9417,11.5686C35.9417,10.4988,35.3719,9.50991,34.4464,8.9733L20.3937,0.825895C19.5065,0.311493,18.4179,0.285971,17.5076,0.758226L1.61857,9.0006C0.624157,9.51645,0,10.5434,0,11.6636L0,30.9695ZM18.8708,40.6996L3.2,30.859L3.2,11.7852L18.8836,3.64932L32.7416,11.6839L32.7416,30.9645L18.8708,40.6996Z" fill-rule="evenodd" fill="#FFFFFF" fill-opacity="1"/></g><g><path d="M19.334717109375,16.961667578125L19.334717109375,10.311767578125L16.606447109375,10.311767578125L16.606447109375,16.961667578125L9.956787109375,16.961667578125L9.956787109375,19.689937578125L16.606447109375,19.689937578125L16.606447109375,26.339567578125L19.334717109375,26.339567578125L19.334717109375,19.689937578125L25.984587109375,19.689937578125L25.984587109375,16.961667578125L19.334717109375,16.961667578125Z" fill-rule="evenodd" fill="#FFFFFF" fill-opacity="1"/></g></g></svg>