<svg xmlns="http://www.w3.org/2000/svg" xmlns:xlink="http://www.w3.org/1999/xlink" fill="none" version="1.1" width="47.5166015625" height="44.20654296875" viewBox="0 0 47.5166015625 44.20654296875"><g><g><path d="M6.62012,5L6.62012,15.0483Q6.62012,15.1711,6.62614,15.2937Q6.63216,15.4163,6.64419,15.5384Q6.65622,15.6606,6.67423,15.782Q6.69224,15.9034,6.71619,16.0238Q6.74014,16.1442,6.76996,16.2632Q6.79978,16.3823,6.83541,16.4998Q6.87105,16.6172,6.9124,16.7328Q6.95375,16.8484,7.00072,16.9618Q7.04769,17.0752,7.10017,17.1861Q7.15265,17.2971,7.21051,17.4053Q7.26837,17.5136,7.33147,17.6189Q7.39458,17.7241,7.46277,17.8262Q7.53096,17.9282,7.60408,18.0268Q7.6772,18.1254,7.75506,18.2203Q7.83293,18.3152,7.91536,18.4061Q7.99779,18.4971,8.08458,18.5839Q8.17137,18.6707,8.26232,18.7531Q8.35327,18.8355,8.44815,18.9134Q8.54303,18.9913,8.64162,19.0644Q8.74021,19.1375,8.84227,19.2057Q8.94432,19.2739,9.0496,19.337Q9.15488,19.4001,9.26313,19.4579Q9.37138,19.5158,9.48234,19.5683Q9.5933,19.6208,9.7067,19.6677Q9.8201,19.7147,9.93567,19.7561Q10.0512,19.7974,10.1687,19.833Q10.2862,19.8687,10.4052,19.8985Q10.5243,19.9283,10.6447,19.9523Q10.765,19.9762,10.8865,19.9942Q11.0079,20.0122,11.13,20.0243Q11.2522,20.0363,11.3748,20.0423Q11.4974,20.0483,11.6201,20.0483L12.3689,20.0483Q12.4916,20.0483,12.6142,20.0423Q12.7368,20.0363,12.859,20.0243Q12.9811,20.0122,13.1026,19.9942Q13.224,19.9762,13.3443,19.9523Q13.4647,19.9283,13.5838,19.8985Q13.7029,19.8687,13.8203,19.833Q13.9378,19.7974,14.0533,19.7561Q14.1689,19.7147,14.2823,19.6677Q14.3957,19.6208,14.5067,19.5683Q14.6176,19.5158,14.7259,19.4579Q14.8341,19.4001,14.9394,19.337Q15.0447,19.2739,15.1467,19.2057Q15.2488,19.1375,15.3474,19.0644Q15.446,18.9913,15.5409,18.9134Q15.6357,18.8355,15.7267,18.7531Q15.8176,18.6707,15.9044,18.5839Q15.9912,18.4971,16.0737,18.4061Q16.1561,18.3152,16.2339,18.2203Q16.3118,18.1254,16.3849,18.0268Q16.4581,17.9282,16.5262,17.8262Q16.5944,17.7241,16.6575,17.6189Q16.7206,17.5136,16.7785,17.4053Q16.8364,17.2971,16.8888,17.1861Q16.9413,17.0752,16.9883,16.9618Q17.0353,16.8484,17.0766,16.7328Q17.118,16.6172,17.1536,16.4998Q17.1892,16.3823,17.2191,16.2632Q17.2489,16.1442,17.2728,16.0238Q17.2968,15.9034,17.3148,15.782Q17.3328,15.6606,17.3448,15.5384Q17.3568,15.4163,17.3629,15.2937Q17.3689,15.1711,17.3689,15.0483L17.3689,12.0961L22.7354,12.0961L22.7354,30.7241L10.7488,30.7241L10.7488,29.1582Q10.7488,29.0355,10.7428,28.9129Q10.7367,28.7903,10.7247,28.6681Q10.7127,28.546,10.6947,28.4245Q10.6767,28.3031,10.6527,28.1827Q10.6288,28.0624,10.5989,27.9433Q10.5691,27.8242,10.5335,27.7068Q10.4979,27.5893,10.4565,27.4737Q10.4151,27.3582,10.3682,27.2448Q10.3212,27.1314,10.2687,27.0204Q10.2162,26.9095,10.1584,26.8012Q10.1005,26.693,10.0374,26.5877Q9.97432,26.4824,9.90613,26.3803Q9.83793,26.2783,9.76482,26.1797Q9.6917,26.0811,9.61383,25.9862Q9.53596,25.8914,9.45354,25.8004Q9.37111,25.7095,9.28431,25.6227Q9.19752,25.5359,9.10657,25.4534Q9.01563,25.371,8.92075,25.2931Q8.82586,25.2153,8.72727,25.1422Q8.62869,25.069,8.52663,25.0009Q8.42457,24.9327,8.31929,24.8696Q8.21401,24.8065,8.10576,24.7486Q7.99751,24.6907,7.88656,24.6383Q7.7756,24.5858,7.6622,24.5388Q7.5488,24.4918,7.43323,24.4505Q7.31766,24.4091,7.2002,24.3735Q7.08274,24.3379,6.96368,24.308Q6.84462,24.2782,6.72423,24.2543Q6.60385,24.2303,6.48243,24.2123Q6.36102,24.1943,6.23887,24.1823Q6.11671,24.1702,5.99412,24.1642Q5.87152,24.1582,5.74878,24.1582L5,24.1582Q4.87726,24.1582,4.75466,24.1642Q4.63207,24.1702,4.50991,24.1823Q4.38776,24.1943,4.26635,24.2123Q4.14493,24.2303,4.02455,24.2543Q3.90416,24.2782,3.7851,24.308Q3.66603,24.3379,3.54858,24.3735Q3.43112,24.4091,3.31555,24.4505Q3.19998,24.4918,3.08658,24.5388Q2.97318,24.5858,2.86222,24.6383Q2.75127,24.6907,2.64302,24.7486Q2.53477,24.8065,2.42949,24.8696Q2.32421,24.9327,2.22215,25.0009Q2.12009,25.069,2.0215,25.1422Q1.92291,25.2153,1.82803,25.2931Q1.73315,25.371,1.6422,25.4534Q1.55126,25.5359,1.46447,25.6227Q1.37767,25.7095,1.29524,25.8004Q1.21282,25.8914,1.13495,25.9862Q1.05708,26.0811,0.983962,26.1797Q0.910844,26.2783,0.842652,26.3803Q0.774459,26.4824,0.711357,26.5877Q0.648254,26.693,0.590394,26.8012Q0.532533,26.9095,0.480053,27.0204Q0.427574,27.1314,0.380602,27.2448Q0.333631,27.3582,0.29228,27.4737Q0.250929,27.5893,0.215298,27.7068Q0.179668,27.8242,0.149844,27.9433Q0.12002,28.0624,0.0960736,28.1827Q0.0721276,28.3031,0.0541174,28.4246Q0.0361073,28.546,0.0240764,28.6681Q0.0120454,28.7903,0.00602272,28.9129Q0,29.0355,0,29.1582L0,39.2065Q0,39.3293,0.00602272,39.4519Q0.0120454,39.5745,0.0240764,39.6966Q0.0361073,39.8188,0.0541174,39.9402Q0.0721276,40.0616,0.0960736,40.182Q0.12002,40.3024,0.149844,40.4214Q0.179668,40.5405,0.215298,40.658Q0.250929,40.7754,0.29228,40.891Q0.333631,41.0066,0.380602,41.12Q0.427574,41.2334,0.480053,41.3443Q0.532533,41.4553,0.590394,41.5635Q0.648254,41.6718,0.711357,41.7771Q0.774459,41.8823,0.842652,41.9844Q0.910844,42.0864,0.983962,42.185Q1.05708,42.2836,1.13495,42.3785Q1.21282,42.4734,1.29524,42.5643Q1.37767,42.6553,1.46447,42.7421Q1.55126,42.8289,1.6422,42.9113Q1.73315,42.9937,1.82803,43.0716Q1.92291,43.1495,2.0215,43.2226Q2.12009,43.2957,2.22215,43.3639Q2.32421,43.4321,2.42949,43.4952Q2.53477,43.5583,2.64302,43.6161Q2.75127,43.674,2.86222,43.7265Q2.97318,43.779,3.08658,43.8259Q3.19998,43.8729,3.31555,43.9143Q3.43112,43.9556,3.54858,43.9912Q3.66603,44.0269,3.7851,44.0567Q3.90416,44.0865,4.02455,44.1105Q4.14493,44.1344,4.26635,44.1524Q4.38776,44.1704,4.50991,44.1825Q4.63207,44.1945,4.75466,44.2005Q4.87726,44.2065,5,44.2065L5.74878,44.2065Q5.87152,44.2065,5.99412,44.2005Q6.11671,44.1945,6.23887,44.1825Q6.36102,44.1704,6.48243,44.1524Q6.60385,44.1344,6.72423,44.1105Q6.84462,44.0865,6.96368,44.0567Q7.08275,44.0269,7.2002,43.9912Q7.31766,43.9556,7.43323,43.9143Q7.5488,43.8729,7.6622,43.8259Q7.7756,43.779,7.88656,43.7265Q7.99751,43.674,8.10576,43.6161Q8.21401,43.5583,8.31929,43.4952Q8.42457,43.4321,8.52663,43.3639Q8.62869,43.2957,8.72727,43.2226Q8.82586,43.1495,8.92075,43.0716Q9.01563,42.9937,9.10657,42.9113Q9.19752,42.8289,9.28431,42.7421Q9.37111,42.6553,9.45354,42.5643Q9.53596,42.4734,9.61383,42.3785Q9.6917,42.2836,9.76482,42.185Q9.83793,42.0864,9.90613,41.9844Q9.97432,41.8823,10.0374,41.7771Q10.1005,41.6718,10.1584,41.5635Q10.2162,41.4553,10.2687,41.3443Q10.3212,41.2334,10.3682,41.12Q10.4151,41.0066,10.4565,40.891Q10.4979,40.7754,10.5335,40.658Q10.5691,40.5405,10.5989,40.4214Q10.6288,40.3024,10.6527,40.182Q10.6767,40.0616,10.6947,39.9402Q10.7127,39.8188,10.7247,39.6966Q10.7367,39.5745,10.7428,39.4519Q10.7488,39.3293,10.7488,39.2065L10.7488,33.3837L36.7681,33.3837L36.7681,39.062Q36.7681,39.1848,36.7741,39.3074Q36.7801,39.4299,36.7921,39.5521Q36.8042,39.6743,36.8222,39.7957Q36.8402,39.9171,36.8641,40.0375Q36.8881,40.1578,36.9179,40.2769Q36.9477,40.396,36.9834,40.5134Q37.019,40.6309,37.0603,40.7465Q37.1017,40.862,37.1487,40.9754Q37.1956,41.0888,37.2481,41.1998Q37.3006,41.3107,37.3585,41.419Q37.4163,41.5272,37.4794,41.6325Q37.5425,41.7378,37.6107,41.8399Q37.6789,41.9419,37.752,42.0405Q37.8251,42.1391,37.903,42.234Q37.9809,42.3289,38.0633,42.4198Q38.1457,42.5107,38.2325,42.5975Q38.3193,42.6843,38.4103,42.7668Q38.5012,42.8492,38.5961,42.9271Q38.691,43.0049,38.7896,43.078Q38.8882,43.1512,38.9902,43.2194Q39.0923,43.2875,39.1975,43.3506Q39.3028,43.4137,39.4111,43.4716Q39.5193,43.5295,39.6303,43.5819Q39.7412,43.6344,39.8546,43.6814Q39.968,43.7284,40.0836,43.7697Q40.1992,43.8111,40.3166,43.8467Q40.4341,43.8823,40.5532,43.9122Q40.6722,43.942,40.7926,43.9659Q40.913,43.9899,41.0344,44.0079Q41.1558,44.0259,41.278,44.0379Q41.4001,44.05,41.5227,44.056Q41.6453,44.062,41.7681,44.062L42.5168,44.062Q42.6396,44.062,42.7622,44.056Q42.8848,44.05,43.0069,44.0379Q43.1291,44.0259,43.2505,44.0079Q43.3719,43.9899,43.4923,43.9659Q43.6127,43.942,43.7317,43.9122Q43.8508,43.8823,43.9683,43.8467Q44.0857,43.8111,44.2013,43.7697Q44.3169,43.7284,44.4303,43.6814Q44.5437,43.6344,44.6546,43.582Q44.7656,43.5295,44.8738,43.4716Q44.9821,43.4138,45.0874,43.3507Q45.1926,43.2875,45.2947,43.2194Q45.3968,43.1512,45.4953,43.078Q45.5939,43.0049,45.6888,42.9271Q45.7837,42.8492,45.8746,42.7668Q45.9656,42.6843,46.0524,42.5975Q46.1392,42.5107,46.2216,42.4198Q46.304,42.3289,46.3819,42.234Q46.4598,42.1391,46.5329,42.0405Q46.606,41.9419,46.6742,41.8399Q46.7424,41.7378,46.8055,41.6325Q46.8686,41.5272,46.9265,41.419Q46.9843,41.3107,47.0368,41.1998Q47.0893,41.0888,47.1362,40.9754Q47.1832,40.862,47.2246,40.7465Q47.2659,40.6309,47.3016,40.5134Q47.3372,40.396,47.367,40.2769Q47.3968,40.1578,47.4208,40.0375Q47.4447,39.9171,47.4627,39.7957Q47.4807,39.6743,47.4928,39.5521Q47.5048,39.4299,47.5108,39.3074Q47.5168,39.1848,47.5168,39.062L47.5168,29.0137Q47.5168,28.8909,47.5108,28.7683Q47.5048,28.6457,47.4928,28.5236Q47.4807,28.4014,47.4627,28.28Q47.4447,28.1586,47.4208,28.0382Q47.3968,27.9178,47.367,27.7988Q47.3372,27.6797,47.3016,27.5623Q47.2659,27.4448,47.2246,27.3292Q47.1832,27.2137,47.1362,27.1003Q47.0893,26.9869,47.0368,26.8759Q46.9843,26.7649,46.9265,26.6567Q46.8686,26.5484,46.8055,26.4432Q46.7424,26.3379,46.6742,26.2358Q46.606,26.1338,46.5329,26.0352Q46.4598,25.9366,46.3819,25.8417Q46.304,25.7468,46.2216,25.6559Q46.1392,25.5649,46.0524,25.4781Q45.9656,25.3913,45.8746,25.3089Q45.7837,25.2265,45.6888,25.1486Q45.5939,25.0708,45.4953,24.9976Q45.3968,24.9245,45.2947,24.8563Q45.1926,24.7881,45.0874,24.725Q44.9821,24.6619,44.8738,24.6041Q44.7656,24.5462,44.6546,24.4937Q44.5437,24.4412,44.4303,24.3943Q44.3169,24.3473,44.2013,24.306Q44.0857,24.2646,43.9683,24.229Q43.8508,24.1933,43.7317,24.1635Q43.6127,24.1337,43.4923,24.1097Q43.3719,24.0858,43.2505,24.0678Q43.1291,24.0498,43.0069,24.0378Q42.8848,24.0257,42.7622,24.0197Q42.6396,24.0137,42.5168,24.0137L41.7681,24.0137Q41.6453,24.0137,41.5227,24.0197Q41.4001,24.0257,41.278,24.0378Q41.1558,24.0498,41.0344,24.0678Q40.913,24.0858,40.7926,24.1097Q40.6722,24.1337,40.5532,24.1635Q40.4341,24.1933,40.3166,24.229Q40.1992,24.2646,40.0836,24.306Q39.968,24.3473,39.8546,24.3943Q39.7412,24.4412,39.6303,24.4937Q39.5193,24.5462,39.4111,24.6041Q39.3028,24.6619,39.1975,24.725Q39.0923,24.7881,38.9902,24.8563Q38.8882,24.9245,38.7896,24.9976Q38.691,25.0708,38.5961,25.1486Q38.5012,25.2265,38.4103,25.3089Q38.3193,25.3913,38.2325,25.4781Q38.1457,25.5649,38.0633,25.6559Q37.9809,25.7468,37.903,25.8417Q37.8251,25.9366,37.752,26.0352Q37.6789,26.1338,37.6107,26.2358Q37.5425,26.3379,37.4794,26.4432Q37.4163,26.5484,37.3585,26.6567Q37.3006,26.7649,37.2481,26.8759Q37.1956,26.9869,37.1487,27.1003Q37.1017,27.2137,37.0603,27.3292Q37.019,27.4448,36.9834,27.5623Q36.9477,27.6797,36.9179,27.7988Q36.8881,27.9178,36.8641,28.0382Q36.8402,28.1586,36.8222,28.28Q36.8042,28.4014,36.7921,28.5236Q36.7801,28.6457,36.7741,28.7683Q36.7681,28.8909,36.7681,29.0137L36.7681,30.7241L25.3949,30.7241L25.3949,12.0961L30.7607,12.0961L30.7607,15.0483Q30.7607,15.1711,30.7668,15.2937Q30.7728,15.4163,30.7848,15.5384Q30.7968,15.6606,30.8149,15.782Q30.8329,15.9034,30.8568,16.0238Q30.8808,16.1442,30.9106,16.2632Q30.9404,16.3823,30.976,16.4998Q31.0117,16.6172,31.053,16.7328Q31.0944,16.8484,31.1413,16.9618Q31.1883,17.0752,31.2408,17.1861Q31.2933,17.2971,31.3511,17.4053Q31.409,17.5136,31.4721,17.6189Q31.5352,17.7241,31.6034,17.8262Q31.6716,17.9282,31.7447,18.0268Q31.8178,18.1254,31.8957,18.2203Q31.9736,18.3152,32.056,18.4061Q32.1384,18.4971,32.2252,18.5839Q32.312,18.6707,32.4029,18.7531Q32.4939,18.8355,32.5888,18.9134Q32.6837,18.9913,32.7822,19.0644Q32.8808,19.1375,32.9829,19.2057Q33.0849,19.2739,33.1902,19.337Q33.2955,19.4001,33.4038,19.4579Q33.512,19.5158,33.623,19.5683Q33.7339,19.6208,33.8473,19.6677Q33.9607,19.7147,34.0763,19.7561Q34.1919,19.7974,34.3093,19.833Q34.4268,19.8687,34.5458,19.8985Q34.6649,19.9283,34.7853,19.9523Q34.9057,19.9762,35.0271,19.9942Q35.1485,20.0122,35.2707,20.0243Q35.3928,20.0363,35.5154,20.0423Q35.638,20.0483,35.7607,20.0483L36.5095,20.0483Q36.6323,20.0483,36.7549,20.0423Q36.8775,20.0363,36.9996,20.0243Q37.1218,20.0122,37.2432,19.9942Q37.3646,19.9762,37.485,19.9523Q37.6054,19.9283,37.7244,19.8985Q37.8435,19.8687,37.9609,19.833Q38.0784,19.7974,38.194,19.7561Q38.3095,19.7147,38.4229,19.6677Q38.5363,19.6208,38.6473,19.5683Q38.7583,19.5158,38.8665,19.4579Q38.9748,19.4001,39.08,19.337Q39.1853,19.2739,39.2874,19.2057Q39.3894,19.1375,39.488,19.0644Q39.5866,18.9913,39.6815,18.9134Q39.7764,18.8355,39.8673,18.7531Q39.9583,18.6707,40.0451,18.5839Q40.1318,18.4971,40.2143,18.4061Q40.2967,18.3152,40.3746,18.2203Q40.4524,18.1254,40.5256,18.0268Q40.5987,17.9282,40.6669,17.8262Q40.7351,17.7241,40.7982,17.6189Q40.8613,17.5136,40.9191,17.4053Q40.977,17.2971,41.0295,17.1861Q41.0819,17.0752,41.1289,16.9618Q41.1759,16.8484,41.2172,16.7328Q41.2586,16.6172,41.2942,16.4998Q41.3298,16.3823,41.3597,16.2632Q41.3895,16.1442,41.4134,16.0238Q41.4374,15.9034,41.4554,15.782Q41.4734,15.6606,41.4854,15.5384Q41.4975,15.4163,41.5035,15.2937Q41.5095,15.1711,41.5095,15.0483L41.5095,5Q41.5095,4.87726,41.5035,4.75466Q41.4975,4.63207,41.4854,4.50991Q41.4734,4.38776,41.4554,4.26635Q41.4374,4.14493,41.4134,4.02455Q41.3895,3.90416,41.3597,3.7851Q41.3298,3.66603,41.2942,3.54858Q41.2586,3.43112,41.2172,3.31555Q41.1759,3.19998,41.1289,3.08658Q41.0819,2.97318,41.0295,2.86222Q40.977,2.75127,40.9191,2.64302Q40.8613,2.53477,40.7982,2.42949Q40.7351,2.32421,40.6669,2.22215Q40.5987,2.12009,40.5256,2.0215Q40.4524,1.92291,40.3746,1.82803Q40.2967,1.73315,40.2143,1.6422Q40.1318,1.55126,40.0451,1.46447Q39.9583,1.37767,39.8673,1.29524Q39.7764,1.21282,39.6815,1.13495Q39.5866,1.05708,39.488,0.983962Q39.3894,0.910844,39.2874,0.842652Q39.1853,0.774459,39.08,0.711357Q38.9747,0.648254,38.8665,0.590394Q38.7582,0.532533,38.6473,0.480053Q38.5363,0.427574,38.4229,0.380602Q38.3095,0.333631,38.194,0.29228Q38.0784,0.250929,37.9609,0.215298Q37.8435,0.179668,37.7244,0.149844Q37.6054,0.12002,37.485,0.0960736Q37.3646,0.0721276,37.2432,0.0541174Q37.1218,0.0361073,36.9996,0.0240764Q36.8775,0.0120454,36.7549,0.00602272Q36.6323,0,36.5095,0L35.7607,0Q35.638,0,35.5154,0.00602272Q35.3928,0.0120454,35.2707,0.0240764Q35.1485,0.0361073,35.0271,0.0541174Q34.9057,0.0721276,34.7853,0.0960736Q34.6649,0.12002,34.5458,0.149844Q34.4268,0.179668,34.3093,0.215298Q34.1919,0.250929,34.0763,0.29228Q33.9607,0.333631,33.8473,0.380602Q33.7339,0.427574,33.623,0.480053Q33.512,0.532533,33.4038,0.590394Q33.2955,0.648254,33.1902,0.711357Q33.0849,0.774459,32.9829,0.842652Q32.8808,0.910844,32.7822,0.983962Q32.6837,1.05708,32.5888,1.13495Q32.4939,1.21282,32.4029,1.29524Q32.312,1.37767,32.2252,1.46447Q32.1384,1.55126,32.056,1.6422Q31.9736,1.73315,31.8957,1.82803Q31.8178,1.92291,31.7447,2.0215Q31.6716,2.12009,31.6034,2.22215Q31.5352,2.32421,31.4721,2.42949Q31.409,2.53477,31.3511,2.64302Q31.2933,2.75127,31.2408,2.86222Q31.1883,2.97318,31.1413,3.08658Q31.0944,3.19998,31.053,3.31555Q31.0117,3.43112,30.976,3.54858Q30.9404,3.66603,30.9106,3.7851Q30.8808,3.90416,30.8568,4.02455Q30.8329,4.14493,30.8149,4.26635Q30.7968,4.38776,30.7848,4.50991Q30.7728,4.63207,30.7668,4.75466Q30.7607,4.87726,30.7607,5L30.7607,9.43652L17.3689,9.43652L17.3689,5Q17.3689,4.87726,17.3629,4.75466Q17.3568,4.63207,17.3448,4.50991Q17.3328,4.38776,17.3148,4.26635Q17.2968,4.14493,17.2728,4.02455Q17.2489,3.90416,17.2191,3.7851Q17.1892,3.66603,17.1536,3.54858Q17.118,3.43112,17.0766,3.31555Q17.0353,3.19998,16.9883,3.08658Q16.9413,2.97318,16.8888,2.86222Q16.8364,2.75127,16.7785,2.64302Q16.7206,2.53477,16.6575,2.42949Q16.5944,2.32421,16.5262,2.22215Q16.4581,2.12009,16.3849,2.0215Q16.3118,1.92291,16.2339,1.82803Q16.1561,1.73315,16.0737,1.6422Q15.9912,1.55126,15.9044,1.46447Q15.8176,1.37767,15.7267,1.29524Q15.6357,1.21282,15.5409,1.13495Q15.446,1.05708,15.3474,0.983962Q15.2488,0.910844,15.1467,0.842652Q15.0447,0.774459,14.9394,0.711357Q14.8341,0.648254,14.7259,0.590394Q14.6176,0.532533,14.5067,0.480053Q14.3957,0.427574,14.2823,0.380602Q14.1689,0.333631,14.0533,0.29228Q13.9378,0.250929,13.8203,0.215298Q13.7029,0.179668,13.5838,0.149844Q13.4647,0.12002,13.3443,0.0960736Q13.224,0.0721276,13.1026,0.0541174Q12.9811,0.0361073,12.859,0.0240764Q12.7368,0.0120454,12.6142,0.00602272Q12.4916,0,12.3689,0L11.6201,0Q11.4974,0,11.3748,0.00602272Q11.2522,0.0120454,11.13,0.0240764Q11.0079,0.0361073,10.8865,0.0541174Q10.765,0.0721276,10.6447,0.0960736Q10.5243,0.12002,10.4052,0.149844Q10.2862,0.179668,10.1687,0.215298Q10.0512,0.250929,9.93567,0.29228Q9.8201,0.333631,9.7067,0.380602Q9.5933,0.427574,9.48234,0.480053Q9.37138,0.532533,9.26313,0.590394Q9.15488,0.648254,9.0496,0.711357Q8.94432,0.774459,8.84227,0.842652Q8.74021,0.910844,8.64162,0.983962Q8.54303,1.05708,8.44815,1.13495Q8.35327,1.21282,8.26232,1.29524Q8.17137,1.37767,8.08458,1.46447Q7.99779,1.55126,7.91536,1.6422Q7.83293,1.73315,7.75506,1.82803Q7.6772,1.92291,7.60408,2.0215Q7.53096,2.12009,7.46277,2.22215Q7.39458,2.32421,7.33147,2.42949Q7.26837,2.53477,7.21051,2.64302Q7.15265,2.75127,7.10017,2.86222Q7.04769,2.97318,7.00072,3.08658Q6.95375,3.19998,6.9124,3.31555Q6.87105,3.43112,6.83541,3.54858Q6.79978,3.66603,6.76996,3.7851Q6.74014,3.90416,6.71619,4.02455Q6.69224,4.14493,6.67423,4.26635Q6.65622,4.38776,6.64419,4.50991Q6.63216,4.63207,6.62614,4.75466Q6.62012,4.87726,6.62012,5ZM10.6055,3.94434L13.3992,3.94434L13.3992,17.3329L10.6055,17.3329L10.6055,3.94434ZM34.7461,3.94434L37.5398,3.94434L37.5398,17.3329L34.7461,17.3329L34.7461,3.94434ZM40.7534,27.958L43.5471,27.958L43.5471,41.3466L40.7534,41.3466L40.7534,27.958ZM3.98535,28.1025L6.77905,28.1025L6.77905,41.4911L3.98535,41.4911L3.98535,28.1025Z" fill-rule="evenodd" fill="#FFFFFF" fill-opacity="1"/></g></g></svg>