<svg xmlns="http://www.w3.org/2000/svg" xmlns:xlink="http://www.w3.org/1999/xlink" fill="none" version="1.1" width="44" height="44" viewBox="0 0 44 44"><g><path d="M44,22C44,28.0751,41.5376,33.5751,37.5564,37.5564C33.5751,41.5376,28.0751,44,22,44C9.84973,44,0,34.1503,0,22C0,9.84973,9.84973,0,22,0C34.1503,0,44,9.84973,44,22ZM38.5871,14.9948Q39.9518,18.2213,39.9984,21.7504Q21.7112,19.22,4.00286,21.6705Q4.06364,18.1848,5.41289,14.9948Q6.77886,11.7653,9.27208,9.27208Q11.7653,6.77886,14.9948,5.41289Q18.3353,4,22,4Q25.6647,4,29.0052,5.41289Q32.2347,6.77886,34.7279,9.27208Q37.2211,11.7653,38.5871,14.9948ZM29.4326,26.7127C28.1618,28.9817,25.4825,32.0476,23.2305,33.4179L23.2305,39.9596Q26.2298,39.761,29.0052,38.5871Q32.2347,37.2211,34.7279,34.7279Q37.2211,32.2347,38.5871,29.0052Q38.8644,28.3496,39.0873,27.6815Q34.2377,27.0139,29.4326,26.7127ZM14.5935,26.6627C15.8251,28.7886,18.2915,31.9462,20.5791,33.3609L20.5791,39.946Q17.682,39.7237,14.9948,38.5871Q11.7653,37.2211,9.27208,34.7279Q6.77886,32.2347,5.41289,29.0052Q5.1198,28.3122,4.8875,27.6053Q9.71684,26.9397,14.5935,26.6627Z" fill-rule="evenodd" fill="#FFFFFF" fill-opacity="1"/></g></svg>