<svg xmlns="http://www.w3.org/2000/svg" xmlns:xlink="http://www.w3.org/1999/xlink" fill="none" version="1.1" width="52.32568359375" height="62.325927734375" viewBox="0 0 52.32568359375 62.325927734375"><g><g transform="matrix(0.7071067690849304,0.7071067690849304,-0.7071067690849304,0.7071067690849304,7.662919263806543,-18.499922533068457)"><path d="M27.480241796875,33.3935C26.925191796875,34.913,28.309971796875,36.4285,29.873251796875,36.0124L54.264741796875,29.5203C54.957541796875,29.3359,55.498641796875,28.7948,55.683041796875,28.102L62.175241796875,3.71051C62.591341796875,2.14721,61.075741796875,0.762421,59.556241796875,1.31751L36.935341796875,9.58112C36.381541796875,9.78341,35.945281796875,10.2197,35.743001796875,10.7735L27.480241796875,33.3935ZM52.442641796875,26.2799L31.915631796875,31.7435L38.869241796875,12.7073L57.906241796875,5.75296L52.442641796875,26.2799Z" fill-rule="evenodd" fill="#FCFCFC" fill-opacity="1"/></g><g transform="matrix(0.7071067690849304,0.7071067690849304,-0.7071067690849304,0.7071067690849304,14.733986954655848,-15.57099022391776)"><path d="M27.480241796875,43.3935C26.925191796875,44.913,28.309971796875,46.4285,29.873251796875,46.0124L54.264741796875,39.5203C54.957541796875,39.335899999999995,55.498641796875,38.794799999999995,55.683041796875,38.102000000000004L62.175241796875,13.71051C62.591341796875,12.14721,61.075741796875,10.762421,59.556241796875,11.31751L36.935341796875,19.58112C36.381541796875,19.78341,35.945281796875,20.2197,35.743001796875,20.7735L27.480241796875,43.3935ZM52.442641796875,36.2799L31.915631796875,41.7435L38.869241796875,22.7073L57.906241796875,15.75296L52.442641796875,36.2799Z" fill-rule="evenodd" fill="#FCFCFC" fill-opacity="1"/></g></g></svg>