<svg xmlns="http://www.w3.org/2000/svg" xmlns:xlink="http://www.w3.org/1999/xlink" fill="none" version="1.1" width="67.0068359375" height="66" viewBox="0 0 67.0068359375 66"><g><g transform="matrix(0.8652039766311646,0.5014200806617737,-0.4985812306404114,0.8668429255485535,3.158656523184618,-11.749707217284595)"><path d="M68.821561328125,20.2075L68.814761328125,20.2059L67.99306132812501,20.0195L67.921361328125,19.9979C65.585761328125,19.2973,63.601161328125,17.7647,62.353861328125,15.6283C61.105061328125,13.4784,60.756061328125,10.9764,61.330561328125,8.61572L61.352261328125,8.52667L61.599561328125,7.79057L61.600961328125,7.78017C61.603561328125,7.75903,61.604961328125,7.73209,61.604061328125,7.70069C61.602061328125,7.62063,61.587261328125,7.52781,61.559761328125,7.43439C61.532261328125,7.34098,61.494461328125,7.25478,61.452661328125,7.18625C61.428961328125,7.14734,61.409361328125,7.12227,61.399861328125,7.11207C61.386461328125,7.10162,61.369161328125,7.08832,61.347861328125,7.07223C61.254161328125,7.00159,61.129461328125,6.9122,60.971561328125,6.80436C60.491261328125,6.47635,59.851061328125,6.07724,59.033161328125,5.60901C58.211961328125,5.14274,57.541661328125,4.79245,57.014361328125,4.54249C56.840361328125,4.45997,56.699061328125,4.39664,56.589561328125,4.35042C56.569461328125,4.34192,56.549361328125,4.33358,56.529161328125,4.3254L56.520461328125,4.32383C56.495561328125,4.31981,56.470461328125,4.31761,56.445261328125,4.31726C56.367661328125,4.31544,56.276261328125,4.3256,56.183161328125,4.34806C56.088961328125,4.37078,56.000961328125,4.40419,55.929561328125,4.44265C55.880461328125,4.46919,55.850461328125,4.49161,55.845161328125,4.49726L55.276661328125,5.09947L55.228661328125,5.14451C53.455561328125,6.80794,51.114261328125,7.74764,48.618461328125,7.74764C46.118361328125005,7.74764,43.756661328125,6.79548,41.984761328125,5.12106L41.938761328125,5.07769L41.390461328125,4.49544L41.385661328124996,4.49029C41.285461328124995,4.38324,40.857161328125,4.27874,40.712561328125,4.32319C40.694861328125,4.33016,40.670861328125,4.33987,40.640461328125,4.35263C40.530461328125,4.39874,40.388661328124996,4.46188,40.214361328125,4.54421C39.686261328125,4.79333,39.016661328125,5.14245,38.198161328124996,5.6071C37.382261328125,6.07807,36.745261328125,6.4786,36.268761328125,6.80706C36.112261328125,6.91494,35.988961328125,7.00418,35.896561328125,7.07454C35.876261328125,7.08989,35.856161328125,7.1055,35.836261328125,7.12134L35.830061328125,7.12654C35.832061328125,7.12487,35.829361328125,7.12752,35.823161328124996,7.13488C35.810461328125,7.14999,35.795661328125,7.17045,35.780061328125,7.19576C35.739961328125,7.26111,35.703361328125,7.34398,35.676661328125,7.43449C35.649661328125,7.52584,35.634961328125,7.61729,35.632961328125,7.69692C35.631561328125,7.75167,35.636161328125,7.78802,35.639061328125,7.79759L35.875061328125,8.56881L35.890661328125,8.6346C36.453961328125004,10.9996,36.109161328125,13.4864,34.864761328125,15.6279C33.617661328124996,17.7759,31.609291328125,19.3212,29.257101328125,20.0106L29.188331328125,20.0308L29.118381328125,20.0464L28.401381328124998,20.2065C28.258561328125,20.2387,27.951331328125,20.5546,27.916061328125,20.7036C27.913441328125,20.7211,27.910121328125,20.7448,27.906261328124998,20.7749C27.891571328125,20.8903,27.875941328125002,21.0416,27.860851328125,21.2307C27.814741328125,21.8069,27.786391328125,22.5568,27.786391328125,23.4952C27.786391328125,24.4333,27.814741328125,25.183,27.860851328125,25.759C27.875941328125002,25.9481,27.891521328125002,26.0994,27.906261328124998,26.2148C27.910321328125,26.2464,27.913731328125,26.271,27.916411328125,26.2887C27.950001328125,26.4376,28.252621328125,26.75,28.395791328125,26.7819L28.402221328125,26.7834L29.176061328125,26.9607L29.239141328125,26.9792C31.596831328125,27.6706,33.611961328125,29.219,34.856661328125,31.3723C36.104561328125,33.522,36.453061328125,36.0227,35.879161328125,38.3827L35.865561328125,38.4389L35.639461328125,39.1896L35.637461328125,39.196C35.638061328125,39.1941,35.637061328125,39.1988,35.635761328125,39.2095C35.633061328125,39.2307,35.631761328125,39.2576,35.632561328125,39.2891C35.634561328125,39.3692,35.649461328125,39.462,35.676961328125,39.5555C35.704461328125,39.6489,35.742161328125,39.7351,35.783861328125,39.8036C35.807561328125004,39.8423,35.827061328125,39.8672,35.836461328125,39.8773C35.849861328125,39.8878,35.867261328125,39.9012,35.888761328125,39.9174C35.982661328125,39.9881,36.107361328125,40.0775,36.265261328125,40.1854C36.746461328125,40.5141,37.387661328125,40.914,38.206261328125,41.3829C39.025961328125,41.8521,39.693961328125,42.2019,40.218161328125,42.4492C40.389961328125,42.5302,40.528961328125,42.5919,40.636061328124995,42.6364C40.664861328125,42.6484,40.687461328124996,42.6575,40.703761328125,42.6639C40.704961328124995,42.664,40.708861328124996,42.6649,40.715461328125,42.666C40.735261328125,42.6695,40.760961328125,42.672,40.791161328125,42.6727C40.869061328125,42.6745,40.960561328124996,42.6643,41.053861328124995,42.6418C41.147961328125,42.6191,41.235961328125,42.5857,41.307261328125,42.5472C41.355261328124996,42.5214,41.384861328125,42.4995,41.393661328125,42.4905L41.931761328125,41.9185L41.980961328125005,41.8723C43.764261328125,40.1985,46.114861328125,39.2511,48.618461328125,39.2511C51.123261328125,39.2511,53.485761328125,40.2084,55.261561328125,41.887L55.307561328125004,41.9305L55.847161328125,42.5036L55.852061328125,42.5089C55.951961328125,42.6157,56.379761328125,42.72,56.525761328125,42.6752C56.543361328125,42.6683,56.567261328125,42.6586,56.597561328125,42.6459C56.707461328125,42.5999,56.849161328125,42.5368,57.023461328125,42.4546C57.552161328125,42.2052,58.222661328125,41.8555,59.042561328125,41.3898C59.858761328125,40.9227,60.495661328125,40.5248,60.971561328125,40.1979C61.127361328125,40.0908,61.249961328125,40.0023,61.341661328125,39.9326C61.361561328125,39.9174,61.381361328125,39.9021,61.400961328125,39.8865L61.407261328125,39.8813C61.404461328125,39.8836,61.406661328125,39.8815,61.412461328125,39.8746C61.425061328125,39.8596,61.439861328125,39.8391,61.455461328125,39.8136C61.495961328125,39.7475,61.532961328125,39.6632,61.559961328125,39.5711C61.587361328125,39.478,61.602361328125,39.3848,61.604361328125,39.3036C61.605761328125,39.2478,61.601161328125,39.211,61.597961328125,39.2003L61.596361328125,39.1952L61.361561328125,38.4192L61.346861328125,38.3577C60.782361328125,35.9992,61.128361328125,33.5103,62.372561328125,31.3793C63.620261328125,29.2317,65.637361328125,27.678,67.988061328125,26.9879L68.051661328125,26.9693L68.819861328125,26.7934L68.828461328125,26.7914C68.970161328125,26.7596,69.27726132812501,26.4438,69.31246132812501,26.2954C69.315061328125,26.2779,69.31836132812501,26.2542,69.32216132812499,26.224C69.336861328125,26.1086,69.352461328125,25.9573,69.36756132812499,25.7682C69.41346132812501,25.193,69.441861328125,24.4445,69.441861328125,23.5081C69.438161328125,22.5895,69.40866132812499,21.8498,69.36296132812501,21.2753C69.346761328125,21.072,69.330061328125,20.9091,69.314261328125,20.7847C69.310861328125,20.7578,69.307161328125,20.7309,69.30326132812499,20.7041C69.26816132812499,20.5559,68.96136132812501,20.2387,68.821561328125,20.2075ZM38.191561328125,5.61078L38.204661328125,5.60332Q38.198061328125,5.60705,38.191561328125,5.61078ZM73.589361328125,19.9456L73.589361328125,19.9459C73.62406132812501,20.1369,73.665261328125,20.4611,73.703061328125,20.9356C73.75766132812501,21.6213,73.791261328125,22.4697,73.795361328125,23.4953L73.795361328125,23.5038C73.795361328125,24.553,73.762861328125,25.4162,73.707561328125,26.1089C73.671561328125,26.5586,73.632261328125,26.8677,73.599361328125,27.0491C73.265861328125,28.9015,71.641361328125,30.5835,69.795961328125,31.0007L69.165761328125,31.1451C67.89976132812501,31.5322,66.818661328125,32.3747,66.142461328125,33.5385C65.470661328125,34.6892,65.27766132812499,36.0239,65.56956132812499,37.3044L65.765561328125,37.9523C66.312661328125,39.7492,65.66036132812499,41.9717,64.213861328125,43.1817C64.066861328125,43.3057,63.818261328125,43.4943,63.450461328125,43.7469C62.872661328125,44.1438,62.133861328125,44.6055,61.215161328125,45.131L61.209661328125,45.1341C60.294761328125,45.6539,59.525561328125,46.0551,58.893461328125,46.3533C58.661261328125,46.4628,58.460361328125,46.5523,58.289761328125,46.6236C58.172661328125,46.6727,58.083861328125,46.7073,58.023161328125,46.7292C56.237461328125,47.3751,53.954661328125,46.8261,52.662761328125,45.4476L52.215561328125,44.9725C51.246561328125,44.0763,49.973561328125,43.5683,48.618461328125,43.5683C47.260461328125004,43.5683,45.995561328125,44.0698,45.018861328125,44.9658L44.572661328125,45.4401L44.567761328125,45.4453C43.269861328125,46.8159,41.003161328125,47.3638,39.220061328125,46.7228C39.041961328125,46.6592,38.754261328125,46.5394,38.348261328125,46.3479C37.716761328125,46.05,36.947061328125,45.6469,36.029461328125,45.1217C35.112861328125,44.5967,34.374261328125,44.1361,33.795561328125004,43.7407C33.420081328125,43.4842,33.169201328125,43.2951,33.024891328125,43.1741L33.020741328125,43.1707C31.578631328125,41.9549,30.923621328125,39.7332,31.471521328125,37.9423L31.659221328125,37.319C31.956451328125,36.0405,31.761771328125,34.6936,31.082971328124998,33.525L31.080441328124998,33.5206C30.410791328125,32.3615,29.334821328125,31.5249,28.062301328125,31.1365L27.433811328125,30.9925C25.580491328125,30.576,23.962361328125,28.895,23.629860328125,27.0437C23.596417328125,26.8596,23.556938328125,26.5504,23.520922828125,26.1006C23.465512828125,25.4077,23.432861328125,24.5444,23.432861328125,23.4952C23.432861328125,22.4458,23.465512828125,21.5822,23.520921528125,20.8892C23.556937328125,20.4393,23.596415328125,20.13,23.629117328125,19.9499C23.962261328125,18.0962,25.588951328125,16.4133,27.440341328125,15.9957L28.086051328125002,15.8515C29.350461328125,15.4643,30.420041328125002,14.6309,31.092321328125,13.473C31.766171328125,12.3133,31.959361328125,10.9769,31.667771328125,9.68744L31.472611328124998,9.04965C30.923911328125,7.25169,31.576351328125,5.03613,33.024001328124996,3.82572C33.169601328125,3.70292,33.417061328125,3.51492,33.783861328125,3.26207C34.360361328125,2.86468,35.097861328125,2.40106,36.015061328125,1.8718L36.021561328125,1.86802L36.028161328125,1.86434C36.942961328125,1.34479,37.712061328125,0.943774,38.343861328125,0.645684C38.575861328125,0.536231,38.776461328125,0.446745,38.946861328124996,0.375362C39.063861328125,0.326449,39.152461328125,0.291764,39.214161328125,0.26949C40.999661328125,-0.376338,43.282361328125,0.172842,44.574261328125004,1.55075L45.030261328125,2.03497C45.993761328125004,2.92561,47.265261328125,3.43039,48.618461328125,3.43039C49.971561328125,3.43039,51.227261328124996,2.93459,52.192561328124995,2.0493L52.669561328125,1.54398C53.968961328125005,0.172498,56.238961328125,-0.375357,58.022261328125,0.269392L58.029461328125,0.271992C58.090161328125,0.294167,58.177861328125,0.328755,58.293661328125,0.377619C58.462461328125,0.448854,58.661561328125,0.538095,58.892061328125,0.647401C59.519861328125,0.945,60.286161328125,1.34553,61.199761328125,1.86434L61.206161328125,1.86797C62.123261328125,2.39292,62.862161328125,2.85349,63.441061328125,3.24887C63.816761328125,3.50545,64.067761328125,3.69473,64.21226132812501,3.81596L64.216361328125,3.81944C65.660161328125,5.03731,66.314861328125,7.26298,65.76276132812501,9.055L65.754861328125,9.0809L65.543461328125,9.71005C65.256061328125,10.9793,65.452961328125,12.3141,66.123861328125,13.4691C66.797161328125,14.6223,67.854961328125,15.45,69.116261328125,15.8454L69.782861328125,15.9967C71.633561328125,16.4122,73.25366132812499,18.0987,73.589361328125,19.9456Z" fill="#FFFFFF" fill-opacity="1"/></g><g><path d="M33.420062890625,44.00003662109375Q33.675562890625,44.00003662109375,33.930762890625,43.98743662109375Q34.185962890625,43.97483662109375,34.440262890625,43.94973662109375Q34.694562890625,43.924636621093754,34.947262890625,43.88693662109375Q35.200062890625,43.849336621093755,35.450662890625,43.799236621093755Q35.701262890625,43.74923662109375,35.949062890625,43.68683662109375Q36.196962890625,43.62453662109375,36.441462890625004,43.55003662109375Q36.685962890625,43.47563662109375,36.926462890625004,43.38923662109375Q37.167062890625,43.30273662109375,37.403162890625,43.204636621093755Q37.639162890625,43.10643662109375,37.870162890625,42.996736621093746Q38.101162890625,42.88703662109375,38.326462890625,42.76613662109375Q38.551762890625,42.64523662109375,38.770962890625,42.51333662109375Q38.990062890625,42.381436621093755,39.202562890625,42.23893662109375Q39.414962890625,42.09643662109375,39.620262890625,41.94353662109375Q39.825462890625005,41.79073662109375,40.022962890624996,41.62803662109375Q40.220462890625,41.46523662109375,40.409762890625004,41.29303662109375Q40.599062890625,41.120736621093755,40.779762890625,40.93933662109375Q40.960462890624996,40.75793662109375,41.132062890625,40.56783662109375Q41.303662890625,40.377736621093746,41.465662890625,40.17943662109375Q41.627762890625,39.98113662109375,41.779962890625,39.77513662109375Q41.932162890625,39.56903662109375,42.074162890625004,39.355736621093754Q42.216062890625,39.14243662109375,42.347462890624996,38.92243662109375Q42.478862890624995,38.70243662109375,42.599262890625,38.47613662109375Q42.719662890625,38.24993662109375,42.828962890625,38.01803662109375Q42.938162890625,37.786136621093746,43.035962890625,37.54913662109375Q43.133762890625,37.31203662109375,43.219862890624995,37.07053662109375Q43.305862890625,36.82903662109375,43.380062890625,36.58353662109375Q43.454262890625,36.33803662109375,43.516362890625004,36.08923662109375Q43.578362890625,35.84033662109375,43.628262890624995,35.58873662109375Q43.678062890625,35.33713662109375,43.715562890625,35.08333662109375Q43.753062890625,34.82963662109375,43.778162890625,34.57433662109375Q43.803162890625,34.31903662109375,43.815662890625,34.06283662109375Q43.828262890625,33.80653662109375,43.828262890625,33.55003662109375Q43.828262890625,33.29353662109375,43.815662890625,33.03728662109375Q43.803162890625,32.78106662109375,43.778162890625,32.52576662109375Q43.753062890625,32.270466621093746,43.715562890625,32.016706621093746Q43.678062890625,31.76295662109375,43.628262890624995,31.51134662109375Q43.578362890625,31.25974662109375,43.516362890625004,31.01089662109375Q43.454262890625,30.76205662109375,43.380062890625,30.51656662109375Q43.305862890625,30.271076621093748,43.219862890624995,30.02954662109375Q43.133762890625,29.78800662109375,43.035962890625,29.550996621093752Q42.938162890625,29.31399662109375,42.828962890625,29.08209662109375Q42.719662890625,28.850186621093748,42.599262890625,28.62394662109375Q42.478862890624995,28.39770662109375,42.347462890624996,28.17766662109375Q42.216062890625,27.957636621093748,42.074162890625004,27.74433662109375Q41.932162890625,27.53103662109375,41.779962890625,27.32498662109375Q41.627762890625,27.118936621093752,41.465662890625,26.92062662109375Q41.303662890625,26.72232662109375,41.132062890625,26.53224662109375Q40.960462890624996,26.34216662109375,40.779762890625,26.16077662109375Q40.599062890625,25.97937662109375,40.409762890625004,25.80709662109375Q40.220462890625,25.63482662109375,40.022962890624996,25.47207662109375Q39.825462890625005,25.30933662109375,39.620262890625,25.15651662109375Q39.414962890625,25.003706621093748,39.202562890625,24.86117662109375Q38.990062890625,24.71865662109375,38.770962890625,24.58677662109375Q38.551762890625,24.45488662109375,38.326462890625,24.33395662109375Q38.101162890625,24.21302662109375,37.870162890625,24.10334662109375Q37.639162890625,23.99366762109375,37.403162890625,23.89549662109375Q37.167062890625,23.79732462109375,36.926462890625004,23.71090162109375Q36.685962890625,23.62447862109375,36.441462890625004,23.55001062109375Q36.196962890625,23.47554262109375,35.949062890625,23.41321062109375Q35.701262890625,23.35087762109375,35.450662890625,23.30083062109375Q35.200062890625,23.25078362109375,34.947262890625,23.21314262109375Q34.694562890625,23.17550092109375,34.440262890625,23.15035622109375Q34.185962890625,23.12521162109375,33.930762890625,23.11262412109375Q33.675562890625,23.10003662109375,33.420062890625,23.10003662109375Q33.164562890625,23.10003662109375,32.909402890625,23.11262412109375Q32.654202890625,23.12521162109375,32.399932890624996,23.15035622109375Q32.145652890625,23.17550092109375,31.892912890625,23.21314262109375Q31.640172890625,23.25078362109375,31.389572890625,23.30083062109375Q31.138982890625,23.35087762109375,30.891132890625002,23.41321062109375Q30.643282890625,23.47554262109375,30.398782890625,23.55001062109375Q30.154272890625002,23.62447862109375,29.913702890625,23.71090162109375Q29.673132890625,23.79732462109375,29.437082890625,23.89549662109375Q29.201022890624998,23.99366762109375,28.970052890625,24.10334662109375Q28.739072890625,24.21302662109375,28.513742890625,24.33395662109375Q28.288402890625,24.45488662109375,28.069252890625002,24.58677662109375Q27.850092890625,24.71865662109375,27.637652890625,24.86117662109375Q27.425202890625002,25.003706621093748,27.219982890625,25.15651662109375Q27.014752890625,25.30933662109375,26.817252890625,25.47207662109375Q26.619742890624998,25.63482662109375,26.430422890625,25.80709662109375Q26.241102890625,25.97937662109375,26.060432890625002,26.16077662109375Q25.879762890625,26.34216662109375,25.708182890625,26.53224662109375Q25.536592890625002,26.72232662109375,25.374502890625,26.92062662109375Q25.212412890625,27.118936621093752,25.060202890625,27.32498662109375Q24.908002890625,27.53102662109375,24.766052890625,27.74433662109375Q24.624102890625,27.957626621093752,24.492742890625,28.17766662109375Q24.361382890625,28.39770662109375,24.240942890625,28.62394662109375Q24.120502890625,28.850186621093748,24.011255890625,29.08208662109375Q23.902012890625,29.31399662109375,23.804234890625,29.550996621093752Q23.706457890625,29.78800662109375,23.620379890625,30.02954662109375Q23.534302890625,30.271076621093748,23.460133890625,30.51656662109375Q23.385964890625,30.76205662109375,23.323881890625,31.01089662109375Q23.261798890625,31.25974662109375,23.211951890625,31.51134662109375Q23.162105890625,31.76295662109375,23.124614890625,32.01671662109375Q23.087124890625,32.270466621093746,23.062080890625,32.52576662109375Q23.037036990625,32.78106662109375,23.024499990625,33.03728662109375Q23.011962890625,33.29353662109375,23.011962890625,33.55003662109375Q23.011962890625,33.80653662109375,23.024499990625,34.06283662109375Q23.037036990625,34.31903662109375,23.062080890625,34.57433662109375Q23.087124890625,34.82963662109375,23.124614890625,35.08333662109375Q23.162105890625,35.33713662109375,23.211951890625,35.58873662109375Q23.261798890625,35.84033662109375,23.323881890625,36.08923662109375Q23.385964890625,36.33803662109375,23.460133890625,36.58353662109375Q23.534302890625,36.82903662109375,23.620379890625,37.07053662109375Q23.706457890625,37.31203662109375,23.804234890625,37.54913662109375Q23.902012890625,37.786136621093746,24.011255890625,38.01803662109375Q24.120502890625,38.24993662109375,24.240942890625,38.47613662109375Q24.361382890625,38.70243662109375,24.492742890625,38.92243662109375Q24.624102890625,39.14243662109375,24.766052890625,39.355736621093754Q24.908002890625,39.56903662109375,25.060202890625,39.77513662109375Q25.212412890625,39.98113662109375,25.374502890625,40.17943662109375Q25.536592890625002,40.377736621093746,25.708182890625,40.56783662109375Q25.879762890625,40.75793662109375,26.060432890625002,40.93933662109375Q26.241102890625,41.120736621093755,26.430422890625,41.29303662109375Q26.619742890624998,41.46523662109375,26.817252890625,41.62803662109375Q27.014752890625,41.79073662109375,27.219982890625,41.94353662109375Q27.425202890625002,42.09643662109375,27.637652890625,42.23893662109375Q27.850092890625,42.381436621093755,28.069252890625002,42.51333662109375Q28.288402890625,42.64523662109375,28.513742890625,42.76613662109375Q28.739072890625,42.88703662109375,28.970052890625,42.996736621093746Q29.201022890624998,43.10643662109375,29.437082890625,43.204636621093755Q29.673132890625,43.30273662109375,29.913702890625,43.38923662109375Q30.154272890625002,43.47563662109375,30.398782890625,43.55003662109375Q30.643282890625,43.62453662109375,30.891132890625002,43.68683662109375Q31.138982890625,43.74923662109375,31.389572890625,43.799236621093755Q31.640172890625,43.849336621093755,31.892912890625,43.88693662109375Q32.145652890625,43.924636621093754,32.399932890624996,43.94973662109375Q32.654202890625,43.97483662109375,32.909402890625,43.98743662109375Q33.164562890625,44.00003662109375,33.420062890625,44.00003662109375ZM33.419662890625,38.50003662109375Q33.540662890625,38.50003662109375,33.661562890625,38.49403662109375Q33.782462890625,38.48813662109375,33.902962890625,38.47623662109375Q34.023362890625,38.46433662109375,34.143062890625,38.44643662109375Q34.262762890625,38.42863662109375,34.381462890625,38.40493662109375Q34.500162890625,38.38123662109375,34.617562890625,38.35173662109375Q34.734962890625,38.32213662109375,34.850862890625,38.28693662109375Q34.966662890625,38.25163662109375,35.080562890625,38.21073662109375Q35.194562890625,38.16973662109375,35.306362890624996,38.12323662109375Q35.418162890625,38.07673662109375,35.527562890625,38.02483662109375Q35.636962890625,37.97283662109375,35.743762890625,37.91553662109375Q35.850462890624996,37.85823662109375,35.954262890625,37.79583662109375Q36.058062890624996,37.73333662109375,36.158762890625,37.665836621093746Q36.259362890625,37.59833662109375,36.356562890625,37.52593662109375Q36.453762890625,37.45353662109375,36.547362890624996,37.37643662109375Q36.640862890625,37.29933662109375,36.730562890625,37.21773662109375Q36.820262890625,37.13613662109375,36.905862890625,37.05023662109375Q36.991362890625,36.96433662109375,37.072662890625,36.87423662109375Q37.153962890624996,36.784236621093754,37.230762890625,36.69033662109375Q37.307562890625,36.59633662109375,37.379662890625,36.49873662109375Q37.451762890625,36.40113662109375,37.518962890625,36.30013662109375Q37.586162890625,36.199036621093754,37.648462890625,36.09483662109375Q37.710662890625,35.99063662109375,37.767662890625,35.88343662109375Q37.824762890624996,35.77633662109375,37.876462890625,35.66643662109375Q37.928262890625,35.55663662109375,37.974562890625,35.444336621093754Q38.020862890625,35.33203662109375,38.061662890625,35.217636621093746Q38.102462890625,35.10323662109375,38.137562890625,34.98693662109375Q38.172662890625,34.87063662109375,38.202062890625,34.75283662109375Q38.231462890625,34.63493662109375,38.255062890625,34.51573662109375Q38.278762890625,34.39653662109375,38.296462890625,34.27633662109375Q38.314262890625,34.15613662109375,38.326062890624996,34.03523662109375Q38.337962890625,33.91433662109375,38.343862890625,33.79293662109375Q38.349862890625,33.67153662109375,38.349862890625,33.55003662109375Q38.349862890625,33.42853662109375,38.343862890625,33.30713662109375Q38.337962890625,33.18573662109375,38.326062890624996,33.06485662109375Q38.314262890625,32.94392662109375,38.296462890625,32.82372662109375Q38.278762890625,32.70352662109375,38.255062890625,32.58434662109375Q38.231462890625,32.46515662109375,38.202062890625,32.34728662109375Q38.172662890625,32.22941662109375,38.137562890625,32.11312662109375Q38.102462890625,31.996846621093752,38.061662890625,31.882436621093753Q38.020862890625,31.76801662109375,37.974562890625,31.65575662109375Q37.928262890625,31.54348662109375,37.876462890625,31.43363662109375Q37.824762890624996,31.323786621093753,37.767662890625,31.216626621093752Q37.710662890625,31.10945662109375,37.648462890625,31.00522662109375Q37.586162890625,30.90100662109375,37.518962890625,30.799966621093752Q37.451762890625,30.69892662109375,37.379662890625,30.60132662109375Q37.307562890625,30.50372662109375,37.230762890625,30.40978662109375Q37.153962890624996,30.31585662109375,37.072662890625,30.22581662109375Q36.991362890625,30.13578662109375,36.905862890625,30.04985662109375Q36.820262890625,29.96393662109375,36.730562890625,29.88232662109375Q36.640862890625,29.80072662109375,36.547362890624996,29.72363662109375Q36.453762890625,29.646546621093748,36.356562890625,29.57415662109375Q36.259362890625,29.50177662109375,36.158762890625,29.434266621093748Q36.058062890624996,29.36675662109375,35.954262890625,29.30427662109375Q35.850462890624996,29.24180662109375,35.743762890625,29.18452662109375Q35.636962890625,29.12724662109375,35.527562890625,29.07528662109375Q35.418162890625,29.02333662109375,35.306362890624996,28.97683662109375Q35.194562890625,28.930326621093748,35.080562890625,28.889396621093752Q34.966662890625,28.84845662109375,34.850862890625,28.81318662109375Q34.734962890625,28.77790662109375,34.617562890625,28.74837662109375Q34.500162890625,28.71885662109375,34.381462890625,28.69514662109375Q34.262762890625,28.67144662109375,34.143062890625,28.65361662109375Q34.023362890625,28.63578662109375,33.902962890625,28.62387662109375Q33.782462890625,28.61196662109375,33.661562890625,28.60599662109375Q33.540662890625,28.60003662109375,33.419662890625,28.60003662109375Q33.298662890624996,28.60003662109375,33.177762890625004,28.60599662109375Q33.056862890625,28.61196662109375,32.936432890625,28.62387662109375Q32.815982890625,28.63578662109375,32.696262890625,28.65361662109375Q32.576542890625,28.67144662109375,32.457842890625,28.69514662109375Q32.339142890625,28.71885662109375,32.221742890625,28.74838662109375Q32.104332890625,28.77790662109375,31.988522890625,28.81318662109375Q31.872702890625,28.84845662109375,31.758752890625,28.889396621093752Q31.644792890625,28.930326621093748,31.532972890625,28.97683662109375Q31.421162890625,29.02333662109375,31.311752890625,29.07528662109375Q31.202342890624998,29.12724662109375,31.095602890625003,29.18452662109375Q30.988862890625,29.24180662109375,30.885052890625,29.30427662109375Q30.781242890625002,29.36675662109375,30.680612890625,29.434266621093748Q30.579982890625,29.50177662109375,30.482772890625,29.57415662109375Q30.385562890625,29.646546621093748,30.292002890625,29.72363662109375Q30.198452890625,29.80072662109375,30.108772890624998,29.88232662109375Q30.019092890625,29.96393662109375,29.933512890625,30.04985662109375Q29.847932890625,30.13578662109375,29.766652890625,30.22581662109375Q29.685382890625,30.31585662109375,29.608602890625,30.40978662109375Q29.531822890625,30.50372662109375,29.459722890625,30.60132662109375Q29.387622890625,30.69892662109375,29.320382890624998,30.799966621093752Q29.253142890625,30.90100662109375,29.190922890625,31.00522662109375Q29.128702890625,31.10945662109375,29.071652890625,31.216626621093752Q29.014592890625,31.32379662109375,28.962852890625,31.43363662109375Q28.911102890625,31.54348662109375,28.864792890625,31.65575662109375Q28.818472890625,31.76802662109375,28.777702890625,31.882436621093753Q28.736922890625,31.996846621093752,28.701792890625,32.11312662109375Q28.666662890625,32.22941662109375,28.637252890625,32.34728662109375Q28.607842890625,32.46515662109375,28.584232890625,32.58434662109375Q28.560622890624998,32.70352662109375,28.542862890625,32.82372662109375Q28.525102890625,32.94392662109375,28.513242890625,33.06485662109375Q28.501382890625,33.18573662109375,28.495442890625,33.30713662109375Q28.489502890625,33.42853662109375,28.489502890625,33.55003662109375Q28.489502890625,33.67153662109375,28.495442890625,33.79293662109375Q28.501382890625,33.91433662109375,28.513242890625,34.03523662109375Q28.525102890625,34.15613662109375,28.542862890625,34.27633662109375Q28.560622890624998,34.39653662109375,28.584232890625,34.51573662109375Q28.607842890625,34.63493662109375,28.637252890625,34.75283662109375Q28.666662890625,34.87063662109375,28.701792890625,34.98693662109375Q28.736922890625,35.10323662109375,28.777702890625,35.217636621093746Q28.818472890625,35.33203662109375,28.864792890625,35.444336621093754Q28.911102890625,35.55663662109375,28.962852890625,35.66643662109375Q29.014592890625,35.77633662109375,29.071652890625,35.88343662109375Q29.128702890625,35.99063662109375,29.190922890625,36.09483662109375Q29.253142890625,36.199036621093754,29.320382890624998,36.30013662109375Q29.387622890625,36.40113662109375,29.459722890625,36.49873662109375Q29.531822890625,36.59633662109375,29.608602890625,36.69033662109375Q29.685382890625,36.784236621093754,29.766652890625,36.87423662109375Q29.847932890625,36.96433662109375,29.933512890625,37.05023662109375Q30.019092890625,37.13613662109375,30.108772890624998,37.21773662109375Q30.198452890625,37.29933662109375,30.292002890625,37.37643662109375Q30.385562890625,37.45353662109375,30.482772890625,37.52593662109375Q30.579982890625,37.59833662109375,30.680612890625,37.665836621093746Q30.781252890624998,37.73333662109375,30.885062890625,37.79583662109375Q30.988872890625,37.85823662109375,31.095602890625003,37.91553662109375Q31.202342890624998,37.97283662109375,31.311752890625,38.02483662109375Q31.421162890625,38.07673662109375,31.532982890625,38.12323662109375Q31.644792890625,38.16973662109375,31.758752890625,38.21073662109375Q31.872702890625,38.25163662109375,31.988522890625,38.28693662109375Q32.104332890625,38.32213662109375,32.221742890625,38.35173662109375Q32.339142890625,38.38123662109375,32.457842890625,38.40493662109375Q32.576542890625,38.42863662109375,32.696262890625,38.44643662109375Q32.815982890625,38.46433662109375,32.936432890625,38.47623662109375Q33.056862890625,38.48813662109375,33.177762890625004,38.49403662109375Q33.298662890624996,38.50003662109375,33.419662890625,38.50003662109375Z" fill-rule="evenodd" fill="#FFFFFF" fill-opacity="1"/></g></g></svg>