<svg xmlns="http://www.w3.org/2000/svg" xmlns:xlink="http://www.w3.org/1999/xlink" fill="none" version="1.1" width="130"
     height="130.0263671875" viewBox="0 0 130 130.0263671875">
    <g>
        <g>
            <rect x="0" y="0" width="130" height="130.0263214111328" rx="32" fill="#009DFF" fill-opacity="1"/>
        </g>
        <g>
            <path d="M33.953125,53.9345703125L33.953125,85.14547031250001C33.953125,88.45917031249999,36.639415,91.14547031250001,39.953125,91.14547031250001L82.574225,91.14547031250001C85.887925,91.14547031250001,88.574225,88.45917031249999,88.574225,85.14547031250001L88.574225,81.5068703125C88.574225,81.4190703125,88.679325,81.3739703125,88.743025,81.4343703125L90.544625,83.1421703125C91.994725,84.5166703125,94.123825,84.8960703125,95.95942500000001,84.1068703125C97.794925,83.31757031250001,98.984425,81.5114703125,98.984425,79.5133703125L98.984425,59.5666703125C98.984425,57.5686503125,97.794925,55.7624603125,95.95942500000001,54.9732503125C94.123825,54.1840503125,91.994725,54.5633703125,90.544625,55.9379203125L88.743025,57.645740312499996C88.679325,57.7061503125,88.574225,57.6609703125,88.574225,57.5731603125L88.574225,53.9345703125C88.574225,50.6208603125,85.887925,47.9345703125,82.574225,47.9345703125L39.953125,47.9345703125C36.639415,47.9345703125,33.953125,50.6208603125,33.953125,53.9345703125Z"
                  fill-rule="evenodd" fill="#FFFFFF" fill-opacity="1"/>
        </g>
        <g>
            <rect x="57.88671875" y="37.4365234375" width="7.67578125" height="26.432619094848633" rx="2" fill="#FFFFFF"
                  fill-opacity="1"/>
            <rect x="57.28671872615814" y="36.83652341365814" width="8.875781297683716" height="27.63261914253235"
                  rx="2.600000023841858" fill-opacity="0" stroke-opacity="1" stroke="#000000" fill="none"
                  stroke-width="1.2000000476837158"/>
        </g>
        <g>
            <ellipse cx="61.724609375" cy="74.689453125" rx="5.115234375" ry="5.115234375" fill="#FFFFFF"
                     fill-opacity="1"/>
            <ellipse cx="61.724609375" cy="74.689453125" rx="4.515234351158142" ry="4.515234351158142" fill-opacity="0"
                     stroke-opacity="1" stroke="#000000" fill="none" stroke-width="1.2000000476837158"/>
        </g>
    </g>
</svg>