<svg xmlns="http://www.w3.org/2000/svg" xmlns:xlink="http://www.w3.org/1999/xlink" fill="none" version="1.1" width="130"
     height="130.0263671875" viewBox="0 0 130 130.0263671875">
    <g>
        <rect x="0" y="0" width="130" height="130.0263671875" rx="0"  />
        <g style="opacity:0.5;">
            <rect x="0" y="0" width="130" height="130.0263214111328" rx="32" fill="#BABFC4"
                  fill-opacity="0.800000011920929"/>
        </g>
        <g>
            <g>
                <rect x="36.3125" y="51.001708984375" width="49.310543060302734" height="37.85713195800781" rx="2.5"
                      fill-opacity="0" stroke-opacity="1" stroke="#FFFFFF" fill="none" stroke-width="5"/>
            </g>
            <g>
                <rect x="56.501953125" y="36.4697265625" width="11.21875" height="28.131805419921875" rx="4"
                      fill="#FFFFFF" fill-opacity="1"/>
            </g>
            <g>
                <ellipse cx="61.919921875" cy="75.00263929367065" rx="6" ry="5.999999523162842" fill="#FFFFFF"
                         fill-opacity="1"/>
            </g>
            <g>
                <path d="M92.51568375,79.83913193359375Q91.00980375,79.61003193359375,89.09674375,77.99933193359375L87.56681275,76.71113193359375L84.99050375,79.77103193359375L86.52044375,81.05913193359375Q89.29488375,83.39513193359375,91.91400375,83.79363193359376Q93.66753375,84.06043193359375,95.36578375,83.94613193359375Q97.65711375000001,83.79183193359376,98.50859375,82.82233193359374Q98.95919375,82.30933193359375,99.06269375,81.40343193359375Q99.10069375,81.07113193359375,99.13019375,80.51923193359374Q99.18169375,79.55673193359375,99.21319375,77.85783193359376Q99.27029375000001,74.76893193359375,99.25489375000001,70.12203193359375Q99.21689375,58.71558393359375,98.83229375,57.85351293359375Q98.30769375,56.67742193359375,96.73764375,56.39956193359375Q96.06740375,56.28094193359375,95.10732375,56.30396193359375Q93.38507375,56.34526193359375,91.76459375,56.71968193359375Q89.53836375,57.23406193359375,86.45395375,60.07374193359375L84.98256375,61.42837193359375L87.69184975,64.37115193359375L89.16323375,63.01650193359375Q91.46945375,60.89326193359375,92.66509375,60.61700193359375Q93.84730375,60.34384193359375,95.11490375,60.30522193359375Q95.14557375,61.16196193359375,95.17217375,62.45606193359375Q95.24038375,65.77405193359375,95.25489375,70.13533193359375Q95.27020375000001,74.73853193359375,95.21384375,77.78383193359375Q95.18925375,79.11243193359375,95.15294375,79.95123193359375Q95.12525375,79.95323193359374,95.09710375,79.95513193359375Q93.83602375,80.04003193359375,92.51568375,79.83913193359375Z"
                      fill-rule="evenodd" fill="#FFFFFF" fill-opacity="1"/>
            </g>
        </g>
    </g>
</svg>