<svg xmlns="http://www.w3.org/2000/svg" xmlns:xlink="http://www.w3.org/1999/xlink" fill="none" version="1.1" width="130" height="130.0263671875" viewBox="0 0 130 130.0263671875"><g><g style="opacity:0.5;"><rect x="0" y="0" width="130" height="130.0263214111328" rx="32" fill="#BABFC4" fill-opacity="0.800000011920929"/></g><g><g><path d="M63.820340625,36.99627572265625C57.628330625000004,36.99627572265625,55.609370625,40.38484572265625,55.609370625,47.03196572265625L55.609370625,62.076565722656255C55.606350625,68.72606572265624,57.626200625,74.11826572265625,63.820340625,74.11826572265625C70.01444062499999,74.11826572265625,72.036240625,68.72606572265624,72.033240625,62.076565722656255L72.033240625,47.03196572265625C72.033240625,40.38484572265625,70.01234062500001,36.99627572265625,63.820340625,36.99627572265625ZM63.821140625,31.98736572265625C71.561240625,31.98736572265625,77.835540625,38.72284572265625,77.835540625,47.03196572265625L77.835540625,62.07666572265625C77.835940625,73.11826572265625,71.560540625,79.12126572265625,63.820340625,79.12126572265625C56.080130625,79.12126572265625,50.679687625,73.11826572265625,49.806640625,62.07666572265625L49.806640625,47.03196572265625C49.806640625,38.72284572265625,56.080910625,31.98736982609625,63.821140625,31.98736572265625Z" fill="#FFFFFF" fill-opacity="1"/></g><g><path d="M40.03904575,60.59799957240625Q39.93359375,61.763555566406254,39.93359375,62.93418556640625Q39.93359375,63.55116556640625,39.96293215,64.16739556640626Q39.99227055,64.78362556640624,40.05087675,65.39763556640625Q40.10948275,66.01164556640624,40.19721575,66.62194556640625Q40.28494775,67.23223556640625,40.40159575,67.83736556640625Q40.51824375,68.44248556640625,40.66352575,69.04097556640625Q40.80880775,69.63945556640626,40.98237375,70.22986556640625Q41.15594375,70.82030556640625,41.35737375,71.40120556640625Q41.55880375,71.98210556640625,41.78761375,72.55210556640625Q42.01643375,73.12210556640625,42.27207375,73.67990556640625Q42.527713750000004,74.23760556640624,42.80957375,74.78170556640625Q43.09142375,75.32580556640625,43.39882375,75.85500556640625Q43.70621375,76.38420556640625,44.03839375,76.89720556640626Q44.37058375,77.41020556640625,44.72676375,77.90580556640626Q45.08293375,78.40140556640625,45.46225375,78.87830556640625Q45.84156375,79.35520556640626,46.24310375,79.81240556640626Q46.64464375,80.26950556640625,47.06743375,80.70580556640626Q47.49022375,81.14210556640626,47.93325375,81.55640556640626Q48.37628375,81.97070556640625,48.83847375,82.36210556640626Q49.30067375,82.75350556640625,49.78092375,83.12110556640624Q50.261193750000004,83.48860556640625,50.75829375,83.83140556640625Q51.25549375,84.17420556640624,51.76829375,84.49130556640625Q52.28119375,84.80850556640625,52.80849375,85.09940556640625Q53.33579375,85.39020556640625,53.87629375,85.65400556640625Q54.41679375,85.91780556640626,54.96919375,86.15390556640625Q55.52159375,86.39000556640624,56.084593749999996,86.59790556640625Q56.64759375,86.80570556640625,57.219693750000005,86.98480556640625Q57.79189375,87.16390556640624,58.37189375,87.31380556640624Q58.951893749999996,87.46370556640625,59.53829375,87.58410556640625Q60.124793749999995,87.70450556640625,60.71619375,87.79500556640625Q61.30769375,87.88550556640625,61.90269375,87.94600556640626Q62.497693749999996,88.00650556640625,63.09489375,88.03680556640626Q63.69209375,88.06700556640625,64.28999375000001,88.06700556640625Q64.88799374999999,88.06700556640625,65.48519375000001,88.03680556640626Q66.08239375,88.00650556640625,66.67739375,87.94600556640626Q67.27239374999999,87.88550556640625,67.86389375,87.79500556640625Q68.45529375,87.70450556640625,69.04179375,87.58410556640625Q69.62819375000001,87.46370556640625,70.20819374999999,87.31380556640624Q70.78819375,87.16390556640624,71.36039375,86.98480556640625Q71.93249374999999,86.80570556640625,72.49549375000001,86.59790556640625Q73.05849375,86.39000556640624,73.61089375,86.15390556640625Q74.16329375000001,85.91780556640626,74.70379375,85.65400556640625Q75.24429375,85.39020556640625,75.77159375,85.09940556640625Q76.29889374999999,84.80850556640625,76.81179374999999,84.49130556640625Q77.32459374999999,84.17420556640624,77.82179375,83.83140556640625Q78.31889375,83.48860556640625,78.79919375,83.12110556640624Q79.27939375,82.75350556640625,79.74159374999999,82.36210556640626Q80.20379375,81.97070556640625,80.64679375,81.55640556640626Q81.08989375,81.14210556640626,81.51269375,80.70580556640626Q81.93539375,80.26950556640625,82.33699375,79.81240556640626Q82.73849375,79.35520556640626,83.11779375,78.87830556640625Q83.49709375,78.40140556640625,83.85329375,77.90580556640626Q84.20949375000001,77.41020556640625,84.54169375000001,76.89720556640626Q84.87389375000001,76.38420556640625,85.18129375000001,75.85500556640625Q85.48869375000001,75.32580556640625,85.77049375,74.78170556640625Q86.05239375,74.23760556640624,86.30799375000001,73.67990556640625Q86.56369375,73.12210556640625,86.79249375,72.55210556640625Q87.02129375,71.98210556640625,87.22269374999999,71.40120556640625Q87.42409375,70.82030556640625,87.59769374999999,70.22986556640625Q87.77129375,69.63945556640626,87.91659375,69.04097556640625Q88.06179374999999,68.44248556640625,88.17849375,67.83736556640625Q88.29509375,67.23223556640625,88.38289375,66.62193556640625Q88.47059375,66.01164556640624,88.52919374999999,65.39763556640625Q88.58779375,64.78362556640624,88.61719375,64.16739556640626Q88.64649374999999,63.55116556640625,88.64649374999999,62.93418556640625Q88.64649374999999,61.763555566406254,88.54099375,60.59799957240625L84.52399375,60.59799957240625Q84.64649374999999,61.75391556640625,84.64649374999999,62.93418556640625Q84.64649374999999,66.98711556640625,83.20179375000001,70.75260556640625Q81.63799374999999,74.82880556640625,78.64019375000001,77.92210556640624Q75.65679374999999,81.00060556640625,71.74279375,82.59950556640625Q68.15039375,84.06700556640625,64.28999375000001,84.06700556640625Q60.42969375,84.06700556640625,56.83729375,82.59950556640625Q52.92329375,81.00060556640625,49.939893749999996,77.92210556640624Q46.942133749999996,74.82880556640625,45.37827375,70.75260556640625Q43.93359375,66.98712556640625,43.93359375,62.93418556640625Q43.93359375,61.75390556640625,44.05611375,60.59799957240625L40.03904575,60.59799957240625Z" fill-rule="evenodd" fill="#FFFFFF" fill-opacity="1"/></g><g><rect x="61.91015625" y="88.067138671875" width="5.443359375" height="5.747314453125" rx="0" fill="#FFFFFF" fill-opacity="1"/></g><g><rect x="47.134765625" y="92.7906494140625" width="34.990234375" height="5.747314453125" rx="0" fill="#FFFFFF" fill-opacity="1"/></g></g></g></svg>