<svg xmlns="http://www.w3.org/2000/svg" xmlns:xlink="http://www.w3.org/1999/xlink" fill="none" version="1.1" width="157" height="57" viewBox="0 0 157 57"><g><path d="M1.938,24.244L36.062,24.244L36.062,27.512L1.938,27.512L1.938,24.244ZM51.87,9.918Q51.49,11.4,50.882,13.262L56.506,13.262L56.506,39.786Q56.506,41.952,55.613,42.826Q54.72,43.7,52.478,43.776Q50.388,43.852,48.716,43.586L48.184,40.698Q50.388,41.078,52.136,41.078Q53.124,41.078,53.523,40.565Q53.922,40.052,53.922,38.874L53.922,28.424L47.196,28.424Q47.158,32.832,46.816,35.53Q46.474,38.228,45.809,40.147Q45.144,42.066,43.852,44.422L41.154,43.054Q42.446,40.774,43.111,38.969Q43.776,37.164,44.061,34.789Q44.346,32.414,44.422,28.424L41.154,28.424L41.154,25.726L44.422,25.726L44.422,13.262L47.994,13.262Q48.868,10.678,49.172,9.196L51.87,9.918ZM63.384,16.758Q63.384,19.152,62.586,20.729Q61.788,22.306,59.66,24.244L57.57,22.382Q58.9,21.204,59.584,20.33Q60.268,19.456,60.553,18.411Q60.838,17.366,60.838,15.77L60.838,11.704L71.516,11.704L71.516,18.43Q71.516,19.38,71.839,19.703Q72.162,20.026,73.112,20.026L75.772,20.026L75.544,22.762L71.934,22.762Q70.262,22.762,69.559,22.154Q68.856,21.546,68.856,19.798L68.856,14.44L63.384,14.44L63.384,16.758ZM47.196,25.726L53.922,25.726L53.922,15.96L47.196,15.96L47.196,25.726ZM50.958,24.32Q50.388,23.18,49.533,21.622Q48.678,20.064,47.994,18.848L50.084,17.594Q51.072,19.494,53.01,22.952L50.958,24.32ZM74.632,44.498Q69.806,42.218,66.652,39.178Q63.536,41.99,58.71,44.384L57.19,41.8Q61.674,39.71,64.714,37.05Q61.636,33.326,59.926,27.892L58.634,27.892L58.634,25.194L73.416,25.194L73.416,28.158Q72.618,30.818,71.478,33.022Q70.338,35.226,68.666,37.126Q71.63,39.748,76.076,41.61L74.632,44.498ZM62.89,27.892Q64.258,32.148,66.69,35.036Q69.084,32.186,70.528,27.892L62.89,27.892ZM50.844,36.632Q49.742,34.238,48.07,31.084L50.084,29.868Q50.388,30.324,50.958,31.445Q51.528,32.566,51.832,33.136L52.934,35.226L50.844,36.632ZM104.804,34.428Q108.718,37.62,115.178,40.052L113.62,42.978Q108.224,40.508,104.956,38.095Q101.688,35.682,99.446,32.414L99.446,39.71Q99.446,41.496,99.009,42.408Q98.572,43.32,97.565,43.643Q96.558,43.966,94.696,43.966Q93.404,43.966,91.276,43.738L90.744,40.698Q92.796,41.04,94.848,41.04Q95.798,41.04,96.14,40.622Q96.482,40.204,96.482,39.064L96.482,33.782L95.076,34.656Q87.628,39.482,82.536,42.18L81.13,39.52Q85.424,37.354,89.566,34.979Q93.708,32.604,96.482,30.704L96.482,25.802L81.434,25.802L81.434,23.104L106.286,23.104L106.286,19.988L86.26,19.988L86.26,17.366L106.286,17.366L106.286,13.946L85.196,13.946L85.196,11.21L109.288,11.21L109.288,23.104L114.798,23.104L114.798,25.802L99.446,25.802L99.446,27.854Q100.89,30.476,102.752,32.49Q106.628,29.564,109.364,26.372L111.568,28.576Q108.414,31.73,104.804,34.428ZM85.88,26.866Q88.92,28.766,91.846,31.274L90.098,33.554Q86.412,30.438,84.246,29.07L85.88,26.866ZM148.238,31.312Q149.53,34.2,151.126,36.252Q152.722,38.304,155.192,40.128L153.254,42.332Q150.86,40.356,149.226,38.057Q147.592,35.758,146.224,32.452L144.818,33.174Q145.616,35.682,145.616,38.722Q145.616,41.648,144.324,42.75Q143.032,43.852,140.638,43.852Q139.954,43.852,137.75,43.624L137.294,41.078Q137.636,41.116,138.586,41.23Q139.536,41.344,140.258,41.344Q141.322,41.344,141.892,41.097Q142.462,40.85,142.709,40.014Q142.956,39.178,142.88,37.506Q142.804,36.176,142.69,35.53Q140.334,37.734,137.313,39.52Q134.292,41.306,130.416,42.978L129.124,40.622Q137.484,37.582,142.082,33.136Q141.816,32.414,141.284,31.426Q138.89,33.478,136.287,34.903Q133.684,36.328,130.34,37.468L129.352,35.226Q135.964,33.288,140.182,29.564L139.27,28.348Q137.75,29.412,135.66,30.248Q133.57,31.084,130.454,32.034L129.39,29.678Q133.038,28.728,135.28,27.759Q137.522,26.79,138.852,25.46L131.632,25.46L131.632,19.798L129.656,21.204L128.326,18.81Q134.862,14.554,137.826,9.158L140.638,10.07Q140.106,11.02,139.384,12.046L148.58,12.046L148.58,14.288Q147.364,16.112,145.616,17.67L152.836,17.67L152.836,25.46L142.006,25.46Q141.474,26.296,141.132,26.676Q142.918,28.918,143.906,30.894Q145.73,29.982,147.649,28.728Q149.568,27.474,150.936,26.22L152.57,28.234Q150.67,29.83,148.238,31.312ZM130.302,10.45Q129.01,15.2,127.148,19.608L127.148,44.384L124.298,44.384L124.298,25.422Q122.93,27.854,121.638,29.602L119.966,26.714Q122.056,23.712,124.051,19.095Q126.046,14.478,127.338,9.728L130.302,10.45ZM137.598,14.402Q136.268,15.96,134.292,17.67L142.272,17.67Q144.058,16.112,145.198,14.402L137.598,14.402ZM134.33,23.256L140.372,23.256Q140.98,21.85,141.17,19.874L134.33,19.874L134.33,23.256ZM150.1,23.256L150.1,19.874L143.64,19.874Q143.45,21.926,142.994,23.256L150.1,23.256Z" fill="#FFFFFF" fill-opacity="1"/></g></svg>