<svg xmlns="http://www.w3.org/2000/svg" xmlns:xlink="http://www.w3.org/1999/xlink" fill="none" version="1.1" width="130"
     height="130.025390625" viewBox="0 0 130 130.025390625">
    <g>
        <g>
            <g>
                <rect x="0" y="0" width="130" height="130.0263214111328" rx="32" fill="#009DFF" fill-opacity="1"/>
            </g>
            <g></g>
        </g>
        <g>
            <g>
                <path d="M40.0350515,60.278114319Q39.9296875,61.44318375,39.9296875,62.61332375Q39.9296875,63.23030375,39.9590259,63.84653375Q39.9883643,64.46276375,40.0469705,65.07677375Q40.1055765,65.69078375,40.1933095,66.30108375Q40.2810415,66.91137375,40.3976895,67.51650375Q40.5143375,68.12162375,40.6596195,68.72011375Q40.8049015,69.31859375,40.9784675,69.90900375Q41.1520375,70.49944375,41.3534675,71.08034375Q41.5548975,71.66124375,41.7837075,72.23124375Q42.0125275,72.80124375,42.2681675,73.35904375Q42.523807500000004,73.91674375,42.8056675,74.46084375Q43.0875175,75.00494375,43.3949175,75.53414375Q43.7023075,76.06334375,44.0344875,76.57634375Q44.3666775,77.08934375,44.7228575,77.58494375000001Q45.0790275,78.08054375,45.4583475,78.55744375Q45.8376575,79.03434375,46.2391975,79.49154375Q46.6407375,79.94864375,47.0635275,80.38494375Q47.4863175,80.82124375000001,47.9293475,81.23554375Q48.3723775,81.64984375,48.8345675,82.04124375Q49.2967675,82.43264375,49.7770175,82.80024374999999Q50.257287500000004,83.16774375,50.7543875,83.51054375Q51.2515875,83.85334375,51.7643875,84.17044375Q52.2772875,84.48764375,52.8045875,84.77854375Q53.3318875,85.06934375,53.8723875,85.33314375Q54.4128875,85.59694375000001,54.9652875,85.83304375Q55.5176875,86.06914375,56.080687499999996,86.27704375Q56.6436875,86.48484375,57.215787500000005,86.66394375Q57.7879875,86.84304374999999,58.3679875,86.99294375Q58.947987499999996,87.14284375,59.5343875,87.26324375Q60.120887499999995,87.38364375,60.7122875,87.47414375Q61.3037875,87.56464375,61.8987875,87.62514375Q62.493787499999996,87.68564375,63.0909875,87.71594375000001Q63.6881875,87.74614375,64.28608750000001,87.74614375Q64.88408749999999,87.74614375,65.48128750000001,87.71594375000001Q66.0784875,87.68564375,66.6734875,87.62514375Q67.26848749999999,87.56464375,67.8599875,87.47414375Q68.4513875,87.38364375,69.0378875,87.26324375Q69.62428750000001,87.14284375,70.20428749999999,86.99294375Q70.7842875,86.84304374999999,71.3564875,86.66394375Q71.92858749999999,86.48484375,72.49158750000001,86.27704375Q73.0545875,86.06914375,73.6069875,85.83304375Q74.15938750000001,85.59694375000001,74.6998875,85.33314375Q75.2403875,85.06934375,75.7676875,84.77854375Q76.29498749999999,84.48764375,76.80788749999999,84.17044375Q77.32068749999999,83.85334375,77.8178875,83.51054375Q78.3149875,83.16774375,78.7952875,82.80024374999999Q79.2754875,82.43264375,79.73768749999999,82.04124375Q80.1998875,81.64984375,80.6428875,81.23554375Q81.0859875,80.82124375000001,81.5087875,80.38494375Q81.9314875,79.94864375,82.3330875,79.49154375Q82.7345875,79.03434375,83.1138875,78.55744375Q83.4931875,78.08054375,83.8493875,77.58494375000001Q84.20558750000001,77.08934375,84.53778750000001,76.57634375Q84.86998750000001,76.06334375,85.17738750000001,75.53414375Q85.48478750000001,75.00494375,85.7665875,74.46084375Q86.0484875,73.91674375,86.30408750000001,73.35904375Q86.5597875,72.80124375,86.7885875,72.23124375Q87.0173875,71.66124375,87.21878749999999,71.08034375Q87.4201875,70.49944375,87.59378749999999,69.90900375Q87.7673875,69.31859375,87.9126875,68.72011375Q88.05788749999999,68.12162375,88.1745875,67.51650375Q88.2911875,66.91137375,88.3789875,66.30107375Q88.4666875,65.69078375,88.52528749999999,65.07677375Q88.5838875,64.46276375,88.6132875,63.84653375Q88.64258749999999,63.23030375,88.64258749999999,62.61332375Q88.64258749999999,61.44318375,88.5371875,60.278114319L84.52018749999999,60.278114319Q84.64258749999999,61.43355375,84.64258749999999,62.61332375Q84.64258749999999,66.66625375,83.19788750000001,70.43174375Q81.63408749999999,74.50794375,78.63628750000001,77.60124375Q75.65288749999999,80.67974375,71.7388875,82.27864375Q68.1464875,83.74614375,64.28608750000001,83.74614375Q60.4257875,83.74614375,56.8333875,82.27864375Q52.9193875,80.67974375,49.935987499999996,77.60124375Q46.938227499999996,74.50794375,45.3743675,70.43174375Q43.9296875,66.66626375,43.9296875,62.61332375Q43.9296875,61.43354375,44.0521075,60.278114319L40.0350515,60.278114319Z"
                      fill-rule="evenodd" fill="#FFFFFF" fill-opacity="1"/>
            </g>
            <g>
                <rect x="61.90625" y="87.74609375" width="5.443359375" height="5.747314453125" rx="0" fill="#FFFFFF"
                      fill-opacity="1"/>
            </g>
            <g>
                <rect x="47.12890625" y="92.46875" width="34.990234375" height="5.747314453125" rx="0" fill="#FFFFFF"
                      fill-opacity="1"/>
            </g>
            <g>
                <rect x="50.8203125" y="32.30859375" width="27.61328125" height="46.544921875" rx="13.806640625"
                      fill="#FFFFFF" fill-opacity="1"/>
            </g>
        </g>
    </g>
</svg>