<svg xmlns="http://www.w3.org/2000/svg" xmlns:xlink="http://www.w3.org/1999/xlink" fill="none" version="1.1" width="130" height="130" viewBox="0 0 130 130"><g><g style="opacity:0.5;"><rect x="0" y="0" width="130" height="130" rx="32" fill="#BABFC4" fill-opacity="0.800000011920929"/></g><g><path d="M68.081259375,95.41342337036133L59.166559375,95.41342337036133C57.232359375,95.41032337036133,55.665159375,93.82592337036132,55.661959374999995,91.87042337036132L55.661959374999995,87.70312337036133C55.661959374999995,87.49722337036133,55.393759375,87.08842337036133,55.205659374999996,87.00602337036133L55.104759375,86.96552337036132L47.686359375,82.65632337036132L47.591659375,82.58282337036133C47.432459375,82.45982337036133,46.954859375,82.42822337036134,46.781159375,82.52952337036132L43.217709375,84.60942337036133C41.541199375,85.58422337036133,39.400559375,85.00452337036133,38.430669375,83.31282337036133L33.973966375,75.50552337036133C33.009790375,73.81052337036132,33.583574875,71.64622337036133,35.257069375,70.66592337036133L38.838099375,68.57472337036133C38.977259375,68.49362337036132,39.145879375,68.12092337036133,39.115789375,67.96132337036133C39.098239375,67.86812337036133,38.685159375,65.66032337036133,38.685159375,63.51332337036133C38.685159375,61.29092337036133,39.138349375,58.954423370361326,39.157159375,58.85622337036133C39.187869375,58.70032337036133,39.024269375,58.33592337036133,38.888879375,58.25672337036133L35.257069375,56.13752337036133C33.583201475,55.15722337036133,33.009366375,52.992523370361326,33.973966375,51.297323370361326L38.430669375,43.49322337036133C39.400349375,41.80132337036133,41.541039375,41.22126337036133,43.217709375,42.19602337036133L46.924059375,44.35952337036133C47.100859375,44.46282337036133,47.587959375,44.43242337036133,47.750859375,44.30752337036133L47.844259375,44.23592337036133L55.108559375,40.056633370361325L55.209459375,40.013543370361326C55.397459375,39.93496337036133,55.663259374999996,39.52875337036133,55.663259374999996,39.32406337036133L55.663259374999996,34.93247337036133C55.666359375,32.97749337036133,57.232859375000004,31.39325926036133,59.166559375,31.389423370361328L68.079959375,31.389423370361328C70.01415937499999,31.392565870361327,71.58145937500001,32.97700337036133,71.584559375,34.932483370361325L71.584559375,39.37856337036133C71.584559375,39.58705337036133,71.855959375,40.00276337036133,72.045259375,40.08451337036133L72.145559375,40.12824337036133L79.29755937499999,44.30562337036133L79.389759375,44.37662337036133C79.55015937499999,44.500223370361326,80.029659375,44.53182337036133,80.204559375,44.429823370361326L84.028159375,42.19662337036133C85.704659375,41.221793370361326,87.845359375,41.80162337036133,88.815259375,43.49322337036133L93.271959375,51.29672337036133C94.236659375,52.99172337036133,93.663059375,55.156423370361324,91.989459375,56.13692337036133L88.192159375,58.35492337036133C88.054859375,58.43542337036133,87.888759375,58.80362337036133,87.918859375,58.96142337036133C87.93705937499999,59.05702337036133,88.37085937500001,61.330223370361324,88.37085937500001,63.515223370361326C88.37085937500001,65.62482337036133,87.976559375,67.76862337036133,87.959659375,67.85922337036132C87.928959375,68.02402337036133,88.097559375,68.39532337036133,88.241659375,68.47962337036134L91.989459375,70.66722337036133C93.66275937500001,71.64772337036132,94.236259375,73.81192337036133,93.271959375,75.50682337036133L88.815259375,83.30962337036132C87.845359375,85.00132337036132,85.704659375,85.58112337036133,84.028159375,84.60622337036133L80.344959375,82.45602337036132C80.173259375,82.35592337036132,79.703759375,82.38822337036133,79.547059375,82.51122337036134L79.453659375,82.58402337036134L72.148059375,86.89322337036133L72.046459375,86.93762337036134C71.851559375,87.02192337036132,71.583259375,87.43442337036133,71.583259375,87.64932337036133L71.583259375,91.86972337036133C71.580559375,93.82452337036133,70.014759375,95.40892337036132,68.081259375,95.41342337036133ZM59.280659375,91.75632337036133L67.967759375,91.75632337036133L67.967759375,87.64992337036134C67.967759375,86.02952337036132,69.049059375,84.32742337036133,70.502059375,83.63222337036133L77.44655937499999,79.53532337036133C78.762859375,78.58472337036133,80.759959375,78.47382337036133,82.156559375,79.28882337036133L85.741959375,81.38002337036133L90.085159375,73.77552337036133L86.43335937500001,71.64562337036133C84.963459375,70.78762337036133,84.091459375,68.86872337036132,84.404959375,67.18182337036133C84.408059375,67.16412337036132,84.753459375,65.27432337036133,84.753459375,63.513923370361326C84.753459375,61.67622337036133,84.372959375,59.67932337036133,84.36855937499999,59.65972337036133C84.04325937499999,57.970223370361325,84.909459375,56.04762337036133,86.383759375,55.186423370361325L90.082059375,53.02732337036133L85.743759375,45.42092337036133L82.014259375,47.59712337036133C80.620759375,48.41012337036133,78.623059375,48.30492337036133,77.305559375,47.36522337036133L70.512059375,43.39502337036133C69.05525937499999,42.70302337036133,67.970859375,41.00085337036133,67.970859375,39.37856337036133L67.970859375,35.04718337036133L59.280659375,35.04718337036133L59.280659375,39.32470337036133C59.280659375,40.95269337036133,58.189959375,42.65232337036133,56.723859375,43.335423370361326L49.820059375,47.30812337036133C48.499959375,48.23842337036133,46.504159375,48.337923370361324,45.115059375,47.52742337036133L41.507109375,45.42092337036133L37.165119375,53.02732337036133L40.697259375,55.09002337036133C42.174049374999996,55.95252337036133,43.037809375,57.87832337036133,42.703089375,59.56842337036133C42.699329375,59.58812337036133,42.300039375,61.65972337036133,42.300039375,63.51452337036133C42.300039375,65.31872337036133,42.662339375,67.25342337036133,42.666109375,67.27502337036132C42.985789374999996,68.96312337036133,42.116379375,70.88712337036134,40.643979375,71.74322337036133L37.165119375,73.77622337036132L41.508369375,81.38062337036132L44.972159375000004,79.36102337036132C46.364959375,78.54802337036134,48.360759375,78.65382337036132,49.678359375,79.59422337036133L56.731359375,83.69372337036133C58.193159375,84.38002337036133,59.280659375,86.07962337036133,59.280659375,87.70502337036133L59.280659375,91.75632337036133Z" fill="#FFFFFF" fill-opacity="1"/></g><g><path d="M63.9941625,78.95159324951172C54.8232725,78.95149324951171,48.1483625,70.25239324951173,50.5220135,61.39409324951172C52.8956625,52.53574324951172,63.0258625,48.33974324951172,70.9680625,52.92522324951172C78.9102625,57.51069324951172,80.3413625,68.38179324951172,73.8565625,74.86649324951172C71.2465625,77.49069324951172,67.6952625,78.96169324951171,63.9941625,78.95159324951172ZM63.9941625,55.11816324951172C58.5429225,55.11816324951172,54.1075925,59.55286324951172,54.1075925,65.00469324951172C54.1075925,70.45649324951172,58.5429225,74.89059324951171,63.9941625,74.89059324951171C69.4453625,74.89059324951171,73.8806625,70.45589324951172,73.8806625,65.00469324951172C73.8806625,59.55349324951172,69.4440625,55.11562324951172,63.9941625,55.11562324951172L63.9941625,55.11816324951172Z" fill="#FFFFFF" fill-opacity="1"/></g></g></svg>