<svg xmlns="http://www.w3.org/2000/svg" xmlns:xlink="http://www.w3.org/1999/xlink" fill="none" version="1.1" width="130" height="130" viewBox="0 0 130 130"><g><g style="opacity:0.5;"><rect x="0" y="0" width="130" height="130" rx="32" fill="#BABFC4" fill-opacity="0.800000011920929"/></g><g><path d="M92.599603125,44.2720963671875L64.726603125,44.2720963671875L61.218703125000005,39.6089463671875C60.463403125,38.2802893671875,58.990503125000004,37.4509197571875,57.386703125,37.4520263671875L38.191343125,37.4520276126675C35.794723125,37.4520276126675,33.845703125,39.2824363671875,33.845703125,41.5332063671875L33.845703125,88.4667263671875C33.845703125,90.7175263671875,35.794723125,92.5479263671875,38.191343125,92.5479263671875L92.511803125,92.5479263671875C94.908403125,92.5479263671875,97.324203125,90.7175263671875,97.324203125,88.4667263671875L97.324203125,49.6955263671875C97.324203125,47.444786367187504,94.996203125,44.2720963671875,92.599603125,44.2720963671875ZM38.445313125,42.7636763671875L55.640603125,42.7636763671875Q58.847703124999995,49.0436263671875,60.033203125,49.6955263671875Q61.218703125000005,50.3474263671875,92.003903125,49.6955263671875L92.003903125,55.9438263671875C91.975703125,55.9438263671875,92.627903125,55.9438263671875,92.599603125,55.9438263671875L38.445313125,55.9438263671875C38.417063125,55.9438263671875,38.221763125,55.9438263671875,38.191343125,55.9438263671875L38.445313125,42.7636763671875ZM38.275393125,87.0407263671875L38.191343125,82.3450263671875L38.275393125,61.9776263671875L92.511703125,62.0551263671875L92.511803125,82.3450263671875L92.516103125,82.3450263671875L92.599603125,87.0407263671875L38.275393125,87.0407263671875Z" fill="#FFFFFF" fill-opacity="1"/></g></g></svg>