<svg xmlns="http://www.w3.org/2000/svg" xmlns:xlink="http://www.w3.org/1999/xlink" fill="none" version="1.1" width="40" height="39.5" viewBox="0 0 40 39.5"><g><g><path d="M21,31.5C19.34375,31.5,18,30.3482,18,28.92857L18,22.07143C18,20.65179,19.34375,19.5,21,19.5C22.65625,19.5,24,20.65179,24,22.07143L24,28.92857C24,30.3482,22.65625,31.5,21,31.5Z" fill="#FFFFFF" fill-opacity="1"/></g><g><path d="M32.494,11.355L37.0667,11.355C38.687,11.355,40,12.5868,40,14.107L40,36.7481C40,38.2683,38.687,39.5001,37.0667,39.5001L2.93333,39.5001C1.31302,39.5001,0,38.2683,0,36.7481L0,14.107C0,12.5868,1.31302,11.355,2.93333,11.355L8.50604,11.355Q8.5,11.178,8.5,11Q8.5,8.8503,9.38081,6.85963Q10.3229,4.73036,12.1155,3.12649Q13.8742,1.5529,16.1684,0.740269Q18.2582,0,20.5,0Q22.7418,0,24.8316,0.740269Q27.1258,1.5529,28.8845,3.12649Q30.6771,4.73036,31.6192,6.85963Q32.5,8.8503,32.5,11Q32.5,11.178,32.494,11.355ZM13.5109,11.355Q13.5,11.1793,13.5,11Q13.5,8.59696,15.4495,6.8527Q17.5201,5,20.5,5Q23.4799,5,25.5505,6.8527Q27.5,8.59696,27.5,11Q27.5,11.1793,27.4891,11.355L13.5109,11.355ZM35,34.8093L35,16.0458L5.5,16.0458L5.5,34.8093L35,34.8093Z" fill-rule="evenodd" fill="#FFFFFF" fill-opacity="1"/></g></g></svg>