<svg xmlns="http://www.w3.org/2000/svg" xmlns:xlink="http://www.w3.org/1999/xlink" fill="none" version="1.1" width="41" height="32" viewBox="0 0 41 32"><g><g><path d="M20.49922,32C22.2107,32,23.598100000000002,30.6894,23.598100000000002,29.072699999999998C23.598100000000002,27.456,22.2107,26.14544,20.49922,26.14544C18.78774,26.14544,17.40032,27.456,17.40032,29.072699999999998C17.40032,30.6894,18.78774,32,20.49922,32ZM27.7015,24.023310000000002C27.1284,24.004170000000002,26.580399999999997,23.796680000000002,26.152,23.43665C22.9373,20.70443,18.058,20.70443,14.84325,23.43665C13.89969,24.23638,12.45084,24.17101,11.592254,23.28999C10.745645,22.39868,10.814839,21.030070000000002,11.747517,20.21904C16.69756,15.95579,24.260199999999998,15.92346,29.2509,20.14421C30.1857,20.95555,30.2549,22.326430000000002,29.4062,23.21815C28.9895,23.70864,28.3669,24.00273,27.7015,24.023310000000002Z" fill="#FFFFFF" fill-opacity="1"/></g><g><path d="M33.7194,18.99105C33.142700000000005,18.97285,32.5888,18.75575,32.1468,18.3747C28.9896,15.318190000000001,24.8178,13.61337,20.480600000000003,13.607389999999999C16.1408,13.59899,11.96397,15.30584,8.81451,18.37469C7.915,19.220599999999997,6.49536,19.220599999999997,5.672339,18.29922C4.775886,17.29922,4.775886,15.83695,5.672339,14.99104C9.67438,11.1098,14.97838,8.9641062,20.480600000000003,9.000454886C25.9767,9.00100766,31.2683,11.1428,35.2889,14.99418C36.207300000000004,15.85115,36.240700000000004,17.32363,35.3624,18.223750000000003C34.933099999999996,18.690469999999998,34.3437,18.966839999999998,33.7194,18.99419L33.7194,18.99105Z" fill="#FFFFFF" fill-opacity="1"/></g><g><path d="M38.9438,11.9998C38.4175,11.9838,37.9116,11.7843,37.5075,11.4334C32.9542,6.8303,26.8527,4.25606,20.5014,4.25847C14.1637,4.26162,8.07129,6.80557,3.49245,11.3608C2.68483,12.2122,1.36326,12.2122,0.555637,11.3608C-0.196031,10.5097,-0.196031,9.16181,0.6227,8.38042C6.01851,2.98325,13.0574,0,20.5014,0C27.9454,0,34.9815,2.98325,40.3773,8.3078C41.196,9.0921,41.196,10.4399,40.4444,11.291C40.0707,11.7478,39.5206,12.0077,38.9438,11.9998Z" fill="#FFFFFF" fill-opacity="1"/></g></g></svg>