<svg xmlns="http://www.w3.org/2000/svg" xmlns:xlink="http://www.w3.org/1999/xlink" fill="none" version="1.1" width="127"
     height="126" viewBox="0 0 127 126">
    <g>
        <g>
            <rect x="0" y="0" width="127" height="126" rx="27" fill="#4F6299" fill-opacity="1"/>
        </g>
        <g>
            <path d="M84.3309,54.1175Q85.39410000000001,54.949600000000004,86.01509999999999,56.1484Q86.7097,57.489599999999996,86.7097,59Q86.7097,60.510400000000004,86.01509999999999,61.851600000000005Q85.39410000000001,63.050399999999996,84.3309,63.8825L67.8211,76.8032Q66.1377,78.1207,64,78.1207Q61.862300000000005,78.1207,60.1789,76.8032L43.66915,63.8825Q42.6059,63.050399999999996,41.984934,61.851600000000005Q41.290259,60.510400000000004,41.290259,59Q41.290259,57.489599999999996,41.984934,56.1484Q42.6059,54.949600000000004,43.66915,54.1175L60.1789,41.196802Q61.862300000000005,39.87933,64,39.87933Q66.1377,39.87933,67.8211,41.196802L84.3309,54.1175L84.3309,54.1175ZM81.6191,57.582499999999996L65.1094,44.66182Q64.6206,44.27933,64,44.27933Q63.379400000000004,44.27933,62.8906,44.66182L46.3809,57.582499999999996Q45.69026,58.123000000000005,45.69026,59Q45.69026,59.876999999999995,46.3809,60.417500000000004L62.8906,73.3382Q63.379400000000004,73.7207,64,73.7207Q64.6206,73.7207,65.1094,73.3382L81.6191,60.417500000000004Q82.30969999999999,59.876999999999995,82.30969999999999,59Q82.30969999999999,58.123000000000005,81.6191,57.582499999999996Z"
                  fill="#009DFF" fill-opacity="1"/>
        </g>
        <g>
            <path d="M45.86894,69.27779L64.0172,83.7033L82.6506,69.26245L82.6523,69.26109Q82.9416,69.03692,83.2878,68.91846Q83.63409999999999,68.8,84,68.8Q84.10810000000001,68.8,84.2156,68.81059Q84.3232,68.82119,84.42920000000001,68.84227Q84.5352,68.86336,84.6386,68.89473Q84.74199999999999,68.92611,84.84190000000001,68.96747Q84.9418,69.00883,85.03710000000001,69.05977Q85.13239999999999,69.11072,85.22229999999999,69.17077Q85.3121,69.23081,85.3957,69.29938Q85.47919999999999,69.36794,85.5556,69.44437Q85.63210000000001,69.52079,85.70060000000001,69.60433Q85.7692,69.68788,85.8292,69.77775Q85.88929999999999,69.86761,85.9402,69.96293Q85.99119999999999,70.058244,86.0325,70.158097Q86.07390000000001,70.257948,86.1053,70.361374Q86.1366,70.464799,86.1577,70.570801Q86.1788,70.676804,86.1894,70.784362Q86.2,70.891921,86.2,71Q86.2,71.251749,86.1431,71.496991Q86.0863,71.742232,85.9755,71.968286Q85.8647,72.19434,85.7056,72.38952Q85.5466,72.5847,85.3477,72.73891L85.3459,72.74028L66.58840000000001,87.2773Q65.4412,88.1664,63.9898,88.1575Q62.538399999999996,88.1486,61.4022,87.2454L43.13106,72.72221Q42.93667,72.56769,42.78161,72.37373Q42.62655,72.17977,42.51863,71.956122Q42.41071,71.732476,42.35535,71.4904Q42.3,71.248324,42.3,71Q42.3,70.891921,42.31059,70.784362Q42.32119,70.676804,42.34227,70.570801Q42.36336,70.464799,42.39473,70.361374Q42.42611,70.257948,42.46747,70.158097Q42.50883,70.058244,42.55977,69.96293Q42.61072,69.86761,42.67077,69.77775Q42.73081,69.68788,42.79938,69.60433Q42.86794,69.52079,42.94437,69.44437Q43.02079,69.36794,43.10433,69.29938Q43.18788,69.23081,43.27775,69.17077Q43.36761,69.11072,43.46293,69.05977Q43.558244,69.00883,43.658097,68.96747Q43.757948,68.92611,43.861374,68.89473Q43.964799,68.86336,44.070801,68.84227Q44.176804,68.82119,44.284362,68.81059Q44.391921,68.8,44.5,68.8Q44.872894,68.8,45.224961,68.92288Q45.57703,69.04576,45.86894,69.27779Z"
                  fill-rule="evenodd" fill="#009DFF" fill-opacity="1"/>
        </g>
        <g>
            <path d="M64.49614,53C64.2096,53,63.94187,53.1815,63.78131,53.484L61.148165,58.456C60.881393,58.95983,60.9844847,59.63942,61.380026,59.98445L61.442584,60.03395C61.570764,60.1247,61.715567,60.1731,61.862996,60.1731L63.63214,60.1731L63.63214,62.89945C63.63214,63.5072,64.01842,64,64.49483,64C64.7805,64,65.04736,63.8201,65.20791,63.5193L67.85025,58.5715C68.1182,58.06897,68.01707999999999,57.38928,67.62276,57.042500000000004L67.55977,56.99245C67.43106,56.89997,67.28541,56.85125,67.13717,56.8511L65.35884,56.8511L65.35884,54.1011C65.35884,53.49225,64.97255,53,64.49614,53Z"
                  fill="#009DFF" fill-opacity="1"/>
        </g>
    </g>
</svg>