<svg xmlns="http://www.w3.org/2000/svg" xmlns:xlink="http://www.w3.org/1999/xlink" fill="none" version="1.1" width="127" height="126" viewBox="0 0 127 126"><g><g><rect x="0" y="0" width="127" height="126" rx="27" fill="#4F6299" fill-opacity="1"/></g><g><path d="M63.4999671875,74.8263140625C63.0994871875,74.8263140625,62.4999971875,75.0000140625,61.9999971875,74.8263140625C60.810047187500004,74.82641406249999,59.9999971875,73.5000140625,59.9999971875,72.0000140625L59.9995971875,63.0000140625L55.9995971875,63.0000140625C55.1251371875,62.8519140625,53.9990231875,63.0000140625,53.4999999875,61.5000140625C53.2496781875,60.6453140625,53.4995995875,59.6191140625,53.9991801875,58.121714062500004L65.6436671875,43.2442570625C66.4080671875,42.5443930625,68.1707671875,42.6957722625,69.0485671875,43.2442240625C69.9263671875,43.7926740625,70.3269671875,44.8323540625,70.04666718749999,45.8350440625L70.0463671875,54.3700140625L77.2973671875,55.672214062500004C78.15846718750001,55.816914062500004,78.8528671875,56.4293140625,79.1098671875,57.2738140625C79.36686718749999,58.1184140625,79.1336671875,59.0167140625,78.49956718749999,59.6224140625L64.9360671875,74.1837140625C64.4954671875,74.6076140625,63.9999671875,74.8263140625,63.4999671875,74.8263140625ZM59.4995971875,59.0000140625L62.1900271875,59.0000140625C62.9995971875,59.0000140625,63.9995671875,59.851314062499995,63.9995671875,60.5000140625C64.3466671875,61.045114062500005,64.2416671875,63.0000140625,64.2416671875,63.6062140625L64.2417671875,68.0000140625L71.9999671875,58.5431140625L68.0542671875,58.5431140625C67.4134671875,58.4354140625,66.8466671875,58.0552140625,66.4995671875,57.5000140625C66.4780671875,57.0000140625,66.4780671875,55.8478140625,66.4780671875,55.2179140625L66.4780671875,50.0000040625L59.4995971875,59.0000140625Z" fill="#FFFFFF" fill-opacity="1"/></g><g><path d="M54.5616,70.01384220703125Q54.7363,69.96747220703125,54.900999999999996,69.89322220703124Q55.065799999999996,69.81897220703125,55.2162,69.71883220703126Q55.3666,69.61869220703124,55.4987,69.49535220703125Q55.6307,69.37201220703125,55.740899999999996,69.22877220703126Q55.8511,69.08554220703125,55.9364,68.92624220703125Q56.021699999999996,68.76694820703125,56.0799,68.59586620703125Q56.1381,68.42478420703125,56.1676,68.24650120703124Q56.1971,68.06821720703125,56.1971,67.88751220703125Q56.1971,67.77943320703125,56.1865,67.67187420703125Q56.1759,67.56431620703125,56.1548,67.45831320703125Q56.1337,67.35231120703125,56.1023,67.24888620703125Q56.071,67.14546020703125,56.0296,67.04560920703125Q55.9882,66.94575620703125,55.9373,66.85044220703125Q55.8863,66.75512220703125,55.8263,66.66526220703125Q55.7663,66.57539220703126,55.6977,66.49184220703125Q55.6291,66.40830220703126,55.5527,66.33188220703126Q55.4763,66.25545220703125,55.3927,66.18689220703125Q55.309200000000004,66.11832220703126,55.219300000000004,66.05828220703125Q55.1295,65.99823220703125,55.0341,65.94728220703125Q54.9388,65.89634220703125,54.839,65.85498220703126Q54.7391,65.81362220703124,54.6357,65.78224220703125Q54.5323,65.75087220703125,54.42627,65.72978220703125Q54.32027,65.70870220703125,54.21271,65.69810220703125Q54.10515,65.68751220703125,53.99707,65.68751220703125Q53.70999,65.68751220703125,53.43251,65.76118220703125Q48.661,67.02805520703124,45.80303,69.12308220703125Q42.3,71.69096220703125,42.3,75.00000220703124Q42.3,77.67016220703125,44.5527517,79.82151220703125Q46.38861,81.57471220703125,49.61118,82.81381220703125Q55.8168,85.20001220703125,65,85.20001220703125Q74.2225,85.20001220703125,80.6161,82.82241220703125Q83.9342,81.58851220703124,85.8329,79.85531220703125Q88.2,77.69450220703125,88.2,75.00000220703124Q88.2,71.69096220703125,84.697,69.12308220703125Q81.839,67.02805520703124,77.0675,65.76118220703125Q76.78999999999999,65.68751220703125,76.5029,65.68751220703125Q76.3949,65.68751220703125,76.2873,65.69810220703125Q76.1797,65.70870220703125,76.0737,65.72978220703125Q75.96770000000001,65.75087220703125,75.8643,65.78224220703125Q75.76089999999999,65.81362220703124,75.661,65.85498220703126Q75.5612,65.89634220703125,75.4659,65.94728220703125Q75.37049999999999,65.99823220703125,75.2807,66.05828220703125Q75.1908,66.11832220703126,75.1073,66.18689220703125Q75.0237,66.25545220703125,74.9473,66.33188220703126Q74.8709,66.40830220703126,74.8023,66.49184220703125Q74.7337,66.57539220703126,74.6737,66.66526220703125Q74.6136,66.75512220703125,74.5627,66.85044220703125Q74.5118,66.94575620703125,74.4704,67.04560920703125Q74.429,67.14546020703125,74.3977,67.24888620703125Q74.3663,67.35231120703125,74.3452,67.45831320703125Q74.3241,67.56431620703125,74.3135,67.67187420703125Q74.3029,67.77943320703125,74.3029,67.88751220703125Q74.3029,68.06821720703125,74.3324,68.24650120703124Q74.36189999999999,68.42478420703125,74.4201,68.59586620703125Q74.4783,68.76694820703125,74.56360000000001,68.92624220703125Q74.6489,69.08554220703125,74.7591,69.22877220703126Q74.8692,69.37201220703125,75.0013,69.49535220703125Q75.1334,69.61869220703124,75.2838,69.71883220703126Q75.4342,69.81897220703125,75.599,69.89322220703124Q75.7637,69.96747220703125,75.9384,70.01384220703125Q79.90729999999999,71.06763220703125,82.09559999999999,72.67174220703124Q83.8,73.92113220703125,83.8,75.00000220703124Q83.8,75.75348220703125,82.8665,76.60564220703125Q81.5993,77.76244220703126,79.0824,78.69841220703125Q73.43090000000001,80.80001220703124,65,80.80001220703124Q56.6336,80.80001220703124,51.19034,78.70701220703126Q48.79019,77.78408220703125,47.59157,76.63942220703125Q46.7,75.78799220703125,46.7,75.00000220703124Q46.7,73.92113220703125,48.40437,72.67174220703124Q50.59265,71.06763220703125,54.5616,70.01384220703125Z" fill-rule="evenodd" fill="#FFFFFF" fill-opacity="1"/></g></g></svg>