<svg xmlns="http://www.w3.org/2000/svg" xmlns:xlink="http://www.w3.org/1999/xlink" fill="none" version="1.1" width="31.0224609375" height="27.462890625" viewBox="0 0 31.0224609375 27.462890625"><g><g><path d="M7.67725,5.07129L7.67725,2Q7.67725,1.90175,7.68688,1.80397Q7.69651,1.70619,7.71567,1.60982Q7.73484,1.51345,7.76336,1.41943Q7.79189,1.32541,7.82949,1.23463Q7.86709,1.14386,7.9134,1.05721Q7.95972,0.970554,8.01431,0.888859Q8.06889,0.807164,8.13123,0.731213Q8.19356,0.655262,8.26303,0.585786Q8.33251,0.516311,8.40846,0.453979Q8.48441,0.391648,8.5661,0.337061Q8.6478,0.282474,8.73445,0.236157Q8.8211,0.189841,8.91188,0.152241Q9.00265,0.114641,9.09668,0.0861193Q9.1907,0.0575978,9.28707,0.0384294Q9.38343,0.0192611,9.48121,0.00963055Q9.57899,0,9.67725,0L21.3447,0Q21.443,0,21.5408,0.00963055Q21.6385,0.0192611,21.7349,0.0384294Q21.8313,0.0575978,21.9253,0.0861193Q22.0193,0.114641,22.1101,0.152241Q22.2009,0.189841,22.2875,0.236157Q22.3742,0.282474,22.4559,0.337061Q22.5376,0.391648,22.6135,0.453979Q22.6895,0.516311,22.7589,0.585786Q22.8284,0.655262,22.8907,0.731213Q22.9531,0.807164,23.0077,0.888859Q23.0623,0.970554,23.1086,1.05721Q23.1549,1.14386,23.1925,1.23463Q23.2301,1.32541,23.2586,1.41943Q23.2871,1.51345,23.3063,1.60982Q23.3255,1.70619,23.3351,1.80397Q23.3447,1.90175,23.3447,2L23.3447,5.07129Q23.3447,5.33087,23.2785,5.58186Q23.2122,5.83284,23.084,6.05859L27.0225,6.05859Q27.219,6.05859,27.4145,6.07786Q27.6101,6.09712,27.8028,6.13545Q27.9956,6.17379,28.1836,6.23083Q28.3716,6.28787,28.5532,6.36307Q28.7347,6.43828,28.908,6.53091Q29.0813,6.62354,29.2447,6.73272Q29.4081,6.84189,29.56,6.96655Q29.7119,7.09122,29.8509,7.23017Q29.9898,7.36912,30.1145,7.52102Q30.2392,7.67292,30.3483,7.83631Q30.4575,7.9997,30.5501,8.17301Q30.6428,8.34631,30.718,8.52786Q30.7932,8.70941,30.8502,8.89745Q30.9073,9.0855,30.9456,9.27823Q30.9839,9.47096,31.0032,9.66653Q31.0225,9.86209,31.0225,10.0586L31.0225,23.4629Q31.0225,23.6594,31.0032,23.855Q30.9839,24.0505,30.9456,24.2433Q30.9073,24.436,30.8502,24.624Q30.7932,24.8121,30.718,24.9936Q30.6428,25.1752,30.5501,25.3485Q30.4575,25.5218,30.3483,25.6852Q30.2392,25.8486,30.1145,26.0005Q29.9898,26.1524,29.8509,26.2913Q29.7119,26.4303,29.56,26.5549Q29.4081,26.6796,29.2447,26.7888Q29.0813,26.8979,28.908,26.9906Q28.7347,27.0832,28.5532,27.1584Q28.3716,27.2336,28.1836,27.2907Q27.9956,27.3477,27.8028,27.386Q27.6101,27.4244,27.4145,27.4436Q27.219,27.4629,27.0225,27.4629L4,27.4629Q3.80349,27.4629,3.60793,27.4436Q3.41237,27.4244,3.21964,27.386Q3.02691,27.3477,2.83886,27.2907Q2.65082,27.2336,2.46927,27.1584Q2.28772,27.0832,2.11441,26.9906Q1.94111,26.8979,1.77772,26.7888Q1.61433,26.6796,1.46243,26.5549Q1.31052,26.4303,1.17157,26.2913Q1.03262,26.1524,0.907958,26.0005Q0.783295,25.8486,0.674121,25.6852Q0.564948,25.5218,0.472315,25.3485Q0.379682,25.1752,0.304482,24.9936Q0.229282,24.8121,0.172239,24.624Q0.115196,24.436,0.0768589,24.2433Q0.0385222,24.0505,0.0192611,23.855Q0,23.6594,0,23.4629L0,10.0586Q0,9.86209,0.0192611,9.66653Q0.0385222,9.47096,0.0768589,9.27823Q0.115196,9.0855,0.172239,8.89746Q0.229282,8.70941,0.304482,8.52786Q0.379682,8.34631,0.472315,8.17301Q0.564948,7.9997,0.674121,7.83631Q0.783295,7.67292,0.907958,7.52102Q1.03262,7.36912,1.17157,7.23017Q1.31052,7.09122,1.46243,6.96655Q1.61433,6.84189,1.77772,6.73272Q1.94111,6.62354,2.11441,6.53091Q2.28772,6.43828,2.46927,6.36307Q2.65082,6.28787,2.83886,6.23083Q3.02691,6.17379,3.21964,6.13545Q3.41237,6.09712,3.60793,6.07786Q3.80349,6.05859,4,6.05859L7.93793,6.05859Q7.80978,5.83284,7.74351,5.58186Q7.67725,5.33087,7.67725,5.07129ZM9.27725,5.07129Q9.27725,5.47129,9.67725,5.47129L21.3447,5.47129Q21.7447,5.47129,21.7447,5.07129L21.7447,2Q21.7447,1.6,21.3447,1.6L9.67725,1.6Q9.27725,1.6,9.27725,2L9.27725,5.07129ZM3.6,11.835L3.6,10.0586Q3.6,9.65859,4,9.65859L27.0225,9.65859Q27.1881,9.65859,27.3053,9.77575Q27.4225,9.89291,27.4225,10.0586L27.4225,11.835L3.6,11.835ZM15.5114,17.0477Q15.2956,17.0477,15.0806,17.0294Q14.8656,17.0112,14.6531,16.9749Q14.4405,16.9385,14.232,16.8843Q14.0234,16.8302,13.8204,16.7585Q13.6175,16.6869,13.4216,16.5984Q13.2258,16.51,13.0385,16.4052Q12.8512,16.3005,12.6738,16.1804Q12.4965,16.0602,12.3305,15.9255Q12.1645,15.7908,12.011,15.6426Q11.8576,15.4943,11.7178,15.3337Q11.578,15.1731,11.453,15.0012Q11.328,14.8293,11.2187,14.6476Q11.1093,14.4658,11.0165,14.2754Q10.9237,14.0851,10.848,13.8876Q10.7724,13.6901,10.7145,13.487Q10.6567,13.2839,10.617,13.0766L3.6,13.0766L3.6,23.4629Q3.6,23.8629,4,23.8629L27.0225,23.8629Q27.4225,23.8629,27.4225,23.4629L27.4225,13.0766L20.4057,13.0766Q20.366,13.2839,20.3082,13.487Q20.2503,13.6901,20.1747,13.8876Q20.0991,14.0851,20.0062,14.2754Q19.9134,14.4658,19.8041,14.6476Q19.6947,14.8293,19.5697,15.0012Q19.4447,15.1731,19.3049,15.3337Q19.1652,15.4943,19.0117,15.6426Q18.8582,15.7908,18.6922,15.9255Q18.5262,16.0602,18.3489,16.1804Q18.1716,16.3005,17.9843,16.4052Q17.797,16.51,17.6011,16.5984Q17.4052,16.6869,17.2023,16.7585Q16.9993,16.8302,16.7908,16.8843Q16.5822,16.9385,16.3697,16.9749Q16.1571,17.0112,15.9421,17.0294Q15.7272,17.0477,15.5114,17.0477Z" fill-rule="evenodd" fill="#FDFDFE" fill-opacity="1"/></g></g></svg>