<svg xmlns="http://www.w3.org/2000/svg" xmlns:xlink="http://www.w3.org/1999/xlink" fill="none" version="1.1" width="31.19287109375" height="30.3408203125" viewBox="0 0 31.19287109375 30.3408203125"><g><g><path d="M6,30.3408C2.68629,30.3408,0,27.6545,0,24.3408L0,11.5469C0,9.38409,1.16401,7.38867,3.04667,6.32408L12.8567,0.77681C14.7166,-0.27487,16.9954,-0.258177,18.8396,0.820636L28.2224,6.30925C30.0621,7.38544,31.1929,9.35685,31.1929,11.4882L31.1929,24.3408C31.1929,27.6545,28.5066,30.3408,25.1929,30.3408L6,30.3408ZM4.44437,25.8965Q3.8,25.2521,3.8,24.3408L3.8,11.5469Q3.8,10.2636,4.91711,9.63187L14.7272,4.08459Q15.8287,3.46174,16.9209,4.10066L26.3037,9.58928Q27.3929,10.2264,27.3929,11.4882L27.3929,24.3408Q27.3929,25.2521,26.7485,25.8965Q26.1041,26.5408,25.1929,26.5408L21.6597,26.5408L21.6597,20.1665Q21.6597,20.0177,21.6524,19.869Q21.6451,19.7203,21.6305,19.5722Q21.6159,19.4241,21.594,19.2769Q21.5722,19.1296,21.5432,18.9837Q21.5141,18.8377,21.478,18.6933Q21.4418,18.5489,21.3986,18.4065Q21.3554,18.2641,21.3052,18.1239Q21.2551,17.9838,21.1981,17.8463Q21.1412,17.7088,21.0776,17.5742Q21.0139,17.4397,20.9438,17.3084Q20.8736,17.1772,20.7971,17.0495Q20.7206,16.9218,20.6379,16.7981Q20.5552,16.6743,20.4665,16.5548Q20.3779,16.4352,20.2834,16.3202Q20.189,16.2051,20.0891,16.0948Q19.9891,15.9846,19.8839,15.8793Q19.7786,15.7741,19.6683,15.6741Q19.5581,15.5742,19.443,15.4797Q19.3279,15.3853,19.2084,15.2967Q19.0888,15.208,18.9651,15.1253Q18.8413,15.0426,18.7137,14.9661Q18.586,14.8896,18.4548,14.8194Q18.3235,14.7493,18.1889,14.6856Q18.0544,14.622,17.9169,14.565Q17.7794,14.5081,17.6392,14.4579Q17.4991,14.4078,17.3567,14.3646Q17.2142,14.3214,17.0699,14.2852Q16.9255,14.2491,16.7795,14.22Q16.6335,14.191,16.4863,14.1691Q16.3391,14.1473,16.191,14.1327Q16.0428,14.1181,15.8942,14.1108Q15.7455,14.1035,15.5967,14.1035Q15.4478,14.1035,15.2992,14.1108Q15.1505,14.1181,15.0024,14.1327Q14.8543,14.1473,14.7071,14.1691Q14.5598,14.191,14.4138,14.22Q14.2679,14.2491,14.1235,14.2852Q13.9791,14.3214,13.8367,14.3646Q13.6943,14.4078,13.5541,14.4579Q13.414,14.5081,13.2765,14.565Q13.139,14.622,13.0044,14.6856Q12.8699,14.7493,12.7386,14.8194Q12.6073,14.8896,12.4797,14.9661Q12.352,15.0426,12.2283,15.1253Q12.1045,15.208,11.985,15.2967Q11.8654,15.3853,11.7504,15.4797Q11.6353,15.5742,11.525,15.6741Q11.4147,15.7741,11.3095,15.8793Q11.2043,15.9846,11.1043,16.0948Q11.0043,16.2051,10.9099,16.3202Q10.8155,16.4352,10.7268,16.5548Q10.6382,16.6743,10.5555,16.7981Q10.4728,16.9218,10.3963,17.0495Q10.3198,17.1772,10.2496,17.3084Q10.1794,17.4397,10.1158,17.5742Q10.0522,17.7088,9.99521,17.8463Q9.93825,17.9838,9.88811,18.1239Q9.83797,18.2641,9.79476,18.4065Q9.75155,18.5489,9.71539,18.6933Q9.67922,18.8377,9.65019,18.9837Q9.62115,19.1296,9.59931,19.2769Q9.57747,19.4241,9.56289,19.5722Q9.5483,19.7203,9.54099,19.869Q9.53369,20.0177,9.53369,20.1665L9.53369,26.5408L6,26.5408Q5.08873,26.5408,4.44437,25.8965ZM12.7337,26.5408L18.4597,26.5408L18.4597,20.1665Q18.4597,18.9806,17.6211,18.1421Q16.7826,17.3035,15.5967,17.3035Q14.4108,17.3035,13.5722,18.1421Q12.7337,18.9806,12.7337,20.1665L12.7337,26.5408Z" fill-rule="evenodd" fill="#FDFDFE" fill-opacity="1"/></g></g></svg>