<svg xmlns="http://www.w3.org/2000/svg" xmlns:xlink="http://www.w3.org/1999/xlink" fill="none" version="1.1" width="277" height="281" viewBox="0 0 277 281"><defs><filter id="master_svg0_144_691" filterUnits="objectBoundingBox" color-interpolation-filters="sRGB" x="-8" y="-6" width="136.279296875" height="139.4462890625"><feFlood flood-opacity="0" result="BackgroundImageFix"/><feColorMatrix in="SourceAlpha" type="matrix" values="0 0 0 0 0 0 0 0 0 0 0 0 0 0 0 0 0 0 127 0"/><feOffset dy="4" dx="2"/><feGaussianBlur stdDeviation="2.5"/><feColorMatrix type="matrix" values="0 0 0 0 0.0941176488995552 0 0 0 0 0.24705882370471954 0 0 0 0 0.5529412031173706 0 0 0 1 0"/><feBlend mode="normal" in2="BackgroundImageFix" result="effect1_dropShadow"/><feBlend mode="normal" in="SourceGraphic" in2="effect1_dropShadow" result="shape"/></filter><linearGradient x1="1" y1="0" x2="0.1842697560787201" y2="0.7814652323722839" id="master_svg1_144_05532"><stop offset="0%" stop-color="#85CFFA" stop-opacity="1"/><stop offset="100%" stop-color="#3C88EE" stop-opacity="1"/></linearGradient></defs><g><g><ellipse cx="138.5" cy="139.5" rx="79.5" ry="79.5" fill="#2B54A0" fill-opacity="1"/></g><g transform="matrix(0.7071067690849304,0.7071067690849304,-0.7071067690849304,0.7071067690849304,74.72093558199958,-69.10560990839986)" filter="url(#master_svg0_144_691)"><path d="M223.5163203125,61.25353106445313L135.6096203125,97.67434106445313C133.0067203125,98.75274106445312,131.5999203125,99.35054106445313,130.99452031250001,99.89344106445313C128.7803303125,101.87904106445313,128.8387203125,105.50024106445312,131.1158203125,107.41344106445312C131.7383203125,107.93644106445313,133.1637203125,108.48864106445313,135.8000203125,109.48254106445313L167.6633203125,121.49554106445312C168.2002203125,121.69794106445312,168.4731203125,121.80114106445312,168.7190203125,121.92664106445312C169.60832031249998,122.38034106445312,170.3418203125,123.09054106445312,170.82412031249999,123.96464106445312C170.9575203125,124.20634106445313,171.0695203125,124.47584106445312,171.2892203125,125.00594106445313L185.9007203125,160.25834106445313C186.9795203125,162.86134106445314,187.57752031249998,164.26834106445312,188.1205203125,164.87334106445314C190.10652031249998,167.08734106445314,193.7277203125,167.02834106445312,195.6405203125,164.75134106445313C196.1635203125,164.12834106445314,196.7154203125,162.70334106445313,197.7089203125,160.06634106445313L231.8893203125,69.35904106445312C232.8073203125,66.92174106445313,233.29432031250002,65.59556106445312,233.3193203125,64.80512106445312C233.4103203125,61.91471106445312,230.90732031250002,59.491751064453126,228.0213203125,59.676941064453125C227.2323203125,59.727581064453126,225.92332031249998,60.256591064453126,223.5163203125,61.25353106445313" fill="url(#master_svg1_144_05532)" fill-opacity="1"/></g><g><path d="" fill="#7390C3" fill-opacity="1"/><path d="M89.617109375,19.54070773925781Q89.620309375,19.53931773925781,89.623409375,19.537927739257814Q89.887509375,19.420857739257812,90.132109375,19.26705773925781Q90.376609375,19.11325773925781,90.596509375,18.925907739257813Q90.816409375,18.738557739257814,91.007109375,18.521557739257812Q91.197909375,18.304547739257814,91.355409375,18.06239773925781Q91.512909375,17.820237739257813,91.634109375,17.557957739257812Q91.755209375,17.295677739257812,91.837309375,17.018717739257813Q91.919509375,16.741756739257813,91.961009375,16.455861739257813Q92.002509375,16.169967739257814,92.002509375,15.881075227957812Q92.002509375,15.800515839257812,91.999309375,15.720038739257813Q91.968609375,14.957683739257812,91.659409375,14.260157739257812Q91.499709375,13.899987739257812,91.272909375,13.577887739257813Q91.046109375,13.255777739257812,90.760709375,12.984117739257812Q90.475409375,12.712457739257813,90.142609375,12.501687739257813Q89.809709375,12.290907739257813,89.442209375,12.149117739257813Q88.747309375,11.881057739257812,88.002509375,11.881057739257812Q87.953509375,11.881057739257812,87.904409375,11.882257739257813Q87.109009375,11.901767739257812,86.381609375,12.224187739257813L86.380809375,12.224577739257812Q86.377909375,12.225837739257813,86.375009375,12.227107739257812Q32.659809374999995,36.03945773925781,7.081319375,98.99305773925781Q6.787119375,99.71715773925781,6.787119375,100.49865773925781L6.787139375000001,100.51255773925782Q6.787649375,100.66025773925782,6.799059375000001,100.80755773925782Q6.810469375,100.95485773925782,6.832709375,101.10095773925781Q6.854949375,101.24695773925781,6.887909375,101.39095773925781Q6.9208693750000005,101.53505773925781,6.964359375,101.6762577392578Q7.007859375,101.81745773925782,7.061649375,101.95505773925781Q7.115439374999999,102.09265773925782,7.179229375,102.22585773925782Q7.243029375,102.35915773925781,7.316479375,102.48735773925782Q7.3899293749999995,102.61555773925781,7.472639375,102.73795773925781Q7.5553493750000005,102.86035773925781,7.646869375,102.97635773925781Q7.738379375,103.0923577392578,7.838199375,103.20125773925781Q7.938019375,103.31015773925782,8.045609375,103.41145773925781Q8.153189375,103.51275773925781,8.267959375,103.60575773925781Q8.382719375,103.69885773925782,8.504029375,103.78315773925782Q8.625339375,103.86745773925782,8.752549375000001,103.94265773925781Q8.879749375,104.01775773925782,9.012149375,104.0833577392578Q9.144549375,104.1488577392578,9.281429375,104.20445773925782Q10.005531375,104.49865773925781,10.78711843491,104.49865773925781Q10.800640975,104.49865773925781,10.814189675,104.49865773925781Q11.609820375,104.49325773925781,12.342829375,104.18375773925781Q12.705769375,104.03055773925782,13.031849375,103.80945773925781Q13.357939375,103.58835773925782,13.634619375,103.30795773925782Q13.911299375,103.02745773925781,14.127949375,102.69845773925782Q14.344609375000001,102.36935773925781,14.492899375,102.00435773925781Q14.496149375,101.99635773925782,14.499399375,101.98835773925781Q38.862009375,42.04085773925782,89.617109375,19.54070773925781ZM233.706109375,51.17195773925781Q252.705109375,71.78825773925782,262.40110937500003,101.71055773925781Q262.523109375,102.08535773925782,262.715109375,102.4292577392578Q262.907109375,102.77315773925781,263.163109375,103.07295773925782Q263.418109375,103.37265773925782,263.72810937500003,103.61685773925781Q264.037109375,103.86095773925781,264.388109375,104.04015773925781Q264.810109375,104.25575773925782,265.27110937500004,104.36665773925782Q265.732109375,104.47755773925782,266.206109375,104.47755773925782Q266.246109375,104.47755773925782,266.287109375,104.4767577392578Q266.877109375,104.46485773925781,267.439109375,104.28275773925782Q267.589109375,104.23425773925781,267.734109375,104.17415773925781Q267.880109375,104.1141577392578,268.020109375,104.04285773925781Q268.160109375,103.97155773925782,268.294109375,103.88945773925781Q268.428109375,103.80735773925781,268.556109375,103.71505773925782Q268.683109375,103.62265773925782,268.803109375,103.52055773925781Q268.922109375,103.4185577392578,269.033109375,103.30745773925781Q269.145109375,103.19625773925782,269.247109375,103.07675773925781Q269.349109375,102.95715773925781,269.442109375,102.83005773925781Q269.534109375,102.70285773925781,269.616109375,102.56875773925782Q269.698109375,102.43475773925782,269.770109375,102.29465773925781Q269.841109375,102.15455773925781,269.902109375,102.00925773925782Q269.962109375,101.86395773925781,270.010109375,101.71445773925781Q270.059109375,101.5649577392578,270.096109375,101.41205773925782Q270.132109375,101.25915773925782,270.157109375,101.10375773925782Q270.182109375,100.94845773925782,270.194109375,100.79175773925782Q270.206109375,100.63495773925781,270.206109375,100.47765773925781Q270.206109375,100.45695773925782,270.206109375,100.43645773925782Q270.200109375,99.82555773925782,270.012109375,99.24445773925781Q249.728109375,36.64755773925781,190.535109375,12.188467739257813Q189.802109375,11.885317739257813,189.008109375,11.885297739257812Q188.837109375,11.885297739257812,188.667109375,11.899857739257813Q188.394109375,11.923197739257812,188.127109375,11.983507739257814Q187.860109375,12.043807739257812,187.603109375,12.139957739257813Q187.347109375,12.236097739257811,187.106109375,12.366277739257812Q186.865109375,12.496467739257813,186.644109375,12.658267739257813Q186.423109375,12.820067739257812,186.227109375,13.010457739257813Q186.030109375,13.200847739257812,185.861109375,13.416287739257813Q185.692109375,13.631727739257812,185.554109375,13.868187739257813Q185.416109375,14.104647739257812,185.311109375,14.357717739257813Q185.008109375,15.091419739257812,185.008109375,15.885293959257812L185.008109375,15.888703689257813Q185.009109375,16.68434973925781,185.314109375,17.419167739257812Q185.465109375,17.78301773925781,185.684109375,18.110407739257813Q185.903109375,18.437787739257814,186.182109375,18.716127739257814Q186.461109375,18.994467739257814,186.788109375,19.213067739257813Q187.116109375,19.431657739257812,187.480109375,19.58211773925781L187.481109375,19.58229773925781Q187.488109375,19.585267739257812,187.495109375,19.588237739257814Q215.125109375,31.008657739257814,233.706109375,51.17195773925781ZM64.122709375,255.1660577392578Q77.826609375,263.9960577392578,93.172209375,269.3520577392578Q93.812309375,269.5760577392578,94.490409375,269.5760577392578Q94.504609375,269.5760577392578,94.519009375,269.5760577392578Q94.963209375,269.57205773925784,95.395909375,269.4720577392578Q95.828609375,269.3710577392578,96.228709375,269.17805773925784Q96.583509375,269.0070577392578,96.898109375,268.7700577392578Q97.212709375,268.5330577392578,97.475009375,268.2390577392578Q97.737309375,267.9450577392578,97.937209375,267.6050577392578Q98.137109375,267.2660577392578,98.266909375,266.89405773925785Q98.490409375,266.2540577392578,98.490409375,265.5760577392578Q98.490409375,265.4930577392578,98.487009375,265.4110577392578Q98.480809375,265.2620577392578,98.463609375,265.1140577392578Q98.446309375,264.9650577392578,98.418109375,264.8190577392578Q98.389809375,264.6720577392578,98.350709375,264.5280577392578Q98.311609375,264.3840577392578,98.261909375,264.2430577392578Q98.212209375,264.1030577392578,98.152109375,263.96605773925785Q98.092009375,263.8290577392578,98.021909375,263.69705773925784Q97.951809375,263.5660577392578,97.872009375,263.4390577392578Q97.792309375,263.31305773925783,97.703409375,263.1930577392578Q97.614409375,263.0730577392578,97.516809375,262.9600577392578Q97.419209375,262.8470577392578,97.313409375,262.7420577392578Q97.207709375,262.6370577392578,97.094309375,262.5390577392578Q96.981009375,262.44205773925785,96.860809375,262.3540577392578Q96.740509375,262.2650577392578,96.614009375,262.1860577392578Q96.487409375,262.1070577392578,96.355409375,262.0370577392578Q96.223309375,261.9680577392578,96.086409375,261.9080577392578Q95.949509375,261.8480577392578,95.808509375,261.7990577392578Q81.360509375,256.7560577392578,68.455709375,248.44105773925781Q55.712009375,240.2300577392578,45.180609375,229.28705773925782Q34.637109375,218.3320577392578,26.921809375,205.2720577392578Q19.095939375,192.02605773925782,14.617749374999999,177.3500577392578Q14.615419375,177.34205773925783,14.613099375000001,177.33405773925782Q14.498169375,176.9570577392578,14.311929375,176.61005773925783Q14.125689375,176.26305773925782,13.875299375,175.95905773925782Q13.624909375,175.6550577392578,13.319989375,175.4050577392578Q13.015079375,175.15605773925782,12.667349375,174.97105773925782Q12.233259375,174.73905773925782,11.756091375,174.62005773925782Q11.278927375,174.50105773925782,10.78711231059,174.50105773925782L10.776260475,174.50105773925782Q10.185372375,174.50305773925783,9.620189375,174.67505773925782Q9.467689374999999,174.72205773925782,9.319379375,174.7800577392578Q9.171069375,174.8390577392578,9.027889375,174.9090577392578Q8.884709375,174.97905773925783,8.747559375,175.06005773925781Q8.610409375,175.1420577392578,8.480169375,175.23305773925782Q8.349929375,175.3250577392578,8.227419375,175.4270577392578Q8.104899375,175.5290577392578,7.990899375,175.6410577392578Q7.876899375,175.75205773925782,7.7721293750000005,175.8730577392578Q7.667349375000001,175.9930577392578,7.572479375,176.12105773925782Q7.4775993750000005,176.2490577392578,7.393229375000001,176.3840577392578Q7.308849374999999,176.52005773925782,7.2355093749999995,176.6610577392578Q7.162159375,176.8030577392578,7.100319375,176.9500577392578Q7.038479375,177.09705773925782,6.988519375,177.2480577392578Q6.938569375,177.3990577392578,6.900829375,177.55405773925781Q6.863079375,177.70905773925782,6.837779375,177.8670577392578Q6.812489375,178.0240577392578,6.799799375,178.1830577392578Q6.787109375,178.34205773925783,6.787109375,178.50105773925782Q6.787099375,178.5360577392578,6.787699375,178.5700577392578Q6.797389375,179.1310577392578,6.961089375,179.66805773925782Q11.718420375,195.2660577392578,20.033979375,209.34105773925782Q28.224709375,223.2060577392578,39.416409375,234.83505773925782Q50.594609375,246.4500577392578,64.122709375,255.1660577392578ZM208.544109375,248.44105773925781Q195.639109375,256.7560577392578,181.191109375,261.7990577392578Q181.046109375,261.8500577392578,180.904109375,261.9120577392578Q180.763109375,261.9740577392578,180.626109375,262.0470577392578Q180.490109375,262.1190577392578,180.360109375,262.20205773925784Q180.230109375,262.2850577392578,180.106109375,262.3780577392578Q179.983109375,262.47105773925784,179.867109375,262.5730577392578Q179.751109375,262.6750577392578,179.643109375,262.7860577392578Q179.535109375,262.8970577392578,179.437109375,263.0150577392578Q179.338109375,263.1340577392578,179.248109375,263.26005773925783Q179.159109375,263.3860577392578,179.079109375,263.5180577392578Q179.000109375,263.6510577392578,178.931109375,263.7890577392578Q178.862109375,263.9270577392578,178.804109375,264.0700577392578Q178.746109375,264.2130577392578,178.699109375,264.36005773925785Q178.652109375,264.5070577392578,178.616109375,264.6580577392578Q178.581109375,264.80805773925783,178.557109375,264.96105773925785Q178.533109375,265.1130577392578,178.522109375,265.2670577392578Q178.510109375,265.4210577392578,178.510109375,265.5760577392578Q178.510109375,265.5920577392578,178.510109375,265.6090577392578Q178.515109375,266.2700577392578,178.733109375,266.89405773925785Q178.784109375,267.0400577392578,178.846109375,267.1810577392578Q178.908109375,267.3230577392578,178.981109375,267.4590577392578Q179.053109375,267.5950577392578,179.136109375,267.7250577392578Q179.219109375,267.85605773925784,179.312109375,267.9790577392578Q179.405109375,268.1030577392578,179.507109375,268.2190577392578Q179.609109375,268.3350577392578,179.720109375,268.44205773925785Q179.830109375,268.5500577392578,179.949109375,268.64905773925784Q180.068109375,268.7480577392578,180.194109375,268.83705773925783Q180.320109375,268.9270577392578,180.452109375,269.0060577392578Q180.584109375,269.0850577392578,180.723109375,269.15405773925784Q180.861109375,269.2230577392578,181.004109375,269.2820577392578Q181.147109375,269.3400577392578,181.294109375,269.3870577392578Q181.441109375,269.4340577392578,181.592109375,269.4690577392578Q181.742109375,269.5040577392578,181.895109375,269.5280577392578Q182.047109375,269.5520577392578,182.201109375,269.5640577392578Q182.355109375,269.5760577392578,182.510109375,269.5760577392578Q182.526109375,269.5760577392578,182.543109375,269.5760577392578Q183.204109375,269.5700577392578,183.828109375,269.3520577392578Q199.173109375,263.9960577392578,212.877109375,255.1660577392578Q226.405109375,246.4500577392578,237.584109375,234.83505773925782Q248.775109375,223.2060577392578,256.966109375,209.34205773925783Q265.277109375,195.2730577392578,270.034109375,179.6830577392578Q270.036109375,179.6760577392578,270.039109375,179.66905773925782L270.039109375,179.66805773925782Q270.213109375,179.09805773925783,270.213109375,178.50105773925782Q270.213109375,178.3390577392578,270.200109375,178.1780577392578Q270.188109375,178.0290577392578,270.165109375,177.88205773925782Q270.141109375,177.73405773925782,270.107109375,177.5890577392578Q270.073109375,177.44305773925782,270.029109375,177.3010577392578Q269.984109375,177.1590577392578,269.929109375,177.02005773925782Q269.873109375,176.8810577392578,269.808109375,176.74705773925783Q269.742109375,176.6130577392578,269.667109375,176.48405773925782Q269.592109375,176.3550577392578,269.507109375,176.2320577392578Q269.422109375,176.10905773925782,269.329109375,175.9930577392578Q269.235109375,175.87605773925782,269.133109375,175.7680577392578Q269.031109375,175.6590577392578,268.921109375,175.5570577392578Q268.811109375,175.4560577392578,268.694109375,175.36405773925782Q268.577109375,175.2710577392578,268.453109375,175.1880577392578Q268.330109375,175.10405773925783,268.200109375,175.0300577392578Q268.070109375,174.9560577392578,267.936109375,174.8910577392578Q267.801109375,174.8270577392578,267.662109375,174.7730577392578Q267.523109375,174.7190577392578,267.380109375,174.67505773925782Q266.809109375,174.50105773925782,266.213109375,174.50105773925782Q266.119109375,174.50105773925782,266.025109375,174.5060577392578Q265.581109375,174.5270577392578,265.153109375,174.64405773925782Q264.725109375,174.7620577392578,264.333109375,174.97105773925782Q263.985109375,175.15605773925782,263.68010937500003,175.4050577392578Q263.37510937499997,175.6550577392578,263.12510937499997,175.95905773925782Q262.874109375,176.26305773925782,262.688109375,176.61005773925783Q262.50210937500003,176.9580577392578,262.387109375,177.33405773925782L262.387109375,177.33505773925782Q262.384109375,177.34205773925783,262.382109375,177.3500577392578Q257.90410937499996,192.02605773925782,250.078109375,205.2720577392578Q242.363109375,218.3320577392578,231.819109375,229.28705773925782Q221.288109375,240.2300577392578,208.544109375,248.44105773925781Z" fill-rule="evenodd" fill="#5591F4" fill-opacity="1"/></g><g><rect x="0" y="136" width="21" height="10" rx="5" fill="#5591F4" fill-opacity="1"/></g><g><rect x="256" y="136" width="21" height="10" rx="5" fill="#5591F4" fill-opacity="1"/></g><g transform="matrix(0,1,-1,0,144,-144)"><rect x="144" y="0" width="21" height="10" rx="5" fill="#5591F4" fill-opacity="1"/></g><g transform="matrix(0,1,-1,0,404,116)"><rect x="144" y="260" width="21" height="10" rx="5" fill="#5591F4" fill-opacity="1"/></g></g></svg>