<svg xmlns="http://www.w3.org/2000/svg" xmlns:xlink="http://www.w3.org/1999/xlink" fill="none" version="1.1" width="614" height="127" viewBox="0 0 614 127"><g><g><rect x="0" y="0" width="614" height="127" rx="28" fill="#4F6299" fill-opacity="1"/></g><g transform="matrix(0.0005625915364362299,0.9999538064002991,-0.9999538064002991,0.0005625915364362299,486.98490000596354,-403.154455076942)"><line x1="445.1943359375" y1="40.342968702316284" x2="490.4841423034668" y2="40.342968702316284" fill-opacity="0" stroke-opacity="1" stroke="#FFFFFF" fill="none" stroke-width="3.4000000953674316"/></g><g><g><path d="M527.0623,50.41308Q527.2762,50.10101,527.3881,49.739653Q527.5,49.378294,527.5,49Q527.5,48.877183,527.488,48.754957Q527.4759,48.632731,527.452,48.512274Q527.428,48.391817,527.3924,48.274288Q527.3567,48.15676,527.3097,48.043292Q527.2627,47.92982,527.2048,47.82151Q527.1469,47.71319,527.0787,47.61107Q527.0104,47.50896,526.9325,47.41402Q526.8546,47.31908,526.7678,47.23223Q526.6809,47.14539,526.586,47.06747Q526.491,46.98956,526.3889,46.92133Q526.2868,46.85309,526.1785,46.7952Q526.0702,46.7373,525.9567,46.6903Q525.8432,46.643299999999996,525.7257,46.60765Q525.6082,46.572,525.4877,46.54804Q525.3673,46.52408,525.245,46.51204Q525.1228,46.5,525,46.5Q524.8482,46.5,524.6976,46.51836Q524.5469,46.53672,524.3996,46.57316Q524.2523,46.60961,524.1105,46.6636Q523.9686,46.7176,523.8344,46.78836Q523.7001,46.85912,523.5754,46.9456Q523.4507,47.03208,523.3374,47.133Q523.224,47.23393,523.1237,47.34783Q523.0234,47.46173,522.9377,47.58692L522.9367,47.58834L504.43813,74.5862L504.43767,74.5869Q504.22385,74.899,504.11192,75.2603Q504,75.6217,504,76Q504,76.1228,504.01204,76.245Q504.02408,76.3673,504.04804,76.4877Q504.072,76.6082,504.10765,76.7257Q504.1433,76.8432,504.1903,76.9567Q504.2373,77.0702,504.2952,77.1785Q504.35309,77.2868,504.42133,77.3889Q504.48956,77.491,504.56747,77.586Q504.64539,77.68090000000001,504.73223,77.7678Q504.81908,77.8546,504.91402,77.9325Q505.00896,78.0104,505.11107,78.0787Q505.21319,78.1469,505.32151,78.2048Q505.42982,78.2627,505.543292,78.30969999999999Q505.65676,78.3567,505.774288,78.3924Q505.891817,78.428,506.012274,78.452Q506.132731,78.4759,506.254957,78.488Q506.377183,78.5,506.5,78.5Q506.651761,78.5,506.802408,78.4816Q506.953055,78.4633,507.100376,78.4268Q507.247696,78.3904,507.389526,78.3364Q507.53136,78.2824,507.66561,78.2116Q507.79987,78.1409,507.92458,78.0544Q508.04929,77.9679,508.16263,77.867Q508.27596,77.7661,508.37626,77.6522Q508.47655,77.53829999999999,508.56233,77.4131L508.56279,77.4124L527.0614,50.41449L527.0623,50.41308L527.0623,50.41308Z" fill-rule="evenodd" fill="#FFFEFE" fill-opacity="1"/></g><g transform="matrix(-1,0,0,1,1119,0)"><path d="M580.0623,50.41308Q580.2762,50.10101,580.3881,49.739653Q580.5,49.378294,580.5,49Q580.5,48.877183,580.488,48.754957Q580.4759,48.632731,580.452,48.512274Q580.428,48.391817,580.3924,48.274288Q580.3567,48.15676,580.3097,48.043292Q580.2627,47.92982,580.2048,47.82151Q580.1469,47.71319,580.0787,47.61107Q580.0104,47.50896,579.9325,47.41402Q579.8546,47.31908,579.7678,47.23223Q579.6809,47.14539,579.586,47.06747Q579.491,46.98956,579.3889,46.92133Q579.2868,46.85309,579.1785,46.7952Q579.0702,46.7373,578.9567,46.6903Q578.8432,46.643299999999996,578.7257,46.60765Q578.6082,46.572,578.4877,46.54804Q578.3673,46.52408,578.245,46.51204Q578.1228,46.5,578,46.5Q577.8482,46.5,577.6976,46.51836Q577.5469,46.53672,577.3996,46.57316Q577.2523,46.60961,577.1105,46.6636Q576.9686,46.7176,576.8344,46.78836Q576.7001,46.85912,576.5754,46.9456Q576.4507,47.03208,576.3374,47.133Q576.224,47.23393,576.1237,47.34783Q576.0234,47.46173,575.9377,47.58692L575.9367,47.58834L557.43813,74.5862L557.43767,74.5869Q557.22385,74.899,557.11192,75.2603Q557,75.6217,557,76Q557,76.1228,557.01204,76.245Q557.02408,76.3673,557.04804,76.4877Q557.072,76.6082,557.10765,76.7257Q557.1433,76.8432,557.1903,76.9567Q557.2373,77.0702,557.2952,77.1785Q557.35309,77.2868,557.42133,77.3889Q557.48956,77.491,557.56747,77.586Q557.64539,77.68090000000001,557.73223,77.7678Q557.81908,77.8546,557.91402,77.9325Q558.00896,78.0104,558.11107,78.0787Q558.21319,78.1469,558.32151,78.2048Q558.42982,78.2627,558.543292,78.30969999999999Q558.65676,78.3567,558.774288,78.3924Q558.891817,78.428,559.012274,78.452Q559.132731,78.4759,559.254957,78.488Q559.377183,78.5,559.5,78.5Q559.651761,78.5,559.802408,78.4816Q559.953055,78.4633,560.100376,78.4268Q560.247696,78.3904,560.389526,78.3364Q560.53136,78.2824,560.66561,78.2116Q560.79987,78.1409,560.92458,78.0544Q561.04929,77.9679,561.16263,77.867Q561.27596,77.7661,561.37626,77.6522Q561.47655,77.53829999999999,561.56233,77.4131L561.56279,77.4124L580.0614,50.41449L580.0623,50.41308L580.0623,50.41308Z" fill-rule="evenodd" fill="#FFFEFE" fill-opacity="1"/></g><g><path d="M545.2266,71.1067Q545.2776,71.1593,545.3246,71.2154Q545.3717,71.2715,545.4145,71.3309Q545.4572000000001,71.3903,545.4956,71.4526Q545.5339,71.515,545.5676,71.58Q545.6013,71.645,545.6301,71.7123Q545.6589,71.7796,545.6828,71.8488Q545.7066,71.918,545.7253,71.9888Q545.744,72.0595,545.7575,72.1315Q545.771,72.2034,545.7792,72.2762Q545.7874,72.3489,545.7902,72.4221Q545.7931,72.4952,545.7906,72.5684Q545.7881,72.64150000000001,545.7802,72.7143Q545.7724,72.7871,545.7593,72.8591Q545.7461,72.9311,545.7277,73.002Q545.7094,73.0729,545.6859,73.1422Q545.6623,73.2115,545.6338,73.2789Q545.6052999999999,73.3464,545.572,73.4115Q545.5386,73.4767,545.5006,73.5392Q545.4625,73.6018,545.42,73.6614Q545.3775,73.721,545.3308,73.7773Q545.284,73.8336,545.2333,73.8864Q545.1825,73.9392,545.1281,73.9881Q545.0735999999999,74.037,545.0157,74.0818Q544.9578,74.1266,544.8968,74.167Q544.8358,74.2075,544.772,74.2433Q544.7081000000001,74.2792,544.6419,74.3103Q544.5756,74.3414,544.5073,74.3676Q544.4389,74.3938,544.3688,74.4149Q544.2987,74.4361,544.2273,74.452Q544.1558,74.4679,544.0834,74.4786Q544.011,74.4893,543.938,74.49459999999999Q543.865,74.5,543.7918,74.5L521.20824,74.5Q521.13504,74.5,521.06203,74.49459999999999Q520.98902,74.4893,520.9166,74.4786Q520.84418,74.4679,520.77273,74.452Q520.70128,74.4361,520.63119,74.4149Q520.5611,74.3938,520.49274,74.3676Q520.42438,74.3414,520.35812,74.3103Q520.29186,74.2792,520.22805,74.2433Q520.16424,74.2075,520.10322,74.167Q520.04221,74.1266,519.98431,74.0818Q519.92642,74.037,519.87195,73.9881Q519.81748,73.9392,519.76674,73.8864Q519.716,73.8336,519.66924,73.7773Q519.62249,73.721,519.57998,73.6614Q519.53748,73.6018,519.49944,73.5392Q519.4614,73.4767,519.42804,73.4115Q519.39467,73.3464,519.36616,73.2789Q519.33765,73.2115,519.31415,73.1422Q519.29064,73.0729,519.27227,73.002Q519.25389,72.9311,519.24075,72.8591Q519.2276,72.7871,519.21976,72.7143Q519.21191,72.64150000000001,519.20941,72.5684Q519.20691,72.4952,519.20976,72.4221Q519.21261,72.3489,519.2208,72.2762Q519.229,72.2034,519.24248,72.1315Q519.25597,72.0595,519.27468,71.9888Q519.2934,71.918,519.31723,71.8488Q519.34107,71.7796,519.3699,71.7123Q519.39873,71.645,519.43241,71.58Q519.46608,71.515,519.50442,71.4526Q519.54275,71.3903,519.58555,71.3309Q519.62834,71.2715,519.67536,71.2154Q519.72238,71.1593,519.77337,71.1067L531.0651,59.47772Q531.1349,59.40591,531.2114,59.34142Q531.288,59.27693,531.3706,59.2204Q531.4532,59.16387,531.541,59.11588Q531.6289,59.06788,531.7211,59.0289Q531.8133,58.989914,531.9089,58.96033Q532.0045,58.930745,532.1026,58.910856Q532.2007,58.890967,532.3003,58.880972Q532.3999,58.870978,532.5,58.870978Q532.6001,58.870978,532.6997,58.880972Q532.7993,58.890967,532.8974,58.910856Q532.9955,58.930745,533.0911,58.960329Q533.1867,58.989914,533.2789,59.0289Q533.3711,59.06788,533.459,59.11588Q533.5468,59.16387,533.6294,59.2204Q533.712,59.27693,533.7886,59.34142Q533.8651,59.40591,533.9349,59.47772L545.2266,71.1067Z" fill="#FFFEFE" fill-opacity="1"/></g></g><g><g><path d="M64.09652,50.84809818359375Q64.29923,50.67209818359375,64.45994999999999,50.45705818359375Q64.62066,50.24202818359375,64.73206,49.99777818359375Q64.84346,49.75351918359375,64.90046,49.49118218359375Q64.95746,49.22884518359375,64.95746,48.96038818359375Q64.95746,48.83757118359375,64.94542,48.71534518359375Q64.93338,48.59311918359375,64.90942,48.47266218359375Q64.88546,48.35220518359375,64.84981,48.23467618359375Q64.81415,48.11714818359375,64.76715,48.00368018359375Q64.72015,47.89020818359375,64.66226,47.78189818359375Q64.60436,47.67357818359375,64.53613,47.57145818359375Q64.46789,47.46934818359375,64.38998,47.37440818359375Q64.31207,47.27946818359375,64.22522000000001,47.19261818359375Q64.13838,47.10577818359375,64.04344,47.02785818359375Q63.948499999999996,46.94994818359375,63.846379999999996,46.88171818359375Q63.74426,46.81347818359375,63.63595,46.75558818359375Q63.52763,46.69768818359375,63.41416,46.65068818359375Q63.3007,46.603688183593746,63.183170000000004,46.56803818359375Q63.06564,46.53238818359375,62.94518,46.50842818359375Q62.82472,46.48446818359375,62.7025,46.47242818359375Q62.58027,46.46038818359375,62.45746,46.46038818359375Q62.23342,46.46038818359375,62.012950000000004,46.50021818359375Q61.79248,46.54005818359375,61.58261,46.61845818359375Q61.37273,46.69685818359375,61.18014,46.81132818359375Q60.98755,46.92578818359375,60.81839,47.07267818359375Q56.92277,50.45517818359375,54.749439,55.12633818359375Q52.5,59.96108818359375,52.5,65.33578818359375Q52.5,70.23958818359375,54.385055,74.72218818359374Q56.2056,79.05138818359376,59.52434,82.38938818359375Q62.84456,85.72878818359375,67.1526,87.56148818359375Q71.61619999999999,89.46038818359375,76.5,89.46038818359375Q81.38380000000001,89.46038818359375,85.8474,87.56148818359375Q90.1554,85.72878818359375,93.4757,82.38938818359375Q96.7944,79.05138818359376,98.6149,74.72218818359374Q100.5,70.23958818359375,100.5,65.33578818359375Q100.5,59.96108818359375,98.25059999999999,55.12633818359375Q96.0783,50.45750818359375,92.18549999999999,47.07603818359375Q92.184,47.07471818359375,92.1824,47.07338818359375L92.1816,47.07267818359375Q92.0124,46.92579818359375,91.81989999999999,46.81132818359375Q91.62729999999999,46.69685818359375,91.4174,46.61845818359375Q91.20750000000001,46.54005818359375,90.987,46.50022818359375Q90.7666,46.46038818359375,90.54249999999999,46.46038818359375Q90.4197,46.46038818359375,90.2975,46.47242818359375Q90.1753,46.48446818359375,90.0548,46.50842818359375Q89.9344,46.53238818359375,89.8168,46.56803818359375Q89.6993,46.60369818359375,89.5858,46.65069818359375Q89.4724,46.69769818359375,89.364,46.75558818359375Q89.25569999999999,46.81348818359375,89.1536,46.88171818359375Q89.0515,46.94994818359375,88.95660000000001,47.02786818359375Q88.86160000000001,47.10577818359375,88.7748,47.19262818359375Q88.6879,47.27946818359375,88.61,47.37440818359375Q88.5321,47.46934818359375,88.4639,47.57146818359375Q88.3956,47.67358818359375,88.3377,47.78189818359375Q88.2798,47.89021818359375,88.2328,48.00368318359375Q88.1858,48.11715218359375,88.1502,48.23468018359375Q88.11449999999999,48.35220918359375,88.0906,48.47266618359375Q88.0666,48.59312318359375,88.0546,48.71534918359375Q88.04249999999999,48.83757518359375,88.04249999999999,48.96039199829375Q88.04249999999999,49.22885518359375,88.0995,49.49119818359375Q88.1565,49.75354018359375,88.2679,49.99779818359375Q88.3793,50.24205818359375,88.5401,50.45708818359375Q88.7008,50.67212818359375,88.90350000000001,50.84813818359375L88.9049,50.84937818359375Q91.9942,53.53224818359375,93.71719999999999,57.23554818359375Q95.5,61.067288183593746,95.5,65.33578818359375Q95.5,69.23098818359375,94.0059,72.78398818359375Q92.5626,76.21618818359374,89.9299,78.86408818359375Q87.2988,81.51038818359375,83.8901,82.96048818359375Q80.36449999999999,84.46038818359375,76.5,84.46038818359375Q72.63550000000001,84.46038818359375,69.1099,82.96048818359375Q65.7012,81.51038818359375,63.07007,78.86398818359375Q60.43743,76.21608818359375,58.9941,72.78398818359375Q57.5,69.23098818359375,57.5,65.33578818359375Q57.5,61.067288183593746,59.28278,57.23554818359375Q61.00581,53.53224818359375,64.09506,50.84937818359375L64.09653,50.84809818359375L64.09652,50.84809818359375Z" fill-rule="evenodd" fill="#FFFFFF" fill-opacity="1"/></g><g><path d="M83.7408171875,48.67477Q83.7635171875,48.70196,83.7842171875,48.7307Q83.8049171875,48.75943,83.8235171875,48.78956Q83.8422171875,48.81969,83.8586171875,48.851060000000004Q83.8751171875,48.88244,83.8893171875,48.9149Q83.9035171875,48.94735,83.9153171875,48.98074Q83.92721718749999,49.01412,83.9367171875,49.048249999999996Q83.9461171875,49.082390000000004,83.9532171875,49.11711Q83.9602171875,49.15184,83.9648171875,49.18697Q83.9693171875,49.2221,83.9714171875,49.25747Q83.9734171875,49.29283,83.9730171875,49.32825Q83.9725171875,49.36368,83.9696171875,49.39898Q83.96661718749999,49.43428,83.9612171875,49.46929Q83.9557171875,49.5043,83.9478171875,49.538830000000004Q83.9399171875,49.57336,83.9296171875,49.60725Q83.9192171875,49.641130000000004,83.9065171875,49.6742Q83.8938171875,49.70727,83.8788171875,49.73936Q83.8638171875,49.77145,83.8466171875,49.80239Q83.8293171875,49.83334,83.8099171875,49.86298Q83.7905171875,49.89263,83.7691171875,49.92083Q83.7476171875,49.94903,83.72431718749999,49.97564Q83.7009171875,50.0023,83.6757171875,50.027100000000004Q83.6505171875,50.052,83.6236171875,50.0751Q83.5966171875,50.0981,83.5682171875,50.1192Q83.5397171875,50.140299999999996,83.5098171875,50.1593Q83.4799171875,50.1783,83.4488171875,50.1952Q83.4176171875,50.212,83.3853171875,50.2266Q83.3531171875,50.2412,83.3198171875,50.2535Q83.2866171875,50.2658,83.2526171875,50.2757Q83.2186171875,50.2856,83.1839171875,50.2931Q83.1493171875,50.3006,83.1142171875,50.3056Q83.0792171875,50.3106,83.0438171875,50.3131Q83.0085171875,50.3156,82.97311718750001,50.3156L70.0269171875,50.3156Q69.9914971875,50.3156,69.9561571875,50.3131Q69.9208171875,50.3106,69.8857471875,50.3056Q69.8506771875,50.3006,69.8160471875,50.2931Q69.7814171875,50.2856,69.7473971875,50.2757Q69.7133871875,50.2658,69.6801571875,50.2535Q69.6469271875,50.2412,69.6146571875,50.2266Q69.5823771875,50.212,69.5512171875,50.1952Q69.5200571875,50.1783,69.4901671875,50.1593Q69.4602771875,50.140299999999996,69.4318071875,50.1192Q69.4033371875,50.0981,69.3764271875,50.0751Q69.3495171875,50.052,69.3243171875,50.027100000000004Q69.2991071875,50.0023,69.2757171875,49.97564Q69.2523371875,49.94903,69.2308971875,49.92083Q69.20945718749999,49.89263,69.1900571875,49.86298Q69.1706671875,49.83334,69.1534171875,49.80239Q69.1361771875,49.77145,69.1211571875,49.73936Q69.1061471875,49.70727,69.0934371875,49.6742Q69.0807371875,49.641130000000004,69.0704071875,49.60725Q69.0600671875,49.57336,69.0521571875,49.538830000000004Q69.0442471875,49.5043,69.0388071875,49.46929Q69.0333571875,49.43428,69.0304071875,49.39898Q69.0274471875,49.36368,69.0269971875,49.32826Q69.0265471875,49.29283,69.0286071875,49.25747Q69.0306671875,49.2221,69.0352271875,49.18697Q69.0397771875,49.15184,69.0468071875,49.11711Q69.0538371875,49.082390000000004,69.0633071875,49.048249999999996Q69.0727771875,49.01412,69.0846371875,48.98074Q69.0965071875,48.94735,69.1106971875,48.9149Q69.1248971875,48.88244,69.1413471875,48.851060000000004Q69.1578071875,48.81969,69.1764371875,48.78956Q69.1950771875,48.75943,69.2157871875,48.7307Q69.2365071875,48.70196,69.2592171875,48.67477L75.7322971875,40.919745Q75.7673771875,40.877707,75.8068471875,40.839751Q75.8463171875,40.801796,75.8896971875,40.768377Q75.9330771875,40.734958,75.9798471875,40.706475Q76.0266171875,40.677993,76.0762071875,40.654786Q76.1258071875,40.63158,76.1776371875,40.613929Q76.2294771875,40.596277,76.28292718750001,40.584391Q76.3363771875,40.572504,76.3908071875,40.566525Q76.4452471875,40.560546,76.4999971875,40.560546Q76.5547571875,40.560546,76.60921718750001,40.566525Q76.6636171875,40.572504,76.7171171875,40.584391Q76.7705171875,40.596277,76.8223171875,40.613929Q76.8742171875,40.631581,76.92381718749999,40.654787Q76.9734171875,40.677993,77.0201171875,40.706475Q77.0669171875,40.734958,77.1103171875,40.768377Q77.1537171875,40.801796,77.19311718750001,40.839751Q77.2326171875,40.877707,77.2677171875,40.919745L83.7408171875,48.67477Z" fill="#FFFFFF" fill-opacity="1"/></g><g><path d="M69.455078125,57.37622111328125C69.455078125,57.17229611328125,69.620411125,57.00720214848125,69.823242125,57.00720214848125L74.181368125,57.00714111328125C74.326248125,57.00714111328125,74.457458125,57.09188171328125,74.517048125,57.22418711328125L79.874978125,68.63004111328125L79.874878125,57.37617311328125C79.874878125,57.17224911328125,80.039978125,57.00714111328125,80.242778125,57.00714111328125L82.109378125,57.00714111328125C82.312178125,57.00714111328125,82.47757812500001,57.17223511328125,82.47757812500001,57.37616011328125L82.47757812500001,71.39934111328125C82.47757812500001,71.60274111328125,82.312778125,71.76784111328125,82.109378125,71.76854111328124L78.828128125,71.76894111328124C78.683458125,71.76884111328125,78.552488125,71.68384111328125,78.493168125,71.55194111328125L72.847658125,59.70788111328125L72.847658125,71.39994111328124C72.847658125,71.60334111328125,72.682878125,71.76834111328125,72.479488125,71.76894111328124L69.823242125,71.76904111328125C69.619859125,71.76844111328126,69.455077543855,71.60344111328125,69.455078125,71.40004111328125L69.455078125,57.37677011328125L69.455078125,57.37622111328125Z" fill="#FFFFFF" fill-opacity="1"/></g></g><g><g transform="matrix(0.8660253882408142,0.5,-0.5,0.8660253882408142,60.32528300615377,-157.13700187206268)"><path d="M364.77107734375,52.3888L364.76477734375,52.3874L364.01557734375,52.2177L363.95017734375,52.1981C361.82047734375,51.560500000000005,360.01087734375,50.165800000000004,358.87357734375,48.2217C357.73487734375,46.265299999999996,357.41667734375,43.988569999999996,357.94047734375,41.8403L357.96027734375,41.75927L358.18577734375,41.08942L358.18707734375,41.07996C358.18947734375,41.06072,358.19067734375,41.03621,358.18987734375,41.00763C358.18807734375,40.93477,358.17447734375,40.8503,358.14947734375,40.765299999999996C358.12437734375,40.6803,358.08997734375,40.60186,358.05187734375,40.53949C358.03027734375,40.50408,358.01237734375,40.48127,358.00367734375,40.47198C357.99147734375,40.462469999999996,357.97567734375,40.45038,357.95617734375,40.43573C357.87077734375,40.37144,357.75707734375,40.2901,357.61317734375,40.19197C357.17527734375,39.89348,356.59147734375,39.53029,355.84557734375,39.1042C355.09687734375,38.6799,354.48567734375,38.36113,354.00487734375,38.13367C353.84617734375,38.05858,353.71737734375,38.00094,353.61747734375,37.95888C353.59917734375,37.95115,353.58087734375,37.94356,353.56247734375,37.93611L353.55447734375,37.93469C353.53177734375,37.93103,353.50887734375,37.92903,353.48587734375,37.9287C353.41517734375,37.92705,353.33187734375,37.93629,353.24687734375,37.956739999999996C353.16107734375,37.97741,353.08077734375,38.00781,353.01577734375,38.04281C352.97087734375,38.06697,352.94357734375,38.08737,352.93867734375,38.0925L352.42037734375,38.64052L352.37657734375,38.6815C350.75987734375,40.19523,348.62497734375,41.05036,346.34927734375,41.05036C344.06957734375,41.05036,341.91617734375,40.18389,340.30047734375,38.66016L340.25857734375,38.6207L339.75857734375,38.09085L339.75417734375003,38.08616C339.66277734375,37.98875,339.27227734375,37.89366,339.14037734375,37.9341C339.12427734375,37.94044,339.10237734375,37.94928,339.07467734375,37.96089C338.97437734375,38.00286,338.84507734375,38.06032,338.68607734375,38.13523C338.20457734375,38.36194,337.59397734375,38.67963,336.84767734375,39.10246C336.10367734375,39.53105,335.52287734375,39.89553,335.08837734375,40.19443C334.94567734375,40.2926,334.83327734375,40.37381,334.74907734375,40.43783C334.73057734375,40.45181,334.71227734375,40.466,334.69407734375,40.48042L334.68837734375,40.48515C334.69017734375,40.48364,334.68777734375,40.48605,334.68207734375,40.49274C334.67047734375,40.50649,334.65697734375,40.52511,334.64287734375,40.54815C334.60617734375,40.60761,334.57287734375,40.68302,334.54847734375,40.76539C334.52387734375,40.84852,334.51047734375,40.93173,334.50867734375,41.00419C334.50737734375,41.05402,334.51157734375,41.0871,334.51417734375,41.0958L334.72937734375,41.79762L334.74367734375,41.85749C335.25727734375,44.0096,334.94287734375,46.2726,333.80817734375,48.2214C332.67102734375,50.176100000000005,330.83978734375,51.582300000000004,328.69498734375,52.2097L328.63227734375,52.228L328.56849734375,52.2422L327.91471734375,52.3879C327.78448734375,52.4172,327.50434734375,52.7047,327.47218734375,52.840199999999996C327.46979734375,52.8562,327.46677734375,52.877700000000004,327.46325734375,52.9052C327.44985734375,53.0102,327.43560734375,53.1479,327.42184734375,53.32C327.37980734375,53.844300000000004,327.35395734375,54.526700000000005,327.35395734375,55.380700000000004C327.35395734375,56.234300000000005,327.37980734375,56.9165,327.42184734375,57.4407C327.43560734375,57.612700000000004,327.44981734375,57.7504,327.46325734375,57.8555C327.46695734375,57.884299999999996,327.47006734375,57.9066,327.47250734375,57.9227C327.50313734375,58.0582,327.77906734375,58.3425,327.90961734375,58.3716L327.91548734375,58.3729L328.62109734375,58.5342L328.67860734375,58.551C330.82841734375,59.1802,332.66588734375,60.5893,333.80087734375,62.5488C334.93867734375,64.505,335.25647734375,66.7807,334.73317734375,68.92830000000001L334.72077734375,68.9794L334.51457734375,69.6625L334.51277734375,69.66839999999999C334.51327734375,69.6666,334.51237734375,69.6709,334.51117734375,69.6807C334.50877734375,69.6999,334.50757734375,69.7244,334.50827734375,69.7531C334.51007734375,69.826,334.52377734375,69.9105,334.54877734375,69.99549999999999C334.57387734375,70.0805,334.60827734375,70.1589,334.64627734375,70.22120000000001C334.66787734375,70.2565,334.68567734375,70.2792,334.69417734375,70.28829999999999C334.70647734375,70.2979,334.72227734375,70.3101,334.74187734375,70.32480000000001C334.82747734375,70.3892,334.94127734375,70.47059999999999,335.08527734375,70.5687C335.52397734375,70.86789999999999,336.10867734375,71.23169999999999,336.85507734375,71.6584C337.60257734375,72.08539999999999,338.21157734375,72.4037,338.68957734375,72.62870000000001C338.84617734375,72.7025,338.97297734375,72.7587,339.07067734375,72.7992C339.09697734375,72.8101,339.11747734375,72.8184,339.13237734375,72.82419999999999C339.13347734375,72.8243,339.13707734375,72.82509999999999,339.14297734375,72.8261C339.16117734375,72.8293,339.18447734375,72.8315,339.21207734375,72.8321C339.28307734375,72.8338,339.36647734375,72.8246,339.45157734375,72.804C339.53737734375,72.7834,339.61767734375,72.753,339.68267734375,72.718C339.72637734375,72.6945,339.75337734375,72.6745,339.76137734375,72.66640000000001L340.25207734375,72.14580000000001L340.29697734375,72.1038C341.92307734375,70.58070000000001,344.06637734375,69.7185,346.34927734375,69.7185C348.63317734375,69.7185,350.78737734375,70.58959999999999,352.40657734375,72.1172L352.44847734375,72.1567L352.94057734375,72.67830000000001L352.94497734375,72.6831C353.03607734375,72.7803,353.42627734375003,72.8752,353.55937734375,72.8344C353.57537734375,72.8281,353.59717734375,72.8193,353.62477734375,72.8078C353.72507734375,72.7659,353.85417734375,72.7085,354.01307734375,72.6337C354.49517734375,72.4068,355.10657734375,72.08850000000001,355.85417734375,71.66470000000001C356.59847734375,71.2397,357.17917734375,70.8776,357.61307734375,70.5801C357.75517734375,70.4827,357.86697734375,70.40209999999999,357.95057734375,70.3386C357.96877734375,70.3249,357.98687734375,70.3109,358.00467734375,70.2967L358.01047734375,70.2919C358.00787734375,70.294,358.00987734375,70.2921,358.01517734375,70.2859C358.02667734375,70.2722,358.04017734375,70.2536,358.05437734375,70.2304C358.09127734375,70.1702,358.12497734375,70.0935,358.14967734375,70.00970000000001C358.17467734375,69.925,358.18827734375,69.8401,358.19017734375,69.7663C358.19137734375,69.71549999999999,358.18727734375,69.682,358.18427734375,69.6723L358.18277734375,69.6676L357.96867734375,68.9614L357.95527734375,68.9055C357.44057734375,66.7593,357.75607734375,64.4944,358.89057734375,62.5552C360.02827734375,60.600899999999996,361.86757734375,59.187,364.01097734375,58.559L364.06897734375,58.542100000000005L364.76947734375,58.382000000000005L364.77727734375003,58.3802C364.90647734375,58.3512,365.18657734375,58.063900000000004,365.21857734375,57.928799999999995C365.22097734375,57.9129,365.22397734375,57.8913,365.22747734375,57.8639C365.24087734375,57.7588,365.25507734375003,57.6211,365.26887734375,57.4491C365.31067734375,56.9256,365.33657734375,56.2445,365.33657734375,55.392399999999995C365.33317734375,54.5564,365.30637734375,53.8833,365.26467734375,53.3605C365.24987734375,53.1755,365.23467734375,53.0273,365.22027734375,52.914C365.21717734375,52.8896,365.21377734375,52.8652,365.21027734375,52.8408C365.17817734375,52.7059,364.89847734375,52.4172,364.77107734375,52.3888ZM336.84167734375,39.10581L336.85357734375,39.09902Q336.84767734375,39.10242,336.84167734375,39.10581ZM369.11837734375,52.1505L369.11837734375,52.150800000000004C369.15007734375,52.324600000000004,369.18757734375,52.6196,369.22207734375,53.0514C369.27187734375,53.675399999999996,369.30247734375,54.447500000000005,369.30627734375,55.3808L369.30627734375,55.3885C369.30627734375,56.343199999999996,369.27657734375,57.128699999999995,369.22617734375,57.759100000000004C369.19337734375,58.1683,369.15757734375,58.449600000000004,369.12757734375,58.6147C368.82347734375,60.300399999999996,367.34217734375,61.831,365.65947734375,62.2107L365.08487734375,62.342C363.93047734375,62.6943,362.94467734375,63.460899999999995,362.32807734375,64.52C361.71557734375,65.5671,361.53957734375,66.7818,361.80577734375,67.947L361.98447734375,68.53659999999999C362.48337734375,70.17179999999999,361.88847734374997,72.1943,360.56957734375,73.2953C360.43557734374997,73.4082,360.20887734375,73.5798,359.87347734375,73.80969999999999C359.34667734375,74.1709,358.67297734375,74.59100000000001,357.83527734375,75.0692L357.83027734375,75.0721C356.99607734375,75.54509999999999,356.29457734375,75.9102,355.71827734375,76.1815C355.50647734375,76.28110000000001,355.32337734375,76.3626,355.16787734375,76.42750000000001C355.06107734375,76.4721,354.98007734375,76.50370000000001,354.92477734375,76.5236C353.29647734375,77.1114,351.21487734375,76.6118,350.03697734375,75.35730000000001L349.62917734375003,74.925C348.74557734375,74.1094,347.58477734375,73.6472,346.34927734375,73.6472C345.11097734375,73.6472,343.95757734375,74.1035,343.06707734375,74.9188L342.66017734375,75.3505L342.65567734374997,75.3552C341.47227734375,76.60249999999999,339.40537734375,77.1011,337.77947734375,76.5178C337.61707734375,76.4599,337.35477734375,76.3509,336.98457734375,76.17660000000001C336.40877734375,75.9055,335.70697734375,75.5387,334.87027734375,75.0608C334.03447734375,74.583,333.36094734375,74.1639,332.83328734375,73.8041C332.49090734375,73.5707,332.26215734375,73.3986,332.13056734375,73.2884L332.12677734375,73.2853C330.81181734375,72.179,330.21456734375,70.1572,330.71415734375,68.5275L330.88530734375,67.96029999999999C331.15632734375,66.7969,330.97881734375,65.5712,330.35986734375,64.5077L330.35756734375,64.5037C329.74695734375,63.449,328.76585734375,62.6877,327.60553734375,62.334199999999996L327.03245734375,62.203199999999995C325.34254734375,61.8241,323.86709134375,60.294399999999996,323.56390634375,58.6098C323.53341234375,58.4423,323.49741434375,58.1609,323.46457434375,57.7515C323.41404994375,57.120999999999995,323.38427734375,56.3354,323.38427734375,55.380700000000004C323.38427734375,54.4257,323.41404994375,53.6398,323.46457314375,53.009100000000004C323.49741334375,52.5997,323.53341134375,52.3183,323.56322834375,52.154399999999995C323.86699934375,50.467600000000004,325.35025734375,48.936099999999996,327.03841734375,48.5561L327.62718734375,48.4249C328.78010734375,48.0725,329.75538734375,47.314099999999996,330.36838734375,46.2605C330.98283734375,45.2051,331.15898734375,43.98901,330.89310734375,42.81557L330.71514734375,42.23518C330.21483734375,40.59904,330.80974734375,38.58288,332.12975734375,37.48141C332.26251734375,37.36966,332.48815734375,37.19858,332.82264734375,36.96848C333.34826734375,36.60686,334.02077734375,36.18496,334.85707734375,35.70334L334.86307734375,35.6999L334.86897734375,35.69655C335.70317734375,35.22376,336.40437734375,34.858835,336.98047734375,34.587573C337.19207734375,34.48797,337.37507734375,34.406538,337.53037734375,34.34158C337.63707734375,34.297069,337.71787734375,34.265505,337.77407734375,34.245236C339.40217734375,33.657532,341.48367734375,34.157286,342.66157734375,35.41118L343.07737734375,35.851820000000004C343.95597734375,36.66231,345.11527734375,37.12166,346.34927734375,37.12166C347.58307734375,37.12166,348.72807734375,36.67048,349.60817734375,35.86486L350.04307734375,35.40502C351.22797734375,34.156973,353.29777734375,33.658425,354.92387734375,34.245147L354.93047734375,34.247513C354.98577734375,34.267692,355.06577734375,34.299167,355.17127734375,34.343633C355.32527734375,34.408458,355.50687734375,34.489666,355.71697734375,34.589135C356.28947734375,34.85995,356.98817734375,35.22443,357.82127734375,35.69655L357.82707734375,35.69985C358.66327734375,36.17755,359.33707734375,36.59668,359.86487734375,36.95647C360.20747734375,37.18996,360.43637734375,37.3622,360.56807734375,37.47252L360.57187734375,37.47569C361.88837734375,38.58395,362.48527734375,40.60931,361.98197734375003,42.24005L361.97467734375,42.26362L361.78187734375,42.83615C361.51977734375,43.9912,361.69937734375003,45.205799999999996,362.31117734375,46.2569C362.92507734375,47.3063,363.88957734375,48.0595,365.03967734375,48.4193L365.64747734375,48.557C367.33507734375,48.9351,368.81227734375,50.4698,369.11837734375,52.1505Z" fill="#FFFFFF" fill-opacity="1"/></g><g><path d="M332.5,74Q332.73321,74,332.96614,73.9886Q333.1991,73.97710000000001,333.4312,73.9543Q333.6633,73.9314,333.8939,73.8972Q334.1246,73.863,334.3534,73.8175Q334.5821,73.77199999999999,334.8083,73.7153Q335.0345,73.6586,335.2577,73.5909Q335.4809,73.5232,335.7005,73.4447Q335.92,73.3661,336.1355,73.2769Q336.3509,73.1876,336.5618,73.0879Q336.7726,72.9882,336.9783,72.87819999999999Q337.1839,72.7683,337.384,72.6484Q337.584,72.52850000000001,337.7779,72.399Q337.9718,72.2694,338.1591,72.1305Q338.3465,71.9915,338.5267,71.8436Q338.707,71.6956,338.8798,71.539Q339.0526,71.3824,339.2175,71.2175Q339.3824,71.0526,339.539,70.8798Q339.6956,70.707,339.8436,70.5267Q339.9915,70.3465,340.1305,70.1591Q340.2694,69.9718,340.399,69.7779Q340.5285,69.584,340.6484,69.384Q340.7683,69.1839,340.8783,68.9783Q340.9882,68.7726,341.0879,68.5618Q341.1876,68.3509,341.2769,68.13550000000001Q341.3661,67.92,341.4447,67.7005Q341.5232,67.4809,341.5909,67.2577Q341.6586,67.0345,341.7153,66.8083Q341.772,66.5821,341.8175,66.3534Q341.863,66.1246,341.8972,65.8939Q341.9314,65.66329999999999,341.9543,65.4312Q341.9771,65.1991,341.9886,64.96614Q342,64.73321,342,64.5Q342,64.26679,341.9886,64.03386Q341.9771,63.80093,341.9543,63.56884Q341.9314,63.33675,341.8972,63.10606Q341.863,62.875370000000004,341.8175,62.64664Q341.772,62.41791,341.7153,62.19169Q341.6586,61.965469999999996,341.5909,61.7423Q341.5232,61.51913,341.4447,61.299549999999996Q341.3661,61.07997,341.2769,60.86451Q341.1876,60.64905,341.0879,60.43823Q340.9882,60.22741,340.8782,60.02173Q340.7683,59.81606,340.6484,59.61602Q340.5285,59.41599,340.399,59.22208Q340.2694,59.02817,340.1305,58.84086Q339.9915,58.65354,339.8436,58.473259999999996Q339.6956,58.29299,339.539,58.12019Q339.3824,57.94739,339.2175,57.78249Q339.0526,57.61758,338.8798,57.46096Q338.707,57.30435,338.5267,57.1564Q338.3465,57.008449999999996,338.1591,56.86953Q337.9718,56.7306,337.7779,56.60104Q337.584,56.47147,337.384,56.35158Q337.1839,56.23168,336.9783,56.12175Q336.7726,56.01181,336.5618,55.912102Q336.3509,55.812391,336.1355,55.723144Q335.92,55.633898,335.7005,55.555331Q335.4809,55.476765,335.2577,55.409067Q335.0345,55.341369,334.8083,55.284703Q334.5821,55.228037,334.3534,55.18254Q334.1246,55.137042,333.8939,55.102823Q333.6633,55.0686039,333.4312,55.0457451Q333.1991,55.0228863,332.96614,55.0114432Q332.73321,55,332.5,55Q332.26679,55,332.03386,55.0114432Q331.80093,55.0228863,331.56884,55.0457451Q331.33675,55.0686039,331.10606,55.102823Q330.87537,55.137042,330.64664,55.18254Q330.41791,55.228037,330.19169,55.284703Q329.96547,55.341369,329.7423,55.409067Q329.51913,55.476765,329.29955,55.555331Q329.07997,55.633898,328.86451,55.723144Q328.64905,55.812391,328.43823,55.912102Q328.22741,56.01181,328.02173,56.12175Q327.81606,56.23168,327.61602,56.35158Q327.41599,56.47147,327.22208,56.60104Q327.02817,56.7306,326.84086,56.86953Q326.65354,57.008449999999996,326.47326,57.1564Q326.29299,57.30435,326.12019,57.46096Q325.94739,57.61758,325.78249,57.78249Q325.61758,57.94739,325.46096,58.12019Q325.30435,58.29299,325.1564,58.473259999999996Q325.00845,58.65354,324.86953,58.84086Q324.7306,59.02817,324.60104,59.22208Q324.47147,59.41599,324.35158,59.61602Q324.23168,59.81606,324.12175,60.02173Q324.01181,60.22741,323.912102,60.43823Q323.812391,60.64905,323.723144,60.86451Q323.633898,61.07997,323.555331,61.299549999999996Q323.476765,61.51913,323.409067,61.7423Q323.341369,61.965469999999996,323.284703,62.19169Q323.228037,62.41791,323.18254,62.64664Q323.137042,62.875370000000004,323.102823,63.10606Q323.0686039,63.33675,323.0457451,63.56884Q323.0228863,63.80093,323.0114432,64.03386Q323,64.26679,323,64.5Q323,64.73321,323.0114432,64.96614Q323.0228863,65.1991,323.0457451,65.4312Q323.0686039,65.66329999999999,323.102823,65.8939Q323.137042,66.1246,323.18254,66.3534Q323.228037,66.5821,323.284703,66.8083Q323.341369,67.0345,323.409067,67.2577Q323.476765,67.4809,323.555331,67.7005Q323.633898,67.92,323.723144,68.13550000000001Q323.812391,68.3509,323.912102,68.5618Q324.01181,68.7726,324.12175,68.9783Q324.23168,69.1839,324.35158,69.384Q324.47147,69.584,324.60104,69.7779Q324.7306,69.9718,324.86953,70.1591Q325.00845,70.3465,325.1564,70.5267Q325.30435,70.707,325.46096,70.8798Q325.61758,71.0526,325.78249,71.2175Q325.94739,71.3824,326.12019,71.539Q326.29299,71.6956,326.47326,71.8436Q326.65354,71.9915,326.84086,72.1305Q327.02817,72.2694,327.22208,72.399Q327.41599,72.52850000000001,327.61602,72.6484Q327.81606,72.7683,328.02173,72.8783Q328.22741,72.9882,328.43823,73.0879Q328.64905,73.1876,328.86451,73.2769Q329.07997,73.3661,329.29955,73.4447Q329.51913,73.5232,329.7423,73.5909Q329.96547,73.6586,330.19169,73.7153Q330.41791,73.77199999999999,330.64664,73.8175Q330.87537,73.863,331.10606,73.8972Q331.33675,73.9314,331.56884,73.9543Q331.80093,73.97710000000001,332.03386,73.9886Q332.26679,74,332.5,74ZM332.5,69Q332.61047,69,332.72081000000003,68.9946Q332.83114,68.9892,332.94108,68.9783Q333.051,68.9675,333.1603,68.9513Q333.2696,68.9351,333.3779,68.9135Q333.4863,68.892,333.5934,68.8651Q333.7006,68.8383,333.8063,68.8062Q333.912,68.77420000000001,334.016,68.7369Q334.12,68.6997,334.2221,68.6575Q334.3241,68.6152,334.424,68.5679Q334.5239,68.5207,334.6213,68.4686Q334.7187,68.4166,334.8135,68.3598Q334.9082,68.303,335.0001,68.2416Q335.0919,68.1802,335.1806,68.1144Q335.2694,68.0486,335.3548,67.9785Q335.4402,67.9085,335.522,67.8343Q335.6039,67.7601,335.682,67.682Q335.7601,67.6039,335.8343,67.522Q335.9085,67.4402,335.9785,67.3548Q336.0486,67.2694,336.1144,67.1806Q336.1802,67.0919,336.2416,67.0001Q336.303,66.9082,336.3598,66.8135Q336.4166,66.7187,336.4686,66.6213Q336.5207,66.5239,336.5679,66.424Q336.6152,66.3241,336.6575,66.2221Q336.6997,66.12,336.7369,66.016Q336.7742,65.912,336.8062,65.8063Q336.8383,65.7006,336.8651,65.5934Q336.892,65.4863,336.9135,65.3779Q336.9351,65.2696,336.9513,65.1603Q336.9675,65.051,336.9783,64.94108Q336.9892,64.83114,336.9946,64.72081Q337,64.61046999999999,337,64.5Q337,64.38953000000001,336.9946,64.27919Q336.9892,64.16886,336.9783,64.05892Q336.9675,63.94899,336.9513,63.83971Q336.9351,63.73044,336.9135,63.62209Q336.892,63.51375,336.8651,63.40659Q336.8383,63.29943,336.8062,63.19372Q336.7742,63.08801,336.7369,62.98399Q336.6997,62.87998,336.6575,62.77792Q336.6152,62.67586,336.5679,62.576Q336.5207,62.47614,336.4686,62.37871Q336.4166,62.28129,336.3598,62.18654Q336.303,62.09178,336.2416,61.99993Q336.1802,61.90808,336.1144,61.81935Q336.0486,61.73062,335.9785,61.64523Q335.9085,61.55984,335.8343,61.47798Q335.7601,61.39613,335.682,61.31802Q335.6039,61.23991,335.522,61.16572Q335.4402,61.09153,335.3548,61.02145Q335.2694,60.95137,335.1806,60.88556Q335.0919,60.81976,335.0001,60.75839Q334.9082,60.69701,334.8135,60.64022Q334.7187,60.58343,334.6213,60.53135Q334.5239,60.47928,334.424,60.432050000000004Q334.3241,60.38482,334.2221,60.34254Q334.12,60.30027,334.016,60.26305Q333.912,60.22584,333.8063,60.19377Q333.7006,60.161699999999996,333.5934,60.13486Q333.4863,60.108019999999996,333.3779,60.08647Q333.2696,60.06491,333.1603,60.04871Q333.051,60.0325,332.94108,60.02167Q332.83114,60.01084,332.72081000000003,60.00542Q332.61047,60,332.5,60Q332.38953,60,332.27918999999997,60.00542Q332.16886,60.01084,332.05892,60.02167Q331.94899,60.0325,331.83971,60.04871Q331.73044,60.06491,331.62209,60.08647Q331.51375,60.108019999999996,331.40659,60.13486Q331.29943,60.161699999999996,331.19372,60.19377Q331.08801,60.22584,330.98399,60.26305Q330.87998,60.30027,330.77792,60.34254Q330.67586,60.38482,330.576,60.432050000000004Q330.47614,60.47928,330.37871,60.53135Q330.28129,60.58343,330.18654,60.64022Q330.09177999999997,60.69701,329.99993,60.75839Q329.90808,60.81976,329.81935,60.88557Q329.73062,60.95137,329.64523,61.02145Q329.55984,61.09153,329.47798,61.16572Q329.39613,61.23991,329.31802,61.31802Q329.23991,61.39613,329.16572,61.47798Q329.09153,61.55984,329.02145,61.64523Q328.95137,61.73062,328.88556,61.81935Q328.81976,61.90808,328.75839,61.99993Q328.69701,62.09178,328.64022,62.18654Q328.58343,62.28129,328.53135,62.37871Q328.47928,62.47614,328.43205,62.576Q328.38482,62.67586,328.34254,62.77792Q328.30027,62.87998,328.26305,62.98399Q328.22584,63.08801,328.19377,63.19372Q328.1617,63.29943,328.13486,63.40659Q328.10802,63.51375,328.08647,63.62209Q328.06491,63.73044,328.04871,63.83971Q328.0325,63.94899,328.02167,64.05892Q328.01084,64.16886,328.00542,64.27919Q328,64.38953000000001,328,64.5Q328,64.61046999999999,328.00542,64.72081Q328.01084,64.83114,328.02167,64.94108Q328.0325,65.051,328.0487,65.1603Q328.06491,65.2696,328.08647,65.3779Q328.10802,65.4863,328.13486,65.5934Q328.1617,65.7006,328.19377,65.8063Q328.22584,65.912,328.26305,66.016Q328.30027,66.12,328.34254,66.2221Q328.38482,66.3241,328.43205,66.424Q328.47928,66.5239,328.53135,66.6213Q328.58343,66.7187,328.64022,66.8135Q328.69701,66.9082,328.75839,67.0001Q328.81976,67.0919,328.88557,67.1806Q328.95137,67.2694,329.02145,67.3548Q329.09153,67.4402,329.16572,67.522Q329.23991,67.6039,329.31802,67.682Q329.39613,67.7601,329.47798,67.8343Q329.55984,67.9085,329.64523,67.9785Q329.73062,68.0486,329.81935,68.1144Q329.90808,68.1802,329.99993,68.2416Q330.09177999999997,68.303,330.18654,68.3598Q330.28129,68.4166,330.37871,68.4686Q330.47614,68.5207,330.576,68.5679Q330.67586,68.6152,330.77792,68.6575Q330.87998,68.6997,330.98399,68.7369Q331.08801,68.77420000000001,331.19372,68.8062Q331.29943,68.8383,331.40659,68.8651Q331.51375,68.892,331.62209,68.9135Q331.73044,68.9351,331.83971,68.9513Q331.94899,68.9675,332.05892,68.9783Q332.16886,68.9892,332.27918999999997,68.9946Q332.38953,69,332.5,69Z" fill-rule="evenodd" fill="#FFFFFF" fill-opacity="1"/></g></g><g><g><path d="M192.7295359375,57.55638408203125L204.9023359375,49.93603408203125L204.9023359375,77.27118408203125L192.7295359375,69.98118408203125L182.3749959375,69.98118408203125L182.3749959375,57.76338408203125L192.7295359375,57.76338408203125L192.7295359375,57.55638408203125ZM179.8906259375,53.00048408203125C178.6481179375,53.00048408203125,177.8193359375,54.03588408203125,177.8193359375,55.07138408203125L177.8193359375,72.25918408203125C177.8193359375,73.50168408203125,178.8552059375,74.32998408203125,179.8906259375,74.32998408203125L191.2802359375,74.32998408203125C196.04323593750001,78.05748408203125,201.5886359375,80.17038408203125,206.3515359375,83.89788408203125C207.8011359375,84.93328408203125,209.87203593750002,84.10488408203125,209.87203593750002,82.24118408203125L209.87203593750002,44.758914082031254C209.87203593750002,42.89515008203125,207.8011359375,42.06681108203125,206.3515359375,43.10223408203125C201.5886359375,46.82975408203125,196.04323593750001,49.27296408203125,191.2802359375,53.00048408203125L179.8906259375,53.00048408203125Z" fill="#FFFFFF" fill-opacity="1"/></g><g><path d="M217.0733128125,56.98124629296875Q219.0611308125,62.87930029296875,217.0690428125,68.89720029296875L221.8157228125,70.46840029296875Q224.3326728125,62.86508029296875,221.8114528125,55.38435629296875L217.0733128125,56.98124629296875Z" fill-rule="evenodd" fill="#FFFFFF" fill-opacity="1"/></g><g><path d="M224.5083128125,49.75316329296875Q227.4053248125,62.11640029296875,224.4980828125,75.65800029296875L229.3866828125,76.70760029296875Q232.5295428125,62.06850029296875,229.3764528125,48.61243729296875L224.5083128125,49.75316329296875Z" fill-rule="evenodd" fill="#FFFFFF" fill-opacity="1"/></g></g></g></svg>