<svg xmlns="http://www.w3.org/2000/svg" xmlns:xlink="http://www.w3.org/1999/xlink" fill="none" version="1.1" width="48"
     height="49.4609375" viewBox="0 0 48 49.4609375">
    <g>
        <g>
            <path d="M11.59652,10.84809818359375Q11.79923,10.67209818359375,11.95995,10.45705818359375Q12.12066,10.24202818359375,12.23206,9.99777818359375Q12.34346,9.75351918359375,12.40046,9.49118218359375Q12.45746,9.22884518359375,12.45746,8.96038818359375Q12.45746,8.83757118359375,12.44542,8.71534518359375Q12.43338,8.59311918359375,12.40942,8.47266218359375Q12.38546,8.35220518359375,12.34981,8.23467618359375Q12.31415,8.11714818359375,12.26715,8.00368018359375Q12.22015,7.89020818359375,12.16226,7.78189818359375Q12.10436,7.67357818359375,12.03613,7.57145818359375Q11.96789,7.46934818359375,11.88998,7.37440818359375Q11.81207,7.27946818359375,11.72522,7.1926181835937495Q11.63838,7.10577818359375,11.54344,7.02785818359375Q11.4485,6.94994818359375,11.34638,6.88171818359375Q11.24426,6.81347818359375,11.13595,6.7555881835937495Q11.02763,6.697688183593749,10.91416,6.650688183593751Q10.8007,6.60368818359375,10.68317,6.56803818359375Q10.56564,6.53238818359375,10.44518,6.50842818359375Q10.32472,6.48446818359375,10.2025,6.47242818359375Q10.080269999999999,6.46038818359375,9.957460000000001,6.46038818359375Q9.733419999999999,6.46038818359375,9.51295,6.50021818359375Q9.292480000000001,6.54005818359375,9.082609999999999,6.61845818359375Q8.87273,6.696858183593751,8.68014,6.81132818359375Q8.487549999999999,6.92578818359375,8.31839,7.07267818359375Q4.42277,10.45517818359375,2.249439,15.126338183593749Q0,19.961088183593752,0,25.33578818359375Q0,30.23958818359375,1.885055,34.72218818359375Q3.7056,39.05138818359375,7.02434,42.38938818359375Q10.344560000000001,45.72878818359375,14.6526,47.56148818359375Q19.1162,49.46038818359375,24,49.46038818359375Q28.8838,49.46038818359375,33.3474,47.56148818359375Q37.6554,45.72878818359375,40.9757,42.38938818359375Q44.2944,39.05138818359375,46.1149,34.72218818359375Q48,30.23958818359375,48,25.33578818359375Q48,19.961088183593752,45.7506,15.126338183593749Q43.5783,10.45750818359375,39.6855,7.0760381835937505Q39.684,7.07471818359375,39.6824,7.0733881835937495L39.6816,7.07267818359375Q39.5124,6.92579818359375,39.3199,6.81132818359375Q39.1273,6.696858183593751,38.9174,6.61845818359375Q38.7075,6.54005818359375,38.487,6.50022818359375Q38.2666,6.46038818359375,38.0425,6.46038818359375Q37.9197,6.46038818359375,37.7975,6.47242818359375Q37.6753,6.48446818359375,37.5548,6.50842818359375Q37.4344,6.53238818359375,37.3168,6.56803818359375Q37.1993,6.60369818359375,37.0858,6.65069818359375Q36.9724,6.69769818359375,36.864,6.7555881835937495Q36.7557,6.8134881835937495,36.6536,6.88171818359375Q36.5515,6.94994818359375,36.4566,7.02786818359375Q36.3616,7.10577818359375,36.2748,7.19262818359375Q36.1879,7.27946818359375,36.11,7.37440818359375Q36.0321,7.46934818359375,35.9639,7.57146818359375Q35.8956,7.6735881835937505,35.8377,7.78189818359375Q35.7798,7.89021818359375,35.7328,8.00368318359375Q35.6858,8.11715218359375,35.6502,8.234680183593749Q35.6145,8.35220918359375,35.5906,8.47266618359375Q35.5666,8.59312318359375,35.5546,8.71534918359375Q35.5425,8.83757518359375,35.5425,8.96039199829375Q35.5425,9.22885518359375,35.5995,9.49119818359375Q35.6565,9.75354018359375,35.7679,9.99779818359375Q35.8793,10.24205818359375,36.0401,10.45708818359375Q36.2008,10.67212818359375,36.4035,10.84813818359375L36.4049,10.84937818359375Q39.4942,13.532248183593751,41.2172,17.23554818359375Q43,21.06728818359375,43,25.33578818359375Q43,29.23098818359375,41.5059,32.78398818359375Q40.0626,36.21618818359375,37.4299,38.86408818359375Q34.7988,41.51038818359375,31.3901,42.96048818359375Q27.8645,44.46038818359375,24,44.46038818359375Q20.1355,44.46038818359375,16.6099,42.96048818359375Q13.2012,41.51038818359375,10.57007,38.86398818359375Q7.93743,36.216088183593754,6.4940999999999995,32.78398818359375Q5,29.23098818359375,5,25.33578818359375Q5,21.06728818359375,6.78278,17.23554818359375Q8.50581,13.532248183593751,11.59506,10.84937818359375L11.59653,10.84809818359375L11.59652,10.84809818359375Z"
                  fill-rule="evenodd" fill="#FFFFFF" fill-opacity="1"/>
        </g>
        <g>
            <path d="M31.2408171875,8.67477Q31.2635171875,8.70196,31.2842171875,8.7307Q31.3049171875,8.75943,31.3235171875,8.78956Q31.3422171875,8.81969,31.3586171875,8.85106Q31.3751171875,8.88244,31.3893171875,8.9149Q31.4035171875,8.94735,31.4153171875,8.98074Q31.4272171875,9.01412,31.4367171875,9.04825Q31.4461171875,9.08239,31.4532171875,9.11711Q31.4602171875,9.15184,31.4648171875,9.18697Q31.4693171875,9.2221,31.4714171875,9.25747Q31.4734171875,9.29283,31.4730171875,9.32825Q31.4725171875,9.36368,31.4696171875,9.39898Q31.4666171875,9.43428,31.4612171875,9.46929Q31.4557171875,9.5043,31.4478171875,9.53883Q31.4399171875,9.57336,31.4296171875,9.60725Q31.4192171875,9.64113,31.4065171875,9.6742Q31.3938171875,9.70727,31.3788171875,9.73936Q31.3638171875,9.77145,31.3466171875,9.80239Q31.3293171875,9.83334,31.3099171875,9.86298Q31.2905171875,9.89263,31.2691171875,9.92083Q31.2476171875,9.94903,31.2243171875,9.97564Q31.2009171875,10.0023,31.1757171875,10.0271Q31.1505171875,10.052,31.1236171875,10.0751Q31.0966171875,10.0981,31.0682171875,10.1192Q31.0397171875,10.1403,31.0098171875,10.1593Q30.9799171875,10.1783,30.9488171875,10.1952Q30.9176171875,10.212,30.8853171875,10.2266Q30.8531171875,10.2412,30.8198171875,10.2535Q30.7866171875,10.2658,30.7526171875,10.2757Q30.7186171875,10.2856,30.6839171875,10.2931Q30.6493171875,10.3006,30.6142171875,10.3056Q30.5792171875,10.3106,30.5438171875,10.3131Q30.5085171875,10.3156,30.4731171875,10.3156L17.5269171875,10.3156Q17.4914971875,10.3156,17.4561571875,10.3131Q17.4208171875,10.3106,17.3857471875,10.3056Q17.3506771875,10.3006,17.3160471875,10.2931Q17.2814171875,10.2856,17.2473971875,10.2757Q17.2133871875,10.2658,17.1801571875,10.2535Q17.1469271875,10.2412,17.1146571875,10.2266Q17.0823771875,10.212,17.0512171875,10.1952Q17.0200571875,10.1783,16.9901671875,10.1593Q16.9602771875,10.1403,16.9318071875,10.1192Q16.9033371875,10.0981,16.8764271875,10.0751Q16.8495171875,10.052,16.8243171875,10.0271Q16.7991071875,10.0023,16.7757171875,9.97564Q16.7523371875,9.94903,16.7308971875,9.92083Q16.7094571875,9.89263,16.6900571875,9.86298Q16.6706671875,9.83334,16.6534171875,9.80239Q16.6361771875,9.77145,16.6211571875,9.73936Q16.6061471875,9.70727,16.5934371875,9.6742Q16.5807371875,9.64113,16.5704071875,9.60725Q16.5600671875,9.57336,16.5521571875,9.53883Q16.544247187499998,9.5043,16.538807187499998,9.46929Q16.533357187500002,9.43428,16.5304071875,9.39898Q16.5274471875,9.36368,16.5269971875,9.32826Q16.5265471875,9.29283,16.5286071875,9.25747Q16.5306671875,9.2221,16.5352271875,9.18697Q16.5397771875,9.15184,16.5468071875,9.11711Q16.5538371875,9.08239,16.5633071875,9.04825Q16.5727771875,9.01412,16.5846371875,8.98074Q16.5965071875,8.94735,16.6106971875,8.9149Q16.6248971875,8.88244,16.6413471875,8.85106Q16.6578071875,8.81969,16.6764371875,8.78956Q16.6950771875,8.75943,16.7157871875,8.7307Q16.7365071875,8.70196,16.7592171875,8.67477L23.232297187500002,0.919745Q23.2673771875,0.877707,23.3068471875,0.839751Q23.3463171875,0.801796,23.389697187499998,0.768377Q23.4330771875,0.734958,23.4798471875,0.706475Q23.5266171875,0.677993,23.5762071875,0.654786Q23.6258071875,0.63158,23.6776371875,0.613929Q23.729477187500002,0.596277,23.7829271875,0.584391Q23.8363771875,0.572504,23.890807187500002,0.566525Q23.9452471875,0.560546,23.9999971875,0.560546Q24.0547571875,0.560546,24.1092171875,0.566525Q24.1636171875,0.572504,24.2171171875,0.584391Q24.270517187499998,0.596277,24.322317187499998,0.613929Q24.3742171875,0.631581,24.4238171875,0.654787Q24.4734171875,0.677993,24.5201171875,0.706475Q24.5669171875,0.734958,24.6103171875,0.768377Q24.6537171875,0.801796,24.6931171875,0.839751Q24.7326171875,0.877707,24.7677171875,0.919745L31.2408171875,8.67477Z"
                  fill="#FFFFFF" fill-opacity="1"/>
        </g>
        <g>
            <path d="M16.955078125,17.37622111328125C16.955078125,17.17229611328125,17.120411125,17.00720214848125,17.323242125,17.00720214848125L21.681368125,17.00714111328125C21.826248125,17.00714111328125,21.957458125,17.09188171328125,22.017048125,17.22418711328125L27.374978125,28.63004111328125L27.374878125000002,17.37617311328125C27.374878125000002,17.17224911328125,27.539978124999998,17.00714111328125,27.742778125,17.00714111328125L29.609378125,17.00714111328125C29.812178125000003,17.00714111328125,29.977578125,17.17223511328125,29.977578125,17.37616011328125L29.977578125,31.399341113281253C29.977578125,31.602741113281247,29.812778125,31.76784111328125,29.609378125,31.768541113281252L26.328128125,31.76894111328125C26.183458125,31.768841113281248,26.052488125,31.68384111328125,25.993168125,31.551941113281252L20.347658125,19.70788111328125L20.347658125,31.39994111328125C20.347658125,31.60334111328125,20.182878125,31.768341113281252,19.979488125,31.76894111328125L17.323242125,31.76904111328125C17.119859125,31.76844111328125,16.955077543855,31.60344111328125,16.955078125,31.400041113281247L16.955078125,17.37677011328125L16.955078125,17.37622111328125Z"
                  fill="#FFFFFF" fill-opacity="1"/>
        </g>
    </g>
</svg>