<svg xmlns="http://www.w3.org/2000/svg" xmlns:xlink="http://www.w3.org/1999/xlink" fill="none" version="1.1" width="58" height="33.5" viewBox="0 0 58 33.5"><g><g><path d="M23.0623,3.91308Q23.2762,3.60101,23.3881,3.239653Q23.5,2.878294,23.5,2.5Q23.5,2.377183,23.488,2.254957Q23.4759,2.132731,23.452,2.012274Q23.428,1.891817,23.3924,1.7742879999999999Q23.3567,1.65676,23.3097,1.543292Q23.2627,1.42982,23.2048,1.32151Q23.1469,1.21319,23.0787,1.11107Q23.0104,1.00896,22.9325,0.91402Q22.8546,0.81908,22.7678,0.7322299999999999Q22.6809,0.6453899999999999,22.586,0.5674699999999999Q22.491,0.48956,22.3889,0.4213300000000002Q22.2868,0.3530899999999999,22.1785,0.2951999999999999Q22.0702,0.23729999999999984,21.9567,0.19030000000000014Q21.8432,0.14329999999999998,21.7257,0.10765000000000002Q21.6082,0.07200000000000006,21.4877,0.04803999999999986Q21.3673,0.0240800000000001,21.245,0.012039999999999829Q21.1228,0,21,0Q20.8482,0,20.6976,0.018359999999999932Q20.5469,0.036719999999999864,20.3996,0.07316000000000011Q20.2523,0.10960999999999999,20.1105,0.1636000000000002Q19.9686,0.21760000000000002,19.8344,0.28835999999999995Q19.7001,0.3591199999999999,19.5754,0.4456000000000002Q19.4507,0.5320800000000001,19.3374,0.633Q19.224,0.73393,19.1237,0.8478300000000001Q19.0234,0.96173,18.9377,1.08692L18.9367,1.08834L0.43813000000000013,28.0862L0.4376699999999998,28.0869Q0.2238500000000001,28.399,0.11192000000000002,28.7603Q0,29.1217,0,29.5Q0,29.6228,0.012039999999999829,29.745Q0.0240800000000001,29.8673,0.04803999999999986,29.9877Q0.07200000000000006,30.1082,0.10765000000000002,30.2257Q0.14329999999999998,30.3432,0.19030000000000014,30.4567Q0.23729999999999984,30.5702,0.2951999999999999,30.6785Q0.3530899999999999,30.7868,0.4213300000000002,30.8889Q0.48956,30.991,0.5674699999999999,31.086Q0.6453899999999999,31.1809,0.7322299999999999,31.2678Q0.81908,31.3546,0.91402,31.4325Q1.00896,31.5104,1.11107,31.5787Q1.21319,31.6469,1.32151,31.7048Q1.42982,31.7627,1.543292,31.8097Q1.65676,31.8567,1.7742879999999999,31.8924Q1.891817,31.928,2.012274,31.952Q2.132731,31.9759,2.254957,31.988Q2.377183,32,2.5,32Q2.651761,32,2.802408,31.9816Q2.953055,31.9633,3.100376,31.9268Q3.247696,31.8904,3.389526,31.8364Q3.5313600000000003,31.7824,3.66561,31.7116Q3.7998700000000003,31.6409,3.9245799999999997,31.5544Q4.04929,31.4679,4.16263,31.367Q4.2759599999999995,31.2661,4.37626,31.1522Q4.47655,31.0383,4.56233,30.9131L4.56279,30.9124L23.0614,3.91449L23.0623,3.91308L23.0623,3.91308Z" fill-rule="evenodd" fill="#FFFEFE" fill-opacity="1"/></g><g transform="matrix(-1,0,0,1,111,0)"><path d="M76.0623,3.91308Q76.2762,3.60101,76.38810000000001,3.239653Q76.5,2.878294,76.5,2.5Q76.5,2.377183,76.488,2.254957Q76.4759,2.132731,76.452,2.012274Q76.428,1.891817,76.3924,1.7742879999999999Q76.3567,1.65676,76.30969999999999,1.543292Q76.2627,1.42982,76.2048,1.32151Q76.1469,1.21319,76.0787,1.11107Q76.0104,1.00896,75.9325,0.91402Q75.8546,0.81908,75.7678,0.7322299999999999Q75.68090000000001,0.6453899999999999,75.586,0.5674699999999999Q75.491,0.48956,75.3889,0.4213300000000002Q75.2868,0.3530899999999999,75.1785,0.2951999999999999Q75.0702,0.23729999999999984,74.9567,0.19030000000000014Q74.8432,0.14329999999999998,74.7257,0.10765000000000002Q74.6082,0.07200000000000006,74.4877,0.04803999999999986Q74.3673,0.0240800000000001,74.245,0.012039999999999829Q74.1228,0,74,0Q73.84819999999999,0,73.6976,0.018359999999999932Q73.5469,0.036719999999999864,73.39959999999999,0.07316000000000011Q73.2523,0.10960999999999999,73.1105,0.1636000000000002Q72.9686,0.21760000000000002,72.8344,0.28835999999999995Q72.70009999999999,0.3591199999999999,72.5754,0.4456000000000002Q72.4507,0.5320800000000001,72.3374,0.633Q72.224,0.73393,72.1237,0.8478300000000001Q72.0234,0.96173,71.9377,1.08692L71.9367,1.08834L53.43813,28.0862L53.43767,28.0869Q53.22385,28.399,53.11192,28.7603Q53,29.1217,53,29.5Q53,29.6228,53.01204,29.745Q53.02408,29.8673,53.04804,29.9877Q53.072,30.1082,53.10765,30.2257Q53.143299999999996,30.3432,53.1903,30.4567Q53.2373,30.5702,53.2952,30.6785Q53.35309,30.7868,53.42133,30.8889Q53.48956,30.991,53.56747,31.086Q53.64539,31.1809,53.73223,31.2678Q53.81908,31.3546,53.91402,31.4325Q54.00896,31.5104,54.11107,31.5787Q54.21319,31.6469,54.32151,31.7048Q54.42982,31.7627,54.543292,31.8097Q54.65676,31.8567,54.774288,31.8924Q54.891817,31.928,55.012274,31.952Q55.132731,31.9759,55.254957,31.988Q55.377183,32,55.5,32Q55.651761,32,55.802408,31.9816Q55.953055,31.9633,56.100376,31.9268Q56.247696,31.8904,56.389526000000004,31.8364Q56.53136,31.7824,56.66561,31.7116Q56.79987,31.6409,56.92458,31.5544Q57.04929,31.4679,57.16263,31.367Q57.27596,31.2661,57.37626,31.1522Q57.47655,31.0383,57.56233,30.9131L57.56279,30.9124L76.06139999999999,3.91449L76.0623,3.91308L76.0623,3.91308Z" fill-rule="evenodd" fill="#FFFEFE" fill-opacity="1"/></g><g><path d="M15.139980883789063,25.2591C14.190210883789062,26.2372,14.932330883789064,27.8726,16.29388088378906,27.802L28.500030883789062,27.1685L40.70613088378906,27.802C42.067630883789064,27.8726,42.80983088378906,26.2372,41.860030883789065,25.2591L29.93483088378906,12.97772C29.149330883789062,12.168729,27.850630883789062,12.168729,27.065130883789063,12.97772L15.139980883789063,25.2591Z" fill="#FFFEFE" fill-opacity="1"/></g></g></svg>