<svg xmlns="http://www.w3.org/2000/svg" xmlns:xlink="http://www.w3.org/1999/xlink" fill="none" version="1.1" width="34.0078125" height="39.271484375" viewBox="0 0 34.0078125 39.271484375"><g><g><path d="M20.4036,20.7682Q20.8167,20.6404,21.2182,20.4816Q21.6197,20.3227,22.007,20.1338Q22.3943,19.9449,22.765,19.7271Q23.1357,19.5092,23.4875,19.2639Q23.8393,19.0185,24.1701,18.7471Q24.5008,18.4757,24.8084,18.1799Q25.116,17.8842,25.3986,17.5659Q25.6812,17.2477,25.937,16.9089Q26.1927,16.5701,26.4201,16.2129Q26.6475,15.8557,26.8451,15.4823Q27.0427,15.1089,27.2093,14.7216Q27.3759,14.3343,27.5104,13.9355Q27.6449,13.5367,27.7466,13.1289Q27.8482,12.7212,27.9163,12.3069Q27.9844,11.8926,28.0186,11.4745Q28.0527,11.0563,28.0527,10.6369Q28.0527,10.3757,28.0395,10.1149Q28.0262,9.85413,27.9998,9.59427Q27.9733,9.3344,27.9337,9.07611Q27.8941,8.81782,27.8414,8.56171Q27.7887,8.30561,27.7231,8.05232Q27.6575,7.79902,27.5791,7.54914Q27.5007,7.29927,27.4097,7.05341Q27.3187,6.80755,27.2154,6.56631Q27.1121,6.32507,26.9966,6.08902Q26.8812,5.85297,26.7539,5.62268Q26.6266,5.39239,26.4877,5.16842Q26.3489,4.94445,26.1989,4.72734Q26.0489,4.51022,25.888,4.30049Q25.7272,4.09076,25.5558,3.88891Q25.3845,3.68706,25.2032,3.49358Q25.0219,3.3001,24.8309,3.11546Q24.64,2.93082,24.4399,2.75547Q24.2398,2.58011,24.0311,2.41446Q23.8223,2.2488,23.6054,2.09325Q23.3885,1.9377,23.164,1.79263Q22.9395,1.64756,22.7079,1.51332Q22.4762,1.37908,22.2381,1.25599Q21.9999,1.1329,21.7558,1.02125Q21.5117,0.909609,21.2622,0.809683Q21.0128,0.709756,20.7585,0.621788Q20.5043,0.533819,20.2459,0.45802Q19.9875,0.38222,19.7255,0.318773Q19.4636,0.255326,19.1987,0.204384Q18.9339,0.153442,18.6668,0.115128Q18.3997,0.0768137,18.1309,0.0512194Q17.8622,0.0256251,17.5925,0.0128126Q17.3228,0,17.0527,0Q16.7827,0,16.513,0.0128126Q16.2433,0.0256251,15.9745,0.0512194Q15.7058,0.0768137,15.4387,0.115128Q15.1716,0.153442,14.9067,0.204384Q14.6419,0.255326,14.38,0.318773Q14.118,0.38222,13.8596,0.45802Q13.6012,0.533819,13.3469,0.621788Q13.0927,0.709756,12.8432,0.809683Q12.5937,0.909609,12.3496,1.02125Q12.1055,1.1329,11.8674,1.25599Q11.6292,1.37908,11.3976,1.51332Q11.166,1.64756,10.9415,1.79263Q10.7169,1.9377,10.5,2.09325Q10.2831,2.2488,10.0744,2.41446Q9.86567,2.58011,9.66559,2.75547Q9.4655,2.93082,9.27456,3.11546Q9.08362,3.3001,8.90227,3.49358Q8.72093,3.68706,8.54962,3.88891Q8.37831,4.09076,8.21745,4.30049Q8.05659,4.51022,7.90657,4.72734Q7.75654,4.94445,7.61772,5.16842Q7.47889,5.39239,7.3516,5.62268Q7.22431,5.85297,7.10885,6.08902Q6.9934,6.32507,6.89006,6.56631Q6.78672,6.80755,6.69575,7.05341Q6.60478,7.29927,6.52639,7.54914Q6.448,7.79902,6.38239,8.05231Q6.31678,8.30561,6.2641,8.56171Q6.21141,8.81782,6.17179,9.07611Q6.13217,9.3344,6.1057,9.59427Q6.07923,9.85413,6.06598,10.1149Q6.05273,10.3757,6.05273,10.6369Q6.05273,11.0532,6.08639,11.4683Q6.12005,11.8834,6.18716,12.2947Q6.25426,12.7059,6.35441,13.1109Q6.45456,13.5158,6.58713,13.912Q6.71971,14.3081,6.8839,14.693Q7.04809,15.0779,7.24289,15.4492Q7.43769,15.8205,7.66191,16.176Q7.88613,16.5314,8.1384,16.8688Q8.39067,17.2063,8.66944,17.5236Q8.94821,17.8409,9.25178,18.1362Q9.55535,18.4314,9.88186,18.7029Q10.2084,18.9743,10.5558,19.2202Q10.9033,19.4661,11.2695,19.685Q11.6358,19.9039,12.0186,20.0945Q12.4015,20.285,12.7985,20.446Q13.1956,20.6071,13.6045,20.7376L13.6045,22.3066L8,22.3066Q7.80361,22.3066,7.60746,22.3163Q7.41131,22.3259,7.21586,22.3452Q7.02042,22.3644,6.82616,22.3932Q6.63189,22.422,6.43928,22.4604Q6.24666,22.4987,6.05616,22.5464Q5.86565,22.5941,5.67772,22.6511Q5.48979,22.7081,5.30488,22.7743Q5.11997,22.8404,4.93853,22.9156Q4.75709,22.9908,4.57956,23.0747Q4.40203,23.1587,4.22883,23.2513Q4.05563,23.3438,3.88718,23.4448Q3.71873,23.5458,3.55544,23.6549Q3.39215,23.764,3.23441,23.881Q3.07666,23.998,2.92485,24.1226Q2.77304,24.2471,2.62753,24.379Q2.48201,24.5109,2.34315,24.6498Q2.20428,24.7887,2.07239,24.9342Q1.9405,25.0797,1.81592,25.2315Q1.69133,25.3833,1.57434,25.541Q1.45735,25.6988,1.34824,25.8621Q1.23914,26.0254,1.13817,26.1938Q1.03721,26.3623,0.94463,26.5355Q0.852053,26.7087,0.768086,26.8862Q0.684118,27.0637,0.608964,27.2452Q0.533809,27.4266,0.467647,27.6115Q0.401486,27.7964,0.344477,27.9844Q0.287469,28.1723,0.23975,28.3628Q0.192031,28.5533,0.153718,28.7459Q0.115404,28.9385,0.0865879,29.1328Q0.0577717,29.3271,0.0385222,29.5225Q0.0192727,29.7179,0.00963635,29.9141Q0,30.1103,0,30.3066L0,31.2715Q0,31.4679,0.00963635,31.664Q0.0192727,31.8602,0.0385222,32.0556Q0.0577717,32.2511,0.0865879,32.4453Q0.115404,32.6396,0.153718,32.8322Q0.192031,33.0248,0.23975,33.2153Q0.287469,33.4058,0.344477,33.5938Q0.401486,33.7817,0.467647,33.9666Q0.533809,34.1515,0.608964,34.3329Q0.684118,34.5144,0.768086,34.6919Q0.852053,34.8695,0.94463,35.0427Q1.03721,35.2159,1.13817,35.3843Q1.23914,35.5527,1.34824,35.716Q1.45735,35.8793,1.57434,36.0371Q1.69133,36.1948,1.81592,36.3466Q1.9405,36.4984,2.07239,36.644Q2.20428,36.7895,2.34315,36.9283Q2.48201,37.0672,2.62753,37.1991Q2.77304,37.331,2.92485,37.4556Q3.07666,37.5802,3.23441,37.6971Q3.39215,37.8141,3.55544,37.9232Q3.71873,38.0323,3.88718,38.1333Q4.05563,38.2343,4.22883,38.3269Q4.40203,38.4194,4.57956,38.5034Q4.75709,38.5874,4.93853,38.6625Q5.11997,38.7377,5.30488,38.8038Q5.48979,38.87,5.67772,38.927Q5.86565,38.984,6.05616,39.0317Q6.24666,39.0795,6.43928,39.1178Q6.63189,39.1561,6.82616,39.1849Q7.02042,39.2137,7.21586,39.233Q7.41131,39.2522,7.60746,39.2618Q7.80361,39.2715,8,39.2715L26.0076,39.2715Q26.204,39.2715,26.4001,39.2618Q26.5963,39.2522,26.7917,39.233Q26.9871,39.2137,27.1814,39.1849Q27.3757,39.1561,27.5683,39.1178Q27.7609,39.0795,27.9514,39.0317Q28.1419,38.984,28.3298,38.927Q28.5178,38.87,28.7027,38.8038Q28.8876,38.7377,29.069,38.6625Q29.2505,38.5874,29.428,38.5034Q29.6055,38.4194,29.7787,38.3269Q29.9519,38.2343,30.1204,38.1333Q30.2888,38.0323,30.4521,37.9232Q30.6154,37.8141,30.7732,37.6971Q30.9309,37.5802,31.0827,37.4556Q31.2345,37.331,31.38,37.1991Q31.5256,37.0672,31.6644,36.9283Q31.8033,36.7895,31.9352,36.644Q32.0671,36.4984,32.1917,36.3466Q32.3162,36.1948,32.4332,36.0371Q32.5502,35.8793,32.6593,35.716Q32.7684,35.5527,32.8694,35.3843Q32.9704,35.2159,33.0629,35.0427Q33.1555,34.8695,33.2395,34.6919Q33.3234,34.5144,33.3986,34.3329Q33.4738,34.1515,33.5399,33.9666Q33.6061,33.7817,33.6631,33.5938Q33.7201,33.4058,33.7678,33.2153Q33.8155,33.0248,33.8538,32.8322Q33.8922,32.6396,33.921,32.4453Q33.9498,32.2511,33.969,32.0556Q33.9883,31.8602,33.9979,31.664Q34.0076,31.4679,34.0076,31.2715L34.0076,30.3066Q34.0076,30.1103,33.9979,29.9141Q33.9883,29.7179,33.969,29.5225Q33.9498,29.3271,33.921,29.1328Q33.8922,28.9385,33.8538,28.7459Q33.8155,28.5533,33.7678,28.3628Q33.7201,28.1723,33.6631,27.9844Q33.6061,27.7964,33.5399,27.6115Q33.4738,27.4266,33.3986,27.2452Q33.3234,27.0637,33.2395,26.8862Q33.1555,26.7087,33.0629,26.5355Q32.9704,26.3623,32.8694,26.1938Q32.7684,26.0254,32.6593,25.8621Q32.5502,25.6988,32.4332,25.541Q32.3162,25.3833,32.1917,25.2315Q32.0671,25.0797,31.9352,24.9342Q31.8033,24.7887,31.6644,24.6498Q31.5256,24.5109,31.38,24.379Q31.2345,24.2471,31.0827,24.1226Q30.9309,23.998,30.7732,23.881Q30.6154,23.764,30.4521,23.6549Q30.2888,23.5458,30.1204,23.4448Q29.9519,23.3438,29.7787,23.2513Q29.6055,23.1587,29.428,23.0747Q29.2505,22.9908,29.069,22.9156Q28.8876,22.8404,28.7027,22.7743Q28.5178,22.7081,28.3298,22.6511Q28.1419,22.5941,27.9514,22.5464Q27.7609,22.4987,27.5683,22.4604Q27.3757,22.422,27.1814,22.3932Q26.9871,22.3644,26.7917,22.3452Q26.5963,22.3259,26.4001,22.3163Q26.204,22.3066,26.0076,22.3066L20.4036,22.3066L20.4036,20.7682ZM24.0527,10.6369Q24.0527,7.92724,22.0503,5.99096Q19.9914,4,17.0527,4Q14.1141,4,12.0551,5.99096Q10.0527,7.92724,10.0527,10.6369Q10.0527,13.3465,12.0551,15.2828Q14.1141,17.2737,17.0527,17.2737Q19.9914,17.2737,22.0503,15.2828Q24.0527,13.3465,24.0527,10.6369ZM8.98145,26.8506Q8.8148,26.8506,8.64896,26.8669Q8.48312,26.8833,8.31968,26.9158Q8.15624,26.9483,7.99677,26.9966Q7.83731,27.045,7.68335,27.1088Q7.52939,27.1726,7.38242,27.2511Q7.23546,27.3297,7.0969,27.4223Q6.95834,27.5148,6.82953,27.6206Q6.70071,27.7263,6.58287,27.8441Q6.46504,27.9619,6.35932,28.0908Q6.25361,28.2196,6.16102,28.3581Q6.06844,28.4967,5.98989,28.6437Q5.91133,28.7906,5.84756,28.9446Q5.78379,29.0985,5.73542,29.258Q5.68704,29.4175,5.65453,29.5809Q5.62202,29.7444,5.60569,29.9102Q5.58936,30.076,5.58936,30.2427Q5.58936,30.4093,5.60569,30.5752Q5.62202,30.741,5.65453,30.9044Q5.68704,31.0679,5.73542,31.2273Q5.78379,31.3868,5.84756,31.5408Q5.91133,31.6947,5.98989,31.8417Q6.06844,31.9887,6.16102,32.1272Q6.25361,32.2658,6.35932,32.3946Q6.46504,32.5234,6.58287,32.6412Q6.70071,32.7591,6.82953,32.8648Q6.95834,32.9705,7.0969,33.0631Q7.23546,33.1557,7.38242,33.2342Q7.52939,33.3128,7.68335,33.3766Q7.83731,33.4403,7.99677,33.4887Q8.15624,33.5371,8.31968,33.5696Q8.48312,33.6021,8.64896,33.6184Q8.8148,33.6348,8.98145,33.6348L25.0266,33.6348Q25.1933,33.6348,25.3591,33.6184Q25.5249,33.6021,25.6884,33.5696Q25.8518,33.5371,26.0113,33.4887Q26.1707,33.4403,26.3247,33.3766Q26.4787,33.3128,26.6256,33.2342Q26.7726,33.1557,26.9112,33.0631Q27.0497,32.9705,27.1785,32.8648Q27.3073,32.7591,27.4252,32.6412Q27.543,32.5234,27.6487,32.3946Q27.7544,32.2658,27.847,32.1272Q27.9396,31.9887,28.0182,31.8417Q28.0967,31.6947,28.1605,31.5408Q28.2243,31.3868,28.2726,31.2273Q28.321,31.0679,28.3535,30.9044Q28.386,30.741,28.4024,30.5752Q28.4187,30.4093,28.4187,30.2427Q28.4187,30.076,28.4024,29.9102Q28.386,29.7444,28.3535,29.5809Q28.321,29.4175,28.2726,29.258Q28.2243,29.0985,28.1605,28.9446Q28.0967,28.7906,28.0182,28.6437Q27.9396,28.4967,27.847,28.3581Q27.7544,28.2196,27.6487,28.0908Q27.543,27.9619,27.4252,27.8441Q27.3073,27.7263,27.1785,27.6206Q27.0497,27.5148,26.9112,27.4223Q26.7726,27.3297,26.6256,27.2511Q26.4787,27.1726,26.3247,27.1088Q26.1707,27.045,26.0113,26.9966Q25.8518,26.9483,25.6884,26.9158Q25.5249,26.8833,25.3591,26.8669Q25.1933,26.8506,25.0266,26.8506L8.98145,26.8506Z" fill-rule="evenodd" fill="#FDFDFE" fill-opacity="1"/></g></g></svg>
