<svg xmlns="http://www.w3.org/2000/svg" xmlns:xlink="http://www.w3.org/1999/xlink" fill="none" version="1.1" width="42"
     height="42.8369140625" viewBox="0 0 42 42.8369140625">
    <g>
        <path d="M33.4069,37.9431Q32.7373,38.4334,32.031,38.8694Q31.3247,39.3054,30.5862,39.6843Q29.8478,40.0632,29.0817,40.3826Q28.3156,40.702,27.5267,40.96Q26.7378,41.218,25.931,41.4129Q25.1242,41.6078,24.3045,41.7384Q23.4848,41.869,22.6574,41.9345Q21.83,42,21,42Q20.4845,42,19.9696,41.9747Q19.4547,41.9494,18.9416,41.8989Q18.4286,41.8483,17.9187,41.7727Q17.4087,41.6971,16.9031,41.5965Q16.3975,41.4959,15.8974,41.3706Q15.3973,41.2454,14.904,41.0957Q14.4107,40.9461,13.9253,40.7724Q13.4399,40.5987,12.9636,40.4015Q12.4874,40.2042,12.0213,39.9838Q11.5553,39.7634,11.1007,39.5203Q10.646,39.2773,10.2038,39.0123Q9.76166,38.7473,9.33302,38.4609Q8.90438,38.1744,8.49031,37.8674Q8.07624,37.5603,7.67774,37.2332Q7.27924,36.9062,6.89726,36.56Q6.51529,36.2138,6.15076,35.8492Q5.78623,35.4847,5.44003,35.1027Q5.09382,34.7208,4.76678,34.3223Q4.43974,33.9238,4.13264,33.5097Q3.82555,33.0956,3.53914,32.667Q3.25273,32.2383,2.9877,31.7962Q2.72267,31.354,2.47965,30.8993Q2.23664,30.4447,2.01622,29.9787Q1.79581,29.5126,1.59853,29.0363Q1.40125,28.5601,1.22757,28.0747Q1.0539,27.5893,0.904253,27.096Q0.754605,26.6027,0.629344,26.1026Q0.504082,25.6025,0.403509,25.0969Q0.302936,24.5913,0.227293,24.0813Q0.151651,23.5714,0.101121,23.0584Q0.0505908,22.5453,0.0252954,22.0304Q0,21.5155,0,21Q0,20.4845,0.0252954,19.9696Q0.0505908,19.4547,0.101121,18.9416Q0.151651,18.4286,0.227293,17.9187Q0.302936,17.4087,0.403509,16.9031Q0.504082,16.3975,0.629344,15.8974Q0.754605,15.3973,0.904253,14.904Q1.0539,14.4107,1.22757,13.9253Q1.40125,13.4399,1.59853,12.9636Q1.79581,12.4874,2.01622,12.0213Q2.23664,11.5553,2.47965,11.1007Q2.72267,10.646,2.9877,10.2038Q3.25273,9.76166,3.53914,9.33302Q3.82555,8.90438,4.13264,8.49031Q4.43974,8.07624,4.76678,7.67774Q5.09382,7.27924,5.44003,6.89726Q5.78623,6.51529,6.15076,6.15076Q6.51529,5.78623,6.89726,5.44003Q7.27924,5.09382,7.67774,4.76678Q8.07624,4.43974,8.49031,4.13264Q8.90438,3.82555,9.33302,3.53914Q9.76166,3.25273,10.2038,2.9877Q10.646,2.72267,11.1007,2.47965Q11.5553,2.23664,12.0213,2.01622Q12.4874,1.79581,12.9636,1.59853Q13.4399,1.40125,13.9253,1.22757Q14.4107,1.0539,14.904,0.904253Q15.3973,0.754605,15.8974,0.629344Q16.3975,0.504082,16.9031,0.403509Q17.4087,0.302936,17.9187,0.227293Q18.4286,0.151651,18.9416,0.101121Q19.4547,0.0505908,19.9696,0.0252954Q20.4845,0,21,0Q21.5155,0,22.0304,0.0252954Q22.5453,0.0505908,23.0584,0.101121Q23.5714,0.151651,24.0813,0.227293Q24.5913,0.302936,25.0969,0.403509Q25.6025,0.504082,26.1026,0.629344Q26.6027,0.754605,27.096,0.904253Q27.5893,1.0539,28.0747,1.22757Q28.5601,1.40125,29.0363,1.59853Q29.5126,1.79581,29.9787,2.01622Q30.4447,2.23664,30.8993,2.47965Q31.354,2.72267,31.7962,2.9877Q32.2383,3.25273,32.667,3.53914Q33.0956,3.82555,33.5097,4.13264Q33.9238,4.43974,34.3223,4.76678Q34.7208,5.09382,35.1027,5.44003Q35.4847,5.78623,35.8492,6.15076Q36.2138,6.51529,36.56,6.89726Q36.9062,7.27924,37.2332,7.67774Q37.5603,8.07624,37.8673,8.49031Q38.1744,8.90438,38.4609,9.33302Q38.7473,9.76166,39.0123,10.2038Q39.2773,10.646,39.5203,11.1007Q39.7634,11.5553,39.9838,12.0213Q40.2042,12.4874,40.4015,12.9636Q40.5987,13.4399,40.7724,13.9253Q40.9461,14.4107,41.0957,14.904Q41.2454,15.3973,41.3707,15.8974Q41.4959,16.3975,41.5965,16.9031Q41.6971,17.4087,41.7727,17.9187Q41.8483,18.4286,41.8989,18.9416Q41.9494,19.4547,41.9747,19.9696Q42,20.4845,42,21Q42,21.9193,41.9197,22.835Q41.8393,23.7507,41.6793,24.656Q41.5193,25.5612,41.2808,26.4489Q41.0422,27.3367,40.7271,28.2002Q40.4119,29.0638,40.0224,29.8965Q39.633,30.7292,39.1723,31.5246Q38.7116,32.3201,38.1831,33.0723Q37.6547,33.8245,37.0625,34.5276L41.2502,38.7153Q41.3895,38.8546,41.4989,39.0183Q41.6084,39.1821,41.6838,39.3641Q41.7591,39.5461,41.7976,39.7393Q41.836,39.9325,41.836,40.1295Q41.836,40.3265,41.7976,40.5197Q41.7591,40.7129,41.6838,40.8949Q41.6084,41.0768,41.4989,41.2406Q41.3895,41.4044,41.2502,41.5437L40.5431,42.2508Q40.4736,42.3203,40.3977,42.3826Q40.3217,42.4449,40.24,42.4995Q40.1583,42.5541,40.0717,42.6004Q39.985,42.6467,39.8942,42.6843Q39.8035,42.7219,39.7094,42.7505Q39.6154,42.779,39.5191,42.7982Q39.4227,42.8173,39.3249,42.827Q39.2271,42.8366,39.1289,42.8366Q39.0306,42.8366,38.9328,42.827Q38.8351,42.8173,38.7387,42.7982Q38.6423,42.779,38.5483,42.7505Q38.4543,42.722,38.3635,42.6843Q38.2727,42.6467,38.1861,42.6004Q38.0994,42.5541,38.0177,42.4995Q37.9361,42.4449,37.8601,42.3826Q37.7841,42.3203,37.7147,42.2508L33.4069,37.9431ZM37,21Q37,17.9481,35.8766,15.1105Q34.6569,12.0294,32.3137,9.68629Q29.9706,7.34315,26.8895,6.12339Q24.0519,5,21,5Q17.9481,5,15.1105,6.12339Q12.0294,7.34315,9.68629,9.68629Q7.34315,12.0294,6.12339,15.1105Q5,17.9481,5,21Q5,24.0519,6.12339,26.8895Q7.34315,29.9706,9.68629,32.3137Q12.0294,34.6569,15.1105,35.8766Q17.9481,37,21,37Q24.0519,37,26.8895,35.8766Q29.9706,34.6569,32.3137,32.3137Q34.6569,29.9706,35.8766,26.8895Q37,24.0519,37,21Z"
              fill-rule="evenodd" fill="#FFFFFF" fill-opacity="1"/>
    </g>
</svg>