<svg xmlns="http://www.w3.org/2000/svg" xmlns:xlink="http://www.w3.org/1999/xlink" fill="none" version="1.1" width="61.154296875" height="60" viewBox="0 0 61.154296875 60"><g><g transform="matrix(0.8660253882408142,0.5,-0.5,0.8660253882408142,2.864950254879659,-10.692138671875)"><path d="M62.77107734375,18.3888L62.76477734375,18.3874L62.01557734375,18.2177L61.95017734375,18.1981C59.82047734375,17.5605,58.01087734375,16.1658,56.87357734375,14.2217C55.73487734375,12.2653,55.41667734375,9.98857,55.94047734375,7.8403L55.96027734375,7.75927L56.18577734375,7.08942L56.18707734375,7.07996C56.18947734375,7.06072,56.19067734375,7.03621,56.18987734375,7.00763C56.18807734375,6.93477,56.17447734375,6.8503,56.14947734375,6.7653C56.12437734375,6.6803,56.08997734375,6.60186,56.05187734375,6.53949C56.03027734375,6.50408,56.01237734375,6.48127,56.00367734375,6.47198C55.99147734375,6.46247,55.97567734375,6.45038,55.95617734375,6.43573C55.87077734375,6.37144,55.75707734375,6.2901,55.61317734375,6.19197C55.17527734375,5.89348,54.59147734375,5.53029,53.84557734375,5.1042C53.096877343749995,4.6799,52.48567734375,4.36113,52.004877343749996,4.13367C51.84617734375,4.05858,51.71737734375,4.00094,51.61747734375,3.95888C51.59917734375,3.95115,51.580877343750004,3.94356,51.562477343750004,3.93611L51.55447734375,3.93469C51.53177734375,3.93103,51.50887734375,3.92903,51.485877343750005,3.9287C51.41517734375,3.92705,51.33187734375,3.93629,51.24687734375,3.95674C51.16107734375,3.97741,51.08077734375,4.00781,51.01577734375,4.04281C50.970877343750004,4.06697,50.94357734375,4.08737,50.93867734375,4.0925L50.420377343750005,4.64052L50.37657734375,4.6815C48.75987734375,6.19523,46.624977343750004,7.05036,44.34927734375,7.05036C42.06957734375,7.05036,39.91617734375,6.18389,38.30047734375,4.66016L38.258577343750005,4.6207L37.758577343750005,4.09085L37.75417734375,4.08616C37.66277734375,3.98875,37.27227734375,3.89366,37.14037734375,3.9341C37.12427734375,3.94044,37.10237734375,3.94928,37.07467734375,3.96089C36.97437734375,4.00286,36.84507734375,4.06032,36.68607734375,4.13523C36.20457734375,4.36194,35.59397734375,4.67963,34.84767734375,5.10246C34.10367734375,5.53105,33.52287734375,5.89553,33.08837734375,6.19443C32.94567734375,6.2926,32.83327734375,6.37381,32.74907734375,6.43783C32.73057734375,6.45181,32.71227734375,6.466,32.694077343749996,6.48042L32.68837734375,6.48515C32.69017734375,6.48364,32.68777734375,6.48605,32.68207734375,6.49274C32.67047734375,6.50649,32.65697734375,6.52511,32.64287734375,6.54815C32.60617734375,6.60761,32.57287734375,6.68302,32.54847734375,6.76539C32.52387734375,6.84852,32.51047734375,6.93173,32.50867734375,7.00419C32.50737734375,7.05402,32.51157734375,7.0871,32.51417734375,7.0958L32.72937734375,7.79762L32.74367734375,7.85749C33.25727734375,10.0096,32.94287734375,12.2726,31.80817734375,14.2214C30.671027343749998,16.1761,28.83978734375,17.5823,26.69498734375,18.2097L26.63227734375,18.228L26.56849734375,18.2422L25.91471734375,18.3879C25.78448734375,18.4172,25.50434734375,18.7047,25.47218734375,18.8402C25.46979734375,18.8562,25.46677734375,18.8777,25.46325734375,18.9052C25.44985734375,19.0102,25.43560734375,19.1479,25.42184734375,19.32C25.37980734375,19.8443,25.35395734375,20.5267,25.35395734375,21.3807C25.35395734375,22.2343,25.37980734375,22.9165,25.42184734375,23.4407C25.43560734375,23.6127,25.44981734375,23.7504,25.46325734375,23.8555C25.46695734375,23.8843,25.47006734375,23.9066,25.47250734375,23.9227C25.503137343749998,24.0582,25.77906734375,24.3425,25.90961734375,24.3716L25.91548734375,24.3729L26.62109734375,24.5342L26.678607343750002,24.551C28.82841734375,25.1802,30.66588734375,26.5893,31.800877343750003,28.5488C32.93867734375,30.505,33.25647734375,32.7807,32.73317734375,34.9283L32.72077734375,34.9794L32.51457734375,35.6625L32.51277734375,35.6684C32.51327734375,35.6666,32.51237734375,35.6709,32.51117734375,35.6807C32.50877734375,35.6999,32.50757734375,35.7244,32.50827734375,35.7531C32.51007734375,35.826,32.52377734375,35.9105,32.548777343750004,35.9955C32.57387734375,36.0805,32.608277343750004,36.1589,32.64627734375,36.2212C32.66787734375,36.2565,32.68567734375,36.2792,32.69417734375,36.2883C32.70647734375,36.2979,32.72227734375,36.3101,32.74187734375,36.3248C32.82747734375,36.3892,32.94127734375,36.4706,33.08527734375,36.5687C33.52397734375,36.8679,34.10867734375,37.2317,34.85507734375,37.6584C35.60257734375,38.0854,36.21157734375,38.4037,36.68957734375,38.6287C36.84617734375,38.7025,36.97297734375,38.7587,37.07067734375,38.7992C37.09697734375,38.8101,37.11747734375,38.8184,37.13237734375,38.8242C37.13347734375,38.8243,37.13707734375,38.8251,37.14297734375,38.8261C37.16117734375,38.8293,37.184477343750004,38.8315,37.212077343749996,38.8321C37.28307734375,38.8338,37.36647734375,38.8246,37.45157734375,38.804C37.537377343749995,38.7834,37.61767734375,38.753,37.68267734375,38.718C37.72637734375,38.6945,37.75337734375,38.6745,37.76137734375,38.6664L38.25207734375,38.1458L38.29697734375,38.1038C39.923077343749995,36.5807,42.06637734375,35.7185,44.34927734375,35.7185C46.63317734375,35.7185,48.787377343749995,36.5896,50.40657734375,38.1172L50.44847734375,38.1567L50.94057734375,38.6783L50.94497734375,38.6831C51.03607734375,38.7803,51.42627734375,38.8752,51.55937734375,38.8344C51.57537734375,38.8281,51.597177343750005,38.8193,51.62477734375,38.8078C51.72507734375,38.7659,51.854177343749996,38.7085,52.01307734375,38.6337C52.49517734375,38.4068,53.106577343750004,38.0885,53.85417734375,37.6647C54.59847734375,37.2397,55.17917734375,36.8776,55.61307734375,36.5801C55.75517734375,36.4827,55.86697734375,36.4021,55.95057734375,36.3386C55.96877734375,36.3249,55.98687734375,36.3109,56.00467734375,36.2967L56.01047734375,36.2919C56.00787734375,36.294,56.00987734375,36.2921,56.01517734375,36.2859C56.02667734375,36.2722,56.04017734375,36.2536,56.05437734375,36.2304C56.09127734375,36.1702,56.12497734375,36.0935,56.14967734375,36.0097C56.17467734375,35.925,56.18827734375,35.8401,56.19017734375,35.7663C56.19137734375,35.7155,56.18727734375,35.682,56.18427734375,35.6723L56.18277734375,35.6676L55.96867734375,34.9614L55.95527734375,34.9055C55.44057734375,32.7593,55.75607734375,30.4944,56.89057734375,28.5552C58.02827734375,26.6009,59.86757734375,25.187,62.01097734375,24.559L62.06897734375,24.5421L62.76947734375,24.382L62.77727734375,24.3802C62.90647734375,24.3512,63.18657734375,24.0639,63.21857734375,23.9288C63.22097734375,23.9129,63.22397734375,23.8913,63.22747734375,23.8639C63.24087734375,23.7588,63.25507734375,23.6211,63.26887734375,23.4491C63.31067734375,22.9256,63.33657734375,22.2445,63.33657734375,21.3924C63.33317734375,20.5564,63.30637734375,19.8833,63.26467734375,19.3605C63.24987734375,19.1755,63.23467734375,19.0273,63.22027734375,18.914C63.21717734375,18.8896,63.21377734375,18.8652,63.21027734375,18.8408C63.17817734375,18.7059,62.89847734375,18.4172,62.77107734375,18.3888ZM34.84167734375,5.10581L34.853577343750004,5.09902Q34.84767734375,5.10242,34.84167734375,5.10581ZM67.11837734375,18.1505L67.11837734375,18.1508C67.15007734375,18.3246,67.18757734375001,18.6196,67.22207734375,19.0514C67.27187734374999,19.6754,67.30247734375,20.4475,67.30627734375,21.3808L67.30627734375,21.3885C67.30627734375,22.3432,67.27657734375,23.1287,67.22617734375001,23.7591C67.19337734375,24.1683,67.15757734375,24.4496,67.12757734375,24.6147C66.82347734375,26.3004,65.34217734375,27.831,63.65947734375,28.2107L63.08487734375,28.342C61.93047734375,28.6943,60.94467734375,29.4609,60.32807734375,30.52C59.71557734375,31.5671,59.53957734375,32.7818,59.80577734375,33.947L59.98447734375,34.5366C60.48337734375,36.1718,59.88847734375,38.1943,58.56957734375,39.2953C58.43557734375,39.4082,58.20887734375,39.5798,57.87347734375,39.8097C57.34667734375,40.1709,56.67297734375,40.591,55.83527734375,41.0692L55.83027734375,41.0721C54.99607734375,41.5451,54.29457734375,41.9102,53.71827734375,42.1815C53.50647734375,42.2811,53.323377343749996,42.3626,53.16787734375,42.4275C53.06107734375,42.4721,52.98007734375,42.5037,52.92477734375,42.5236C51.29647734375,43.1114,49.214877343750004,42.6118,48.036977343749996,41.3573L47.62917734375,40.925C46.74557734375,40.1094,45.584777343750005,39.6472,44.34927734375,39.6472C43.11097734375,39.6472,41.95757734375,40.1035,41.06707734375,40.9188L40.66017734375,41.3505L40.65567734375,41.3552C39.47227734375,42.6025,37.405377343750004,43.1011,35.77947734375,42.5178C35.61707734375,42.4599,35.35477734375,42.3509,34.984577343750004,42.1766C34.40877734375,41.9055,33.70697734375,41.5387,32.870277343750004,41.0608C32.03447734375,40.583,31.36094734375,40.1639,30.83328734375,39.8041C30.49090734375,39.5707,30.262157343749998,39.3986,30.130567343750002,39.2884L30.12677734375,39.2853C28.81181734375,38.179,28.214567343749998,36.1572,28.71415734375,34.5275L28.88530734375,33.9603C29.15632734375,32.7969,28.978817343750002,31.5712,28.35986734375,30.5077L28.35756734375,30.5037C27.74695734375,29.449,26.76585734375,28.6877,25.60553734375,28.3342L25.03245734375,28.2032C23.34254734375,27.8241,21.86709134375,26.2944,21.56390634375,24.6098C21.53341234375,24.4423,21.49741434375,24.1609,21.46457434375,23.7515C21.41404994375,23.121,21.38427734375,22.3354,21.38427734375,21.3807C21.38427734375,20.4257,21.41404994375,19.6398,21.46457314375,19.0091C21.49741334375,18.5997,21.53341134375,18.3183,21.56322834375,18.1544C21.86699934375,16.4676,23.350257343750002,14.9361,25.038417343749998,14.5561L25.627187343750002,14.4249C26.78010734375,14.0725,27.75538734375,13.3141,28.36838734375,12.2605C28.98283734375,11.2051,29.15898734375,9.98901,28.89310734375,8.81557L28.71514734375,8.23518C28.21483734375,6.59904,28.80974734375,4.58288,30.12975734375,3.48141C30.262517343749998,3.36966,30.48815734375,3.19858,30.82264734375,2.96848C31.348267343750003,2.60686,32.02077734375,2.18496,32.85707734375,1.70334L32.86307734375,1.6999L32.868977343750004,1.69655C33.70317734375,1.22376,34.40437734375,0.858835,34.980477343749996,0.587573C35.19207734375,0.48797,35.37507734375,0.406538,35.530377343750004,0.34158C35.63707734375,0.297069,35.717877343750004,0.265505,35.77407734375,0.245236C37.40217734375,-0.342468,39.48367734375,0.157286,40.66157734375,1.41118L41.07737734375,1.85182C41.95597734375,2.66231,43.11527734375,3.12166,44.34927734375,3.12166C45.58307734375,3.12166,46.72807734375,2.67048,47.60817734375,1.86486L48.04307734375,1.40502C49.22797734375,0.156973,51.29777734375,-0.341575,52.92387734375,0.245147L52.93047734375,0.247513C52.98577734375,0.267692,53.06577734375,0.299167,53.17127734375,0.343633C53.32527734375,0.408458,53.50687734375,0.489666,53.71697734375,0.589135C54.28947734375,0.85995,54.98817734375,1.22443,55.82127734375,1.69655L55.82707734375,1.69985C56.66327734375,2.17755,57.33707734375,2.59668,57.86487734375,2.95647C58.20747734375,3.18996,58.43637734375,3.3622,58.56807734375,3.47252L58.57187734375,3.47569C59.88837734375,4.58395,60.48527734375,6.60931,59.98197734375,8.24005L59.97467734375,8.26362L59.78187734375,8.83615C59.51977734375,9.9912,59.69937734375,11.2058,60.31117734375,12.2569C60.92507734375,13.3063,61.88957734375,14.0595,63.03967734375,14.4193L63.64747734375,14.557C65.33507734375,14.9351,66.81227734375,16.4698,67.11837734375,18.1505Z" fill="#FFFFFF" fill-opacity="1"/></g><g><path d="M30.5,40Q30.73321,40,30.96614,39.988600000000005Q31.1991,39.9771,31.4312,39.9543Q31.6633,39.9314,31.893900000000002,39.8972Q32.1246,39.863,32.3534,39.817499999999995Q32.5821,39.772,32.8083,39.7153Q33.0345,39.6586,33.2577,39.590900000000005Q33.4809,39.5232,33.7005,39.4447Q33.92,39.3661,34.1355,39.2769Q34.350899999999996,39.1876,34.5618,39.087900000000005Q34.7726,38.9882,34.978300000000004,38.8782Q35.1839,38.768299999999996,35.384,38.648399999999995Q35.584,38.5285,35.7779,38.399Q35.9718,38.269400000000005,36.1591,38.1305Q36.3465,37.9915,36.5267,37.843599999999995Q36.707,37.6956,36.8798,37.539Q37.0526,37.382400000000004,37.2175,37.2175Q37.382400000000004,37.0526,37.539,36.8798Q37.6956,36.707,37.843599999999995,36.5267Q37.9915,36.3465,38.1305,36.1591Q38.269400000000005,35.9718,38.399,35.7779Q38.5285,35.584,38.648399999999995,35.384Q38.768299999999996,35.1839,38.878299999999996,34.978300000000004Q38.9882,34.7726,39.087900000000005,34.5618Q39.1876,34.350899999999996,39.2769,34.1355Q39.3661,33.92,39.4447,33.7005Q39.5232,33.4809,39.590900000000005,33.2577Q39.6586,33.0345,39.7153,32.8083Q39.772,32.5821,39.817499999999995,32.3534Q39.863,32.1246,39.8972,31.893900000000002Q39.9314,31.6633,39.9543,31.4312Q39.9771,31.1991,39.988600000000005,30.96614Q40,30.73321,40,30.5Q40,30.26679,39.988600000000005,30.03386Q39.9771,29.80093,39.9543,29.56884Q39.9314,29.336750000000002,39.8972,29.10606Q39.863,28.87537,39.817499999999995,28.646639999999998Q39.772,28.41791,39.7153,28.19169Q39.6586,27.96547,39.590900000000005,27.7423Q39.5232,27.51913,39.4447,27.29955Q39.3661,27.07997,39.2769,26.86451Q39.1876,26.64905,39.087900000000005,26.43823Q38.9882,26.22741,38.8782,26.021729999999998Q38.768299999999996,25.81606,38.648399999999995,25.61602Q38.5285,25.41599,38.399,25.22208Q38.269400000000005,25.02817,38.1305,24.84086Q37.9915,24.65354,37.843599999999995,24.47326Q37.6956,24.29299,37.539,24.12019Q37.382400000000004,23.94739,37.2175,23.78249Q37.0526,23.61758,36.8798,23.46096Q36.707,23.30435,36.5267,23.1564Q36.3465,23.00845,36.1591,22.86953Q35.9718,22.7306,35.7779,22.60104Q35.584,22.47147,35.384,22.35158Q35.1839,22.23168,34.978300000000004,22.12175Q34.7726,22.01181,34.5618,21.912102Q34.350899999999996,21.812391,34.1355,21.723144Q33.92,21.633898,33.7005,21.555331Q33.4809,21.476765,33.2577,21.409067Q33.0345,21.341369,32.8083,21.284703Q32.5821,21.228037,32.3534,21.18254Q32.1246,21.137042,31.893900000000002,21.102823Q31.6633,21.0686039,31.4312,21.0457451Q31.1991,21.0228863,30.96614,21.0114432Q30.73321,21,30.5,21Q30.26679,21,30.03386,21.0114432Q29.80093,21.0228863,29.56884,21.0457451Q29.336750000000002,21.0686039,29.10606,21.102823Q28.87537,21.137042,28.646639999999998,21.18254Q28.41791,21.228037,28.19169,21.284703Q27.96547,21.341369,27.7423,21.409067Q27.51913,21.476765,27.29955,21.555331Q27.07997,21.633898,26.86451,21.723144Q26.64905,21.812391,26.43823,21.912102Q26.22741,22.01181,26.021729999999998,22.12175Q25.81606,22.23168,25.61602,22.35158Q25.41599,22.47147,25.22208,22.60104Q25.02817,22.7306,24.84086,22.86953Q24.65354,23.00845,24.47326,23.1564Q24.29299,23.30435,24.12019,23.46096Q23.94739,23.61758,23.78249,23.78249Q23.61758,23.94739,23.46096,24.12019Q23.30435,24.29299,23.1564,24.47326Q23.00845,24.65354,22.86953,24.84086Q22.7306,25.02817,22.60104,25.22208Q22.47147,25.41599,22.35158,25.61602Q22.23168,25.81606,22.12175,26.021729999999998Q22.01181,26.22741,21.912102,26.43823Q21.812391,26.64905,21.723144,26.86451Q21.633898,27.07997,21.555331,27.29955Q21.476765,27.51913,21.409067,27.7423Q21.341369,27.96547,21.284703,28.19169Q21.228037,28.41791,21.18254,28.646639999999998Q21.137042,28.87537,21.102823,29.10606Q21.0686039,29.336750000000002,21.0457451,29.56884Q21.0228863,29.80093,21.0114432,30.03386Q21,30.26679,21,30.5Q21,30.73321,21.0114432,30.96614Q21.0228863,31.1991,21.0457451,31.4312Q21.0686039,31.6633,21.102823,31.893900000000002Q21.137042,32.1246,21.18254,32.3534Q21.228037,32.5821,21.284703,32.8083Q21.341369,33.0345,21.409067,33.2577Q21.476765,33.4809,21.555331,33.7005Q21.633898,33.92,21.723144,34.1355Q21.812391,34.350899999999996,21.912102,34.5618Q22.01181,34.7726,22.12175,34.978300000000004Q22.23168,35.1839,22.35158,35.384Q22.47147,35.584,22.60104,35.7779Q22.7306,35.9718,22.86953,36.1591Q23.00845,36.3465,23.1564,36.5267Q23.30435,36.707,23.46096,36.8798Q23.61758,37.0526,23.78249,37.2175Q23.94739,37.382400000000004,24.12019,37.539Q24.29299,37.6956,24.47326,37.843599999999995Q24.65354,37.9915,24.84086,38.1305Q25.02817,38.269400000000005,25.22208,38.399Q25.41599,38.5285,25.61602,38.648399999999995Q25.81606,38.768299999999996,26.021729999999998,38.878299999999996Q26.22741,38.9882,26.43823,39.087900000000005Q26.64905,39.1876,26.86451,39.2769Q27.07997,39.3661,27.29955,39.4447Q27.51913,39.5232,27.7423,39.590900000000005Q27.96547,39.6586,28.19169,39.7153Q28.41791,39.772,28.646639999999998,39.817499999999995Q28.87537,39.863,29.10606,39.8972Q29.336750000000002,39.9314,29.56884,39.9543Q29.80093,39.9771,30.03386,39.988600000000005Q30.26679,40,30.5,40ZM30.5,35Q30.61047,35,30.72081,34.9946Q30.831139999999998,34.9892,30.94108,34.978300000000004Q31.051000000000002,34.9675,31.1603,34.9513Q31.2696,34.9351,31.3779,34.9135Q31.4863,34.891999999999996,31.593400000000003,34.8651Q31.7006,34.838300000000004,31.8063,34.806200000000004Q31.912,34.7742,32.016,34.7369Q32.12,34.6997,32.2221,34.6575Q32.3241,34.6152,32.424,34.5679Q32.5239,34.5207,32.6213,34.4686Q32.7187,34.4166,32.8135,34.3598Q32.9082,34.303,33.0001,34.2416Q33.0919,34.1802,33.1806,34.1144Q33.2694,34.0486,33.3548,33.9785Q33.440200000000004,33.908500000000004,33.522,33.8343Q33.603899999999996,33.7601,33.682,33.682Q33.7601,33.603899999999996,33.8343,33.522Q33.908500000000004,33.440200000000004,33.9785,33.3548Q34.0486,33.2694,34.1144,33.1806Q34.1802,33.0919,34.2416,33.0001Q34.303,32.9082,34.3598,32.8135Q34.4166,32.7187,34.4686,32.6213Q34.5207,32.5239,34.5679,32.424Q34.6152,32.3241,34.6575,32.2221Q34.6997,32.12,34.7369,32.016Q34.7742,31.912,34.806200000000004,31.8063Q34.838300000000004,31.7006,34.8651,31.593400000000003Q34.891999999999996,31.4863,34.9135,31.3779Q34.9351,31.2696,34.9513,31.1603Q34.9675,31.051000000000002,34.978300000000004,30.94108Q34.9892,30.831139999999998,34.9946,30.72081Q35,30.61047,35,30.5Q35,30.38953,34.9946,30.27919Q34.9892,30.168860000000002,34.978300000000004,30.05892Q34.9675,29.948990000000002,34.9513,29.83971Q34.9351,29.73044,34.9135,29.62209Q34.891999999999996,29.51375,34.8651,29.40659Q34.838300000000004,29.29943,34.806200000000004,29.19372Q34.7742,29.08801,34.7369,28.98399Q34.6997,28.87998,34.6575,28.77792Q34.6152,28.67586,34.5679,28.576Q34.5207,28.47614,34.4686,28.378709999999998Q34.4166,28.28129,34.3598,28.18654Q34.303,28.09178,34.2416,27.99993Q34.1802,27.908079999999998,34.1144,27.81935Q34.0486,27.730620000000002,33.9785,27.645229999999998Q33.908500000000004,27.55984,33.8343,27.47798Q33.7601,27.39613,33.682,27.31802Q33.603899999999996,27.239910000000002,33.522,27.16572Q33.440200000000004,27.09153,33.3548,27.02145Q33.2694,26.95137,33.1806,26.885559999999998Q33.0919,26.81976,33.0001,26.75839Q32.9082,26.69701,32.8135,26.64022Q32.7187,26.58343,32.6213,26.53135Q32.5239,26.47928,32.424,26.43205Q32.3241,26.38482,32.2221,26.34254Q32.12,26.30027,32.016,26.26305Q31.912,26.225839999999998,31.8063,26.19377Q31.7006,26.1617,31.593400000000003,26.13486Q31.4863,26.10802,31.3779,26.08647Q31.2696,26.06491,31.1603,26.04871Q31.051000000000002,26.0325,30.94108,26.02167Q30.831139999999998,26.01084,30.72081,26.00542Q30.61047,26,30.5,26Q30.38953,26,30.27919,26.00542Q30.168860000000002,26.01084,30.05892,26.02167Q29.948990000000002,26.0325,29.83971,26.04871Q29.73044,26.06491,29.62209,26.08647Q29.51375,26.10802,29.40659,26.13486Q29.29943,26.1617,29.19372,26.19377Q29.08801,26.225839999999998,28.98399,26.26305Q28.87998,26.30027,28.77792,26.34254Q28.67586,26.38482,28.576,26.43205Q28.47614,26.47928,28.378709999999998,26.53135Q28.28129,26.58343,28.18654,26.64022Q28.09178,26.69701,27.99993,26.75839Q27.908079999999998,26.81976,27.81935,26.88557Q27.730620000000002,26.95137,27.645229999999998,27.02145Q27.55984,27.09153,27.47798,27.16572Q27.39613,27.239910000000002,27.31802,27.31802Q27.239910000000002,27.39613,27.16572,27.47798Q27.09153,27.55984,27.02145,27.645229999999998Q26.95137,27.730620000000002,26.885559999999998,27.81935Q26.81976,27.908079999999998,26.75839,27.99993Q26.69701,28.09178,26.64022,28.18654Q26.58343,28.28129,26.53135,28.378709999999998Q26.47928,28.47614,26.43205,28.576Q26.38482,28.67586,26.34254,28.77792Q26.30027,28.87998,26.26305,28.98399Q26.225839999999998,29.08801,26.19377,29.19372Q26.1617,29.29943,26.13486,29.40659Q26.10802,29.51375,26.08647,29.62209Q26.06491,29.73044,26.04871,29.83971Q26.0325,29.948990000000002,26.02167,30.05892Q26.01084,30.168860000000002,26.00542,30.27919Q26,30.38953,26,30.5Q26,30.61047,26.00542,30.72081Q26.01084,30.831139999999998,26.02167,30.94108Q26.0325,31.051000000000002,26.0487,31.1603Q26.06491,31.2696,26.08647,31.3779Q26.10802,31.4863,26.13486,31.593400000000003Q26.1617,31.7006,26.19377,31.8063Q26.225839999999998,31.912,26.26305,32.016Q26.30027,32.12,26.34254,32.2221Q26.38482,32.3241,26.43205,32.424Q26.47928,32.5239,26.53135,32.6213Q26.58343,32.7187,26.64022,32.8135Q26.69701,32.9082,26.75839,33.0001Q26.81976,33.0919,26.88557,33.1806Q26.95137,33.2694,27.02145,33.3548Q27.09153,33.440200000000004,27.16572,33.522Q27.239910000000002,33.603899999999996,27.31802,33.682Q27.39613,33.7601,27.47798,33.8343Q27.55984,33.908500000000004,27.645229999999998,33.9785Q27.730620000000002,34.0486,27.81935,34.1144Q27.908079999999998,34.1802,27.99993,34.2416Q28.09178,34.303,28.18654,34.3598Q28.28129,34.4166,28.378709999999998,34.4686Q28.47614,34.5207,28.576,34.5679Q28.67586,34.6152,28.77792,34.6575Q28.87998,34.6997,28.98399,34.7369Q29.08801,34.7742,29.19372,34.806200000000004Q29.29943,34.838300000000004,29.40659,34.8651Q29.51375,34.891999999999996,29.62209,34.9135Q29.73044,34.9351,29.83971,34.9513Q29.948990000000002,34.9675,30.05892,34.978300000000004Q30.168860000000002,34.9892,30.27919,34.9946Q30.38953,35,30.5,35Z" fill-rule="evenodd" fill="#FFFFFF" fill-opacity="1"/></g></g></svg>