<svg xmlns="http://www.w3.org/2000/svg" xmlns:xlink="http://www.w3.org/1999/xlink" fill="none" version="1.1" width="37.6953125" height="46.583984375" viewBox="0 0 37.6953125 46.583984375"><g><g><path d="M2.07129,15.1647296875C0.828782,15.1647296875,0,16.200129687500002,0,17.2356296875L0,34.423429687500004C0,35.6659296875,1.03587,36.494229687499995,2.07129,36.494229687499995L13.1851,36.494229687499995C13.3638,36.494229687499995,13.5387,36.555429687499995,13.6804,36.6643296875C17.0288,39.2378296875,20.7483,41.0454296875,24.3034,43.1925296875C24.8443,43.5192296875,25.5488,43.1366296875,25.5488,42.5046296875L25.5488,38.9700296875C25.5488,38.6888296875,25.4011,38.4282296875,25.1599,38.2837296875L15.1,32.2591296875C14.9758,32.184729687499996,14.8337,32.1454296875,14.6889,32.1454296875L5.35566,32.1454296875C4.91384,32.1454296875,4.55566,31.7872296875,4.55566,31.3454296875L4.55566,20.7276296875C4.55566,20.285829687499998,4.91384,19.9276296875,5.35566,19.9276296875L10.0374,19.9276296875C10.4792,19.9276296875,10.8374,19.5695296875,10.8374,19.1276296875L10.8374,15.9647296875C10.8374,15.5229296875,10.4792,15.1647296875,10.0374,15.1647296875L2.07129,15.1647296875ZM27.883,26.4258296875L31.2527,26.4258296875C31.6946,26.4258296875,32.0527,26.0676296875,32.0527,25.6258296875L32.0527,6.9231596875C32.0527,5.0654026875,29.9951,4.2364066875,28.5463,5.2565266875C28.5367,5.2632506875,28.5279,5.2698736875,28.5187,5.2770666875C26.9306,6.5187396875,25.2557,7.6179896875,23.552,8.6699396875C23.3151,8.816249687500001,23.1694,9.0748996875,23.1694,9.3533796875L23.1694,13.1055896875C23.1694,13.7341996875,23.8611,14.1172296875,24.3939,13.7836796875L25.8585,12.8668296875C26.3913,12.5332796875,27.083,12.9163096875,27.083,13.5449196875L27.083,25.6258296875C27.083,26.0676296875,27.4412,26.4258296875,27.883,26.4258296875" fill-rule="evenodd" fill="#FFFFFF" fill-opacity="1"/></g><g transform="matrix(0.5288358926773071,0.8487241268157959,-0.8487241268157959,0.5288358926773071,7.654021663416643,-6.62338987889234)"><path d="M9.83393736875,0.9823612499999999L55.82368046875,1.71576125Q55.95008046875,1.71778125,56.07568046875,1.73205125Q56.20138046875,1.74632125,56.32498046875,1.77271125Q56.44868046875,1.79911125,56.56918046875,1.83737125Q56.68968046875,1.87564125,56.80588046875,1.92541125Q56.92208046875,1.97519125,57.03288046875,2.03601125Q57.14378046875,2.09683125,57.24818046875,2.16811125Q57.35258046875,2.2394012500000002,57.44958046875,2.3204812500000003Q57.54658046875,2.4015612500000003,57.63528046875,2.49167125Q57.72398046875,2.5817812499999997,57.80348046875,2.68006825Q57.88308046875,2.77835825,57.95268046875,2.88390025Q58.02228046875,2.9894422499999997,58.08128046875,3.10124025Q58.14038046875,3.21303725,58.18828046875,3.33003725Q58.23618046875,3.44703625,58.27248046875,3.56813195Q58.30888046875,3.68922825,58.33328046875,3.81327925Q58.35768046875,3.93732925,58.36998046875,4.06316425Q58.38218046875,4.18899825,58.38218046875,4.31542925Q58.38218046875,4.44315925,58.36968046875,4.57027425Q58.35718046875,4.69739125,58.33228046875,4.8226612499999995Q58.30738046875,4.9479412499999995,58.27028046875,5.07017125Q58.23318046875,5.19240125,58.18428046875,5.31041125Q58.13538046875,5.42841125,58.07518046875,5.54106125Q58.01498046875,5.653711250000001,57.94408046875,5.75991125Q57.87308046875,5.866111249999999,57.79208046875,5.964851250000001Q57.71098046875,6.06359125,57.62068046875,6.15391125Q57.53038046875,6.24422125,57.43168046875,6.3252612500000005Q57.33288046875,6.406291250000001,57.22668046875,6.47725125Q57.12048046875,6.54821125,57.00788046875,6.60842125Q56.89518046875,6.66863125,56.77718046875,6.717511249999999Q56.65918046875,6.7664012499999995,56.53698046875,6.803471249999999Q56.41478046875,6.84055125,56.28948046875,6.865471250000001Q56.16418046875,6.89039125,56.03708046875,6.90291125Q55.90998046875,6.91543125,55.78218046875,6.91543125Q55.76148046875,6.91543125,55.74078046875,6.91510125L9.75102356875,6.18170125Q9.62460846875,6.17968125,9.49898546875,6.16541125Q9.37336246875,6.15114125,9.24971646875,6.12475125Q9.12607146875,6.09835125,9.00556946875,6.06009125Q8.88506846875,6.02182125,8.76885046875,5.97205125Q8.65263046875,5.92227125,8.54179046875,5.86145125Q8.43094046875,5.80063125,8.326520468750001,5.729351250000001Q8.22211046875,5.658061249999999,8.12510046875,5.57698125Q8.02809046875,5.49590125,7.93940046875,5.40579125Q7.85072046875,5.31568125,7.7711904687499995,5.21739125Q7.69167046875,5.11910125,7.62206046875,5.01356125Q7.55245046875,4.90802125,7.49341046875,4.79622125Q7.4343604687500005,4.68442125,7.3864504687500006,4.56742425Q7.33853046875,4.45042525,7.30219046875,4.32932925Q7.26585046875,4.20823325,7.24143046875,4.08418225Q7.21701046875,3.96013125,7.2047504687499995,3.83429725Q7.19248046875,3.70846225,7.19248046875,3.58203125Q7.19248046875,3.45430125,7.205000468750001,3.32718625Q7.21752046875,3.20007225,7.24244046875,3.07479625Q7.267360468750001,2.94952125,7.30444046875,2.82729125Q7.34151046875,2.70506125,7.390390468750001,2.58705425Q7.43927046875,2.4690512499999997,7.49949046875,2.3564012500000002Q7.55970046875,2.24375125,7.6306604687499995,2.13755125Q7.70162046875,2.03134125,7.78265046875,1.93261125Q7.86368046875,1.83387125,7.95400046875,1.74355125Q8.04432046875,1.65323125,8.14306046875,1.57220125Q8.24179046875,1.4911712499999998,8.34800046875,1.42021125Q8.45420046875,1.34925125,8.56685046875,1.28904125Q8.67950046875,1.2288212500000002,8.79750346875,1.1799412500000002Q8.91551046875,1.1310612500000001,9.03774046875,1.0939912500000002Q9.15997046875,1.0569112500000002,9.28524546875,1.03199125Q9.41052146875,1.00707125,9.53763546875,0.9945512500000002Q9.66475046875,0.9820312499999999,9.79248046875,0.9820312499999999Q9.81321026875,0.9820312499999999,9.83393736875,0.9823612499999999Z" fill-rule="evenodd" fill="#FFFEFE" fill-opacity="1"/></g></g></svg>
