<svg xmlns="http://www.w3.org/2000/svg" xmlns:xlink="http://www.w3.org/1999/xlink" fill="none" version="1.1" width="127" height="126" viewBox="0 0 127 126"><g><g><rect x="0" y="0" width="127" height="126" rx="27" fill="#4F6299" fill-opacity="1"/></g><g><path d="M75.40690000000001,77.9431Q74.7373,78.4334,74.031,78.8694Q73.3247,79.30539999999999,72.5862,79.68430000000001Q71.8478,80.0632,71.0817,80.3826Q70.3156,80.702,69.5267,80.96000000000001Q68.7378,81.218,67.931,81.41290000000001Q67.1242,81.6078,66.3045,81.7384Q65.4848,81.869,64.6574,81.9345Q63.83,82,63,82Q62.4845,82,61.9696,81.9747Q61.4547,81.9494,60.9416,81.8989Q60.4286,81.8483,59.9187,81.7727Q59.408699999999996,81.6971,58.903099999999995,81.59649999999999Q58.3975,81.4959,57.8974,81.3706Q57.3973,81.24539999999999,56.903999999999996,81.0957Q56.4107,80.9461,55.9253,80.7724Q55.4399,80.59870000000001,54.9636,80.4015Q54.4874,80.2042,54.0213,79.9838Q53.5553,79.76339999999999,53.1007,79.52029999999999Q52.646,79.2773,52.2038,79.01230000000001Q51.76166,78.7473,51.33302,78.46090000000001Q50.90438,78.17439999999999,50.49031,77.8674Q50.07624,77.5603,49.67774,77.2332Q49.27924,76.9062,48.89726,76.56Q48.51529,76.21379999999999,48.15076,75.8492Q47.78623,75.4847,47.44003,75.1027Q47.09382,74.7208,46.76678,74.3223Q46.43974,73.9238,46.13264,73.50970000000001Q45.82555,73.09559999999999,45.53914,72.667Q45.25273,72.23830000000001,44.9877,71.7962Q44.72267,71.354,44.47965,70.8993Q44.23664,70.4447,44.01622,69.9787Q43.79581,69.51259999999999,43.59853,69.0363Q43.40125,68.5601,43.22757,68.0747Q43.0539,67.58930000000001,42.904253,67.096Q42.754605,66.6027,42.629344,66.1026Q42.504082,65.60249999999999,42.403509,65.0969Q42.302936,64.5913,42.227293,64.0813Q42.151651,63.5714,42.101121,63.0584Q42.0505908,62.5453,42.0252954,62.0304Q42,61.5155,42,61Q42,60.4845,42.0252954,59.9696Q42.0505908,59.4547,42.101121,58.9416Q42.151651,58.4286,42.227293,57.9187Q42.302936,57.408699999999996,42.403509,56.903099999999995Q42.504082,56.3975,42.629344,55.8974Q42.754605,55.3973,42.904253,54.903999999999996Q43.0539,54.4107,43.22757,53.9253Q43.40125,53.4399,43.59853,52.9636Q43.79581,52.4874,44.01622,52.0213Q44.23664,51.5553,44.47965,51.1007Q44.72267,50.646,44.9877,50.2038Q45.25273,49.76166,45.53914,49.33302Q45.82555,48.90438,46.13264,48.49031Q46.43974,48.07624,46.76678,47.67774Q47.09382,47.27924,47.44003,46.89726Q47.78623,46.51529,48.15076,46.15076Q48.51529,45.78623,48.89726,45.44003Q49.27924,45.09382,49.67774,44.76678Q50.07624,44.43974,50.49031,44.13264Q50.90438,43.82555,51.33302,43.53914Q51.76166,43.25273,52.2038,42.9877Q52.646,42.72267,53.1007,42.47965Q53.5553,42.23664,54.0213,42.01622Q54.4874,41.79581,54.9636,41.59853Q55.4399,41.40125,55.9253,41.22757Q56.4107,41.0539,56.903999999999996,40.904253Q57.3973,40.754605,57.8974,40.629344Q58.3975,40.504082,58.903099999999995,40.403509Q59.408699999999996,40.302936,59.9187,40.227293Q60.4286,40.151651,60.9416,40.101121Q61.4547,40.0505908,61.9696,40.0252954Q62.4845,40,63,40Q63.5155,40,64.0304,40.0252954Q64.5453,40.0505908,65.0584,40.101121Q65.5714,40.151651,66.0813,40.227293Q66.5913,40.302936,67.0969,40.403509Q67.60249999999999,40.504082,68.1026,40.629344Q68.6027,40.754605,69.096,40.904253Q69.58930000000001,41.0539,70.0747,41.22757Q70.5601,41.40125,71.0363,41.59853Q71.51259999999999,41.79581,71.9787,42.01622Q72.4447,42.23664,72.8993,42.47965Q73.354,42.72267,73.7962,42.9877Q74.23830000000001,43.25273,74.667,43.53914Q75.09559999999999,43.82555,75.50970000000001,44.13264Q75.9238,44.43974,76.3223,44.76678Q76.7208,45.09382,77.1027,45.44003Q77.4847,45.78623,77.8492,46.15076Q78.21379999999999,46.51529,78.56,46.89726Q78.9062,47.27924,79.2332,47.67774Q79.5603,48.07624,79.8673,48.49031Q80.17439999999999,48.90438,80.46090000000001,49.33302Q80.7473,49.76166,81.01230000000001,50.2038Q81.2773,50.646,81.52029999999999,51.1007Q81.76339999999999,51.5553,81.9838,52.0213Q82.2042,52.4874,82.4015,52.9636Q82.59870000000001,53.4399,82.7724,53.9253Q82.9461,54.4107,83.0957,54.903999999999996Q83.24539999999999,55.3973,83.3707,55.8974Q83.4959,56.3975,83.59649999999999,56.903099999999995Q83.6971,57.408699999999996,83.7727,57.9187Q83.8483,58.4286,83.8989,58.9416Q83.9494,59.4547,83.9747,59.9696Q84,60.4845,84,61Q84,61.9193,83.9197,62.835Q83.83930000000001,63.750699999999995,83.6793,64.656Q83.5193,65.5612,83.2808,66.4489Q83.04220000000001,67.33670000000001,82.72710000000001,68.2002Q82.4119,69.0638,82.0224,69.8965Q81.63300000000001,70.72919999999999,81.1723,71.52459999999999Q80.7116,72.3201,80.1831,73.0723Q79.65469999999999,73.8245,79.0625,74.5276L83.2502,78.7153Q83.3895,78.8546,83.49889999999999,79.01830000000001Q83.6084,79.18209999999999,83.68379999999999,79.36410000000001Q83.75909999999999,79.5461,83.7976,79.7393Q83.836,79.9325,83.836,80.12950000000001Q83.836,80.32650000000001,83.7976,80.5197Q83.75909999999999,80.71289999999999,83.68379999999999,80.8949Q83.6084,81.07679999999999,83.49889999999999,81.2406Q83.3895,81.40440000000001,83.2502,81.5437L82.54310000000001,82.2508Q82.4736,82.3203,82.3977,82.3826Q82.32169999999999,82.44489999999999,82.24000000000001,82.4995Q82.1583,82.5541,82.07169999999999,82.60040000000001Q81.985,82.64670000000001,81.8942,82.68430000000001Q81.8035,82.7219,81.7094,82.7505Q81.6154,82.779,81.51910000000001,82.79820000000001Q81.42269999999999,82.8173,81.3249,82.827Q81.22710000000001,82.8366,81.1289,82.8366Q81.03059999999999,82.8366,80.9328,82.827Q80.8351,82.8173,80.7387,82.79820000000001Q80.6423,82.779,80.5483,82.7505Q80.4543,82.72200000000001,80.3635,82.68430000000001Q80.2727,82.64670000000001,80.18610000000001,82.60040000000001Q80.0994,82.5541,80.01769999999999,82.4995Q79.93610000000001,82.44489999999999,79.8601,82.3826Q79.7841,82.3203,79.7147,82.2508L75.40690000000001,77.9431ZM79,61Q79,57.9481,77.8766,55.1105Q76.65690000000001,52.0294,74.3137,49.68629Q71.9706,47.34315,68.8895,46.12339Q66.0519,45,63,45Q59.9481,45,57.1105,46.12339Q54.0294,47.34315,51.68629,49.68629Q49.34315,52.0294,48.12339,55.1105Q47,57.9481,47,61Q47,64.0519,48.12339,66.8895Q49.34315,69.9706,51.68629,72.3137Q54.0294,74.65690000000001,57.1105,75.8766Q59.9481,77,63,77Q66.0519,77,68.8895,75.8766Q71.9706,74.65690000000001,74.3137,72.3137Q76.65690000000001,69.9706,77.8766,66.8895Q79,64.0519,79,61Z" fill-rule="evenodd" fill="#FFFFFF" fill-opacity="1"/></g></g></svg>