<svg xmlns="http://www.w3.org/2000/svg" xmlns:xlink="http://www.w3.org/1999/xlink" fill="none" version="1.1" width="53.13623046875" height="41.6982421875" viewBox="0 0 53.13623046875 41.6982421875"><g><g><path d="M14.9102,14.90526103515625L27.083,7.28491103515625L27.083,34.62006103515625L14.9102,27.33006103515625L4.55566,27.33006103515625L4.55566,15.11226103515625L14.9102,15.11226103515625L14.9102,14.90526103515625ZM2.07129,10.34936103515625C0.828782,10.34936103515625,0,11.38476103515625,0,12.42026103515625L0,29.60806103515625C0,30.85056103515625,1.03587,31.67886103515625,2.07129,31.67886103515625L13.4609,31.67886103515625C18.2239,35.40636103515625,23.7693,37.51926103515625,28.5322,41.24676103515625C29.9818,42.28216103515625,32.0527,41.45376103515625,32.0527,39.59006103515625L32.0527,2.10779103515625C32.0527,0.24402703515625,29.9818,-0.58431196484375,28.5322,0.45111103515625C23.7693,4.17863103515625,18.2239,6.62184103515625,13.4609,10.34936103515625L2.07129,10.34936103515625Z" fill="#FFFFFF" fill-opacity="1"/></g><g><path d="M39.253976875,14.33012324609375Q41.241794875,20.22817724609375,39.249706875,26.246077246093748L43.996386875,27.817277246093752Q46.513336875,20.21395724609375,43.992116875,12.73323324609375L39.253976875,14.33012324609375Z" fill-rule="evenodd" fill="#FFFFFF" fill-opacity="1"/></g><g><path d="M46.688976875,7.10204024609375Q49.585988875,19.46527724609375,46.678746875,33.00687724609375L51.567346875,34.05647724609375Q54.710206875,19.41737724609375,51.557116875,5.96131424609375L46.688976875,7.10204024609375Z" fill-rule="evenodd" fill="#FFFFFF" fill-opacity="1"/></g></g></svg>